<svg width="24" height="22" viewBox="0 0 24 22" fill="none" xmlns="http://www.w3.org/2000/svg">
<path id="Vector" d="M14.8581 3.73275C15.8432 3.73275 16.788 3.35213 17.4845 2.67463C18.1811 1.99713 18.5724 1.07825 18.5724 0.120117H20.2867C20.2867 1.07825 20.678 1.99713 21.3746 2.67463C22.0711 3.35213 23.0159 3.73275 24.001 3.73275V5.40012C23.0159 5.40012 22.0711 5.78073 21.3746 6.45823C20.678 7.13573 20.2867 8.05462 20.2867 9.01275H18.5724C18.5724 8.05462 18.1811 7.13573 17.4845 6.45823C16.788 5.78073 15.8432 5.40012 14.8581 5.40012V3.73275ZM2.28669 5.67801C2.28669 5.08839 2.52751 4.52292 2.95616 4.106C3.38482 3.68908 3.9662 3.45485 4.57241 3.45485H12.5724V1.2317H4.57241C3.35999 1.2317 2.19723 1.70015 1.33992 2.53399C0.482608 3.36784 0.000976563 4.49878 0.000976562 5.67801V16.7938C0.000976563 17.973 0.482608 19.104 1.33992 19.9378C2.19723 20.7717 3.35999 21.2401 4.57241 21.2401H18.2867C19.4991 21.2401 20.6619 20.7717 21.5192 19.9378C22.3765 19.104 22.8581 17.973 22.8581 16.7938V11.2359H20.5724V16.7938C20.5724 17.3834 20.3316 17.9489 19.9029 18.3658C19.4743 18.7827 18.8929 19.017 18.2867 19.017H4.57241C3.9662 19.017 3.38482 18.7827 2.95616 18.3658C2.52751 17.9489 2.28669 17.3834 2.28669 16.7938V5.67801Z" fill="white"/>
</svg>
