<svg width="165" height="35" viewBox="0 0 165 35" fill="none" xmlns="http://www.w3.org/2000/svg">
<g id="Group 15">
<path fill-rule="evenodd" clip-rule="evenodd" d="M164.001 6.03027H160.091V18.3371L155.604 6.03027H151.095L145.967 20.04H150.077L150.835 17.7547H155.823L156.582 20.04H164.001V6.03027ZM151.833 14.7739L153.329 10.2431L154.846 14.7739H151.833Z" fill="url(#paint0_linear_19_4580)"/>
<g id="_2">
<path d="M16.8871 21.4722H7.73927L6.27282 25.7844H0.0229492L8.89148 1.37177H15.8047L24.6733 25.7844H18.3536L16.8871 21.4722ZM15.3508 16.8818L12.3132 7.9444L9.31046 16.8818H15.3508Z" fill="white"/>
<path d="M21.1225 16.0472C21.1225 14.0534 21.495 12.303 22.2398 10.796C23.008 9.28907 24.0438 8.12987 25.3473 7.31844C26.6508 6.507 28.1056 6.10128 29.7117 6.10128C30.992 6.10128 32.1558 6.3679 33.2033 6.90113C34.274 7.43436 35.112 8.15306 35.7172 9.05723V0.050293H41.6877V25.7844H35.7172V23.0023C35.1585 23.9297 34.3555 24.6716 33.308 25.228C32.2838 25.7844 31.0851 26.0626 29.7117 26.0626C28.1056 26.0626 26.6508 25.6569 25.3473 24.8455C24.0438 24.0108 23.008 22.84 22.2398 21.3331C21.495 19.803 21.1225 18.041 21.1225 16.0472ZM35.7172 16.0819C35.7172 14.5982 35.2982 13.4274 34.4602 12.5696C33.6455 11.7118 32.6446 11.2829 31.4575 11.2829C30.2704 11.2829 29.2578 11.7118 28.4199 12.5696C27.6052 13.4042 27.1978 14.5634 27.1978 16.0472C27.1978 17.5309 27.6052 18.7133 28.4199 19.5943C29.2578 20.4521 30.2704 20.881 31.4575 20.881C32.6446 20.881 33.6455 20.4521 34.4602 19.5943C35.2982 18.7365 35.7172 17.5657 35.7172 16.0819Z" fill="white"/>
<path d="M48.8702 26.0626C47.171 26.0626 45.658 25.7728 44.3312 25.1932C43.0044 24.6136 41.957 23.8254 41.1888 22.8285C40.4207 21.8084 39.9901 20.6724 39.8969 19.4204H45.7977C45.8675 20.0928 46.1817 20.6376 46.7404 21.0549C47.299 21.4722 47.9857 21.6809 48.8004 21.6809C49.5453 21.6809 50.1155 21.5417 50.5112 21.2635C50.9302 20.9622 51.1397 20.5796 51.1397 20.1159C51.1397 19.5595 50.8488 19.1538 50.2668 18.8988C49.6849 18.6206 48.7422 18.3192 47.4387 17.9946C46.0421 17.67 44.8782 17.3339 43.9471 16.9861C43.0161 16.6152 42.213 16.0472 41.538 15.2821C40.8629 14.4938 40.5254 13.439 40.5254 12.1175C40.5254 11.0047 40.828 9.99618 41.4332 9.09201C42.0617 8.16465 42.9695 7.43436 44.1566 6.90113C45.367 6.3679 46.7986 6.10128 48.4512 6.10128C50.8953 6.10128 52.8157 6.70407 54.2123 7.90963C55.6322 9.11519 56.4469 10.7149 56.6564 12.7087H51.1397C51.0466 12.0364 50.744 11.5031 50.2319 11.109C49.7431 10.7149 49.0914 10.5178 48.2767 10.5178C47.5783 10.5178 47.043 10.6569 46.6705 10.9351C46.2981 11.1901 46.1119 11.5495 46.1119 12.0132C46.1119 12.5696 46.4029 12.9869 46.9848 13.2651C47.59 13.5433 48.5211 13.8215 49.778 14.0997C51.2212 14.4707 52.3967 14.8416 53.3045 15.2125C54.2123 15.5603 55.0037 16.1399 55.6787 16.9513C56.377 17.7396 56.7378 18.8061 56.7611 20.1507C56.7611 21.2867 56.4352 22.3068 55.7835 23.211C55.155 24.092 54.2356 24.7875 53.0252 25.2975C51.838 25.8076 50.4531 26.0626 48.8702 26.0626Z" fill="white"/>
<path d="M71.6217 9.09201C71.1795 8.28057 70.5394 7.6662 69.7014 7.24889C68.8867 6.80839 67.9207 6.58815 66.8034 6.58815C64.8714 6.58815 63.3235 7.2257 62.1596 8.50082C60.9958 9.75275 60.4139 11.4336 60.4139 13.5433C60.4139 15.7921 61.0191 17.5541 62.2295 18.8292C63.4632 20.0812 65.1507 20.7071 67.2922 20.7071C68.7587 20.7071 69.9923 20.3362 70.9933 19.5943C72.0174 18.8524 72.7623 17.786 73.2278 16.3949H65.6512V12.0132H78.6397V17.5425C78.1975 19.0263 77.441 20.4057 76.3702 21.6809C75.3228 22.956 73.9843 23.9876 72.355 24.7759C70.7256 25.5641 68.8867 25.9583 66.8383 25.9583C64.4175 25.9583 62.2528 25.4366 60.344 24.3934C58.4586 23.3269 56.9805 21.8547 55.9098 19.9768C54.8623 18.0989 54.3386 15.9544 54.3386 13.5433C54.3386 11.1322 54.8623 8.98768 55.9098 7.10979C56.9805 5.20871 58.4586 3.73653 60.344 2.69325C62.2295 1.6268 64.3826 1.09357 66.8034 1.09357C69.7363 1.09357 72.2037 1.80068 74.2055 3.21489C76.2306 4.62911 77.569 6.58815 78.2208 9.09201H71.6217Z" fill="white"/>
<path d="M95.2497 15.769C95.2497 16.3254 95.2148 16.905 95.1449 17.5078H81.6326C81.7258 18.7133 82.1098 19.6407 82.7849 20.2898C83.4832 20.9158 84.3328 21.2288 85.3337 21.2288C86.8234 21.2288 87.8592 20.6028 88.4412 19.3509H94.7958C94.4699 20.626 93.8763 21.7736 93.0151 22.7937C92.1771 23.8138 91.118 24.6136 89.8378 25.1932C88.5576 25.7728 87.126 26.0626 85.5432 26.0626C83.6345 26.0626 81.9353 25.6569 80.4455 24.8455C78.9558 24.034 77.792 22.8748 76.954 21.3679C76.116 19.8609 75.697 18.0989 75.697 16.0819C75.697 14.0649 76.1044 12.303 76.9191 10.796C77.757 9.28907 78.9209 8.12987 80.4106 7.31844C81.9003 6.507 83.6112 6.10128 85.5432 6.10128C87.4286 6.10128 89.1046 6.49541 90.571 7.28366C92.0375 8.07191 93.178 9.19633 93.9927 10.6569C94.8307 12.1175 95.2497 13.8215 95.2497 15.769ZM89.1395 14.204C89.1395 13.184 88.7903 12.3725 88.092 11.7697C87.3937 11.167 86.5208 10.8656 85.4734 10.8656C84.4724 10.8656 83.6228 11.1554 82.9245 11.735C82.2495 12.3146 81.8305 13.1376 81.6676 14.204H89.1395Z" fill="white"/>
<path d="M105.208 6.17084C107.489 6.17084 109.305 6.91272 110.655 8.39649C112.028 9.85707 112.715 11.8741 112.715 14.4475V25.7844H106.779V15.2473C106.779 13.949 106.442 12.9405 105.767 12.2218C105.092 11.5031 104.184 11.1438 103.043 11.1438C101.903 11.1438 100.995 11.5031 100.32 12.2218C99.6448 12.9405 99.3072 13.949 99.3072 15.2473V25.7844H93.3367V6.37949H99.3072V8.9529C99.9124 8.0951 100.727 7.42277 101.751 6.9359C102.776 6.42586 103.928 6.17084 105.208 6.17084Z" fill="white"/>
<path d="M110.614 16.0819C110.614 14.0649 111.021 12.303 111.836 10.796C112.674 9.28907 113.826 8.12987 115.293 7.31844C116.782 6.507 118.481 6.10128 120.39 6.10128C122.834 6.10128 124.871 6.73884 126.5 8.01395C128.153 9.28907 129.235 11.0858 129.748 13.4042H123.393C122.858 11.9204 121.822 11.1786 120.285 11.1786C119.191 11.1786 118.319 11.6075 117.667 12.4653C117.015 13.2999 116.689 14.5054 116.689 16.0819C116.689 17.6584 117.015 18.8756 117.667 19.7334C118.319 20.568 119.191 20.9853 120.285 20.9853C121.822 20.9853 122.858 20.2435 123.393 18.7597H129.748C129.235 21.0317 128.153 22.8169 126.5 24.1152C124.848 25.4135 122.811 26.0626 120.39 26.0626C118.481 26.0626 116.782 25.6569 115.293 24.8455C113.826 24.034 112.674 22.8748 111.836 21.3679C111.021 19.8609 110.614 18.0989 110.614 16.0819Z" fill="white"/>
<path d="M147.78 6.37949L135.56 35H129.135L133.605 25.1237L125.679 6.37949H132.348L136.852 18.5163L141.321 6.37949H147.78Z" fill="white"/>
</g>
</g>
<defs>
<linearGradient id="paint0_linear_19_4580" x1="156.502" y1="-1.76127" x2="156.502" y2="20.663" gradientUnits="userSpaceOnUse">
<stop stop-color="#EB00FF"/>
<stop offset="1" stop-color="#4663FF"/>
</linearGradient>
</defs>
</svg>
