<svg width="23" height="23" viewBox="0 0 23 23" fill="none" xmlns="http://www.w3.org/2000/svg">
<g id="Group">
<path id="Vector" d="M15.001 6.67567H15.0126M9.16764 21.1201H4.50098C3.57272 21.1201 2.68248 20.7689 2.0261 20.1438C1.36973 19.5187 1.00098 18.6708 1.00098 17.7868V4.45345C1.00098 3.5694 1.36973 2.72155 2.0261 2.09643C2.68248 1.47131 3.57272 1.12012 4.50098 1.12012H18.501C19.4292 1.12012 20.3195 1.47131 20.9759 2.09643C21.6322 2.72155 22.001 3.5694 22.001 4.45345V10.009" stroke="#ABABAB" stroke-width="2" stroke-linecap="round" stroke-linejoin="round"/>
<path id="Vector_2" d="M1.00098 15.5646L6.83431 10.009C7.91698 9.01681 9.25164 9.01681 10.3343 10.009L11.501 11.1201M13.8343 21.1201V16.6757C13.8343 16.0863 14.0801 15.5211 14.5177 15.1043C14.9553 14.6876 15.5488 14.4535 16.1676 14.4535C16.7865 14.4535 17.38 14.6876 17.8176 15.1043C18.2551 15.5211 18.501 16.0863 18.501 16.6757V21.1201M13.8343 18.8979H18.501M22.001 14.4535V21.1201" stroke="#ABABAB" stroke-width="2" stroke-linecap="round" stroke-linejoin="round"/>
</g>
</svg>
