<svg width="23" height="21" viewBox="0 0 23 21" fill="none" xmlns="http://www.w3.org/2000/svg">
<path id="Vector" d="M6.25098 14.6201V8.99512M11.501 14.6201V5.62012M16.751 14.6201V12.3701M19.376 1.12012H3.62598C2.92978 1.12012 2.2621 1.35717 1.76982 1.77913C1.27754 2.20108 1.00098 2.77338 1.00098 3.37012V16.8701C1.00098 17.4669 1.27754 18.0392 1.76982 18.4611C2.2621 18.8831 2.92978 19.1201 3.62598 19.1201H19.376C20.0722 19.1201 20.7398 18.8831 21.2321 18.4611C21.7244 18.0392 22.001 17.4669 22.001 16.8701V3.37012C22.001 2.77338 21.7244 2.20108 21.2321 1.77913C20.7398 1.35717 20.0722 1.12012 19.376 1.12012Z" stroke="#ABABAB" stroke-width="2" stroke-linecap="round" stroke-linejoin="round"/>
</svg>
