<svg width="64" height="65" viewBox="0 0 64 65" fill="none" xmlns="http://www.w3.org/2000/svg">
<path d="M33.3359 7.5026C33.3359 7.06058 33.1603 6.63665 32.8478 6.32409C32.5352 6.01153 32.1113 5.83594 31.6693 5.83594C31.2272 5.83594 30.8033 6.01153 30.4908 6.32409C30.1782 6.63665 30.0026 7.06058 30.0026 7.5026V8.5026H12.3359C10.4794 8.5026 8.69894 9.2401 7.38619 10.5529C6.07344 11.8656 5.33594 13.6461 5.33594 15.5026V42.8359C5.33594 46.7026 8.46927 49.8359 12.3359 49.8359H21.1453L15.1119 56.3719C14.9581 56.5317 14.8377 56.7205 14.7578 56.9274C14.6779 57.1343 14.64 57.355 14.6465 57.5767C14.653 57.7984 14.7037 58.0166 14.7956 58.2184C14.8874 58.4203 15.0187 58.6018 15.1816 58.7523C15.3445 58.9027 15.5358 59.0192 15.7443 59.0948C15.9528 59.1704 16.1743 59.2037 16.3958 59.1926C16.6173 59.1815 16.8343 59.1263 17.0342 59.0303C17.2341 58.9342 17.4129 58.7993 17.5599 58.6333L25.5599 49.9666C25.5986 49.9249 25.635 49.8813 25.6693 49.8359H35.2226C35.86 48.3795 36.9955 47.1977 38.4253 46.5026H12.3359C11.3635 46.5026 10.4308 46.1163 9.74321 45.4287C9.05558 44.741 8.66927 43.8084 8.66927 42.8359V15.5026C8.66927 14.5301 9.05558 13.5975 9.74321 12.9099C10.4308 12.2222 11.3635 11.8359 12.3359 11.8359H51.6693C52.6417 11.8359 53.5744 12.2222 54.262 12.9099C54.9496 13.5975 55.3359 14.5301 55.3359 15.5026V32.0199C56.3809 32.8951 57.2209 33.989 57.7969 35.2243C58.3729 36.4596 58.6707 37.8063 58.6693 39.1693V15.5026C58.6693 11.6359 55.5359 8.5026 51.6693 8.5026H33.3359V7.5026ZM16.3359 18.5026C15.8939 18.5026 15.47 18.6782 15.1574 18.9908C14.8449 19.3033 14.6693 19.7272 14.6693 20.1693C14.6693 20.6113 14.8449 21.0352 15.1574 21.3478C15.47 21.6603 15.8939 21.8359 16.3359 21.8359H29.0026C29.4446 21.8359 29.8686 21.6603 30.1811 21.3478C30.4937 21.0352 30.6693 20.6113 30.6693 20.1693C30.6693 19.7272 30.4937 19.3033 30.1811 18.9908C29.8686 18.6782 29.4446 18.5026 29.0026 18.5026H16.3359ZM14.6693 29.5026C14.6693 28.5826 15.4159 27.8359 16.3359 27.8359H35.6693C36.1113 27.8359 36.5352 28.0115 36.8478 28.3241C37.1603 28.6367 37.3359 29.0606 37.3359 29.5026C37.3359 29.9446 37.1603 30.3686 36.8478 30.6811C36.5352 30.9937 36.1113 31.1693 35.6693 31.1693H16.3359C15.4159 31.1693 14.6693 30.4226 14.6693 29.5026ZM14.6693 38.8359C14.6693 37.9159 15.4159 37.1693 16.3359 37.1693H31.6693C32.1113 37.1693 32.5352 37.3449 32.8478 37.6574C33.1603 37.97 33.3359 38.3939 33.3359 38.8359C33.3359 39.278 33.1603 39.7019 32.8478 40.0145C32.5352 40.327 32.1113 40.5026 31.6693 40.5026H16.3359C15.4159 40.5026 14.6693 39.7559 14.6693 38.8359ZM56.0026 39.1693C56.0026 40.9374 55.3002 42.6331 54.05 43.8833C52.7997 45.1336 51.104 45.8359 49.3359 45.8359C47.5678 45.8359 45.8721 45.1336 44.6219 43.8833C43.3717 42.6331 42.6693 40.9374 42.6693 39.1693C42.6693 37.4012 43.3717 35.7055 44.6219 34.4552C45.8721 33.205 47.5678 32.5026 49.3359 32.5026C51.104 32.5026 52.7997 33.205 54.05 34.4552C55.3002 35.7055 56.0026 37.4012 56.0026 39.1693ZM61.3359 53.1693C61.3359 57.8359 57.1359 61.8359 49.3359 61.8359C41.5359 61.8359 37.3359 57.8359 37.3359 53.1693V52.4999C37.3359 51.9748 37.4394 51.4548 37.6405 50.9696C37.8415 50.4845 38.1362 50.0437 38.5077 49.6725C38.8791 49.3012 39.3201 49.0068 39.8054 48.8061C40.2907 48.6054 40.8108 48.5023 41.3359 48.5026H57.3359C59.5453 48.5026 61.3359 50.2893 61.3359 52.4999V53.1693Z" fill="#F8F8F8"/>
</svg>
