<svg width="64" height="64" viewBox="0 0 64 64" fill="none" xmlns="http://www.w3.org/2000/svg">
<path d="M13.3359 45.3333H10.6693C9.25478 45.3333 7.89823 44.7714 6.89803 43.7712C5.89784 42.771 5.33594 41.4145 5.33594 40V13.3333C5.33594 11.9188 5.89784 10.5623 6.89803 9.5621C7.89823 8.5619 9.25478 8 10.6693 8H53.3359C54.7504 8 56.107 8.5619 57.1072 9.5621C58.1074 10.5623 58.6693 11.9188 58.6693 13.3333V40C58.6693 41.4145 58.1074 42.771 57.1072 43.7712C56.107 44.7714 54.7504 45.3333 53.3359 45.3333H50.6693" stroke="white" stroke-width="2" stroke-linecap="round" stroke-linejoin="round"/>
<path d="M31.9974 40L45.3307 56H18.6641L31.9974 40Z" stroke="white" stroke-width="2" stroke-linecap="round" stroke-linejoin="round"/>
</svg>
