<svg width="121" height="32" viewBox="0 0 121 32" fill="none" xmlns="http://www.w3.org/2000/svg">
<path d="M15.1094 5.33594H5.77604C5.0688 5.33594 4.39052 5.61689 3.89042 6.11699C3.39033 6.61708 3.10938 7.29536 3.10938 8.0026V26.6693C3.10938 27.3765 3.39033 28.0548 3.89042 28.5549C4.39052 29.055 5.0688 29.3359 5.77604 29.3359H24.4427C25.15 29.3359 25.8282 29.055 26.3283 28.5549C26.8284 28.0548 27.1094 27.3765 27.1094 26.6693V17.3359" stroke="white" stroke-width="2" stroke-linecap="round" stroke-linejoin="round"/>
<path d="M25.1094 3.33624C25.6398 2.80581 26.3592 2.50781 27.1094 2.50781C27.8595 2.50781 28.5789 2.80581 29.1094 3.33624C29.6398 3.86667 29.9378 4.58609 29.9378 5.33624C29.9378 6.08639 29.6398 6.80581 29.1094 7.33624L16.4427 20.0029L11.1094 21.3362L12.4427 16.0029L25.1094 3.33624Z" stroke="white" stroke-width="2" stroke-linecap="round" stroke-linejoin="round"/>
<path d="M61.4453 21L66.4453 16L61.4453 11" stroke="white" stroke-width="2" stroke-linecap="round" stroke-linejoin="round"/>
<path d="M54.4453 21L59.4453 16L54.4453 11" stroke="white" stroke-width="2" stroke-linecap="round" stroke-linejoin="round"/>
<path d="M104.443 29.3307C111.807 29.3307 117.776 23.3612 117.776 15.9974C117.776 8.6336 111.807 2.66406 104.443 2.66406C97.0789 2.66406 91.1094 8.6336 91.1094 15.9974C91.1094 23.3612 97.0789 29.3307 104.443 29.3307Z" stroke="white" stroke-width="2" stroke-linecap="round" stroke-linejoin="round"/>
<path d="M104.445 24C108.864 24 112.445 20.4183 112.445 16C112.445 11.5817 108.864 8 104.445 8C100.027 8 96.4453 11.5817 96.4453 16C96.4453 20.4183 100.027 24 104.445 24Z" stroke="white" stroke-width="2" stroke-linecap="round" stroke-linejoin="round"/>
<path d="M104.448 18.6693C105.921 18.6693 107.115 17.4754 107.115 16.0026C107.115 14.5298 105.921 13.3359 104.448 13.3359C102.975 13.3359 101.781 14.5298 101.781 16.0026C101.781 17.4754 102.975 18.6693 104.448 18.6693Z" stroke="white" stroke-width="2" stroke-linecap="round" stroke-linejoin="round"/>
</svg>
