<svg width="41" height="25" viewBox="0 0 41 25" fill="none" xmlns="http://www.w3.org/2000/svg">
<g id="&#240;&#159;&#166;&#134; icon &#34;Amazon Web Services (AWS)&#34;">
<path id="Vector" d="M12.2521 9.146C12.2071 10.5616 12.9146 11.1885 12.9321 11.5866C12.9238 11.6676 12.8962 11.7455 12.8516 11.8136C12.807 11.8818 12.7468 11.9383 12.6759 11.9785L11.8759 12.5384C11.7724 12.611 11.6503 12.6526 11.524 12.6584C11.4971 12.6572 11.0121 12.7728 10.244 11.0578C9.77541 11.6428 9.17915 12.1128 8.5009 12.4318C7.82266 12.7509 7.08041 12.9105 6.33098 12.8984C5.31349 12.9541 2.55604 12.321 2.69791 9.38538C2.59854 6.99291 4.82663 5.50669 7.13096 5.63231C7.5747 5.63356 8.48094 5.65544 10.0678 6.02418V5.04795C10.2359 3.39423 9.14905 2.11112 7.26721 2.30362C7.11721 2.30424 6.05473 2.27237 4.40226 2.93548C3.94226 3.14673 3.88352 3.11173 3.73039 3.11173C3.26728 3.11173 3.4579 1.76925 3.54665 1.59926C3.87227 1.19926 5.78786 0.452399 7.66783 0.463024C8.92484 0.351855 10.1751 0.7398 11.1484 1.54301C11.544 1.98555 11.8459 2.50369 12.0357 3.06614C12.2255 3.62859 12.2993 4.22367 12.2528 4.81545L12.2521 9.146ZM6.85097 11.1703C8.87781 11.141 9.73592 9.92224 9.93154 9.266C10.0853 8.63789 10.0597 8.24039 10.0597 7.55353C9.4553 7.40853 8.58531 7.25041 7.5872 7.24916C6.64035 7.17791 4.911 7.60103 4.9785 9.26538C4.901 10.3147 5.67349 11.2278 6.85097 11.1703ZM17.5333 12.6109C17.042 12.6559 16.8133 12.3072 16.7408 11.9628L13.6284 1.67238C13.5677 1.49863 13.5277 1.31926 13.5084 1.13614C13.4969 1.06064 13.5158 0.983674 13.5611 0.922149C13.6063 0.860624 13.6741 0.819574 13.7496 0.808018C13.7646 0.805518 13.6165 0.808018 15.1402 0.808018C15.6889 0.753019 15.8677 1.18489 15.9246 1.45613L18.157 10.2579L20.2295 1.45613C20.2626 1.25489 20.4132 0.764269 21.0295 0.816143H22.102C22.2376 0.804893 22.7963 0.784894 22.8945 1.46426L24.9832 10.3785L27.2875 1.46426C27.3175 1.32801 27.4575 0.753644 28.08 0.816143H29.3125C29.3656 0.808018 29.6968 0.765519 29.6406 1.35238C29.6137 1.46801 29.8537 0.686145 26.3438 11.971C26.2719 12.3153 26.0425 12.6641 25.5513 12.6191H24.3832C23.6994 12.6909 23.6013 12.0153 23.5907 11.9472L21.5182 3.37673L19.4695 11.9385C19.4595 12.0066 19.3614 12.6822 18.677 12.6103H17.5333V12.6109ZM34.6255 12.9628C34.258 12.9634 32.5055 12.9441 31.0406 12.1947C30.8946 12.1329 30.7703 12.0292 30.6834 11.8967C30.5965 11.7641 30.551 11.6088 30.5525 11.4503V10.7785C30.5525 10.2504 30.9399 10.3472 31.1043 10.4104C31.7318 10.6641 32.1343 10.8566 32.9049 11.0103C35.1955 11.481 36.203 10.8666 36.4499 10.7304C37.2717 10.2422 37.3367 9.12538 36.778 8.54601C36.123 7.99665 35.8105 7.97602 33.4574 7.23354C33.1674 7.15291 30.7262 6.38293 30.7206 3.96109C30.6824 2.19612 32.2862 0.449899 35.0655 0.464274C35.8574 0.463649 37.9673 0.722395 38.5386 1.44051C38.6229 1.57113 38.6648 1.72488 38.6586 1.8805V2.51236C38.6586 2.78986 38.5573 2.92861 38.3542 2.92861C37.8723 2.87486 37.0173 2.23049 35.2817 2.25674C34.8511 2.23424 32.7887 2.31362 32.8812 3.81734C32.8543 5.00232 34.5443 5.44669 34.7374 5.49794C37.0161 6.18355 37.778 6.2973 38.6823 7.34666C39.7535 8.73726 39.1761 10.3654 38.9542 10.8116C37.7617 13.1547 34.678 12.9641 34.6255 12.9628ZM37.138 19.5165C32.7612 22.7489 26.4075 24.4695 20.9826 24.4695C13.6628 24.5178 6.5896 21.8262 1.15356 16.924C0.745443 16.5559 1.10544 16.0515 1.60168 16.3321C7.63186 19.7815 14.4593 21.594 21.4064 21.5895C26.5942 21.5617 31.7255 20.5093 36.5055 18.4927C37.2417 18.1802 37.8661 18.9802 37.138 19.5165ZM38.9623 17.4359C38.4023 16.7159 35.2574 17.0996 33.8493 17.2677C33.4249 17.3159 33.353 16.9478 33.7374 16.6759C36.2417 14.9153 40.3548 15.4196 40.8273 16.0115C41.2991 16.6034 40.6992 20.7246 38.3548 22.6933C37.9948 22.9976 37.6505 22.837 37.8105 22.437C38.3379 21.1089 39.5223 18.1565 38.9623 17.4359Z" fill="white"/>
<g id="Vector_2">
<path d="M20.9826 24.4699C26.4075 24.4699 32.7612 22.7493 37.138 19.5169C37.8661 18.9807 37.2417 18.1807 36.5055 18.4932C31.7255 20.5097 26.5942 21.5622 21.4064 21.59C14.4593 21.5944 7.63186 19.782 1.60168 16.3326C1.10544 16.052 0.745443 16.5563 1.15356 16.9244C6.5896 21.8267 13.6628 24.5182 20.9826 24.4699Z" fill="#E99E35"/>
<path d="M33.8926 17.263C35.3209 17.0924 38.408 16.7236 38.9623 17.4363C39.5149 18.1474 38.369 21.0315 37.8318 22.3838L37.8105 22.4375C37.6505 22.8375 37.9948 22.9981 38.3548 22.6937C40.6992 20.725 41.2991 16.6038 40.8273 16.012C40.3548 15.4201 36.2417 14.9157 33.7374 16.6763C33.353 16.9482 33.4249 17.3163 33.8493 17.2682L33.8926 17.263Z" fill="#E99E35"/>
</g>
</g>
</svg>
