<svg width="41" height="33" viewBox="0 0 41 33" fill="none" xmlns="http://www.w3.org/2000/svg">
<g id="&#240;&#159;&#166;&#134; icon &#34;Google Cloud&#34;">
<path id="Vector" d="M27.1179 9.32209L30.5949 5.84512L30.8266 4.38108C24.4906 -1.38024 14.4187 -0.726968 8.70711 5.74418C7.12058 7.54149 5.94356 9.78224 5.31592 12.0961L6.56121 11.9206L13.515 10.7739L14.0519 10.2249C17.1451 6.82776 22.3752 6.37073 25.9467 9.26116L27.1179 9.32209Z" fill="#EA4335"/>
<path id="Vector_2" d="M35.5487 11.9945C34.7495 9.05145 33.1087 6.40571 30.8274 4.38184L25.9474 9.26176C28.008 10.9455 29.1819 13.482 29.1316 16.1424V17.0087C31.5302 17.0087 33.4748 18.9532 33.4748 21.3517C33.4748 23.7504 31.5302 25.6462 29.1316 25.6462H20.4331L19.5791 26.5734V31.7827L20.4331 32.6H29.1316C35.3706 32.6486 40.4677 27.6791 40.5163 21.4402C40.5456 17.6585 38.6811 14.1132 35.5487 11.9945Z" fill="#4285F4"/>
<path id="Vector_3" d="M11.746 32.5991H20.4323V25.6452H11.746C11.1271 25.645 10.5277 25.5121 9.96494 25.2549L8.73262 25.633L5.23126 29.11L4.92627 30.2934C6.88983 31.776 9.28558 32.6098 11.746 32.5991Z" fill="#34A853"/>
<path id="Vector_4" d="M11.7462 10.043C5.50704 10.0802 0.47962 15.1683 0.516807 21.4072C0.537587 24.8912 2.16475 28.1709 4.92642 30.2948L9.9651 25.2562C7.77904 24.2686 6.80765 21.696 7.79529 19.5101C8.78277 17.3242 11.3555 16.3528 13.5413 17.3403C14.5046 17.7754 15.2759 18.547 15.7111 19.5101L20.7498 14.4716C18.6059 11.669 15.2747 10.0304 11.7462 10.043Z" fill="#FBBC05"/>
</g>
</svg>
