<svg width="41" height="41" viewBox="0 0 41 41" fill="none" xmlns="http://www.w3.org/2000/svg">
<g id="devicon:google" clip-path="url(#clip0_1890_14917)">
<path id="Vector" d="M14.7503 1.75989C10.7537 3.14636 7.30704 5.77791 4.91656 9.26802C2.52608 12.7581 1.31781 16.9228 1.46922 21.1504C1.62063 25.378 3.12374 29.4456 5.75776 32.7557C8.39179 36.0659 12.0179 38.4441 16.1035 39.5411C19.4157 40.3958 22.886 40.4334 26.216 39.6505C29.2326 38.9729 32.0215 37.5235 34.3097 35.4443C36.6912 33.2141 38.4198 30.377 39.3097 27.238C40.2766 23.8244 40.4487 20.2347 39.8128 16.7443H21.2128V24.4599H31.9847C31.7694 25.6905 31.3081 26.865 30.6283 27.9131C29.9485 28.9613 29.0643 29.8615 28.0285 30.5599C26.7133 31.4303 25.2304 32.0158 23.6753 32.2786C22.1158 32.5687 20.5161 32.5687 18.9566 32.2786C17.3758 31.9522 15.8805 31.2998 14.566 30.363C12.4539 28.868 10.8681 26.744 10.0347 24.2943C9.18749 21.7986 9.18749 19.0931 10.0347 16.5974C10.6279 14.8481 11.6086 13.2553 12.9035 11.938C14.3853 10.4029 16.2614 9.30551 18.3258 8.76638C20.3903 8.22725 22.5633 8.26718 24.6066 8.88177C26.2028 9.37153 27.6625 10.2276 28.8691 11.3818C30.0837 10.1734 31.2962 8.96198 32.5066 7.74739C33.1316 7.09427 33.8128 6.47239 34.4285 5.80364C32.5864 4.08964 30.4243 2.75585 28.066 1.87864C23.7713 0.319237 19.0721 0.27733 14.7503 1.75989Z" fill="white"/>
<path id="Vector_2" d="M14.7501 1.76044C19.0715 0.276864 23.7707 0.317669 28.0657 1.87606C30.4244 2.75922 32.5856 4.09944 34.4251 5.81981C33.8001 6.48856 33.1407 7.11356 32.5032 7.76356C31.2907 8.97398 30.0793 10.1802 28.8688 11.3823C27.6623 10.2282 26.2026 9.37207 24.6063 8.88231C22.5638 8.26556 20.3908 8.22333 18.3258 8.76026C16.2608 9.29718 14.3836 10.3925 12.9001 11.9261C11.6052 13.2434 10.6246 14.8361 10.0313 16.5854L3.55322 11.5698C5.872 6.97157 9.88681 3.45426 14.7501 1.76044Z" fill="#E33629"/>
<path id="Vector_3" d="M1.83476 16.5381C2.18269 14.8124 2.76077 13.1412 3.55351 11.5693L10.0316 16.5975C9.18441 19.0931 9.18441 21.7987 10.0316 24.2943C7.8733 25.961 5.71392 27.636 3.55351 29.3193C1.5696 25.3703 0.964546 20.8709 1.83476 16.5381Z" fill="#F8BD00"/>
<path id="Vector_4" d="M21.2128 16.7412H39.8128C40.4487 20.2316 40.2766 23.8214 39.3097 27.235C38.4198 30.374 36.6912 33.211 34.3097 35.4412C32.2191 33.81 30.1191 32.1912 28.0284 30.56C29.0649 29.8608 29.9496 28.9596 30.6294 27.9104C31.3092 26.8611 31.7702 25.6854 31.9847 24.4537H21.2128C21.2097 21.885 21.2128 19.3131 21.2128 16.7412Z" fill="#587DBD"/>
<path id="Vector_5" d="M3.55029 29.3189C5.71071 27.6523 7.87008 25.9773 10.0284 24.2939C10.8634 26.7446 12.4516 28.8686 14.5659 30.3627C15.8845 31.2951 17.3831 31.9422 18.9659 32.2627C20.5255 32.5528 22.1251 32.5528 23.6847 32.2627C25.2398 31.9998 26.7226 31.4144 28.0378 30.5439C30.1284 32.1752 32.2284 33.7939 34.319 35.4252C32.0312 37.5056 29.2422 38.9561 26.2253 39.6346C22.8953 40.4174 19.4251 40.3799 16.1128 39.5252C13.4931 38.8257 11.0462 37.5927 8.92529 35.9033C6.68069 34.1209 4.84728 31.8749 3.55029 29.3189Z" fill="#319F43"/>
</g>
<defs>
<clipPath id="clip0_1890_14917">
<rect width="40" height="40" fill="white" transform="translate(0.815918 0.444336)"/>
</clipPath>
</defs>
</svg>
