<svg width="41" height="41" viewBox="0 0 41 41" fill="none" xmlns="http://www.w3.org/2000/svg">
<g id="logos:reddit-icon" clip-path="url(#clip0_1890_14908)">
<path id="Vector" d="M20.2759 40.4443C31.3216 40.4443 40.2759 31.49 40.2759 20.4443C40.2759 9.39864 31.3216 0.444336 20.2759 0.444336C9.23018 0.444336 0.275879 9.39864 0.275879 20.4443C0.275879 31.49 9.23018 40.4443 20.2759 40.4443Z" fill="#FF4500"/>
<path id="Vector_2" d="M33.5806 20.6352C33.5806 19.0139 32.2695 17.7262 30.6717 17.7262C29.9169 17.7252 29.1909 18.0157 28.6451 18.537C26.6423 17.1062 23.9001 16.1766 20.8482 16.0573L22.1832 9.81031L26.5228 10.74C26.5707 11.8369 27.4765 12.7192 28.5974 12.7192C29.7418 12.7192 30.6717 11.7895 30.6717 10.6445C30.6717 9.50016 29.742 8.57031 28.5974 8.57031C27.7868 8.57031 27.0712 9.04719 26.7374 9.73875L21.8974 8.71344C21.7543 8.68938 21.6112 8.71344 21.5157 8.785C21.3965 8.85656 21.3251 8.97562 21.3015 9.11875L19.8228 16.0809C16.7232 16.1766 13.9334 17.1062 11.9068 18.5609C11.361 18.0396 10.6349 17.7492 9.8801 17.7503C8.25869 17.7503 6.97119 19.0614 6.97119 20.6592C6.97119 21.8512 7.68635 22.8525 8.68807 23.3059C8.63942 23.5975 8.61548 23.8926 8.6165 24.1881C8.6165 28.6703 13.8384 32.3187 20.276 32.3187C26.7138 32.3187 31.9357 28.6944 31.9357 24.1881C31.9355 23.8926 31.9116 23.5976 31.8642 23.3059C32.8654 22.8525 33.5806 21.8272 33.5806 20.6352ZM13.5996 22.7094C13.5996 21.565 14.5293 20.6352 15.6743 20.6352C16.8187 20.6352 17.7485 21.5648 17.7485 22.7094C17.7485 23.8539 16.8188 24.7841 15.6743 24.7841C14.5295 24.8075 13.5996 23.8539 13.5996 22.7094ZM25.2117 28.2173C23.781 29.6481 21.0628 29.7436 20.276 29.7436C19.4654 29.7436 16.7473 29.6241 15.3401 28.2173C15.1259 28.0028 15.1259 27.6689 15.3401 27.4544C15.5548 27.2402 15.8885 27.2402 16.1032 27.4544C17.0095 28.3606 18.917 28.6703 20.276 28.6703C21.6353 28.6703 23.5663 28.3605 24.4485 27.4544C24.6632 27.2402 24.997 27.2402 25.2117 27.4544C25.4023 27.6689 25.4023 28.0028 25.2117 28.2173ZM24.8299 24.8077C23.6854 24.8077 22.7557 23.878 22.7557 22.7334C22.7557 21.5889 23.6854 20.6592 24.8299 20.6592C25.9748 20.6592 26.9045 21.5889 26.9045 22.7334C26.9045 23.8537 25.9748 24.8077 24.8299 24.8077Z" fill="white"/>
</g>
<defs>
<clipPath id="clip0_1890_14908">
<rect width="40" height="40" fill="white" transform="translate(0.275879 0.444336)"/>
</clipPath>
</defs>
</svg>
