<svg width="41" height="47" viewBox="0 0 41 47" fill="none" xmlns="http://www.w3.org/2000/svg">
<g id="logos:shopify" clip-path="url(#clip0_1890_14820)">
<path id="Vector" d="M35.8611 9.59156C35.8297 9.36344 35.6298 9.23719 35.4647 9.22328C34.2469 9.13177 33.029 9.04099 31.8111 8.95094C31.8111 8.95094 29.3881 6.54547 29.1222 6.27922C28.8561 6.01312 28.3364 6.09406 28.1347 6.15344C28.105 6.16219 27.6053 6.31641 26.7788 6.57219C25.9694 4.24312 24.5409 2.10281 22.028 2.10281C21.9586 2.10281 21.8872 2.10563 21.8158 2.10969C21.1011 1.16453 20.2158 0.753906 19.4511 0.753906C13.5972 0.753906 10.8005 8.07188 9.92359 11.7906C7.64891 12.4955 6.03297 12.9966 5.82656 13.0614C4.55687 13.4597 4.51672 13.4997 4.35 14.6961C4.22453 15.6019 0.902344 41.2939 0.902344 41.2939L26.7895 46.1442L40.8161 43.1098C40.8161 43.1098 35.892 9.81969 35.8611 9.59156ZM25.348 7.01469L23.1575 7.69266C23.1583 7.53828 23.1591 7.38641 23.1591 7.22031C23.1591 5.77281 22.9581 4.60734 22.6358 3.68344C23.9306 3.84594 24.793 5.31922 25.348 7.01469ZM21.0295 3.97047C21.3895 4.8725 21.6236 6.16703 21.6236 7.91391C21.6236 8.00328 21.6228 8.085 21.622 8.16766C20.1975 8.60891 18.6495 9.08797 17.0981 9.56859C17.9692 6.20672 19.602 4.58297 21.0295 3.97047ZM19.2903 2.32406C19.543 2.32406 19.7975 2.40984 20.0411 2.5775C18.165 3.46031 16.1541 5.68375 15.3048 10.1239L11.7289 11.2314C12.7236 7.84469 15.0856 2.32406 19.2903 2.32406Z" fill="#95BF46"/>
<path id="Vector_2" d="M35.4649 9.2232C34.2471 9.13169 33.0292 9.04091 31.8113 8.95086C31.8113 8.95086 29.3884 6.54539 29.1224 6.27914C29.0229 6.18008 28.8887 6.1293 28.7484 6.10742L26.791 46.1438L40.8163 43.1098C40.8163 43.1098 35.8923 9.81961 35.8613 9.59148C35.8299 9.36336 35.6301 9.23711 35.4649 9.2232Z" fill="#5E8E3E"/>
<path id="Vector_3" d="M22.0282 16.9737L20.2987 22.1184C20.2987 22.1184 18.7833 21.3096 16.9258 21.3096C14.2027 21.3096 14.0657 23.0186 14.0657 23.4492C14.0657 25.7989 20.1907 26.6992 20.1907 32.2029C20.1907 36.5331 17.4443 39.3214 13.7412 39.3214C9.2974 39.3214 7.0249 36.5557 7.0249 36.5557L8.21475 32.6245C8.21475 32.6245 10.5507 34.63 12.5218 34.63C13.8097 34.63 14.3337 33.6159 14.3337 32.875C14.3337 29.81 9.30865 29.6732 9.30865 24.6368C9.30865 20.3979 12.3512 16.2959 18.4927 16.2959C20.8591 16.2959 22.0282 16.9737 22.0282 16.9737Z" fill="white"/>
</g>
<defs>
<clipPath id="clip0_1890_14820">
<rect width="40" height="45.625" fill="white" transform="translate(0.896484 0.631836)"/>
</clipPath>
</defs>
</svg>
