<svg width="41" height="41" viewBox="0 0 41 41" fill="none" xmlns="http://www.w3.org/2000/svg">
<g id="Group 631770">
<g id="&#240;&#159;&#166;&#134; icon &#34;linkedin&#34;">
<path id="Vector" d="M34.4365 0.444336H6.43652C3.12282 0.444336 0.436523 3.13063 0.436523 6.44434V34.4443C0.436523 37.758 3.12282 40.4443 6.43652 40.4443H34.4365C37.7502 40.4443 40.4365 37.758 40.4365 34.4443V6.44434C40.4365 3.13063 37.7502 0.444336 34.4365 0.444336Z" fill="black"/>
<path id="Vector_2" d="M19.502 15.6016V31.0703V15.6016ZM11.5332 15.6016V31.0703V15.6016Z" fill="white"/>
</g>
<g id="&#240;&#159;&#166;&#134; icon &#34;tiktok&#34;">
<path id="Vector_3" d="M11.8297 24.821C12.0101 23.328 12.6224 22.4922 13.7762 21.6354C15.4273 20.4748 17.4895 21.1312 17.4895 21.1312V17.2369C17.991 17.224 18.4926 17.2538 18.9884 17.3256V22.3374C18.9884 22.3374 16.9267 21.6809 15.2758 22.842C14.1225 23.6983 13.5089 24.5349 13.3292 26.0278C13.3236 26.8385 13.4757 27.8982 14.1764 28.8145C14.0031 28.7256 13.8265 28.6244 13.6466 28.5109C12.1033 27.4745 11.8222 25.9198 11.8297 24.821ZM27.5038 10.0361C26.3681 8.79157 25.9385 7.53503 25.7834 6.65234H27.212C27.212 6.65234 26.9272 8.96678 29.0033 11.2428L29.0321 11.2734C28.4725 10.9215 27.9594 10.506 27.5038 10.0361ZM34.3863 13.5645V18.4753C34.3863 18.4753 32.5632 18.404 31.214 18.0608C29.33 17.5806 28.1192 16.8444 28.1192 16.8444C28.1192 16.8444 27.2828 16.3194 27.2152 16.2828V26.4238C27.2152 26.9885 27.0605 28.3986 26.5891 29.5747C25.9736 31.1134 25.0239 32.1232 24.8492 32.3296C24.8492 32.3296 23.6941 33.6948 21.6562 34.6141C19.8192 35.4434 18.2064 35.4224 17.7243 35.4434C17.7243 35.4434 14.9364 35.5538 12.4277 33.9234C11.8852 33.564 11.3788 33.1571 10.915 32.7076L10.9276 32.7166C13.4369 34.347 16.2242 34.2366 16.2242 34.2366C16.707 34.2156 18.3197 34.2366 20.1561 33.4073C22.1921 32.4881 23.3491 31.123 23.3491 31.123C23.5219 30.9165 24.476 29.9066 25.089 28.3675C25.5592 27.1919 25.715 25.7811 25.715 25.2165V15.0767C25.7827 15.1138 26.6185 15.6388 26.6185 15.6388C26.6185 15.6388 27.83 16.3758 29.7139 16.8552C31.0637 17.1985 32.8863 17.2699 32.8863 17.2699V13.4217C33.5098 13.5615 34.0414 13.5993 34.3863 13.5645Z" fill="#EE1D52"/>
<path id="Vector_4" d="M32.9073 13.4217V17.2686C32.9073 17.2686 31.0847 17.1972 29.735 16.8541C27.8511 16.3739 26.6395 15.6377 26.6395 15.6377C26.6395 15.6377 25.8037 15.1127 25.7361 15.0754V25.2177C25.7361 25.7824 25.5815 27.1931 25.11 28.3686C24.4945 29.9078 23.5448 30.9177 23.3701 31.1241C23.3701 31.1241 22.2144 32.4892 20.1771 33.4086C18.3408 34.2379 16.728 34.2169 16.2453 34.2379C16.2453 34.2379 13.458 34.3483 10.9486 32.7179L10.9361 32.7089C10.6711 32.4523 10.4218 32.1815 10.1892 31.8976C9.3884 30.9213 8.89755 29.7667 8.77421 29.4373C8.774 29.4359 8.774 29.4345 8.77421 29.4331C8.57575 28.8607 8.15877 27.4859 8.21575 26.1544C8.31655 23.8052 9.14298 22.3632 9.36148 22.0019C9.94017 21.0169 10.6928 20.1355 11.586 19.3971C12.3741 18.7599 13.2674 18.2529 14.2293 17.8969C15.2691 17.479 16.3826 17.2549 17.51 17.2369V21.1312C17.51 21.1312 15.4476 20.4772 13.7973 21.6354C12.6434 22.4922 12.0311 23.328 11.8508 24.821C11.8433 25.9198 12.1244 27.4745 13.6664 28.5115C13.8463 28.6255 14.0228 28.7267 14.1962 28.815C14.4655 29.1652 14.7934 29.4704 15.1665 29.7181C16.6729 30.6717 17.9351 30.7383 19.5492 30.119C20.6254 29.705 21.4355 28.7719 21.8112 27.7379C22.0472 27.0923 22.0441 26.4424 22.0441 25.7704V6.65234H25.8006C25.9559 7.53503 26.3854 8.79157 27.5211 10.0361C27.9766 10.506 28.4898 10.9215 29.0493 11.2734C29.2147 11.4444 30.0599 12.2899 31.1448 12.809C31.7058 13.0773 32.2973 13.2829 32.9073 13.4217Z" fill="white"/>
<g id="Group">
<path id="Vector_5" d="M7.26416 28.2393V28.2423L7.35786 28.4963C7.3471 28.4667 7.31228 28.3768 7.26416 28.2393Z" fill="#69C9D0"/>
<path id="Vector_6" d="M14.2213 17.8962C13.2594 18.2523 12.3661 18.7592 11.578 19.3964C10.6846 20.1365 9.93209 21.0197 9.35413 22.0066C9.13563 22.3667 8.3092 23.8099 8.2084 26.1591C8.15142 27.4906 8.5684 28.8654 8.76686 29.4378C8.76665 29.4392 8.76665 29.4406 8.76686 29.442C8.89208 29.7685 9.38105 30.923 10.1818 31.9023C10.4144 32.1862 10.6638 32.4571 10.9287 32.7136C10.0799 32.1509 9.32284 31.4707 8.68234 30.695C7.88846 29.7271 7.39886 28.5846 7.27114 28.2473C7.27099 28.2449 7.27099 28.2425 7.27114 28.2401V28.2359C7.07205 27.664 6.65383 26.2887 6.71205 24.9554C6.81285 22.6062 7.63929 21.1642 7.85779 20.8029C8.43558 19.8158 9.18808 18.9326 10.0816 18.1927C10.8696 17.5552 11.763 17.0482 12.725 16.6925C13.325 16.4539 13.9501 16.2779 14.5895 16.1675C15.5529 16.0063 16.5371 15.9922 17.5051 16.1261V17.2362C16.3767 17.2538 15.2621 17.4779 14.2213 17.8962Z" fill="#69C9D0"/>
<path id="Vector_7" d="M25.7876 6.65166H22.0311V25.7703C22.0311 26.4423 22.0311 27.0904 21.7982 27.7379C21.4188 28.7712 20.6117 29.7042 19.5361 30.1184C17.9215 30.74 16.6594 30.671 15.1536 29.7175C14.7797 29.4708 14.451 29.1667 14.1807 28.8174C15.4635 29.4732 16.6117 29.4618 18.0342 28.9147C19.1092 28.5005 19.9175 27.5674 20.2956 26.5336C20.5322 25.8879 20.5291 25.2381 20.5291 24.5665V5.44434H25.7162C25.7162 5.44434 25.6581 5.91958 25.7876 6.65166ZM32.8912 12.3571V13.421C32.2823 13.282 31.692 13.0764 31.1319 12.8083C30.0469 12.2893 29.2016 11.4438 29.0364 11.2727C29.2282 11.3934 29.4272 11.5032 29.6324 11.6016C30.9515 12.2328 32.2507 12.4213 32.8912 12.3571Z" fill="#69C9D0"/>
</g>
</g>
</g>
</svg>
