<svg width="18" height="18" viewBox="0 0 18 18" fill="none" xmlns="http://www.w3.org/2000/svg">
<g id="google-analytics-svgrepo-com (1) 2" clip-path="url(#clip0_775_7746)">
<g id="Group">
<path id="Vector" d="M17.1129 15.7141C17.1162 16.354 16.8448 16.9647 16.3674 17.3909C15.8901 17.8172 15.2527 18.0181 14.6172 17.9426C13.4736 17.7734 12.6356 16.7782 12.6634 15.6225V2.33526C12.6358 1.17829 13.4759 0.182627 14.621 0.0151477C15.2559 -0.059164 15.8922 0.142261 16.3687 0.568388C16.8452 0.994515 17.1161 1.60446 17.1129 2.24368V15.7141Z" fill="#F9AB00"/>
<path id="Vector_2" d="M3.11204 13.5123C4.34072 13.5123 5.33676 14.5083 5.33676 15.737C5.33676 16.9656 4.34072 17.9617 3.11204 17.9617C1.88337 17.9617 0.887329 16.9656 0.887329 15.737C0.887329 14.5083 1.88337 13.5123 3.11204 13.5123ZM8.96575 6.76943C7.73125 6.8371 6.77345 7.87261 6.80209 9.10862V15.0844C6.80209 16.7062 7.51568 17.6907 8.56125 17.9006C9.21766 18.0337 9.89909 17.8644 10.417 17.4398C10.9349 17.0151 11.2343 16.38 11.2324 15.7103V9.00559C11.2335 8.40688 10.9941 7.83281 10.5679 7.41234C10.1416 6.99186 9.56439 6.76022 8.96575 6.76943Z" fill="#E37400"/>
</g>
</g>
<defs>
<clipPath id="clip0_775_7746">
<rect width="18" height="18" fill="white"/>
</clipPath>
</defs>
</svg>
