<svg width="24" height="24" viewBox="0 0 24 24" fill="none" xmlns="http://www.w3.org/2000/svg">
<g id="Group">
<path id="Vector" d="M23.9999 20.9968C24.0049 21.8519 23.6034 22.6678 22.8973 23.2374C22.1912 23.807 21.2485 24.0754 20.3085 23.9745C18.6169 23.7484 17.3773 22.4187 17.4185 20.8744V3.12032C17.3777 1.5744 18.6203 0.244022 20.3141 0.02024C21.2532 -0.0790536 22.1944 0.190086 22.8991 0.759468C23.6039 1.32885 24.0047 2.14384 23.9999 2.99795V20.9968Z" fill="white"/>
<path id="Vector_2" d="M3.29067 18.0548C5.10806 18.0548 6.58135 19.3857 6.58135 21.0274C6.58135 22.6691 5.10806 24 3.29067 24C1.47328 24 0 22.6691 0 21.0274C0 19.3857 1.47328 18.0548 3.29067 18.0548ZM11.9492 9.04515C10.1232 9.13557 8.70643 10.5192 8.74879 12.1707V20.1555C8.74879 22.3225 9.80429 23.638 11.3509 23.9184C12.3218 24.0962 13.3297 23.87 14.0957 23.3026C14.8618 22.7352 15.3047 21.8866 15.3019 20.9917V12.0331C15.3035 11.2331 14.9494 10.466 14.3189 9.90419C13.6885 9.34236 12.8346 9.03284 11.9492 9.04515Z" fill="#5F6368"/>
</g>
</svg>
