<svg width="18" height="18" viewBox="0 0 18 18" fill="none" xmlns="http://www.w3.org/2000/svg">
<path id="Vector" d="M15.5247 8.88665C15.5247 9.44207 15.3547 9.53275 14.9331 9.53275C14.4843 9.53275 14.4027 9.40806 14.3551 8.84131C14.2667 7.40176 13.6819 6.17758 12.7027 6.04156C12.3899 5.99622 12.3151 5.80353 12.3151 5.15743C12.3151 4.55668 12.3695 4.2733 12.6483 4.2733C14.3483 4.28464 15.5247 6.56297 15.5247 8.88665ZM18 8.88665C18 4.56801 16.2456 0 12.1927 0H4.14129C3.97809 0 3.87609 0.13602 3.87609 0.385391C3.87609 0.521411 3.93729 0.646096 3.99169 0.714106C4.28409 1.0995 4.7193 1.53023 5.29052 2.0063C5.84813 2.47103 6.28334 2.77708 6.71855 3.07179C6.90215 3.19647 6.97015 3.33249 6.97015 3.50252C6.97015 3.74055 6.86815 3.88791 6.67095 3.88791H0.278806C0.0884019 3.88791 0 4.09194 0 4.29597C0 4.466 0.0340004 4.61335 0.122402 4.76071C0.639214 5.66751 1.46883 6.75567 2.67246 8.01385C3.72648 9.11335 5.03211 10.3035 6.07253 11.131C6.24934 11.267 6.30374 11.4257 6.30374 11.5957C6.29694 11.7884 6.20854 11.9471 6.00453 11.9471H3.07367C2.91046 11.9471 2.81526 12.0945 2.81526 12.3212C2.81526 12.4458 2.87646 12.6045 2.95807 12.7292C3.62448 13.738 4.6921 14.8375 6.11334 15.8463C8.01058 17.1952 9.93502 18 12.0975 18C16.198 18 18 12.8879 18 8.88665ZM12.6483 15.0189C10.6354 15.0189 8.9558 12.2872 8.9558 8.88665C8.9558 5.53149 10.6354 2.84509 12.6483 2.84509C14.7155 2.84509 16.3272 5.53149 16.3272 8.88665C16.3204 12.2872 14.7087 15.0189 12.6483 15.0189Z" fill="#FF642D"/>
</svg>
