<svg width="18" height="18" viewBox="0 0 18 18" fill="none" xmlns="http://www.w3.org/2000/svg">
<g id="icons8-gmail 1">
<path id="Vector" d="M16.875 6.0752L15 7.10645L13.125 8.8877V15.0002H15.75C16.3714 15.0002 16.875 14.4966 16.875 13.8752V6.0752Z" fill="#4CAF50"/>
<path id="Vector_2" d="M1.125 6.0752L2.48025 6.71644L4.875 8.8877V15.0002H2.25C1.62863 15.0002 1.125 14.4966 1.125 13.8752V6.0752Z" fill="#1E88E5"/>
<path id="Vector_3" d="M13.125 4.2002L9 7.29395L4.875 4.2002L4.5 6.3752L4.875 8.8877L9 11.9814L13.125 8.8877L13.5 6.3752L13.125 4.2002Z" fill="#E53935"/>
<path id="Vector_4" d="M1.125 4.61175V6.075L4.875 8.8875V4.2L3.7035 3.32213C3.4245 3.11288 3.0855 3 2.73675 3C1.8465 3 1.125 3.7215 1.125 4.61175Z" fill="#C62828"/>
<path id="Vector_5" d="M16.875 4.61175V6.075L13.125 8.8875V4.2L14.2965 3.32213C14.5755 3.11288 14.9145 3 15.2632 3C16.1535 3 16.875 3.7215 16.875 4.61175Z" fill="#FBC02D"/>
</g>
</svg>
