<svg width="18" height="18" viewBox="0 0 18 18" fill="none" xmlns="http://www.w3.org/2000/svg">
<g id="&#240;&#159;&#166;&#134; icon &#34;instagram 1&#34;">
<path id="Vector" d="M14.1429 0H3.85714C1.7269 0 0 1.7269 0 3.85714V14.1429C0 16.2731 1.7269 18 3.85714 18H14.1429C16.2731 18 18 16.2731 18 14.1429V3.85714C18 1.7269 16.2731 0 14.1429 0Z" fill="url(#paint0_radial_555_13979)"/>
<path id="Vector_2" d="M14.1429 0H3.85714C1.7269 0 0 1.7269 0 3.85714V14.1429C0 16.2731 1.7269 18 3.85714 18H14.1429C16.2731 18 18 16.2731 18 14.1429V3.85714C18 1.7269 16.2731 0 14.1429 0Z" fill="url(#paint1_radial_555_13979)"/>
<path id="Vector_3" d="M14.1429 0H3.85714C1.7269 0 0 1.7269 0 3.85714V14.1429C0 16.2731 1.7269 18 3.85714 18H14.1429C16.2731 18 18 16.2731 18 14.1429V3.85714C18 1.7269 16.2731 0 14.1429 0Z" fill="url(#paint2_radial_555_13979)"/>
<g id="Group">
<path id="Vector_4" d="M13.5 5.46429C13.5 5.99683 13.0682 6.42857 12.5357 6.42857C12.0032 6.42857 11.5714 5.99683 11.5714 5.46429C11.5714 4.93172 12.0032 4.5 12.5357 4.5C13.0682 4.5 13.5 4.93172 13.5 5.46429Z" fill="white"/>
<path id="Vector_5" fill-rule="evenodd" clip-rule="evenodd" d="M8.99975 12.2145C10.7749 12.2145 12.214 10.7754 12.214 9.00017C12.214 7.22499 10.7749 5.78589 8.99975 5.78589C7.22456 5.78589 5.78546 7.22499 5.78546 9.00017C5.78546 10.7754 7.22456 12.2145 8.99975 12.2145ZM8.99975 10.9287C10.0649 10.9287 10.9283 10.0653 10.9283 9.00017C10.9283 7.93502 10.0649 7.0716 8.99975 7.0716C7.9346 7.0716 7.07118 7.93502 7.07118 9.00017C7.07118 10.0653 7.9346 10.9287 8.99975 10.9287Z" fill="white"/>
<path id="Vector_6" fill-rule="evenodd" clip-rule="evenodd" d="M2.57135 8.74296C2.57135 6.58277 2.57135 5.50264 2.99175 4.67757C3.36155 3.9518 3.95162 3.36173 4.67739 2.99194C5.50246 2.57153 6.58259 2.57153 8.74278 2.57153H9.25706C11.4173 2.57153 12.4974 2.57153 13.3224 2.99194C14.0482 3.36173 14.6383 3.9518 15.0081 4.67757C15.4285 5.50264 15.4285 6.58277 15.4285 8.74296V9.25725C15.4285 11.4174 15.4285 12.4976 15.0081 13.3226C14.6383 14.0484 14.0482 14.6385 13.3224 15.0082C12.4974 15.4287 11.4173 15.4287 9.25706 15.4287H8.74278C6.58259 15.4287 5.50246 15.4287 4.67739 15.0082C3.95162 14.6385 3.36155 14.0484 2.99175 13.3226C2.57135 12.4976 2.57135 11.4174 2.57135 9.25725V8.74296ZM8.74278 3.85725H9.25706C10.3584 3.85725 11.107 3.85825 11.6857 3.90553C12.2494 3.95158 12.5377 4.03506 12.7388 4.13751C13.2226 4.38405 13.616 4.77743 13.8625 5.26125C13.965 5.46233 14.0485 5.75059 14.0945 6.31431C14.1418 6.89301 14.1428 7.64162 14.1428 8.74296V9.25725C14.1428 10.3586 14.1418 11.1072 14.0945 11.6859C14.0485 12.2496 13.965 12.5379 13.8625 12.739C13.616 13.2228 13.2226 13.6161 12.7388 13.8627C12.5377 13.9651 12.2494 14.0487 11.6857 14.0947C11.107 14.1419 10.3584 14.143 9.25706 14.143H8.74278C7.64144 14.143 6.89283 14.1419 6.31413 14.0947C5.75041 14.0487 5.46215 13.9651 5.26106 13.8627C4.77724 13.6161 4.38387 13.2228 4.13733 12.739C4.03487 12.5379 3.9514 12.2496 3.90534 11.6859C3.85807 11.1072 3.85706 10.3586 3.85706 9.25725V8.74296C3.85706 7.64162 3.85807 6.89301 3.90534 6.31431C3.9514 5.75059 4.03487 5.46233 4.13733 5.26125C4.38387 4.77743 4.77724 4.38405 5.26106 4.13751C5.46215 4.03506 5.75041 3.95158 6.31413 3.90553C6.89283 3.85825 7.64144 3.85725 8.74278 3.85725Z" fill="white"/>
</g>
</g>
<defs>
<radialGradient id="paint0_radial_555_13979" cx="0" cy="0" r="1" gradientUnits="userSpaceOnUse" gradientTransform="translate(6.42857 13.5) rotate(-55.3758) scale(16.4055)">
<stop stop-color="#B13589"/>
<stop offset="0.79309" stop-color="#C62F94"/>
<stop offset="1" stop-color="#8A3AC8"/>
</radialGradient>
<radialGradient id="paint1_radial_555_13979" cx="0" cy="0" r="1" gradientUnits="userSpaceOnUse" gradientTransform="translate(5.78571 18.6429) rotate(-65.1363) scale(14.5248)">
<stop stop-color="#E0E8B7"/>
<stop offset="0.444662" stop-color="#FB8A2E"/>
<stop offset="0.71474" stop-color="#E2425C"/>
<stop offset="1" stop-color="#E2425C" stop-opacity="0"/>
</radialGradient>
<radialGradient id="paint2_radial_555_13979" cx="0" cy="0" r="1" gradientUnits="userSpaceOnUse" gradientTransform="translate(-0.964285 0.642857) rotate(-8.1301) scale(25.0013 5.34752)">
<stop offset="0.156701" stop-color="#406ADC"/>
<stop offset="0.467799" stop-color="#6A45BE"/>
<stop offset="1" stop-color="#6A45BE" stop-opacity="0"/>
</radialGradient>
</defs>
</svg>
