<svg width="19" height="18" viewBox="0 0 19 18" fill="none" xmlns="http://www.w3.org/2000/svg">
<g id="&#240;&#159;&#166;&#134; icon &#34;linkedin&#34;">
<path id="Vector" d="M15.7902 0H3.19023C1.69907 0 0.490234 1.20883 0.490234 2.7V15.3C0.490234 16.7912 1.69907 18 3.19023 18H15.7902C17.2814 18 18.4902 16.7912 18.4902 15.3V2.7C18.4902 1.20883 17.2814 0 15.7902 0Z" fill="#4285F4"/>
<path id="Vector_2" d="M5.48242 6.15234C6.20082 6.15234 6.7832 5.56996 6.7832 4.85156C6.7832 4.13316 6.20082 3.55078 5.48242 3.55078C4.76402 3.55078 4.18164 4.13316 4.18164 4.85156C4.18164 5.56996 4.76402 6.15234 5.48242 6.15234Z" fill="white"/>
<path id="Vector_3" d="M9.06836 6.82031V13.7813V6.82031ZM5.48242 6.82031V13.7813V6.82031Z" fill="white"/>
<path id="Vector (Stroke)" fill-rule="evenodd" clip-rule="evenodd" d="M4.32227 13.7813V6.82031H6.64258V13.7813H4.32227ZM7.9082 13.7813V6.82031H10.2285V13.7813H7.9082Z" fill="white"/>
<path id="Vector_4" d="M10.1934 9.91406C10.1934 9.21094 10.6504 8.50781 11.459 8.50781C12.3027 8.50781 12.6191 9.14063 12.6191 10.0898V13.7813H14.9395V9.80859C14.9395 7.66406 13.8145 6.67969 12.2676 6.67969C11.0723 6.67969 10.4746 7.34766 10.1934 7.80469" fill="white"/>
</g>
</svg>
