<svg width="19" height="18" viewBox="0 0 19 18" fill="none" xmlns="http://www.w3.org/2000/svg">
<path id="Vector" d="M8.71548 0.00641423C5.10613 0.256861 -1.46646 7.7137 1.05031 9.7144L1.67884 10.2168C1.50917 10.645 1.44963 11.1055 1.50459 11.5599C1.64797 12.8985 3.03664 13.9826 4.37961 13.9811C6.83774 19.3153 15.7865 19.3236 18.1029 14.1012C18.1761 13.9212 18.4902 13.1131 18.4902 12.4006C18.4902 11.6882 18.0603 11.3885 17.7855 11.3885C17.6429 10.9183 17.5507 10.8642 17.3779 10.643C17.4822 10.496 18.0286 9.68049 17.2472 8.90882C16.8043 8.47086 15.9219 8.16883 15.6152 8.08859C15.5515 7.63189 15.8132 5.73496 14.6989 4.76081C15.5838 3.89765 16.1022 2.94689 16.1006 2.13022C16.0982 0.560631 14.0859 0.0851678 11.5625 1.06832L11.0273 1.28216C11.0249 1.27991 10.06 0.390445 10.0456 0.378446C9.6861 0.0831642 9.2311 -0.0293638 8.71548 0.00641423ZM9.04374 0.655273C9.14714 0.65999 9.24532 0.674642 9.33622 0.697749C9.57279 0.760743 10.3552 1.61465 10.3552 1.61465C10.3552 1.61465 8.90108 2.37344 7.55334 3.43233C5.73642 4.74995 4.36465 6.66384 3.54262 8.74038C2.89742 8.85887 2.32718 9.20376 1.9791 9.68071C1.7712 9.51723 1.38405 9.19946 1.31635 9.07872C0.76275 8.08283 1.92196 6.15221 2.73363 5.06107C4.61397 2.5343 7.49279 0.584526 9.04374 0.655273ZM11.5812 3.10717C11.5995 3.10567 11.6138 3.11997 11.6154 3.13646C11.6162 3.14696 11.6117 3.15608 11.6029 3.16283C11.4803 3.25207 11.3695 3.3571 11.2747 3.47334C11.2643 3.48684 11.2681 3.50461 11.2825 3.51435C11.288 3.5181 11.294 3.51946 11.3011 3.52021C11.8253 3.52396 12.5632 3.69661 13.0467 3.95083C13.0793 3.96808 13.0569 4.02717 13.0202 4.01967C10.0587 3.38074 7.77866 4.76401 7.29197 5.09622C7.27684 5.10522 7.25797 5.10022 7.24841 5.08597C7.24044 5.07472 7.2412 5.06132 7.24997 5.05082H7.24685C7.95976 4.2754 8.83785 3.60159 9.62403 3.22288C9.63917 3.21463 9.65728 3.21888 9.66604 3.23313C9.67162 3.24213 9.67162 3.25268 9.66604 3.26243C9.60391 3.36892 9.48336 3.59673 9.44512 3.76921C9.44114 3.78571 9.45249 3.80208 9.47002 3.80583C9.47878 3.80808 9.48774 3.80593 9.49491 3.80143C9.98398 3.48722 10.8356 3.15067 11.5812 3.10717ZM14.1155 5.52098C14.214 5.53636 14.3095 5.5703 14.3955 5.62205C14.8217 5.88827 14.8804 6.53302 14.9027 7.00472C14.9154 7.27394 14.9499 7.92605 14.9618 8.11203C14.9889 8.53948 15.1086 8.60026 15.3507 8.673C15.4869 8.715 15.6116 8.74654 15.7972 8.79604C16.3596 8.94452 16.5732 9.17304 16.7867 9.36727C16.895 9.46776 16.9666 9.59756 16.9889 9.7393C17.0551 10.1953 16.7317 10.6808 15.5608 11.1923C13.5718 12.0614 11.5716 11.7708 11.2825 11.7401C10.4246 11.6313 9.93557 12.6761 10.4501 13.3908C11.414 14.7301 15.661 14.1927 16.894 12.5354C16.9235 12.4957 16.8988 12.4704 16.8629 12.4944C15.0842 13.6403 12.7319 14.0262 11.3945 13.5372C11.1914 13.463 10.7664 13.2796 10.7146 12.8693C12.5714 13.41 13.7374 12.8986 13.7374 12.8986C13.7374 12.8986 13.824 12.7856 13.7141 12.7961C13.7141 12.7961 12.1921 13.0077 10.7535 12.512C11.018 11.7035 11.9024 12.7562 14.8576 11.9583C15.5083 11.7828 16.2452 11.5151 16.9112 11.0194C17.1079 11.2122 17.2746 11.5814 17.3328 11.9158C17.4889 11.8896 17.9392 11.8939 17.8197 12.6409C17.6795 13.4373 17.3213 14.0843 16.7167 14.6797C16.3391 15.0652 15.8891 15.3817 15.3896 15.6142C15.1116 15.7514 14.8225 15.8661 14.5246 15.9584C12.2465 16.6588 9.9124 15.8888 9.15887 14.2344C9.09753 14.1085 9.04779 13.9776 9.00796 13.8434C8.68695 12.753 8.96002 11.4445 9.81072 10.621C9.8633 10.5686 9.91651 10.5072 9.91651 10.4292C9.90935 10.3624 9.88026 10.2993 9.83406 10.2475C9.53615 9.84184 8.50682 9.14895 8.71392 7.80883C8.86287 6.84668 9.75617 6.16889 10.5902 6.20939L10.8033 6.22111C11.1641 6.24136 11.4793 6.28456 11.7772 6.29581C12.275 6.31605 12.7223 6.24842 13.252 5.83296C13.4313 5.69273 13.5746 5.57095 13.8168 5.5327C13.9155 5.50945 14.0169 5.50561 14.1155 5.52098ZM13.9552 7.14679C13.69 7.18729 13.68 7.4978 13.7748 7.92601C13.8281 8.16674 13.9232 8.37122 14.0299 8.4987C14.1613 8.48296 14.2936 8.48296 14.4251 8.4987C14.496 8.34497 14.509 8.08141 14.4453 7.79419C14.3505 7.36673 14.2205 7.1063 13.9552 7.14679ZM10.9137 8.31269C10.689 8.33819 10.4705 8.41693 10.2821 8.54704C10.1547 8.63478 10.0343 8.75623 10.0519 8.82973C10.0877 8.97971 10.4788 8.72133 11.0149 8.69058C11.3128 8.67333 11.5596 8.76052 11.7492 8.83851C11.9396 8.91876 12.0561 8.96993 12.1023 8.92493C12.1828 8.84694 11.9538 8.54759 11.5858 8.39911C11.37 8.31474 11.1385 8.28719 10.9137 8.31269ZM14.3395 8.90882V8.91028C14.0137 8.90503 14.0012 9.54364 14.3286 9.54889C14.656 9.55414 14.6677 8.91482 14.3395 8.90882ZM11.3665 9.04504C10.9801 9.10203 10.7271 9.30606 10.7924 9.44929C10.8306 9.46279 10.8421 9.48156 11.0133 9.41707C11.2674 9.32708 11.543 9.30044 11.8114 9.33944C11.9357 9.35294 11.9944 9.36089 12.0214 9.3204C12.0836 9.23116 11.7791 8.99929 11.3665 9.04504ZM13.2411 9.33797C13.1661 9.34622 13.0998 9.37974 13.0638 9.44929C12.9192 9.72608 13.526 10.0038 13.6721 9.73051C13.7802 9.5241 13.4664 9.31323 13.2411 9.33797ZM4.07002 9.35994C4.84282 9.3829 5.59978 9.8967 5.78134 11.0004C5.9749 12.1883 5.58203 13.3453 4.32827 13.3175L4.32983 13.319C3.35805 13.2943 2.30903 12.4704 2.20468 11.494C2.05682 10.1117 3.07641 9.33042 4.07002 9.35994ZM4.01401 10.0498C3.72775 10.0418 3.4525 10.1618 3.29837 10.3222C2.92718 10.707 2.92672 11.2657 3.08523 11.2875C3.26684 11.31 3.2593 11.0287 3.39949 10.8217C3.56358 10.5832 3.90228 10.5149 4.15558 10.6694C4.15718 10.6701 4.15866 10.6708 4.16025 10.6723C4.65411 10.9768 4.21768 11.3835 4.25671 11.8192C4.31565 12.4881 5.04154 12.4749 5.17615 12.1795C5.19368 12.1495 5.18992 12.1127 5.16682 12.0857C5.16841 12.1217 5.1965 12.0351 5.02525 12.0711L5.02369 12.0726C4.96714 12.0853 4.7679 12.1318 4.66276 11.9788C4.44132 11.6578 5.13603 11.1621 4.79033 10.5449C4.59677 10.1947 4.30027 10.0579 4.01401 10.0498Z" fill="white"/>
</svg>
