<svg width="19" height="18" viewBox="0 0 19 18" fill="none" xmlns="http://www.w3.org/2000/svg">
<g id="icons8-meta 1" clip-path="url(#clip0_555_13987)">
<path id="Vector" d="M17.5182 7.56369C17.3094 6.98769 17.0502 6.42609 16.7118 5.88609C16.377 5.34969 15.9522 4.83129 15.405 4.39929C14.8614 3.97089 14.1486 3.64689 13.3926 3.58569L13.1118 3.57129C13.0146 3.57489 12.9066 3.57489 12.8058 3.58569C12.6006 3.60729 12.4062 3.65409 12.2226 3.70809C11.8518 3.82329 11.5278 3.99609 11.2434 4.18329C10.7322 4.52169 10.3254 4.91409 9.95824 5.31729C9.96184 5.32449 9.96904 5.32809 9.97264 5.33529L10.0518 5.43609C10.2354 5.67729 10.635 6.23169 10.9914 6.82929C11.4342 6.39729 12.0102 5.87529 12.2478 5.72409C12.4278 5.61249 12.6042 5.52609 12.7626 5.47929C12.8454 5.45769 12.921 5.43969 12.993 5.43609C13.029 5.42889 13.0614 5.43249 13.101 5.42889L13.2378 5.43609C13.5906 5.46849 13.9362 5.61249 14.2638 5.86449C14.9154 6.38289 15.4302 7.26489 15.765 8.19729C16.107 9.13329 16.3014 10.1557 16.3122 11.1421C16.3122 11.6137 16.251 12.0673 16.107 12.4417C15.9666 12.8197 15.6102 12.9637 15.207 12.9637C14.6202 12.9637 14.1954 12.7117 13.8534 12.3589C13.479 11.9665 13.1262 11.5273 12.7878 11.0593C12.507 10.6669 12.2334 10.2601 11.9742 9.84609C11.517 9.10449 10.905 8.16489 10.4802 7.38009L9.49024 5.88609C9.37864 5.74569 9.27065 5.60529 9.15184 5.46489C8.75224 5.01129 8.30944 4.56489 7.73704 4.18329C7.45264 3.99609 7.12864 3.82329 6.75784 3.70809C6.57424 3.65409 6.37985 3.60729 6.17464 3.58569C6.10985 3.57849 6.04505 3.57489 5.98025 3.57489C5.94065 3.57489 5.90464 3.57129 5.86865 3.57129L5.58784 3.58569C4.83185 3.64689 4.11905 3.97089 3.57544 4.39929C3.02824 4.83129 2.60344 5.34969 2.26864 5.88609C1.93024 6.42609 1.67104 6.98769 1.46224 7.56369C1.05544 8.71569 0.835845 9.90729 0.832245 11.1385C0.835845 11.7793 0.918645 12.4453 1.17784 13.1077C1.42984 13.7557 1.90505 14.4433 2.66105 14.8249C3.03185 15.0157 3.45305 15.1165 3.85625 15.1165C4.29905 15.1273 4.72025 15.0013 5.05505 14.8393C5.72825 14.5045 6.19265 14.0617 6.61384 13.6153C7.44545 12.7117 8.06105 11.7325 8.62985 10.7353C8.78825 10.4617 8.93944 10.1809 9.08704 9.89649C9.01145 9.74889 8.93584 9.59409 8.85664 9.43209C8.63344 9.06129 8.35625 8.62209 8.15465 8.31609C7.85585 8.85609 7.54624 9.38169 7.22584 9.90369C6.65344 10.8109 6.03785 11.6929 5.35024 12.4165C5.00824 12.7693 4.63024 13.0789 4.29905 13.2265C4.12985 13.2985 4.00024 13.3237 3.88864 13.3165C3.73384 13.3165 3.60425 13.2805 3.48185 13.2157C3.24065 13.0897 3.01384 12.8197 2.87345 12.4417C2.72944 12.0673 2.66825 11.6137 2.66825 11.1421C2.67905 10.1557 2.87345 9.13329 3.21545 8.19729C3.55025 7.26489 4.06505 6.38289 4.71665 5.86449C5.04425 5.61249 5.38985 5.46849 5.74265 5.43609L5.87945 5.42889C5.91905 5.43249 5.95145 5.42889 5.98745 5.43609C6.05945 5.43969 6.13505 5.45769 6.21784 5.47929C6.31145 5.50809 6.41225 5.54769 6.51664 5.60169C6.58864 5.63769 6.66065 5.67729 6.73265 5.72409C7.09264 5.95449 7.44904 6.29289 7.78384 6.66729C8.04305 6.95889 8.29145 7.28289 8.53984 7.61409L9.49024 9.08649C9.76025 9.64449 10.041 10.1989 10.3506 10.7353C10.9194 11.7325 11.535 12.7117 12.3666 13.6153C12.6114 13.8781 12.8742 14.1373 13.1838 14.3713C13.4034 14.5441 13.6446 14.6989 13.9254 14.8393C14.2602 15.0013 14.6814 15.1273 15.1242 15.1165C15.5274 15.1165 15.9486 15.0157 16.3194 14.8249C17.0754 14.4433 17.5506 13.7557 17.8026 13.1077C18.0618 12.4453 18.1446 11.7793 18.1482 11.1385C18.1446 9.90729 17.925 8.71569 17.5182 7.56369Z" fill="#1877F2"/>
</g>
<defs>
<clipPath id="clip0_555_13987">
<rect width="18" height="18" fill="white" transform="translate(0.490234)"/>
</clipPath>
</defs>
</svg>
