<svg width="19" height="18" viewBox="0 0 19 18" fill="none" xmlns="http://www.w3.org/2000/svg">
<g id="icons8-microsoft-outlook-2019 1">
<path id="Vector" d="M16.7109 8.82991L14.1571 7.34229V11.69H16.9902V9.31591C16.9902 9.11566 16.8837 8.93079 16.7109 8.82991Z" fill="#103262"/>
<path id="Vector_2" d="M5.36523 3.75H9.11523V7.125H5.36523V3.75Z" fill="#0084D7"/>
<path id="Vector_3" d="M9.11523 3.75H12.8652V7.125H9.11523V3.75Z" fill="#33AFEC"/>
<path id="Vector_4" d="M12.8652 3.75H16.6152V7.125H12.8652V3.75Z" fill="#54DAFF"/>
<path id="Vector_5" d="M9.11523 7.125H12.8652V10.5H9.11523V7.125Z" fill="#027AD4"/>
<path id="Vector_6" d="M9.11523 10.5H12.8652V13.875H9.11523V10.5Z" fill="#0553A4"/>
<path id="Vector_7" d="M12.8652 7.125H16.6152V10.5H12.8652V7.125Z" fill="#25A2E5"/>
<path id="Vector_8" d="M12.8652 10.5H16.6152V13.875H12.8652V10.5Z" fill="#0262B8"/>
<path id="Vector_9" opacity="0.019" d="M5.36523 13.8751H16.6152V9.08936L11.3615 12.0894L5.36523 9.08936V13.8751Z" fill="black"/>
<path id="Vector_10" opacity="0.038" d="M5.36523 13.8752H16.6152V9.17871L11.3615 12.1787L5.36523 9.17871V13.8752Z" fill="black"/>
<path id="Vector_11" opacity="0.057" d="M5.36523 13.8748H16.6152V9.26758L11.3615 12.2676L5.36523 9.26758V13.8748Z" fill="black"/>
<path id="Vector_12" opacity="0.076" d="M5.36523 13.8749H16.6152V9.35693L11.3615 12.3569L5.36523 9.35693V13.8749Z" fill="black"/>
<path id="Vector_13" opacity="0.095" d="M5.36523 13.875H16.6152V9.44629L11.3615 12.4463L5.36523 9.44629V13.875Z" fill="black"/>
<path id="Vector_14" opacity="0.114" d="M5.36523 13.8748H16.6152V9.53564L11.3615 12.5356L5.36523 9.53564V13.8748Z" fill="black"/>
<path id="Vector_15" opacity="0.133" d="M5.36523 13.8749H16.6152V9.625L11.3615 12.625L5.36523 9.625V13.8749Z" fill="black"/>
<path id="Vector_16" opacity="0.152" d="M5.36523 13.875H16.6152V9.71436L11.3615 12.7144L5.36523 9.71436V13.875Z" fill="black"/>
<path id="Vector_17" opacity="0.171" d="M5.36523 13.8751H16.6152V9.80371L11.3615 12.8037L5.36523 9.80371V13.8751Z" fill="black"/>
<path id="Vector_18" opacity="0.191" d="M5.36523 13.8752H16.6152V9.89307L11.3615 12.8931L5.36523 9.89307V13.8752Z" fill="black"/>
<path id="Vector_19" opacity="0.209" d="M5.36523 13.8748H16.6152V9.98193L11.3615 12.9819L5.36523 9.98193V13.8748Z" fill="black"/>
<path id="Vector_20" opacity="0.229" d="M5.36523 13.8749H16.6152V10.0713L11.3615 13.0713L5.36523 10.0713V13.8749Z" fill="black"/>
<path id="Vector_21" opacity="0.248" d="M5.36523 13.875H16.6152V10.1606L11.3615 13.1606L5.36523 10.1606V13.875Z" fill="black"/>
<path id="Vector_22" opacity="0.267" d="M5.36523 13.8751H16.6152V10.25L11.3615 13.25L5.36523 10.25V13.8751Z" fill="black"/>
<path id="Vector_23" opacity="0.286" d="M5.36523 13.8752H16.6152V10.3394L11.3615 13.3394L5.36523 10.3394V13.8752Z" fill="black"/>
<path id="Vector_24" opacity="0.305" d="M5.36523 13.875H16.6152V10.4287L11.3615 13.4287L5.36523 10.4287V13.875Z" fill="black"/>
<path id="Vector_25" opacity="0.324" d="M5.36523 13.8751H16.6152V10.5181L11.3615 13.5181L5.36523 10.5181V13.8751Z" fill="black"/>
<path id="Vector_26" opacity="0.343" d="M5.36523 13.8752H16.6152V10.6074L11.3615 13.6074L5.36523 10.6074V13.8752Z" fill="black"/>
<path id="Vector_27" opacity="0.362" d="M5.36523 13.8748H16.6152V10.6963L11.3615 13.6963L5.36523 10.6963V13.8748Z" fill="black"/>
<path id="Vector_28" opacity="0.381" d="M5.36523 13.8749H16.6152V10.7856L11.3615 13.7856L5.36523 10.7856V13.8749Z" fill="black"/>
<path id="Vector_29" opacity="0.4" d="M5.36523 13.875H16.6152V10.875L11.3615 13.875L5.36523 10.875V13.875Z" fill="black"/>
<path id="Vector_30" d="M6.2806 15.7498H16.2417C16.6557 15.7498 16.9914 15.4164 16.9917 15.002C16.9929 13.3067 16.9902 9.31592 16.9902 9.31592C16.9902 9.31592 16.9876 9.39917 16.3336 9.77042C15.6796 10.1417 6.01923 15.587 6.01923 15.587C6.01923 15.587 6.10698 15.7498 6.2806 15.7498Z" fill="url(#paint0_linear_720_5723)"/>
<path id="Vector_31" d="M16.6152 3.75H5.36523V3C5.36523 2.58562 5.70086 2.25 6.11523 2.25H15.8652C16.2796 2.25 16.6152 2.58562 16.6152 3V3.75Z" fill="url(#paint1_linear_720_5723)"/>
<path id="Vector_32" d="M5.36523 9.375V15C5.36523 15.4144 5.70086 15.75 6.11523 15.75H11.7402H16.2417C16.415 15.75 16.5729 15.6893 16.6996 15.5906L5.36523 9.375Z" fill="url(#paint2_linear_720_5723)"/>
<path id="Vector_33" opacity="0.05" d="M8.48486 4.875H5.36523V13.875H8.48486C9.24723 13.875 9.86523 13.257 9.86523 12.4946V6.25537C9.86523 5.493 9.24723 4.875 8.48486 4.875Z" fill="black"/>
<path id="Vector_34" opacity="0.07" d="M8.44511 13.5001H5.36523V5H8.44511C9.09161 5 9.61548 5.52388 9.61548 6.17038V12.3298C9.61511 12.9763 9.09123 13.5001 8.44511 13.5001Z" fill="black"/>
<path id="Vector_35" opacity="0.09" d="M8.40498 13.1249H5.36523V5.125H8.40498C8.93523 5.125 9.36498 5.55475 9.36498 6.085V12.1649C9.36536 12.6951 8.93523 13.1249 8.40498 13.1249Z" fill="black"/>
<path id="Vector_36" d="M8.36523 12.75H2.36523C1.95086 12.75 1.61523 12.4144 1.61523 12V6C1.61523 5.58562 1.95086 5.25 2.36523 5.25H8.36523C8.77961 5.25 9.11523 5.58562 9.11523 6V12C9.11523 12.4144 8.77961 12.75 8.36523 12.75Z" fill="url(#paint3_linear_720_5723)"/>
<path id="Vector_37" d="M5.36522 7.00928C4.1986 7.00928 3.49585 7.90065 3.49585 9.00015C3.49585 10.0997 4.19597 10.991 5.36522 10.991C6.53485 10.991 7.2346 10.0997 7.2346 9.00053C7.2346 7.90065 6.53185 7.00928 5.36522 7.00928ZM5.36522 10.319C4.70335 10.319 4.30772 9.72878 4.30772 9.00053C4.30772 8.27228 4.70522 7.68203 5.36522 7.68203C6.02522 7.68203 6.4231 8.27265 6.4231 9.00053C6.4231 9.7284 6.02672 10.319 5.36522 10.319Z" fill="white"/>
</g>
<defs>
<linearGradient id="paint0_linear_720_5723" x1="15.0871" y1="9.20867" x2="12.5975" y2="13.5088" gradientUnits="userSpaceOnUse">
<stop stop-color="#31ABEC"/>
<stop offset="1" stop-color="#1582D5"/>
</linearGradient>
<linearGradient id="paint1_linear_720_5723" x1="5.61461" y1="2.622" x2="15.9721" y2="3.40275" gradientUnits="userSpaceOnUse">
<stop offset="0.042" stop-color="#076DB4"/>
<stop offset="0.85" stop-color="#0461AF"/>
</linearGradient>
<linearGradient id="paint2_linear_720_5723" x1="11.0476" y1="12.4567" x2="9.35448" y2="15.4125" gradientUnits="userSpaceOnUse">
<stop stop-color="#33ACEE"/>
<stop offset="1" stop-color="#1B8EDF"/>
</linearGradient>
<linearGradient id="paint3_linear_720_5723" x1="1.81398" y1="5.44875" x2="8.89398" y2="12.5288" gradientUnits="userSpaceOnUse">
<stop stop-color="#1784D8"/>
<stop offset="1" stop-color="#0864C5"/>
</linearGradient>
</defs>
</svg>
