<svg width="18" height="18" viewBox="0 0 18 18" fill="none" xmlns="http://www.w3.org/2000/svg">
<g id="icons8-protonmail 1">
<path id="Vector" d="M15.9086 3.4739L9.87336 8.2829C9.34798 8.70178 8.59686 8.6999 8.07336 8.27915L2.06586 3.44915C1.83111 3.27028 1.49023 3.43528 1.49023 3.72778V5.8289V13.2284C1.49023 14.0069 2.12998 14.6377 2.91898 14.6377H15.0615C15.8505 14.6377 16.4902 14.0065 16.4902 13.2284V3.74803C16.4902 3.45178 16.1422 3.28753 15.9086 3.4739Z" fill="#D1C4E9"/>
<path id="Vector_2" d="M13.2761 5.57178L8.10486 9.69228C7.57986 10.1104 6.83023 10.1093 6.30636 9.68965L1.49023 5.8294V13.2289C1.49023 14.0074 2.12998 14.6382 2.91898 14.6382H13.2761V5.57178Z" fill="#7C4DFF"/>
</g>
</svg>
