<svg width="25" height="18" viewBox="0 0 25 18" fill="none" xmlns="http://www.w3.org/2000/svg">
<path id="Vector" d="M21.0326 0H23.6767C24.126 0 24.4902 0.424163 24.4902 0.94741L22.4564 12.7895C22.4564 13.3127 22.0921 13.7368 21.6428 13.7368H20.6258C20.1765 13.7368 19.8123 13.3127 19.8123 12.7895L20.219 0.94741C20.219 0.424163 20.5833 0 21.0326 0ZM21.0326 18H19.8122C19.363 18 18.9987 17.5759 18.9987 17.0527L19.2021 16.1053C19.2021 15.5821 19.5663 15.1579 20.0157 15.1579H21.236C21.6853 15.1579 22.0496 15.5821 22.0496 16.1053L21.8462 17.0527C21.8462 17.5759 21.4819 18 21.0326 18ZM9.43941 0C14.3819 0 18.3885 4.02945 18.3885 9.00003C18.3885 13.9705 14.3819 18 9.43941 18C4.49691 18 0.490234 13.9705 0.490234 9.00003C0.490234 4.02945 4.49691 0 9.43941 0ZM7.40548 13.7368V15.158H12.2868V13.7368H10.6597V11.3684L13.7105 7.10527H14.7275V5.68422H10.6597V7.10527H12.0835L9.97461 9.72468L7.60885 5.68422H9.03261V4.26316H4.9648V5.68422H5.98176L9.03261 11.3684V13.7368H7.40548Z" fill="#844FFF"/>
</svg>
