<svg width="19" height="18" viewBox="0 0 19 18" fill="none" xmlns="http://www.w3.org/2000/svg">
<g id="&#240;&#159;&#166;&#134; icon &#34;youtube&#34;">
<path id="Vector" d="M15.7902 0H3.19023C1.69907 0 0.490234 1.20883 0.490234 2.7V15.3C0.490234 16.7912 1.69907 18 3.19023 18H15.7902C17.2814 18 18.4902 16.7912 18.4902 15.3V2.7C18.4902 1.20883 17.2814 0 15.7902 0Z" fill="#EA4335"/>
<path id="Vector_2" d="M15.5021 5.94134C15.3615 5.41399 14.9045 4.99212 14.3771 4.85149C13.1818 4.53509 5.97478 4.49993 4.60369 4.85149C4.07635 4.99212 3.61931 5.41399 3.47869 5.94134C3.16228 7.27727 3.12713 10.6874 3.47869 12.0585C3.61931 12.5859 4.07635 13.0077 4.60369 13.1484C5.86931 13.4999 13.0763 13.4999 14.3771 13.1484C14.9045 13.0077 15.3615 12.5859 15.5021 12.0585C15.8185 10.7929 15.8185 7.24212 15.5021 5.94134Z" fill="white"/>
<path id="Vector_3" d="M8.22461 7.13672V10.8633L11.4941 9" fill="#EA4335"/>
</g>
</svg>
