<svg width="34" height="25" viewBox="0 0 34 25" fill="none" xmlns="http://www.w3.org/2000/svg">
<path d="M16.0145 2.37201L13.8808 0.601562C5.84807 5.15415 2.08271 10.339 1.07862 16.1562C0.325545 20.9618 2.20823 24.7556 6.97768 24.7556C10.3665 24.7556 13.6298 22.4793 14.3829 18.6855C15.0105 14.2593 12.5002 11.6037 9.36241 10.9714C10.6175 6.67169 15.889 2.37201 16.0145 2.37201ZM26.8086 10.7184C28.1892 6.54523 33.2097 2.37201 33.3352 2.37201L31.2015 0.601562C23.1687 5.15415 19.4034 10.339 18.3993 16.1562C17.6462 20.9618 19.5289 24.7556 24.2983 24.7556C27.6872 24.7556 30.9505 22.4793 31.578 18.6855C32.3311 14.2593 29.9464 11.3507 26.8086 10.7184Z" fill="url(#paint0_linear_4644_48752)" fill-opacity="0.6"/>
<defs>
<linearGradient id="paint0_linear_4644_48752" x1="17.1491" y1="0.601561" x2="17" y2="34.5" gradientUnits="userSpaceOnUse">
<stop offset="0.333333" stop-color="#7D55FA"/>
<stop offset="1" stop-color="#D336FF" stop-opacity="0.36"/>
</linearGradient>
</defs>
</svg>
