<svg width="34" height="25" viewBox="0 0 34 25" fill="none" xmlns="http://www.w3.org/2000/svg">
<path d="M16.0145 2.46576L13.8808 0.695312C5.84807 5.2479 2.08271 10.4328 1.07862 16.25C0.325545 21.0555 2.20823 24.8493 6.97768 24.8493C10.3665 24.8493 13.6298 22.573 14.3829 18.7792C15.0105 14.3531 12.5002 11.6974 9.36241 11.0651C10.6175 6.76544 15.889 2.46576 16.0145 2.46576ZM26.8086 10.8122C28.1892 6.63898 33.2097 2.46576 33.3352 2.46576L31.2015 0.695312C23.1687 5.2479 19.4034 10.4328 18.3993 16.25C17.6462 21.0555 19.5289 24.8493 24.2983 24.8493C27.6872 24.8493 30.9505 22.573 31.578 18.7792C32.3311 14.3531 29.9464 11.4445 26.8086 10.8122Z" fill="url(#paint0_linear_4644_48803)"/>
<path d="M16.0145 2.46576L13.8808 0.695312C5.84807 5.2479 2.08271 10.4328 1.07862 16.25C0.325545 21.0555 2.20823 24.8493 6.97768 24.8493C10.3665 24.8493 13.6298 22.573 14.3829 18.7792C15.0105 14.3531 12.5002 11.6974 9.36241 11.0651C10.6175 6.76544 15.889 2.46576 16.0145 2.46576ZM26.8086 10.8122C28.1892 6.63898 33.2097 2.46576 33.3352 2.46576L31.2015 0.695312C23.1687 5.2479 19.4034 10.4328 18.3993 16.25C17.6462 21.0555 19.5289 24.8493 24.2983 24.8493C27.6872 24.8493 30.9505 22.573 31.578 18.7792C32.3311 14.3531 29.9464 11.4445 26.8086 10.8122Z" fill="url(#paint1_linear_4644_48803)" fill-opacity="0.4"/>
<path d="M16.0145 2.46576L13.8808 0.695312C5.84807 5.2479 2.08271 10.4328 1.07862 16.25C0.325545 21.0555 2.20823 24.8493 6.97768 24.8493C10.3665 24.8493 13.6298 22.573 14.3829 18.7792C15.0105 14.3531 12.5002 11.6974 9.36241 11.0651C10.6175 6.76544 15.889 2.46576 16.0145 2.46576ZM26.8086 10.8122C28.1892 6.63898 33.2097 2.46576 33.3352 2.46576L31.2015 0.695312C23.1687 5.2479 19.4034 10.4328 18.3993 16.25C17.6462 21.0555 19.5289 24.8493 24.2983 24.8493C27.6872 24.8493 30.9505 22.573 31.578 18.7792C32.3311 14.3531 29.9464 11.4445 26.8086 10.8122Z" fill="url(#paint2_linear_4644_48803)"/>
<defs>
<linearGradient id="paint0_linear_4644_48803" x1="3.59689" y1="1.62188" x2="28.9487" y2="25.3698" gradientUnits="userSpaceOnUse">
<stop stop-color="#4664FF"/>
<stop offset="0.868908"/>
</linearGradient>
<linearGradient id="paint1_linear_4644_48803" x1="1.84096" y1="1.49553" x2="24.0241" y2="19.8182" gradientUnits="userSpaceOnUse">
<stop stop-color="#C62F94"/>
<stop offset="0.755308"/>
</linearGradient>
<linearGradient id="paint2_linear_4644_48803" x1="29.7333" y1="2.69624" x2="8.19789" y2="28.9046" gradientUnits="userSpaceOnUse">
<stop stop-opacity="0"/>
<stop offset="0.994083"/>
</linearGradient>
</defs>
</svg>
