<svg width="381" height="381" viewBox="0 0 381 381" fill="none" xmlns="http://www.w3.org/2000/svg">
<path d="M250.457 33.5206C250.457 33.5206 194.635 17.0818 139.497 50.3318C84.359 83.5818 56.2846 145.575 32.1698 195.325C8.05501 245.074 21.4158 293.798 63.193 314.265C104.97 334.731 133.698 300.129 192.522 295.614C251.346 291.1 267.109 298.441 316.121 263.998C365.133 229.555 374.459 153.449 336.329 99.3518C298.2 45.255 250.457 33.5206 250.457 33.5206Z" fill="#4F18A2"/>
<path opacity="0.7" d="M250.457 33.5206C250.457 33.5206 194.635 17.0818 139.497 50.3318C84.359 83.5818 56.2846 145.575 32.1698 195.325C8.05501 245.074 21.4158 293.798 63.193 314.265C104.97 334.731 133.698 300.129 192.522 295.614C251.346 291.1 267.109 298.441 316.121 263.998C365.133 229.555 374.459 153.449 336.329 99.3518C298.2 45.255 250.457 33.5206 250.457 33.5206Z" fill="white"/>
<path d="M101.619 60.7531C100.081 62.4276 98.9973 64.4686 98.4724 66.6811C97.3347 65.1444 95.6739 64.0773 93.8033 63.681C91.9328 63.2848 89.9819 63.5869 88.3188 64.5303C88.0078 60.859 86.3861 57.4223 83.7502 54.8481C81.1142 52.2738 77.6401 50.734 73.9625 50.5099C70.2849 50.2858 66.6495 51.3924 63.7205 53.6276C60.7915 55.8627 58.7646 59.0772 58.01 62.6835C56.2101 60.9092 53.8041 59.884 51.2776 59.8149C48.7512 59.7458 46.2926 60.6379 44.3984 62.3111" stroke="#263238" stroke-width="0.76" stroke-miterlimit="10"/>
<path d="M143.435 44.5732C138.33 43.7734 133.113 44.9555 128.852 47.8775C124.59 50.7994 121.607 55.2401 120.513 60.29C118.435 58.242 115.734 56.9432 112.837 56.5978C109.94 56.2525 107.009 56.8803 104.508 58.3824" stroke="#263238" stroke-width="0.76" stroke-miterlimit="10"/>
<path d="M154.81 50.4793C153.393 49.0058 151.76 47.7553 149.969 46.7705" stroke="#263238" stroke-width="0.76" stroke-miterlimit="10"/>
<path d="M147.523 70.1684H184.931C184.453 69.3778 183.814 68.697 183.056 68.1703C182.297 67.6437 181.436 67.2832 180.528 67.1125C179.621 66.9417 178.687 66.9646 177.789 67.1795C176.891 67.3944 176.049 67.7966 175.317 68.3596C174.822 66.9257 174.018 65.6182 172.961 64.5297C171.905 63.4412 170.622 62.5984 169.203 62.061C167.785 61.5237 166.265 61.3049 164.753 61.4201C163.24 61.5354 161.772 61.9819 160.451 62.728C160.126 59.058 158.799 55.548 156.613 52.582" stroke="#263238" stroke-width="0.76" stroke-miterlimit="10"/>
<path d="M42.8555 64.0859C41.6728 65.7684 41.0385 67.775 41.0391 69.8315C41.0391 69.9607 41.0391 70.0823 41.0391 70.2039H140.158" stroke="#263238" stroke-width="0.76" stroke-miterlimit="10"/>
<path d="M175.551 76.8303C174.367 75.8192 172.94 75.1329 171.411 74.8387C169.882 74.5445 168.303 74.6524 166.828 75.152C165.353 75.6515 164.034 76.5254 162.998 77.6883C161.962 78.8511 161.247 80.2629 160.921 81.7855C160.18 81.0564 159.259 80.5375 158.252 80.2823C157.244 80.027 156.187 80.0447 155.189 80.3333C154.191 80.622 153.287 81.1712 152.572 81.9247C151.856 82.6781 151.354 83.6085 151.117 84.6203C150.793 84.1834 150.371 83.8286 149.886 83.5844C149.4 83.3402 148.864 83.2134 148.32 83.2143C147.719 83.2159 147.128 83.3702 146.602 83.6627C146.433 82.0534 145.698 80.5563 144.529 79.4376C143.359 78.3188 141.831 77.6509 140.216 77.5524C138.601 77.454 137.003 77.9314 135.707 78.8999C134.41 79.8683 133.499 81.2651 133.135 82.8419C132.51 82.2281 131.718 81.8125 130.858 81.6472C129.998 81.4819 129.108 81.5743 128.301 81.9128C127.493 82.2514 126.803 82.8209 126.318 83.55C125.833 84.2791 125.574 85.1353 125.573 86.0111C125.569 86.0643 125.569 86.1176 125.573 86.1707H189.565C189.349 85.8223 189.062 85.5233 188.723 85.2932C188.383 85.0632 187.999 84.9072 187.595 84.8355C187.192 84.7638 186.777 84.778 186.38 84.8771C185.982 84.9762 185.609 85.158 185.286 85.4107C184.98 84.5026 184.394 83.7141 183.614 83.1575C182.834 82.6008 181.898 82.3043 180.939 82.3099C180.141 82.3089 179.356 82.5131 178.659 82.9027C178.6 82.231 178.465 81.5681 178.256 80.9267" stroke="#263238" stroke-width="0.76" stroke-miterlimit="10"/>
<path d="M292.617 192.527C291.463 193.772 290.653 195.296 290.269 196.95C289.723 196.215 289.012 195.619 288.194 195.208C287.375 194.798 286.472 194.585 285.557 194.586C284.547 194.584 283.554 194.846 282.676 195.346C282.424 192.618 281.203 190.071 279.236 188.164C277.268 186.257 274.684 185.117 271.949 184.95C269.214 184.783 266.51 185.6 264.325 187.253C262.14 188.906 260.619 191.286 260.036 193.963C258.691 192.639 256.894 191.874 255.007 191.822C253.12 191.77 251.284 192.434 249.867 193.682" stroke="#263238" stroke-width="0.76" stroke-miterlimit="10"/>
<path d="M323.866 180.435C323.089 180.317 322.304 180.256 321.518 180.253C318.06 180.254 314.707 181.439 312.017 183.611C309.328 185.784 307.464 188.813 306.736 192.193C305.181 190.661 303.161 189.69 300.994 189.433C298.827 189.176 296.636 189.647 294.766 190.771" stroke="#263238" stroke-width="0.76" stroke-miterlimit="10"/>
<path d="M332.367 184.853C331.299 183.749 330.068 182.813 328.719 182.079" stroke="#263238" stroke-width="0.76" stroke-miterlimit="10"/>
<path d="M326.922 199.568H354.867C354.51 198.978 354.032 198.471 353.465 198.078C352.899 197.685 352.255 197.417 351.578 197.289C350.9 197.161 350.204 197.178 349.533 197.337C348.862 197.497 348.233 197.796 347.685 198.215C347.311 197.147 346.706 196.174 345.915 195.365C345.123 194.556 344.163 193.931 343.104 193.534C342.044 193.136 340.91 192.977 339.781 193.066C338.653 193.155 337.558 193.491 336.574 194.05C336.332 191.301 335.338 188.672 333.701 186.45" stroke="#263238" stroke-width="0.76" stroke-miterlimit="10"/>
<path d="M248.697 195.001C247.815 196.259 247.342 197.759 247.344 199.295C247.344 199.386 247.344 199.477 247.344 199.569H321.406" stroke="#263238" stroke-width="0.76" stroke-miterlimit="10"/>
<path d="M347.873 204.546C346.66 203.506 345.115 202.937 343.518 202.942C341.978 202.943 340.485 203.471 339.287 204.439C338.089 205.407 337.26 206.757 336.936 208.262C336.383 207.719 335.695 207.332 334.943 207.142C334.191 206.952 333.402 206.965 332.656 207.181C331.911 207.397 331.237 207.807 330.703 208.37C330.169 208.933 329.794 209.627 329.617 210.383C329.374 210.057 329.057 209.792 328.693 209.61C328.329 209.428 327.927 209.333 327.52 209.334C327.072 209.333 326.632 209.448 326.243 209.668C326.137 208.45 325.596 207.311 324.72 206.459C323.844 205.606 322.691 205.096 321.47 205.023C320.25 204.949 319.044 205.316 318.071 206.057C317.099 206.798 316.425 207.864 316.173 209.06C315.708 208.599 315.116 208.286 314.473 208.161C313.83 208.036 313.165 208.104 312.56 208.357C311.956 208.61 311.44 209.036 311.078 209.582C310.716 210.128 310.524 210.769 310.526 211.424C310.522 211.464 310.522 211.505 310.526 211.546H358.338C358.181 211.282 357.969 211.054 357.717 210.878C357.466 210.702 357.179 210.582 356.877 210.525C356.575 210.469 356.265 210.477 355.966 210.549C355.668 210.621 355.388 210.756 355.146 210.945C354.904 210.277 354.462 209.7 353.88 209.292C353.297 208.884 352.604 208.665 351.893 208.665C351.301 208.666 350.72 208.82 350.206 209.114C350.16 208.61 350.058 208.113 349.902 207.632" stroke="#263238" stroke-width="0.76" stroke-miterlimit="10"/>
<path d="M178.311 119.222H74.5859V272.377H178.311V119.222Z" fill="#263238" stroke="#263238" stroke-width="0.76" stroke-linecap="round" stroke-linejoin="round"/>
<path d="M171.637 126.644H81.2578V265.116H171.637V126.644Z" fill="white" stroke="#263238" stroke-width="0.76" stroke-linecap="round" stroke-linejoin="round"/>
<path d="M108.648 114.486H144.247C145.583 114.486 146.865 115.017 147.81 115.962C148.755 116.907 149.286 118.189 149.286 119.525V130.249H103.61V119.563C103.605 118.898 103.731 118.239 103.982 117.623C104.233 117.007 104.603 116.447 105.072 115.976C105.54 115.504 106.097 115.129 106.711 114.873C107.325 114.618 107.983 114.486 108.648 114.486Z" fill="#7D7D7D" stroke="#263238" stroke-width="0.76" stroke-linecap="round" stroke-linejoin="round"/>
<path d="M123.373 108.044H129.453C130.171 108.036 130.884 108.171 131.549 108.441C132.215 108.712 132.82 109.112 133.329 109.618C133.839 110.125 134.242 110.728 134.516 111.392C134.79 112.056 134.929 112.768 134.925 113.486V114.474H117.984V113.486C117.98 112.775 118.117 112.07 118.385 111.411C118.654 110.752 119.05 110.153 119.551 109.648C120.051 109.143 120.646 108.741 121.302 108.466C121.958 108.19 122.662 108.047 123.373 108.044Z" fill="#7D7D7D" stroke="#263238" stroke-width="0.76" stroke-linecap="round" stroke-linejoin="round"/>
<path d="M149.279 163.199C157.354 163.199 163.901 156.652 163.901 148.577C163.901 140.501 157.354 133.954 149.279 133.954C141.203 133.954 134.656 140.501 134.656 148.577C134.656 156.652 141.203 163.199 149.279 163.199Z" fill="#263238" stroke="#263238" stroke-width="0.76" stroke-linecap="round" stroke-linejoin="round"/>
<path d="M159.384 144.92H153.145V138.688H145.834V144.92H139.602V152.232H145.834V158.471H153.145V152.232H159.384V144.92Z" fill="#4F18A2" stroke="#263238" stroke-width="0.76" stroke-linecap="round" stroke-linejoin="round"/>
<path d="M89.0703 148.151H124.334" stroke="#263238" stroke-width="0.76" stroke-linecap="round" stroke-linejoin="round"/>
<path d="M89.0703 155.462H124.334" stroke="#263238" stroke-width="0.76" stroke-linecap="round" stroke-linejoin="round"/>
<path d="M89.0703 179.546H163.467" stroke="#263238" stroke-width="0.76" stroke-linecap="round" stroke-linejoin="round"/>
<path d="M98.1032 186.427H89.5V195.456H98.1032V186.427Z" stroke="#263238" stroke-width="0.76" stroke-linecap="round" stroke-linejoin="round"/>
<path d="M138.103 186.427H129.5V195.456H138.103V186.427Z" stroke="#263238" stroke-width="0.76" stroke-linecap="round" stroke-linejoin="round"/>
<path d="M101.539 195.451H122.614" stroke="#263238" stroke-width="0.76" stroke-linecap="round" stroke-linejoin="round"/>
<path d="M141.531 195.451H162.606" stroke="#263238" stroke-width="0.76" stroke-linecap="round" stroke-linejoin="round"/>
<path d="M98.1032 204.054H89.5V213.082H98.1032V204.054Z" stroke="#263238" stroke-width="0.76" stroke-linecap="round" stroke-linejoin="round"/>
<path d="M138.103 204.054H129.5V213.082H138.103V204.054Z" stroke="#263238" stroke-width="0.76" stroke-linecap="round" stroke-linejoin="round"/>
<path d="M101.539 213.086H122.614" stroke="#263238" stroke-width="0.76" stroke-linecap="round" stroke-linejoin="round"/>
<path d="M141.531 213.086H162.606" stroke="#263238" stroke-width="0.76" stroke-linecap="round" stroke-linejoin="round"/>
<path d="M98.1032 221.688H89.5V230.716H98.1032V221.688Z" stroke="#263238" stroke-width="0.76" stroke-linecap="round" stroke-linejoin="round"/>
<path d="M138.103 221.688H129.5V230.716H138.103V221.688Z" stroke="#263238" stroke-width="0.76" stroke-linecap="round" stroke-linejoin="round"/>
<path d="M101.539 230.72H122.614" stroke="#263238" stroke-width="0.76" stroke-linecap="round" stroke-linejoin="round"/>
<path d="M141.531 230.72H162.606" stroke="#263238" stroke-width="0.76" stroke-linecap="round" stroke-linejoin="round"/>
<path d="M98.1032 239.314H89.5V248.343H98.1032V239.314Z" stroke="#263238" stroke-width="0.76" stroke-linecap="round" stroke-linejoin="round"/>
<path d="M138.103 239.314H129.5V248.343H138.103V239.314Z" stroke="#263238" stroke-width="0.76" stroke-linecap="round" stroke-linejoin="round"/>
<path d="M101.539 248.347H122.614" stroke="#263238" stroke-width="0.76" stroke-linecap="round" stroke-linejoin="round"/>
<path d="M141.531 248.347H162.606" stroke="#263238" stroke-width="0.76" stroke-linecap="round" stroke-linejoin="round"/>
<path d="M271.451 76.8086H192.039V225.966H271.451V76.8086Z" fill="#4F18A2" stroke="#263238" stroke-width="0.76" stroke-linecap="round" stroke-linejoin="round"/>
<path d="M263.307 94.6292C261.281 94.6292 259.338 93.8245 257.906 92.3921C256.473 90.9597 255.669 89.0169 255.669 86.9912H207.31C207.31 89.0169 206.505 90.9597 205.073 92.3921C203.64 93.8245 201.698 94.6292 199.672 94.6292V207.641C201.698 207.641 203.64 208.446 205.073 209.878C206.505 211.311 207.31 213.253 207.31 215.279C207.31 215.454 207.31 215.621 207.31 215.788H255.729C255.729 215.621 255.729 215.454 255.729 215.279C255.729 213.253 256.534 211.311 257.967 209.878C259.399 208.446 261.342 207.641 263.367 207.641C263.542 207.641 263.709 207.641 263.877 207.641V94.5988C263.649 94.614 263.481 94.6292 263.307 94.6292ZM231.744 174.551C227.162 174.551 222.684 173.192 218.874 170.647C215.065 168.101 212.096 164.484 210.342 160.251C208.589 156.018 208.13 151.36 209.024 146.867C209.918 142.373 212.124 138.246 215.364 135.006C218.604 131.766 222.731 129.56 227.225 128.666C231.718 127.773 236.376 128.231 240.609 129.985C244.841 131.738 248.459 134.707 251.005 138.516C253.55 142.326 254.909 146.804 254.909 151.386C254.909 157.53 252.468 163.422 248.124 167.766C243.78 172.11 237.888 174.551 231.744 174.551Z" fill="white" stroke="#263238" stroke-width="0.76" stroke-linecap="round" stroke-linejoin="round"/>
<path d="M293.299 90.7009L214.836 78.4561L191.837 225.83L270.3 238.075L293.299 90.7009Z" fill="#4F18A2" stroke="#263238" stroke-width="0.76" stroke-linecap="round" stroke-linejoin="round"/>
<path d="M282.489 107.053C281.497 106.903 280.545 106.557 279.687 106.036C278.83 105.516 278.084 104.83 277.493 104.02C276.901 103.209 276.476 102.29 276.242 101.315C276.008 100.339 275.969 99.3268 276.128 98.3362L228.346 90.873C228.032 92.8737 226.937 94.6679 225.301 95.8619C223.666 97.056 221.623 97.5522 219.622 97.2419L202.18 208.901C204.178 209.214 205.971 210.306 207.165 211.939C208.359 213.572 208.857 215.611 208.548 217.611C208.548 217.778 208.48 217.945 208.442 218.105L256.276 225.575C256.276 225.408 256.276 225.241 256.33 225.074C256.48 224.081 256.825 223.127 257.346 222.268C257.866 221.409 258.552 220.662 259.364 220.07C260.175 219.477 261.096 219.052 262.072 218.818C263.049 218.583 264.063 218.545 265.054 218.705C265.222 218.705 265.389 218.773 265.556 218.804L283.036 107.084C282.831 107.091 282.656 107.084 282.489 107.053ZM238.971 181.131C234.445 180.423 230.229 178.39 226.859 175.287C223.488 172.184 221.113 168.151 220.034 163.698C218.955 159.246 219.221 154.573 220.798 150.271C222.374 145.97 225.191 142.232 228.892 139.531C232.593 136.831 237.012 135.288 241.589 135.099C246.167 134.909 250.698 136.081 254.609 138.467C258.521 140.853 261.637 144.344 263.564 148.501C265.491 152.658 266.142 157.292 265.434 161.819C264.966 164.825 263.91 167.709 262.326 170.307C260.742 172.905 258.662 175.165 256.204 176.958C253.747 178.752 250.96 180.043 248.003 180.759C245.046 181.475 241.977 181.601 238.971 181.131Z" fill="white" stroke="#263238" stroke-width="0.76" stroke-linecap="round" stroke-linejoin="round"/>
<path d="M320.349 116.162L246.523 86.9023L191.566 225.566L265.392 254.826L320.349 116.162Z" fill="#4F18A2" stroke="#263238" stroke-width="0.76" stroke-linecap="round" stroke-linejoin="round"/>
<path d="M306.19 129.753C304.315 129.006 302.812 127.548 302.009 125.697C301.206 123.845 301.168 121.752 301.904 119.873L256.942 102.043C256.576 102.974 256.03 103.825 255.336 104.544C254.641 105.264 253.81 105.84 252.892 106.238C251.974 106.637 250.987 106.85 249.986 106.865C248.986 106.881 247.992 106.699 247.062 106.329L205.414 211.392C206.346 211.757 207.196 212.303 207.916 212.998C208.635 213.693 209.211 214.524 209.609 215.441C210.008 216.359 210.221 217.347 210.236 218.348C210.252 219.348 210.07 220.342 209.7 221.272C209.632 221.431 209.564 221.583 209.488 221.735L254.495 239.58C254.548 239.421 254.594 239.253 254.654 239.094C255.404 237.213 256.869 235.705 258.729 234.903C260.588 234.101 262.69 234.069 264.572 234.815C264.732 234.876 264.884 234.952 265.036 235.02L306.699 129.912C306.522 129.867 306.352 129.813 306.19 129.753ZM247.396 192.422C243.137 190.734 239.473 187.821 236.869 184.051C234.265 180.281 232.837 175.824 232.767 171.243C232.696 166.661 233.986 162.162 236.473 158.313C238.96 154.465 242.532 151.441 246.738 149.623C250.944 147.805 255.594 147.275 260.101 148.1C264.608 148.925 268.769 151.069 272.058 154.259C275.347 157.449 277.616 161.543 278.577 166.023C279.539 170.503 279.151 175.167 277.462 179.426C275.196 185.134 270.756 189.71 265.119 192.147C259.481 194.583 253.107 194.683 247.396 192.422Z" fill="white" stroke="#263238" stroke-width="0.76" stroke-linecap="round" stroke-linejoin="round"/>
<path d="M342.458 149.689L277.734 103.676L191.309 225.243L256.032 271.257L342.458 149.689Z" fill="#4F18A2" stroke="#263238" stroke-width="0.76" stroke-linecap="round" stroke-linejoin="round"/>
<path d="M325.485 159.496C324.665 158.918 323.968 158.183 323.434 157.334C322.9 156.485 322.539 155.539 322.372 154.55C322.205 153.561 322.236 152.548 322.462 151.571C322.689 150.594 323.106 149.671 323.691 148.856L284.27 120.835C283.096 122.483 281.317 123.598 279.322 123.936C277.328 124.274 275.28 123.806 273.63 122.636L208.141 214.733C208.96 215.311 209.657 216.046 210.191 216.895C210.726 217.744 211.087 218.69 211.253 219.679C211.42 220.669 211.389 221.681 211.163 222.658C210.937 223.635 210.519 224.558 209.934 225.373C209.835 225.517 209.729 225.639 209.623 225.776L249.074 253.827C249.165 253.683 249.249 253.539 249.355 253.394C249.934 252.575 250.669 251.878 251.517 251.343C252.366 250.809 253.313 250.448 254.302 250.282C255.291 250.115 256.303 250.145 257.281 250.372C258.258 250.598 259.18 251.016 259.995 251.601C260.132 251.699 260.261 251.806 260.391 251.912L325.91 159.762C325.773 159.686 325.632 159.597 325.485 159.496ZM253.452 206.35C249.717 203.696 246.854 199.993 245.224 195.711C243.594 191.429 243.27 186.76 244.294 182.294C245.317 177.829 247.642 173.766 250.974 170.622C254.307 167.477 258.497 165.392 263.014 164.628C267.532 163.865 272.174 164.459 276.355 166.334C280.535 168.209 284.065 171.282 286.499 175.164C288.933 179.046 290.161 183.562 290.028 188.142C289.895 192.722 288.407 197.159 285.752 200.893C282.192 205.9 276.789 209.287 270.732 210.311C264.675 211.334 258.459 209.909 253.452 206.35Z" fill="white" stroke="#263238" stroke-width="0.76" stroke-linecap="round" stroke-linejoin="round"/>
<path d="M210.635 234.597C237.909 234.597 260.02 212.486 260.02 185.212C260.02 157.937 237.909 135.827 210.635 135.827C183.36 135.827 161.25 157.937 161.25 185.212C161.25 212.486 183.36 234.597 210.635 234.597Z" fill="white" stroke="#263238" stroke-width="0.76" stroke-linecap="round" stroke-linejoin="round"/>
<path d="M171.227 155.934H176.539" stroke="#263238" stroke-width="0.76" stroke-linecap="round" stroke-linejoin="round"/>
<path d="M173.719 152.705H178.689" stroke="#263238" stroke-width="0.76" stroke-linecap="round" stroke-linejoin="round"/>
<path d="M176.094 150.196H181.026" stroke="#263238" stroke-width="0.76" stroke-linecap="round" stroke-linejoin="round"/>
<path d="M179.148 147.539H183.496" stroke="#263238" stroke-width="0.76" stroke-linecap="round" stroke-linejoin="round"/>
<path d="M167.992 160.772H172.955" stroke="#263238" stroke-width="0.76" stroke-linecap="round" stroke-linejoin="round"/>
<path d="M164.383 168.477H169.368" stroke="#263238" stroke-width="0.76" stroke-linecap="round" stroke-linejoin="round"/>
<path d="M161.906 177.806H167.219" stroke="#263238" stroke-width="0.76" stroke-linecap="round" stroke-linejoin="round"/>
<path d="M161.547 188.211H166.859" stroke="#263238" stroke-width="0.76" stroke-linecap="round" stroke-linejoin="round"/>
<path d="M215.307 234.597C242.581 234.597 264.691 212.486 264.691 185.212C264.691 157.937 242.581 135.827 215.307 135.827C188.032 135.827 165.922 157.937 165.922 185.212C165.922 212.486 188.032 234.597 215.307 234.597Z" fill="white" stroke="#263238" stroke-width="0.76" stroke-linecap="round" stroke-linejoin="round"/>
<path d="M253.628 194.05C258.511 172.885 245.311 151.769 224.145 146.886C202.98 142.003 181.864 155.203 176.981 176.369C172.099 197.534 185.299 218.65 206.464 223.533C227.63 228.416 248.746 215.216 253.628 194.05Z" fill="white" stroke="#263238" stroke-width="0.76" stroke-linecap="round" stroke-linejoin="round"/>
<path d="M215.33 145.881H214.57C224.902 146.025 234.761 150.229 242.016 157.586C249.271 164.943 253.339 174.86 253.339 185.192C253.339 195.524 249.271 205.441 242.016 212.798C234.761 220.154 224.902 224.359 214.57 224.503H215.33C220.541 224.575 225.714 223.612 230.548 221.668C235.383 219.724 239.783 216.839 243.494 213.18C247.204 209.521 250.15 205.161 252.161 200.354C254.172 195.547 255.207 190.388 255.207 185.177C255.207 179.966 254.172 174.807 252.161 170C250.15 165.192 247.204 160.833 243.494 157.174C239.783 153.515 235.383 150.629 230.548 148.686C225.714 146.742 220.541 145.778 215.33 145.85V145.881Z" fill="white" stroke="#263238" stroke-width="0.76" stroke-linecap="round" stroke-linejoin="round"/>
<path d="M217.136 209.743C217.022 209.767 216.918 209.829 216.842 209.918C216.766 210.008 216.723 210.12 216.718 210.237L216.787 213.422C216.813 213.585 216.8 213.753 216.749 213.91C216.698 214.068 216.61 214.211 216.493 214.328C216.376 214.446 216.232 214.533 216.075 214.584C215.917 214.636 215.75 214.649 215.586 214.623H211.414C211.25 214.649 211.083 214.636 210.925 214.584C210.767 214.533 210.624 214.446 210.507 214.328C210.39 214.211 210.302 214.068 210.251 213.91C210.2 213.753 210.187 213.585 210.213 213.422L210.35 210.169C210.348 210.05 210.304 209.935 210.226 209.845C210.149 209.755 210.042 209.694 209.924 209.675C201.868 208.687 197.194 203.808 197.194 197.021V193.981C197.176 193.818 197.194 193.653 197.249 193.499C197.303 193.344 197.392 193.204 197.508 193.088C197.624 192.973 197.765 192.885 197.92 192.832C198.075 192.778 198.24 192.761 198.402 192.78H205.752C206.512 192.78 206.96 193.137 206.96 193.7V194.688C206.96 198.298 209.293 201.406 214.096 201.406C218.656 201.406 220.534 198.647 220.534 195.82C220.534 190.804 211.338 190.021 204.574 185.636C200.188 182.953 197.148 179.488 197.148 173.476C197.148 166.051 201.746 160.815 209.878 159.614C209.995 159.593 210.101 159.532 210.179 159.442C210.257 159.352 210.301 159.238 210.304 159.12L210.16 155.32C210.134 155.156 210.147 154.988 210.198 154.83C210.249 154.673 210.337 154.529 210.454 154.411C210.571 154.294 210.714 154.205 210.871 154.153C211.029 154.101 211.196 154.087 211.36 154.111H215.396C215.559 154.093 215.724 154.112 215.878 154.166C216.033 154.22 216.173 154.309 216.289 154.425C216.404 154.542 216.492 154.682 216.545 154.837C216.599 154.992 216.616 155.157 216.597 155.32L216.528 159.067C216.53 159.186 216.574 159.3 216.652 159.391C216.73 159.481 216.837 159.541 216.954 159.561C225.436 160.48 230.246 165.641 230.246 172.929V175.262C230.266 175.425 230.248 175.589 230.195 175.744C230.142 175.899 230.054 176.039 229.938 176.155C229.822 176.27 229.682 176.358 229.527 176.412C229.373 176.465 229.208 176.483 229.046 176.463H221.62C220.86 176.463 220.412 176.182 220.412 175.756V175.057C220.412 171.31 218.292 167.913 213.344 167.913C209.384 167.913 206.983 169.965 206.983 173.142C206.983 177.74 213.412 178.462 220.062 181.35C227.343 184.603 230.528 189.125 230.528 195.349C230.528 203.101 225.77 208.611 217.136 209.743Z" fill="white" stroke="#263238" stroke-width="0.76" stroke-linecap="round" stroke-linejoin="round"/>
<path d="M218.652 209.743C218.536 209.767 218.432 209.828 218.355 209.918C218.278 210.007 218.233 210.119 218.226 210.237L218.295 213.422C218.321 213.585 218.308 213.753 218.257 213.91C218.206 214.068 218.118 214.211 218.001 214.328C217.884 214.446 217.74 214.533 217.583 214.584C217.425 214.636 217.258 214.649 217.094 214.623H212.922C212.758 214.649 212.591 214.636 212.433 214.584C212.275 214.533 212.132 214.446 212.015 214.328C211.898 214.211 211.81 214.068 211.759 213.91C211.708 213.753 211.695 213.585 211.721 213.422L211.865 210.169C211.862 210.05 211.818 209.936 211.74 209.846C211.663 209.756 211.557 209.696 211.44 209.675C203.376 208.687 198.71 203.808 198.71 197.021V193.981C198.69 193.819 198.708 193.654 198.761 193.499C198.814 193.345 198.902 193.204 199.018 193.088C199.134 192.973 199.274 192.885 199.429 192.832C199.583 192.778 199.748 192.761 199.91 192.78H207.267C208.027 192.78 208.468 193.137 208.468 193.7V194.688C208.468 198.298 210.801 201.406 215.612 201.406C220.134 201.406 222.049 198.647 222.049 195.82C222.049 190.804 212.853 190.021 206.089 185.636C201.704 182.953 198.664 179.488 198.664 173.476C198.664 166.051 203.224 160.815 211.386 159.614C211.504 159.594 211.611 159.534 211.689 159.444C211.766 159.354 211.81 159.239 211.812 159.12L211.675 155.32C211.65 155.156 211.663 154.988 211.714 154.83C211.765 154.673 211.853 154.529 211.97 154.411C212.086 154.294 212.229 154.205 212.387 154.153C212.544 154.101 212.712 154.087 212.876 154.111H216.851C217.014 154.092 217.179 154.109 217.335 154.163C217.49 154.217 217.631 154.305 217.747 154.422C217.863 154.539 217.95 154.68 218.003 154.836C218.056 154.991 218.073 155.157 218.052 155.32L217.983 159.067C217.987 159.185 218.031 159.299 218.108 159.389C218.186 159.479 218.292 159.54 218.409 159.561C226.89 160.48 231.701 165.641 231.701 172.929V175.262C231.721 175.425 231.703 175.589 231.65 175.744C231.596 175.899 231.509 176.039 231.393 176.155C231.277 176.27 231.137 176.358 230.982 176.412C230.828 176.465 230.663 176.483 230.5 176.463H223.075C222.315 176.463 221.874 176.182 221.874 175.756V175.057C221.874 171.31 219.754 167.913 214.799 167.913C210.839 167.913 208.438 169.965 208.438 173.142C208.438 177.74 214.875 178.462 221.517 181.35C228.806 184.603 231.99 189.125 231.99 195.349C232.051 203.101 227.278 208.611 218.652 209.743Z" fill="#263238"/>
<path d="M91.5132 339.002H44.7656V288.242L66.7296 265.518L91.5132 288.242V339.002Z" fill="#999999" stroke="#263238" stroke-width="0.76" stroke-linecap="round" stroke-linejoin="round"/>
<path d="M244.829 339.008H132.805V230.487L197.458 203.492L244.829 230.487V339.008Z" fill="#999999" stroke="#263238" stroke-width="0.76" stroke-linecap="round" stroke-linejoin="round"/>
<path d="M147.752 278.676H89.4375V339.073H147.752V278.676Z" fill="white" stroke="#263238" stroke-width="0.76" stroke-linecap="round" stroke-linejoin="round"/>
<path d="M215.065 288.243H183.031V339.072H215.065V288.243Z" fill="#C2C2C2" stroke="#263238" stroke-width="0.76" stroke-linecap="round" stroke-linejoin="round"/>
<path d="M204.902 295.42H190.203V339.074H204.902V295.42Z" fill="white" stroke="#263238" stroke-width="0.76" stroke-linecap="round" stroke-linejoin="round"/>
<path d="M202.586 295.42H192.523V339.074H202.586V295.42Z" fill="#263238" stroke="#263238" stroke-width="0.76" stroke-linecap="round" stroke-linejoin="round"/>
<path d="M202.589 334.437H175.047V337.241H202.589V334.437Z" fill="white" stroke="#263238" stroke-width="0.76" stroke-linecap="round" stroke-linejoin="round"/>
<path d="M204.902 295.42H190.203V299.007H204.902V295.42Z" fill="white" stroke="#263238" stroke-width="0.76" stroke-linecap="round" stroke-linejoin="round"/>
<path d="M80.4658 295.42H56.8906V339.074H80.4658V295.42Z" fill="white" stroke="#263238" stroke-width="0.76" stroke-linecap="round" stroke-linejoin="round"/>
<path d="M76.744 295.42H60.6016V339.074H76.744V295.42Z" fill="#263238" stroke="#263238" stroke-width="0.76" stroke-linecap="round" stroke-linejoin="round"/>
<path d="M80.4658 295.42H56.8906V299.007H80.4658V295.42Z" fill="white" stroke="#263238" stroke-width="0.76" stroke-linecap="round" stroke-linejoin="round"/>
<path d="M164.093 287.219H145.359V321.13H164.093V287.219Z" fill="#C2C2C2" stroke="#263238" stroke-width="0.76" stroke-linecap="round" stroke-linejoin="round"/>
<path d="M303.819 339.008H223.297V230.487L263.083 203.492L303.819 230.487V339.008Z" fill="white" stroke="#263238" stroke-width="0.76" stroke-linecap="round" stroke-linejoin="round"/>
<path d="M304.828 230.84L263.005 203.708L222.961 231.076V233.72L263.294 206.353L304.828 233.485V230.84Z" fill="white" stroke="#263238" stroke-width="0.76" stroke-linecap="round" stroke-linejoin="round"/>
<path d="M252.802 210.472L218.625 265.124L223.299 265.724L258.875 207.409L303.821 273.719L306.215 273.621L261.375 204.658L252.802 210.472Z" fill="#263238" stroke="#263238" stroke-width="0.76" stroke-linecap="round" stroke-linejoin="round"/>
<path d="M223.297 230.487H128.016L165.681 203.492L263.007 204.039L223.297 230.487Z" fill="#263238" stroke="#263238" stroke-width="0.76" stroke-linecap="round" stroke-linejoin="round"/>
<path d="M282.557 277.303H237.383V339H282.557V277.303Z" fill="#BABABA" stroke="#263238" stroke-width="0.76" stroke-linecap="round" stroke-linejoin="round"/>
<path d="M286.151 277.303H240.977V339H286.151V277.303Z" fill="white" stroke="#263238" stroke-width="0.76" stroke-linecap="round" stroke-linejoin="round"/>
<path d="M279.285 286.67H247.828V319.168H279.285V286.67Z" fill="white" stroke="#263238" stroke-width="1.52" stroke-linecap="round" stroke-linejoin="round"/>
<path d="M270.177 286.67H256.953V319.168H270.177V286.67Z" fill="white" stroke="#263238" stroke-width="1.52" stroke-linecap="round" stroke-linejoin="round"/>
<path d="M287.514 274.55H232.43V280.06H287.514V274.55Z" fill="#BABABA" stroke="#263238" stroke-width="0.76" stroke-linecap="round" stroke-linejoin="round"/>
<path d="M291.1 274.55H236.016V280.06H291.1V274.55Z" fill="white" stroke="#263238" stroke-width="0.76" stroke-linecap="round" stroke-linejoin="round"/>
<path d="M206.359 287.219H203.562V316.965H206.359V287.219Z" fill="white" stroke="#263238" stroke-width="0.76" stroke-linecap="round" stroke-linejoin="round"/>
<path d="M214.148 287.219H211.352V316.965H214.148V287.219Z" fill="white" stroke="#263238" stroke-width="0.76" stroke-linecap="round" stroke-linejoin="round"/>
<path d="M207.214 316.55H202.586V319.886H207.214V316.55Z" fill="white" stroke="#263238" stroke-width="0.76" stroke-linecap="round" stroke-linejoin="round"/>
<path d="M215.058 316.55H210.43V319.886H215.058V316.55Z" fill="white" stroke="#263238" stroke-width="0.76" stroke-linecap="round" stroke-linejoin="round"/>
<path d="M207.214 290.188H202.586V292.065H207.214V290.188Z" fill="white" stroke="#263238" stroke-width="0.76" stroke-linecap="round" stroke-linejoin="round"/>
<path d="M215.058 290.188H210.43V292.065H215.058V290.188Z" fill="white" stroke="#263238" stroke-width="0.76" stroke-linecap="round" stroke-linejoin="round"/>
<path d="M216.73 319.607H200.367V339.003H216.73V319.607Z" fill="white" stroke="#263238" stroke-width="0.76" stroke-linecap="round" stroke-linejoin="round"/>
<path d="M166.891 287.219H164.094V316.965H166.891V287.219Z" fill="white" stroke="#263238" stroke-width="0.76" stroke-linecap="round" stroke-linejoin="round"/>
<path d="M174.68 287.219H171.883V316.965H174.68V287.219Z" fill="white" stroke="#263238" stroke-width="0.76" stroke-linecap="round" stroke-linejoin="round"/>
<path d="M167.746 316.55H163.117V319.886H167.746V316.55Z" fill="white" stroke="#263238" stroke-width="0.76" stroke-linecap="round" stroke-linejoin="round"/>
<path d="M175.589 316.55H170.961V319.886H175.589V316.55Z" fill="white" stroke="#263238" stroke-width="0.76" stroke-linecap="round" stroke-linejoin="round"/>
<path d="M167.746 290.188H163.117V292.065H167.746V290.188Z" fill="white" stroke="#263238" stroke-width="0.76" stroke-linecap="round" stroke-linejoin="round"/>
<path d="M175.589 290.188H170.961V292.065H175.589V290.188Z" fill="white" stroke="#263238" stroke-width="0.76" stroke-linecap="round" stroke-linejoin="round"/>
<path d="M177.269 319.607H160.906V339.003H177.269V319.607Z" fill="white" stroke="#263238" stroke-width="0.76" stroke-linecap="round" stroke-linejoin="round"/>
<path d="M161.309 319.607H141.359V339.003H161.309V319.607Z" fill="#999999" stroke="#263238" stroke-width="0.76" stroke-linecap="round" stroke-linejoin="round"/>
<path d="M216.736 289.975H155.039L165.504 284.465H216.736V289.975Z" fill="white" stroke="#263238" stroke-width="0.76" stroke-linecap="round" stroke-linejoin="round"/>
<path d="M248.133 294.938H278.981" stroke="#263238" stroke-width="0.76" stroke-linecap="round" stroke-linejoin="round"/>
<path d="M248.133 302.648H278.981" stroke="#263238" stroke-width="0.76" stroke-linecap="round" stroke-linejoin="round"/>
<path d="M248.133 310.36H278.981" stroke="#263238" stroke-width="0.76" stroke-linecap="round" stroke-linejoin="round"/>
<path d="M63.9998 264.471L41.6406 288.722H43.5102L65.4666 265.52L63.9998 264.471Z" fill="#263238" stroke="#263238" stroke-width="0.76" stroke-linecap="round" stroke-linejoin="round"/>
<path d="M87.6436 287.643H148.945L194.872 264.471H64L87.6436 287.643Z" fill="#263238" stroke="#263238" stroke-width="0.76" stroke-linecap="round" stroke-linejoin="round"/>
<path d="M226.785 264.471H191.286L128.016 287.643H159.708L226.785 264.471Z" fill="#263238" stroke="#263238" stroke-width="0.76" stroke-linecap="round" stroke-linejoin="round"/>
<path d="M306.209 267.048L264.508 203.064C264.344 202.807 264.117 202.596 263.849 202.452C263.58 202.307 263.28 202.234 262.975 202.238C262.67 202.243 262.372 202.326 262.108 202.478C261.844 202.63 261.624 202.848 261.468 203.11L223.946 265.08L151.336 288.443V292.189L225.649 268.318C226.067 268.195 226.426 267.925 226.66 267.558L263.056 207.427L306.209 273.638V267.048Z" fill="white" stroke="#263238" stroke-width="0.76" stroke-linecap="round" stroke-linejoin="round"/>
<path d="M212.146 234.523H199.477V255.454H212.146V234.523Z" stroke="#263238" stroke-width="1.52" stroke-linecap="round" stroke-linejoin="round"/>
<path d="M205.812 235.072V254.901" stroke="#263238" stroke-width="0.76" stroke-linecap="round" stroke-linejoin="round"/>
<path d="M211.864 244.988H199.75" stroke="#263238" stroke-width="0.76" stroke-linecap="round" stroke-linejoin="round"/>
<path d="M122.99 295.717H110.32V316.647H122.99V295.717Z" stroke="#263238" stroke-width="1.52" stroke-linecap="round" stroke-linejoin="round"/>
<path d="M116.656 296.266V316.102" stroke="#263238" stroke-width="0.76" stroke-linecap="round" stroke-linejoin="round"/>
<path d="M122.716 306.182H110.594" stroke="#263238" stroke-width="0.76" stroke-linecap="round" stroke-linejoin="round"/>
<path d="M268.896 234.123H256.227V255.053H268.896V234.123Z" stroke="#263238" stroke-width="1.52" stroke-linecap="round" stroke-linejoin="round"/>
<path d="M262.555 234.672V254.508" stroke="#263238" stroke-width="0.76" stroke-linecap="round" stroke-linejoin="round"/>
<path d="M268.614 244.588H256.5" stroke="#263238" stroke-width="0.76" stroke-linecap="round" stroke-linejoin="round"/>
<path d="M185.06 234.523H172.391V255.454H185.06V234.523Z" stroke="#263238" stroke-width="1.52" stroke-linecap="round" stroke-linejoin="round"/>
<path d="M178.719 235.072V254.901" stroke="#263238" stroke-width="0.76" stroke-linecap="round" stroke-linejoin="round"/>
<path d="M184.786 244.988H172.664" stroke="#263238" stroke-width="0.76" stroke-linecap="round" stroke-linejoin="round"/>
<path d="M157.974 234.523H145.305V255.454H157.974V234.523Z" stroke="#263238" stroke-width="1.52" stroke-linecap="round" stroke-linejoin="round"/>
<path d="M151.641 235.072V254.901" stroke="#263238" stroke-width="0.76" stroke-linecap="round" stroke-linejoin="round"/>
<path d="M157.7 244.988H145.578" stroke="#263238" stroke-width="0.76" stroke-linecap="round" stroke-linejoin="round"/>
<path d="M101.706 279.274H94.5317L86.1641 270.898H93.3385L101.706 279.274Z" fill="#6E6E6E"/>
<path d="M123.831 279.274H116.657L108.289 270.898H115.463L123.831 279.274Z" fill="#6E6E6E"/>
<path d="M64.0211 301.996H61.4219V310.371H64.0211V301.996Z" fill="#B5B5B5" stroke="#263238" stroke-width="0.76" stroke-linecap="round" stroke-linejoin="round"/>
<path d="M66.9117 301.996H64.3125V310.371H66.9117V301.996Z" fill="#B5B5B5" stroke="#263238" stroke-width="0.76" stroke-linecap="round" stroke-linejoin="round"/>
<path d="M69.8021 301.996H67.1953V310.371H69.8021V301.996Z" fill="#B5B5B5" stroke="#263238" stroke-width="0.76" stroke-linecap="round" stroke-linejoin="round"/>
<path d="M72.7006 301.996H70.0938V310.371H72.7006V301.996Z" fill="#B5B5B5" stroke="#263238" stroke-width="0.76" stroke-linecap="round" stroke-linejoin="round"/>
<path d="M75.5836 301.996H72.9844V310.371H75.5836V301.996Z" fill="#B5B5B5" stroke="#263238" stroke-width="0.76" stroke-linecap="round" stroke-linejoin="round"/>
<path d="M151.335 287.969H87.0391V292.187H151.335V287.969Z" fill="white" stroke="#263238" stroke-width="0.76" stroke-linecap="round" stroke-linejoin="round"/>
<path d="M151.341 287.969H127.211V292.187H151.341V287.969Z" fill="#BABABA" stroke="#263238" stroke-width="0.76" stroke-linecap="round" stroke-linejoin="round"/>
<path d="M87.043 287.97L63.9998 264.471L41.6406 288.722H44.7642L64.0834 268.126L87.043 292.188V287.97Z" fill="#BABABA" stroke="#263238" stroke-width="0.76" stroke-linecap="round" stroke-linejoin="round"/>
<path d="M202.589 336.448H175.047V339.07H202.589V336.448Z" fill="white" stroke="#263238" stroke-width="0.76" stroke-linecap="round" stroke-linejoin="round"/>
<path d="M222.968 231.08H127.656V233.717H222.968V231.08Z" fill="#BABABA" stroke="#263238" stroke-width="0.76" stroke-linecap="round" stroke-linejoin="round"/>
<path d="M117.143 312.903H113.981C112.991 312.903 112.188 313.706 112.188 314.697V315.328C112.188 316.318 112.991 317.121 113.981 317.121H117.143C118.133 317.121 118.936 316.318 118.936 315.328V314.697C118.936 313.706 118.133 312.903 117.143 312.903Z" fill="#263238" stroke="#263238" stroke-width="0.76" stroke-linecap="round" stroke-linejoin="round"/>
<path d="M135.477 302.49H163.11L177.178 312.902L201.369 317.12V329.782H93.0611L84.9062 326.126V321.338L118.665 314.308L133.067 303.303C133.76 302.776 134.606 302.491 135.477 302.49Z" fill="#4F18A2" stroke="#263238" stroke-width="0.76" stroke-linecap="round" stroke-linejoin="round"/>
<path d="M140.324 314.308H118.383L132.785 303.303C133.477 302.776 134.324 302.491 135.194 302.49H155.798L140.324 314.308Z" fill="white" stroke="#263238" stroke-width="0.76" stroke-linecap="round" stroke-linejoin="round"/>
<path d="M132.307 336.675C135.491 333.49 135.491 328.327 132.307 325.142C129.122 321.957 123.959 321.957 120.774 325.142C117.589 328.327 117.589 333.49 120.774 336.675C123.959 339.859 129.122 339.859 132.307 336.675Z" fill="white" stroke="#263238" stroke-width="0.76" stroke-linecap="round" stroke-linejoin="round"/>
<path d="M132.189 338.424C136.355 336.711 138.343 331.946 136.631 327.781C134.918 323.615 130.153 321.627 125.988 323.339C121.822 325.052 119.834 329.817 121.546 333.983C123.259 338.148 128.024 340.136 132.189 338.424Z" fill="#263238" stroke="#263238" stroke-width="0.76" stroke-linecap="round" stroke-linejoin="round"/>
<path d="M133.288 330.911C133.288 331.746 133.04 332.561 132.577 333.255C132.113 333.948 131.454 334.489 130.684 334.808C129.913 335.128 129.065 335.211 128.247 335.048C127.428 334.886 126.677 334.484 126.087 333.894C125.497 333.304 125.095 332.552 124.933 331.734C124.77 330.916 124.853 330.068 125.173 329.297C125.492 328.526 126.033 327.868 126.726 327.404C127.42 326.941 128.235 326.693 129.07 326.693C129.624 326.692 130.173 326.801 130.685 327.012C131.197 327.224 131.663 327.535 132.054 327.927C132.446 328.318 132.757 328.784 132.969 329.296C133.18 329.808 133.289 330.357 133.288 330.911Z" fill="white" stroke="#263238" stroke-width="0.76" stroke-linecap="round" stroke-linejoin="round"/>
<path d="M107.973 322.756C107.548 322.757 107.124 322.792 106.704 322.862C106.287 322.792 105.865 322.756 105.443 322.756C104.35 322.722 103.262 322.909 102.243 323.304C101.224 323.699 100.295 324.294 99.5107 325.055C98.7262 325.816 98.1025 326.727 97.6766 327.733C97.2507 328.74 97.0313 329.821 97.0312 330.914C97.0313 332.007 97.2507 333.089 97.6766 334.095C98.1025 335.102 98.7262 336.013 99.5107 336.773C100.295 337.534 101.224 338.13 102.243 338.525C103.262 338.92 104.35 339.106 105.443 339.073C105.866 339.07 106.288 339.032 106.704 338.959C107.124 339.031 107.548 339.07 107.973 339.073C110.094 339.008 112.106 338.12 113.584 336.597C115.061 335.074 115.887 333.036 115.887 330.914C115.887 328.793 115.061 326.754 113.584 325.231C112.106 323.708 110.094 322.82 107.973 322.756Z" fill="#263238" stroke="#263238" stroke-width="0.76" stroke-linecap="round" stroke-linejoin="round"/>
<path d="M170.147 322.752C169.722 322.752 169.297 322.788 168.878 322.858C168.458 322.788 168.034 322.752 167.609 322.752C165.488 322.817 163.476 323.705 161.999 325.228C160.521 326.751 159.695 328.789 159.695 330.911C159.695 333.032 160.521 335.071 161.999 336.594C163.476 338.116 165.488 339.004 167.609 339.069C168.034 339.066 168.459 339.028 168.878 338.955C169.297 339.028 169.722 339.066 170.147 339.069C172.268 339.004 174.28 338.116 175.757 336.594C177.234 335.071 178.06 333.032 178.06 330.911C178.06 328.789 177.234 326.751 175.757 325.228C174.28 323.705 172.268 322.817 170.147 322.752Z" fill="#263238" stroke="#263238" stroke-width="0.76" stroke-linecap="round" stroke-linejoin="round"/>
<path d="M195.252 332.819C196.292 328.437 193.582 324.041 189.2 323.001C184.818 321.961 180.423 324.671 179.383 329.053C178.343 333.435 181.052 337.83 185.434 338.87C189.816 339.91 194.212 337.201 195.252 332.819Z" fill="white" stroke="#263238" stroke-width="0.76" stroke-linecap="round" stroke-linejoin="round"/>
<path d="M192.955 338.424C197.121 336.711 199.109 331.946 197.396 327.781C195.684 323.615 190.919 321.627 186.753 323.339C182.588 325.052 180.599 329.817 182.312 333.983C184.025 338.148 188.79 340.136 192.955 338.424Z" fill="#263238" stroke="#263238" stroke-width="0.76" stroke-linecap="round" stroke-linejoin="round"/>
<path d="M194.053 330.911C194.054 331.748 193.808 332.566 193.344 333.262C192.88 333.958 192.22 334.501 191.448 334.821C190.675 335.142 189.825 335.227 189.005 335.064C188.184 334.901 187.431 334.498 186.839 333.907C186.248 333.315 185.845 332.562 185.682 331.741C185.52 330.921 185.604 330.071 185.925 329.298C186.245 328.526 186.788 327.866 187.484 327.402C188.18 326.939 188.998 326.692 189.835 326.693C190.389 326.693 190.937 326.802 191.449 327.014C191.961 327.226 192.426 327.537 192.817 327.929C193.209 328.32 193.52 328.785 193.732 329.297C193.944 329.809 194.053 330.357 194.053 330.911Z" fill="white" stroke="#263238" stroke-width="0.76" stroke-linecap="round" stroke-linejoin="round"/>
<path d="M198.834 312.902L186.385 303.683C185.336 302.907 184.065 302.489 182.76 302.49H155.795L140.322 314.308L106.562 321.338V326.126L114.717 329.782H120.197C120.111 329.364 120.068 328.939 120.068 328.513V328.231C120.078 326.626 120.723 325.089 121.862 323.957C123.001 322.825 124.542 322.189 126.148 322.189H132.342C133.948 322.189 135.488 322.825 136.628 323.957C137.767 325.089 138.412 326.626 138.422 328.231V328.513C138.422 328.953 138.369 329.371 138.285 332.875H180.822C180.739 329.371 180.693 328.953 180.693 328.513V328.231C180.703 326.632 181.343 325.101 182.474 323.97C183.605 322.839 185.136 322.199 186.735 322.189H192.929C194.535 322.189 196.076 322.825 197.215 323.957C198.354 325.089 198.999 326.626 199.009 328.231V328.513C199.006 328.939 198.961 329.364 198.872 329.782H207.87V320.388C207.87 319.412 207.592 318.456 207.069 317.633C206.545 316.809 205.798 316.151 204.914 315.737L198.834 312.902Z" fill="#4F18A2" stroke="#263238" stroke-width="0.76" stroke-linecap="round" stroke-linejoin="round"/>
<path d="M169.015 304.465H156.452L143.555 314.307H169.015V304.465Z" fill="white" stroke="#263238" stroke-width="0.76" stroke-linecap="round" stroke-linejoin="round"/>
<path d="M171.125 304.465H181.355C182.689 304.464 183.987 304.902 185.048 305.711L196.327 314.307H171.125V304.465Z" fill="white" stroke="#263238" stroke-width="0.76" stroke-linecap="round" stroke-linejoin="round"/>
<path d="M106.566 321.334H84.9062V326.114H106.566V321.334Z" fill="white" stroke="#263238" stroke-width="0.76" stroke-linecap="round" stroke-linejoin="round"/>
<path d="M209.522 326.968H202.492V330.905H209.522V326.968Z" fill="#263238" stroke="#263238" stroke-width="0.76" stroke-linecap="round" stroke-linejoin="round"/>
<path d="M114.166 326.129H84.0625V330.909H114.166V326.129Z" fill="#263238" stroke="#263238" stroke-width="0.76" stroke-linecap="round" stroke-linejoin="round"/>
<path d="M149.213 312.903H146.051C145.061 312.903 144.258 313.706 144.258 314.697V315.328C144.258 316.318 145.061 317.121 146.051 317.121H149.213C150.204 317.121 151.007 316.318 151.007 315.328V314.697C151.007 313.706 150.204 312.903 149.213 312.903Z" fill="#263238" stroke="#263238" stroke-width="0.76" stroke-linecap="round" stroke-linejoin="round"/>
<path d="M105.437 321.624H100.375V325.561H105.437V321.624Z" fill="white" stroke="#263238" stroke-width="0.76" stroke-linecap="round" stroke-linejoin="round"/>
<path d="M90.8116 321.624H85.75V325.561H90.8116V321.624Z" fill="white" stroke="#263238" stroke-width="0.76" stroke-linecap="round" stroke-linejoin="round"/>
<path d="M90.8125 323.034H100.092" stroke="#263238" stroke-width="0.76" stroke-linecap="round" stroke-linejoin="round"/>
<path d="M90.8125 324.474H100.092" stroke="#263238" stroke-width="0.76" stroke-linecap="round" stroke-linejoin="round"/>
<path d="M141.656 328.088H178.562" stroke="#263238" stroke-width="1.52" stroke-linecap="round" stroke-linejoin="round"/>
<path d="M169.865 303.44V330.724H140.985V327.479C140.984 325.554 140.422 323.67 139.366 322.06L138.477 320.708L143.485 316.224" stroke="#263238" stroke-width="0.76" stroke-linecap="round" stroke-linejoin="round"/>
<path d="M196.617 314.885V321.079H185.688C184.239 321.08 182.85 321.657 181.827 322.682L181.204 323.306C180.181 324.33 179.607 325.719 179.608 327.166V330.434H171.445" stroke="#263238" stroke-width="0.76" stroke-linecap="round" stroke-linejoin="round"/>
<path d="M168.974 317.282H165.547V319.243H168.974V317.282Z" fill="#263238" stroke="#263238" stroke-width="0.76" stroke-linecap="round" stroke-linejoin="round"/>
<path d="M195.568 317.282H192.141V319.243H195.568V317.282Z" fill="#263238" stroke="#263238" stroke-width="0.76" stroke-linecap="round" stroke-linejoin="round"/>
<path d="M310.928 338.92C310.928 338.92 304.377 332.369 306.216 327.383C308.055 322.398 313.056 329.747 313.056 329.747C313.056 329.747 313.581 318.21 317.251 318.21C320.922 318.21 320.139 327.908 320.139 327.908C320.139 327.908 322.229 325.286 324.593 326.859C326.957 328.432 324.851 336.556 324.851 336.556C324.851 336.556 326.425 329.481 329.837 329.481C333.249 329.481 330.095 338.654 330.095 338.654" fill="#4F18A2"/>
<path d="M309.359 338.654C309.359 338.654 305.164 332.893 306.471 331.814C307.778 330.735 309.618 333.912 309.618 333.912C309.618 333.912 308.31 326.312 312.498 326.046C316.686 325.78 315.12 335.219 315.12 335.219C315.12 335.219 317.218 329.45 319.315 331.024C321.413 332.597 320.63 337.316 320.63 337.316C320.63 337.316 320.888 333.387 323.51 333.387C326.132 333.387 327.706 336.526 327.706 336.526C327.706 336.526 330.062 332.597 331.901 333.912C333.74 335.226 331.901 338.89 331.901 338.89" stroke="#263238" stroke-width="0.76" stroke-linecap="round" stroke-linejoin="round"/>
<path d="M227.886 338.92C227.886 338.92 223.242 334.276 224.542 330.75C225.842 327.223 229.368 332.422 229.368 332.422C229.368 332.422 229.74 324.244 232.34 324.244C234.939 324.244 234.384 331.122 234.384 331.122C234.384 331.122 235.904 329.26 237.546 330.362C239.187 331.464 237.728 337.202 237.728 337.202C237.728 337.202 238.845 332.186 241.254 332.186C243.664 332.186 241.444 338.684 241.444 338.684" fill="#4F18A2"/>
<path d="M226.773 338.728C226.773 338.728 223.802 334.647 224.737 333.902C225.671 333.157 226.963 335.422 226.963 335.422C226.963 335.422 226.036 330.034 229.008 329.851C231.979 329.669 230.862 336.349 230.862 336.349C230.862 336.349 232.344 332.261 233.834 333.378C235.323 334.495 234.761 337.831 234.761 337.831C234.761 337.831 234.951 335.05 236.805 335.05C238.66 335.05 239.777 337.277 239.777 337.277C239.777 337.277 241.449 334.487 242.749 335.422C244.048 336.357 242.749 338.949 242.749 338.949" stroke="#263238" stroke-width="0.76" stroke-linecap="round" stroke-linejoin="round"/>
<path d="M27.3922 338.921C27.3922 338.921 22.5282 334.057 23.8886 330.355C25.249 326.654 28.9502 332.103 28.9502 332.103C28.9502 332.103 29.3454 323.546 32.0662 323.546C34.787 323.546 34.2094 330.743 34.2094 330.743C34.2094 330.743 35.7294 328.797 37.5154 329.983C39.3014 331.169 37.713 337.18 37.713 337.18C37.713 337.18 38.8758 331.929 41.4066 331.929C43.9374 331.929 41.6042 338.769 41.6042 338.769" fill="#4F18A2"/>
<path d="M26.2298 338.724C26.2298 338.724 23.1138 334.446 24.0866 333.663C25.0594 332.88 26.4198 335.221 26.4198 335.221C26.4198 335.221 25.447 329.582 28.563 329.384C31.679 329.186 30.5086 336.224 30.5086 336.224C30.5086 336.224 32.0286 331.945 33.6246 333.108C35.2206 334.271 34.5974 337.782 34.5974 337.782C34.5974 337.782 34.795 334.864 36.7406 334.864C38.6862 334.864 39.8566 337.197 39.8566 337.197C39.8566 337.197 41.6046 334.278 42.965 335.251C44.3254 336.224 42.965 338.952 42.965 338.952" stroke="#263238" stroke-width="0.76" stroke-linecap="round" stroke-linejoin="round"/>
<path d="M22.2891 339.076H334.649" stroke="#263238" stroke-width="0.76" stroke-linecap="round" stroke-linejoin="round"/>
</svg>
