<svg width="354" height="354" viewBox="0 0 354 354" fill="none" xmlns="http://www.w3.org/2000/svg">
<path d="M29.4013 279.46C26.8691 277.874 24.0073 276.888 21.0352 276.579C19.6656 276.445 18.2112 276.48 17.0746 277.285C16.9494 277.355 16.8457 277.458 16.7747 277.582C16.7038 277.707 16.6683 277.848 16.6722 277.991C16.7342 278.197 16.8699 278.373 17.0534 278.486C18.8325 279.749 20.9222 280.503 23.0979 280.667C25.2736 280.831 27.4528 280.399 29.4013 279.417" fill="#E0E0E0"/>
<path d="M29.1894 279.229C27.2501 277.805 25.4404 276.212 23.7814 274.47C22.1192 272.718 20.9501 270.558 20.3926 268.208C20.2811 267.856 20.2473 267.485 20.2936 267.119C20.3399 266.754 20.4652 266.402 20.6609 266.09C24.9675 269.45 28.3563 273.806 29.1894 279.207" fill="#E0E0E0"/>
<path d="M29.3564 279.432C28.9547 277.08 28.9882 274.675 29.4553 272.336C29.9389 269.98 31.2862 267.89 33.2324 266.477C33.9807 268.22 33.656 270.225 33.1335 272.04C32.3186 274.856 31.0525 277.522 29.3847 279.933" fill="#E0E0E0"/>
<path d="M33.5867 287C31.052 287.406 28.7072 288.593 26.8797 290.396C24.9522 292.144 23.611 294.444 23.0391 296.983C25.5524 296.828 27.6845 295.055 29.2307 293.065C30.7768 291.074 31.8499 288.892 33.5514 287.035" fill="#E0E0E0"/>
<path d="M34.4953 288.204C33.4856 285.643 33.1318 282.87 33.4659 280.138C33.8001 277.406 34.8116 274.801 36.4086 272.559C37.863 277.748 37.3264 283.622 34.4953 288.211" fill="#E0E0E0"/>
<path d="M40.0738 294.846C37.7312 294.705 35.3985 295.253 33.3644 296.424C31.3304 297.595 29.6842 299.336 28.6296 301.433C28.5385 301.562 28.4839 301.714 28.4715 301.872C28.4591 302.029 28.4893 302.188 28.559 302.33C28.6575 302.425 28.7776 302.496 28.9091 302.535C29.0405 302.574 29.1796 302.581 29.3144 302.555C31.5665 302.407 33.5504 301.052 35.2165 299.506C36.8827 297.959 38.3018 296.173 40.1585 294.839" fill="#E0E0E0"/>
<path d="M39.9043 294.486C38.7022 290.62 38.6287 286.49 39.6925 282.583C40.109 281.051 40.815 279.434 42.2341 278.714C42.2913 278.678 42.3552 278.654 42.4218 278.643C42.4885 278.632 42.5567 278.635 42.6224 278.651C42.7387 278.709 42.8274 278.81 42.8695 278.933C43.3451 280.006 43.5488 281.18 43.4625 282.35C43.3816 283.514 43.2045 284.668 42.933 285.802C42.4812 287.92 42.227 290.187 41.0904 292.008C40.8278 292.45 40.592 292.908 40.3844 293.378C40.1655 293.837 40.1655 293.999 39.9608 294.366" fill="#E0E0E0"/>
<path d="M54.6729 296.687C54.1775 294.515 54.1614 292.261 54.626 290.082C55.0905 287.903 56.0245 285.852 57.3628 284.07C57.5534 283.816 57.8146 283.548 58.1253 283.576C58.6124 283.626 58.7324 284.282 58.7113 284.748C58.5195 289.029 57.1194 293.168 54.6729 296.687Z" fill="#E0E0E0"/>
<path d="M56.0078 297.599C58.59 298.21 61.2742 298.253 63.8744 297.724C66.4746 297.195 68.9288 296.107 71.0668 294.535C68.5465 293.267 65.6638 292.915 62.9125 293.54C60.1873 294.161 57.7022 295.382 56.0078 297.599Z" fill="#E0E0E0"/>
<path d="M57.125 294.829C58.6189 292.527 60.6357 290.611 63.0111 289.237C65.3864 287.863 68.0529 287.069 70.7932 286.922C70.425 288.007 69.8386 289.005 69.07 289.855C68.3014 290.705 67.367 291.389 66.3242 291.864C64.2352 292.805 62.0254 293.452 59.7584 293.784C58.8829 293.954 57.6898 294.144 57.125 294.829Z" fill="#E0E0E0"/>
<path d="M54.9533 281.377C55.8096 278.775 56.394 276.092 56.6971 273.371C56.9984 270.629 56.4435 267.862 55.1086 265.449C53.7603 267.929 53.0346 270.699 52.994 273.522C52.9534 276.344 53.5991 279.134 54.8756 281.652" fill="#E0E0E0"/>
<path d="M63.8594 276.875C66.9587 271.227 73.2704 266.765 79.6526 266.137C77.1887 272.272 70.4746 277.009 63.8594 276.875Z" fill="#E0E0E0"/>
<path d="M61.9141 277.977C66.5242 278.683 70.4567 281.627 74.7703 283.413C75.6709 283.853 76.6724 284.046 77.672 283.971C78.1711 283.928 78.6462 283.738 79.0362 283.423C79.4261 283.109 79.7132 282.685 79.8606 282.206C79.9273 281.796 79.8927 281.376 79.7598 280.982C79.6269 280.588 79.3998 280.233 79.0981 279.947C78.4862 279.381 77.7655 278.947 76.9801 278.669C72.2852 276.713 67.2514 276.664 62.3024 277.85" fill="#E0E0E0"/>
<path d="M59.2422 281.218C60.28 281.515 60.6542 282.059 61.4661 282.765C64.2885 285.16 67.6247 286.872 71.2159 287.77C71.5901 287.862 72.0773 287.897 72.2608 287.565C72.4444 287.234 72.2185 286.916 72.0137 286.648C70.4426 284.814 68.4097 283.435 66.1257 282.652C63.8735 281.818 61.8897 280.809 59.2422 281.021" fill="#E0E0E0"/>
<path d="M56.2321 261.666C58.1207 263.408 60.3522 264.735 62.7837 265.565C65.2152 266.394 67.793 266.706 70.3521 266.481C70.5899 266.486 70.8211 266.403 71.0016 266.248C71.3546 265.867 70.931 265.267 70.5145 264.942C66.3562 261.701 61.3365 260.353 56.2109 261.666" fill="#E0E0E0"/>
<path d="M59.8047 260.364C62.3093 258.523 65.2137 257.299 68.281 256.794C71.3483 256.288 74.4916 256.515 77.4547 257.455C75.1449 259.594 72.1837 260.894 69.0462 261.148C65.9436 261.431 62.8152 261.166 59.8047 260.364Z" fill="#E0E0E0"/>
<path d="M58.3839 251.382C57.9745 247.231 58.2357 243.955 57.9533 239.783C57.9533 239.451 57.8544 239.077 57.5438 238.928C57.1131 238.766 56.746 239.296 56.6048 239.74C56.0009 241.673 55.8466 243.719 56.1538 245.721C56.4609 247.722 57.2213 249.627 58.3769 251.29" fill="#E0E0E0"/>
<path d="M58.0781 251.837C60.8057 250.092 63.1559 247.819 64.9899 245.151C66.3524 243.294 67.4962 241.07 67.1855 238.797C66.2319 238.822 65.2953 239.056 64.4416 239.481C63.5879 239.907 62.8376 240.514 62.2435 241.261C61.0559 242.762 60.1929 244.492 59.709 246.344C59.1583 248.173 58.7771 250.051 58.1275 251.844" fill="#E0E0E0"/>
<path d="M64.837 249.967C71.0357 247.681 76.7744 244.302 81.781 239.991C79.7618 239.18 77.4461 239.667 75.427 240.479C70.8387 242.216 67.0478 245.578 64.7734 249.925" fill="#E0E0E0"/>
<path d="M59.9766 254.113C63.0921 254.558 66.254 254.572 69.3734 254.156C72.4023 253.529 75.3475 252.551 78.149 251.24C78.3964 251.169 78.6082 251.008 78.742 250.788C78.7839 250.656 78.7861 250.515 78.7485 250.382C78.7108 250.249 78.6349 250.13 78.5302 250.04C78.3101 249.868 78.0545 249.747 77.7819 249.687C74.635 248.928 71.3332 249.127 68.3003 250.259C65.3986 251.249 62.6087 252.541 59.9766 254.113Z" fill="#E0E0E0"/>
<path d="M42.1451 261.819C41.1399 259.669 40.606 257.329 40.5792 254.955C40.5524 252.582 41.0334 250.231 41.9898 248.059C43.2888 250.035 43.4442 252.549 43.2112 254.9C42.9782 257.251 42.2581 259.665 42.2087 262.03" fill="#E0E0E0"/>
<path d="M33.6284 257.513C30.9593 257.479 28.3124 258.002 25.8569 259.049C23.4013 260.096 21.191 261.643 19.3672 263.592C22.0566 263.914 24.7803 263.409 27.1755 262.145C29.5508 260.878 31.793 259.376 33.8684 257.662" fill="#E0E0E0"/>
<path d="M27.9062 255.617C25.301 255.405 22.8018 255.087 20.2955 255.85C19.0306 256.21 17.8578 256.837 16.8565 257.69C15.8553 258.542 15.049 259.6 14.4922 260.792C16.9492 260.989 19.4143 260.524 21.6298 259.443C23.8324 258.359 25.933 257.078 27.9062 255.617Z" fill="#E0E0E0"/>
<path d="M36.3832 255.69C34.0392 254.151 31.6318 252.591 28.9066 251.956C26.1815 251.32 23.0186 251.786 21.1406 253.841C23.3504 255.14 26.0261 255.295 28.5819 255.288C31.1376 255.281 34.2793 255.288 36.6938 256.114" fill="#E0E0E0"/>
<path d="M36.3997 255.814C32.3896 251.882 30.8717 244.822 32.4884 239.449C35.6456 244.288 37.0278 250.071 36.3997 255.814Z" fill="#E0E0E0"/>
<path d="M47.4062 244.673C48.1617 242.922 48.6912 241.079 49.3689 239.293C49.9959 237.485 50.9535 235.809 52.1929 234.351C53.4407 232.881 55.2149 231.958 57.1349 231.781C56.5195 234.489 55.3457 237.039 53.6888 239.267C52.0318 241.495 49.9281 243.353 47.5122 244.722" fill="#E0E0E0"/>
<path d="M45.4117 246.999C44.1621 245.276 42.7148 242.946 41.0204 241.661C40.2005 240.981 39.2419 240.487 38.2115 240.215C37.1811 239.943 36.1037 239.899 35.0547 240.087C36.1261 241.963 37.6199 243.564 39.4176 244.763C41.2154 245.961 43.2677 246.724 45.4117 246.992" fill="#E0E0E0"/>
<path d="M45.8076 244.82C44.9105 242.769 44.2473 240.623 43.8307 238.423C43.4201 236.203 43.7734 233.908 44.8333 231.914C47.0289 236.072 47.742 240.527 45.9205 244.862" fill="#E0E0E0"/>
<path d="M47.4297 231.919C48.6722 227.803 52.4423 224.774 56.5159 223.383C57.018 223.175 57.5633 223.093 58.1044 223.143C58.3737 223.175 58.6282 223.284 58.8373 223.457C59.0463 223.63 59.2012 223.859 59.2834 224.118C59.4317 224.824 58.8528 225.452 58.3091 225.918C55.1268 228.635 51.4254 230.676 47.4297 231.919Z" fill="#E0E0E0"/>
<path d="M47.469 228.549C47.5075 225.885 47.9065 223.24 48.6551 220.684C49.5235 218.17 51.1826 215.812 53.5971 214.711C54.0137 217.394 52.8276 220.062 51.4015 222.364C49.9753 224.666 48.2527 226.854 47.3984 229.424" fill="#E0E0E0"/>
<path d="M47.4036 230.379C46.3729 227.379 46.267 223.566 44.4667 220.954C43.217 219.125 41.2049 217.883 40.1177 215.941C39.4664 217.8 39.5574 219.839 40.3719 221.632C41.1916 223.401 42.3173 225.012 43.6971 226.39C45.0244 227.802 46.1681 228.875 47.4036 230.379Z" fill="#E0E0E0"/>
<path d="M47.4293 318.768C47.3446 318.768 47.281 298.746 47.274 274.05C47.2669 249.354 47.3305 229.332 47.4081 229.332C47.4858 229.332 47.5564 249.347 47.5634 274.05C47.5705 298.753 47.507 318.768 47.4293 318.768Z" fill="#E0E0E0"/>
<path d="M64.919 258.793C64.6745 258.905 64.422 259 64.1636 259.075L62.095 259.781C60.3442 260.374 57.9508 261.236 55.3457 262.302C52.7405 263.368 50.3331 264.307 48.9493 265.507C48.3973 265.969 47.9579 266.551 47.6644 267.208C47.4667 267.674 47.4314 267.964 47.4032 267.957C47.3749 267.95 47.4032 267.886 47.4032 267.752C47.4322 267.552 47.4819 267.356 47.5514 267.166C47.8152 266.467 48.2468 265.844 48.8081 265.352C49.6407 264.642 50.5732 264.06 51.5756 263.622C52.6841 263.107 53.9125 262.563 55.2186 262.026C57.8308 260.96 60.2524 260.12 62.0174 259.577C62.8999 259.301 63.62 259.097 64.1354 258.962C64.3904 258.88 64.6529 258.824 64.919 258.793Z" fill="#E0E0E0"/>
<path d="M70.6438 244.703C70.5839 244.788 70.5126 244.864 70.432 244.929L69.7896 245.536L67.3962 247.711L59.4255 254.82C56.312 257.595 53.6151 260.242 51.7513 262.24C50.8123 263.236 50.078 264.062 49.5768 264.641L48.9978 265.304C48.9265 265.38 48.8459 265.446 48.7578 265.502C48.802 265.407 48.859 265.319 48.9273 265.241C49.0543 265.085 49.2308 264.845 49.4709 264.535C49.9439 263.935 50.657 263.08 51.5889 262.064C54.0022 259.432 56.552 256.93 59.2278 254.566C62.3554 251.798 65.2006 249.313 67.2691 247.506C68.2787 246.631 69.1118 245.917 69.726 245.388L70.432 244.823C70.4986 244.776 70.5695 244.736 70.6438 244.703Z" fill="#E0E0E0"/>
<path d="M56.0532 257.645C55.9756 257.602 56.6251 256.099 57.2746 254.199C57.9241 252.3 58.2348 250.669 58.3195 250.712C58.2549 251.938 57.9951 253.147 57.5499 254.291C57.2735 255.111 56.9506 255.915 56.5827 256.699C56.4501 257.037 56.2719 257.355 56.0532 257.645Z" fill="#E0E0E0"/>
<path d="M47.4433 269.736C47.2643 269.567 47.1034 269.38 46.9632 269.178L45.7348 267.618C44.7041 266.277 43.2709 264.434 41.6753 262.422C40.0798 260.41 38.5971 258.588 37.5311 257.282L36.2744 255.722C36.1083 255.542 35.9638 255.343 35.8438 255.129C36.0321 255.286 36.2047 255.461 36.3591 255.651C36.6839 255.997 37.1357 256.513 37.6864 257.148C38.7948 258.426 40.2916 260.219 41.9224 262.238C43.5533 264.257 44.93 266.121 45.9184 267.491C46.4196 268.197 46.8079 268.734 47.0762 269.129C47.2227 269.316 47.346 269.52 47.4433 269.736Z" fill="#E0E0E0"/>
<path d="M43.603 264.831C42.8239 263.978 42.2705 262.945 41.9934 261.823C41.6923 260.844 41.5703 259.818 41.6333 258.795H41.7604C41.7039 259.028 41.6615 259.148 41.6333 259.148C41.605 259.148 41.6333 259.013 41.6333 258.773H41.7604C41.8214 259.773 41.9943 260.763 42.2758 261.725C42.6368 262.793 43.0806 263.831 43.603 264.831Z" fill="#E0E0E0"/>
<path d="M38.6548 258.603C38.309 258.341 37.9319 258.123 37.5323 257.954C36.5232 257.654 35.4625 257.57 34.4188 257.707C33.3618 257.786 32.3133 257.954 31.2842 258.208C30.8618 258.343 30.4299 258.447 29.9922 258.519C30.3766 258.289 30.793 258.118 31.2277 258.01C32.2586 257.694 33.322 257.495 34.3976 257.417C35.4806 257.269 36.5833 257.388 37.6099 257.763C38.0472 257.91 38.4178 258.208 38.6548 258.603Z" fill="#E0E0E0"/>
<path d="M37.4542 257.092C37.4542 257.134 36.8047 256.831 35.7386 256.464C34.354 256.011 32.9199 255.726 31.4673 255.616C30.0045 255.512 28.5344 255.588 27.0901 255.842C25.9817 256.04 25.311 256.245 25.2969 256.202C25.4369 256.11 25.5923 256.043 25.7558 256.005C26.1804 255.854 26.6143 255.732 27.0548 255.638C29.9807 255.004 33.0278 255.237 35.8233 256.308C36.2443 256.468 36.6547 256.654 37.0518 256.866C37.1942 256.926 37.3292 257.001 37.4542 257.092Z" fill="#E0E0E0"/>
<path d="M47.4028 250.708C46.8908 249.285 46.4711 247.83 46.1462 246.352C45.7285 244.899 45.4031 243.42 45.1719 241.926C45.6851 243.349 46.1049 244.804 46.4286 246.282C46.847 247.735 47.1724 249.214 47.4028 250.708Z" fill="#E0E0E0"/>
<path d="M47.4836 250.711C47.0772 249.807 46.6053 248.934 46.0716 248.098C45.4818 247.311 44.7964 246.599 44.0312 245.98C44.3204 246.055 44.5885 246.195 44.8149 246.39C45.3975 246.814 45.9036 247.335 46.3116 247.929C46.9414 248.736 47.3458 249.696 47.4836 250.711Z" fill="#E0E0E0"/>
<path d="M47.4308 308.096C47.3955 308.096 47.339 307.616 47.1131 306.762C46.78 305.566 46.3307 304.405 45.7717 303.296C43.8467 299.672 41.4619 296.312 38.6764 293.299C37.095 291.484 35.5559 289.769 34.2498 288.145C33.0911 286.702 32.0409 285.175 31.1081 283.577C30.4807 282.495 29.9469 281.361 29.5125 280.188C29.3643 279.772 29.2584 279.44 29.2019 279.221C29.164 279.108 29.1357 278.992 29.1172 278.875C29.1172 278.875 29.2866 279.327 29.6184 280.146C30.0913 281.294 30.6482 282.405 31.2846 283.471C32.2415 285.047 33.3103 286.552 34.4828 287.975C35.7959 289.592 37.3068 291.294 38.9235 293.108C41.7247 296.139 44.0998 299.538 45.9835 303.211C46.5298 304.338 46.9512 305.522 47.2402 306.741C47.339 307.179 47.3955 307.517 47.4238 307.75C47.4368 307.865 47.4392 307.981 47.4308 308.096Z" fill="#E0E0E0"/>
<path d="M63.2322 290.207C62.9679 290.381 62.6919 290.537 62.4062 290.673C61.6695 291.096 60.9619 291.568 60.2882 292.085C59.2819 292.87 58.3377 293.731 57.4642 294.662C56.4687 295.707 55.4521 296.921 54.4072 298.192C52.2892 300.804 50.376 303.134 49.2111 304.962C48.618 305.88 48.1874 306.65 47.905 307.193C47.7713 307.48 47.6204 307.758 47.4531 308.026C47.4531 308.026 47.4531 307.942 47.5308 307.786C47.6084 307.631 47.672 307.419 47.8061 307.144C48.1688 306.354 48.5815 305.587 49.0416 304.849C50.6244 302.474 52.3404 300.19 54.1813 298.008C55.2262 296.702 56.2569 295.488 57.2665 294.443C58.1591 293.513 59.1273 292.658 60.1611 291.887C60.8592 291.372 61.6009 290.918 62.378 290.532C62.6533 290.398 62.8792 290.313 63.0275 290.249C63.094 290.228 63.1627 290.214 63.2322 290.207Z" fill="#E0E0E0"/>
<path d="M63.5773 296.03C63.0002 296.155 62.4152 296.24 61.8264 296.284C60.4203 296.428 59.0306 296.702 57.6752 297.103C56.3334 297.537 55.0752 298.195 53.9545 299.051C53.0932 299.715 52.6908 300.266 52.6484 300.23C52.7119 300.082 52.8003 299.946 52.9097 299.828C53.1824 299.489 53.4874 299.177 53.8204 298.896C54.9309 297.972 56.2083 297.27 57.5834 296.827C58.9626 296.419 60.3837 296.168 61.8194 296.079C62.4028 296.011 62.991 295.994 63.5773 296.03Z" fill="#E0E0E0"/>
<path d="M53.1323 299.591C53.0405 299.541 53.8383 298.334 54.4384 296.71C55.0385 295.086 55.1444 293.639 55.2503 293.66C55.311 293.97 55.311 294.289 55.2503 294.599C55.167 295.353 54.9964 296.095 54.7419 296.809C54.4693 297.523 54.1189 298.205 53.6971 298.842C53.5509 299.121 53.3601 299.374 53.1323 299.591Z" fill="#E0E0E0"/>
<path d="M68.357 274.676C68.357 274.676 68.2653 274.739 68.0817 274.824L67.2557 275.198C66.8956 275.354 66.4579 275.551 65.9637 275.812C65.4695 276.074 64.8906 276.328 64.2905 276.688L63.3374 277.231C63.0056 277.422 62.6808 277.648 62.3278 277.867C61.6218 278.298 60.9158 278.82 60.1674 279.357C58.5663 280.569 57.0561 281.898 55.649 283.331C54.2643 284.785 52.9899 286.34 51.8366 287.984C51.3213 288.753 50.82 289.474 50.4246 290.194C50.2199 290.547 50.0081 290.9 49.8245 291.224L49.3162 292.199C48.9773 292.806 48.7302 293.392 48.4973 293.9C48.2643 294.408 48.0666 294.846 47.9254 295.206L47.5795 296.046C47.5476 296.146 47.5025 296.241 47.4453 296.329C47.4453 296.329 47.4453 296.223 47.53 296.025C47.6148 295.828 47.6995 295.517 47.8195 295.171C47.9395 294.825 48.116 294.345 48.3419 293.837C48.5679 293.328 48.8008 292.728 49.1327 292.107L49.6269 291.119C49.8034 290.773 50.0152 290.413 50.2199 290.074C50.6153 289.368 51.1165 288.612 51.6319 287.829C52.779 286.172 54.0537 284.607 55.4443 283.148C56.8603 281.706 58.385 280.374 60.0051 279.166C60.7675 278.629 61.4877 278.107 62.2007 277.69C62.5537 277.472 62.9067 277.253 63.2244 277.062L64.1916 276.533C64.8059 276.18 65.3918 275.932 65.8931 275.685C66.3227 275.474 66.7634 275.285 67.2133 275.121L68.0605 274.796L68.357 274.676Z" fill="#E0E0E0"/>
<path d="M55.8125 283.066C55.9302 282.657 56.1781 282.298 56.5185 282.043C57.2895 281.372 58.2717 280.995 59.2931 280.977C60.2931 280.975 61.2837 281.169 62.2089 281.548C62.6031 281.671 62.9768 281.852 63.3173 282.085C62.9248 282.002 62.5399 281.886 62.1665 281.739C61.257 281.429 60.3033 281.27 59.3425 281.266C58.3835 281.288 57.4564 281.615 56.695 282.198C56.3796 282.465 56.0846 282.755 55.8125 283.066Z" fill="#E0E0E0"/>
<path d="M53.9766 284.995C54.3493 284.183 54.6151 283.326 54.7673 282.446C54.8206 281.553 54.7613 280.656 54.5908 279.777C54.7548 279.996 54.8659 280.25 54.9155 280.519C55.0831 281.159 55.1286 281.824 55.0497 282.481C54.9754 283.139 54.7765 283.776 54.4637 284.359C54.2237 284.79 54.0048 285.016 53.9766 284.995Z" fill="#E0E0E0"/>
<path d="M33.5938 310.957C34.0244 318.61 36.333 326.39 39.8772 334.255H55.3032C58.685 326.489 60.8312 318.723 61.2125 310.957H33.5938Z" fill="#E0E0E0"/>
<path d="M58.7165 323.347C58.7165 323.425 53.6333 323.489 47.3711 323.489C41.1089 323.489 36.0469 323.397 36.0469 323.347C36.0469 323.298 41.123 323.199 47.3852 323.199C53.6475 323.199 58.7165 323.27 58.7165 323.347Z" fill="#FAFAFA"/>
<path d="M58.3741 326.114C58.3741 326.199 53.6157 326.262 47.7417 326.262C41.8678 326.262 37.1094 326.22 37.1094 326.114C37.1094 326.008 41.8678 325.973 47.7417 325.973C53.6157 325.973 58.3741 326.036 58.3741 326.114Z" fill="#FAFAFA"/>
<path d="M40.1256 315.988C40.3232 318.352 40.3232 320.727 40.1256 323.091C39.9373 320.727 39.9373 318.352 40.1256 315.988Z" fill="#FAFAFA"/>
<path d="M48.3905 315.988C48.5786 318.437 48.5786 320.896 48.3905 323.345C48.1928 320.897 48.1928 318.436 48.3905 315.988Z" fill="#FAFAFA"/>
<path d="M56.149 315.922C56.3467 318.42 56.3467 320.929 56.149 323.427C55.9607 320.929 55.9607 318.42 56.149 315.922Z" fill="#FAFAFA"/>
<path d="M60.7583 315.988C60.7583 316.066 54.8068 316.129 47.4573 316.129C40.1078 316.129 34.1562 316.066 34.1562 315.988C34.1562 315.91 40.1149 315.84 47.4573 315.84C54.7997 315.84 60.7583 315.903 60.7583 315.988Z" fill="#FAFAFA"/>
<path d="M317.792 274.93C317.756 274.93 317.721 274.394 317.53 273.447C317.283 272.109 316.888 270.802 316.351 269.55C315.576 267.691 314.43 266.01 312.984 264.608C311.228 262.866 308.857 261.885 306.384 261.877C303.911 261.869 301.534 262.835 299.767 264.566C298.311 265.964 297.157 267.646 296.379 269.508C295.833 270.755 295.431 272.06 295.178 273.398C294.988 274.344 294.952 274.881 294.91 274.874C294.895 274.745 294.895 274.614 294.91 274.485C294.91 274.231 294.959 273.857 295.03 273.377C295.234 272.014 295.604 270.682 296.131 269.409C296.897 267.499 298.054 265.77 299.527 264.333C300.428 263.438 301.497 262.729 302.672 262.247C303.847 261.765 305.105 261.519 306.375 261.524C307.645 261.528 308.902 261.783 310.073 262.273C311.245 262.764 312.308 263.481 313.203 264.382C314.673 265.82 315.823 267.553 316.577 269.466C317.104 270.74 317.47 272.075 317.664 273.44C317.724 273.807 317.764 274.177 317.784 274.549C317.804 274.675 317.806 274.803 317.792 274.93Z" fill="#E0E0E0"/>
<path d="M321.74 274.93C321.705 274.93 321.663 274.394 321.479 273.447C321.232 272.109 320.836 270.802 320.3 269.55C319.521 267.692 318.373 266.01 316.925 264.608C315.17 262.866 312.799 261.885 310.326 261.877C307.853 261.869 305.476 262.835 303.709 264.566C302.255 265.965 301.102 267.647 300.32 269.508C299.78 270.757 299.38 272.061 299.127 273.398C298.937 274.344 298.894 274.881 298.859 274.874C298.839 274.745 298.839 274.614 298.859 274.485C298.879 274.114 298.919 273.744 298.979 273.377C299.179 272.014 299.549 270.681 300.08 269.409C300.846 267.499 302.003 265.77 303.476 264.333C304.377 263.438 305.445 262.729 306.62 262.247C307.795 261.765 309.054 261.519 310.324 261.524C311.594 261.528 312.851 261.783 314.022 262.273C315.194 262.764 316.257 263.481 317.151 264.382C318.619 265.822 319.769 267.554 320.526 269.466C321.046 270.742 321.411 272.077 321.613 273.44C321.671 273.807 321.709 274.178 321.726 274.549C321.749 274.675 321.754 274.803 321.74 274.93Z" fill="#E0E0E0"/>
<path d="M283.609 273.515L328.228 273.176L329.202 333.998H279.133L283.609 273.515Z" fill="#EBEBEB"/>
<path d="M328.227 273.176H333.832L338.654 333.998H329.201L328.227 273.176Z" fill="#E0E0E0"/>
<path d="M318.769 297.125H289.555V302.018H318.769V297.125Z" fill="white"/>
<path d="M69.8464 41.8398H18.9297V126.122H69.8464V41.8398Z" fill="#E0E0E0"/>
<path d="M68.1589 41.8398H17.2422V126.122H68.1589V41.8398Z" fill="#EBEBEB"/>
<path d="M65.9881 43.5508H19.4062V124.416H65.9881V43.5508Z" fill="white"/>
<path d="M56.9159 54.0508H28.2734V113.898H56.9159V54.0508Z" fill="#EBEBEB"/>
<path d="M28.2818 92.7243C28.2183 87.1328 33.2238 81.6754 38.7801 80.8917C41.4205 80.5246 44.2233 81.0471 46.6943 80.0375C51.0927 78.2301 52.4976 72.3774 56.9243 70.6406L57.129 113.904H28.2818V92.7243Z" fill="#E0E0E0"/>
<path d="M334.002 92.832H291.656V136.978H334.002V92.832Z" fill="#E0E0E0"/>
<path d="M331.135 92.832H288.789V136.978H331.135V92.832Z" fill="#F5F5F5"/>
<path d="M331.157 137.009H288.797V92.8203H331.157V137.009ZM288.797 137.009H331.157V92.8485H288.797V137.009Z" fill="#E0E0E0"/>
<path d="M325.442 98.7734H294.477V131.052H325.442V98.7734Z" fill="white"/>
<path d="M294.476 131.258C294.259 131.584 294.003 131.883 293.714 132.147C293.219 132.67 292.528 133.376 291.744 134.138C290.96 134.901 290.254 135.593 289.725 136.073C289.457 136.357 289.156 136.609 288.828 136.821C289.047 136.498 289.303 136.202 289.591 135.939C290.085 135.416 290.777 134.71 291.56 133.941C292.344 133.171 293.057 132.486 293.587 131.999C293.853 131.718 294.152 131.469 294.476 131.258Z" fill="#E0E0E0"/>
<path d="M325.445 131.184C325.772 131.401 326.07 131.657 326.335 131.946C326.857 132.44 327.563 133.132 328.326 133.916C329.088 134.699 329.78 135.405 330.267 135.935C330.549 136.204 330.798 136.505 331.009 136.832C330.685 136.613 330.389 136.357 330.126 136.069C329.604 135.575 328.898 134.876 328.128 134.099C327.359 133.323 326.674 132.596 326.187 132.073C325.906 131.806 325.657 131.508 325.445 131.184Z" fill="#E0E0E0"/>
<path d="M325.359 98.8835C325.579 98.5593 325.835 98.2609 326.122 97.9939C326.616 97.4715 327.315 96.7655 328.092 95.9959C328.868 95.2264 329.588 94.5486 330.111 94.0615C330.379 93.7897 330.68 93.5526 331.007 93.3555C330.791 93.678 330.537 93.9742 330.252 94.238C329.758 94.7604 329.059 95.4664 328.275 96.2359C327.491 97.0055 326.778 97.6903 326.249 98.1774C325.98 98.446 325.682 98.6828 325.359 98.8835Z" fill="#E0E0E0"/>
<path d="M294.391 98.9332C294.065 98.7159 293.766 98.4599 293.502 98.1707C292.986 97.6765 292.28 96.9775 291.511 96.2009C290.741 95.4243 290.057 94.7042 289.576 94.1818C289.292 93.9142 289.04 93.6132 288.828 93.2852C289.152 93.4996 289.449 93.7533 289.711 94.0406C290.233 94.5348 290.946 95.2337 291.709 96.0174C292.471 96.801 293.17 97.5141 293.65 98.0436C293.931 98.3103 294.18 98.6088 294.391 98.9332Z" fill="#E0E0E0"/>
<path d="M325.36 131.043C325.357 130.991 325.357 130.939 325.36 130.887C325.36 130.781 325.36 130.633 325.36 130.435C325.36 130.033 325.36 129.454 325.36 128.699C325.36 127.167 325.36 124.943 325.36 122.119C325.36 116.471 325.36 108.408 325.296 98.7713L325.416 98.8913H294.543L294.684 98.7572C294.684 110.604 294.684 121.681 294.684 131.028L294.564 130.915L316.923 130.972L323.207 131.007H324.802H323.157H316.909L294.472 131.064H294.359V130.944C294.359 121.596 294.359 110.519 294.359 98.6724V98.5312H294.501H325.374H325.508V98.6513C325.508 108.323 325.459 116.4 325.445 122.076C325.445 124.9 325.445 127.103 325.445 128.628C325.445 129.334 325.445 129.948 325.445 130.344C325.445 130.534 325.445 130.675 325.445 130.781C325.43 130.872 325.402 130.961 325.36 131.043Z" fill="#E0E0E0"/>
<path d="M315.126 109.742H304.797V120.071H315.126V109.742Z" fill="#EBEBEB"/>
<path d="M322.464 333.988C322.464 334.087 257.441 334.172 177.247 334.172C97.0523 334.172 32.0156 334.101 32.0156 333.988C32.0156 333.875 97.0241 333.805 177.247 333.805C257.47 333.805 322.464 333.904 322.464 333.988Z" fill="#263238"/>
<path d="M311.144 152.84H278.682C273.227 152.84 268.805 157.262 268.805 162.717V195.179C268.805 200.634 273.227 205.056 278.682 205.056H311.144C316.598 205.056 321.02 200.634 321.02 195.179V162.717C321.02 157.262 316.598 152.84 311.144 152.84Z" fill="#4F18A2"/>
<path d="M301.998 185.723H298.849C298.755 185.723 298.665 185.685 298.599 185.619C298.533 185.553 298.496 185.463 298.496 185.37C298.496 185.276 298.533 185.186 298.599 185.12C298.665 185.054 298.755 185.017 298.849 185.017H301.638L301.228 172.923C301.224 172.842 301.249 172.762 301.298 172.698C301.347 172.633 301.417 172.588 301.496 172.57C301.575 172.55 301.658 172.559 301.731 172.595C301.803 172.632 301.86 172.693 301.892 172.767L303.261 175.874L307.589 173.706C305.994 170.48 304.193 167.007 303.89 166.696C303.545 166.406 303.159 166.169 302.746 165.99C302.501 165.867 302.248 165.759 301.991 165.665C300.819 165.234 299.167 164.797 298.496 164.627C298.157 165.266 297.648 165.799 297.025 166.165C296.402 166.532 295.689 166.718 294.966 166.703C292.594 166.583 291.669 165.249 291.365 164.627C290.709 164.797 289.057 165.227 287.927 165.644C287.659 165.736 287.397 165.847 287.143 165.976C286.725 166.153 286.335 166.391 285.986 166.682C285.675 166.992 283.868 170.466 282.279 173.692L286.614 175.86L287.976 172.753C288.01 172.68 288.068 172.621 288.139 172.585C288.211 172.549 288.293 172.539 288.372 172.556C288.451 172.575 288.521 172.62 288.571 172.684C288.621 172.748 288.648 172.827 288.647 172.909L288.273 185.017H294.627C294.721 185.017 294.81 185.054 294.877 185.12C294.943 185.186 294.98 185.276 294.98 185.37C294.98 185.463 294.943 185.553 294.877 185.619C294.81 185.685 294.721 185.723 294.627 185.723H287.913C287.818 185.722 287.726 185.684 287.659 185.617C287.596 185.547 287.56 185.457 287.56 185.363L287.856 174.695L287.066 176.495C287.046 176.539 287.018 176.578 286.983 176.611C286.948 176.644 286.906 176.669 286.861 176.686C286.818 176.705 286.771 176.715 286.723 176.715C286.676 176.715 286.629 176.705 286.586 176.686L281.644 174.201C281.562 174.157 281.5 174.083 281.471 173.995C281.442 173.907 281.448 173.811 281.488 173.728C282.06 172.57 284.941 166.759 285.477 166.223C285.876 165.88 286.327 165.601 286.812 165.397C287.075 165.263 287.346 165.145 287.623 165.044C289.148 164.479 291.394 163.935 291.485 163.914C291.528 163.903 291.573 163.899 291.618 163.905C291.662 163.911 291.705 163.925 291.744 163.948C291.782 163.97 291.816 164 291.843 164.035C291.871 164.071 291.89 164.111 291.902 164.154C291.902 164.225 292.474 165.912 294.959 166.039C297.43 165.912 297.973 164.168 297.973 164.154C297.985 164.111 298.005 164.071 298.032 164.035C298.059 164 298.093 163.97 298.132 163.948C298.171 163.925 298.213 163.911 298.258 163.905C298.302 163.899 298.347 163.903 298.39 163.914C298.489 163.914 300.727 164.479 302.195 165.023H302.238C302.527 165.129 302.81 165.251 303.085 165.39C303.564 165.593 304.01 165.87 304.405 166.209C304.942 166.745 307.822 172.563 308.394 173.714C308.415 173.755 308.427 173.801 308.429 173.847C308.432 173.893 308.426 173.94 308.411 173.984C308.396 174.028 308.372 174.068 308.342 174.103C308.311 174.138 308.273 174.166 308.232 174.187L303.29 176.672C303.246 176.691 303.199 176.701 303.152 176.701C303.105 176.701 303.058 176.691 303.014 176.672C302.97 176.655 302.93 176.63 302.896 176.597C302.862 176.564 302.835 176.525 302.817 176.481L302.033 174.702L302.393 185.348C302.396 185.395 302.389 185.442 302.372 185.486C302.354 185.53 302.328 185.57 302.294 185.603C302.257 185.644 302.211 185.676 302.16 185.697C302.109 185.718 302.053 185.727 301.998 185.723Z" fill="white"/>
<path d="M297.036 185.726H296.041C295.947 185.726 295.857 185.688 295.791 185.622C295.725 185.556 295.688 185.466 295.688 185.373C295.688 185.279 295.725 185.189 295.791 185.123C295.857 185.057 295.947 185.02 296.041 185.02H297.036C297.13 185.02 297.219 185.057 297.286 185.123C297.352 185.189 297.389 185.279 297.389 185.373C297.389 185.466 297.352 185.556 297.286 185.622C297.219 185.688 297.13 185.726 297.036 185.726Z" fill="white"/>
<path d="M280.331 190.41H278.523V189.344H283.465V190.41H281.658V194.999H280.331V190.41Z" fill="white"/>
<path d="M283.602 192.215H285.882V193.224H283.602V192.215Z" fill="white"/>
<path d="M286.414 194.439L286.859 193.451C287.407 193.831 288.056 194.037 288.723 194.044C289.499 194.044 289.81 193.783 289.81 193.437C289.81 192.378 286.527 193.105 286.527 191.001C286.527 190.041 287.297 189.243 288.906 189.243C289.594 189.228 290.273 189.402 290.869 189.744L290.466 190.74C289.992 190.456 289.452 190.303 288.899 190.295C288.123 190.295 287.826 190.584 287.826 190.937C287.826 191.982 291.116 191.262 291.116 193.338C291.116 194.284 290.332 195.089 288.716 195.089C287.9 195.11 287.098 194.884 286.414 194.439Z" fill="white"/>
<path d="M297.195 189.344V194.992H295.86V192.669H293.29V194.992H291.984V189.344H293.29V191.568H295.86V189.344H297.195Z" fill="white"/>
<path d="M298.531 189.344H299.837V194.992H298.531V189.344Z" fill="white"/>
<path d="M304.78 194.996L303.693 193.414H302.493V194.996H301.18V189.348H303.63C305.14 189.348 306.086 190.131 306.086 191.395C306.101 191.777 305.997 192.154 305.789 192.474C305.58 192.794 305.277 193.041 304.921 193.181L306.192 195.003L304.78 194.996ZM303.559 190.407H302.493V192.376H303.559C304.357 192.376 304.759 192.002 304.759 191.388C304.759 190.774 304.336 190.407 303.559 190.407Z" fill="white"/>
<path d="M308.198 190.41H306.391V189.344H311.333V190.41H309.525V194.999H308.212L308.198 190.41Z" fill="white"/>
<path d="M295.558 295.861C295.325 294.319 294.913 292.81 294.33 291.364C293.679 289.811 292.718 288.408 291.506 287.241C290.043 285.784 288.065 284.962 286.001 284.954C283.936 284.947 281.952 285.753 280.478 287.198C279.265 288.363 278.304 289.764 277.654 291.314C277.063 292.757 276.644 294.264 276.405 295.805C276.386 295.697 276.386 295.587 276.405 295.48C276.419 295.167 276.452 294.856 276.503 294.548C276.666 293.403 276.972 292.284 277.414 291.216C278.051 289.623 279.013 288.18 280.238 286.98C280.995 286.226 281.892 285.629 282.88 285.223C283.867 284.817 284.925 284.61 285.992 284.613C287.06 284.617 288.116 284.83 289.101 285.242C290.086 285.655 290.98 286.257 291.732 287.015C292.958 288.229 293.919 289.683 294.556 291.286C294.991 292.356 295.292 293.475 295.452 294.618C295.502 294.927 295.533 295.238 295.544 295.55C295.565 295.653 295.57 295.757 295.558 295.861Z" fill="#263238"/>
<path d="M298.872 295.861C298.638 294.319 298.226 292.81 297.643 291.364C296.993 289.811 296.032 288.408 294.819 287.241C293.356 285.784 291.378 284.962 289.314 284.954C287.25 284.947 285.265 285.753 283.791 287.198C282.581 288.365 281.62 289.765 280.967 291.314C280.381 292.758 279.964 294.265 279.725 295.805C279.706 295.697 279.706 295.587 279.725 295.48C279.74 295.168 279.77 294.857 279.817 294.548C279.986 293.404 280.294 292.285 280.734 291.216C281.371 289.623 282.333 288.18 283.558 286.98C284.315 286.226 285.213 285.629 286.2 285.223C287.187 284.817 288.245 284.61 289.313 284.613C290.38 284.617 291.437 284.83 292.422 285.242C293.406 285.655 294.3 286.257 295.052 287.015C296.281 288.226 297.243 289.681 297.876 291.286C298.313 292.356 298.617 293.475 298.78 294.618C298.83 294.927 298.86 295.238 298.872 295.55C298.888 295.653 298.888 295.758 298.872 295.861Z" fill="#263238"/>
<path d="M265.265 293.878L302.647 293.652L303.459 334.226H261.516L265.265 293.878Z" fill="#455A64"/>
<path d="M302.648 293.652H307.336L311.382 334.226H303.46L302.648 293.652Z" fill="#263238"/>
<path d="M296.275 307.43H271.805V311.532H296.275V307.43Z" fill="white"/>
<path d="M267.342 318.107H92.141C90.9941 318.087 89.8623 317.842 88.8101 317.386C87.7579 316.929 86.806 316.269 86.0088 315.444C85.2116 314.62 84.5846 313.646 84.1638 312.579C83.743 311.512 83.5365 310.372 83.5561 309.225V41.4112C83.5355 40.2634 83.7413 39.1227 84.1616 38.0544C84.5819 36.9861 85.2086 36.0111 86.0058 35.185C86.803 34.359 87.7552 33.698 88.8079 33.24C89.8606 32.782 90.9932 32.5358 92.141 32.5156H267.349C268.497 32.5358 269.63 32.782 270.682 33.24C271.735 33.698 272.687 34.359 273.484 35.185C274.281 36.0111 274.908 36.9861 275.329 38.0544C275.749 39.1227 275.955 40.2634 275.934 41.4112V309.225C275.972 311.542 275.088 313.779 273.477 315.445C271.866 317.11 269.659 318.068 267.342 318.107Z" fill="#E0E0E0"/>
<path d="M267.344 318.108L267.958 318.066C268.209 318.054 268.459 318.024 268.706 317.974C269.055 317.921 269.399 317.843 269.737 317.741C270.689 317.447 271.583 316.988 272.377 316.385C273.479 315.554 274.367 314.472 274.968 313.23C275.331 312.487 275.59 311.698 275.738 310.886C275.875 309.977 275.924 309.057 275.886 308.139C275.886 306.205 275.886 304.087 275.886 301.785C275.886 297.203 275.886 291.901 275.886 285.964C275.886 262.158 275.851 227.705 275.823 185.14C275.823 163.854 275.823 140.542 275.823 115.514C275.823 103.004 275.823 90.0771 275.823 76.7337C275.823 70.0644 275.823 63.3009 275.823 56.4433V46.1004C275.823 44.3707 275.823 42.6128 275.823 40.883C275.784 40.024 275.613 39.1761 275.314 38.3697C274.875 37.1466 274.165 36.0381 273.239 35.1264C272.312 34.2147 271.193 33.5231 269.963 33.1029C269.132 32.8462 268.269 32.7107 267.4 32.7005H92.1638C90.1599 32.7077 88.2264 33.44 86.7205 34.762C85.2297 36.087 84.2339 37.8795 83.8965 39.8452C83.7604 40.8345 83.7132 41.8339 83.7553 42.8316V122.504C83.7553 153.13 83.7553 182.676 83.7553 210.824C83.7553 238.973 83.7553 265.709 83.7553 290.736C83.7553 297.001 83.7553 303.15 83.7553 309.184C83.7638 310.66 84.1244 312.112 84.8072 313.42C85.8467 315.377 87.6022 316.857 89.7069 317.55C90.3944 317.762 91.1062 317.885 91.8249 317.917C93.2792 317.96 94.7477 317.917 96.195 317.917H129.603L230.42 317.974L257.834 318.009L230.42 318.045L129.603 318.101H96.195C94.7407 318.101 93.2934 318.101 91.8108 318.101C91.0634 318.072 90.3231 317.946 89.608 317.727C87.4319 317.008 85.6164 315.478 84.539 313.456C83.827 312.099 83.4539 310.59 83.4517 309.057C83.4517 303.018 83.4517 296.869 83.4517 290.609C83.4517 265.582 83.4517 238.838 83.4517 210.697C83.4517 182.556 83.4517 153.003 83.4517 122.377V42.8457C83.4102 41.8267 83.4598 40.806 83.6 39.7958C83.9532 37.7451 84.9969 35.8767 86.5581 34.5008C88.1282 33.1442 90.1312 32.3931 92.2061 32.3828H267.315C268.221 32.3926 269.12 32.5353 269.984 32.8064C271.701 33.3811 273.2 34.4707 274.276 35.9269C274.819 36.6389 275.246 37.4324 275.54 38.2779C275.852 39.1161 276.033 39.9971 276.077 40.8901C276.126 42.6551 276.077 44.4201 276.077 46.1216V56.4504C276.077 63.3033 276.077 70.0667 276.077 76.7408C276.077 90.0701 276.077 102.997 276.077 115.521C276.077 140.549 276.077 163.861 276.077 185.147C276.077 227.712 276.034 262.165 276.02 285.971C276.02 291.923 276.02 297.21 276.02 301.792C276.02 304.08 276.02 306.198 276.02 308.146C276.057 309.07 276.003 309.994 275.858 310.907C275.708 311.728 275.444 312.524 275.074 313.272C274.461 314.521 273.561 315.607 272.448 316.442C271.628 317.032 270.71 317.472 269.737 317.741C269.399 317.843 269.055 317.921 268.706 317.974C268.456 318.018 268.204 318.046 267.951 318.059L267.344 318.108Z" fill="#263238"/>
<path d="M183.095 305.119C183.124 306.739 182.671 308.332 181.792 309.694C180.913 311.055 179.648 312.124 178.159 312.765C176.67 313.405 175.024 313.587 173.431 313.289C171.838 312.99 170.37 312.224 169.214 311.088C168.058 309.952 167.267 308.498 166.941 306.91C166.614 305.323 166.768 303.674 167.382 302.174C167.996 300.674 169.043 299.391 170.389 298.489C171.735 297.586 173.32 297.105 174.941 297.106C176.002 297.096 177.055 297.296 178.039 297.694C179.024 298.092 179.92 298.679 180.677 299.423C181.435 300.168 182.038 301.053 182.453 302.031C182.867 303.008 183.086 304.057 183.095 305.119Z" fill="white"/>
<path d="M199.458 47.6285H160.169C159.435 47.6064 158.738 47.2992 158.227 46.772C157.715 46.2447 157.429 45.539 157.43 44.8045C157.429 44.0699 157.715 43.3642 158.227 42.837C158.738 42.3097 159.435 42.0025 160.169 41.9805H199.458C200.192 42.0025 200.889 42.3097 201.4 42.837C201.912 43.3642 202.197 44.0699 202.197 44.8045C202.197 45.539 201.912 46.2447 201.4 46.772C200.889 47.2992 200.192 47.6064 199.458 47.6285Z" fill="#263238"/>
<path d="M269.702 52.9062H89.4531V291.393H269.702V52.9062Z" fill="white"/>
<path d="M269.735 291.402C269.735 289.954 269.665 194.256 269.573 52.9079L269.735 53.0702H89.5076L89.6912 52.8867C89.6912 141.659 89.6912 223.965 89.6559 291.381L89.5076 291.225L269.756 291.381L89.5076 291.529H89.3594V291.381C89.3594 223.965 89.3594 141.659 89.3594 52.8867V52.7031H89.5571H269.785H269.947V52.8655C269.735 194.256 269.735 289.954 269.735 291.402Z" fill="#263238"/>
<path d="M75.5859 66.1016H110.434V89.3996C110.434 93.6724 108.737 97.7703 105.715 100.792C102.694 103.813 98.5961 105.51 94.3232 105.51H91.6969C87.4264 105.51 83.3307 103.815 80.3097 100.797C77.2887 97.7784 75.5897 93.6841 75.5859 89.4137V66.1157V66.1016Z" fill="#4F18A2"/>
<path d="M110.18 66.1016H145.028V89.3996C145.028 93.6724 143.33 97.7703 140.309 100.792C137.288 103.813 133.19 105.51 128.917 105.51H126.291C122.02 105.51 117.924 103.815 114.903 100.797C111.882 97.7784 110.183 93.6841 110.18 89.4137V66.1157V66.1016Z" fill="#4F18A2"/>
<path d="M144.773 66.1016H179.622V89.3996C179.622 93.6724 177.924 97.7703 174.903 100.792C171.881 103.813 167.784 105.51 163.511 105.51H160.884C156.614 105.51 152.518 103.815 149.497 100.797C146.476 97.7784 144.777 93.6841 144.773 89.4137V66.1157V66.1016Z" fill="#4F18A2"/>
<path d="M179.367 66.1016H214.208V89.3996C214.208 93.6724 212.511 97.7703 209.49 100.792C206.468 103.813 202.37 105.51 198.097 105.51H195.471C191.202 105.509 187.108 103.812 184.088 100.794C181.069 97.7761 179.371 93.6829 179.367 89.4137V66.1157V66.1016Z" fill="#4F18A2"/>
<path d="M213.906 66.1016H248.754V89.3996C248.754 93.6724 247.057 97.7703 244.036 100.792C241.014 103.813 236.916 105.51 232.643 105.51H230.017C225.744 105.51 221.646 103.813 218.625 100.792C215.604 97.7703 213.906 93.6724 213.906 89.3996V66.1016Z" fill="#4F18A2"/>
<path d="M248.477 66.1016H283.325V89.3996C283.325 93.6724 281.627 97.7703 278.606 100.792C275.585 103.813 271.487 105.51 267.214 105.51H264.587C260.315 105.51 256.217 103.813 253.195 100.792C250.174 97.7703 248.477 93.6724 248.477 89.3996V66.1016Z" fill="#4F18A2"/>
<g opacity="0.3">
<path d="M110.18 66.1016H145.028V89.3996C145.028 93.6724 143.33 97.7703 140.309 100.792C137.288 103.813 133.19 105.51 128.917 105.51H126.291C122.02 105.51 117.924 103.815 114.903 100.797C111.882 97.7784 110.183 93.6841 110.18 89.4137V66.1157V66.1016Z" fill="white"/>
</g>
<g opacity="0.3">
<path d="M179.367 66.1016H214.208V89.3996C214.208 93.6724 212.511 97.7703 209.49 100.792C206.468 103.813 202.37 105.51 198.097 105.51H195.471C191.202 105.509 187.108 103.812 184.088 100.794C181.069 97.7761 179.371 93.6829 179.367 89.4137V66.1157V66.1016Z" fill="white"/>
</g>
<g opacity="0.3">
<path d="M248.477 66.1016H283.325V89.3996C283.325 93.6724 281.627 97.7703 278.606 100.792C275.585 103.813 271.487 105.51 267.214 105.51H264.587C260.315 105.51 256.217 103.813 253.195 100.792C250.174 97.7703 248.477 93.6724 248.477 89.3996V66.1016Z" fill="white"/>
</g>
<path d="M110.465 65.6953C110.564 65.6953 110.648 71.8093 110.648 79.3494C110.648 86.8894 110.564 93.0034 110.465 93.0034C110.366 93.0034 110.281 86.8894 110.281 79.3494C110.281 71.8093 110.366 65.6953 110.465 65.6953Z" fill="#263238"/>
<path d="M145.043 65.6953C145.142 65.6953 145.219 71.8093 145.219 79.3494C145.219 86.8894 145.142 93.0034 145.043 93.0034C144.944 93.0034 144.859 86.8894 144.859 79.3494C144.859 71.8093 144.937 65.6953 145.043 65.6953Z" fill="#263238"/>
<path d="M179.613 65.6953C179.712 65.6953 179.79 71.8093 179.79 79.3494C179.79 86.8894 179.712 93.0034 179.613 93.0034C179.514 93.0034 179.43 86.8894 179.43 79.3494C179.43 71.8093 179.507 65.6953 179.613 65.6953Z" fill="#263238"/>
<path d="M214.176 65.6953C214.282 65.6953 214.36 71.8093 214.36 79.3494C214.36 86.8894 214.282 93.0034 214.176 93.0034C214.071 93.0034 214 86.8894 214 79.3494C214 71.8093 214.078 65.6953 214.176 65.6953Z" fill="#263238"/>
<path d="M248.752 65.6953C248.858 65.6953 248.936 71.8093 248.936 79.3494C248.936 86.8894 248.858 93.0034 248.752 93.0034C248.646 93.0034 248.555 86.8753 248.555 79.3211C248.555 71.7669 248.654 65.6953 248.752 65.6953Z" fill="#263238"/>
<path d="M283.33 66.172L269.831 52.9062H89.5191L75.625 66.172H283.33Z" fill="#4F18A2"/>
<path d="M278.388 65.9888C278.388 66.0876 232.992 66.2076 177.014 66.2641C121.035 66.3206 75.625 66.2641 75.625 66.1723C75.625 66.0805 121.007 65.9464 177.014 65.897C233.021 65.8476 278.388 65.8829 278.388 65.9888Z" fill="#263238"/>
<path d="M132.035 184.895H109.471C108.15 184.895 107.078 185.966 107.078 187.288V188.093C107.078 189.415 108.15 190.486 109.471 190.486H132.035C133.357 190.486 134.429 189.415 134.429 188.093V187.288C134.429 185.966 133.357 184.895 132.035 184.895Z" fill="#E0E0E0"/>
<path d="M165.25 184.52H156.792C155.47 184.52 154.398 185.591 154.398 186.913V187.294C154.398 188.616 155.47 189.687 156.792 189.687H165.25C166.571 189.687 167.643 188.616 167.643 187.294V186.913C167.643 185.591 166.571 184.52 165.25 184.52Z" fill="#4F18A2"/>
<path d="M132.035 276.84H109.471C108.15 276.84 107.078 277.911 107.078 279.233V280.038C107.078 281.36 108.15 282.431 109.471 282.431H132.035C133.357 282.431 134.429 281.36 134.429 280.038V279.233C134.429 277.911 133.357 276.84 132.035 276.84Z" fill="#E0E0E0"/>
<path d="M162.986 276.84H153.448C152.126 276.84 151.055 277.911 151.055 279.233V280.038C151.055 281.36 152.126 282.431 153.448 282.431H162.986C164.308 282.431 165.379 281.36 165.379 280.038V279.233C165.379 277.911 164.308 276.84 162.986 276.84Z" fill="#4F18A2"/>
<path d="M222.043 185.695H199.479C198.157 185.695 197.086 186.767 197.086 188.089V188.893C197.086 190.215 198.157 191.287 199.479 191.287H222.043C223.365 191.287 224.436 190.215 224.436 188.893V188.089C224.436 186.767 223.365 185.695 222.043 185.695Z" fill="#E0E0E0"/>
<path d="M253.095 185.695H243.557C242.236 185.695 241.164 186.767 241.164 188.089V188.893C241.164 190.215 242.236 191.287 243.557 191.287H253.095C254.417 191.287 255.489 190.215 255.489 188.893V188.089C255.489 186.767 254.417 185.695 253.095 185.695Z" fill="#4F18A2"/>
<path d="M222.356 277.652H199.792C198.47 277.652 197.398 278.724 197.398 280.046V280.851C197.398 282.172 198.47 283.244 199.792 283.244H222.356C223.677 283.244 224.749 282.172 224.749 280.851V280.046C224.749 278.724 223.677 277.652 222.356 277.652Z" fill="#E0E0E0"/>
<path d="M253.408 277.652H243.87C242.548 277.652 241.477 278.724 241.477 280.046V280.851C241.477 282.172 242.548 283.244 243.87 283.244H253.408C254.73 283.244 255.801 282.172 255.801 280.851V280.046C255.801 278.724 254.73 277.652 253.408 277.652Z" fill="#4F18A2"/>
<path d="M158.357 112.469H110.491C105.948 112.469 102.266 116.151 102.266 120.694V168.56C102.266 173.103 105.948 176.785 110.491 176.785H158.357C162.9 176.785 166.582 173.103 166.582 168.56V120.694C166.582 116.151 162.9 112.469 158.357 112.469Z" fill="#FAFAFA"/>
<path d="M158.364 176.792C158.364 176.792 158.576 176.792 158.985 176.743C159.595 176.681 160.198 176.563 160.786 176.39C161.732 176.074 162.616 175.597 163.398 174.978C164.463 174.134 165.302 173.041 165.841 171.794C166.154 171.05 166.361 170.266 166.455 169.464C166.526 168.624 166.497 167.727 166.497 166.788C166.497 164.917 166.497 162.884 166.497 160.702C166.497 156.332 166.497 151.355 166.497 145.876C166.497 140.398 166.497 134.355 166.497 127.888C166.497 126.269 166.497 124.621 166.497 122.946C166.497 121.279 166.646 119.557 166.01 117.968C165.426 116.344 164.338 114.948 162.904 113.986C161.415 113.018 159.658 112.546 157.884 112.638H110.582C108.532 112.64 106.559 113.424 105.068 114.83C103.576 116.237 102.677 118.16 102.555 120.206C102.505 124.273 102.555 128.311 102.555 132.265C102.555 140.179 102.555 147.797 102.555 155.09C102.555 158.728 102.555 162.27 102.555 165.715C102.555 166.576 102.555 167.431 102.555 168.285C102.54 169.112 102.644 169.937 102.866 170.735C103.301 172.302 104.202 173.7 105.449 174.745C106.649 175.76 108.124 176.396 109.685 176.573C110.449 176.631 111.215 176.65 111.98 176.63H122.888L148.946 176.693H156.006L148.946 176.729L122.888 176.785H114.26H111.98C111.217 176.785 110.448 176.785 109.65 176.729C108.854 176.629 108.075 176.422 107.334 176.114C106.587 175.784 105.887 175.357 105.252 174.844C103.961 173.756 103.024 172.308 102.562 170.685C102.333 169.861 102.226 169.007 102.244 168.151C102.244 167.297 102.244 166.442 102.244 165.581C102.244 162.136 102.244 158.594 102.244 154.956C102.244 147.684 102.244 140.045 102.244 132.131C102.244 128.17 102.244 124.16 102.244 120.051C102.403 117.961 103.338 116.005 104.865 114.57C106.392 113.134 108.401 112.321 110.497 112.292H157.799C159.64 112.2 161.461 112.695 163.003 113.704C164.49 114.709 165.62 116.16 166.229 117.848C166.527 118.669 166.692 119.532 166.716 120.404C166.716 121.258 166.716 122.091 166.716 122.931V127.873C166.716 134.34 166.716 140.363 166.716 145.862C166.716 151.362 166.716 156.339 166.716 160.688C166.716 162.87 166.716 164.924 166.716 166.774C166.716 167.713 166.716 168.61 166.653 169.471C166.551 170.285 166.337 171.081 166.017 171.836C165.458 173.096 164.597 174.199 163.511 175.048C162.714 175.672 161.813 176.15 160.849 176.46C160.257 176.629 159.649 176.735 159.035 176.778L158.364 176.792Z" fill="#4F18A2"/>
<path d="M160.091 142.806C160.091 142.806 153.448 129.35 152.431 128.326C151.695 127.72 150.878 127.221 150.002 126.844C149.507 126.588 148.995 126.367 148.47 126.18L148.364 126.138C145.498 125.079 141.008 124.02 141.008 124.02C141.008 124.02 139.864 127.917 134.421 128.199C128.985 127.917 127.841 124.02 127.841 124.02C127.841 124.02 123.344 125.107 120.484 126.138L120.372 126.18C119.849 126.366 119.339 126.588 118.847 126.844C117.969 127.217 117.151 127.717 116.418 128.326C115.394 129.35 108.758 142.806 108.758 142.806L118.465 147.663L121.416 140.949L120.767 165.243H148.301L147.475 140.921L150.426 147.635L160.091 142.806Z" fill="#4F18A2"/>
<path d="M121.42 146.975C121.341 146.237 121.318 145.493 121.349 144.751C121.349 143.339 121.349 141.447 121.405 139.28V139.35L121.017 138.39C120.128 136.145 119.337 134.112 118.779 132.636C118.504 131.895 118.285 131.295 118.144 130.871C118.054 130.661 117.99 130.44 117.953 130.215C118.087 130.401 118.194 130.606 118.271 130.822C118.461 131.224 118.716 131.81 119.019 132.538C119.633 133.992 120.431 136.011 121.356 138.249C121.483 138.581 121.617 138.906 121.737 139.216V139.252C121.688 141.419 121.624 143.339 121.561 144.723C121.573 145.476 121.526 146.229 121.42 146.975Z" fill="#263238"/>
<path d="M147.37 146.972C147.261 146.238 147.207 145.497 147.208 144.755C147.144 143.343 147.081 141.451 147.031 139.284V139.248C147.151 138.938 147.278 138.613 147.412 138.281C148.302 136.043 149.128 134.045 149.749 132.569C150.053 131.863 150.307 131.256 150.491 130.854C150.674 130.451 150.787 130.233 150.815 130.247C150.778 130.472 150.714 130.693 150.625 130.903C150.484 131.327 150.265 131.927 149.982 132.668C149.432 134.144 148.641 136.198 147.751 138.422L147.363 139.382V139.312C147.405 141.479 147.42 143.4 147.42 144.783C147.459 145.513 147.442 146.245 147.37 146.972Z" fill="#263238"/>
<path d="M141.998 144.628C141.998 144.628 142.274 144.628 142.74 144.48C143.309 144.326 143.824 144.017 144.229 143.589C144.634 143.16 144.913 142.628 145.034 142.051C145.098 141.482 145.115 140.908 145.083 140.335C145.083 139.086 145.083 137.702 145.083 136.219L145.26 136.389H137.586L137.762 136.212C137.762 137.843 137.762 139.375 137.762 140.759C137.762 141.105 137.762 141.465 137.762 141.747C137.806 142.163 137.935 142.566 138.14 142.93C138.345 143.294 138.623 143.612 138.955 143.865C139.579 144.347 140.35 144.596 141.137 144.571C141.428 144.562 141.718 144.581 142.005 144.628C141.719 144.681 141.428 144.702 141.137 144.691C140.315 144.773 139.492 144.553 138.821 144.07C138.348 143.728 137.973 143.268 137.734 142.736C137.602 142.435 137.514 142.116 137.473 141.79C137.438 141.444 137.473 141.084 137.438 140.766C137.438 139.354 137.438 137.85 137.438 136.219V136.043H145.408V136.219C145.408 137.702 145.408 139.086 145.408 140.335C145.432 140.925 145.401 141.516 145.316 142.1C145.197 142.621 144.955 143.105 144.61 143.512C144.144 144.082 143.496 144.473 142.775 144.621C142.587 144.663 142.395 144.682 142.203 144.677C142.069 144.649 141.998 144.642 141.998 144.628Z" fill="#263238"/>
<path d="M158.357 203.586H110.491C105.948 203.586 102.266 207.268 102.266 211.811V259.678C102.266 264.22 105.948 267.903 110.491 267.903H158.357C162.9 267.903 166.582 264.22 166.582 259.678V211.811C166.582 207.268 162.9 203.586 158.357 203.586Z" fill="#FAFAFA"/>
<path d="M158.364 267.915C158.364 267.915 158.576 267.915 158.985 267.858C159.595 267.803 160.199 267.688 160.786 267.512C161.732 267.197 162.616 266.719 163.398 266.1C164.462 265.257 165.302 264.163 165.841 262.916C166.154 262.173 166.361 261.388 166.455 260.587C166.525 259.746 166.497 258.85 166.497 257.911C166.497 256.04 166.497 254.007 166.497 251.825C166.497 247.455 166.497 242.478 166.497 236.999C166.497 231.521 166.497 225.477 166.497 219.01C166.497 217.396 166.497 215.748 166.497 214.068C166.497 212.402 166.645 210.679 166.01 209.126C165.426 207.501 164.337 206.106 162.904 205.144C161.415 204.176 159.658 203.704 157.884 203.796H110.582C108.532 203.798 106.559 204.582 105.068 205.988C103.576 207.395 102.677 209.318 102.555 211.364C102.505 215.424 102.555 219.469 102.555 223.423C102.555 231.337 102.555 238.955 102.555 246.248C102.555 249.886 102.555 253.428 102.555 256.873C102.555 257.734 102.555 258.589 102.555 259.443C102.54 260.27 102.644 261.095 102.865 261.893C103.303 263.459 104.204 264.857 105.449 265.903C106.649 266.918 108.123 267.554 109.685 267.731C110.449 267.789 111.214 267.808 111.98 267.788H122.887L148.946 267.851L122.887 267.908H111.846C111.083 267.908 110.314 267.908 109.516 267.851C108.72 267.752 107.941 267.545 107.2 267.237C106.453 266.907 105.753 266.479 105.117 265.966C103.848 264.925 102.908 263.536 102.413 261.97C102.184 261.146 102.077 260.292 102.096 259.436C102.096 258.582 102.096 257.727 102.096 256.866C102.096 253.421 102.096 249.879 102.096 246.241C102.096 238.969 102.096 231.33 102.096 223.416C102.096 219.455 102.096 215.438 102.096 211.336C102.22 209.196 103.158 207.185 104.718 205.715C106.277 204.245 108.34 203.427 110.483 203.429H157.785C159.625 203.337 161.447 203.831 162.988 204.841C164.476 205.846 165.605 207.297 166.215 208.985C166.513 209.805 166.678 210.668 166.702 211.541C166.702 212.395 166.702 213.228 166.702 214.068V219.01C166.702 225.477 166.702 231.499 166.702 236.999C166.702 242.499 166.702 247.476 166.702 251.825C166.702 254.007 166.702 256.061 166.702 257.911C166.702 258.85 166.702 259.746 166.638 260.608C166.538 261.42 166.324 262.213 166.003 262.966C165.445 264.229 164.584 265.335 163.497 266.185C162.699 266.809 161.798 267.287 160.835 267.597C160.243 267.766 159.635 267.872 159.021 267.915H158.364Z" fill="#E0E0E0"/>
<path d="M141.009 215.111C141.009 215.111 145.499 216.198 148.365 217.229L148.471 217.271C148.996 217.458 149.508 217.679 150.003 217.935C150.879 218.312 151.696 218.811 152.432 219.417C153.448 220.441 160.092 233.897 160.092 233.897L150.377 238.754L147.426 232.04L148.252 256.362H120.768L121.438 232.04L118.487 238.754L108.766 233.925C108.766 233.925 115.402 220.469 116.426 219.445C117.159 218.836 117.977 218.336 118.854 217.963C119.347 217.707 119.857 217.486 120.379 217.299L120.492 217.257C123.352 216.198 127.849 215.139 127.849 215.139L128.618 212.52L134.189 216.233L140.423 212.52L141.009 215.111Z" fill="#E0E0E0"/>
<path d="M121.42 238.088C121.341 237.349 121.318 236.606 121.349 235.864C121.349 234.452 121.349 232.56 121.405 230.392V230.463L121.017 229.496C120.128 227.258 119.337 225.224 118.779 223.749C118.504 223.008 118.285 222.408 118.144 221.984C118.053 221.772 117.989 221.549 117.953 221.32C118.084 221.511 118.19 221.718 118.271 221.935C118.461 222.337 118.716 222.923 119.019 223.65C119.633 225.104 120.431 227.124 121.356 229.362C121.483 229.693 121.617 230.018 121.737 230.329V230.364V230.399C121.688 232.567 121.624 234.487 121.561 235.871C121.571 236.612 121.524 237.354 121.42 238.088Z" fill="#263238"/>
<path d="M147.638 238.285C147.5 237.535 147.417 236.775 147.391 236.012C147.285 234.6 147.158 232.623 147.031 230.407V230.364V230.329L147.37 229.46C148.274 227.194 149.114 225.154 149.735 223.678C150.046 222.972 150.3 222.351 150.491 221.942C150.567 221.719 150.676 221.51 150.815 221.32C150.782 221.563 150.715 221.801 150.618 222.026C150.477 222.443 150.251 223.057 149.975 223.805C149.41 225.302 148.613 227.335 147.709 229.623L147.363 230.491V230.414C147.476 232.63 147.561 234.607 147.61 236.062C147.675 236.801 147.684 237.545 147.638 238.285Z" fill="#263238"/>
<path d="M141.998 235.745C141.998 235.745 142.274 235.745 142.74 235.597C143.309 235.443 143.824 235.135 144.229 234.706C144.634 234.277 144.913 233.745 145.034 233.168C145.098 232.599 145.115 232.025 145.083 231.453C145.083 230.203 145.083 228.819 145.083 227.337L145.26 227.506H137.586L137.762 227.33C137.762 228.96 137.762 230.492 137.762 231.876C137.762 232.222 137.762 232.582 137.762 232.865C137.806 233.28 137.935 233.683 138.14 234.047C138.345 234.411 138.623 234.73 138.955 234.983C139.579 235.464 140.35 235.713 141.137 235.689C141.428 235.679 141.718 235.698 142.005 235.745C141.719 235.798 141.428 235.819 141.137 235.809C140.315 235.891 139.492 235.67 138.821 235.187C138.348 234.845 137.973 234.385 137.734 233.853C137.602 233.552 137.514 233.233 137.473 232.907C137.438 232.561 137.473 232.201 137.438 231.883C137.438 230.471 137.438 228.968 137.438 227.337V227.16H145.408V227.372C145.408 228.855 145.408 230.238 145.408 231.488C145.432 232.078 145.401 232.669 145.316 233.253C145.195 233.773 144.953 234.256 144.61 234.665C144.144 235.234 143.496 235.626 142.775 235.773C142.587 235.815 142.395 235.834 142.203 235.83C142.069 235.766 141.998 235.759 141.998 235.745Z" fill="#263238"/>
<path d="M119.544 236.326C117.874 235.673 116.251 234.904 114.687 234.025C113.065 233.256 111.496 232.378 109.992 231.398C111.665 232.052 113.29 232.821 114.857 233.7C116.474 234.473 118.04 235.35 119.544 236.326Z" fill="#263238"/>
<path d="M249.131 113.473H201.264C196.721 113.473 193.039 117.155 193.039 121.698V169.564C193.039 174.107 196.721 177.789 201.264 177.789H249.131C253.673 177.789 257.356 174.107 257.356 169.564V121.698C257.356 117.155 253.673 113.473 249.131 113.473Z" fill="#FAFAFA"/>
<path d="M249.13 177.792L249.758 177.742C250.367 177.688 250.968 177.569 251.552 177.389C252.5 177.078 253.384 176.6 254.164 175.977C255.232 175.136 256.074 174.041 256.614 172.793C256.921 172.05 257.125 171.269 257.221 170.47C257.299 169.63 257.263 168.734 257.27 167.795C257.27 165.924 257.27 163.891 257.27 161.709C257.27 157.332 257.27 152.362 257.27 146.883C257.27 141.404 257.27 135.354 257.27 128.887C257.27 127.268 257.27 125.621 257.27 123.945C257.27 122.272 257.411 120.556 256.783 119.003C256.199 117.377 255.107 115.981 253.67 115.021C252.183 114.048 250.424 113.576 248.65 113.673H201.348C199.299 113.673 197.328 114.456 195.837 115.861C194.346 117.267 193.448 119.189 193.328 121.234C193.278 125.301 193.328 129.346 193.328 133.3C193.328 141.214 193.328 148.832 193.328 156.125C193.328 159.763 193.328 163.305 193.328 166.75V169.313C193.311 170.142 193.413 170.969 193.631 171.77C194.075 173.331 194.975 174.725 196.215 175.773C196.823 176.276 197.498 176.692 198.22 177.008C198.933 177.309 199.684 177.509 200.451 177.601C201.217 177.661 201.985 177.682 202.753 177.665H205.026H213.661L239.712 177.721L246.772 177.756L239.712 177.792L213.661 177.855H202.619C201.856 177.855 201.08 177.855 200.282 177.792C199.486 177.697 198.707 177.493 197.966 177.185C197.219 176.856 196.521 176.426 195.891 175.907C194.597 174.825 193.66 173.378 193.201 171.755C192.972 170.928 192.863 170.072 192.876 169.214V166.651C192.876 163.206 192.876 159.664 192.876 156.026C192.876 148.747 192.876 141.115 192.876 133.201C192.876 129.24 192.876 125.223 192.876 121.114C193.024 118.992 193.971 117.005 195.526 115.553C197.082 114.102 199.129 113.294 201.256 113.292H248.558C250.398 113.202 252.219 113.696 253.761 114.704C255.267 115.705 256.412 117.162 257.03 118.862C257.334 119.681 257.499 120.544 257.517 121.418C257.517 122.279 257.517 123.112 257.517 123.952C257.517 125.618 257.517 127.263 257.517 128.894C257.517 135.361 257.517 141.39 257.517 146.89C257.517 152.39 257.517 157.36 257.517 161.716C257.517 163.898 257.517 165.952 257.517 167.802C257.517 168.741 257.517 169.63 257.454 170.492C257.354 171.306 257.14 172.102 256.818 172.857C256.265 174.12 255.403 175.225 254.312 176.069C253.52 176.696 252.62 177.175 251.658 177.481C251.065 177.656 250.453 177.763 249.836 177.799C249.342 177.799 249.13 177.792 249.13 177.792Z" fill="#E0E0E0"/>
<path d="M231.653 125.007C231.653 125.007 236.143 126.095 239.01 127.125L239.116 127.168C239.641 127.354 240.153 127.576 240.648 127.831C241.526 128.203 242.344 128.703 243.076 129.314C244.093 130.331 250.736 143.794 250.736 143.794L241.022 148.651L238.071 141.951L238.897 166.28H211.363L212.034 141.951L209.082 148.672L199.375 143.815C199.375 143.815 206.011 130.352 207.035 129.335C207.765 128.721 208.584 128.221 209.464 127.852C209.957 127.597 210.466 127.375 210.989 127.189L211.137 127.125C213.996 126.066 218.493 125.007 218.493 125.007L218.388 120.348H231.526L231.653 125.007Z" fill="#455A64"/>
<path d="M218.098 165.666L200.215 154.547C198.97 153.643 198.082 152.331 197.706 150.839C197.331 149.347 197.492 147.771 198.161 146.385L199.403 143.809L209.111 148.666L222.525 158.705L218.098 165.666Z" fill="#455A64"/>
<path d="M205.624 146.633C205.71 146.661 205.793 146.698 205.871 146.746L206.577 147.113L209.182 148.574C212.161 150.756 217.026 154.364 222.596 158.557L222.73 158.656L222.645 158.797L221.233 161.049C220.195 162.68 219.193 164.262 218.24 165.751L218.148 165.9L218 165.808L207.163 158.995L204.014 156.976L203.174 156.418C203.075 156.359 202.983 156.291 202.898 156.213C202.898 156.213 203.011 156.256 203.209 156.369L204.077 156.87L207.283 158.804L218.197 165.511L217.957 165.568C218.903 164.078 219.906 162.49 220.944 160.866L222.356 158.607L222.405 158.854C216.807 154.618 211.978 150.996 209.048 148.744L206.492 147.205L205.828 146.781C205.753 146.742 205.684 146.692 205.624 146.633Z" fill="#263238"/>
<path d="M231.911 165.456L249.794 154.337C251.038 153.434 251.924 152.122 252.3 150.632C252.675 149.142 252.516 147.567 251.848 146.182L250.606 143.605L240.898 148.463L227.484 158.509L231.911 165.456Z" fill="#455A64"/>
<path d="M244.381 146.426C244.316 146.49 244.242 146.544 244.162 146.588L243.499 147.005L240.943 148.551C238.013 150.796 233.177 154.453 227.586 158.654L227.628 158.414L229.04 160.666L232.026 165.375L231.786 165.318L242.687 158.611L245.892 156.684L246.761 156.176C246.857 156.111 246.962 156.059 247.071 156.02C246.986 156.102 246.891 156.174 246.789 156.232L245.956 156.783L242.807 158.802L231.97 165.615L231.822 165.707L231.73 165.558L228.786 160.856C228.299 160.08 227.811 159.317 227.374 158.597L227.289 158.456L227.423 158.357C233.029 154.164 237.893 150.556 240.872 148.381L243.478 146.92L244.184 146.546C244.245 146.498 244.311 146.458 244.381 146.426Z" fill="#263238"/>
<path d="M220.737 125.491C220.556 124.659 220.494 123.806 220.553 122.956C220.494 122.107 220.556 121.254 220.737 120.422C220.917 121.254 220.979 122.107 220.92 122.956C220.979 123.806 220.917 124.659 220.737 125.491Z" fill="#263238"/>
<path d="M223.588 125.491C223.408 124.659 223.346 123.806 223.405 122.956C223.345 122.107 223.407 121.254 223.588 120.422C223.769 121.254 223.831 122.107 223.772 122.956C223.83 123.806 223.768 124.659 223.588 125.491Z" fill="#263238"/>
<path d="M226.189 125.432C226.009 124.6 225.947 123.747 226.006 122.898C225.947 122.049 226.009 121.195 226.189 120.363C226.37 121.195 226.431 122.049 226.373 122.898C226.431 123.747 226.37 124.6 226.189 125.432Z" fill="#263238"/>
<path d="M229.072 125.432C228.892 124.6 228.83 123.747 228.889 122.898C228.83 122.049 228.892 121.195 229.072 120.363C229.253 121.195 229.314 122.049 229.256 122.898C229.314 123.747 229.253 124.6 229.072 125.432Z" fill="#263238"/>
<path d="M238.3 146.632H212.39L212.086 140.031H237.855L238.3 146.632Z" fill="#E0E0E0"/>
<path d="M211.919 147.732C211.835 146.985 211.809 146.232 211.841 145.48C211.841 144.103 211.841 142.176 211.898 140.016V140.086C211.792 139.818 211.686 139.535 211.573 139.253C210.705 137.043 209.935 135.017 209.399 133.605C209.13 132.899 208.919 132.285 208.777 131.875C208.687 131.666 208.626 131.445 208.594 131.219C208.725 131.404 208.832 131.606 208.911 131.819C209.088 132.221 209.335 132.793 209.617 133.513C210.218 134.925 211.029 136.937 211.891 139.161C211.997 139.444 212.11 139.726 212.216 139.994V140.03V140.065C212.166 142.225 212.103 144.146 212.039 145.529C212.056 146.266 212.016 147.002 211.919 147.732Z" fill="#263238"/>
<path d="M238.28 147.967C238.141 147.239 238.06 146.5 238.04 145.758C237.927 144.346 237.8 142.454 237.68 140.286V140.251V140.209C237.8 139.905 237.927 139.58 238.061 139.255C238.95 137.01 239.777 135.019 240.391 133.537C240.701 132.831 240.956 132.224 241.139 131.821C241.219 131.604 241.326 131.398 241.457 131.207C241.431 131.436 241.369 131.66 241.273 131.871C241.132 132.287 240.913 132.894 240.631 133.629C240.08 135.111 239.289 137.159 238.393 139.39C238.266 139.714 238.139 140.039 238.012 140.343V140.272C238.124 142.439 238.209 144.36 238.252 145.744C238.32 146.483 238.329 147.227 238.28 147.967Z" fill="#263238"/>
<path d="M219.338 163.891C217.677 163.044 216.132 161.986 214.742 160.742C215.601 161.105 216.408 161.58 217.143 162.154C217.947 162.634 218.686 163.218 219.338 163.891Z" fill="#263238"/>
<path d="M220.978 161.508C220.237 161.001 219.53 160.447 218.86 159.849C218.12 159.349 217.412 158.802 216.742 158.211C218.434 158.893 219.902 160.035 220.978 161.508Z" fill="#263238"/>
<path d="M232.568 158.234C231.371 159.19 230.026 159.944 228.586 160.465C229.15 159.947 229.79 159.518 230.485 159.195C231.127 158.771 231.829 158.447 232.568 158.234Z" fill="#263238"/>
<path d="M234.584 160.676C234.05 161.215 233.436 161.668 232.762 162.017C232.152 162.47 231.473 162.821 230.75 163.055C231.283 162.516 231.898 162.063 232.571 161.714C233.181 161.26 233.861 160.91 234.584 160.676Z" fill="#263238"/>
<path d="M140.772 215.371C140.357 215.828 139.906 216.251 139.424 216.635C138.555 217.398 137.306 218.464 135.851 219.706L135.689 219.84L135.59 219.65L133.995 216.564H134.326V216.6L133.126 219.65L133.034 219.883L132.858 219.72C131.375 218.407 130.112 217.27 129.222 216.452C128.734 216.043 128.278 215.597 127.859 215.117C128.388 215.474 128.89 215.868 129.363 216.296C130.288 217.066 131.58 218.167 133.084 219.459L132.808 219.53L133.987 216.473V216.43L134.136 216.049L134.319 216.409L135.894 219.508L135.632 219.459C137.115 218.238 138.386 217.207 139.29 216.487C139.754 216.077 140.25 215.704 140.772 215.371Z" fill="#263238"/>
<path d="M134.433 256.195C134.401 256.049 134.387 255.899 134.39 255.75C134.39 255.418 134.39 254.988 134.39 254.465C134.39 253.3 134.39 251.698 134.334 249.735C134.334 245.704 134.334 240.211 134.285 234.146C134.285 229.275 134.285 224.778 134.285 221.128H134.574C134.574 221.968 134.574 222.745 134.574 223.479H134.313C134.313 221.446 134.355 219.786 134.369 218.586C134.369 218.036 134.369 217.598 134.369 217.252C134.365 217.098 134.379 216.944 134.412 216.793C134.434 216.945 134.446 217.098 134.447 217.252C134.447 217.598 134.447 218.036 134.447 218.586C134.447 219.786 134.482 221.446 134.503 223.479H134.242C134.242 222.773 134.242 221.968 134.242 221.128H134.532C134.532 224.778 134.532 229.275 134.532 234.146C134.532 240.211 134.532 245.704 134.482 249.735C134.482 251.698 134.44 253.3 134.426 254.465C134.426 254.988 134.426 255.418 134.426 255.75C134.438 255.898 134.441 256.047 134.433 256.195Z" fill="#263238"/>
<path d="M158.722 230.785C158.342 231.151 157.918 231.466 157.458 231.724C156.653 232.254 155.502 232.946 154.196 233.631C152.89 234.315 151.669 234.866 150.772 235.226C150.304 235.461 149.805 235.63 149.29 235.727C149.247 235.629 151.408 234.675 154.027 233.306C156.646 231.936 158.658 230.701 158.722 230.785Z" fill="#263238"/>
<path d="M249.045 203.164H201.178C196.636 203.164 192.953 206.846 192.953 211.389V259.256C192.953 263.798 196.636 267.481 201.178 267.481H249.045C253.587 267.481 257.27 263.798 257.27 259.256V211.389C257.27 206.846 253.587 203.164 249.045 203.164Z" fill="#FAFAFA"/>
<path d="M249.046 267.483L249.675 267.433C250.283 267.375 250.883 267.257 251.468 267.08C252.414 266.765 253.298 266.287 254.08 265.668C255.147 264.827 255.986 263.732 256.523 262.484C256.837 261.741 257.043 260.956 257.137 260.155C257.208 259.322 257.18 258.418 257.18 257.486C257.18 255.603 257.18 253.572 257.18 251.393C257.18 247.023 257.18 242.046 257.18 236.567C257.18 231.089 257.18 225.045 257.18 218.578V213.636C257.144 211.97 257.321 210.247 256.692 208.659C256.103 207.037 255.012 205.645 253.579 204.684C252.092 203.71 250.334 203.235 248.559 203.329H201.257C199.208 203.332 197.236 204.117 195.745 205.523C194.253 206.929 193.354 208.851 193.23 210.897C193.181 214.964 193.23 219.009 193.23 222.955C193.23 230.87 193.23 238.487 193.23 245.78C193.23 249.419 193.23 252.96 193.23 256.406V258.976C193.21 259.805 193.312 260.633 193.534 261.432C193.974 262.996 194.875 264.39 196.118 265.435C196.727 265.936 197.402 266.351 198.123 266.671C198.836 266.969 199.587 267.168 200.354 267.264C201.109 267.342 201.886 267.32 202.655 267.328H204.78H213.415L239.466 267.384L246.526 267.419H248.369H248.997C248.997 267.419 248.785 267.419 248.369 267.419H246.526L239.466 267.455L213.415 267.511L204.78 267.617H202.507C201.744 267.617 200.968 267.617 200.17 267.561C199.375 267.46 198.596 267.256 197.854 266.953C197.096 266.621 196.384 266.191 195.736 265.676C194.445 264.59 193.51 263.141 193.054 261.517C192.819 260.693 192.709 259.839 192.729 258.983V256.413C192.729 252.968 192.729 249.426 192.729 245.787C192.729 238.516 192.729 230.877 192.729 222.963C192.729 219.002 192.729 214.992 192.729 210.883C192.857 208.744 193.796 206.735 195.354 205.266C196.913 203.796 198.974 202.977 201.116 202.976H248.418C250.258 202.884 252.08 203.378 253.621 204.388C255.112 205.388 256.243 206.841 256.848 208.532C257.153 209.35 257.317 210.214 257.335 211.088C257.335 211.942 257.335 212.782 257.335 213.615C257.335 215.291 257.335 216.938 257.335 218.557C257.335 225.024 257.335 231.046 257.335 236.546C257.335 242.046 257.335 247.023 257.335 251.372C257.335 253.561 257.335 255.608 257.335 257.465C257.335 258.397 257.335 259.293 257.271 260.155C257.17 260.969 256.957 261.765 256.636 262.52C256.155 263.612 255.444 264.587 254.552 265.38C253.661 266.173 252.609 266.765 251.468 267.116C250.876 267.284 250.268 267.391 249.654 267.433L249.046 267.483Z" fill="#E0E0E0"/>
<path d="M254.202 247.237C254.202 247.237 244.155 220.035 243.132 218.997C242.398 218.386 241.58 217.884 240.703 217.508C240.208 217.252 239.696 217.031 239.171 216.844L239.065 216.802C236.199 215.75 231.709 214.684 231.709 214.684C231.709 214.684 230.565 218.581 225.122 218.863C219.685 218.581 218.542 214.684 218.542 214.684C218.542 214.684 214.052 215.778 211.185 216.802L211.079 216.844C210.554 217.031 210.042 217.252 209.547 217.508C208.67 217.884 207.852 218.386 207.119 218.997C206.095 220.014 196.797 247.534 196.797 247.534L204.782 250.294L212.11 231.606L211.404 255.928H238.938L238.112 231.606L246.648 251.036L254.202 247.237Z" fill="#4F18A2"/>
<path d="M240.327 224.548C240.327 224.653 233.563 224.731 225.219 224.731C216.874 224.731 210.117 224.653 210.117 224.548C210.117 224.442 216.874 224.371 225.219 224.371C233.563 224.371 240.327 224.463 240.327 224.548Z" fill="white"/>
<path d="M238.195 233.898C237.86 233.956 237.519 233.98 237.179 233.969L234.397 234.025C232.053 234.061 228.813 234.082 225.219 234.082C221.626 234.082 218.399 234.082 216.041 234.025L213.267 233.969C212.926 233.98 212.586 233.956 212.25 233.898C212.586 233.845 212.926 233.822 213.267 233.828L216.041 233.771C218.385 233.736 221.626 233.715 225.219 233.715C228.813 233.715 232.039 233.715 234.397 233.771L237.179 233.828C237.519 233.822 237.859 233.845 238.195 233.898Z" fill="white"/>
<path d="M238.195 242.75C237.859 242.803 237.519 242.827 237.179 242.821L234.397 242.877C232.053 242.877 228.813 242.926 225.219 242.926C221.626 242.926 218.399 242.926 216.041 242.877L213.267 242.821C212.926 242.827 212.586 242.803 212.25 242.75C212.586 242.692 212.926 242.669 213.267 242.679L216.041 242.616C218.385 242.616 221.626 242.566 225.219 242.566C228.813 242.566 232.039 242.566 234.397 242.616L237.179 242.679C237.519 242.669 237.86 242.692 238.195 242.75Z" fill="white"/>
<path d="M238.195 251.598C237.86 251.655 237.519 251.679 237.179 251.668L234.397 251.725C232.053 251.76 228.813 251.781 225.219 251.781C221.626 251.781 218.399 251.781 216.041 251.725L213.267 251.668C212.926 251.679 212.586 251.655 212.25 251.598C212.586 251.54 212.926 251.516 213.267 251.527L216.041 251.471C218.385 251.435 221.626 251.414 225.219 251.414C228.813 251.414 232.039 251.414 234.397 251.471L237.179 251.527C237.519 251.516 237.86 251.54 238.195 251.598Z" fill="white"/>
<path d="M212.114 237.663C212.03 236.925 212.005 236.181 212.036 235.439C212.036 234.062 212.036 232.135 212.093 229.967V230.038L211.705 229.078C210.815 226.84 210.024 224.799 209.474 223.324C209.191 222.583 208.972 221.983 208.831 221.566C208.742 221.353 208.678 221.13 208.641 220.902C208.641 220.902 208.782 221.107 208.965 221.51C209.149 221.912 209.403 222.498 209.707 223.225C210.328 224.679 211.154 226.699 212.044 228.944C212.178 229.268 212.305 229.593 212.425 229.904V229.939V229.974C212.375 232.142 212.312 234.062 212.248 235.446C212.259 236.187 212.214 236.928 212.114 237.663Z" fill="#263238"/>
<path d="M238.065 237.656C237.946 236.923 237.89 236.181 237.895 235.439C237.832 234.027 237.768 232.135 237.719 229.967V229.932V229.897C237.839 229.586 237.966 229.261 238.1 228.937C238.99 226.691 239.823 224.701 240.437 223.218C240.74 222.512 240.995 221.905 241.178 221.502C241.362 221.1 241.475 220.881 241.503 220.895C241.465 221.123 241.401 221.346 241.312 221.559C241.171 221.975 240.952 222.575 240.677 223.317C240.119 224.792 239.328 226.847 238.439 229.071L238.051 230.031V229.96C238.093 232.128 238.114 234.055 238.107 235.432C238.148 236.173 238.134 236.916 238.065 237.656Z" fill="#263238"/>
<path d="M247.563 229.871C246.244 230.683 244.863 231.391 243.433 231.989C242.05 232.697 240.615 233.299 239.141 233.789C240.462 232.976 241.846 232.268 243.278 231.671C244.656 230.959 246.089 230.357 247.563 229.871Z" fill="white"/>
<path d="M250.575 237.828C249.308 238.596 247.981 239.262 246.607 239.819C245.281 240.489 243.902 241.049 242.484 241.492C243.752 240.724 245.079 240.058 246.452 239.501C247.778 238.831 249.157 238.272 250.575 237.828Z" fill="white"/>
<path d="M211.14 233.45C208.406 232.166 205.78 230.662 203.289 228.953C204.681 229.554 206.024 230.262 207.306 231.071C208.645 231.762 209.927 232.558 211.14 233.45Z" fill="white"/>
<path d="M208.068 241.874C205.299 240.877 202.618 239.649 200.055 238.203C201.459 238.647 202.824 239.206 204.135 239.876C205.5 240.431 206.815 241.099 208.068 241.874Z" fill="white"/>
<path d="M222.664 228.08C223.418 227.957 224.181 227.907 224.944 227.932L224.796 228.08C224.796 227.148 224.761 225.962 224.761 224.72C224.761 223.16 224.761 221.755 224.81 220.731C224.789 220.179 224.834 219.627 224.944 219.086C225.045 219.628 225.088 220.18 225.072 220.731C225.072 221.755 225.121 223.16 225.121 224.72C225.121 225.984 225.121 227.148 225.086 228.08V228.229H224.944C224.181 228.251 223.418 228.201 222.664 228.08Z" fill="#263238"/>
<path d="M223.899 222.552C223.9 222.675 223.865 222.796 223.797 222.9C223.729 223.003 223.632 223.084 223.519 223.131C223.405 223.179 223.279 223.192 223.158 223.168C223.037 223.145 222.926 223.085 222.838 222.998C222.751 222.911 222.692 222.799 222.668 222.678C222.644 222.557 222.657 222.432 222.705 222.318C222.753 222.204 222.834 222.107 222.937 222.039C223.04 221.972 223.161 221.936 223.285 221.938C223.447 221.938 223.604 222.002 223.719 222.117C223.834 222.233 223.899 222.389 223.899 222.552Z" fill="#E0E0E0"/>
<path d="M223.899 226.371C223.899 226.494 223.862 226.615 223.794 226.717C223.725 226.82 223.628 226.899 223.514 226.946C223.4 226.993 223.274 227.005 223.154 226.98C223.033 226.956 222.922 226.896 222.836 226.808C222.749 226.72 222.691 226.609 222.667 226.488C222.644 226.367 222.657 226.242 222.706 226.129C222.754 226.015 222.834 225.919 222.938 225.851C223.041 225.784 223.161 225.749 223.285 225.75C223.366 225.75 223.446 225.766 223.521 225.797C223.596 225.829 223.664 225.875 223.721 225.932C223.779 225.99 223.824 226.059 223.854 226.134C223.885 226.209 223.9 226.29 223.899 226.371Z" fill="#E0E0E0"/>
<path d="M48.5992 123.63V149.427C48.5992 153.811 53.8589 161.676 60.7989 161.366H61.3636C67.3576 160.66 63.9476 153.515 63.9476 149.42C63.9476 147.479 63.9476 145.855 63.9476 145.657C63.9476 145.657 70.5205 145.043 71.0076 138.548C71.2406 135.406 71.1912 128.897 71.0782 123.016C71.0182 119.967 69.8126 117.052 67.7011 114.852C65.5897 112.651 62.7273 111.327 59.6834 111.141L59.055 111.106C52.2421 111.084 48.4297 116.838 48.5992 123.63Z" fill="#FFBF9D"/>
<path d="M63.9424 145.66C60.9417 145.474 58.0574 144.43 55.6328 142.652C55.6328 142.652 57.4049 147.531 63.9283 147.34L63.9424 145.66Z" fill="#FF9A6C"/>
<path d="M59.9858 125.803C59.8587 125.937 59.1033 125.344 58.016 125.33C56.9288 125.316 56.124 125.853 56.0039 125.718C55.8839 125.584 56.0816 125.415 56.4346 125.161C56.9068 124.834 57.4704 124.666 58.0443 124.681C58.6127 124.689 59.163 124.882 59.6116 125.231C59.9434 125.5 60.0564 125.747 59.9858 125.803Z" fill="#263238"/>
<path d="M60.14 128.835C60.1255 129.063 60.0235 129.277 59.8552 129.433C59.6869 129.588 59.4652 129.672 59.2363 129.668C59.1239 129.67 59.0122 129.649 58.9078 129.608C58.8033 129.566 58.7083 129.504 58.6281 129.425C58.5479 129.346 58.4843 129.252 58.4408 129.148C58.3974 129.045 58.375 128.933 58.375 128.821C58.3877 128.591 58.489 128.375 58.6575 128.219C58.826 128.062 59.0486 127.977 59.2787 127.981C59.3915 127.98 59.5033 128.001 59.6078 128.044C59.7122 128.086 59.8072 128.149 59.8873 128.228C59.9674 128.308 60.0309 128.402 60.0743 128.506C60.1177 128.61 60.14 128.722 60.14 128.835Z" fill="#263238"/>
<path d="M62.8047 133.34C63.3405 133.207 63.8906 133.141 64.4426 133.142C64.7038 133.142 64.9439 133.1 65.0003 132.93C65.0369 132.667 64.9926 132.399 64.8733 132.161C64.6756 131.525 64.4638 130.862 64.2379 130.17C63.3624 127.346 62.7411 125.016 62.8259 124.981C62.9106 124.946 63.7507 127.219 64.6262 130.05C64.838 130.756 65.0356 131.413 65.2263 132.048C65.3737 132.364 65.3989 132.724 65.2969 133.058C65.2546 133.144 65.1933 133.221 65.1175 133.28C65.0417 133.34 64.9534 133.382 64.8592 133.403C64.7139 133.423 64.5667 133.423 64.4214 133.403C63.882 133.45 63.3388 133.428 62.8047 133.34Z" fill="#263238"/>
<path d="M59.479 122.268C59.3802 122.508 58.5047 122.339 57.4598 122.402C56.415 122.466 55.5678 122.706 55.4407 122.48C55.3842 122.367 55.5466 122.141 55.8996 121.922C56.3648 121.658 56.8852 121.506 57.4195 121.477C57.9538 121.449 58.4873 121.546 58.9777 121.76C59.3519 121.943 59.5214 122.176 59.479 122.268Z" fill="#263238"/>
<path d="M69.8332 123.159C69.7203 123.357 68.866 123.159 67.8423 123.159C66.8186 123.159 65.9573 123.279 65.8443 123.074C65.7949 122.982 65.9644 122.799 66.3244 122.643C66.804 122.442 67.3227 122.35 67.8423 122.375C68.3679 122.381 68.8859 122.502 69.3602 122.728C69.7132 122.883 69.8827 123.067 69.8332 123.159Z" fill="#263238"/>
<path d="M48.8414 128.478C48.7284 128.421 44.45 126.882 44.323 131.337C44.1959 135.792 48.686 135.001 48.7002 134.867C48.7143 134.733 48.8414 128.478 48.8414 128.478Z" fill="#FFBF9D"/>
<path d="M47.3869 133.142C47.3869 133.142 47.3092 133.198 47.1751 133.255C46.9887 133.326 46.7826 133.326 46.5962 133.255C46.3142 133.063 46.088 132.8 45.9404 132.493C45.7929 132.185 45.7293 131.844 45.756 131.504C45.7558 131.122 45.8427 130.746 46.0102 130.403C46.0542 130.264 46.1321 130.138 46.2369 130.037C46.3417 129.936 46.47 129.863 46.6103 129.824C46.7002 129.801 46.7951 129.812 46.878 129.853C46.9608 129.895 47.0261 129.964 47.0621 130.05C47.1186 130.177 47.0621 130.261 47.1115 130.269C47.161 130.276 47.2104 130.198 47.1751 130.014C47.1561 129.904 47.0985 129.804 47.0127 129.732C46.9528 129.683 46.8839 129.647 46.81 129.626C46.7361 129.604 46.6586 129.597 46.582 129.605C46.3989 129.635 46.2267 129.712 46.0821 129.828C45.9374 129.945 45.8251 130.096 45.756 130.269C45.5526 130.649 45.4459 131.073 45.4454 131.504C45.4101 131.902 45.4939 132.302 45.6862 132.653C45.8785 133.004 46.1707 133.289 46.5256 133.474C46.6428 133.511 46.7668 133.522 46.8888 133.506C47.0107 133.49 47.1278 133.448 47.2316 133.382C47.3516 133.255 47.401 133.156 47.3869 133.142Z" fill="#FF9A6C"/>
<path d="M42.8303 121.331C43.741 119.75 43.9387 117.872 44.4188 116.114C44.8988 114.356 45.8308 112.535 47.5746 111.878H47.6169C49.149 111.243 51.0552 111.172 52.333 112.266C52.6154 109.951 54.6275 108.094 56.8797 107.473C59.5642 106.917 62.3496 107.105 64.9351 108.016C66.6154 108.666 68.2533 110.028 70.2442 112.041C71.0884 112.881 71.8584 113.793 72.5458 114.766L74.5861 120.809L72.9412 124.007C72.8423 124.226 72.7364 124.445 72.6164 124.657L71.2044 131.378C71.0844 129.556 71.1409 123.195 71.0279 121.367C69.6521 121.341 68.2956 121.038 67.04 120.475C65.7843 119.912 64.6554 119.101 63.7208 118.091C62.7112 116.997 61.9064 115.62 60.565 114.977C58.8353 114.144 56.7879 114.787 54.9805 115.443L55.0582 115.373C54.1034 115.822 53.2469 116.455 52.5378 117.237C52.9931 120.843 52.6681 124.505 51.5847 127.975C51.4223 128.497 50.9704 129.57 50.4621 129.768C49.4667 130.171 49.1843 129.154 48.5771 128.617C48.0399 128.263 47.3939 128.113 46.7556 128.194C46.2282 126.688 45.7944 125.15 45.4566 123.591C44.8528 123.784 44.2124 123.835 43.5857 123.739C43.7763 123.28 43.9599 122.821 44.1434 122.327C43.9088 122.505 43.6394 122.633 43.3527 122.701C43.2076 122.734 43.0557 122.721 42.9188 122.662C42.7819 122.604 42.6669 122.504 42.5902 122.376C42.4067 122.059 42.6396 121.663 42.8303 121.331Z" fill="#263238"/>
<path d="M54.4105 113C54.1828 113.188 53.9682 113.39 53.7681 113.607C53.2451 114.245 52.9015 115.01 52.7726 115.824C52.666 116.368 52.6163 116.922 52.6243 117.476C52.6243 118.076 52.6808 118.712 52.7373 119.389C52.804 120.093 52.8276 120.801 52.8079 121.507C52.7942 121.887 52.7493 122.265 52.6738 122.637C52.6201 123.033 52.4671 123.41 52.229 123.731C52.1178 123.859 51.9754 123.955 51.8157 124.011C51.656 124.066 51.4846 124.08 51.3182 124.049C50.9979 123.996 50.7046 123.836 50.4852 123.597C50.1273 123.116 49.9054 122.548 49.8427 121.952H49.9768C49.7854 122.442 49.5264 122.903 49.2073 123.322C48.8945 123.71 48.4446 123.962 47.9506 124.028C47.7215 124.058 47.4886 124.021 47.2799 123.922C47.0838 123.83 46.9189 123.683 46.8059 123.499C46.6929 123.314 46.6367 123.1 46.6445 122.884C46.6494 122.695 46.7221 122.515 46.8493 122.376L46.9199 122.432C46.5295 122.883 46.0483 123.246 45.5079 123.498C45.3685 123.565 45.2246 123.622 45.0772 123.668L44.9219 123.71L45.0631 123.646C45.1619 123.604 45.3031 123.548 45.4867 123.456C45.9956 123.183 46.4484 122.817 46.821 122.376L46.8846 122.439C46.7855 122.58 46.7323 122.747 46.7323 122.919C46.7323 123.091 46.7855 123.259 46.8846 123.399C46.9809 123.57 47.1259 123.707 47.3011 123.795C47.4916 123.879 47.7013 123.911 47.9083 123.887C48.373 123.81 48.7903 123.557 49.0732 123.181C49.3846 122.773 49.6366 122.324 49.8215 121.846L49.9062 121.634L49.9557 121.86C50.0184 122.428 50.2303 122.969 50.5699 123.428C50.7653 123.642 51.0258 123.786 51.3112 123.837C51.4528 123.864 51.599 123.853 51.7352 123.806C51.8714 123.759 51.993 123.677 52.0878 123.569C52.3086 123.268 52.4494 122.915 52.4973 122.545C52.5728 122.18 52.6177 121.809 52.6314 121.437C52.6536 120.73 52.6324 120.023 52.5679 119.319C52.5184 118.613 52.469 118.006 52.469 117.398C52.4675 116.836 52.5243 116.276 52.6385 115.725C52.7798 114.916 53.1358 114.161 53.6692 113.537C53.8839 113.317 54.1346 113.135 54.4105 113Z" fill="#455A64"/>
<path d="M74.548 119.118L74.4985 119.16L74.3362 119.28C74.2491 119.346 74.157 119.405 74.0608 119.457C73.9355 119.539 73.8032 119.609 73.6655 119.668C72.8001 120.077 71.8461 120.261 70.8909 120.205C69.471 120.125 68.1049 119.634 66.9585 118.793C65.5865 117.756 64.4386 116.452 63.5838 114.959C63.0966 114.176 62.7013 113.378 62.2706 112.637C61.8649 111.913 61.3559 111.251 60.7598 110.674C60.2337 110.153 59.5857 109.772 58.8748 109.566C58.5529 109.478 58.2194 109.443 57.8864 109.46C57.5809 109.482 57.2796 109.544 56.9898 109.643C56.4865 109.823 56.0269 110.106 55.6413 110.476C55.3555 110.756 55.1171 111.08 54.9353 111.436C54.7888 111.747 54.6798 112.074 54.6105 112.411C54.609 112.39 54.609 112.368 54.6105 112.347V112.142C54.6615 111.899 54.7396 111.662 54.8435 111.436C55.0231 111.068 55.2616 110.732 55.5495 110.441C55.9384 110.056 56.4055 109.76 56.9191 109.573C57.5455 109.341 58.2271 109.304 58.8748 109.467C59.6085 109.678 60.2781 110.069 60.8233 110.603C61.4188 111.188 61.9255 111.856 62.3271 112.587C62.7648 113.336 63.1602 114.133 63.6403 114.91C64.4942 116.391 65.637 117.685 67.0008 118.715C68.1279 119.543 69.4674 120.033 70.8626 120.127C71.8035 120.192 72.746 120.027 73.609 119.647C74.2514 119.358 74.5338 119.097 74.548 119.118Z" fill="#455A64"/>
<path d="M69.9369 126.099C69.8098 126.234 69.0544 125.641 67.9601 125.619C66.8658 125.598 66.068 126.149 65.9551 126.008C65.8421 125.866 66.0257 125.704 66.3787 125.457C66.8463 125.146 67.3989 124.988 67.9601 125.005C68.5286 125.013 69.0788 125.207 69.5274 125.556C69.8593 125.796 69.9722 126.043 69.9369 126.099Z" fill="#263238"/>
<path d="M68.9291 128.835C68.9146 129.063 68.8125 129.277 68.6442 129.433C68.4759 129.588 68.2543 129.672 68.0254 129.668C67.9129 129.67 67.8013 129.649 67.6968 129.608C67.5924 129.566 67.4973 129.504 67.4172 129.425C67.337 129.346 67.2733 129.252 67.2299 129.148C67.1864 129.045 67.164 128.933 67.1641 128.821C67.1768 128.591 67.2781 128.375 67.4466 128.219C67.6151 128.062 67.8377 127.977 68.0677 127.981C68.1805 127.98 68.2924 128.001 68.3968 128.044C68.5013 128.086 68.5963 128.149 68.6764 128.228C68.7564 128.308 68.82 128.402 68.8634 128.506C68.9067 128.61 68.9291 128.722 68.9291 128.835Z" fill="#263238"/>
<path d="M71.9911 114.059C72.241 114.448 72.583 114.771 72.9868 114.997C73.3906 115.224 73.8439 115.348 74.3068 115.358C74.6358 115.288 74.9591 115.193 75.274 115.075C75.5917 115.266 75.5141 116.353 75.274 116.657C75.0586 116.911 74.8224 117.147 74.568 117.363C75.6411 117.935 76.6084 117.652 77.7521 117.236C77.6386 118.208 77.2717 119.133 76.6881 119.918C76.1045 120.704 75.3247 121.322 74.4268 121.712C74.1494 121.854 73.842 121.928 73.5302 121.928C73.2183 121.928 72.911 121.854 72.6336 121.712C72.2073 121.354 71.9283 120.851 71.8499 120.3C71.3616 118.375 71.1103 116.397 71.1016 114.412L71.9911 114.059Z" fill="#263238"/>
<path d="M62.8066 136.133C62.8066 136.189 62.6089 136.331 62.2065 136.394C61.6701 136.464 61.1256 136.353 60.6604 136.076C60.1929 135.804 59.832 135.381 59.6367 134.876C59.4884 134.495 59.5096 134.241 59.5661 134.227C59.6225 134.213 59.9473 135.137 60.8863 135.695C61.4926 135.962 62.1444 136.111 62.8066 136.133Z" fill="#263238"/>
<path d="M67.6875 320.52V334.498L96.457 334.364C96.2452 331.54 80.459 325.892 80.459 325.892L80.7697 320.541L67.6875 320.52Z" fill="#455A64"/>
<g opacity="0.6">
<path d="M72.3366 324.613C72.0556 324.711 71.8205 324.91 71.676 325.17C71.5315 325.43 71.4877 325.735 71.5529 326.025C71.6233 326.308 71.8016 326.552 72.0496 326.705C72.2977 326.858 72.5958 326.908 72.8802 326.844C73.1737 326.738 73.419 326.53 73.5708 326.257C73.7226 325.985 73.7707 325.667 73.7062 325.361C73.6039 325.072 73.3911 324.836 73.1144 324.703C72.8378 324.571 72.52 324.554 72.2307 324.655" fill="white"/>
</g>
<path d="M67.6875 334.5V332.27L95.1509 332.587C95.1509 332.587 96.5629 333.427 96.457 334.366L67.6875 334.5Z" fill="#263238"/>
<path d="M80.4565 326.143C80.4565 326.291 79.7505 326.369 79.0445 326.849C78.3385 327.329 78.0067 327.943 77.8796 327.887C77.7525 327.83 77.9431 326.99 78.7762 326.425C79.6093 325.861 80.4847 326.009 80.4565 326.143Z" fill="#263238"/>
<path d="M84.2299 327.439C84.2299 327.574 83.658 327.835 83.1921 328.449C82.7261 329.063 82.599 329.727 82.4861 329.72C82.3731 329.713 82.246 328.894 82.8391 328.138C83.4321 327.383 84.2228 327.298 84.2299 327.439Z" fill="#263238"/>
<path d="M85.9221 331C85.7951 331.035 85.5903 330.294 85.9221 329.51C86.254 328.727 86.9176 328.388 86.9811 328.508C87.0447 328.628 86.6423 329.059 86.3669 329.722C86.0916 330.386 86.0563 330.986 85.9221 331Z" fill="#263238"/>
<path d="M80.1731 322.167C80.1166 322.301 79.4671 322.111 78.6834 322.167C77.8998 322.224 77.2714 322.499 77.2079 322.379C77.1443 322.259 77.7233 321.729 78.6199 321.673C79.5165 321.616 80.2437 322.054 80.1731 322.167Z" fill="#263238"/>
<path d="M80.3371 326.768C80.4163 326.491 80.4379 326.2 80.4007 325.914C80.3375 325.127 80.0751 324.369 79.6382 323.711C79.3372 323.256 78.9541 322.861 78.5086 322.547C78.3751 322.438 78.2159 322.366 78.0464 322.338C77.8769 322.31 77.7029 322.325 77.5414 322.384C77.3727 322.471 77.231 322.603 77.1315 322.765C77.032 322.926 76.9784 323.112 76.9766 323.302C77.0239 324.037 77.2899 324.741 77.7403 325.323C78.1906 325.905 78.8049 326.34 79.504 326.571C80.1904 326.788 80.9258 326.797 81.6171 326.596C82.3083 326.394 82.9244 325.993 83.387 325.441C83.6163 325.193 83.7917 324.899 83.9024 324.58C83.9589 324.398 83.9589 324.204 83.9024 324.022C83.8677 323.931 83.8147 323.849 83.7467 323.78C83.6787 323.71 83.5971 323.656 83.5071 323.62C83.2082 323.534 82.888 323.564 82.6104 323.704C81.6794 324.147 80.8809 324.826 80.2948 325.674C80.1169 325.896 79.9827 326.15 79.8994 326.422C80.4911 325.587 81.2333 324.868 82.088 324.304C82.4763 324.093 82.9776 323.782 83.387 323.916C83.4776 323.964 83.5454 324.046 83.5759 324.144C83.6063 324.242 83.5968 324.348 83.5494 324.439C83.4473 324.702 83.2937 324.942 83.0976 325.145C82.6781 325.63 82.1257 325.982 81.5086 326.158C80.8914 326.334 80.2364 326.325 79.6241 326.133C79.013 325.931 78.4731 325.557 78.0688 325.056C77.6644 324.555 77.4127 323.949 77.3437 323.309C77.343 323.187 77.3738 323.067 77.4332 322.961C77.4926 322.854 77.5785 322.765 77.6826 322.702C77.7915 322.666 77.908 322.658 78.0206 322.681C78.1332 322.703 78.2381 322.754 78.325 322.829C78.74 323.108 79.1011 323.459 79.3911 323.867C79.8286 324.473 80.1165 325.175 80.2312 325.914C80.3159 326.465 80.3018 326.768 80.3371 326.768Z" fill="#263238"/>
<path d="M54.3218 321.227V325.745L53.997 333.857L43.2164 334.118L42.8281 325.745L43.1458 320.641L54.3218 321.227Z" fill="#455A64"/>
<path d="M48.6627 333.274C48.5991 333.274 48.7544 330.789 49.0086 327.725C49.2628 324.661 49.531 322.176 49.5946 322.176C49.6581 322.176 49.5028 324.654 49.2486 327.718C48.9945 330.782 48.7544 333.274 48.6627 333.274Z" fill="#263238"/>
<path d="M54.042 332.512L43.1484 332.632V334.121L54.0491 334.107L54.042 332.512Z" fill="#263238"/>
<path d="M43.1719 327.84C43.2384 327.681 43.3315 327.536 43.4472 327.409C43.735 327.045 44.0564 326.709 44.4074 326.406C44.9324 325.944 45.5193 325.556 46.1512 325.256C47.2574 324.725 48.5027 324.558 49.7096 324.777C50.9165 324.997 52.0233 325.592 52.8723 326.477C53.1867 326.819 53.4505 327.204 53.656 327.621C53.7435 327.769 53.8034 327.931 53.8325 328.101C53.4983 327.578 53.1204 327.084 52.7029 326.625C51.6171 325.578 50.1659 324.996 48.6575 325.001C47.152 325.043 45.7055 325.596 44.5556 326.569C43.652 327.296 43.2142 327.875 43.1719 327.84Z" fill="#263238"/>
<path d="M78.6016 215.778L77.3449 213.809L37.0464 215.701C36.2343 220.054 35.8372 224.475 35.8603 228.903C35.8603 232.433 37.5971 239.662 37.5971 239.662L39.5104 278.584C39.8845 282.114 40.1669 324.474 40.1669 324.474H56.1367L59.3984 265.396C59.7373 258.816 59.4902 248.854 59.822 241.576L65.3076 263.864L68.8376 279.092C68.8376 279.092 68.1316 285.319 67.4256 293.968C66.3737 306.217 66.2819 323.966 66.2819 323.966L82.6823 324.227C82.6823 324.227 84.9556 303.301 86.7347 291.08L88.2667 276.494C88.2667 274.059 87.2077 268.093 87.0171 267.112L78.6016 215.778Z" fill="#263238"/>
<path d="M63.4014 242.907C63.1598 242.844 62.9237 242.761 62.6954 242.66C62.4624 242.569 62.1729 242.456 61.8552 242.3C61.5375 242.145 61.1492 241.983 60.7821 241.75C60.415 241.517 59.9631 241.284 59.5254 240.98C59.0877 240.676 58.6359 240.345 58.1699 239.978C56.1625 238.344 54.5117 236.316 53.3197 234.019C53.0655 233.475 52.8043 232.974 52.6137 232.48C52.4231 231.986 52.2536 231.527 52.1195 231.068C51.9853 230.609 51.8936 230.242 51.8088 229.896C51.7374 229.6 51.6809 229.301 51.6394 228.999C51.5911 228.743 51.5628 228.483 51.5547 228.223C51.6182 228.223 51.7594 229.317 52.3242 231.004C52.4654 231.421 52.6278 231.88 52.8396 232.353C53.0514 232.826 53.2985 233.334 53.5456 233.857C54.1571 234.973 54.8658 236.034 55.6636 237.026C56.4723 238.009 57.3678 238.916 58.3393 239.738C58.7982 240.105 59.2289 240.444 59.6596 240.747C60.0902 241.051 60.4997 241.305 60.8809 241.538C62.3777 242.491 63.4225 242.865 63.4014 242.907Z" fill="#455A64"/>
<path d="M112.492 160.306C113.003 159.116 113.578 157.954 114.215 156.826C114.653 156.24 116.629 154.002 116.629 154.002C116.629 154.002 120.597 152.166 121.24 152.35C121.624 152.457 121.994 152.611 122.341 152.809L127.876 148.933C127.876 148.933 129.175 148.227 129.683 149.025C130.192 149.822 129.493 150.38 129.196 150.74C128.9 151.1 124.882 154.545 124.882 154.545L124.734 154.814C124.734 154.814 126.231 155.28 126.238 156.092C126.195 156.7 126.011 157.289 125.701 157.814C125.925 157.994 126.089 158.237 126.171 158.512C126.253 158.787 126.249 159.081 126.16 159.353L125.864 160.349C126.12 160.523 126.326 160.761 126.459 161.04C126.593 161.319 126.651 161.629 126.626 161.937C126.478 162.933 124.106 164.648 124.106 164.648C124.106 164.648 119.792 166.569 118.896 166.653C117.999 166.738 115.966 167.253 115.966 167.253L112.492 160.306Z" fill="#FFBF9D"/>
<path d="M123.541 151.965C123.239 152.263 122.905 152.528 122.546 152.756C121.717 153.375 120.819 153.896 119.87 154.309C118.889 154.57 117.933 154.915 117.011 155.34C116.66 155.557 116.337 155.818 116.051 156.116C116.015 156.116 116.22 155.608 116.905 155.156C117.798 154.671 118.746 154.294 119.729 154.033C120.655 153.624 121.546 153.138 122.391 152.579C122.748 152.328 123.134 152.122 123.541 151.965Z" fill="#FF9A6C"/>
<path d="M124.853 154.655C124.889 154.655 124.853 154.818 124.698 154.959C124.504 155.129 124.285 155.27 124.049 155.375C123.505 155.622 123.053 155.742 123.018 155.672C122.982 155.601 123.392 155.34 123.921 155.1C124.183 154.98 124.409 154.874 124.571 154.789C124.733 154.705 124.818 154.613 124.853 154.655Z" fill="#FF9A6C"/>
<path d="M125.71 157.655C125.766 157.711 125.59 158.001 125.265 158.269C124.94 158.537 124.629 158.657 124.559 158.587C124.488 158.516 124.742 158.29 125.046 158.036C125.349 157.782 125.667 157.598 125.71 157.655Z" fill="#FF9A6C"/>
<path d="M126.028 160.147C126.105 160.147 126.028 160.599 125.59 160.924C125.152 161.249 124.757 161.277 124.743 161.199C124.728 161.122 125.067 160.973 125.399 160.691C125.731 160.409 125.95 160.112 126.028 160.147Z" fill="#FF9A6C"/>
<path d="M112.686 159.723L105.266 164.523L108.21 174.069L117.649 166.218L117.077 161.954L112.686 159.723Z" fill="#FFBF9D"/>
<path d="M32.8303 161.809C32.8303 161.809 28.0225 189.103 28.2837 191.651C28.5449 194.2 29.3145 197.843 32.6962 198.958C34.5102 199.506 36.4455 199.506 38.2595 198.958L39.5303 182.784L34.7789 165.437L32.8303 161.809Z" fill="#FFBF9D"/>
<path d="M70.2764 149.478L74.0535 151.441L76.3339 172.783L77.0822 180.02L78.2613 200.106C78.6143 201.849 80.2875 220.389 80.2875 220.389L35.16 221.469C35.866 221.264 36.4802 213.371 36.8967 211.677L38.2311 199.915L36.8967 183.077C36.8967 183.077 32.2089 162.532 32.8302 160.908C33.4514 159.285 36.4449 155.515 42.3047 151.399C44.6415 149.754 48.0303 147.699 48.0303 147.699L63.4776 147.777L70.2764 149.478Z" fill="#455A64"/>
<path d="M94.8497 170.381C94.8497 170.381 84.7328 161.436 80.9345 157.673C76.6985 153.437 73.698 151.319 72.3848 151.234C72.0106 151.234 68.0076 153.352 68.0076 153.352C68.0076 153.352 66.9698 154.546 65.1836 160.61C63.3974 166.675 73.7545 170.628 73.7545 170.628L78.6965 175.57C79.6354 176.424 86.5825 182.63 91.6586 184.621C93.0143 185.149 94.4884 185.296 95.9218 185.048C97.3552 184.799 98.6933 184.163 99.7917 183.209L115.324 168.214C112.937 161.789 112.697 159.777 112.697 159.777" fill="#FFBF9D"/>
<path d="M32.8319 160.91L28.25 184.102L39.5036 186.291L36.722 161.235L32.8319 160.91Z" fill="#455A64"/>
<path d="M34.6399 161.648C34.7388 161.648 35.5789 169.958 36.5038 180.23C37.4286 190.503 38.1135 198.833 38.0146 198.841C37.9158 198.848 37.0756 190.531 36.1437 180.259C35.2118 169.986 34.5129 161.655 34.6399 161.648Z" fill="#263238"/>
<path d="M64.0692 164.757L80.3072 178.369L90.4948 164.404C90.4948 164.404 78.1892 153.63 75.2593 152.063C71.6375 150.129 68.9053 148.695 66.0813 152.148C64.5934 153.847 63.6153 155.932 63.2593 158.163C62.9034 160.393 63.1841 162.679 64.0692 164.757Z" fill="#455A64"/>
<path d="M80.2928 178.371C80.177 178.313 80.0681 178.242 79.9681 178.159L79.0856 177.489L75.8874 174.982L65.3892 166.567L65.1844 166.334C63.5326 164.362 62.6788 161.844 62.7911 159.274C62.8725 157.18 63.6305 155.168 64.9514 153.541C65.8266 152.449 66.943 151.574 68.2132 150.985C68.556 150.824 68.9128 150.694 69.2792 150.597C69.4021 150.554 69.5304 150.528 69.6605 150.52C69.6605 150.555 69.1451 150.682 68.2485 151.113C67.0281 151.733 65.9619 152.618 65.1279 153.704C63.8709 155.299 63.1605 157.257 63.1017 159.288C63.0077 161.773 63.8377 164.206 65.4315 166.115L65.6221 166.334L76.0498 174.806L79.1773 177.411L80.0104 178.117C80.114 178.191 80.2087 178.276 80.2928 178.371Z" fill="#263238"/>
<g opacity="0.3">
<path d="M65.5 166.426C65.5 166.426 69.0653 173.225 77.0855 180.023L76.6054 175.399L65.5 166.426Z" fill="black"/>
</g>
<path d="M62.4321 196.672C62.202 196.864 61.951 197.03 61.6837 197.166C61.1895 197.463 60.4624 197.872 59.5657 198.387C57.7654 199.39 55.2521 200.731 52.4422 202.143C49.6323 203.555 47.0484 204.756 45.1633 205.589C44.2244 206.005 43.4548 206.337 42.9253 206.556C42.6545 206.687 42.3705 206.789 42.0781 206.859C42.3244 206.688 42.5869 206.542 42.8618 206.422L45.0574 205.356C46.9072 204.459 49.4699 203.238 52.2798 201.826C55.0897 200.414 57.6172 199.115 59.4457 198.169L61.6131 197.053C61.872 196.898 62.1465 196.77 62.4321 196.672Z" fill="#263238"/>
</svg>
