<svg width="33" height="32" viewBox="0 0 33 32" fill="none" xmlns="http://www.w3.org/2000/svg">
<g id="Group">
<path id="Vector" fill-rule="evenodd" clip-rule="evenodd" d="M4.42938 7.23467C4.58077 6.86917 4.83715 6.55678 5.16609 6.33701C5.49504 6.11724 5.88177 5.99996 6.27738 6H19.6107C22.2629 6 24.8064 7.05357 26.6818 8.92893C28.5571 10.8043 29.6107 13.3478 29.6107 16C29.6107 18.6522 28.5571 21.1957 26.6818 23.0711C24.8064 24.9464 22.2629 26 19.6107 26H7.61071C7.08028 26 6.57157 25.7893 6.1965 25.4142C5.82143 25.0391 5.61071 24.5304 5.61071 24C5.61071 23.4696 5.82143 22.9609 6.1965 22.5858C6.57157 22.2107 7.08028 22 7.61071 22H19.6107C21.202 22 22.7281 21.3679 23.8534 20.2426C24.9786 19.1174 25.6107 17.5913 25.6107 16C25.6107 14.4087 24.9786 12.8826 23.8534 11.7574C22.7281 10.6321 21.202 10 19.6107 10H11.1054L12.3587 11.2533C12.7229 11.6307 12.9242 12.136 12.9194 12.6604C12.9146 13.1848 12.704 13.6863 12.333 14.057C11.962 14.4276 11.4603 14.6377 10.9359 14.642C10.4115 14.6463 9.90641 14.4445 9.52938 14.08L4.86271 9.41333C4.58323 9.13368 4.3929 8.77747 4.31577 8.38969C4.23864 8.00192 4.27818 7.59998 4.42938 7.23467Z" fill="white"/>
</g>
</svg>
