<svg width="30" height="30" viewBox="0 0 30 30" fill="none" xmlns="http://www.w3.org/2000/svg">
<path id="Vector" d="M15.1671 0.777771C12.3542 0.777771 9.60444 1.61189 7.26561 3.17465C4.92678 4.73741 3.10388 6.95861 2.02743 9.55738C0.950986 12.1562 0.669339 15.0158 1.21811 17.7746C1.76687 20.5335 3.12141 23.0676 5.11042 25.0566C7.09944 27.0456 9.63359 28.4002 12.3924 28.9489C15.1513 29.4977 18.0109 29.2161 20.6097 28.1396C23.2084 27.0632 25.4296 25.2403 26.9924 22.9014C28.5552 20.5626 29.3893 17.8129 29.3893 15C29.3893 11.228 27.8909 7.61055 25.2237 4.94336C22.5565 2.27618 18.939 0.777771 15.1671 0.777771ZM24.4559 10.2267L12.7759 21.8978L5.87816 15C5.64242 14.7642 5.50997 14.4445 5.50997 14.1111C5.50997 13.7777 5.64242 13.458 5.87816 13.2222C6.11391 12.9865 6.43365 12.854 6.76705 12.854C7.10045 12.854 7.42019 12.9865 7.65594 13.2222L12.7937 18.36L22.6959 8.46666C22.8127 8.34993 22.9513 8.25733 23.1038 8.19416C23.2563 8.13099 23.4197 8.09847 23.5848 8.09847C23.7499 8.09847 23.9134 8.13099 24.0659 8.19416C24.2184 8.25733 24.357 8.34993 24.4737 8.46666C24.5904 8.58339 24.683 8.72197 24.7462 8.87448C24.8094 9.027 24.8419 9.19047 24.8419 9.35555C24.8419 9.52063 24.8094 9.6841 24.7462 9.83661C24.683 9.98913 24.5904 10.1277 24.4737 10.2444L24.4559 10.2267Z" fill="white"/>
</svg>
