<svg width="44" height="44" viewBox="0 0 44 44" fill="none" xmlns="http://www.w3.org/2000/svg">
<g id="Frame 14953">
<g id="Group">
<path id="Vector (Stroke)" fill-rule="evenodd" clip-rule="evenodd" d="M11.0435 7.18182C9.9817 7.18182 8.97786 7.59084 8.24922 8.29617C7.52319 8.99898 7.13043 9.93516 7.13043 10.8939V32.1061C7.13043 33.0648 7.52319 34.001 8.24922 34.7038C8.97786 35.4092 9.9817 35.8182 11.0435 35.8182H18.3478C19.2123 35.8182 19.913 36.5305 19.913 37.4091C19.913 38.2877 19.2123 39 18.3478 39H11.0435C9.1994 39 7.41642 38.2916 6.0903 37.0079C4.76159 35.7217 4 33.9602 4 32.1061V10.8939C4 9.03981 4.76159 7.2783 6.0903 5.99209C7.41642 4.7084 9.1994 4 11.0435 4H32.9565C34.8006 4 36.5836 4.7084 37.9097 5.99209C39.2384 7.2783 40 9.03981 40 10.8939V19.7323C40 20.611 39.2992 21.3232 38.4348 21.3232C37.5703 21.3232 36.8696 20.611 36.8696 19.7323V10.8939C36.8696 9.93516 36.4768 8.99898 35.7508 8.29617C35.0221 7.59084 34.0183 7.18182 32.9565 7.18182H11.0435ZM25.913 14.4293C25.913 13.5507 26.6138 12.8384 27.4783 12.8384H27.4965C28.361 12.8384 29.0617 13.5507 29.0617 14.4293C29.0617 15.3079 28.361 16.0202 27.4965 16.0202H27.4783C26.6138 16.0202 25.913 15.3079 25.913 14.4293Z" fill="#844FFF"/>
<path id="Vector (Stroke)_2" fill-rule="evenodd" clip-rule="evenodd" d="M15.7634 20.9306L6.64468 29.7406C6.0187 30.3454 5.02796 30.3209 4.43179 29.6859C3.83562 29.0508 3.85978 28.0458 4.48576 27.441L13.6162 18.6196L13.6381 18.5989C14.7263 17.5872 16.037 17 17.4348 17C18.8325 17 20.1433 17.5872 21.2314 18.5989L21.2534 18.6196L23.0795 20.3839C23.7054 20.9887 23.7296 21.9938 23.1334 22.6288C22.5373 23.2638 21.5465 23.2883 20.9205 22.6835L19.1062 20.9306C18.5034 20.374 17.9261 20.1757 17.4348 20.1757C16.9435 20.1757 16.3661 20.374 15.7634 20.9306ZM29.3043 28.4144C28.7269 28.4144 28.1875 28.6367 27.8013 29.0098C27.4178 29.3804 27.2174 29.8661 27.2174 30.3551V32.2958H31.3913V30.3551C31.3913 29.8661 31.1909 29.3804 30.8074 29.0098C30.4212 28.6367 29.8818 28.4144 29.3043 28.4144ZM34.5217 30.3551C34.5217 28.9724 33.9525 27.6631 32.9663 26.7102C31.9826 25.7599 30.6641 25.2387 29.3043 25.2387C27.9446 25.2387 26.6261 25.7599 25.6424 26.7102C24.6562 27.6631 24.087 28.9724 24.087 30.3551V37.4122C24.087 38.2891 24.7877 39 25.6522 39C26.5166 39 27.2174 38.2891 27.2174 37.4122V35.4715H31.3913V37.4122C31.3913 38.2891 32.0921 39 32.9565 39C33.821 39 34.5217 38.2891 34.5217 37.4122V30.3551ZM38.4348 25.2387C39.2992 25.2387 40 25.9496 40 26.8265V37.4122C40 38.2891 39.2992 39 38.4348 39C37.5703 39 36.8696 38.2891 36.8696 37.4122V26.8265C36.8696 25.9496 37.5703 25.2387 38.4348 25.2387Z" fill="#844FFF"/>
</g>
</g>
</svg>
