<svg width="213" height="184" viewBox="0 0 213 184" fill="none" xmlns="http://www.w3.org/2000/svg">
<path d="M204.18 87C204.18 135.049 165.228 174 117.18 174C69.1309 174 30.1797 135.049 30.1797 87C30.1797 38.9512 69.1309 0 117.18 0C165.228 0 204.18 38.9512 204.18 87Z" fill="#844FFF"/>
<path d="M197.614 163.525H23.1954C20.1211 163.525 17.6289 166.018 17.6289 169.092C17.6289 172.166 20.1211 174.658 23.1954 174.658H197.614C200.688 174.658 203.18 172.166 203.18 169.092C203.18 166.018 200.688 163.525 197.614 163.525Z" fill="#E4EBF7"/>
<path fill-rule="evenodd" clip-rule="evenodd" d="M51.1801 118.118C51.1801 120.761 49.0376 122.904 46.3949 122.904C43.7521 122.904 41.6094 120.761 41.6094 118.118C41.6094 115.475 43.7521 113.333 46.3949 113.333C49.0376 113.333 51.1801 115.475 51.1801 118.118Z" fill="#844FFF"/>
<path fill-rule="evenodd" clip-rule="evenodd" d="M45.4961 161.186H47.3484V119.547H45.4961V161.186Z" fill="#844FFF"/>
<path fill-rule="evenodd" clip-rule="evenodd" d="M45.4957 161.186L23.9217 164.78L22.5293 163.774L45.4957 157.01V161.186Z" fill="#844FFF"/>
<path fill-rule="evenodd" clip-rule="evenodd" d="M47.3477 161.186L68.9217 164.78L70.3138 163.774L47.3477 157.01V161.186Z" fill="#844FFF"/>
<path fill-rule="evenodd" clip-rule="evenodd" d="M44.9531 166.017H47.8922V159.983H44.9531V166.017Z" fill="#844FFF"/>
<path fill-rule="evenodd" clip-rule="evenodd" d="M25.942 166.097C25.942 167.475 24.8251 168.591 23.4477 168.591C22.07 168.591 20.9531 167.475 20.9531 166.097C20.9531 164.719 22.07 163.603 23.4477 163.603C24.8251 163.603 25.942 164.719 25.942 166.097Z" fill="#844FFF"/>
<path fill-rule="evenodd" clip-rule="evenodd" d="M48.9166 166.097C48.9166 167.475 47.7997 168.591 46.422 168.591C45.0446 168.591 43.9277 167.475 43.9277 166.097C43.9277 164.719 45.0446 163.603 46.422 163.603C47.7997 163.603 48.9166 164.719 48.9166 166.097Z" fill="#844FFF"/>
<path fill-rule="evenodd" clip-rule="evenodd" d="M72.11 166.097C72.11 167.475 70.9931 168.591 69.6154 168.591C68.238 168.591 67.1211 167.475 67.1211 166.097C67.1211 164.719 68.238 163.603 69.6154 163.603C70.9931 163.603 72.11 164.719 72.11 166.097Z" fill="#844FFF"/>
<path fill-rule="evenodd" clip-rule="evenodd" d="M76.3918 117.24H16.4004C16.4004 111.343 21.1802 106.563 27.0765 106.563H65.7157C71.6118 106.563 76.3918 111.343 76.3918 117.24Z" fill="#A3B5D6"/>
<path fill-rule="evenodd" clip-rule="evenodd" d="M65.3925 77.7595C65.3925 77.7595 64.9422 85.2514 58.0954 84.7222C51.1136 84.1829 51.8643 76.6207 51.8643 76.6207C51.8643 76.6207 51.5248 71.9205 52.0116 65.5994C52.3923 60.6601 52.977 54.2093 53.5215 51.0724C54.1084 47.6867 57.2242 45.4527 60.431 45.7004C65.3053 46.0767 66.9582 50.0087 66.8506 53.4255C66.7456 56.7484 66.5882 62.2159 66.3912 65.8756C66.0131 72.9128 65.3925 77.7595 65.3925 77.7595Z" fill="#ADC6FF"/>
<path fill-rule="evenodd" clip-rule="evenodd" d="M80.6775 86.897C81.5016 89.9776 88.3543 88.9316 88.3543 88.9316L91.7132 91.6696C92.2454 92.0379 92.4735 91.6787 92.7632 91.7447C93.5434 91.9227 93.7303 91.1024 93.7303 91.1024C94.0285 91.0354 94.4146 91.3404 94.7005 90.6247C94.7005 90.6247 95.2563 90.71 95.4458 90.0548C95.5171 89.8114 94.4445 86.512 93.8047 84.582C93.523 83.7343 92.7905 83.1183 91.9086 82.9853L83.7071 81.749C83.7071 81.749 79.5691 82.7527 80.6775 86.897Z" fill="#C99382"/>
<path d="M87.8526 86.7815C87.7589 86.7414 87.6505 86.785 87.6105 86.8788C87.575 86.9622 87.6054 87.0572 87.6784 87.1054L87.7078 87.1212L90.1305 88.1567L92.5491 91.491C92.6023 91.5644 92.6994 91.587 92.7782 91.549L92.8067 91.5319C92.88 91.4787 92.9026 91.3815 92.8647 91.3026L92.8476 91.2739L90.399 87.8985C90.3859 87.8805 90.3697 87.865 90.3513 87.8529L90.3221 87.8371L87.8526 86.7815Z" fill="#65609B"/>
<path d="M89.4966 85.7641C89.4079 85.714 89.2954 85.7454 89.2454 85.8343C89.2009 85.9133 89.2208 86.0111 89.2881 86.067L89.3155 86.0859L91.5392 87.3403L93.5108 90.7925C93.5558 90.8712 93.6498 90.9043 93.7323 90.8751L93.7625 90.8612C93.8412 90.8162 93.8741 90.722 93.845 90.6394L93.8311 90.6091L91.8344 87.113C91.8234 87.0937 91.809 87.0767 91.7921 87.0626L91.7648 87.0438L89.4966 85.7641Z" fill="#65609B"/>
<path d="M91.094 84.8231C91.0141 84.7598 90.8981 84.7733 90.8349 84.8533C90.7787 84.9244 90.7832 85.0241 90.841 85.0898L90.8651 85.1128L92.3628 86.2988L94.1613 90.0036C94.2009 90.0851 94.2925 90.1244 94.3768 90.1008L94.4079 90.0889C94.4893 90.0493 94.5285 89.9576 94.5049 89.8733L94.4931 89.8421L92.6758 86.0993C92.6677 86.0827 92.6572 86.0674 92.6446 86.054L92.6243 86.0352L91.094 84.8231Z" fill="#65609B"/>
<path fill-rule="evenodd" clip-rule="evenodd" d="M58.9281 72.5306C58.9281 72.5306 52.0278 71.0777 50.6265 76.8116C49.1818 82.7251 55.7363 84.4257 55.7363 84.4257C55.7363 84.4257 60.3787 85.5093 66.0941 86.8689C69.5831 87.6988 73.4544 88.5384 76.3523 88.7443C79.4901 88.9673 80.2001 87.3605 80.9005 84.4933C81.7326 81.0883 81.7304 79.5968 78.8256 78.4296C76.0562 77.3172 72.1629 76.3151 69.1805 75.4016C63.4945 73.6607 58.9281 72.5306 58.9281 72.5306Z" fill="#ADC6FF"/>
<path fill-rule="evenodd" clip-rule="evenodd" d="M82.349 88.2801L83.9688 81.6497L79.6118 80.0762L77.758 87.6614L82.349 88.2801Z" fill="#ADC6FF"/>
<path fill-rule="evenodd" clip-rule="evenodd" d="M87.1205 100.411C73.4156 96.8463 59.2121 93.3008 47.8487 90.7397C47.8487 90.7397 39.2729 90.2712 38.8194 98.1083C38.3755 105.79 47.6399 108.072 47.6399 108.072L84.8561 113.864C84.8561 113.864 90.9276 114.74 91.9422 107.995C92.867 101.842 87.1205 100.411 87.1205 100.411Z" fill="#597EF7"/>
<path fill-rule="evenodd" clip-rule="evenodd" d="M84.7056 136.718C82.2725 136.23 80.0204 138.139 80.1066 140.622C80.2057 143.479 80.3197 147.34 80.3861 151.498C80.4547 155.778 80.52 159.324 80.8257 159.775C82.1735 161.759 84.8663 162.498 87.6335 164.464C89.8235 166.02 90.2015 166.759 92.9923 167.283C96.9482 168.025 95.1041 166.344 90.7118 161.03C86.7982 156.295 87.0616 154.075 87.0616 154.075L87.7898 140.703C87.8937 138.792 86.5797 137.095 84.7056 136.718Z" fill="#C99382"/>
<path fill-rule="evenodd" clip-rule="evenodd" d="M90.3153 159.773C93.1736 162.954 96.4489 165.468 96.3697 166.978C96.2899 168.489 95.1007 169.853 90.1798 168.105C86.8124 166.908 87.7762 166.184 84.5619 164.091C82.9566 163.045 82.3713 163.157 80.8913 161.94C80.0432 160.848 80.4249 155.543 80.4249 155.543L86.0579 161.724C86.0579 161.724 84.5935 158.845 85.7972 158.221C87.0003 157.597 88.1082 157.172 88.8182 157.684C89.5277 158.196 90.3153 159.773 90.3153 159.773Z" fill="#7D4556"/>
<path fill-rule="evenodd" clip-rule="evenodd" d="M93.1055 108.1C91.2582 130.554 89.1554 152.525 89.1554 152.525L79.6613 152.518L78.1781 107.292C78.1781 107.292 79.0107 102.102 86.3443 101.157C93.0894 100.288 93.1055 108.1 93.1055 108.1Z" fill="#597EF7"/>
<path fill-rule="evenodd" clip-rule="evenodd" d="M25.0118 100.893C25.8664 91.8355 26.0929 87.1787 27.1071 85.4775C48.9086 86.1016 54.3397 85.8142 54.3397 85.8142C54.3397 85.8142 54.5619 89.0182 55.5664 98.8803C55.5664 98.8803 48.854 111.127 40.1925 111.127C32.3834 111.127 25.0118 100.893 25.0118 100.893Z" fill="#597EF7"/>
<path fill-rule="evenodd" clip-rule="evenodd" d="M27.1033 85.478L27.5156 81.3701L54.2117 81.6907L54.3359 85.805C54.3359 85.805 40.2075 86.3497 27.1033 85.478Z" fill="#597EF7"/>
<path fill-rule="evenodd" clip-rule="evenodd" d="M39.1042 31.0986C39.1042 31.0986 35.3962 28.8232 36.881 24.7813C35.3775 21.1683 37.4909 19.0914 37.4909 19.0914C37.4909 19.0914 37.7972 14.464 40.8744 14.3573C43.042 9.70474 48.3424 11.8386 48.3424 11.8386C48.3424 11.8386 51.9337 9.19113 56.6757 13.3043C60.2787 13.6158 60.3826 11.8219 61.4798 13.1285C62.5774 14.4345 62.949 17.3827 61.3443 18.455C63.9557 19.7406 61.31 23.8656 61.31 23.8656C61.31 23.8656 62.0597 26.3683 58.8887 28.0625C55.7172 29.7572 54.2522 35.5431 49.0433 37.1242C44.0309 38.6457 38.8911 36.8046 39.1042 31.0986Z" fill="#7D4556"/>
<path fill-rule="evenodd" clip-rule="evenodd" d="M40.618 39.883L42.1248 31.9648L52.625 33.8279L52.3664 40.8137C52.2512 43.9324 49.5906 46.3423 46.4796 46.145C46.4202 46.1413 46.3613 46.1375 46.3013 46.1338C43.1202 45.9332 40.2303 43.051 40.618 39.883Z" fill="#C99382"/>
<path fill-rule="evenodd" clip-rule="evenodd" d="M44.9533 19.8761C44.9533 19.8761 45.522 22.7176 43.3277 23.3658C43.6398 27.0233 42.0656 26.6775 42.0656 26.6775C42.0656 26.6775 39.5929 23.3969 37.8082 26.1928C36.1124 28.8488 38.9011 32.8537 41.5585 32.2881C45.8464 39.431 54.6573 39.9366 57.6559 35.3559C59.4775 32.5723 58.9013 28.4687 59.1589 26.5499C59.7929 21.8346 58.9468 20.3887 58.9468 20.3887C58.9468 20.3887 57.1354 20.742 55.189 19.2258C53.0429 20.7602 50.0358 19.1523 50.0358 19.1523C50.0358 19.1523 47.9551 21.7183 44.9533 19.8761Z" fill="#C99382"/>
<path d="M40.0518 26.7756C39.4455 26.646 39.0276 26.7967 38.7977 27.1376C38.6948 27.2902 38.6521 27.4413 38.6426 27.5522C38.633 27.6628 38.7148 27.7603 38.8253 27.7698C38.9358 27.7794 39.0331 27.6974 39.0427 27.5868C39.0469 27.5381 39.0719 27.4496 39.1305 27.3626C39.2652 27.1628 39.5163 27.0723 39.9679 27.1689C40.3942 27.2601 40.7471 27.5896 40.9512 28.0294C41.0366 28.2134 41.0855 28.3995 41.0911 28.5466C41.0952 28.654 41.0765 28.7089 41.0726 28.7111C40.6587 28.9383 40.3351 29.2665 40.2276 29.6294C40.0896 30.0946 40.3128 30.5489 40.8986 30.9274C40.9918 30.9876 41.1161 30.9608 41.1762 30.8674C41.2363 30.7741 41.2095 30.6497 41.1163 30.5895C40.6686 30.3003 40.5308 30.0197 40.6126 29.7438C40.6851 29.4992 40.936 29.2447 41.2656 29.0637C41.9325 28.6981 41.1493 27.0105 40.0518 26.7756Z" fill="#65609B"/>
<path d="M40.6469 28.2539C40.4615 28.2315 40.2695 28.2246 40.0864 28.243C39.589 28.2929 39.2539 28.5248 39.2558 28.99C39.2563 29.101 39.3466 29.1906 39.4575 29.1902C39.5684 29.1897 39.6579 29.0993 39.6574 28.9883C39.6566 28.7805 39.8092 28.6749 40.1265 28.6431C40.2761 28.628 40.4402 28.6339 40.5988 28.6531L40.6717 28.663C40.6918 28.666 40.7074 28.6687 40.718 28.6708C40.8269 28.6919 40.9323 28.6206 40.9533 28.5116C40.9744 28.4026 40.9032 28.2971 40.7944 28.276L40.7189 28.2635C40.6977 28.2604 40.6736 28.2571 40.6469 28.2539Z" fill="#65609B"/>
<path fill-rule="evenodd" clip-rule="evenodd" d="M51.9165 26.4976C51.7494 28.4277 50.0526 29.857 48.1244 29.6908C46.1968 29.5241 44.7693 27.824 44.9358 25.8939C45.1018 23.9638 46.7997 22.534 48.7273 22.7007C50.6555 22.8675 52.083 24.5675 51.9165 26.4976Z" fill="white"/>
<path d="M48.7517 22.4546C50.8155 22.6331 52.3438 24.4527 52.1655 26.519C51.9867 28.5852 50.1701 30.1151 48.1064 29.9372C46.0429 29.7587 44.5147 27.9389 44.693 25.8728C44.8678 23.8406 46.629 22.3264 48.6504 22.4472L48.7517 22.4546ZM45.1848 25.9152C45.03 27.7095 46.3571 29.2897 48.1488 29.4447C49.9409 29.5991 51.5184 28.2707 51.6737 26.4764C51.8285 24.6822 50.5014 23.102 48.7092 22.9471C46.9174 22.7921 45.3391 24.1212 45.1848 25.9152Z" fill="#7D4556"/>
<path fill-rule="evenodd" clip-rule="evenodd" d="M60.4126 26.9029C60.2455 28.833 58.5487 30.2623 56.6205 30.0961C54.6929 29.9293 53.2648 28.2293 53.4319 26.2992C53.5979 24.3691 55.2958 22.9393 57.2234 23.106C59.1516 23.2727 60.5791 24.9728 60.4126 26.9029Z" fill="white"/>
<path d="M57.2439 22.8599C59.3077 23.0383 60.836 24.858 60.6577 26.9243C60.4789 28.9905 58.6623 30.5203 56.5986 30.3424C54.5349 30.1639 53.0064 28.3439 53.1852 26.278C53.3599 24.2459 55.1212 22.7317 57.1426 22.8524L57.2439 22.8599ZM53.677 26.3205C53.5218 28.1146 54.8491 29.695 56.641 29.85C58.4331 30.0044 60.0106 28.676 60.1659 26.8816C60.3207 25.0875 58.9936 23.5073 57.2014 23.3523C55.4096 23.1973 53.8313 24.5265 53.677 26.3205Z" fill="#7D4556"/>
<path d="M52.7778 25.9246C52.6814 25.9794 52.6475 26.1021 52.7022 26.1987L52.7529 26.2904C52.7939 26.3655 52.8396 26.4512 52.8889 26.5459C53.0297 26.8166 53.1706 27.105 53.3019 27.3986C53.4202 27.6631 53.525 27.9192 53.6125 28.1617C53.9075 28.9787 53.9754 29.5698 53.7903 29.7834C53.5826 30.0229 53.3115 30.1643 52.9865 30.2229C52.6555 30.2825 52.2939 30.2532 51.9425 30.1669C51.8101 30.1344 51.712 30.1024 51.6606 30.0823C51.5573 30.0419 51.4408 30.093 51.4005 30.1964C51.3601 30.2999 51.4112 30.4164 51.5145 30.4568L51.5833 30.4818C51.6499 30.5044 51.7392 30.531 51.8469 30.5575C52.2483 30.656 52.6633 30.6897 53.0576 30.6186C53.4682 30.5446 53.822 30.3601 54.0935 30.047C54.4155 29.6756 54.3358 28.9824 53.9902 28.0251C53.899 27.7724 53.7905 27.5073 53.6684 27.2342C53.5336 26.9329 53.3893 26.6375 53.245 26.3601L53.1491 26.1785L53.0516 26.0004C52.9969 25.9038 52.8743 25.8699 52.7778 25.9246Z" fill="#65609B"/>
<path fill-rule="evenodd" clip-rule="evenodd" d="M49.0767 31.3564C49.0767 31.3564 52.2744 32.0052 54.6133 31.8352C54.6133 31.8352 53.7678 34.0891 51.4846 33.6125C49.4574 33.1889 49.0767 31.3564 49.0767 31.3564Z" fill="white"/>
<path d="M49.1183 31.1489L49.5381 31.2271C49.8716 31.2861 50.2393 31.3452 50.6303 31.4003C51.4663 31.5181 52.2904 31.6016 53.0597 31.6354C53.6216 31.6601 54.1377 31.6574 54.5977 31.624C54.7512 31.6128 54.8646 31.7647 54.8105 31.9089L54.7833 31.9759C54.7557 32.04 54.7155 32.1241 54.6621 32.2231C54.5385 32.4521 54.3849 32.6809 54.1988 32.8951C53.5197 33.6764 52.6018 34.061 51.4413 33.8187C50.6064 33.6443 49.9683 33.2335 49.506 32.6599C49.2857 32.3866 49.1201 32.0943 49.0009 31.8017C48.9287 31.6243 48.8876 31.484 48.8699 31.3989C48.839 31.2504 48.9699 31.1187 49.1183 31.1489ZM49.4646 31.6431L49.3868 31.6288L49.3916 31.6422C49.496 31.8986 49.6416 32.1554 49.8343 32.3946C50.2374 32.8947 50.7915 33.2514 51.5275 33.4052C52.5258 33.6136 53.2952 33.2912 53.8805 32.6177L53.9757 32.5027C54.0677 32.3862 54.1497 32.2656 54.2219 32.144L54.2669 32.0649L54.2599 32.0655C53.8816 32.0797 53.4741 32.0765 53.0412 32.0575C52.2569 32.023 51.4199 31.9382 50.5714 31.8186C50.1754 31.7628 49.8028 31.703 49.4646 31.6431Z" fill="#7D4556"/>
<path d="M54.7542 21.9524C54.6534 21.8938 54.5243 21.9282 54.4658 22.0291C54.4074 22.13 54.4416 22.2593 54.5424 22.3178C55.6253 22.9469 57.0077 23.2014 58.4561 22.9342C58.5707 22.9131 58.6465 22.8029 58.6254 22.6882C58.6043 22.5735 58.4943 22.4976 58.3797 22.5187C57.0317 22.7674 55.7513 22.5317 54.7542 21.9524Z" fill="#7D4556"/>
<path d="M52.9831 25.1665C52.5858 25.1147 52.1668 25.1153 51.7728 25.1469L51.6209 25.1609L51.5547 25.1688L51.62 25.6588L51.7604 25.644C51.7766 25.6425 51.7939 25.641 51.8122 25.6396C52.1747 25.6105 52.5615 25.61 52.9195 25.6567C53.1338 25.6846 53.3251 25.7283 53.4873 25.7887L53.5659 25.8203L53.7617 25.3665C53.5372 25.2694 53.2754 25.2045 52.9831 25.1665Z" fill="#7D4556"/>
<path d="M56.9942 25.7624C56.3932 25.7104 55.9537 25.972 55.6747 26.4248C55.5275 26.6636 55.4534 26.8992 55.426 27.0661C55.404 27.2008 55.4952 27.3279 55.6297 27.35C55.7642 27.3721 55.8912 27.2808 55.9132 27.1461L55.9215 27.1062C55.9275 27.0807 55.9365 27.0474 55.9489 27.008C55.9838 26.8971 56.032 26.7862 56.0948 26.6844C56.2821 26.3805 56.5513 26.2202 56.9518 26.2549C57.3172 26.2864 57.5276 26.472 57.6404 26.7845C57.7009 26.9518 57.7245 27.1305 57.725 27.2851L57.7224 27.3764C57.7107 27.5124 57.8112 27.6322 57.947 27.644C58.0715 27.6548 58.1824 27.5711 58.2091 27.4523L58.2151 27.4078C58.2154 27.4033 58.2158 27.3967 58.2165 27.3835C58.2273 27.1543 58.201 26.8831 58.1047 26.6164C57.9303 26.1334 57.5656 25.8117 56.9942 25.7624Z" fill="#7D4556"/>
<path d="M48.5919 25.0368C47.991 24.9848 47.5514 25.2464 47.2721 25.6992C47.1248 25.938 47.0506 26.1735 47.0232 26.3404C47.0011 26.4751 47.0922 26.6023 47.2267 26.6244C47.349 26.6445 47.4651 26.571 47.5018 26.4562L47.5257 26.3527C47.5311 26.3323 47.5378 26.3088 47.5461 26.2825C47.5811 26.1716 47.6294 26.0607 47.6922 25.9589C47.8796 25.6549 48.149 25.4946 48.5494 25.5293C48.9147 25.5608 49.125 25.7464 49.2379 26.0589C49.2984 26.2264 49.3221 26.4051 49.3226 26.5597L49.3201 26.651C49.3084 26.787 49.409 26.9067 49.5448 26.9184C49.6693 26.9292 49.7802 26.8454 49.8068 26.7266L49.8133 26.6734L49.8142 26.658C49.8249 26.4288 49.7986 26.1576 49.7022 25.8908C49.5277 25.4078 49.163 25.0861 48.5919 25.0368Z" fill="#7D4556"/>
<path fill-rule="evenodd" clip-rule="evenodd" d="M41.4601 25.9155L44.9095 26.2141L44.9648 25.575L41.5154 25.2764L41.4601 25.9155Z" fill="#7D4556"/>
<path d="M50.9885 21.6088C50.9449 21.5006 50.822 21.4483 50.714 21.492C50.3274 21.6481 49.8694 21.7579 49.355 21.8257C48.5749 21.9284 47.7387 21.9285 46.9555 21.8669L46.7935 21.8531L46.5426 21.8264C46.427 21.8112 46.3211 21.8927 46.306 22.0084C46.2908 22.124 46.3722 22.2301 46.4877 22.2453L46.6052 22.2589L46.7545 22.2737C46.8074 22.2786 46.8634 22.2834 46.9224 22.2881C47.7325 22.3518 48.5963 22.3517 49.41 22.2445C49.9572 22.1725 50.4489 22.0546 50.8718 21.8838C50.9799 21.8401 51.0321 21.717 50.9885 21.6088Z" fill="#7D4556"/>
<path d="M51.3123 35.7922C51.2015 35.7871 51.1076 35.873 51.1025 35.9839L51.0959 36.0884C51.0916 36.1457 51.0853 36.2165 51.0766 36.2979C51.0513 36.5353 51.0143 36.7724 50.964 36.9922C50.8591 37.4495 50.7087 37.7625 50.5427 37.8535C50.4455 37.9068 50.4098 38.029 50.463 38.1264C50.5163 38.2238 50.6383 38.2595 50.7356 38.2062C51.036 38.0415 51.2262 37.6459 51.3554 37.0821C51.4097 36.8451 51.449 36.5928 51.4759 36.3407L51.4919 36.1735L51.5037 36.0022C51.5087 35.8913 51.423 35.7973 51.3123 35.7922Z" fill="#65609B"/>
<path d="M52.0121 36.4815C51.9012 36.4804 51.8104 36.5696 51.8094 36.6806L51.8046 36.8432C51.8031 36.8784 51.8011 36.9174 51.7987 36.9595C51.7867 37.17 51.7667 37.3803 51.7371 37.5753C51.7078 37.7683 51.6705 37.935 51.6254 38.0663C51.5893 38.1713 51.6451 38.2857 51.7499 38.3218C51.8548 38.3579 51.9691 38.302 52.0051 38.197C52.0591 38.0397 52.1014 37.8507 52.1341 37.6358C52.1659 37.427 52.187 37.2046 52.1997 36.9824L52.2079 36.8062C52.2097 36.7559 52.2106 36.7147 52.2109 36.6844C52.212 36.5734 52.1229 36.4825 52.0121 36.4815Z" fill="#65609B"/>
<path d="M50.3853 36.6241C50.2793 36.5916 50.167 36.6513 50.1345 36.7575L50.1178 36.8094C50.1071 36.8413 50.0931 36.8815 50.0761 36.9282C50.0286 37.0581 49.9749 37.1878 49.9167 37.3078C49.8086 37.5305 49.6972 37.6897 49.6088 37.7506L49.583 37.7658C49.4834 37.8146 49.442 37.9349 49.4907 38.0347C49.5393 38.1345 49.6595 38.1759 49.7592 38.1272C49.9573 38.0304 50.1217 37.8054 50.2779 37.4835C50.3427 37.3501 50.4014 37.2082 50.4532 37.0665L50.4992 36.9351C50.5072 36.9112 50.5137 36.891 50.5185 36.8752C50.551 36.7691 50.4913 36.6566 50.3853 36.6241Z" fill="#65609B"/>
<path d="M52.6225 36.3302C52.5237 36.3446 52.4523 36.4288 52.4507 36.5255L52.4528 36.5582L52.6279 37.7602C52.6439 37.8701 52.7458 37.9461 52.8555 37.9301C52.9543 37.9157 53.0257 37.8316 53.0273 37.7348L53.0253 37.7022L52.8502 36.5001C52.8358 36.4013 52.7517 36.3298 52.6551 36.3281L52.6225 36.3302Z" fill="#65609B"/>
<path d="M45.7299 36.2409C45.6372 36.1801 45.5127 36.206 45.4519 36.2989C45.3911 36.3917 45.417 36.5164 45.5098 36.5772C45.8222 36.7823 46.1443 36.9687 46.4753 37.1371C48.4916 38.1628 50.5967 38.4535 52.4053 38.3298L52.5739 38.317C52.7276 38.3041 52.8365 38.2912 52.8956 38.2822C53.0052 38.2656 53.0807 38.1632 53.0641 38.0534C53.0475 37.9436 52.9452 37.868 52.8356 37.8846L52.7438 37.8965C52.7043 37.901 52.6562 37.906 52.5998 37.9111L52.5406 37.9162C50.7629 38.0646 48.6601 37.7975 46.6573 36.7786C46.3393 36.6168 46.0299 36.4378 45.7299 36.2409Z" fill="#65609B"/>
<path d="M49.8511 29.9528C49.8198 29.8463 49.7081 29.7855 49.6017 29.8169L49.5091 29.8462C49.4377 29.8697 49.3583 29.8975 49.273 29.9295C49.0289 30.021 48.7847 30.1282 48.5555 30.2507C47.789 30.6606 47.349 31.1464 47.4557 31.734C47.4755 31.8432 47.5801 31.9156 47.6892 31.8958C47.7983 31.8759 47.8706 31.7713 47.8508 31.662C47.7863 31.307 48.1185 30.9403 48.7447 30.6055C48.9567 30.4921 49.1852 30.3918 49.4138 30.3061L49.5232 30.2661C49.6074 30.2362 49.6734 30.2149 49.7153 30.2025C49.8217 30.1711 49.8825 30.0594 49.8511 29.9528Z" fill="#65609B"/>
<path fill-rule="evenodd" clip-rule="evenodd" d="M40.0717 40.2578L38.9505 42.3418C38.9505 42.3418 31.1709 43.2762 27.3724 45.5671C23.9375 47.6388 24.3701 69.5082 24.8986 76.8682C23.0481 85.5096 29.9533 84.8126 29.9533 84.8126L54.5954 86.8478C54.5954 86.8478 58.2022 84.7971 56.409 78.7077C56.8689 73.7559 64.8991 50.0074 61.7972 46.9016C59.385 44.4863 53.5625 44.014 53.5625 44.014L53.1721 41.5928C53.1721 41.5928 49.4347 41.1655 40.0717 40.2578Z" fill="#ADC6FF"/>
<path d="M60.6114 56.3584C60.4985 56.3474 60.3981 56.4301 60.3871 56.5432C60.1753 58.7245 59.7618 61.3288 59.1798 64.2664C58.8518 65.9216 58.4755 67.6565 58.0601 69.4463C57.5697 71.5587 57.0478 73.6513 56.5228 75.6483L56.2137 76.8117C56.1259 77.1387 56.0412 77.4511 55.96 77.7479L55.7485 78.5141L55.5697 79.1493C55.5384 79.2584 55.6014 79.3723 55.7104 79.4037C55.8194 79.4351 55.9331 79.372 55.9644 79.2629L56.1792 78.4986L56.3561 77.8566C56.4781 77.4106 56.6081 76.9292 56.7446 76.4162C57.3294 74.2179 57.9142 71.8911 58.4601 69.5394C58.8765 67.7454 59.2538 66.0063 59.5826 64.3465L59.7145 63.6717C60.2298 60.9965 60.599 58.6106 60.7959 56.5829C60.8069 56.4699 60.7243 56.3694 60.6114 56.3584Z" fill="#597EF7"/>
<path d="M40.8651 43.4932C40.7554 43.4642 40.6431 43.5298 40.6142 43.6396C40.5853 43.7494 40.6508 43.8619 40.7604 43.8908C44.6073 44.9056 48.3839 45.1652 51.5638 44.9929L51.8274 44.9775C51.99 44.9674 52.1371 44.9567 52.2677 44.9458L52.5284 44.9218C52.5375 44.9208 52.5454 44.92 52.552 44.9192C52.6647 44.9065 52.7458 44.8047 52.7331 44.6919C52.7203 44.579 52.6187 44.4979 52.506 44.5106L52.3263 44.5281L52.0297 44.5518C51.9577 44.557 51.8817 44.5621 51.8019 44.5671C48.6084 44.7661 44.7709 44.5235 40.8651 43.4932Z" fill="#597EF7"/>
<path fill-rule="evenodd" clip-rule="evenodd" d="M65.2805 141.109C62.6364 140.671 60.2756 142.815 60.4593 145.492C60.6708 148.572 60.9353 152.735 61.1591 157.221C61.3899 161.838 61.5901 165.664 61.9371 166.139C63.4637 168.232 66.3985 168.93 69.4575 170.951C71.8778 172.55 72.3131 173.335 75.3449 173.797C79.6424 174.452 77.59 172.707 72.6542 167.131C68.2571 162.164 68.4595 159.757 68.4595 159.757L68.7556 145.297C68.7973 143.23 67.3179 141.446 65.2805 141.109Z" fill="#C99382"/>
<path fill-rule="evenodd" clip-rule="evenodd" d="M72.1782 165.789C75.3797 169.117 79.0074 171.71 78.9764 173.344C78.9464 174.977 77.7122 176.493 72.3367 174.787C68.6576 173.618 69.6713 172.802 66.1255 170.66C64.3547 169.59 63.7272 169.733 62.085 168.474C61.1292 167.326 61.3466 161.586 61.3466 161.586L67.6537 168.05C67.6537 168.05 65.967 164.997 67.2435 164.279C68.5195 163.562 69.7002 163.062 70.4851 163.588C71.2701 164.114 72.1782 165.789 72.1782 165.789Z" fill="#7D4556"/>
<path fill-rule="evenodd" clip-rule="evenodd" d="M73.0234 109.592C71.8717 133.899 70.4254 157.692 70.4254 157.692L60.1774 158.043L56.8811 109.281C56.8811 109.281 57.4873 101.994 65.4655 102.353C72.6641 102.676 73.0234 109.592 73.0234 109.592Z" fill="#597EF7"/>
<path fill-rule="evenodd" clip-rule="evenodd" d="M68.725 101.631C57.6449 97.5172 43.495 94.5261 33.2448 92.4395C33.2448 92.4395 25.5552 93.4662 25.0352 101.033C24.526 108.449 32.8807 110.337 32.8807 110.337L66.4874 114.669C66.4874 114.669 71.9715 115.309 72.9835 108.776C73.9071 102.817 68.725 101.631 68.725 101.631Z" fill="#597EF7"/>
<path d="M26.82 86.6025C26.7091 86.6025 26.6192 86.6926 26.6192 86.8036C26.6192 86.9035 26.692 86.9864 26.7874 87.002L26.82 87.0046H54.1586C54.2695 87.0046 54.3594 86.9146 54.3594 86.8036C54.3594 86.7037 54.2866 86.6208 54.1912 86.6052L54.1586 86.6025H26.82Z" fill="#844FFF"/>
<path d="M27.1222 89.7227C27.0113 89.7227 26.9214 89.8127 26.9214 89.9237C26.9214 90.0236 26.9942 90.1065 27.0896 90.1221L27.1222 90.1248H54.5609C54.6718 90.1248 54.7617 90.0347 54.7617 89.9237C54.7617 89.8238 54.6889 89.7409 54.5935 89.7253L54.5609 89.7227H27.1222Z" fill="#844FFF"/>
<path d="M45.9553 86.553C45.8556 86.5577 45.7763 86.6345 45.7653 86.7307L45.7643 86.7634L45.9153 89.9335C45.9206 90.0444 46.0146 90.13 46.1254 90.1248C46.2251 90.12 46.3043 90.0432 46.3153 89.9471L46.3164 89.9144L46.1654 86.7442C46.1601 86.6333 46.066 86.5477 45.9553 86.553Z" fill="#844FFF"/>
<path fill-rule="evenodd" clip-rule="evenodd" d="M70.2894 101.532L39.4007 94.8241L70.8179 87.2158L96.1133 95.3307L70.2894 101.532Z" fill="#CCD7EE"/>
<path fill-rule="evenodd" clip-rule="evenodd" d="M71.5884 99.4227L49.1551 94.5514L71.4412 88.9531L90.3438 94.9192L71.5884 99.4227Z" fill="#4E5C93"/>
<path fill-rule="evenodd" clip-rule="evenodd" d="M39.3295 96.4354L39.3949 94.834L70.9336 101.423L70.2985 103.101L39.3295 96.4354Z" fill="#844FFF"/>
<path d="M75.5147 90.5332L57.3307 96.0623C57.26 96.0838 57.22 96.1587 57.2415 96.2295C57.2603 96.2915 57.3199 96.3298 57.3819 96.324L57.4085 96.3188L75.5925 90.7897C75.6632 90.7681 75.7032 90.6933 75.6817 90.6225C75.6629 90.5605 75.6033 90.5221 75.5413 90.5279L75.5147 90.5332Z" fill="#CCD7EE"/>
<path d="M73.2083 89.4485L52.8964 95.2543C52.8253 95.2746 52.7841 95.3488 52.8044 95.42C52.8222 95.4823 52.8811 95.5216 52.9432 95.5169L52.9699 95.5121L73.2818 89.7063C73.3528 89.686 73.394 89.6118 73.3737 89.5406C73.356 89.4783 73.297 89.439 73.2349 89.4437L73.2083 89.4485Z" fill="#CCD7EE"/>
<path d="M75.6887 92.1724L60.4047 97.0528C60.3343 97.0753 60.2954 97.1507 60.3179 97.2212C60.3375 97.2829 60.3976 97.3205 60.4595 97.3138L60.4861 97.3082L75.7701 92.4278C75.8405 92.4053 75.8794 92.3299 75.8569 92.2594C75.8373 92.1977 75.7771 92.1601 75.7152 92.1668L75.6887 92.1724Z" fill="#CCD7EE"/>
<path d="M79.7668 92.814L64.4829 97.6944C64.4124 97.7169 64.3735 97.7923 64.396 97.8628C64.4157 97.9245 64.4758 97.962 64.5377 97.9554L64.5642 97.9498L79.8482 93.0694C79.9186 93.0469 79.9575 92.9715 79.935 92.901C79.9154 92.8393 79.8553 92.8017 79.7934 92.8084L79.7668 92.814Z" fill="#CCD7EE"/>
<path d="M83.5129 93.6744L68.229 98.5548C68.1585 98.5773 68.1196 98.6527 68.1421 98.7232C68.1617 98.7849 68.2219 98.8224 68.2838 98.8158L68.3103 98.8102L83.5943 93.9297C83.6647 93.9073 83.7036 93.8318 83.6811 93.7613C83.6615 93.6996 83.6014 93.6621 83.5395 93.6687L83.5129 93.6744Z" fill="#CCD7EE"/>
<path d="M52.9161 93.7785C52.8433 93.7653 52.7737 93.8137 52.7605 93.8865C52.749 93.9503 52.7845 94.0116 52.8423 94.0348L52.8683 94.0423L72.104 97.5336C72.1767 97.5468 72.2464 97.4985 72.2595 97.4256C72.2711 97.3619 72.2356 97.3005 72.1778 97.2773L72.1517 97.2698L52.9161 93.7785Z" fill="#CCD7EE"/>
<path d="M57.2984 92.5051C57.2256 92.4919 57.156 92.5402 57.1428 92.6131C57.1312 92.6768 57.1668 92.7382 57.2245 92.7614L57.2506 92.7689L76.4868 96.2602C76.5595 96.2734 76.6292 96.225 76.6424 96.1522C76.6539 96.0885 76.6184 96.0271 76.5606 96.0039L76.5345 95.9964L57.2984 92.5051Z" fill="#CCD7EE"/>
<path d="M62.6778 91.7951C62.6051 91.7819 62.5354 91.8303 62.5222 91.9031C62.5107 91.9668 62.5462 92.0282 62.604 92.0514L62.6301 92.0589L81.8657 95.5502C81.9384 95.5634 82.0081 95.5151 82.0213 95.4422C82.0328 95.3785 81.9973 95.3171 81.9395 95.2939L81.9134 95.2864L62.6778 91.7951Z" fill="#CCD7EE"/>
<path d="M66.4312 89.3156C66.3584 89.3024 66.2888 89.3508 66.2756 89.4236C66.264 89.4874 66.2996 89.5487 66.3574 89.5719L66.3834 89.5794L85.6196 93.0707C85.6923 93.0839 85.762 93.0356 85.7752 92.9628C85.7867 92.899 85.7512 92.8376 85.6934 92.8145L85.6673 92.8069L66.4312 89.3156Z" fill="#CCD7EE"/>
<path fill-rule="evenodd" clip-rule="evenodd" d="M70.3263 103.103L71.7201 103.304L96.1785 97.1077L108.191 56.9824L82.0152 60.6882L70.3263 103.103Z" fill="#844FFF"/>
<path fill-rule="evenodd" clip-rule="evenodd" d="M71.768 103.31L97.5603 96.7866C97.7959 96.7276 97.9833 96.548 98.0534 96.3148L109.642 57.7561C109.788 57.2715 109.382 56.7991 108.882 56.8705L84.0497 60.4207C83.7782 60.4599 83.5544 60.6566 83.481 60.922L71.768 103.31Z" fill="#4E5C93"/>
<path fill-rule="evenodd" clip-rule="evenodd" d="M34.4053 77.0881C34.4053 77.0881 33.5614 84.5457 26.7515 83.6568C19.8077 82.7502 20.9557 75.2374 20.9557 75.2374C20.9557 75.2374 20.8636 70.5264 21.6824 64.2397C22.3222 59.3271 23.2453 52.9165 23.9537 49.8118C24.7184 46.462 27.9472 44.3958 31.1368 44.8118C35.9838 45.445 37.4284 49.4585 37.1409 52.8651C36.8614 56.1778 36.4164 61.6292 36.0277 65.2739C35.2797 72.2811 34.4053 77.0881 34.4053 77.0881Z" fill="#ADC6FF"/>
<path fill-rule="evenodd" clip-rule="evenodd" d="M54.1029 86.671C54.9998 90.0239 62.4581 88.8857 62.4581 88.8857L66.1136 91.8655C66.6924 92.266 66.9414 91.8757 67.2563 91.947C68.1055 92.1411 68.3084 91.2479 68.3084 91.2479C68.6335 91.175 69.0538 91.5074 69.3649 90.7284C69.3649 90.7284 69.9694 90.8211 70.1761 90.1081C70.2527 89.8427 69.0859 86.2522 68.3893 84.1517C68.083 83.229 67.2863 82.5588 66.3262 82.4141L57.4002 81.0684C57.4002 81.0684 52.8965 82.1599 54.1029 86.671Z" fill="#C99382"/>
<path d="M61.9124 86.5455C61.8104 86.5019 61.6924 86.5493 61.6489 86.6514C61.6097 86.7433 61.6441 86.8482 61.7257 86.9L61.7546 86.9153L64.3911 88.0428L67.0235 91.6716C67.0814 91.7515 67.1871 91.7761 67.2728 91.7347L67.3039 91.7161C67.3837 91.6581 67.4083 91.5523 67.367 91.4664L67.3484 91.4353L64.6829 87.7617C64.6687 87.7421 64.6511 87.7253 64.6311 87.7121L64.5993 87.695L61.9124 86.5455Z" fill="#65609B"/>
<path d="M63.7056 85.439C63.609 85.3845 63.4866 85.4187 63.4321 85.5155C63.3838 85.6015 63.4054 85.7079 63.4787 85.7688L63.5085 85.7893L65.929 87.1545L68.0741 90.9112C68.123 90.9969 68.2254 91.0329 68.3151 91.0011L68.3481 90.986C68.4336 90.937 68.4695 90.8345 68.4378 90.7446L68.4227 90.7116L66.2498 86.9067C66.2378 86.8857 66.2222 86.8671 66.2038 86.8518L66.1741 86.8313L63.7056 85.439Z" fill="#65609B"/>
<path d="M65.4401 84.4144C65.3531 84.3456 65.2268 84.3604 65.1581 84.4475C65.0969 84.5249 65.1018 84.6334 65.1647 84.7049L65.191 84.7299L66.8209 86.02L68.7787 90.0525C68.8224 90.1423 68.9241 90.185 69.0167 90.1573L69.0471 90.1454C69.1369 90.1017 69.1795 89.9999 69.1518 89.9071L69.1399 89.8767L67.1619 85.8031C67.1531 85.785 67.1417 85.7684 67.128 85.7537L67.1059 85.7333L65.4401 84.4144Z" fill="#65609B"/>
<path fill-rule="evenodd" clip-rule="evenodd" d="M30.4328 71.0354C30.4328 71.0354 22.9236 69.4538 21.3981 75.6944C19.825 82.1301 26.9593 83.9814 26.9593 83.9814C26.9593 83.9814 32.0113 85.1603 38.2312 86.6401C42.0291 87.5435 46.2426 88.457 49.3964 88.6811C52.8115 88.924 53.5837 87.1751 54.3462 84.0548C55.2521 80.3496 55.25 78.7252 52.0882 77.4556C49.0741 76.2445 44.8365 75.154 41.5911 74.16C35.4029 72.2648 30.4328 71.0354 30.4328 71.0354Z" fill="#ADC6FF"/>
<path fill-rule="evenodd" clip-rule="evenodd" d="M55.9198 88.1763L57.6836 80.9604L52.9411 79.248L50.9235 87.5029L55.9198 88.1763Z" fill="#ADC6FF"/>
<path d="M37.0916 56.9621C36.9788 56.9501 36.8776 57.0318 36.8656 57.1447L36.8053 57.6659C36.6672 58.7941 36.3969 60.6921 36.0077 63.301L34.6523 72.2598C34.6378 72.3622 34.7015 72.4594 34.801 72.4869C36.6424 72.9957 38.5236 73.5376 40.4166 74.1099L41.7107 74.502L45.997 75.7556L46.6947 75.9624C48.8498 76.6061 50.3974 77.1194 51.7091 77.6462C53.2511 78.2658 54.0011 78.958 54.2531 79.9534C54.2671 80.0086 54.3031 80.0549 54.3518 80.0822L54.3825 80.0963L57.1373 81.0904L55.4621 87.9471L52.4695 87.5443C52.4187 87.5375 52.3677 87.5499 52.3261 87.5784L52.2969 87.6027C51.6043 88.2962 50.6149 88.5838 49.1084 88.4764C46.4507 88.2876 43.0364 87.6378 38.2587 86.5075L34.2916 85.5662L26.7034 83.7815C26.5929 83.7557 26.4825 83.8245 26.4568 83.9351C26.4311 84.0457 26.4997 84.1562 26.6102 84.182L29.9131 84.9562C31.5361 85.3377 33.2182 85.7345 34.9282 86.1395L38.4456 86.974C43.0972 88.0684 46.4459 88.6995 49.0793 88.8866C50.5945 88.9946 51.6612 88.7188 52.4361 88.0356L52.5135 87.965L55.5899 88.3797C55.6824 88.3922 55.77 88.3408 55.8058 88.2575L55.8168 88.2248L57.58 81.009C57.6022 80.9182 57.5604 80.8256 57.4815 80.781L57.4502 80.7667L54.6221 79.7454L54.5978 79.6654C54.2753 78.6549 53.472 77.9351 51.9979 77.3202L51.862 77.2646L51.5837 77.1544C50.4091 76.6956 49.0422 76.2412 47.2398 75.6968L45.6736 75.234C44.7782 74.9739 42.7477 74.3826 41.7329 74.0796L41.3487 73.9637C39.4495 73.3819 37.5583 72.83 35.7031 72.3109L35.0852 72.1391L36.3847 63.5573C36.8597 60.3783 37.1634 58.2243 37.2739 57.1884C37.286 57.0755 37.2043 56.9742 37.0916 56.9621Z" fill="#597EF7"/>
<path fill-rule="evenodd" clip-rule="evenodd" d="M135.609 102.121C144.935 97.735 150.494 109.238 145.804 115.642C140.079 123.458 137.147 132.451 135.514 135.161C134.137 137.446 130.364 143.019 125.82 140.45C121.639 138.086 123.918 128.809 123.918 128.809C123.918 128.809 124.102 107.532 135.609 102.121Z" fill="#5B8C00"/>
<path fill-rule="evenodd" clip-rule="evenodd" d="M107.555 138.664C104.384 134.411 103.226 128.308 106.765 126.742C110.159 125.242 115.779 128.937 118.383 136.047C120.986 143.158 122.488 148.27 119.942 149.159C115.763 150.617 111.743 144.281 107.555 138.664Z" fill="#5B8C00"/>
<path fill-rule="evenodd" clip-rule="evenodd" d="M140.89 138.987C137.304 143.166 132.128 151.571 128.886 148.627C126.921 146.843 129.548 138.394 136.739 133.797C142.855 129.887 144.476 134.809 140.89 138.987Z" fill="#7CB305"/>
<path fill-rule="evenodd" clip-rule="evenodd" d="M106.572 109.991C107.936 109.079 109.651 108.871 111.217 109.369C113.402 110.065 116.717 112.136 119.998 118.082C124.282 125.845 126.513 134.355 126.072 139.746C125.784 143.271 121.415 144.791 118.971 142.22C117.849 141.04 116.661 139.22 115.499 136.459C110.824 125.35 106.452 118.389 105.93 117.69C104.539 115.825 103.545 112.016 106.572 109.991Z" fill="#7CB305"/>
<path fill-rule="evenodd" clip-rule="evenodd" d="M109.709 114.423C109.755 114.971 109.345 115.453 108.793 115.499C108.242 115.545 107.757 115.138 107.711 114.589C107.664 114.041 108.074 113.559 108.626 113.513C109.177 113.467 109.662 113.874 109.709 114.423Z" fill="white"/>
<path fill-rule="evenodd" clip-rule="evenodd" d="M118.223 118.678C118.27 119.226 117.86 119.708 117.308 119.754C116.756 119.8 116.272 119.393 116.225 118.845C116.179 118.296 116.589 117.814 117.141 117.768C117.692 117.722 118.177 118.13 118.223 118.678Z" fill="white"/>
<path fill-rule="evenodd" clip-rule="evenodd" d="M116.796 130.007C116.849 130.636 116.38 131.188 115.748 131.24C115.116 131.293 114.561 130.826 114.508 130.198C114.455 129.57 114.924 129.018 115.556 128.966C116.188 128.913 116.743 129.379 116.796 130.007Z" fill="white"/>
<path fill-rule="evenodd" clip-rule="evenodd" d="M142.949 113.076C142.949 113.967 142.222 114.69 141.326 114.69C140.429 114.69 139.702 113.967 139.702 113.076C139.702 112.185 140.429 111.462 141.326 111.462C142.222 111.462 142.949 112.185 142.949 113.076Z" fill="white"/>
<path fill-rule="evenodd" clip-rule="evenodd" d="M129.879 118.005C129.879 118.896 129.153 119.619 128.256 119.619C127.359 119.619 126.632 118.896 126.632 118.005C126.632 117.114 127.359 116.391 128.256 116.391C129.153 116.391 129.879 117.114 129.879 118.005Z" fill="white"/>
<path fill-rule="evenodd" clip-rule="evenodd" d="M134.112 128.961C134.112 129.334 133.809 129.636 133.434 129.636C133.059 129.636 132.755 129.334 132.755 128.961C132.755 128.589 133.059 128.287 133.434 128.287C133.809 128.287 134.112 128.589 134.112 128.961Z" fill="white"/>
<path fill-rule="evenodd" clip-rule="evenodd" d="M139.001 137.589C139.001 138.14 138.552 138.586 137.999 138.586C137.445 138.586 136.996 138.14 136.996 137.589C136.996 137.039 137.445 136.593 137.999 136.593C138.552 136.593 139.001 137.039 139.001 137.589Z" fill="white"/>
<path d="M115.586 139.799C115.679 139.71 115.827 139.714 115.916 139.807L115.959 139.853L115.991 139.888C116.05 139.954 116.118 140.032 116.195 140.122C116.412 140.38 116.654 140.688 116.913 141.045C117.654 142.065 118.394 143.281 119.083 144.692C121.052 148.718 122.233 153.5 122.233 159.021C122.233 159.149 122.129 159.253 121.999 159.253C121.87 159.253 121.766 159.149 121.766 159.021C121.766 153.573 120.602 148.86 118.663 144.895C117.985 143.509 117.26 142.316 116.534 141.318C116.296 140.99 116.074 140.706 115.874 140.466L115.837 140.421C115.78 140.354 115.728 140.294 115.682 140.242L115.623 140.176C115.601 140.152 115.586 140.136 115.578 140.128C115.489 140.035 115.492 139.888 115.586 139.799Z" fill="#844FFF"/>
<path d="M133.246 141.426C133.323 141.323 133.469 141.302 133.573 141.378C133.676 141.455 133.697 141.601 133.62 141.704C132.769 142.837 131.983 144.056 131.261 145.348C129.733 148.08 128.552 151.008 127.676 153.936C127.369 154.961 127.122 155.913 126.93 156.766L126.891 156.941C126.846 157.15 126.806 157.34 126.772 157.511L126.75 157.623L126.712 157.834C126.69 157.96 126.57 158.045 126.442 158.024C126.315 158.003 126.229 157.883 126.251 157.756L126.264 157.682C126.275 157.621 126.288 157.55 126.304 157.469L126.343 157.275C126.38 157.091 126.424 156.887 126.474 156.665L126.517 156.478C126.704 155.663 126.94 154.765 127.228 153.804C128.113 150.845 129.307 147.886 130.852 145.122C131.584 143.813 132.381 142.576 133.246 141.426Z" fill="#844FFF"/>
<path d="M137.33 112.432C137.42 112.517 137.426 112.656 137.348 112.749L137.337 112.76C137.333 112.765 137.323 112.776 137.308 112.792L137.25 112.854L137.217 112.891C137.116 113.002 137 113.137 136.867 113.294C136.489 113.744 136.067 114.286 135.611 114.919C134.309 116.732 133.005 118.916 131.788 121.473C129.762 125.729 128.184 130.584 127.227 136.042C126.066 142.67 125.873 149.91 126.824 157.767C126.84 157.895 126.748 158.01 126.62 158.026C126.492 158.041 126.375 157.95 126.36 157.823C125.404 149.92 125.597 142.634 126.767 135.962C127.73 130.462 129.322 125.568 131.366 121.274C132.595 118.692 133.913 116.484 135.231 114.649L135.333 114.508C135.74 113.948 136.12 113.461 136.466 113.047L136.509 112.996C136.633 112.848 136.745 112.719 136.843 112.61L136.869 112.581C136.9 112.547 136.927 112.517 136.951 112.491L137 112.439C137.089 112.346 137.237 112.343 137.33 112.432Z" fill="#844FFF"/>
<path d="M117.097 126.213C117.208 126.146 117.351 126.182 117.418 126.291L117.442 126.33C117.46 126.362 117.482 126.399 117.508 126.443L117.544 126.507C117.607 126.616 117.677 126.742 117.755 126.884L117.819 127.002C118.057 127.443 118.318 127.952 118.596 128.528L118.634 128.607C119.541 130.497 120.448 132.708 121.294 135.219C123.664 142.251 125.105 150.232 125.159 159.019C125.16 159.148 125.056 159.252 124.927 159.253C124.798 159.254 124.693 159.15 124.692 159.022C124.638 150.287 123.205 142.354 120.851 135.367C120.026 132.919 119.144 130.761 118.261 128.91L118.212 128.808C117.91 128.179 117.629 127.63 117.376 127.164L117.299 127.024C117.226 126.892 117.16 126.775 117.102 126.675L117.075 126.627L117.018 126.532C116.952 126.422 116.987 126.279 117.097 126.213Z" fill="#844FFF"/>
<path fill-rule="evenodd" clip-rule="evenodd" d="M135.088 170.548H114.882C113.79 170.548 112.896 169.659 112.896 168.574V153.919C112.896 152.833 113.79 151.944 114.882 151.944H135.088C136.18 151.944 137.073 152.833 137.073 153.919V168.574C137.073 169.659 136.18 170.548 135.088 170.548Z" fill="#844FFF"/>
<circle cx="165" cy="49" r="48" fill="#34A853"/>
<path d="M158.69 56.2406L148.027 45.5708C147.645 45.1886 147.191 44.8854 146.692 44.6785C146.192 44.4716 145.657 44.3651 145.117 44.3651C144.576 44.3651 144.041 44.4716 143.541 44.6785C143.042 44.8854 142.588 45.1886 142.206 45.5708C141.434 46.3429 141 47.3899 141 48.4817C141 49.5735 141.434 50.6206 142.206 51.3926L155.783 64.9697C156.164 65.3539 156.618 65.6588 157.117 65.8669C157.617 66.075 158.153 66.1821 158.694 66.1821C159.235 66.1821 159.771 66.075 160.27 65.8669C160.77 65.6588 161.223 65.3539 161.605 64.9697L189.719 36.8486C190.106 36.4679 190.414 36.0143 190.626 35.5139C190.837 35.0136 190.947 34.4763 190.949 33.9332C190.952 33.3901 190.847 32.8519 190.64 32.3496C190.434 31.8473 190.13 31.3908 189.746 31.0066C189.362 30.6223 188.906 30.3178 188.404 30.1107C187.902 29.9036 187.364 29.7979 186.821 29.7998C186.278 29.8017 185.74 29.9111 185.24 30.1217C184.739 30.3323 184.285 30.6399 183.904 31.0268L158.69 56.2406Z" fill="white"/>
</svg>
