<svg width="33" height="32" viewBox="0 0 33 32" fill="none" xmlns="http://www.w3.org/2000/svg">
<path id="Vector" d="M23.6378 1.17306L20.6095 4.20112L28.7434 12.3343L31.7717 9.30627C33.3359 7.74219 33.3359 5.20839 31.7717 3.64431L29.3065 1.17306C27.7423 -0.39102 25.2083 -0.39102 23.6441 1.17306H23.6378ZM19.1955 5.61505L4.61088 20.2048C3.96017 20.8554 3.48465 21.6625 3.22187 22.5446L1.00696 30.071C0.850538 30.6028 0.994445 31.1721 1.38237 31.56C1.77029 31.9479 2.33966 32.0918 2.86523 31.9416L10.3922 29.7269C11.2744 29.4641 12.0815 28.9887 12.7322 28.338L27.3293 13.7483L19.1955 5.61505Z" fill="white"/>
</svg>
