<svg width="22" height="30" viewBox="0 0 22 30" fill="none" xmlns="http://www.w3.org/2000/svg">
<path id="Vector" d="M2.07799 20.4C1.58911 19.5555 1.22244 18.6889 0.977995 17.8C0.73355 16.9111 0.611328 16 0.611328 15.0666C0.611328 12.0889 1.64466 9.55554 3.71133 7.46665C5.77799 5.37776 8.30022 4.33331 11.278 4.33331H11.5113L9.37799 2.19998L11.2447 0.333313L16.578 5.66665L11.2447 11L9.37799 9.13331L11.5113 6.99998H11.278C9.05577 6.99998 7.16688 7.78354 5.61133 9.35065C4.05577 10.9178 3.27799 12.8231 3.27799 15.0666C3.27799 15.6444 3.34466 16.2111 3.478 16.7666C3.61133 17.3222 3.81133 17.8666 4.07799 18.4L2.07799 20.4ZM11.3113 29.6666L5.97799 24.3333L11.3113 19L13.178 20.8666L11.0447 23H11.278C13.5002 23 15.3891 22.2164 16.9447 20.6493C18.5002 19.0822 19.278 17.1769 19.278 14.9333C19.278 14.3555 19.2113 13.7889 19.078 13.2333C18.9447 12.6778 18.7447 12.1333 18.478 11.6L20.478 9.59998C20.9669 10.4444 21.3336 11.3111 21.578 12.2C21.8224 13.0889 21.9447 14 21.9447 14.9333C21.9447 17.9111 20.9113 20.4444 18.8447 22.5333C16.778 24.6222 14.2558 25.6666 11.278 25.6666H11.0447L13.178 27.8L11.3113 29.6666Z" fill="white"/>
</svg>
