<svg xmlns="http://www.w3.org/2000/svg" width="16" height="16" viewBox="0 0 16 16" fill="none">
  <path d="M1.61035 3.2041H14.4104V4.8041H1.61035V3.2041Z" fill="white" />
  <path d="M3.20996 0.00390625H12.81V1.60391H3.20996V0.00390625Z" fill="white" />
  <path d="M14.4 6.39551H1.6C1.17565 6.39551 0.768687 6.56408 0.468629 6.86414C0.168571 7.1642 0 7.57116 0 7.99551V14.3955C0 14.8199 0.168571 15.2268 0.468629 15.5269C0.768687 15.8269 1.17565 15.9955 1.6 15.9955H14.4C14.8243 15.9955 15.2313 15.8269 15.5314 15.5269C15.8314 15.2268 16 14.8199 16 14.3955V7.99551C16 7.57116 15.8314 7.1642 15.5314 6.86414C15.2313 6.56408 14.8243 6.39551 14.4 6.39551ZM6.64 14.3955L4 11.8035L5.12 10.6835L6.64 12.2035L10.88 7.96351L12 9.08351L6.64 14.3955Z" fill="white" />
</svg>
