<svg width="44" height="44" viewBox="0 0 44 44" fill="none" xmlns="http://www.w3.org/2000/svg">
<g id="Frame">
<path id="Vector" d="M40.3337 22C40.3337 20.9874 39.5129 20.1666 38.5003 20.1666C37.4878 20.1666 36.667 20.9874 36.667 22H40.3337ZM22.0003 7.33329C23.0129 7.33329 23.8337 6.51248 23.8337 5.49996C23.8337 4.48744 23.0129 3.66663 22.0003 3.66663V7.33329ZM35.7503 36.6666H8.25033V40.3333H35.7503V36.6666ZM7.33366 35.75V8.24996H3.66699V35.75H7.33366ZM36.667 22V35.75H40.3337V22H36.667ZM8.25033 7.33329H22.0003V3.66663H8.25033V7.33329ZM8.25033 36.6666C7.74407 36.6666 7.33366 36.2562 7.33366 35.75H3.66699C3.66699 38.2812 5.71901 40.3333 8.25033 40.3333V36.6666ZM35.7503 40.3333C38.2816 40.3333 40.3337 38.2812 40.3337 35.75H36.667C36.667 36.2562 36.2566 36.6666 35.7503 36.6666V40.3333ZM7.33366 8.24996C7.33366 7.7437 7.74406 7.33329 8.25033 7.33329V3.66663C5.71902 3.66663 3.66699 5.71865 3.66699 8.24996H7.33366Z" fill="#844FFF"/>
<path id="Vector_2" d="M5.5 32.0834L15.302 23.0982C15.9857 22.4715 17.0297 22.4541 17.7339 23.0577L29.3333 33.0001" stroke="#844FFF" stroke-width="3.66667" stroke-linecap="round" stroke-linejoin="round"/>
<path id="Vector_3" d="M25.667 28.4168L30.0427 24.0411C30.6878 23.396 31.7091 23.3234 32.439 23.8709L38.5003 28.4168" stroke="#844FFF" stroke-width="3.66667" stroke-linecap="round" stroke-linejoin="round"/>
<path id="Vector_4" d="M33.917 16.5V5.5" stroke="#844FFF" stroke-width="3.66667" stroke-linecap="round" stroke-linejoin="round"/>
<path id="Vector_5" d="M29.333 10.0833L33.9163 5.5L38.4997 10.0833" stroke="#844FFF" stroke-width="3.66667" stroke-linecap="round" stroke-linejoin="round"/>
</g>
</svg>
