<svg width="24" height="24" viewBox="0 0 24 24" fill="none" xmlns="http://www.w3.org/2000/svg">
<g id="icon-park-solid:vip-one" clip-path="url(#clip0_2196_14487)">
<g id="Group 36">
<g id="Vector 11">
<path d="M12 19.7765L17.25 9.10156H6.75L12 19.7765Z" fill="#C4C4C4"/>
<path d="M12 19.7765L17.25 9.10156H6.75L12 19.7765Z" fill="url(#paint0_linear_2196_14487)"/>
</g>
<g id="Vector 25">
<path d="M24.001 9.10193L19.801 3.00195L19.501 4.52695L22.501 9.10193H24.001Z" fill="#C4C4C4"/>
<path d="M24.001 9.10193L19.801 3.00195L19.501 4.52695L22.501 9.10193H24.001Z" fill="url(#paint1_linear_2196_14487)"/>
</g>
<g id="Vector 24">
<path d="M22.5 9.10037L19.5 4.52539L17.25 9.10037H22.5Z" fill="#C4C4C4"/>
<path d="M22.5 9.10037L19.5 4.52539L17.25 9.10037H22.5Z" fill="url(#paint2_linear_2196_14487)"/>
</g>
<g id="Vector 23">
<path d="M17.25 9.10037L19.5 4.52539H12L17.25 9.10037Z" fill="#C4C4C4"/>
<path d="M17.25 9.10037L19.5 4.52539H12L17.25 9.10037Z" fill="url(#paint3_linear_2196_14487)"/>
</g>
<g id="Vector 22">
<path d="M12 4.52539L17.25 9.10037H6.75L12 4.52539Z" fill="#C4C4C4"/>
<path d="M12 4.52539L17.25 9.10037H6.75L12 4.52539Z" fill="url(#paint4_linear_2196_14487)"/>
</g>
<g id="Vector 21">
<path d="M11.999 4.52539H4.49902L6.74901 9.10037L11.999 4.52539Z" fill="#C4C4C4"/>
<path d="M11.999 4.52539H4.49902L6.74901 9.10037L11.999 4.52539Z" fill="url(#paint5_linear_2196_14487)"/>
</g>
<g id="Vector 20">
<path d="M19.8001 3.00195H4.2002L4.50019 4.52695H12.0002H19.5001L19.8001 3.00195Z" fill="#C4C4C4"/>
<path d="M19.8001 3.00195H4.2002L4.50019 4.52695H12.0002H19.5001L19.8001 3.00195Z" fill="url(#paint6_linear_2196_14487)"/>
</g>
<g id="Vector 19">
<path d="M4.49999 4.52539L1.5 9.10037H6.74998L4.49999 4.52539Z" fill="#C4C4C4"/>
<path d="M4.49999 4.52539L1.5 9.10037H6.74998L4.49999 4.52539Z" fill="url(#paint7_linear_2196_14487)"/>
</g>
<g id="Vector 18">
<path d="M0 9.09997L4.19998 3L4.49998 4.52499L1.49999 9.09997H0Z" fill="#C4C4C4"/>
<path d="M0 9.09997L4.19998 3L4.49998 4.52499L1.49999 9.09997H0Z" fill="url(#paint8_linear_2196_14487)"/>
</g>
<g id="Vector 17">
<path d="M11.9999 21.3015L0 9.10156H1.49999L11.9999 19.7765V21.3015Z" fill="#C4C4C4"/>
<path d="M11.9999 21.3015L0 9.10156H1.49999L11.9999 19.7765V21.3015Z" fill="url(#paint9_linear_2196_14487)"/>
</g>
<g id="Vector 16">
<path d="M23.9999 9.10156L12 21.3015V19.7765L22.5 9.10156H23.9999Z" fill="#C4C4C4"/>
<path d="M23.9999 9.10156L12 21.3015V19.7765L22.5 9.10156H23.9999Z" fill="url(#paint10_linear_2196_14487)"/>
</g>
<g id="Vector 15">
<path d="M12 19.7765L1.5 9.10156H6.74998L12 19.7765Z" fill="#C4C4C4"/>
<path d="M12 19.7765L1.5 9.10156H6.74998L12 19.7765Z" fill="url(#paint11_linear_2196_14487)"/>
</g>
<g id="Vector 14">
<path d="M22.5 9.10156L12 19.7765L17.25 9.10156H22.5Z" fill="#C4C4C4"/>
<path d="M22.5 9.10156L12 19.7765L17.25 9.10156H22.5Z" fill="url(#paint12_linear_2196_14487)"/>
</g>
</g>
</g>
<defs>
<linearGradient id="paint0_linear_2196_14487" x1="12" y1="9.10156" x2="12" y2="19.7765" gradientUnits="userSpaceOnUse">
<stop stop-color="#7D5EE9"/>
<stop offset="1" stop-color="#E3A4FD"/>
</linearGradient>
<linearGradient id="paint1_linear_2196_14487" x1="19.501" y1="3.66712" x2="23.3478" y2="9.10193" gradientUnits="userSpaceOnUse">
<stop stop-color="#914FD8"/>
<stop offset="1" stop-color="#CD62E5"/>
</linearGradient>
<linearGradient id="paint2_linear_2196_14487" x1="20.494" y1="5.84606" x2="17.652" y2="8.77292" gradientUnits="userSpaceOnUse">
<stop stop-color="#9363D7"/>
<stop offset="1" stop-color="#E8CEFF"/>
</linearGradient>
<linearGradient id="paint3_linear_2196_14487" x1="12" y1="4.52539" x2="18.0755" y2="7.54222" gradientUnits="userSpaceOnUse">
<stop stop-color="#CEB7F3"/>
<stop offset="1" stop-color="#AF8AF6"/>
</linearGradient>
<linearGradient id="paint4_linear_2196_14487" x1="12" y1="4.52539" x2="12" y2="9.10037" gradientUnits="userSpaceOnUse">
<stop stop-color="#EDD5FC"/>
<stop offset="1" stop-color="#FBF2FE"/>
</linearGradient>
<linearGradient id="paint5_linear_2196_14487" x1="11.999" y1="4.52539" x2="5.69923" y2="6.81288" gradientUnits="userSpaceOnUse">
<stop stop-color="#E9DBFB"/>
<stop offset="1" stop-color="#EDE1FF"/>
</linearGradient>
<linearGradient id="paint6_linear_2196_14487" x1="4.2002" y1="3.76445" x2="19.8001" y2="3.76445" gradientUnits="userSpaceOnUse">
<stop stop-color="#EDD7FD"/>
<stop offset="0.895833" stop-color="#FDFCFF"/>
</linearGradient>
<linearGradient id="paint7_linear_2196_14487" x1="4.74658" y1="4.52539" x2="4.12499" y2="9.10037" gradientUnits="userSpaceOnUse">
<stop stop-color="#BDA0D7"/>
<stop offset="1" stop-color="#BEB4EF"/>
</linearGradient>
<linearGradient id="paint8_linear_2196_14487" x1="4.31041" y1="3.59155" x2="0.791876" y2="9.09997" gradientUnits="userSpaceOnUse">
<stop stop-color="#F7E0FD"/>
<stop offset="1" stop-color="#FEEDFF"/>
</linearGradient>
<linearGradient id="paint9_linear_2196_14487" x1="0.927208" y1="9.10156" x2="11.9999" y2="20.4793" gradientUnits="userSpaceOnUse">
<stop stop-color="#AF2EFD"/>
<stop offset="1" stop-color="#321392"/>
</linearGradient>
<linearGradient id="paint10_linear_2196_14487" x1="23.0302" y1="9.10156" x2="12" y2="20.7277" gradientUnits="userSpaceOnUse">
<stop stop-color="#271EC1"/>
<stop offset="1" stop-color="#EA25FE"/>
</linearGradient>
<linearGradient id="paint11_linear_2196_14487" x1="3.84529" y1="9.10156" x2="12" y2="19.7765" gradientUnits="userSpaceOnUse">
<stop stop-color="#B77BD8"/>
<stop offset="1" stop-color="#6940C2"/>
</linearGradient>
<linearGradient id="paint12_linear_2196_14487" x1="19.7372" y1="9.10156" x2="12" y2="19.7765" gradientUnits="userSpaceOnUse">
<stop stop-color="#8649D5"/>
<stop offset="1" stop-color="#C281E5"/>
</linearGradient>
<clipPath id="clip0_2196_14487">
<rect width="24" height="24" fill="white"/>
</clipPath>
</defs>
</svg>
