<svg width="84" height="79" viewBox="0 0 84 79" fill="none" xmlns="http://www.w3.org/2000/svg">
<g id="Group 631747">
<g id="Group">
<path id="Vector (Stroke)" opacity="0.5" fill-rule="evenodd" clip-rule="evenodd" d="M28.6609 29.1711C28.603 31.9923 28.6013 35.2797 28.6013 39.4341C28.6013 43.5881 28.603 46.8756 28.6609 49.6971C28.9572 49.7057 29.2637 49.7137 29.5807 49.7211C32.9852 49.8007 36.9514 49.8023 42 49.8023C47.0486 49.8023 51.0148 49.8007 54.4193 49.7211C54.7363 49.7137 55.0428 49.7057 55.3391 49.6971C55.397 46.8759 55.3987 43.5884 55.3987 39.4341C55.3987 35.2797 55.397 31.9923 55.3391 29.1711C55.0428 29.1625 54.7363 29.1545 54.4193 29.1471C51.0148 29.0674 47.0486 29.0658 42 29.0658C36.9514 29.0658 32.9852 29.0674 29.5807 29.1471C29.2637 29.1545 28.9572 29.1625 28.6609 29.1711ZM29.1719 21.6113C29.172 21.6114 29.1708 21.6165 29.1683 21.6265C29.1706 21.6162 29.1719 21.6112 29.1719 21.6113ZM54.8281 21.6113C54.8281 21.6112 54.8293 21.6162 54.8316 21.6265C54.8292 21.6165 54.828 21.6114 54.8281 21.6113ZM54.8281 57.2569C54.828 57.2568 54.8292 57.2516 54.8317 57.2416C54.8293 57.252 54.8281 57.257 54.8281 57.2569ZM29.1722 57.2586C29.1722 57.2587 29.1709 57.2537 29.1686 57.2434C29.1711 57.2534 29.1722 57.2585 29.1722 57.2586ZM6.15152 6.20247C0 11.9049 0 21.08 0 39.4341C0 57.7842 0 66.9672 6.15152 72.6657C12.303 78.3681 22.2006 78.3682 42 78.3682C61.7994 78.3682 71.697 78.3681 77.8485 72.6657C84 66.9632 84 57.7881 84 39.4341C84 21.08 84 11.9049 77.8485 6.20247C71.697 0.5 61.7994 0.5 42 0.5C22.2006 0.5 12.303 0.5 6.15152 6.20247Z" fill="url(#paint0_linear_99_3014)"/>
</g>
<path id="Rectangle 11" d="M11.7739 25.7909C11.7739 17.9824 18.1119 11.6523 25.9301 11.6523H69.7295C77.5478 11.6523 83.8857 17.9824 83.8857 25.791V64.3615C83.8857 72.17 77.5478 78.5001 69.7295 78.5001H25.9301C18.1119 78.5001 11.7739 72.17 11.7739 64.3615V25.7909Z" fill="#8100A9"/>
<path id="Rectangle 10" d="M5.15186 19.9928C5.15186 12.1843 11.4898 5.85425 19.3081 5.85425H63.1075C70.9257 5.85425 77.2637 12.1843 77.2637 19.9929V58.5634C77.2637 66.3719 70.9257 72.702 63.1075 72.702H19.3081C11.4898 72.702 5.15186 66.3719 5.15186 58.5634V19.9928Z" fill="white"/>
<path id="Vector (Stroke)_2" fill-rule="evenodd" clip-rule="evenodd" d="M48.5876 21.7967C46.1176 19.8156 44.8832 18.8255 43.8722 19.2542C43.1771 19.548 42.9579 20.3494 42.8888 21.7999C42.8887 21.8008 42.8887 21.8018 42.8886 21.8028C42.8569 22.4704 42.8569 23.2755 42.8569 24.2317V29.1216C42.8081 29.1216 42.7591 29.1217 42.71 29.122C42.7076 29.122 42.7052 29.122 42.7028 29.122C36.8326 29.154 29.5284 31.0179 24.1822 36.7128C20.9232 40.1843 18.3917 45.0794 17.3562 51.8509C17.3557 51.8537 17.3553 51.8564 17.3549 51.8592C17.2565 52.5032 17.1717 53.1642 17.1011 53.8426L17.0992 53.8607C16.8955 55.8134 16.7935 56.7917 17.2335 56.9838C17.6707 57.176 18.4969 56.4183 20.144 54.9077L20.1562 54.8965C20.3992 54.6729 20.6492 54.4535 20.9058 54.2385C20.9061 54.2383 20.9063 54.2381 20.9066 54.2379C21.0726 54.0987 21.2414 53.9614 21.4129 53.8259C22.2808 53.1398 23.2171 52.5004 24.209 51.91C27.7536 49.8002 32.0085 48.3163 36.3941 47.5691C38.4893 47.2121 40.6144 47.0233 42.706 47.0146C42.7067 47.0146 42.7075 47.0146 42.7082 47.0146C42.7578 47.0144 42.8074 47.0143 42.8569 47.0143V51.91C42.8569 54.9403 42.8569 56.4583 43.8722 56.8846C44.8832 57.3133 46.1176 56.3232 48.5876 54.3421L56.7706 47.7762C57.0963 47.5149 57.4125 47.2611 57.7194 47.0143C58.9742 46.005 60.0715 45.1126 61.0113 44.2982C62.512 42.9978 63.611 41.8965 64.3079 40.8362C64.9119 39.9174 65.214 39.0294 65.214 38.0694C65.214 37.1084 64.9119 36.2198 64.3079 35.3006C63.6112 34.2403 62.5126 33.1393 61.0124 31.8397C60.0717 31.0248 58.973 30.1317 57.7163 29.1216C57.4104 28.8757 57.0952 28.6229 56.7706 28.3626L48.5952 21.7999V21.8028L48.5876 21.7967Z" fill="url(#paint1_linear_99_3014)"/>
</g>
<defs>
<linearGradient id="paint0_linear_99_3014" x1="42" y1="0.5" x2="42" y2="78.3681" gradientUnits="userSpaceOnUse">
<stop stop-color="#EB00FF"/>
<stop offset="1" stop-color="#4663FF"/>
</linearGradient>
<linearGradient id="paint1_linear_99_3014" x1="41.0694" y1="19.1555" x2="41.0694" y2="57.0132" gradientUnits="userSpaceOnUse">
<stop stop-color="#EB00FF"/>
<stop offset="1" stop-color="#4663FF"/>
</linearGradient>
</defs>
</svg>
