<svg width="685" height="591" viewBox="0 0 685 591" fill="none" xmlns="http://www.w3.org/2000/svg">
<path opacity="0.5" d="M146.913 44.1312C91.9335 95.3015 83.4135 192.061 46.1777 263.444C33.2156 288.283 16.4668 310.513 7.72832 338.068C-12.3338 401.14 15.2774 472.684 52.234 522.778C69.8567 546.676 90.4407 568.569 115.345 578.642C134.497 586.388 155.033 586.711 175.192 586.913L528.373 590.947C567.806 591.391 611.62 589.791 639.971 555.982C659.511 532.703 667.449 498.706 674.185 466.256C682.462 426.382 689.963 383.079 677.086 345.101C662.376 301.65 625.176 277.027 602.068 239.533C564.565 178.788 550.758 92.6253 503 44.1312C480.705 21.4979 465.954 6.90665 437.286 2.46875C383.241 -5.90946 332.048 9.90559 278.974 7.70009C233.606 5.81734 184.55 9.0987 146.913 44.1312Z" fill="#E7ECFF" fill-opacity="0.2"/>
<path opacity="0.24" d="M257.59 500.194C236.298 502.571 214.352 505.185 195.616 516.815C193.108 518.375 190.562 520.214 189.178 523.022C186.401 528.67 189.553 536.114 194.443 539.514C199.334 542.913 205.368 543.3 211.124 543.58C313.607 548.539 416.244 546.592 518.814 544.656C548.6 544.096 578.857 543.451 607.403 533.844C612.534 532.123 618.174 529.541 620.106 523.915C622.633 516.556 616.868 508.402 610.142 506.111C603.416 503.819 596.238 505.53 589.282 506.53C565.126 510.005 540.759 504.691 516.71 500.441C469.628 492.136 420.779 485.38 373.093 484.122C356.835 483.702 342.951 489.963 327.039 492.437C304.066 496.031 280.688 497.612 257.59 500.194Z" fill="url(#paint0_linear_5138_102437)"/>
<path d="M173.836 279.633L226.932 159.54L258.556 176.737L205.459 296.829L173.836 279.633Z" fill="white"/>
<path d="M186.141 275.93L192.61 261.251L213.909 272.798L207.44 287.476L186.141 275.93Z" fill="url(#paint1_linear_5138_102437)"/>
<path d="M186.141 275.93L192.61 261.251L213.909 272.798L207.44 287.476L186.141 275.93Z" fill="url(#paint2_linear_5138_102437)"/>
<path d="M192.609 261.367L199.079 246.689L220.378 258.235L213.909 272.914L192.609 261.367Z" fill="url(#paint3_linear_5138_102437)"/>
<path d="M192.609 261.367L199.079 246.689L220.378 258.235L213.909 272.914L192.609 261.367Z" fill="url(#paint4_linear_5138_102437)"/>
<path d="M199.078 246.805L205.548 232.126L226.847 243.673L220.377 258.351L199.078 246.805Z" fill="url(#paint5_linear_5138_102437)"/>
<path d="M199.078 246.805L205.548 232.126L226.847 243.673L220.377 258.351L199.078 246.805Z" fill="url(#paint6_linear_5138_102437)"/>
<path d="M205.555 232.242L212.024 217.564L233.324 229.11L226.854 243.789L205.555 232.242Z" fill="url(#paint7_linear_5138_102437)"/>
<path d="M205.555 232.242L212.024 217.564L233.324 229.11L226.854 243.789L205.555 232.242Z" fill="url(#paint8_linear_5138_102437)"/>
<path d="M212.023 217.672L218.493 202.994L239.792 214.54L233.323 229.218L212.023 217.672Z" fill="url(#paint9_linear_5138_102437)"/>
<path d="M218.492 203.117L224.962 188.439L246.261 199.985L239.791 214.664L218.492 203.117Z" fill="url(#paint10_linear_5138_102437)"/>
<path d="M224.953 188.547L231.423 173.869L252.722 185.415L246.252 200.093L224.953 188.547Z" fill="url(#paint11_linear_5138_102437)"/>
<path d="M217.766 204.945L224.235 190.267L245.534 201.813L239.065 216.492L217.766 204.945Z" fill="url(#paint12_linear_5138_102437)"/>
<path d="M224.242 190.367L230.712 175.689L252.011 187.235L245.541 201.914L224.242 190.367Z" fill="url(#paint13_linear_5138_102437)"/>
<rect x="361.992" y="441.344" width="44.9544" height="41.7416" fill="url(#paint14_linear_5138_102437)"/>
<rect x="361.992" y="441.344" width="44.9544" height="41.7416" fill="url(#paint15_linear_5138_102437)"/>
<rect x="266.578" y="267.25" width="237.616" height="180.711" rx="9.37" fill="url(#paint16_linear_5138_102437)"/>
<path opacity="0.65" d="M496.401 282.237V431.959C496.409 434.444 495.527 436.83 493.95 438.59C492.373 440.351 490.231 441.342 487.996 441.345H280.953C278.718 441.339 276.577 440.347 275.001 438.587C273.425 436.827 272.542 434.443 272.547 431.959V282.237C272.542 279.754 273.425 277.37 275.001 275.609C276.577 273.849 278.718 272.857 280.953 272.852H487.996C490.231 272.854 492.373 273.846 493.95 275.606C495.527 277.367 496.409 279.753 496.401 282.237Z" fill="url(#paint17_linear_5138_102437)"/>
<rect x="341.352" y="477.992" width="94.496" height="10.6899" fill="url(#paint18_linear_5138_102437)"/>
<rect x="361.992" y="471.883" width="44.9544" height="6.10853" fill="url(#paint19_linear_5138_102437)"/>
<path fill-rule="evenodd" clip-rule="evenodd" d="M433.095 179.82V190.242L427.269 190.296C426.702 195.145 425.041 199.759 422.438 203.715L427.414 209.401L420.593 216.654L415.694 211.043C412.674 213.326 409.266 214.908 405.675 215.694V222.457H396.246V215.854C392.219 215.208 388.381 213.548 385.029 211.001L380.932 215.492L374.256 208.025L378.324 203.619C375.763 199.662 374.13 195.066 373.57 190.242H367.039V179.82H373.802C374.641 175.673 376.289 171.777 378.633 168.406L374.855 164.086L381.676 156.832L385.541 161.281C388.736 158.936 392.368 157.416 396.168 156.832V149.664H405.598V156.992C409.434 157.837 413.06 159.587 416.226 162.123L421.056 156.875L427.694 164.278L422.863 169.612C424.757 172.707 426.101 176.171 426.824 179.82H433.095ZM384.439 186.392C384.428 196.095 391.544 203.971 400.332 203.983C404.554 203.997 408.608 202.154 411.598 198.861C414.587 195.569 416.266 191.097 416.263 186.435C416.274 176.732 409.159 168.856 400.37 168.845C391.582 168.833 384.449 176.689 384.439 186.392Z" fill="url(#paint20_linear_5138_102437)"/>
<path fill-rule="evenodd" clip-rule="evenodd" d="M467.96 197.18L467.539 203.31L464.095 203.077C463.579 205.896 462.431 208.525 460.757 210.723L463.445 214.318L459.159 218.242L456.519 214.71C454.66 215.901 452.604 216.662 450.473 216.948L450.196 220.925L444.676 220.469L444.944 216.588C442.613 216.01 440.433 214.845 438.573 213.183L435.99 215.622L432.384 210.946L434.938 208.549C433.596 206.1 432.823 203.319 432.69 200.457L428.969 200.139L429.38 194.02L433.331 194.349C433.983 191.953 435.096 189.742 436.593 187.869L434.555 185.143L438.841 181.22L440.917 184.019C442.875 182.795 445.055 182.07 447.297 181.898L447.584 177.656L453.104 178.112L452.807 182.429C455.011 183.11 457.054 184.315 458.796 185.96L461.828 183.107L465.425 187.784L462.364 190.679C463.357 192.591 464.006 194.698 464.277 196.883L467.96 197.18ZM439.219 198.65C438.827 204.348 442.674 209.319 447.813 209.757C450.286 209.973 452.735 209.088 454.616 207.296C456.498 205.504 457.658 202.955 457.839 200.213C458.225 194.514 454.373 189.547 449.233 189.116C444.093 188.685 439.611 192.952 439.219 198.65Z" fill="url(#paint21_linear_5138_102437)"/>
<path d="M538.603 255.019V501.321C538.588 506.425 534.899 510.558 530.344 510.576H529.393C524.846 510.552 521.172 506.415 521.172 501.321V255.019L529.459 230.602L538.603 255.019Z" fill="url(#paint22_linear_5138_102437)"/>
<rect x="528.969" y="255.031" width="9.63309" height="235.687" fill="url(#paint23_linear_5138_102437)"/>
<path opacity="0.65" d="M538.603 255.03L521.172 254.658L526.543 238.336L529.423 229.578L532.587 238.336L538.603 255.03Z" fill="url(#paint24_linear_5138_102437)"/>
<path d="M532.635 238.747H526.672L529.513 230.094L532.635 238.747Z" fill="url(#paint25_linear_5138_102437)"/>
<rect x="520.25" y="487.156" width="18.3487" height="8.65375" fill="url(#paint26_linear_5138_102437)"/>
<path d="M538.603 493.773V501.603C538.588 506.83 534.899 511.063 530.344 511.081H529.393C524.846 511.057 521.172 506.82 521.172 501.603V493.773H538.603Z" fill="url(#paint27_linear_5138_102437)"/>
<path d="M496.401 282.276V285.578H272.547V282.276C272.542 279.782 273.425 277.388 275.001 275.621C276.578 273.853 278.719 272.857 280.953 272.852H487.995C490.23 272.854 492.373 273.85 493.95 275.618C495.527 277.385 496.409 279.781 496.401 282.276Z" fill="url(#paint28_linear_5138_102437)"/>
<rect x="277.133" y="301.867" width="21.5598" height="115.553" fill="url(#paint29_linear_5138_102437)"/>
<rect x="331.258" y="310.008" width="101.377" height="106.39" fill="url(#paint30_linear_5138_102437)"/>
<rect x="354.656" y="359.898" width="3.21103" height="4.5814" fill="url(#paint31_linear_5138_102437)"/>
<rect x="354.656" y="338.516" width="3.21103" height="4.5814" fill="url(#paint32_linear_5138_102437)"/>
<rect x="311.078" y="359.898" width="3.21103" height="4.5814" fill="url(#paint33_linear_5138_102437)"/>
<rect x="311.078" y="338.516" width="3.21103" height="4.5814" fill="url(#paint34_linear_5138_102437)"/>
<rect x="354.656" y="315.609" width="3.21103" height="4.5814" fill="url(#paint35_linear_5138_102437)"/>
<rect x="311.539" y="315.609" width="3.21103" height="4.5814" fill="url(#paint36_linear_5138_102437)"/>
<rect x="333.555" y="315.609" width="3.21103" height="4.5814" fill="url(#paint37_linear_5138_102437)"/>
<rect x="333.555" y="359.898" width="3.21103" height="4.5814" fill="url(#paint38_linear_5138_102437)"/>
<path fill-rule="evenodd" clip-rule="evenodd" d="M317.047 358.879H352.827V321.719H317.047V358.879ZM349.224 354.95H320.651V325.616H349.224V354.95Z" fill="url(#paint39_linear_5138_102437)"/>
<path fill-rule="evenodd" clip-rule="evenodd" d="M317.047 358.879H352.827V321.719H317.047V358.879ZM349.224 354.95H320.651V325.616H349.224V354.95Z" fill="url(#paint40_linear_5138_102437)"/>
<rect x="447.32" y="291.688" width="45.8718" height="50.9044" fill="url(#paint41_linear_5138_102437)"/>
<rect x="447.32" y="347.68" width="45.8718" height="50.9044" fill="url(#paint42_linear_5138_102437)"/>
<rect opacity="0.65" x="277.133" y="301.359" width="21.5598" height="6.61757" fill="url(#paint43_linear_5138_102437)"/>
<path d="M184.063 266.656L278.094 182.901L300.148 213.355L206.117 297.11L184.063 266.656Z" fill="white"/>
<path d="M197.227 269.008L208.718 258.715L223.653 279.223L212.162 289.516L197.227 269.008Z" fill="url(#paint44_linear_5138_102437)"/>
<path d="M197.227 269.008L208.718 258.715L223.653 279.223L212.162 289.516L197.227 269.008Z" fill="url(#paint45_linear_5138_102437)"/>
<path d="M208.055 258.945L219.529 248.699L234.398 269.178L222.923 279.424L208.055 258.945Z" fill="url(#paint46_linear_5138_102437)"/>
<path d="M208.055 258.945L219.529 248.699L234.398 269.178L222.923 279.424L208.055 258.945Z" fill="url(#paint47_linear_5138_102437)"/>
<path d="M219.484 248.805L230.959 238.558L245.827 259.037L234.353 269.284L219.484 248.805Z" fill="url(#paint48_linear_5138_102437)"/>
<path d="M219.484 248.805L230.959 238.558L245.827 259.037L234.353 269.284L219.484 248.805Z" fill="url(#paint49_linear_5138_102437)"/>
<path d="M230.914 238.664L242.389 228.418L257.257 248.897L245.782 259.143L230.914 238.664Z" fill="url(#paint50_linear_5138_102437)"/>
<path d="M230.914 238.664L242.389 228.418L257.257 248.897L245.782 259.143L230.914 238.664Z" fill="url(#paint51_linear_5138_102437)"/>
<path d="M242.891 228.25L254.382 217.957L269.317 238.465L257.826 248.758L242.891 228.25Z" fill="url(#paint52_linear_5138_102437)"/>
<path d="M254.383 217.867L265.874 207.574L280.81 228.082L269.319 238.375L254.383 217.867Z" fill="url(#paint53_linear_5138_102437)"/>
<path d="M265.203 208.227L276.678 197.98L291.546 218.459L280.071 228.706L265.203 208.227Z" fill="url(#paint54_linear_5138_102437)"/>
<path d="M278.968 230.199L269.296 238.742L254.656 218.269L264.328 209.727L278.968 230.199Z" fill="url(#paint55_linear_5138_102437)"/>
<path d="M263.852 209.547L275.326 199.301L290.194 219.779L278.72 230.026L263.852 209.547Z" fill="url(#paint56_linear_5138_102437)"/>
<path d="M240.438 271.397V333.933H230.805V271.397C230.805 269.086 232.097 267.03 234.022 266.276V260.033C234.022 258.958 234.79 258.086 235.738 258.086C236.685 258.086 237.454 258.958 237.454 260.033V266.382C239.25 267.216 240.428 269.195 240.438 271.397Z" fill="url(#paint57_linear_5138_102437)"/>
<path d="M240.438 271.397V333.933H230.805V271.397C230.805 269.086 232.097 267.03 234.022 266.276V260.033C234.022 258.958 234.79 258.086 235.738 258.086C236.685 258.086 237.454 258.958 237.454 260.033V266.382C239.25 267.216 240.428 269.195 240.438 271.397Z" fill="url(#paint58_linear_5138_102437)"/>
<rect x="224.836" y="311.031" width="22.9359" height="4.5814" rx="2.245" fill="url(#paint59_linear_5138_102437)"/>
<path d="M236.165 352.768C232.236 352.768 228.969 346.244 228.969 341.892V313.062H243.189V341.892C243.189 346.244 240.086 352.768 236.165 352.768Z" fill="url(#paint60_linear_5138_102437)"/>
<rect x="224.836" y="311.031" width="22.9359" height="4.5814" rx="2.245" fill="url(#paint61_linear_5138_102437)"/>
<path d="M236.165 352.77C232.236 352.77 228.969 346.338 228.969 342.047V315.609H243.189V342.047C243.189 346.338 240.086 352.77 236.165 352.77Z" fill="url(#paint62_linear_5138_102437)"/>
<path d="M327.888 383.316C327.58 381.501 327.385 378.933 327.978 378.756C329.228 378.366 327.888 383.316 327.888 383.316Z" fill="#28353D"/>
<path d="M393.558 482.837C393.335 489.249 388.86 512.811 388.715 519.233C388.715 521.37 389.228 524.65 388.608 526.713C387.33 531.083 382.797 530.485 382.206 527.91L381.983 526.627C379.881 514.146 383.262 499.988 381.983 483.692C381.218 473.744 377.653 454.563 375.319 454.435C374.089 454.435 346.008 520.173 343.567 524.223C342.366 526.264 338.985 525.943 337.348 527.589C335.712 529.235 350.987 477.751 357.389 450.545C358.883 444.93 359.856 439.163 360.295 433.331C360.47 429.965 359.491 428.832 362.291 427.838C364.228 427.154 366.911 427.347 368.984 427.187C371.241 426.994 392.231 426.951 392.231 428.597C392.028 437.53 394.101 468.027 393.558 482.837Z" fill="#606161"/>
<path d="M393.558 482.837C393.335 489.249 388.86 512.811 388.715 519.233C388.715 521.37 389.228 524.65 388.608 526.713C387.33 531.083 382.797 530.485 382.206 527.91L381.983 526.627C379.881 514.146 383.262 499.988 381.983 483.692C381.218 473.744 377.653 454.563 375.319 454.435C374.089 454.435 346.008 520.173 343.567 524.223C342.366 526.264 338.985 525.943 337.348 527.589C335.712 529.235 350.987 477.751 357.389 450.545C358.883 444.93 359.856 439.163 360.295 433.331C360.47 429.965 359.491 428.832 362.291 427.838C364.228 427.154 366.911 427.347 368.984 427.187C371.241 426.994 392.231 426.951 392.231 428.597C392.028 437.53 394.101 468.027 393.558 482.837Z" fill="url(#paint63_linear_5138_102437)"/>
<path d="M368.768 346.231C368.591 344.202 367.728 343.102 366.885 343.102C366.042 343.102 365.522 344.181 365.698 346.231C365.738 347.745 366.767 349.005 368.131 349.21C368.984 349.21 368.954 348.26 368.768 346.231Z" fill="#FFCD9C"/>
<path d="M383.618 346.237C383.733 344.204 384.575 343.102 385.445 343.102C386.316 343.102 386.88 344.183 386.746 346.237C386.734 347.771 385.705 349.051 384.355 349.21C383.494 349.21 383.484 348.269 383.618 346.237Z" fill="#FFCD9C"/>
<path d="M385.323 355.148C385.205 356.22 381.118 360.915 376.467 360.915C371.817 360.915 367.978 356.627 367.166 354.912C366.355 353.197 369.62 331.138 371.51 329.295C373.4 327.451 381.059 328.662 381.702 329.638C383.246 331.942 385.828 350.871 385.323 355.148Z" fill="#F4AD7D"/>
<path d="M383.406 338.506C382.774 338.843 380.291 331.82 379.771 330.64C379.25 329.461 379.334 328.25 379.966 327.913C380.598 327.576 381.528 328.271 382.049 329.44C382.569 330.609 384.029 338.18 383.406 338.506Z" fill="#FFCD9C"/>
<path d="M369.482 338.004C368.827 337.756 370.563 330.466 370.942 329.206C371.32 327.946 372.17 327.116 372.789 327.364C373.408 327.612 373.666 328.839 373.288 330.11C372.909 331.381 370.101 338.251 369.482 338.004Z" fill="#FFCD9C"/>
<path d="M372.084 354.297H382.06L383.555 364.794C378.12 368.043 374.952 367.685 370.711 364.077L372.084 354.297Z" fill="#F4AD7D"/>
<path d="M376.211 356.396C376.211 356.202 376.626 356.039 377.128 356.039C377.631 356.039 378.046 356.202 378.046 356.396C378.046 356.589 377.642 356.62 377.128 356.62C376.615 356.62 376.211 356.599 376.211 356.396Z" fill="#F4AD7D"/>
<path d="M385.858 351.654C386.236 349.152 386.852 331.241 385.342 328.871C383.831 326.5 374.788 324.966 373.416 325.336C370.345 326.163 370.882 328.599 370.882 328.599C369.969 328.614 369.076 328.887 368.288 329.393C367.235 330.176 365.019 341.464 366.788 350.001C367.583 353.84 370.713 357.178 376.119 357.341C382.778 357.537 385.401 354.753 385.858 351.654Z" fill="#606161"/>
<path d="M372.004 323.996C372.719 323.327 375.094 325.191 376.02 325.3C378.831 325.283 381.62 325.859 384.242 326.998C385.695 327.563 387.015 328.491 388.101 329.712C389.196 330.966 389.7 332.725 389.462 334.459C388.979 337.011 386.567 338.589 385.776 341.044C385.139 343.012 385.592 344.915 385.612 346.894C385.625 348.494 385.521 350.092 385.303 351.674C384.859 354.755 382.321 357.524 375.808 357.34C370.559 357.178 367.519 353.858 366.747 350.041C365.702 343.705 365.976 337.185 367.548 330.988C370.377 331.717 373.272 332.08 376.175 332.069C379.253 332.098 382.322 331.698 385.313 330.88C385.824 334.188 385.814 340.817 385.65 345.77" fill="#606161"/>
<path d="M357.345 362.927C355.771 363.073 354.255 363.655 352.933 364.62C350.67 366.601 350.498 370.296 350.536 373.512C350.459 377.968 350.737 382.422 351.367 386.823C352.045 390.859 353.277 394.735 354.289 398.686C355.885 405.115 356.723 411.748 356.782 418.419C356.782 422.082 356.725 426.107 358.778 428.972C361.022 432.081 364.995 432.688 368.567 432.912C373.638 433.242 378.729 433.285 383.8 433.05C387.2 432.88 390.819 432.507 393.512 430.186C395.661 428.333 400.694 365.642 396.788 364.056C392.882 362.469 388.68 362.064 384.535 361.681C375.243 360.808 366.495 360.115 357.345 362.927Z" fill="url(#paint64_linear_5138_102437)"/>
<path d="M386.603 492.904C386.105 500.012 384.917 525.843 384.917 525.843L381.889 525.727C379.81 513.316 383.154 499.236 381.889 483.032C381.132 473.14 377.606 454.066 375.297 453.939C375.987 447.563 379.867 448.52 379.867 448.52C382.689 453.2 385.124 458.154 387.14 463.321C389.449 470.037 387.111 485.763 386.603 492.904Z" fill="url(#paint65_linear_5138_102437)"/>
<path d="M329.598 526.368C329.125 526.756 328.766 527.287 328.566 527.896C328.458 528.397 328.502 528.922 328.69 529.393C329.224 530.594 330.238 531.456 331.433 531.727C332.614 531.976 333.823 532.022 335.017 531.863L338.841 531.58C339.814 531.555 340.779 531.382 341.708 531.067C342.639 530.748 343.407 530.02 343.83 529.058C344.055 528.349 344.143 527.597 344.088 526.85C344.088 523.385 342.98 520.57 339.519 521.418C335.895 522.164 332.49 523.863 329.598 526.368Z" fill="url(#paint66_linear_5138_102437)"/>
<path d="M393.102 527.91C393.537 528.264 393.866 528.748 394.05 529.302C394.148 529.753 394.11 530.226 393.94 530.651C393.453 531.739 392.523 532.518 391.427 532.755C390.346 532.987 389.238 533.03 388.145 532.884L384.674 532.625C383.791 532.604 382.915 532.452 382.07 532.172C381.219 531.881 380.518 531.221 380.135 530.349C379.93 529.708 379.849 529.029 379.896 528.353C379.896 525.224 380.893 522.645 384.075 523.444C387.374 524.121 390.472 525.654 393.102 527.91Z" fill="url(#paint67_linear_5138_102437)"/>
<path d="M397.32 363.969C397.32 363.969 412.317 373.724 416.821 386.055C421.325 398.387 402.07 428.108 402.07 428.108L397.95 423.432C397.95 423.432 408 401.006 406.446 395.397C404.893 389.788 398.805 384.56 398.805 384.56L397.32 363.969Z" fill="url(#paint68_linear_5138_102437)"/>
<path d="M354.653 383.24C354.653 383.24 333.801 393.614 325.327 388.523C316.854 383.432 325.577 357.859 325.577 357.859L331.252 359.998C331.252 359.998 326.51 373.036 331.935 374.972C337.359 376.908 353.614 364.191 353.614 364.191L354.653 383.24Z" fill="url(#paint69_linear_5138_102437)"/>
<path d="M393.916 427.589C393.316 428.022 392.83 428.603 392.502 429.28C392.305 429.854 392.234 430.466 392.294 431.073C392.258 432.543 392.86 433.954 393.936 434.915C394.692 435.364 395.538 435.624 396.408 435.673C396.941 435.77 397.487 435.77 398.02 435.673C398.564 435.566 399.018 435.18 399.227 434.648C399.298 434.312 399.328 433.968 399.316 433.624C399.385 431.933 400.532 430.55 401.481 429.167C401.711 428.9 401.859 428.568 401.907 428.214C401.901 427.822 401.769 427.443 401.531 427.138C400.888 426.175 399.296 424.403 398.02 424.556C396.744 424.71 394.905 426.749 393.916 427.589Z" fill="#F4AD7D"/>
<path d="M334.834 354.013C335.106 353.594 335.291 353.119 335.378 352.619C335.448 352.103 335.202 351.596 334.764 351.354C334.069 351.067 333.243 351.822 332.558 351.503C332.326 351.366 331.125 351.742 330.987 351.503C330.178 350.265 330.721 348.239 330.655 346.738C330.694 345.937 330.626 345.135 330.453 344.355C330.25 343.552 329.524 343.025 328.741 343.111C328.096 343.27 327.734 343.962 327.331 344.515C326.928 345.068 326.122 345.727 325.599 346.419C324.704 347.839 324.193 349.49 324.118 351.194C323.836 353.321 323.655 355.757 325.065 357.289C326.153 358.469 329.466 359.863 330.987 359.235C332.669 358.533 333.988 355.544 334.834 354.013Z" fill="#F4AD7D"/>
<path fill-rule="evenodd" clip-rule="evenodd" d="M326.004 276.641H324.93V280.018L323.699 276.641H322.462L321.055 280.485H322.183L322.391 279.858H323.759L323.967 280.485H326.004V276.641ZM322.664 279.04L323.075 277.797L323.491 279.04H322.664Z" fill="url(#paint70_linear_5138_102437)"/>
<path d="M285.628 280.879H283.118L282.715 282.062H281L283.434 275.363H285.331L287.765 282.062H286.03L285.628 280.879ZM285.206 279.619L284.373 277.166L283.549 279.619H285.206Z" fill="white"/>
<path d="M286.79 279.39C286.79 278.843 286.892 278.362 287.097 277.949C287.308 277.535 287.592 277.217 287.949 276.995C288.307 276.772 288.706 276.661 289.147 276.661C289.498 276.661 289.818 276.734 290.105 276.88C290.399 277.026 290.629 277.224 290.795 277.472V275H292.434V282.062H290.795V281.298C290.642 281.553 290.421 281.757 290.134 281.909C289.853 282.062 289.524 282.138 289.147 282.138C288.706 282.138 288.307 282.027 287.949 281.804C287.592 281.575 287.308 281.254 287.097 280.84C286.892 280.42 286.79 279.937 286.79 279.39ZM290.795 279.399C290.795 278.992 290.68 278.671 290.45 278.436C290.227 278.2 289.952 278.082 289.626 278.082C289.3 278.082 289.023 278.2 288.793 278.436C288.569 278.665 288.457 278.983 288.457 279.39C288.457 279.797 288.569 280.121 288.793 280.363C289.023 280.599 289.3 280.716 289.626 280.716C289.952 280.716 290.227 280.599 290.45 280.363C290.68 280.128 290.795 279.807 290.795 279.399Z" fill="white"/>
<path d="M294.405 282.138C293.938 282.138 293.523 282.059 293.159 281.9C292.795 281.741 292.507 281.524 292.297 281.251C292.086 280.971 291.968 280.659 291.942 280.316H293.561C293.581 280.5 293.667 280.65 293.82 280.764C293.973 280.879 294.162 280.936 294.385 280.936C294.59 280.936 294.746 280.898 294.855 280.821C294.97 280.739 295.027 280.634 295.027 280.506C295.027 280.354 294.948 280.242 294.788 280.172C294.628 280.096 294.369 280.013 294.012 279.924C293.628 279.835 293.309 279.743 293.054 279.648C292.798 279.546 292.578 279.39 292.392 279.18C292.207 278.964 292.115 278.674 292.115 278.311C292.115 278.006 292.198 277.729 292.364 277.481C292.536 277.227 292.785 277.026 293.111 276.88C293.443 276.734 293.836 276.661 294.29 276.661C294.96 276.661 295.487 276.826 295.871 277.157C296.26 277.488 296.484 277.927 296.541 278.474H295.027C295.002 278.289 294.919 278.143 294.778 278.035C294.644 277.927 294.465 277.872 294.242 277.872C294.05 277.872 293.903 277.911 293.801 277.987C293.699 278.057 293.648 278.156 293.648 278.283C293.648 278.436 293.728 278.55 293.887 278.626C294.053 278.703 294.309 278.779 294.654 278.855C295.05 278.957 295.372 279.059 295.621 279.161C295.871 279.256 296.088 279.415 296.273 279.638C296.465 279.854 296.564 280.147 296.57 280.516C296.57 280.828 296.481 281.108 296.302 281.356C296.129 281.597 295.877 281.788 295.545 281.928C295.219 282.068 294.839 282.138 294.405 282.138Z" fill="white"/>
<path d="M300.648 277.481C300.527 277.259 300.351 277.09 300.121 276.975C299.897 276.855 299.632 276.794 299.326 276.794C298.796 276.794 298.371 276.969 298.051 277.319C297.732 277.663 297.572 278.124 297.572 278.703C297.572 279.32 297.738 279.803 298.071 280.153C298.409 280.497 298.872 280.669 299.46 280.669C299.862 280.669 300.201 280.567 300.476 280.363C300.757 280.16 300.961 279.867 301.089 279.485H299.01V278.283H302.574V279.8C302.453 280.207 302.245 280.586 301.951 280.936C301.664 281.286 301.296 281.569 300.849 281.785C300.402 282.001 299.897 282.11 299.335 282.11C298.671 282.11 298.077 281.966 297.553 281.68C297.036 281.388 296.63 280.984 296.336 280.468C296.049 279.953 295.905 279.364 295.905 278.703C295.905 278.041 296.049 277.453 296.336 276.937C296.63 276.416 297.036 276.012 297.553 275.725C298.071 275.433 298.661 275.286 299.326 275.286C300.131 275.286 300.808 275.48 301.357 275.868C301.913 276.257 302.28 276.794 302.459 277.481H300.648Z" fill="white"/>
<path d="M307.132 279.313C307.132 279.466 307.122 279.625 307.103 279.791H303.395C303.421 280.121 303.526 280.376 303.711 280.554C303.903 280.726 304.136 280.812 304.411 280.812C304.82 280.812 305.104 280.64 305.264 280.296H307.007C306.918 280.646 306.755 280.961 306.519 281.241C306.289 281.521 305.998 281.741 305.647 281.9C305.296 282.059 304.903 282.138 304.468 282.138C303.945 282.138 303.478 282.027 303.069 281.804C302.661 281.582 302.341 281.263 302.111 280.85C301.881 280.436 301.766 279.953 301.766 279.399C301.766 278.846 301.878 278.362 302.102 277.949C302.332 277.535 302.651 277.217 303.06 276.995C303.469 276.772 303.938 276.661 304.468 276.661C304.986 276.661 305.446 276.769 305.848 276.985C306.25 277.201 306.563 277.51 306.787 277.911C307.017 278.311 307.132 278.779 307.132 279.313ZM305.455 278.884C305.455 278.604 305.359 278.381 305.168 278.216C304.976 278.051 304.737 277.968 304.449 277.968C304.175 277.968 303.941 278.047 303.75 278.206C303.564 278.366 303.45 278.591 303.405 278.884H305.455Z" fill="white"/>
<path d="M309.865 276.68C310.491 276.68 310.989 276.883 311.359 277.29C311.736 277.691 311.925 278.245 311.925 278.951V282.062H310.296V279.17C310.296 278.814 310.203 278.537 310.018 278.34C309.833 278.143 309.584 278.044 309.271 278.044C308.958 278.044 308.709 278.143 308.523 278.34C308.338 278.537 308.245 278.814 308.245 279.17V282.062H306.607V276.737H308.245V277.443C308.412 277.208 308.635 277.023 308.916 276.89C309.197 276.75 309.513 276.68 309.865 276.68Z" fill="white"/>
<path d="M311.348 279.399C311.348 278.846 311.46 278.362 311.684 277.949C311.913 277.535 312.23 277.217 312.632 276.995C313.041 276.772 313.507 276.661 314.031 276.661C314.702 276.661 315.261 276.835 315.708 277.185C316.161 277.535 316.458 278.028 316.599 278.665H314.855C314.708 278.257 314.424 278.054 314.002 278.054C313.702 278.054 313.462 278.171 313.284 278.407C313.105 278.636 313.015 278.967 313.015 279.399C313.015 279.832 313.105 280.166 313.284 280.401C313.462 280.63 313.702 280.745 314.002 280.745C314.424 280.745 314.708 280.541 314.855 280.134H316.599C316.458 280.758 316.161 281.248 315.708 281.604C315.254 281.96 314.695 282.138 314.031 282.138C313.507 282.138 313.041 282.027 312.632 281.804C312.23 281.582 311.913 281.263 311.684 280.85C311.46 280.436 311.348 279.953 311.348 279.399Z" fill="white"/>
<path d="M321.547 276.737L318.194 284.591H316.431L317.657 281.881L315.482 276.737H317.312L318.548 280.067L319.775 276.737H321.547Z" fill="white"/>
<defs>
<linearGradient id="paint0_linear_5138_102437" x1="188.141" y1="515.408" x2="620.712" y2="515.408" gradientUnits="userSpaceOnUse">
<stop stop-color="#6859FF"/>
<stop offset="1" stop-color="#AF41FF"/>
</linearGradient>
<linearGradient id="paint1_linear_5138_102437" x1="196.791" y1="281.711" x2="204.424" y2="267.649" gradientUnits="userSpaceOnUse">
<stop stop-color="#6859FF"/>
<stop offset="1" stop-color="#AF41FF"/>
</linearGradient>
<linearGradient id="paint2_linear_5138_102437" x1="243.069" y1="310.092" x2="278.024" y2="247.595" gradientUnits="userSpaceOnUse">
<stop stop-color="#010101" stop-opacity="0.01"/>
<stop offset="0.95" stop-color="#010101"/>
</linearGradient>
<linearGradient id="paint3_linear_5138_102437" x1="203.26" y1="267.148" x2="210.893" y2="253.086" gradientUnits="userSpaceOnUse">
<stop stop-color="#6859FF"/>
<stop offset="1" stop-color="#AF41FF"/>
</linearGradient>
<linearGradient id="paint4_linear_5138_102437" x1="268.353" y1="308.158" x2="318.422" y2="219.982" gradientUnits="userSpaceOnUse">
<stop stop-color="#010101" stop-opacity="0.01"/>
<stop offset="0.95" stop-color="#010101"/>
</linearGradient>
<linearGradient id="paint5_linear_5138_102437" x1="209.728" y1="252.586" x2="217.361" y2="238.524" gradientUnits="userSpaceOnUse">
<stop stop-color="#6859FF"/>
<stop offset="1" stop-color="#AF41FF"/>
</linearGradient>
<linearGradient id="paint6_linear_5138_102437" x1="323.359" y1="312.607" x2="398.144" y2="160.544" gradientUnits="userSpaceOnUse">
<stop stop-color="#010101" stop-opacity="0.01"/>
<stop offset="0.95" stop-color="#010101"/>
</linearGradient>
<linearGradient id="paint7_linear_5138_102437" x1="216.205" y1="238.023" x2="223.838" y2="223.961" gradientUnits="userSpaceOnUse">
<stop stop-color="#6859FF"/>
<stop offset="1" stop-color="#AF41FF"/>
</linearGradient>
<linearGradient id="paint8_linear_5138_102437" x1="381.955" y1="320.992" x2="493.296" y2="102.094" gradientUnits="userSpaceOnUse">
<stop stop-color="#010101" stop-opacity="0.01"/>
<stop offset="0.36" stop-color="#010101" stop-opacity="0.36"/>
<stop offset="0.95" stop-color="#010101"/>
</linearGradient>
<linearGradient id="paint9_linear_5138_102437" x1="222.674" y1="223.453" x2="230.307" y2="209.391" gradientUnits="userSpaceOnUse">
<stop stop-color="#6859FF"/>
<stop offset="1" stop-color="#AF41FF"/>
</linearGradient>
<linearGradient id="paint10_linear_5138_102437" x1="229.142" y1="208.898" x2="236.776" y2="194.836" gradientUnits="userSpaceOnUse">
<stop stop-color="#6859FF"/>
<stop offset="1" stop-color="#AF41FF"/>
</linearGradient>
<linearGradient id="paint11_linear_5138_102437" x1="235.603" y1="194.328" x2="243.236" y2="180.266" gradientUnits="userSpaceOnUse">
<stop stop-color="#6859FF"/>
<stop offset="1" stop-color="#AF41FF"/>
</linearGradient>
<linearGradient id="paint12_linear_5138_102437" x1="313.814" y1="267.54" x2="377.228" y2="149.785" gradientUnits="userSpaceOnUse">
<stop stop-color="white" stop-opacity="0.01"/>
<stop offset="0.07" stop-color="white" stop-opacity="0.22"/>
<stop offset="0.16" stop-color="white" stop-opacity="0.45"/>
<stop offset="0.25" stop-color="white" stop-opacity="0.65"/>
<stop offset="0.33" stop-color="white" stop-opacity="0.8"/>
<stop offset="0.4" stop-color="white" stop-opacity="0.91"/>
<stop offset="0.46" stop-color="white" stop-opacity="0.98"/>
<stop offset="0.51" stop-color="white"/>
</linearGradient>
<linearGradient id="paint13_linear_5138_102437" x1="278.026" y1="240.495" x2="312.834" y2="174.144" gradientUnits="userSpaceOnUse">
<stop stop-color="white" stop-opacity="0.01"/>
<stop offset="0.07" stop-color="white" stop-opacity="0.22"/>
<stop offset="0.16" stop-color="white" stop-opacity="0.45"/>
<stop offset="0.25" stop-color="white" stop-opacity="0.65"/>
<stop offset="0.33" stop-color="white" stop-opacity="0.8"/>
<stop offset="0.4" stop-color="white" stop-opacity="0.91"/>
<stop offset="0.46" stop-color="white" stop-opacity="0.98"/>
<stop offset="0.51" stop-color="white"/>
</linearGradient>
<linearGradient id="paint14_linear_5138_102437" x1="361.992" y1="462.214" x2="406.947" y2="462.214" gradientUnits="userSpaceOnUse">
<stop stop-color="#6859FF"/>
<stop offset="1" stop-color="#AF41FF"/>
</linearGradient>
<linearGradient id="paint15_linear_5138_102437" x1="417.979" y1="476.123" x2="423.86" y2="411.708" gradientUnits="userSpaceOnUse">
<stop stop-color="#010101" stop-opacity="0.01"/>
<stop offset="0.95" stop-color="#010101"/>
</linearGradient>
<linearGradient id="paint16_linear_5138_102437" x1="266.578" y1="357.605" x2="504.194" y2="357.605" gradientUnits="userSpaceOnUse">
<stop stop-color="#6859FF"/>
<stop offset="1" stop-color="#AF41FF"/>
</linearGradient>
<linearGradient id="paint17_linear_5138_102437" x1="233.838" y1="240.536" x2="232.303" y2="469.377" gradientUnits="userSpaceOnUse">
<stop stop-color="white" stop-opacity="0.01"/>
<stop offset="0.07" stop-color="white" stop-opacity="0.22"/>
<stop offset="0.16" stop-color="white" stop-opacity="0.45"/>
<stop offset="0.25" stop-color="white" stop-opacity="0.65"/>
<stop offset="0.33" stop-color="white" stop-opacity="0.8"/>
<stop offset="0.4" stop-color="white" stop-opacity="0.91"/>
<stop offset="0.46" stop-color="white" stop-opacity="0.98"/>
<stop offset="0.51" stop-color="white"/>
</linearGradient>
<linearGradient id="paint18_linear_5138_102437" x1="341.352" y1="483.337" x2="435.848" y2="483.337" gradientUnits="userSpaceOnUse">
<stop stop-color="#6859FF"/>
<stop offset="1" stop-color="#AF41FF"/>
</linearGradient>
<linearGradient id="paint19_linear_5138_102437" x1="117.558" y1="463.266" x2="117.615" y2="535.669" gradientUnits="userSpaceOnUse">
<stop stop-color="#010101" stop-opacity="0.01"/>
<stop offset="0.95" stop-color="#010101"/>
</linearGradient>
<linearGradient id="paint20_linear_5138_102437" x1="367.039" y1="186.061" x2="433.095" y2="186.061" gradientUnits="userSpaceOnUse">
<stop stop-color="#6859FF"/>
<stop offset="1" stop-color="#AF41FF"/>
</linearGradient>
<linearGradient id="paint21_linear_5138_102437" x1="428.969" y1="199.291" x2="467.96" y2="199.291" gradientUnits="userSpaceOnUse">
<stop stop-color="#6859FF"/>
<stop offset="1" stop-color="#AF41FF"/>
</linearGradient>
<linearGradient id="paint22_linear_5138_102437" x1="521.172" y1="370.588" x2="538.603" y2="370.588" gradientUnits="userSpaceOnUse">
<stop stop-color="#6859FF"/>
<stop offset="1" stop-color="#AF41FF"/>
</linearGradient>
<linearGradient id="paint23_linear_5138_102437" x1="519.346" y1="2088.65" x2="659.706" y2="2088.67" gradientUnits="userSpaceOnUse">
<stop stop-color="#010101" stop-opacity="0.01"/>
<stop offset="0.95" stop-color="#010101"/>
</linearGradient>
<linearGradient id="paint24_linear_5138_102437" x1="523.654" y1="252.154" x2="537.567" y2="252.699" gradientUnits="userSpaceOnUse">
<stop stop-color="white" stop-opacity="0.01"/>
<stop offset="0.07" stop-color="white" stop-opacity="0.22"/>
<stop offset="0.16" stop-color="white" stop-opacity="0.45"/>
<stop offset="0.25" stop-color="white" stop-opacity="0.65"/>
<stop offset="0.33" stop-color="white" stop-opacity="0.8"/>
<stop offset="0.4" stop-color="white" stop-opacity="0.91"/>
<stop offset="0.46" stop-color="white" stop-opacity="0.98"/>
<stop offset="0.51" stop-color="white"/>
</linearGradient>
<linearGradient id="paint25_linear_5138_102437" x1="527.528" y1="237.827" x2="532.275" y2="238.012" gradientUnits="userSpaceOnUse">
<stop stop-color="#010101" stop-opacity="0.01"/>
<stop offset="0.95" stop-color="#010101"/>
</linearGradient>
<linearGradient id="paint26_linear_5138_102437" x1="492.399" y1="477.388" x2="492.573" y2="512.006" gradientUnits="userSpaceOnUse">
<stop stop-color="#010101" stop-opacity="0.01"/>
<stop offset="0.95" stop-color="#010101"/>
</linearGradient>
<linearGradient id="paint27_linear_5138_102437" x1="523.942" y1="472.537" x2="493.742" y2="506.23" gradientUnits="userSpaceOnUse">
<stop stop-color="#010101" stop-opacity="0.01"/>
<stop offset="0.95" stop-color="#010101"/>
</linearGradient>
<linearGradient id="paint28_linear_5138_102437" x1="645.83" y1="333.92" x2="665.122" y2="127.02" gradientUnits="userSpaceOnUse">
<stop stop-color="white" stop-opacity="0.01"/>
<stop offset="0.07" stop-color="white" stop-opacity="0.22"/>
<stop offset="0.16" stop-color="white" stop-opacity="0.45"/>
<stop offset="0.25" stop-color="white" stop-opacity="0.65"/>
<stop offset="0.33" stop-color="white" stop-opacity="0.8"/>
<stop offset="0.4" stop-color="white" stop-opacity="0.91"/>
<stop offset="0.46" stop-color="white" stop-opacity="0.98"/>
<stop offset="0.51" stop-color="white"/>
</linearGradient>
<linearGradient id="paint29_linear_5138_102437" x1="266.786" y1="277.876" x2="342.622" y2="460.11" gradientUnits="userSpaceOnUse">
<stop stop-color="white" stop-opacity="0.01"/>
<stop offset="0.07" stop-color="white" stop-opacity="0.22"/>
<stop offset="0.16" stop-color="white" stop-opacity="0.45"/>
<stop offset="0.25" stop-color="white" stop-opacity="0.65"/>
<stop offset="0.33" stop-color="white" stop-opacity="0.8"/>
<stop offset="0.4" stop-color="white" stop-opacity="0.91"/>
<stop offset="0.46" stop-color="white" stop-opacity="0.98"/>
<stop offset="0.51" stop-color="white"/>
</linearGradient>
<linearGradient id="paint30_linear_5138_102437" x1="314.241" y1="289.641" x2="312.361" y2="433.547" gradientUnits="userSpaceOnUse">
<stop stop-color="white" stop-opacity="0.01"/>
<stop offset="0.07" stop-color="white" stop-opacity="0.22"/>
<stop offset="0.16" stop-color="white" stop-opacity="0.45"/>
<stop offset="0.25" stop-color="white" stop-opacity="0.65"/>
<stop offset="0.33" stop-color="white" stop-opacity="0.8"/>
<stop offset="0.4" stop-color="white" stop-opacity="0.91"/>
<stop offset="0.46" stop-color="white" stop-opacity="0.98"/>
<stop offset="0.51" stop-color="white"/>
</linearGradient>
<linearGradient id="paint31_linear_5138_102437" x1="459.023" y1="387.236" x2="469.867" y2="93.1255" gradientUnits="userSpaceOnUse">
<stop stop-color="#010101" stop-opacity="0.01"/>
<stop offset="0.95" stop-color="#010101"/>
</linearGradient>
<linearGradient id="paint32_linear_5138_102437" x1="458.633" y1="387.407" x2="469.477" y2="93.2958" gradientUnits="userSpaceOnUse">
<stop stop-color="#010101" stop-opacity="0.01"/>
<stop offset="0.95" stop-color="#010101"/>
</linearGradient>
<linearGradient id="paint33_linear_5138_102437" x1="415.461" y1="386.04" x2="426.321" y2="91.9296" gradientUnits="userSpaceOnUse">
<stop stop-color="#010101" stop-opacity="0.01"/>
<stop offset="0.95" stop-color="#010101"/>
</linearGradient>
<linearGradient id="paint34_linear_5138_102437" x1="415.071" y1="386.21" x2="425.931" y2="92.0999" gradientUnits="userSpaceOnUse">
<stop stop-color="#010101" stop-opacity="0.01"/>
<stop offset="0.95" stop-color="#010101"/>
</linearGradient>
<linearGradient id="paint35_linear_5138_102437" x1="458.203" y1="388.171" x2="469.062" y2="94.061" gradientUnits="userSpaceOnUse">
<stop stop-color="#010101" stop-opacity="0.01"/>
<stop offset="0.95" stop-color="#010101"/>
</linearGradient>
<linearGradient id="paint36_linear_5138_102437" x1="415.101" y1="386.996" x2="425.945" y2="92.885" gradientUnits="userSpaceOnUse">
<stop stop-color="#010101" stop-opacity="0.01"/>
<stop offset="0.95" stop-color="#010101"/>
</linearGradient>
<linearGradient id="paint37_linear_5138_102437" x1="437.097" y1="387.586" x2="447.957" y2="93.487" gradientUnits="userSpaceOnUse">
<stop stop-color="#010101" stop-opacity="0.01"/>
<stop offset="0.95" stop-color="#010101"/>
</linearGradient>
<linearGradient id="paint38_linear_5138_102437" x1="437.93" y1="386.289" x2="448.79" y2="92.1787" gradientUnits="userSpaceOnUse">
<stop stop-color="#010101" stop-opacity="0.01"/>
<stop offset="0.95" stop-color="#010101"/>
</linearGradient>
<linearGradient id="paint39_linear_5138_102437" x1="317.047" y1="340.299" x2="352.827" y2="340.299" gradientUnits="userSpaceOnUse">
<stop stop-color="#6859FF"/>
<stop offset="1" stop-color="#AF41FF"/>
</linearGradient>
<linearGradient id="paint40_linear_5138_102437" x1="279.752" y1="393.697" x2="396.48" y2="491.779" gradientUnits="userSpaceOnUse">
<stop stop-color="white" stop-opacity="0.01"/>
<stop offset="0.07" stop-color="white" stop-opacity="0.22"/>
<stop offset="0.16" stop-color="white" stop-opacity="0.45"/>
<stop offset="0.25" stop-color="white" stop-opacity="0.65"/>
<stop offset="0.33" stop-color="white" stop-opacity="0.8"/>
<stop offset="0.4" stop-color="white" stop-opacity="0.91"/>
<stop offset="0.46" stop-color="white" stop-opacity="0.98"/>
<stop offset="0.51" stop-color="white"/>
</linearGradient>
<linearGradient id="paint41_linear_5138_102437" x1="439.67" y1="281.946" x2="438.661" y2="350.747" gradientUnits="userSpaceOnUse">
<stop stop-color="white" stop-opacity="0.01"/>
<stop offset="0.07" stop-color="white" stop-opacity="0.22"/>
<stop offset="0.16" stop-color="white" stop-opacity="0.45"/>
<stop offset="0.25" stop-color="white" stop-opacity="0.65"/>
<stop offset="0.33" stop-color="white" stop-opacity="0.8"/>
<stop offset="0.4" stop-color="white" stop-opacity="0.91"/>
<stop offset="0.46" stop-color="white" stop-opacity="0.98"/>
<stop offset="0.51" stop-color="white"/>
</linearGradient>
<linearGradient id="paint42_linear_5138_102437" x1="439.67" y1="337.939" x2="438.661" y2="406.739" gradientUnits="userSpaceOnUse">
<stop stop-color="white" stop-opacity="0.01"/>
<stop offset="0.07" stop-color="white" stop-opacity="0.22"/>
<stop offset="0.16" stop-color="white" stop-opacity="0.45"/>
<stop offset="0.25" stop-color="white" stop-opacity="0.65"/>
<stop offset="0.33" stop-color="white" stop-opacity="0.8"/>
<stop offset="0.4" stop-color="white" stop-opacity="0.91"/>
<stop offset="0.46" stop-color="white" stop-opacity="0.98"/>
<stop offset="0.51" stop-color="white"/>
</linearGradient>
<linearGradient id="paint43_linear_5138_102437" x1="272.883" y1="299.975" x2="272.873" y2="309.24" gradientUnits="userSpaceOnUse">
<stop stop-color="white" stop-opacity="0.01"/>
<stop offset="0.07" stop-color="white" stop-opacity="0.22"/>
<stop offset="0.16" stop-color="white" stop-opacity="0.45"/>
<stop offset="0.25" stop-color="white" stop-opacity="0.65"/>
<stop offset="0.33" stop-color="white" stop-opacity="0.8"/>
<stop offset="0.4" stop-color="white" stop-opacity="0.91"/>
<stop offset="0.46" stop-color="white" stop-opacity="0.98"/>
<stop offset="0.51" stop-color="white"/>
</linearGradient>
<linearGradient id="paint44_linear_5138_102437" x1="204.691" y1="279.271" x2="217.116" y2="270.234" gradientUnits="userSpaceOnUse">
<stop stop-color="#6859FF"/>
<stop offset="1" stop-color="#AF41FF"/>
</linearGradient>
<linearGradient id="paint45_linear_5138_102437" x1="235.888" y1="326.834" x2="291.947" y2="287.039" gradientUnits="userSpaceOnUse">
<stop stop-color="#010101" stop-opacity="0.01"/>
<stop offset="0.95" stop-color="#010101"/>
</linearGradient>
<linearGradient id="paint46_linear_5138_102437" x1="215.486" y1="269.194" x2="227.889" y2="260.201" gradientUnits="userSpaceOnUse">
<stop stop-color="#6859FF"/>
<stop offset="1" stop-color="#AF41FF"/>
</linearGradient>
<linearGradient id="paint47_linear_5138_102437" x1="258.736" y1="336.981" x2="338.319" y2="281.382" gradientUnits="userSpaceOnUse">
<stop stop-color="#010101" stop-opacity="0.01"/>
<stop offset="0.95" stop-color="#010101"/>
</linearGradient>
<linearGradient id="paint48_linear_5138_102437" x1="226.915" y1="259.054" x2="239.319" y2="250.061" gradientUnits="userSpaceOnUse">
<stop stop-color="#6859FF"/>
<stop offset="1" stop-color="#AF41FF"/>
</linearGradient>
<linearGradient id="paint49_linear_5138_102437" x1="306.838" y1="366.898" x2="434.669" y2="266.812" gradientUnits="userSpaceOnUse">
<stop stop-color="#010101" stop-opacity="0.01"/>
<stop offset="0.95" stop-color="#010101"/>
</linearGradient>
<linearGradient id="paint50_linear_5138_102437" x1="238.345" y1="248.913" x2="250.748" y2="239.92" gradientUnits="userSpaceOnUse">
<stop stop-color="#6859FF"/>
<stop offset="1" stop-color="#AF41FF"/>
</linearGradient>
<linearGradient id="paint51_linear_5138_102437" x1="356.696" y1="402.076" x2="543.69" y2="259.355" gradientUnits="userSpaceOnUse">
<stop stop-color="#010101" stop-opacity="0.01"/>
<stop offset="0.36" stop-color="#010101" stop-opacity="0.36"/>
<stop offset="0.95" stop-color="#010101"/>
</linearGradient>
<linearGradient id="paint52_linear_5138_102437" x1="250.356" y1="238.513" x2="262.78" y2="229.477" gradientUnits="userSpaceOnUse">
<stop stop-color="#6859FF"/>
<stop offset="1" stop-color="#AF41FF"/>
</linearGradient>
<linearGradient id="paint53_linear_5138_102437" x1="261.848" y1="228.131" x2="274.272" y2="219.094" gradientUnits="userSpaceOnUse">
<stop stop-color="#6859FF"/>
<stop offset="1" stop-color="#AF41FF"/>
</linearGradient>
<linearGradient id="paint54_linear_5138_102437" x1="272.634" y1="218.475" x2="285.037" y2="209.482" gradientUnits="userSpaceOnUse">
<stop stop-color="#6859FF"/>
<stop offset="1" stop-color="#AF41FF"/>
</linearGradient>
<linearGradient id="paint55_linear_5138_102437" x1="287.14" y1="281.375" x2="376.768" y2="223.389" gradientUnits="userSpaceOnUse">
<stop stop-color="white" stop-opacity="0.01"/>
<stop offset="0.07" stop-color="white" stop-opacity="0.22"/>
<stop offset="0.16" stop-color="white" stop-opacity="0.45"/>
<stop offset="0.25" stop-color="white" stop-opacity="0.65"/>
<stop offset="0.33" stop-color="white" stop-opacity="0.8"/>
<stop offset="0.4" stop-color="white" stop-opacity="0.91"/>
<stop offset="0.46" stop-color="white" stop-opacity="0.98"/>
<stop offset="0.51" stop-color="white"/>
</linearGradient>
<linearGradient id="paint56_linear_5138_102437" x1="293.379" y1="280.237" x2="350.909" y2="237.374" gradientUnits="userSpaceOnUse">
<stop stop-color="white" stop-opacity="0.01"/>
<stop offset="0.07" stop-color="white" stop-opacity="0.22"/>
<stop offset="0.16" stop-color="white" stop-opacity="0.45"/>
<stop offset="0.25" stop-color="white" stop-opacity="0.65"/>
<stop offset="0.33" stop-color="white" stop-opacity="0.8"/>
<stop offset="0.4" stop-color="white" stop-opacity="0.91"/>
<stop offset="0.46" stop-color="white" stop-opacity="0.98"/>
<stop offset="0.51" stop-color="white"/>
</linearGradient>
<linearGradient id="paint57_linear_5138_102437" x1="230.805" y1="296.01" x2="240.438" y2="296.01" gradientUnits="userSpaceOnUse">
<stop stop-color="#6859FF"/>
<stop offset="1" stop-color="#AF41FF"/>
</linearGradient>
<linearGradient id="paint58_linear_5138_102437" x1="231.767" y1="364.855" x2="249.271" y2="364.864" gradientUnits="userSpaceOnUse">
<stop stop-color="white" stop-opacity="0.01"/>
<stop offset="0.07" stop-color="white" stop-opacity="0.22"/>
<stop offset="0.16" stop-color="white" stop-opacity="0.45"/>
<stop offset="0.25" stop-color="white" stop-opacity="0.65"/>
<stop offset="0.33" stop-color="white" stop-opacity="0.8"/>
<stop offset="0.4" stop-color="white" stop-opacity="0.91"/>
<stop offset="0.46" stop-color="white" stop-opacity="0.98"/>
<stop offset="0.51" stop-color="white"/>
</linearGradient>
<linearGradient id="paint59_linear_5138_102437" x1="224.836" y1="313.322" x2="247.772" y2="313.322" gradientUnits="userSpaceOnUse">
<stop stop-color="#6859FF"/>
<stop offset="1" stop-color="#AF41FF"/>
</linearGradient>
<linearGradient id="paint60_linear_5138_102437" x1="228.969" y1="332.915" x2="243.189" y2="332.915" gradientUnits="userSpaceOnUse">
<stop stop-color="#6859FF"/>
<stop offset="1" stop-color="#AF41FF"/>
</linearGradient>
<linearGradient id="paint61_linear_5138_102437" x1="198.164" y1="315.205" x2="204.626" y2="334.548" gradientUnits="userSpaceOnUse">
<stop stop-color="#010101" stop-opacity="0.01"/>
<stop offset="0.95" stop-color="#010101"/>
</linearGradient>
<linearGradient id="paint62_linear_5138_102437" x1="209.536" y1="390.914" x2="255.793" y2="391.757" gradientUnits="userSpaceOnUse">
<stop stop-color="#010101" stop-opacity="0.01"/>
<stop offset="0.95" stop-color="#010101"/>
</linearGradient>
<linearGradient id="paint63_linear_5138_102437" x1="394.167" y1="471.132" x2="342.882" y2="391.938" gradientUnits="userSpaceOnUse">
<stop stop-color="#010101" stop-opacity="0.01"/>
<stop offset="0.95" stop-color="#010101"/>
</linearGradient>
<linearGradient id="paint64_linear_5138_102437" x1="350.523" y1="397.056" x2="398.23" y2="397.056" gradientUnits="userSpaceOnUse">
<stop stop-color="#6859FF"/>
<stop offset="1" stop-color="#AF41FF"/>
</linearGradient>
<linearGradient id="paint65_linear_5138_102437" x1="394.632" y1="236.142" x2="315.369" y2="238.153" gradientUnits="userSpaceOnUse">
<stop stop-color="#010101" stop-opacity="0.01"/>
<stop offset="0.95" stop-color="#010101"/>
</linearGradient>
<linearGradient id="paint66_linear_5138_102437" x1="328.508" y1="526.611" x2="344.104" y2="526.611" gradientUnits="userSpaceOnUse">
<stop stop-color="#6859FF"/>
<stop offset="1" stop-color="#AF41FF"/>
</linearGradient>
<linearGradient id="paint67_linear_5138_102437" x1="379.883" y1="528.133" x2="394.103" y2="528.133" gradientUnits="userSpaceOnUse">
<stop stop-color="#6859FF"/>
<stop offset="1" stop-color="#AF41FF"/>
</linearGradient>
<linearGradient id="paint68_linear_5138_102437" x1="397.32" y1="396.038" x2="417.504" y2="396.038" gradientUnits="userSpaceOnUse">
<stop stop-color="#6859FF"/>
<stop offset="1" stop-color="#AF41FF"/>
</linearGradient>
<linearGradient id="paint69_linear_5138_102437" x1="321.625" y1="373.894" x2="354.653" y2="373.894" gradientUnits="userSpaceOnUse">
<stop stop-color="#6859FF"/>
<stop offset="1" stop-color="#AF41FF"/>
</linearGradient>
<linearGradient id="paint70_linear_5138_102437" x1="323.946" y1="274.502" x2="323.946" y2="280.656" gradientUnits="userSpaceOnUse">
<stop stop-color="#EB00FF"/>
<stop offset="1" stop-color="#4663FF"/>
</linearGradient>
</defs>
</svg>
