<svg width="214" height="148" viewBox="0 0 214 148" fill="none" xmlns="http://www.w3.org/2000/svg">
<rect x="0.445312" width="213.108" height="148" rx="12" fill="url(#paint0_linear_5138_102601)" fill-opacity="0.6"/>
<path d="M19.3622 35.5952V34.4815L25.9645 31.2798V32.7962L21.0923 35.0185L21.1371 34.929V35.1428L21.0923 35.0582L25.9645 37.2756V38.7969L19.3622 35.5952ZM30.1978 29.8182L30.0685 37.0717H28.6914L28.5621 29.8182H30.1978ZM29.3825 40.0945C29.1074 40.0945 28.872 39.9983 28.6765 39.8061C28.4809 39.6106 28.3848 39.3752 28.3881 39.1001C28.3848 38.8284 28.4809 38.5964 28.6765 38.4041C28.872 38.2086 29.1074 38.1108 29.3825 38.1108C29.6509 38.1108 29.8829 38.2086 30.0785 38.4041C30.274 38.5964 30.3735 38.8284 30.3768 39.1001C30.3735 39.2824 30.3254 39.4498 30.2326 39.6023C30.1431 39.7514 30.0238 39.8707 29.8746 39.9602C29.7255 40.0497 29.5614 40.0945 29.3825 40.0945ZM36.938 34.2628V35.5554H32.4238V34.2628H36.938ZM43.4185 34.2628V35.5554H38.9043V34.2628H43.4185ZM49.2241 40V29.8182H52.9528C53.6753 29.8182 54.2736 29.9375 54.7475 30.1761C55.2215 30.4115 55.5761 30.7313 55.8114 31.1357C56.0468 31.5367 56.1644 31.9891 56.1644 32.4929C56.1644 32.9171 56.0865 33.2751 55.9308 33.5668C55.775 33.8551 55.5662 34.0871 55.3043 34.2628C55.0458 34.4351 54.7608 34.5611 54.4492 34.6406V34.7401C54.7873 34.7566 55.1171 34.866 55.4386 35.0682C55.7634 35.267 56.0318 35.5504 56.244 35.9183C56.4561 36.2862 56.5621 36.7337 56.5621 37.2607C56.5621 37.781 56.4395 38.2483 56.1942 38.6626C55.9523 39.0736 55.5778 39.4001 55.0707 39.642C54.5636 39.8807 53.9156 40 53.1268 40H49.2241ZM50.7603 38.6825H52.9776C53.7134 38.6825 54.2404 38.54 54.5586 38.255C54.8768 37.9699 55.0359 37.6136 55.0359 37.1861C55.0359 36.8646 54.9547 36.5696 54.7923 36.3011C54.6299 36.0327 54.3978 35.8189 54.0962 35.6598C53.7979 35.5007 53.4433 35.4212 53.0323 35.4212H50.7603V38.6825ZM50.7603 34.223H52.8185C53.1632 34.223 53.4731 34.1567 53.7482 34.0241C54.0266 33.8916 54.247 33.706 54.4094 33.4673C54.5752 33.2254 54.658 32.9403 54.658 32.6122C54.658 32.1913 54.5105 31.8383 54.2156 31.5533C53.9206 31.2682 53.4682 31.1257 52.8583 31.1257H50.7603V34.223ZM61.5561 40.1541C60.8037 40.1541 60.1558 39.9934 59.6122 39.6719C59.072 39.3471 58.6544 38.8913 58.3594 38.3047C58.0677 37.7147 57.9219 37.0237 57.9219 36.2315C57.9219 35.4493 58.0677 34.7599 58.3594 34.1634C58.6544 33.5668 59.0653 33.1011 59.5923 32.7663C60.1226 32.4316 60.7424 32.2642 61.4517 32.2642C61.8826 32.2642 62.3002 32.3355 62.7045 32.478C63.1089 32.6205 63.4718 32.8442 63.7933 33.1491C64.1148 33.4541 64.3684 33.8501 64.554 34.3374C64.7396 34.8213 64.8324 35.4096 64.8324 36.1023V36.6293H58.7621V35.5156H63.3757C63.3757 35.1245 63.2962 34.7782 63.1371 34.4766C62.978 34.1716 62.7543 33.9313 62.4659 33.7557C62.1809 33.58 61.8461 33.4922 61.4616 33.4922C61.044 33.4922 60.6795 33.5949 60.3679 33.8004C60.0597 34.0026 59.821 34.2678 59.652 34.5959C59.4863 34.9207 59.4034 35.2737 59.4034 35.6548V36.5249C59.4034 37.0353 59.4929 37.4695 59.6719 37.8274C59.8542 38.1854 60.1077 38.4588 60.4325 38.6477C60.7573 38.8333 61.1368 38.9261 61.571 38.9261C61.8527 38.9261 62.1096 38.8864 62.3416 38.8068C62.5736 38.724 62.7741 38.6013 62.9432 38.4389C63.1122 38.2765 63.2415 38.076 63.331 37.8374L64.7379 38.0909C64.6252 38.5052 64.4231 38.8681 64.1314 39.1797C63.843 39.4879 63.4801 39.7282 63.0426 39.9006C62.6084 40.0696 62.1129 40.1541 61.5561 40.1541ZM70.1159 32.3636V33.5568H65.8006V32.3636H70.1159ZM66.9838 40V31.4787C66.9838 31.0014 67.0882 30.6053 67.2971 30.2905C67.5059 29.9723 67.7826 29.7353 68.1273 29.5795C68.472 29.4205 68.8465 29.3409 69.2509 29.3409C69.5492 29.3409 69.8044 29.3658 70.0165 29.4155C70.2286 29.4619 70.3861 29.505 70.4888 29.5447L70.1408 30.7479C70.0712 30.728 69.9817 30.7048 69.8723 30.6783C69.763 30.6484 69.6304 30.6335 69.4746 30.6335C69.1133 30.6335 68.8548 30.723 68.699 30.902C68.5466 31.081 68.4703 31.3395 68.4703 31.6776V40H66.9838ZM74.5655 40.1541C73.8496 40.1541 73.2248 39.9901 72.6912 39.6619C72.1576 39.3338 71.7433 38.8748 71.4483 38.2848C71.1533 37.6948 71.0059 37.0054 71.0059 36.2166C71.0059 35.4245 71.1533 34.7318 71.4483 34.1385C71.7433 33.5452 72.1576 33.0845 72.6912 32.7564C73.2248 32.4283 73.8496 32.2642 74.5655 32.2642C75.2814 32.2642 75.9062 32.4283 76.4398 32.7564C76.9734 33.0845 77.3877 33.5452 77.6827 34.1385C77.9777 34.7318 78.1252 35.4245 78.1252 36.2166C78.1252 37.0054 77.9777 37.6948 77.6827 38.2848C77.3877 38.8748 76.9734 39.3338 76.4398 39.6619C75.9062 39.9901 75.2814 40.1541 74.5655 40.1541ZM74.5705 38.9062C75.0345 38.9062 75.419 38.7836 75.7239 38.5384C76.0288 38.2931 76.2542 37.9666 76.4 37.5589C76.5492 37.1513 76.6238 36.7022 76.6238 36.2116C76.6238 35.7244 76.5492 35.277 76.4 34.8693C76.2542 34.4583 76.0288 34.1286 75.7239 33.88C75.419 33.6314 75.0345 33.5071 74.5705 33.5071C74.1032 33.5071 73.7154 33.6314 73.4071 33.88C73.1022 34.1286 72.8752 34.4583 72.726 34.8693C72.5802 35.277 72.5073 35.7244 72.5073 36.2116C72.5073 36.7022 72.5802 37.1513 72.726 37.5589C72.8752 37.9666 73.1022 38.2931 73.4071 38.5384C73.7154 38.7836 74.1032 38.9062 74.5705 38.9062ZM79.7844 40V32.3636H81.2212V33.5767H81.3008C81.44 33.1657 81.6853 32.8426 82.0366 32.6072C82.3912 32.3686 82.7923 32.2493 83.2397 32.2493C83.3325 32.2493 83.4419 32.2526 83.5678 32.2592C83.6971 32.2659 83.7982 32.2741 83.8711 32.2841V33.706C83.8114 33.6894 83.7054 33.6712 83.5529 33.6513C83.4004 33.6281 83.248 33.6165 83.0955 33.6165C82.7442 33.6165 82.431 33.6911 82.1559 33.8402C81.8841 33.986 81.6687 34.1899 81.5096 34.4517C81.3505 34.7102 81.271 35.0052 81.271 35.3366V40H79.7844ZM88.1752 40.1541C87.4229 40.1541 86.7749 39.9934 86.2314 39.6719C85.6911 39.3471 85.2735 38.8913 84.9785 38.3047C84.6868 37.7147 84.541 37.0237 84.541 36.2315C84.541 35.4493 84.6868 34.7599 84.9785 34.1634C85.2735 33.5668 85.6845 33.1011 86.2115 32.7663C86.7418 32.4316 87.3616 32.2642 88.0708 32.2642C88.5017 32.2642 88.9193 32.3355 89.3237 32.478C89.728 32.6205 90.091 32.8442 90.4125 33.1491C90.734 33.4541 90.9875 33.8501 91.1731 34.3374C91.3587 34.8213 91.4515 35.4096 91.4515 36.1023V36.6293H85.3812V35.5156H89.9949C89.9949 35.1245 89.9153 34.7782 89.7562 34.4766C89.5971 34.1716 89.3734 33.9313 89.085 33.7557C88.8 33.58 88.4653 33.4922 88.0808 33.4922C87.6632 33.4922 87.2986 33.5949 86.987 33.8004C86.6788 34.0026 86.4402 34.2678 86.2711 34.5959C86.1054 34.9207 86.0225 35.2737 86.0225 35.6548V36.5249C86.0225 37.0353 86.112 37.4695 86.291 37.8274C86.4733 38.1854 86.7269 38.4588 87.0517 38.6477C87.3765 38.8333 87.756 38.9261 88.1902 38.9261C88.4719 38.9261 88.7288 38.8864 88.9608 38.8068C89.1928 38.724 89.3933 38.6013 89.5623 38.4389C89.7314 38.2765 89.8606 38.076 89.9501 37.8374L91.3571 38.0909C91.2444 38.5052 91.0422 38.8681 90.7505 39.1797C90.4622 39.4879 90.0993 39.7282 89.6618 39.9006C89.2276 40.0696 88.7321 40.1541 88.1752 40.1541ZM108.559 40.1839L107.664 39.294L110.771 36.1918H97.5566V34.8991H110.771L107.664 31.7919L108.559 30.907L113.197 35.5455L108.559 40.1839ZM19.3622 86.5952V85.4815L25.9645 82.2798V83.7962L21.0923 86.0185L21.1371 85.929V86.1428L21.0923 86.0582L25.9645 88.2756V89.7969L19.3622 86.5952ZM30.1978 80.8182L30.0685 88.0717H28.6914L28.5621 80.8182H30.1978ZM29.3825 91.0945C29.1074 91.0945 28.872 90.9983 28.6765 90.8061C28.4809 90.6106 28.3848 90.3752 28.3881 90.1001C28.3848 89.8284 28.4809 89.5964 28.6765 89.4041C28.872 89.2086 29.1074 89.1108 29.3825 89.1108C29.6509 89.1108 29.8829 89.2086 30.0785 89.4041C30.274 89.5964 30.3735 89.8284 30.3768 90.1001C30.3735 90.2824 30.3254 90.4498 30.2326 90.6023C30.1431 90.7514 30.0238 90.8707 29.8746 90.9602C29.7255 91.0497 29.5614 91.0945 29.3825 91.0945ZM36.938 85.2628V86.5554H32.4238V85.2628H36.938ZM43.4185 85.2628V86.5554H38.9043V85.2628H43.4185ZM50.0842 91H48.4535L52.1175 80.8182H53.8924L57.5565 91H55.9258L53.0472 82.6676H52.9677L50.0842 91ZM50.3576 87.0128H55.6474V88.3054H50.3576V87.0128ZM62.5007 83.3636V84.5568H58.1854V83.3636H62.5007ZM59.3686 91V82.4787C59.3686 82.0014 59.473 81.6053 59.6818 81.2905C59.8906 80.9723 60.1674 80.7353 60.5121 80.5795C60.8568 80.4205 61.2313 80.3409 61.6357 80.3409C61.9339 80.3409 62.1892 80.3658 62.4013 80.4155C62.6134 80.4619 62.7708 80.505 62.8736 80.5447L62.5256 81.7479C62.456 81.728 62.3665 81.7048 62.2571 81.6783C62.1477 81.6484 62.0152 81.6335 61.8594 81.6335C61.4981 81.6335 61.2396 81.723 61.0838 81.902C60.9313 82.081 60.8551 82.3395 60.8551 82.6776V91H59.3686ZM67.5991 83.3636V84.5568H63.4279V83.3636H67.5991ZM64.5465 81.5341H66.033V88.7578C66.033 89.0462 66.0761 89.2633 66.1623 89.4091C66.2485 89.5516 66.3595 89.6494 66.4954 89.7024C66.6346 89.7521 66.7854 89.777 66.9478 89.777C67.0671 89.777 67.1715 89.7687 67.261 89.7521C67.3505 89.7356 67.4201 89.7223 67.4698 89.7124L67.7383 90.9403C67.6521 90.9735 67.5295 91.0066 67.3704 91.0398C67.2113 91.0762 67.0124 91.0961 66.7738 91.0994C66.3827 91.1061 66.0181 91.0365 65.68 90.8906C65.342 90.7448 65.0685 90.5194 64.8597 90.2145C64.6509 89.9096 64.5465 89.5268 64.5465 89.0661V81.5341ZM72.4526 91.1541C71.7002 91.1541 71.0523 90.9934 70.5087 90.6719C69.9685 90.3471 69.5508 89.8913 69.2559 89.3047C68.9642 88.7147 68.8184 88.0237 68.8184 87.2315C68.8184 86.4493 68.9642 85.7599 69.2559 85.1634C69.5508 84.5668 69.9618 84.1011 70.4888 83.7663C71.0191 83.4316 71.6389 83.2642 72.3482 83.2642C72.7791 83.2642 73.1967 83.3355 73.601 83.478C74.0054 83.6205 74.3683 83.8442 74.6898 84.1491C75.0113 84.4541 75.2649 84.8501 75.4505 85.3374C75.6361 85.8213 75.7289 86.4096 75.7289 87.1023V87.6293H69.6586V86.5156H74.2722C74.2722 86.1245 74.1926 85.7782 74.0336 85.4766C73.8745 85.1716 73.6507 84.9313 73.3624 84.7557C73.0774 84.58 72.7426 84.4922 72.3581 84.4922C71.9405 84.4922 71.5759 84.5949 71.2644 84.8004C70.9561 85.0026 70.7175 85.2678 70.5485 85.5959C70.3828 85.9207 70.2999 86.2737 70.2999 86.6548V87.5249C70.2999 88.0353 70.3894 88.4695 70.5684 88.8274C70.7507 89.1854 71.0042 89.4588 71.329 89.6477C71.6538 89.8333 72.0333 89.9261 72.4675 89.9261C72.7492 89.9261 73.0061 89.8864 73.2381 89.8068C73.4701 89.724 73.6706 89.6013 73.8397 89.4389C74.0087 89.2765 74.138 89.076 74.2275 88.8374L75.6344 89.0909C75.5217 89.5052 75.3195 89.8681 75.0279 90.1797C74.7395 90.4879 74.3766 90.7282 73.9391 90.9006C73.5049 91.0696 73.0094 91.1541 72.4526 91.1541ZM77.3782 91V83.3636H78.815V84.5767H78.8945C79.0337 84.1657 79.279 83.8426 79.6303 83.6072C79.985 83.3686 80.386 83.2493 80.8335 83.2493C80.9263 83.2493 81.0356 83.2526 81.1616 83.2592C81.2908 83.2659 81.3919 83.2741 81.4648 83.2841V84.706C81.4052 84.6894 81.2991 84.6712 81.1467 84.6513C80.9942 84.6281 80.8417 84.6165 80.6893 84.6165C80.338 84.6165 80.0247 84.6911 79.7496 84.8402C79.4779 84.986 79.2624 85.1899 79.1033 85.4517C78.9442 85.7102 78.8647 86.0052 78.8647 86.3366V91H77.3782ZM98.2092 91.1839L97.3143 90.294L100.422 87.1918H87.207V85.8991H100.422L97.3143 82.7919L98.2092 81.907L102.848 86.5455L98.2092 91.1839Z" fill="#ABABAB"/>
<path d="M19.1186 57V46.8182H20.6548V51.6804H20.7791L25.0497 46.8182H26.9837L22.8771 51.402L26.9986 57H25.1491L21.858 52.451L20.6548 53.8331V57H19.1186ZM31.0268 57.1541C30.2744 57.1541 29.6265 56.9934 29.0829 56.6719C28.5427 56.3471 28.1251 55.8913 27.8301 55.3047C27.5384 54.7147 27.3926 54.0237 27.3926 53.2315C27.3926 52.4493 27.5384 51.7599 27.8301 51.1634C28.1251 50.5668 28.536 50.1011 29.063 49.7663C29.5933 49.4316 30.2131 49.2642 30.9224 49.2642C31.3533 49.2642 31.7709 49.3355 32.1752 49.478C32.5796 49.6205 32.9425 49.8442 33.264 50.1491C33.5855 50.4541 33.8391 50.8501 34.0247 51.3374C34.2103 51.8213 34.3031 52.4096 34.3031 53.1023V53.6293H28.2328V52.5156H32.8464C32.8464 52.1245 32.7669 51.7782 32.6078 51.4766C32.4487 51.1716 32.225 50.9313 31.9366 50.7557C31.6516 50.58 31.3168 50.4922 30.9324 50.4922C30.5147 50.4922 30.1502 50.5949 29.8386 50.8004C29.5304 51.0026 29.2917 51.2678 29.1227 51.5959C28.957 51.9207 28.8741 52.2737 28.8741 52.6548V53.5249C28.8741 54.0353 28.9636 54.4695 29.1426 54.8274C29.3249 55.1854 29.5784 55.4588 29.9032 55.6477C30.228 55.8333 30.6075 55.9261 31.0417 55.9261C31.3234 55.9261 31.5803 55.8864 31.8123 55.8068C32.0443 55.724 32.2449 55.6013 32.4139 55.4389C32.5829 55.2765 32.7122 55.076 32.8017 54.8374L34.2086 55.0909C34.0959 55.5052 33.8938 55.8681 33.6021 56.1797C33.3137 56.4879 32.9508 56.7282 32.5133 56.9006C32.0791 57.0696 31.5836 57.1541 31.0268 57.1541ZM36.6733 59.8636C36.4512 59.8636 36.2491 59.8454 36.0668 59.8089C35.8845 59.7758 35.7486 59.7393 35.6591 59.6996L36.017 58.4815C36.2888 58.5545 36.5308 58.5859 36.7429 58.576C36.955 58.5661 37.1423 58.4865 37.3047 58.3374C37.4704 58.1882 37.6162 57.9446 37.7422 57.6065L37.9261 57.0994L35.1321 49.3636H36.723L38.657 55.2898H38.7365L40.6705 49.3636H42.2663L39.1193 58.0192C38.9735 58.4169 38.7879 58.7533 38.5625 59.0284C38.3371 59.3068 38.0687 59.5156 37.7571 59.6548C37.4455 59.794 37.0843 59.8636 36.6733 59.8636ZM45.3189 57L43.0717 49.3636H44.608L46.1044 54.9716H46.179L47.6804 49.3636H49.2166L50.7081 54.9467H50.7827L52.2692 49.3636H53.8054L51.5632 57H50.0469L48.4957 51.4865H48.3814L46.8303 57H45.3189ZM58.2003 57.1541C57.4844 57.1541 56.8596 56.9901 56.326 56.6619C55.7924 56.3338 55.3781 55.8748 55.0831 55.2848C54.7881 54.6948 54.6406 54.0054 54.6406 53.2166C54.6406 52.4245 54.7881 51.7318 55.0831 51.1385C55.3781 50.5452 55.7924 50.0845 56.326 49.7564C56.8596 49.4283 57.4844 49.2642 58.2003 49.2642C58.9162 49.2642 59.541 49.4283 60.0746 49.7564C60.6082 50.0845 61.0225 50.5452 61.3175 51.1385C61.6125 51.7318 61.7599 52.4245 61.7599 53.2166C61.7599 54.0054 61.6125 54.6948 61.3175 55.2848C61.0225 55.8748 60.6082 56.3338 60.0746 56.6619C59.541 56.9901 58.9162 57.1541 58.2003 57.1541ZM58.2053 55.9062C58.6693 55.9062 59.0537 55.7836 59.3587 55.5384C59.6636 55.2931 59.889 54.9666 60.0348 54.5589C60.1839 54.1513 60.2585 53.7022 60.2585 53.2116C60.2585 52.7244 60.1839 52.277 60.0348 51.8693C59.889 51.4583 59.6636 51.1286 59.3587 50.88C59.0537 50.6314 58.6693 50.5071 58.2053 50.5071C57.7379 50.5071 57.3501 50.6314 57.0419 50.88C56.737 51.1286 56.5099 51.4583 56.3608 51.8693C56.215 52.277 56.142 52.7244 56.142 53.2116C56.142 53.7022 56.215 54.1513 56.3608 54.5589C56.5099 54.9666 56.737 55.2931 57.0419 55.5384C57.3501 55.7836 57.7379 55.9062 58.2053 55.9062ZM63.4192 57V49.3636H64.856V50.5767H64.9355C65.0748 50.1657 65.32 49.8426 65.6713 49.6072C66.026 49.3686 66.427 49.2493 66.8745 49.2493C66.9673 49.2493 67.0766 49.2526 67.2026 49.2592C67.3319 49.2659 67.4329 49.2741 67.5059 49.2841V50.706C67.4462 50.6894 67.3401 50.6712 67.1877 50.6513C67.0352 50.6281 66.8828 50.6165 66.7303 50.6165C66.379 50.6165 66.0658 50.6911 65.7907 50.8402C65.5189 50.986 65.3034 51.1899 65.1444 51.4517C64.9853 51.7102 64.9057 52.0052 64.9057 52.3366V57H63.4192ZM71.3775 57.1491C70.761 57.1491 70.2108 56.9917 69.7269 56.6768C69.2463 56.3587 68.8685 55.9062 68.5934 55.3196C68.3216 54.7296 68.1857 54.022 68.1857 53.1967C68.1857 52.3714 68.3233 51.6655 68.5984 51.0788C68.8768 50.4922 69.2579 50.0431 69.7418 49.7315C70.2257 49.42 70.7743 49.2642 71.3874 49.2642C71.8614 49.2642 72.2425 49.3438 72.5309 49.5028C72.8226 49.6586 73.0479 49.8409 73.207 50.0497C73.3694 50.2585 73.4954 50.4425 73.5849 50.6016H73.6744V46.8182H75.1609V57H73.7092V55.8118H73.5849C73.4954 55.9742 73.3661 56.1598 73.1971 56.3686C73.0314 56.5774 72.8027 56.7597 72.511 56.9155C72.2193 57.0713 71.8415 57.1491 71.3775 57.1491ZM71.7056 55.8814C72.1332 55.8814 72.4944 55.7687 72.7894 55.5433C73.0877 55.3146 73.3131 54.9981 73.4656 54.5938C73.6213 54.1894 73.6992 53.7187 73.6992 53.1818C73.6992 52.6515 73.623 52.1875 73.4705 51.7898C73.3181 51.392 73.0943 51.0821 72.7994 50.8601C72.5044 50.638 72.1398 50.527 71.7056 50.527C71.2582 50.527 70.8853 50.643 70.587 50.875C70.2887 51.107 70.0633 51.4235 69.9109 51.8246C69.7617 52.2256 69.6871 52.678 69.6871 53.1818C69.6871 53.6922 69.7634 54.1513 69.9158 54.5589C70.0683 54.9666 70.2937 55.2898 70.592 55.5284C70.8936 55.7637 71.2648 55.8814 71.7056 55.8814ZM83.0048 51.228L81.6575 51.4666C81.6011 51.2943 81.5117 51.1302 81.389 50.9744C81.2697 50.8187 81.1073 50.6911 80.9018 50.5916C80.6963 50.4922 80.4395 50.4425 80.1312 50.4425C79.7103 50.4425 79.359 50.5369 79.0772 50.7259C78.7955 50.9115 78.6547 51.1518 78.6547 51.4467C78.6547 51.7019 78.7491 51.9074 78.938 52.0632C79.127 52.219 79.4319 52.3466 79.8528 52.446L81.0659 52.7244C81.7685 52.8868 82.2922 53.1371 82.6369 53.4751C82.9816 53.8132 83.1539 54.2524 83.1539 54.7926C83.1539 55.25 83.0214 55.6577 82.7562 56.0156C82.4944 56.3703 82.1281 56.6487 81.6575 56.8509C81.1902 57.053 80.6483 57.1541 80.0318 57.1541C79.1767 57.1541 78.479 56.9718 77.9387 56.6072C77.3985 56.2393 77.0671 55.7173 76.9444 55.0412L78.3812 54.8224C78.4707 55.197 78.6547 55.4804 78.9331 55.6726C79.2115 55.8615 79.5744 55.956 80.0218 55.956C80.5091 55.956 80.8985 55.8549 81.1902 55.6527C81.4818 55.4472 81.6277 55.197 81.6277 54.902C81.6277 54.6634 81.5382 54.4628 81.3592 54.3004C81.1835 54.138 80.9134 54.0154 80.5488 53.9325L79.2562 53.6491C78.5436 53.4867 78.0166 53.2282 77.6752 52.8736C77.3372 52.5189 77.1681 52.0698 77.1681 51.5263C77.1681 51.0755 77.2941 50.6811 77.546 50.343C77.7979 50.005 78.1459 49.7415 78.59 49.5526C79.0342 49.3603 79.5429 49.2642 80.1163 49.2642C80.9416 49.2642 81.5912 49.4432 82.0652 49.8011C82.5391 50.1558 82.8523 50.6314 83.0048 51.228ZM88.4934 57V49.3636H89.9799V57H88.4934ZM89.2441 48.1854C88.9856 48.1854 88.7636 48.0992 88.5779 47.9268C88.3957 47.7512 88.3045 47.5424 88.3045 47.3004C88.3045 47.0552 88.3957 46.8464 88.5779 46.674C88.7636 46.4983 88.9856 46.4105 89.2441 46.4105C89.5027 46.4105 89.7231 46.4983 89.9054 46.674C90.091 46.8464 90.1838 47.0552 90.1838 47.3004C90.1838 47.5424 90.091 47.7512 89.9054 47.9268C89.7231 48.0992 89.5027 48.1854 89.2441 48.1854ZM94.8384 57.1491C94.2219 57.1491 93.6718 56.9917 93.1879 56.6768C92.7073 56.3587 92.3294 55.9062 92.0543 55.3196C91.7826 54.7296 91.6467 54.022 91.6467 53.1967C91.6467 52.3714 91.7842 51.6655 92.0593 51.0788C92.3377 50.4922 92.7189 50.0431 93.2028 49.7315C93.6867 49.42 94.2352 49.2642 94.8484 49.2642C95.3223 49.2642 95.7035 49.3438 95.9918 49.5028C96.2835 49.6586 96.5089 49.8409 96.668 50.0497C96.8304 50.2585 96.9563 50.4425 97.0458 50.6016H97.1353V46.8182H98.6218V57H97.1701V55.8118H97.0458C96.9563 55.9742 96.8271 56.1598 96.658 56.3686C96.4923 56.5774 96.2636 56.7597 95.9719 56.9155C95.6803 57.0713 95.3024 57.1491 94.8384 57.1491ZM95.1665 55.8814C95.5941 55.8814 95.9554 55.7687 96.2504 55.5433C96.5487 55.3146 96.774 54.9981 96.9265 54.5938C97.0823 54.1894 97.1602 53.7187 97.1602 53.1818C97.1602 52.6515 97.0839 52.1875 96.9315 51.7898C96.779 51.392 96.5553 51.0821 96.2603 50.8601C95.9653 50.638 95.6007 50.527 95.1665 50.527C94.7191 50.527 94.3462 50.643 94.0479 50.875C93.7496 51.107 93.5243 51.4235 93.3718 51.8246C93.2227 52.2256 93.1481 52.678 93.1481 53.1818C93.1481 53.6922 93.2243 54.1513 93.3768 54.5589C93.5292 54.9666 93.7546 55.2898 94.0529 55.5284C94.3545 55.7637 94.7257 55.8814 95.1665 55.8814ZM104.035 57.1541C103.282 57.1541 102.634 56.9934 102.091 56.6719C101.55 56.3471 101.133 55.8913 100.838 55.3047C100.546 54.7147 100.4 54.0237 100.4 53.2315C100.4 52.4493 100.546 51.7599 100.838 51.1634C101.133 50.5668 101.544 50.1011 102.071 49.7663C102.601 49.4316 103.221 49.2642 103.93 49.2642C104.361 49.2642 104.779 49.3355 105.183 49.478C105.587 49.6205 105.95 49.8442 106.272 50.1491C106.593 50.4541 106.847 50.8501 107.032 51.3374C107.218 51.8213 107.311 52.4096 107.311 53.1023V53.6293H101.241V52.5156H105.854C105.854 52.1245 105.775 51.7782 105.616 51.4766C105.456 51.1716 105.233 50.9313 104.944 50.7557C104.659 50.58 104.325 50.4922 103.94 50.4922C103.523 50.4922 103.158 50.5949 102.846 50.8004C102.538 51.0026 102.3 51.2678 102.131 51.5959C101.965 51.9207 101.882 52.2737 101.882 52.6548V53.5249C101.882 54.0353 101.971 54.4695 102.15 54.8274C102.333 55.1854 102.586 55.4588 102.911 55.6477C103.236 55.8333 103.615 55.9261 104.05 55.9261C104.331 55.9261 104.588 55.8864 104.82 55.8068C105.052 55.724 105.253 55.6013 105.422 55.4389C105.591 55.2765 105.72 55.076 105.809 54.8374L107.216 55.0909C107.104 55.5052 106.902 55.8681 106.61 56.1797C106.322 56.4879 105.959 56.7282 105.521 56.9006C105.087 57.0696 104.591 57.1541 104.035 57.1541ZM110.447 52.4659V57H108.96V49.3636H110.387V50.6065H110.482C110.657 50.2022 110.932 49.8774 111.307 49.6321C111.685 49.3868 112.16 49.2642 112.734 49.2642C113.254 49.2642 113.71 49.3736 114.101 49.5923C114.492 49.8078 114.795 50.1293 115.011 50.5568C115.226 50.9844 115.334 51.513 115.334 52.1428V57H113.847V52.3217C113.847 51.7682 113.703 51.3357 113.415 51.0241C113.126 50.7093 112.73 50.5518 112.227 50.5518C111.882 50.5518 111.575 50.6264 111.307 50.7756C111.042 50.9247 110.831 51.1435 110.675 51.4318C110.523 51.7169 110.447 52.0616 110.447 52.4659ZM120.892 49.3636V50.5568H116.721V49.3636H120.892ZM117.839 47.5341H119.326V54.7578C119.326 55.0462 119.369 55.2633 119.455 55.4091C119.541 55.5516 119.652 55.6494 119.788 55.7024C119.928 55.7521 120.078 55.777 120.241 55.777C120.36 55.777 120.464 55.7687 120.554 55.7521C120.643 55.7356 120.713 55.7223 120.763 55.7124L121.031 56.9403C120.945 56.9735 120.822 57.0066 120.663 57.0398C120.504 57.0762 120.305 57.0961 120.067 57.0994C119.676 57.1061 119.311 57.0365 118.973 56.8906C118.635 56.7448 118.362 56.5194 118.153 56.2145C117.944 55.9096 117.839 55.5268 117.839 55.0661V47.5341ZM122.536 57V49.3636H124.023V57H122.536ZM123.287 48.1854C123.029 48.1854 122.807 48.0992 122.621 47.9268C122.439 47.7512 122.347 47.5424 122.347 47.3004C122.347 47.0552 122.439 46.8464 122.621 46.674C122.807 46.4983 123.029 46.4105 123.287 46.4105C123.546 46.4105 123.766 46.4983 123.948 46.674C124.134 46.8464 124.227 47.0552 124.227 47.3004C124.227 47.5424 124.134 47.7512 123.948 47.9268C123.766 48.0992 123.546 48.1854 123.287 48.1854ZM129.657 49.3636V50.5568H125.342V49.3636H129.657ZM126.525 57V48.4787C126.525 48.0014 126.629 47.6053 126.838 47.2905C127.047 46.9723 127.324 46.7353 127.668 46.5795C128.013 46.4205 128.388 46.3409 128.792 46.3409C129.09 46.3409 129.345 46.3658 129.558 46.4155C129.77 46.4619 129.927 46.505 130.03 46.5447L129.682 47.7479C129.612 47.728 129.523 47.7048 129.413 47.6783C129.304 47.6484 129.171 47.6335 129.016 47.6335C128.654 47.6335 128.396 47.723 128.24 47.902C128.088 48.081 128.011 48.3395 128.011 48.6776V57H126.525ZM131.191 57V49.3636H132.677V57H131.191ZM131.941 48.1854C131.683 48.1854 131.461 48.0992 131.275 47.9268C131.093 47.7512 131.002 47.5424 131.002 47.3004C131.002 47.0552 131.093 46.8464 131.275 46.674C131.461 46.4983 131.683 46.4105 131.941 46.4105C132.2 46.4105 132.42 46.4983 132.603 46.674C132.788 46.8464 132.881 47.0552 132.881 47.3004C132.881 47.5424 132.788 47.7512 132.603 47.9268C132.42 48.0992 132.2 48.1854 131.941 48.1854ZM137.968 57.1541C137.216 57.1541 136.568 56.9934 136.024 56.6719C135.484 56.3471 135.066 55.8913 134.771 55.3047C134.48 54.7147 134.334 54.0237 134.334 53.2315C134.334 52.4493 134.48 51.7599 134.771 51.1634C135.066 50.5668 135.477 50.1011 136.004 49.7663C136.535 49.4316 137.155 49.2642 137.864 49.2642C138.295 49.2642 138.712 49.3355 139.117 49.478C139.521 49.6205 139.884 49.8442 140.205 50.1491C140.527 50.4541 140.78 50.8501 140.966 51.3374C141.152 51.8213 141.244 52.4096 141.244 53.1023V53.6293H135.174V52.5156H139.788C139.788 52.1245 139.708 51.7782 139.549 51.4766C139.39 51.1716 139.166 50.9313 138.878 50.7557C138.593 50.58 138.258 50.4922 137.874 50.4922C137.456 50.4922 137.092 50.5949 136.78 50.8004C136.472 51.0026 136.233 51.2678 136.064 51.5959C135.898 51.9207 135.816 52.2737 135.816 52.6548V53.5249C135.816 54.0353 135.905 54.4695 136.084 54.8274C136.266 55.1854 136.52 55.4588 136.845 55.6477C137.169 55.8333 137.549 55.9261 137.983 55.9261C138.265 55.9261 138.522 55.8864 138.754 55.8068C138.986 55.724 139.186 55.6013 139.355 55.4389C139.524 55.2765 139.654 55.076 139.743 54.8374L141.15 55.0909C141.037 55.5052 140.835 55.8681 140.544 56.1797C140.255 56.4879 139.892 56.7282 139.455 56.9006C139.021 57.0696 138.525 57.1541 137.968 57.1541ZM145.752 57.1491C145.136 57.1491 144.586 56.9917 144.102 56.6768C143.621 56.3587 143.243 55.9062 142.968 55.3196C142.697 54.7296 142.561 54.022 142.561 53.1967C142.561 52.3714 142.698 51.6655 142.973 51.0788C143.252 50.4922 143.633 50.0431 144.117 49.7315C144.601 49.42 145.149 49.2642 145.762 49.2642C146.236 49.2642 146.618 49.3438 146.906 49.5028C147.198 49.6586 147.423 49.8409 147.582 50.0497C147.744 50.2585 147.87 50.4425 147.96 50.6016H148.049V46.8182H149.536V57H148.084V55.8118H147.96C147.87 55.9742 147.741 56.1598 147.572 56.3686C147.406 56.5774 147.178 56.7597 146.886 56.9155C146.594 57.0713 146.217 57.1491 145.752 57.1491ZM146.081 55.8814C146.508 55.8814 146.869 55.7687 147.164 55.5433C147.463 55.3146 147.688 54.9981 147.841 54.5938C147.996 54.1894 148.074 53.7187 148.074 53.1818C148.074 52.6515 147.998 52.1875 147.846 51.7898C147.693 51.392 147.469 51.0821 147.174 50.8601C146.879 50.638 146.515 50.527 146.081 50.527C145.633 50.527 145.26 50.643 144.962 50.875C144.664 51.107 144.438 51.4235 144.286 51.8246C144.137 52.2256 144.062 52.678 144.062 53.1818C144.062 53.6922 144.138 54.1513 144.291 54.5589C144.443 54.9666 144.669 55.2898 144.967 55.5284C145.269 55.7637 145.64 55.8814 146.081 55.8814ZM157.585 57.169C157.101 57.169 156.663 57.0795 156.272 56.9006C155.881 56.7183 155.571 56.4548 155.343 56.1101C155.117 55.7654 155.005 55.3428 155.005 54.8423C155.005 54.4115 155.087 54.0568 155.253 53.7784C155.419 53.5 155.643 53.2796 155.924 53.1172C156.206 52.9548 156.521 52.8321 156.869 52.7493C157.217 52.6664 157.572 52.6035 157.933 52.5604C158.39 52.5073 158.761 52.4643 159.047 52.4311C159.332 52.3946 159.539 52.3366 159.668 52.2571C159.797 52.1776 159.862 52.0483 159.862 51.8693V51.8345C159.862 51.4003 159.739 51.0639 159.494 50.8253C159.252 50.5866 158.891 50.4673 158.41 50.4673C157.91 50.4673 157.515 50.5784 157.227 50.8004C156.942 51.0192 156.745 51.2628 156.635 51.5312L155.238 51.2131C155.404 50.7491 155.646 50.3745 155.964 50.0895C156.286 49.8011 156.655 49.5923 157.073 49.4631C157.49 49.3305 157.93 49.2642 158.39 49.2642C158.695 49.2642 159.018 49.3007 159.36 49.3736C159.704 49.4432 160.026 49.5724 160.324 49.7614C160.626 49.9503 160.873 50.2204 161.065 50.5717C161.257 50.9197 161.353 51.3722 161.353 51.929V57H159.902V55.956H159.842C159.746 56.1482 159.602 56.3371 159.409 56.5227C159.217 56.7083 158.97 56.8625 158.669 56.9851C158.367 57.1077 158.006 57.169 157.585 57.169ZM157.908 55.9759C158.319 55.9759 158.67 55.8946 158.962 55.7322C159.257 55.5698 159.481 55.3577 159.633 55.0959C159.789 54.8307 159.867 54.5473 159.867 54.2457V53.2614C159.814 53.3144 159.711 53.3641 159.559 53.4105C159.409 53.4536 159.239 53.4917 159.047 53.5249C158.854 53.5547 158.667 53.5829 158.485 53.6094C158.302 53.6326 158.15 53.6525 158.027 53.669C157.739 53.7055 157.475 53.7668 157.237 53.853C157.002 53.9392 156.813 54.0634 156.67 54.2259C156.531 54.3849 156.461 54.5971 156.461 54.8622C156.461 55.2301 156.597 55.5085 156.869 55.6974C157.141 55.883 157.487 55.9759 157.908 55.9759ZM169.056 51.228L167.708 51.4666C167.652 51.2943 167.562 51.1302 167.44 50.9744C167.32 50.8187 167.158 50.6911 166.953 50.5916C166.747 50.4922 166.49 50.4425 166.182 50.4425C165.761 50.4425 165.41 50.5369 165.128 50.7259C164.846 50.9115 164.705 51.1518 164.705 51.4467C164.705 51.7019 164.8 51.9074 164.989 52.0632C165.178 52.219 165.483 52.3466 165.904 52.446L167.117 52.7244C167.819 52.8868 168.343 53.1371 168.688 53.4751C169.032 53.8132 169.205 54.2524 169.205 54.7926C169.205 55.25 169.072 55.6577 168.807 56.0156C168.545 56.3703 168.179 56.6487 167.708 56.8509C167.241 57.053 166.699 57.1541 166.083 57.1541C165.227 57.1541 164.53 56.9718 163.99 56.6072C163.449 56.2393 163.118 55.7173 162.995 55.0412L164.432 54.8224C164.521 55.197 164.705 55.4804 164.984 55.6726C165.262 55.8615 165.625 55.956 166.073 55.956C166.56 55.956 166.949 55.8549 167.241 55.6527C167.533 55.4472 167.678 55.197 167.678 54.902C167.678 54.6634 167.589 54.4628 167.41 54.3004C167.234 54.138 166.964 54.0154 166.6 53.9325L165.307 53.6491C164.594 53.4867 164.067 53.2282 163.726 52.8736C163.388 52.5189 163.219 52.0698 163.219 51.5263C163.219 51.0755 163.345 50.6811 163.597 50.343C163.849 50.005 164.197 49.7415 164.641 49.5526C165.085 49.3603 165.594 49.2642 166.167 49.2642C166.992 49.2642 167.642 49.4432 168.116 49.8011C168.59 50.1558 168.903 50.6314 169.056 51.228ZM24.7216 68.228L23.3743 68.4666C23.3179 68.2943 23.2285 68.1302 23.1058 67.9744C22.9865 67.8187 22.8241 67.6911 22.6186 67.5916C22.4131 67.4922 22.1563 67.4425 21.848 67.4425C21.4271 67.4425 21.0758 67.5369 20.794 67.7259C20.5123 67.9115 20.3714 68.1518 20.3714 68.4467C20.3714 68.7019 20.4659 68.9074 20.6548 69.0632C20.8438 69.219 21.1487 69.3466 21.5696 69.446L22.7827 69.7244C23.4853 69.8868 24.009 70.1371 24.3537 70.4751C24.6984 70.8132 24.8707 71.2524 24.8707 71.7926C24.8707 72.25 24.7382 72.6577 24.473 73.0156C24.2112 73.3703 23.8449 73.6487 23.3743 73.8509C22.907 74.053 22.3651 74.1541 21.7486 74.1541C20.8935 74.1541 20.1958 73.9718 19.6555 73.6072C19.1153 73.2393 18.7839 72.7173 18.6612 72.0412L20.098 71.8224C20.1875 72.197 20.3714 72.4804 20.6499 72.6726C20.9283 72.8615 21.2912 72.956 21.7386 72.956C22.2259 72.956 22.6153 72.8549 22.907 72.6527C23.1986 72.4472 23.3445 72.197 23.3445 71.902C23.3445 71.6634 23.255 71.4628 23.076 71.3004C22.9003 71.138 22.6302 71.0154 22.2656 70.9325L20.973 70.6491C20.2604 70.4867 19.7334 70.2282 19.392 69.8736C19.054 69.5189 18.8849 69.0698 18.8849 68.5263C18.8849 68.0755 19.0109 67.6811 19.2628 67.343C19.5147 67.005 19.8627 66.7415 20.3068 66.5526C20.7509 66.3603 21.2597 66.2642 21.8331 66.2642C22.6584 66.2642 23.308 66.4432 23.782 66.8011C24.2559 67.1558 24.5691 67.6314 24.7216 68.228ZM26.5051 76.8636V66.3636H27.9569V67.6016H28.0811C28.1673 67.4425 28.2916 67.2585 28.454 67.0497C28.6164 66.8409 28.8418 66.6586 29.1301 66.5028C29.4185 66.3438 29.7997 66.2642 30.2736 66.2642C30.8901 66.2642 31.4403 66.42 31.9242 66.7315C32.4081 67.0431 32.7876 67.4922 33.0627 68.0788C33.3411 68.6655 33.4803 69.3714 33.4803 70.1967C33.4803 71.022 33.3427 71.7296 33.0676 72.3196C32.7926 72.9062 32.4147 73.3587 31.9341 73.6768C31.4535 73.9917 30.905 74.1491 30.2885 74.1491C29.8245 74.1491 29.445 74.0713 29.15 73.9155C28.8584 73.7597 28.6297 73.5774 28.464 73.3686C28.2982 73.1598 28.1706 72.9742 28.0811 72.8118H27.9917V76.8636H26.5051ZM27.9618 70.1818C27.9618 70.7187 28.0397 71.1894 28.1955 71.5938C28.3513 71.9981 28.5766 72.3146 28.8716 72.5433C29.1666 72.7687 29.5279 72.8814 29.9554 72.8814C30.3996 72.8814 30.7708 72.7637 31.0691 72.5284C31.3674 72.2898 31.5927 71.9666 31.7452 71.5589C31.901 71.1513 31.9789 70.6922 31.9789 70.1818C31.9789 69.678 31.9026 69.2256 31.7502 68.8246C31.601 68.4235 31.3757 68.107 31.074 67.875C30.7757 67.643 30.4029 67.527 29.9554 67.527C29.5246 67.527 29.16 67.638 28.8617 67.8601C28.5667 68.0821 28.343 68.392 28.1905 68.7898C28.0381 69.1875 27.9618 69.6515 27.9618 70.1818ZM37.3681 74.169C36.8842 74.169 36.4467 74.0795 36.0556 73.9006C35.6645 73.7183 35.3546 73.4548 35.1259 73.1101C34.9005 72.7654 34.7878 72.3428 34.7878 71.8423C34.7878 71.4115 34.8707 71.0568 35.0364 70.7784C35.2021 70.5 35.4258 70.2796 35.7076 70.1172C35.9893 69.9548 36.3042 69.8321 36.6522 69.7493C37.0002 69.6664 37.3548 69.6035 37.7161 69.5604C38.1735 69.5073 38.5447 69.4643 38.8297 69.4311C39.1148 69.3946 39.3219 69.3366 39.4512 69.2571C39.5804 69.1776 39.6451 69.0483 39.6451 68.8693V68.8345C39.6451 68.4003 39.5224 68.0639 39.2772 67.8253C39.0352 67.5866 38.6739 67.4673 38.1934 67.4673C37.6929 67.4673 37.2985 67.5784 37.0101 67.8004C36.7251 68.0192 36.5279 68.2628 36.4185 68.5312L35.0215 68.2131C35.1872 67.7491 35.4292 67.3745 35.7473 67.0895C36.0688 66.8011 36.4384 66.5923 36.856 66.4631C37.2736 66.3305 37.7128 66.2642 38.1735 66.2642C38.4784 66.2642 38.8016 66.3007 39.1429 66.3736C39.4876 66.4432 39.8091 66.5724 40.1074 66.7614C40.409 66.9503 40.656 67.2204 40.8482 67.5717C41.0404 67.9197 41.1365 68.3722 41.1365 68.929V74H39.6848V72.956H39.6252C39.5291 73.1482 39.3849 73.3371 39.1926 73.5227C39.0004 73.7083 38.7535 73.8625 38.4519 73.9851C38.1503 74.1077 37.789 74.169 37.3681 74.169ZM37.6912 72.9759C38.1022 72.9759 38.4535 72.8946 38.7452 72.7322C39.0402 72.5698 39.2639 72.3577 39.4164 72.0959C39.5721 71.8307 39.65 71.5473 39.65 71.2457V70.2614C39.597 70.3144 39.4943 70.3641 39.3418 70.4105C39.1926 70.4536 39.022 70.4917 38.8297 70.5249C38.6375 70.5547 38.4502 70.5829 38.2679 70.6094C38.0856 70.6326 37.9332 70.6525 37.8105 70.669C37.5222 70.7055 37.2587 70.7668 37.0201 70.853C36.7847 70.9392 36.5958 71.0634 36.4533 71.2259C36.3141 71.3849 36.2445 71.5971 36.2445 71.8622C36.2445 72.2301 36.3804 72.5085 36.6522 72.6974C36.9239 72.883 37.2703 72.9759 37.6912 72.9759ZM43.1165 74V66.3636H44.5433V67.6065H44.6378C44.7969 67.1856 45.0571 66.8575 45.4183 66.6222C45.7796 66.3835 46.2121 66.2642 46.7159 66.2642C47.2263 66.2642 47.6539 66.3835 47.9986 66.6222C48.3466 66.8608 48.6035 67.1889 48.7692 67.6065H48.8487C49.031 67.1989 49.321 66.8741 49.7188 66.6321C50.1165 66.3868 50.5904 66.2642 51.1406 66.2642C51.8333 66.2642 52.3984 66.4813 52.8359 66.9155C53.2768 67.3497 53.4972 68.0043 53.4972 68.8793V74H52.0107V69.0185C52.0107 68.5014 51.8698 68.1269 51.5881 67.8949C51.3063 67.6629 50.9699 67.5469 50.5788 67.5469C50.0949 67.5469 49.7188 67.696 49.4503 67.9943C49.1818 68.2893 49.0476 68.6688 49.0476 69.1328V74H47.5661V68.924C47.5661 68.5097 47.4368 68.1766 47.1783 67.9247C46.9197 67.6728 46.5833 67.5469 46.169 67.5469C45.8873 67.5469 45.6271 67.6214 45.3885 67.7706C45.1532 67.9164 44.9626 68.1203 44.8168 68.3821C44.6742 68.6439 44.603 68.9472 44.603 69.2919V74H43.1165ZM19.1186 108V97.8182H22.7479C23.5367 97.8182 24.1913 97.9541 24.7116 98.2259C25.2353 98.4976 25.6264 98.8738 25.8849 99.3544C26.1435 99.8317 26.2727 100.384 26.2727 101.01C26.2727 101.633 26.1418 102.182 25.88 102.656C25.6214 103.126 25.2304 103.492 24.7067 103.754C24.1863 104.016 23.5317 104.147 22.7429 104.147H19.9936V102.825H22.6037C23.1009 102.825 23.5052 102.753 23.8168 102.611C24.1316 102.468 24.362 102.261 24.5078 101.989C24.6536 101.718 24.7266 101.391 24.7266 101.01C24.7266 100.625 24.652 100.292 24.5028 100.011C24.357 99.7289 24.1267 99.5135 23.8118 99.3643C23.5002 99.2119 23.0909 99.1357 22.5838 99.1357H20.6548V108H19.1186ZM24.1449 103.406L26.6605 108H24.9105L22.4446 103.406H24.1449ZM31.2182 108.154C30.4658 108.154 29.8179 107.993 29.2743 107.672C28.7341 107.347 28.3165 106.891 28.0215 106.305C27.7298 105.715 27.584 105.024 27.584 104.232C27.584 103.449 27.7298 102.76 28.0215 102.163C28.3165 101.567 28.7275 101.101 29.2544 100.766C29.7847 100.432 30.4045 100.264 31.1138 100.264C31.5447 100.264 31.9623 100.335 32.3667 100.478C32.771 100.621 33.1339 100.844 33.4554 101.149C33.7769 101.454 34.0305 101.85 34.2161 102.337C34.4017 102.821 34.4945 103.41 34.4945 104.102V104.629H28.4242V103.516H33.0378C33.0378 103.125 32.9583 102.778 32.7992 102.477C32.6401 102.172 32.4164 101.931 32.128 101.756C31.843 101.58 31.5082 101.492 31.1238 101.492C30.7061 101.492 30.3416 101.595 30.03 101.8C29.7218 102.003 29.4831 102.268 29.3141 102.596C29.1484 102.921 29.0655 103.274 29.0655 103.655V104.525C29.0655 105.035 29.155 105.469 29.334 105.827C29.5163 106.185 29.7698 106.459 30.0946 106.648C30.4194 106.833 30.7989 106.926 31.2331 106.926C31.5149 106.926 31.7717 106.886 32.0037 106.807C32.2357 106.724 32.4363 106.601 32.6053 106.439C32.7743 106.277 32.9036 106.076 32.9931 105.837L34.4 106.091C34.2873 106.505 34.0852 106.868 33.7935 107.18C33.5051 107.488 33.1422 107.728 32.7047 107.901C32.2705 108.07 31.775 108.154 31.2182 108.154ZM36.1438 108V100.364H37.5707V101.607H37.6651C37.8242 101.186 38.0844 100.857 38.4457 100.622C38.8069 100.384 39.2395 100.264 39.7433 100.264C40.2537 100.264 40.6812 100.384 41.0259 100.622C41.3739 100.861 41.6308 101.189 41.7965 101.607H41.8761C42.0584 101.199 42.3484 100.874 42.7461 100.632C43.1438 100.387 43.6178 100.264 44.168 100.264C44.8607 100.264 45.4258 100.481 45.8633 100.915C46.3041 101.35 46.5245 102.004 46.5245 102.879V108H45.038V103.018C45.038 102.501 44.8971 102.127 44.6154 101.895C44.3337 101.663 43.9973 101.547 43.6062 101.547C43.1223 101.547 42.7461 101.696 42.4776 101.994C42.2092 102.289 42.0749 102.669 42.0749 103.133V108H40.5934V102.924C40.5934 102.51 40.4641 102.177 40.2056 101.925C39.9471 101.673 39.6107 101.547 39.1964 101.547C38.9147 101.547 38.6545 101.621 38.4158 101.771C38.1805 101.916 37.9899 102.12 37.8441 102.382C37.7016 102.644 37.6303 102.947 37.6303 103.292V108H36.1438ZM51.7335 108.154C51.0176 108.154 50.3928 107.99 49.8592 107.662C49.3256 107.334 48.9113 106.875 48.6163 106.285C48.3213 105.695 48.1738 105.005 48.1738 104.217C48.1738 103.424 48.3213 102.732 48.6163 102.138C48.9113 101.545 49.3256 101.085 49.8592 100.756C50.3928 100.428 51.0176 100.264 51.7335 100.264C52.4494 100.264 53.0742 100.428 53.6078 100.756C54.1414 101.085 54.5557 101.545 54.8507 102.138C55.1457 102.732 55.2931 103.424 55.2931 104.217C55.2931 105.005 55.1457 105.695 54.8507 106.285C54.5557 106.875 54.1414 107.334 53.6078 107.662C53.0742 107.99 52.4494 108.154 51.7335 108.154ZM51.7385 106.906C52.2025 106.906 52.5869 106.784 52.8919 106.538C53.1968 106.293 53.4222 105.967 53.568 105.559C53.7172 105.151 53.7917 104.702 53.7917 104.212C53.7917 103.724 53.7172 103.277 53.568 102.869C53.4222 102.458 53.1968 102.129 52.8919 101.88C52.5869 101.631 52.2025 101.507 51.7385 101.507C51.2711 101.507 50.8833 101.631 50.5751 101.88C50.2702 102.129 50.0431 102.458 49.894 102.869C49.7482 103.277 49.6752 103.724 49.6752 104.212C49.6752 104.702 49.7482 105.151 49.894 105.559C50.0431 105.967 50.2702 106.293 50.5751 106.538C50.8833 106.784 51.2711 106.906 51.7385 106.906ZM63.2253 100.364L60.4561 108H58.8652L56.0911 100.364H57.687L59.6209 106.24H59.7005L61.6294 100.364H63.2253ZM67.6538 108.154C66.9014 108.154 66.2534 107.993 65.7099 107.672C65.1696 107.347 64.752 106.891 64.457 106.305C64.1654 105.715 64.0195 105.024 64.0195 104.232C64.0195 103.449 64.1654 102.76 64.457 102.163C64.752 101.567 65.163 101.101 65.69 100.766C66.2203 100.432 66.8401 100.264 67.5494 100.264C67.9802 100.264 68.3978 100.335 68.8022 100.478C69.2066 100.621 69.5695 100.844 69.891 101.149C70.2125 101.454 70.466 101.85 70.6516 102.337C70.8372 102.821 70.93 103.41 70.93 104.102V104.629H64.8597V103.516H69.4734C69.4734 103.125 69.3938 102.778 69.2347 102.477C69.0756 102.172 68.8519 101.931 68.5636 101.756C68.2785 101.58 67.9438 101.492 67.5593 101.492C67.1417 101.492 66.7771 101.595 66.4656 101.8C66.1573 102.003 65.9187 102.268 65.7496 102.596C65.5839 102.921 65.5011 103.274 65.5011 103.655V104.525C65.5011 105.035 65.5906 105.469 65.7695 105.827C65.9518 106.185 66.2054 106.459 66.5302 106.648C66.855 106.833 67.2345 106.926 67.6687 106.926C67.9504 106.926 68.2073 106.886 68.4393 106.807C68.6713 106.724 68.8718 106.601 69.0408 106.439C69.2099 106.277 69.3391 106.076 69.4286 105.837L70.8356 106.091C70.7229 106.505 70.5207 106.868 70.229 107.18C69.9407 107.488 69.5778 107.728 69.1403 107.901C68.7061 108.07 68.2106 108.154 67.6538 108.154ZM79.8491 100.364V101.557H75.6779V100.364H79.8491ZM76.7965 98.5341H78.283V105.758C78.283 106.046 78.3261 106.263 78.4123 106.409C78.4985 106.552 78.6095 106.649 78.7454 106.702C78.8846 106.752 79.0354 106.777 79.1978 106.777C79.3171 106.777 79.4215 106.769 79.511 106.752C79.6005 106.736 79.6701 106.722 79.7198 106.712L79.9883 107.94C79.9021 107.973 79.7795 108.007 79.6204 108.04C79.4613 108.076 79.2624 108.096 79.0238 108.099C78.6327 108.106 78.2681 108.036 77.93 107.891C77.592 107.745 77.3185 107.519 77.1097 107.214C76.9009 106.91 76.7965 106.527 76.7965 106.066V98.5341ZM83.144 103.466V108H81.6575V97.8182H83.1241V101.607H83.2186C83.3975 101.196 83.671 100.869 84.0389 100.627C84.4068 100.385 84.8874 100.264 85.4806 100.264C86.0043 100.264 86.4617 100.372 86.8528 100.587C87.2472 100.803 87.5521 101.124 87.7676 101.552C87.9863 101.976 88.0957 102.506 88.0957 103.143V108H86.6092V103.322C86.6092 102.762 86.465 102.327 86.1767 102.019C85.8883 101.708 85.4873 101.552 84.9735 101.552C84.6222 101.552 84.3074 101.626 84.0289 101.776C83.7538 101.925 83.5368 102.143 83.3777 102.432C83.2219 102.717 83.144 103.062 83.144 103.466ZM93.3706 108.154C92.6182 108.154 91.9702 107.993 91.4267 107.672C90.8864 107.347 90.4688 106.891 90.1738 106.305C89.8822 105.715 89.7363 105.024 89.7363 104.232C89.7363 103.449 89.8822 102.76 90.1738 102.163C90.4688 101.567 90.8798 101.101 91.4068 100.766C91.9371 100.432 92.5569 100.264 93.2662 100.264C93.697 100.264 94.1146 100.335 94.519 100.478C94.9234 100.621 95.2863 100.844 95.6078 101.149C95.9293 101.454 96.1828 101.85 96.3684 102.337C96.554 102.821 96.6468 103.41 96.6468 104.102V104.629H90.5765V103.516H95.1902C95.1902 103.125 95.1106 102.778 94.9515 102.477C94.7924 102.172 94.5687 101.931 94.2804 101.756C93.9953 101.58 93.6606 101.492 93.2761 101.492C92.8585 101.492 92.4939 101.595 92.1824 101.8C91.8741 102.003 91.6355 102.268 91.4664 102.596C91.3007 102.921 91.2179 103.274 91.2179 103.655V104.525C91.2179 105.035 91.3074 105.469 91.4863 105.827C91.6686 106.185 91.9222 106.459 92.247 106.648C92.5718 106.833 92.9513 106.926 93.3855 106.926C93.6672 106.926 93.9241 106.886 94.1561 106.807C94.3881 106.724 94.5886 106.601 94.7576 106.439C94.9267 106.277 95.0559 106.076 95.1454 105.837L96.5524 106.091C96.4397 106.505 96.2375 106.868 95.9458 107.18C95.6575 107.488 95.2946 107.728 94.8571 107.901C94.4229 108.07 93.9274 108.154 93.3706 108.154ZM105.635 100.364V101.557H101.32V100.364H105.635ZM102.503 108V99.4787C102.503 99.0014 102.608 98.6053 102.817 98.2905C103.025 97.9723 103.302 97.7353 103.647 97.5795C103.992 97.4205 104.366 97.3409 104.77 97.3409C105.069 97.3409 105.324 97.3658 105.536 97.4155C105.748 97.4619 105.906 97.505 106.008 97.5447L105.66 98.7479C105.591 98.728 105.501 98.7048 105.392 98.6783C105.282 98.6484 105.15 98.6335 104.994 98.6335C104.633 98.6335 104.374 98.723 104.219 98.902C104.066 99.081 103.99 99.3395 103.99 99.6776V108H102.503ZM110.085 108.154C109.369 108.154 108.744 107.99 108.211 107.662C107.677 107.334 107.263 106.875 106.968 106.285C106.673 105.695 106.525 105.005 106.525 104.217C106.525 103.424 106.673 102.732 106.968 102.138C107.263 101.545 107.677 101.085 108.211 100.756C108.744 100.428 109.369 100.264 110.085 100.264C110.801 100.264 111.426 100.428 111.959 100.756C112.493 101.085 112.907 101.545 113.202 102.138C113.497 102.732 113.645 103.424 113.645 104.217C113.645 105.005 113.497 105.695 113.202 106.285C112.907 106.875 112.493 107.334 111.959 107.662C111.426 107.99 110.801 108.154 110.085 108.154ZM110.09 106.906C110.554 106.906 110.939 106.784 111.243 106.538C111.548 106.293 111.774 105.967 111.92 105.559C112.069 105.151 112.143 104.702 112.143 104.212C112.143 103.724 112.069 103.277 111.92 102.869C111.774 102.458 111.548 102.129 111.243 101.88C110.939 101.631 110.554 101.507 110.09 101.507C109.623 101.507 109.235 101.631 108.927 101.88C108.622 102.129 108.395 102.458 108.246 102.869C108.1 103.277 108.027 103.724 108.027 104.212C108.027 104.702 108.1 105.151 108.246 105.559C108.395 105.967 108.622 106.293 108.927 106.538C109.235 106.784 109.623 106.906 110.09 106.906ZM116.79 97.8182V108H115.304V97.8182H116.79ZM120.277 97.8182V108H118.79V97.8182H120.277ZM125.493 108.154C124.777 108.154 124.153 107.99 123.619 107.662C123.085 107.334 122.671 106.875 122.376 106.285C122.081 105.695 121.934 105.005 121.934 104.217C121.934 103.424 122.081 102.732 122.376 102.138C122.671 101.545 123.085 101.085 123.619 100.756C124.153 100.428 124.777 100.264 125.493 100.264C126.209 100.264 126.834 100.428 127.368 100.756C127.901 101.085 128.315 101.545 128.61 102.138C128.905 102.732 129.053 103.424 129.053 104.217C129.053 105.005 128.905 105.695 128.61 106.285C128.315 106.875 127.901 107.334 127.368 107.662C126.834 107.99 126.209 108.154 125.493 108.154ZM125.498 106.906C125.962 106.906 126.347 106.784 126.652 106.538C126.957 106.293 127.182 105.967 127.328 105.559C127.477 105.151 127.551 104.702 127.551 104.212C127.551 103.724 127.477 103.277 127.328 102.869C127.182 102.458 126.957 102.129 126.652 101.88C126.347 101.631 125.962 101.507 125.498 101.507C125.031 101.507 124.643 101.631 124.335 101.88C124.03 102.129 123.803 102.458 123.654 102.869C123.508 103.277 123.435 103.724 123.435 104.212C123.435 104.702 123.508 105.151 123.654 105.559C123.803 105.967 124.03 106.293 124.335 106.538C124.643 106.784 125.031 106.906 125.498 106.906ZM132.135 108L129.888 100.364H131.424L132.921 105.972H132.995L134.497 100.364H136.033L137.525 105.947H137.599L139.086 100.364H140.622L138.38 108H136.863L135.312 102.487H135.198L133.647 108H132.135ZM142.032 108V100.364H143.519V108H142.032ZM142.783 99.1854C142.525 99.1854 142.303 99.0992 142.117 98.9268C141.935 98.7512 141.844 98.5424 141.844 98.3004C141.844 98.0552 141.935 97.8464 142.117 97.674C142.303 97.4983 142.525 97.4105 142.783 97.4105C143.042 97.4105 143.262 97.4983 143.444 97.674C143.63 97.8464 143.723 98.0552 143.723 98.3004C143.723 98.5424 143.63 98.7512 143.444 98.9268C143.262 99.0992 143.042 99.1854 142.783 99.1854ZM147.005 103.466V108H145.519V100.364H146.946V101.607H147.04C147.216 101.202 147.491 100.877 147.865 100.632C148.243 100.387 148.719 100.264 149.292 100.264C149.813 100.264 150.268 100.374 150.659 100.592C151.051 100.808 151.354 101.129 151.569 101.557C151.785 101.984 151.892 102.513 151.892 103.143V108H150.406V103.322C150.406 102.768 150.262 102.336 149.973 102.024C149.685 101.709 149.289 101.552 148.785 101.552C148.44 101.552 148.134 101.626 147.865 101.776C147.6 101.925 147.39 102.143 147.234 102.432C147.082 102.717 147.005 103.062 147.005 103.466ZM157.088 111.023C156.481 111.023 155.959 110.943 155.522 110.784C155.087 110.625 154.733 110.415 154.458 110.153C154.183 109.891 153.977 109.604 153.841 109.293L155.119 108.766C155.208 108.911 155.328 109.066 155.477 109.228C155.629 109.394 155.835 109.535 156.093 109.651C156.355 109.767 156.692 109.825 157.103 109.825C157.666 109.825 158.132 109.687 158.5 109.412C158.868 109.14 159.051 108.706 159.051 108.109V106.608H158.957C158.868 106.77 158.738 106.951 158.569 107.15C158.404 107.349 158.175 107.521 157.883 107.667C157.592 107.813 157.212 107.886 156.745 107.886C156.141 107.886 155.598 107.745 155.114 107.463C154.633 107.178 154.252 106.759 153.971 106.205C153.692 105.648 153.553 104.964 153.553 104.152C153.553 103.34 153.69 102.644 153.966 102.064C154.244 101.484 154.625 101.04 155.109 100.732C155.593 100.42 156.141 100.264 156.755 100.264C157.229 100.264 157.611 100.344 157.903 100.503C158.195 100.659 158.422 100.841 158.584 101.05C158.75 101.259 158.877 101.442 158.967 101.602H159.076V100.364H160.533V108.169C160.533 108.825 160.381 109.364 160.076 109.785C159.771 110.206 159.358 110.517 158.838 110.719C158.321 110.922 157.737 111.023 157.088 111.023ZM157.073 106.653C157.5 106.653 157.862 106.553 158.157 106.354C158.455 106.152 158.68 105.864 158.833 105.489C158.989 105.112 159.066 104.659 159.066 104.132C159.066 103.618 158.99 103.166 158.838 102.775C158.685 102.384 158.462 102.079 158.167 101.86C157.872 101.638 157.507 101.527 157.073 101.527C156.625 101.527 156.252 101.643 155.954 101.875C155.656 102.104 155.431 102.415 155.278 102.81C155.129 103.204 155.054 103.645 155.054 104.132C155.054 104.633 155.131 105.072 155.283 105.45C155.435 105.827 155.661 106.122 155.959 106.335C156.261 106.547 156.632 106.653 157.073 106.653ZM167.599 105.41L167.589 103.595H167.847L170.89 100.364H172.67L169.2 104.043H168.966L167.599 105.41ZM166.232 108V97.8182H167.718V108H166.232ZM171.054 108L168.32 104.371L169.344 103.332L172.879 108H171.054ZM177.001 108.154C176.249 108.154 175.601 107.993 175.058 107.672C174.517 107.347 174.1 106.891 173.805 106.305C173.513 105.715 173.367 105.024 173.367 104.232C173.367 103.449 173.513 102.76 173.805 102.163C174.1 101.567 174.511 101.101 175.038 100.766C175.568 100.432 176.188 100.264 176.897 100.264C177.328 100.264 177.746 100.335 178.15 100.478C178.554 100.621 178.917 100.844 179.239 101.149C179.56 101.454 179.814 101.85 179.999 102.337C180.185 102.821 180.278 103.41 180.278 104.102V104.629H174.207V103.516H178.821C178.821 103.125 178.741 102.778 178.582 102.477C178.423 102.172 178.2 101.931 177.911 101.756C177.626 101.58 177.291 101.492 176.907 101.492C176.489 101.492 176.125 101.595 175.813 101.8C175.505 102.003 175.266 102.268 175.097 102.596C174.932 102.921 174.849 103.274 174.849 103.655V104.525C174.849 105.035 174.938 105.469 175.117 105.827C175.299 106.185 175.553 106.459 175.878 106.648C176.203 106.833 176.582 106.926 177.016 106.926C177.298 106.926 177.555 106.886 177.787 106.807C178.019 106.724 178.219 106.601 178.388 106.439C178.558 106.277 178.687 106.076 178.776 105.837L180.183 106.091C180.071 106.505 179.868 106.868 179.577 107.18C179.288 107.488 178.925 107.728 178.488 107.901C178.054 108.07 177.558 108.154 177.001 108.154ZM182.648 110.864C182.426 110.864 182.224 110.845 182.041 110.809C181.859 110.776 181.723 110.739 181.634 110.7L181.992 109.482C182.263 109.554 182.505 109.586 182.718 109.576C182.93 109.566 183.117 109.487 183.279 109.337C183.445 109.188 183.591 108.945 183.717 108.607L183.901 108.099L181.107 100.364H182.698L184.632 106.29H184.711L186.645 100.364H188.241L185.094 109.019C184.948 109.417 184.762 109.753 184.537 110.028C184.312 110.307 184.043 110.516 183.732 110.655C183.42 110.794 183.059 110.864 182.648 110.864ZM20.6548 125L18.4077 117.364H19.9439L21.4403 122.972H21.5149L23.0163 117.364H24.5526L26.044 122.947H26.1186L27.6051 117.364H29.1413L26.8991 125H25.3828L23.8317 119.487H23.7173L22.1662 125H20.6548ZM33.5362 125.154C32.8203 125.154 32.1955 124.99 31.6619 124.662C31.1283 124.334 30.714 123.875 30.419 123.285C30.1241 122.695 29.9766 122.005 29.9766 121.217C29.9766 120.424 30.1241 119.732 30.419 119.138C30.714 118.545 31.1283 118.085 31.6619 117.756C32.1955 117.428 32.8203 117.264 33.5362 117.264C34.2521 117.264 34.8769 117.428 35.4105 117.756C35.9441 118.085 36.3584 118.545 36.6534 119.138C36.9484 119.732 37.0959 120.424 37.0959 121.217C37.0959 122.005 36.9484 122.695 36.6534 123.285C36.3584 123.875 35.9441 124.334 35.4105 124.662C34.8769 124.99 34.2521 125.154 33.5362 125.154ZM33.5412 123.906C34.0052 123.906 34.3897 123.784 34.6946 123.538C34.9995 123.293 35.2249 122.967 35.3707 122.559C35.5199 122.151 35.5945 121.702 35.5945 121.212C35.5945 120.724 35.5199 120.277 35.3707 119.869C35.2249 119.458 34.9995 119.129 34.6946 118.88C34.3897 118.631 34.0052 118.507 33.5412 118.507C33.0739 118.507 32.6861 118.631 32.3778 118.88C32.0729 119.129 31.8459 119.458 31.6967 119.869C31.5509 120.277 31.478 120.724 31.478 121.212C31.478 121.702 31.5509 122.151 31.6967 122.559C31.8459 122.967 32.0729 123.293 32.3778 123.538C32.6861 123.784 33.0739 123.906 33.5412 123.906ZM38.7551 125V117.364H40.1919V118.577H40.2715C40.4107 118.166 40.656 117.843 41.0073 117.607C41.3619 117.369 41.763 117.249 42.2104 117.249C42.3032 117.249 42.4126 117.253 42.5385 117.259C42.6678 117.266 42.7689 117.274 42.8418 117.284V118.706C42.7821 118.689 42.6761 118.671 42.5236 118.651C42.3712 118.628 42.2187 118.616 42.0662 118.616C41.7149 118.616 41.4017 118.691 41.1266 118.84C40.8548 118.986 40.6394 119.19 40.4803 119.452C40.3212 119.71 40.2417 120.005 40.2417 120.337V125H38.7551ZM46.7134 125.149C46.0969 125.149 45.5468 124.992 45.0629 124.677C44.5823 124.359 44.2044 123.906 43.9293 123.32C43.6576 122.73 43.5217 122.022 43.5217 121.197C43.5217 120.371 43.6592 119.665 43.9343 119.079C44.2127 118.492 44.5939 118.043 45.0778 117.732C45.5617 117.42 46.1102 117.264 46.7234 117.264C47.1973 117.264 47.5785 117.344 47.8668 117.503C48.1585 117.659 48.3839 117.841 48.543 118.05C48.7054 118.259 48.8313 118.442 48.9208 118.602H49.0103V114.818H50.4968V125H49.0451V123.812H48.9208C48.8313 123.974 48.7021 124.16 48.533 124.369C48.3673 124.577 48.1386 124.76 47.8469 124.915C47.5553 125.071 47.1774 125.149 46.7134 125.149ZM47.0415 123.881C47.4691 123.881 47.8304 123.769 48.1254 123.543C48.4237 123.315 48.649 122.998 48.8015 122.594C48.9573 122.189 49.0352 121.719 49.0352 121.182C49.0352 120.652 48.9589 120.187 48.8065 119.79C48.654 119.392 48.4303 119.082 48.1353 118.86C47.8403 118.638 47.4757 118.527 47.0415 118.527C46.5941 118.527 46.2212 118.643 45.9229 118.875C45.6246 119.107 45.3993 119.424 45.2468 119.825C45.0977 120.226 45.0231 120.678 45.0231 121.182C45.0231 121.692 45.0993 122.151 45.2518 122.559C45.4042 122.967 45.6296 123.29 45.9279 123.528C46.2295 123.764 46.6007 123.881 47.0415 123.881ZM58.3407 119.228L56.9934 119.467C56.9371 119.294 56.8476 119.13 56.725 118.974C56.6056 118.819 56.4432 118.691 56.2377 118.592C56.0323 118.492 55.7754 118.442 55.4672 118.442C55.0462 118.442 54.6949 118.537 54.4132 118.726C54.1315 118.911 53.9906 119.152 53.9906 119.447C53.9906 119.702 54.085 119.907 54.274 120.063C54.4629 120.219 54.7678 120.347 55.1887 120.446L56.4018 120.724C57.1045 120.887 57.6281 121.137 57.9728 121.475C58.3175 121.813 58.4899 122.252 58.4899 122.793C58.4899 123.25 58.3573 123.658 58.0922 124.016C57.8303 124.37 57.4641 124.649 56.9934 124.851C56.5261 125.053 55.9842 125.154 55.3677 125.154C54.5126 125.154 53.8149 124.972 53.2747 124.607C52.7344 124.239 52.403 123.717 52.2804 123.041L53.7172 122.822C53.8066 123.197 53.9906 123.48 54.269 123.673C54.5474 123.862 54.9103 123.956 55.3578 123.956C55.845 123.956 56.2344 123.855 56.5261 123.653C56.8178 123.447 56.9636 123.197 56.9636 122.902C56.9636 122.663 56.8741 122.463 56.6951 122.3C56.5195 122.138 56.2493 122.015 55.8848 121.933L54.5922 121.649C53.8796 121.487 53.3526 121.228 53.0112 120.874C52.6731 120.519 52.5041 120.07 52.5041 119.526C52.5041 119.076 52.63 118.681 52.8819 118.343C53.1338 118.005 53.4818 117.741 53.926 117.553C54.3701 117.36 54.8788 117.264 55.4522 117.264C56.2775 117.264 56.9271 117.443 57.4011 117.801C57.8751 118.156 58.1883 118.631 58.3407 119.228Z" fill="white"/>
<defs>
<linearGradient id="paint0_linear_5138_102601" x1="107.147" y1="-1.16155e-05" x2="107.147" y2="297.657" gradientUnits="userSpaceOnUse">
<stop offset="0.333333" stop-color="#7D55FA"/>
<stop offset="1" stop-color="#D336FF" stop-opacity="0.36"/>
</linearGradient>
</defs>
</svg>
