<svg width="214" height="194" viewBox="0 0 214 194" fill="none" xmlns="http://www.w3.org/2000/svg">
<path d="M85.9974 21.8359H77.9974C74.4612 21.8359 71.0698 23.2407 68.5693 25.7412C66.0688 28.2417 64.6641 31.6331 64.6641 35.1693V43.1693H56.6641V53.8359H64.6641V75.1693H75.3307V53.8359H83.3307L85.9974 43.1693H75.3307V35.1693C75.3307 34.462 75.6117 33.7838 76.1118 33.2837C76.6119 32.7836 77.2902 32.5026 77.9974 32.5026H85.9974V21.8359Z" stroke="white" stroke-width="2" stroke-linecap="round" stroke-linejoin="round"/>
<path d="M172.106 33.6174C171.789 32.3518 171.144 31.1923 170.235 30.2558C169.327 29.3194 168.188 28.6392 166.932 28.2841C162.346 27.1641 143.999 27.1641 143.999 27.1641C143.999 27.1641 125.652 27.1641 121.066 28.3907C119.81 28.7459 118.671 29.426 117.763 30.3625C116.854 31.2989 116.209 32.4585 115.892 33.7241C115.053 38.3789 114.642 43.1009 114.666 47.8307C114.636 52.5962 115.046 57.3542 115.892 62.0441C116.241 63.2703 116.901 64.3858 117.807 65.2827C118.714 66.1796 119.836 66.8276 121.066 67.1641C125.652 68.3907 143.999 68.3907 143.999 68.3907C143.999 68.3907 162.346 68.3907 166.932 67.1641C168.188 66.8089 169.327 66.1288 170.235 65.1923C171.144 64.2559 171.789 63.0963 172.106 61.8307C172.939 57.211 173.349 52.525 173.332 47.8307C173.362 43.0653 172.952 38.3073 172.106 33.6174V33.6174Z" stroke="white" stroke-width="2" stroke-linecap="round" stroke-linejoin="round"/>
<path d="M138 56.5572L153.333 47.8372L138 39.1172V56.5572Z" stroke="white" stroke-width="2" stroke-linecap="round" stroke-linejoin="round"/>
<path d="M83.3359 118.836H56.6693C49.3055 118.836 43.3359 124.805 43.3359 132.169V158.836C43.3359 166.2 49.3055 172.169 56.6693 172.169H83.3359C90.6997 172.169 96.6693 166.2 96.6693 158.836V132.169C96.6693 124.805 90.6997 118.836 83.3359 118.836Z" stroke="white" stroke-width="2" stroke-linecap="round" stroke-linejoin="round"/>
<path d="M80.6633 143.821C80.9924 146.04 80.6133 148.307 79.58 150.298C78.5466 152.29 76.9117 153.905 74.9076 154.913C72.9036 155.922 70.6325 156.273 68.4174 155.917C66.2023 155.56 64.156 154.514 62.5695 152.928C60.9831 151.341 59.9372 149.295 59.5808 147.08C59.2244 144.865 59.5755 142.594 60.5842 140.59C61.5928 138.586 63.2078 136.951 65.1992 135.917C67.1907 134.884 69.4573 134.505 71.6766 134.834C73.9404 135.17 76.0362 136.225 77.6545 137.843C79.2727 139.461 80.3276 141.557 80.6633 143.821Z" stroke="white" stroke-width="2" stroke-linecap="round" stroke-linejoin="round"/>
<path d="M84.6641 130.836H84.6907" stroke="black" stroke-width="2" stroke-linecap="round" stroke-linejoin="round"/>
<path d="M128.003 137.5H117.336V169.5H128.003V137.5Z" stroke="white" stroke-width="2" stroke-linecap="round" stroke-linejoin="round"/>
<path d="M154.664 134.836C158.908 134.836 162.977 136.522 165.978 139.522C168.978 142.523 170.664 146.592 170.664 150.836V169.503H159.997V150.836C159.997 149.421 159.435 148.065 158.435 147.065C157.435 146.065 156.079 145.503 154.664 145.503C153.25 145.503 151.893 146.065 150.893 147.065C149.893 148.065 149.331 149.421 149.331 150.836V169.503H138.664V150.836C138.664 146.592 140.35 142.523 143.35 139.522C146.351 136.522 150.421 134.836 154.664 134.836V134.836Z" stroke="white" stroke-width="2" stroke-linecap="round" stroke-linejoin="round"/>
<path d="M122.669 129.503C125.615 129.503 128.003 127.115 128.003 124.169C128.003 121.224 125.615 118.836 122.669 118.836C119.724 118.836 117.336 121.224 117.336 124.169C117.336 127.115 119.724 129.503 122.669 129.503Z" stroke="black" stroke-width="2" stroke-linecap="round" stroke-linejoin="round"/>
</svg>
