<svg width="28" height="28" viewBox="0 0 28 28" fill="none" xmlns="http://www.w3.org/2000/svg">
<g id="flat-color-icons:night-portrait">
<g id="Group 631793">
<g id="Group">
<path id="Vector" d="M19.5837 12.2501C20.228 12.2501 20.7503 11.7277 20.7503 11.0834C20.7503 10.4391 20.228 9.91675 19.5837 9.91675C18.9393 9.91675 18.417 10.4391 18.417 11.0834C18.417 11.7277 18.9393 12.2501 19.5837 12.2501Z" fill="#B39DDB"/>
<path id="Vector_2" d="M9.08366 12.2501C9.72799 12.2501 10.2503 11.7277 10.2503 11.0834C10.2503 10.4391 9.72799 9.91675 9.08366 9.91675C8.43933 9.91675 7.91699 10.4391 7.91699 11.0834C7.91699 11.7277 8.43933 12.2501 9.08366 12.2501Z" fill="#B39DDB"/>
<path id="Vector_3" d="M14.3337 21.5834L11.417 18.0834V14.5834H17.2503V18.0834L14.3337 21.5834Z" fill="#B39DDB"/>
</g>
<path id="Vector_4" d="M19.583 7.58333C19.583 3.15 9.08301 4.66667 9.08301 7.58333V11.6667C9.08301 14.5833 11.4163 16.9167 14.333 16.9167C17.2497 16.9167 19.583 14.5833 19.583 11.6667V7.58333Z" fill="#D1C4E9"/>
<g id="Group_2">
<path id="Vector_5" d="M16.6663 11.6667C16.9885 11.6667 17.2497 11.4055 17.2497 11.0833C17.2497 10.7612 16.9885 10.5 16.6663 10.5C16.3442 10.5 16.083 10.7612 16.083 11.0833C16.083 11.4055 16.3442 11.6667 16.6663 11.6667Z" fill="#673AB7"/>
<path id="Vector_6" d="M12.0003 11.6667C12.3225 11.6667 12.5837 11.4055 12.5837 11.0833C12.5837 10.7612 12.3225 10.5 12.0003 10.5C11.6782 10.5 11.417 10.7612 11.417 11.0833C11.417 11.4055 11.6782 11.6667 12.0003 11.6667Z" fill="#673AB7"/>
<path id="Vector_7" d="M14.3333 2.33337C10.775 2.33337 8.5 5.19171 8.5 8.75004V10.0917L9.66667 11.0834V8.16671L16.6667 5.83337L19 8.16671V11.0834L20.1667 10.0917V8.75004C20.1667 6.41671 19.5833 4.08337 16.6667 3.50004L16.0833 2.33337H14.3333ZM17.25 18.0834C17.25 18.0834 16.0833 18.6667 14.3333 18.6667C12.5833 18.6667 11.4167 18.0834 11.4167 18.0834C11.4167 18.0834 5 19.25 5 25.6667H23.6667C23.6667 19.25 17.25 18.0834 17.25 18.0834Z" fill="#673AB7"/>
</g>
</g>
</g>
</svg>
