<svg width="28" height="28" viewBox="0 0 28 28" fill="none" xmlns="http://www.w3.org/2000/svg">
<g id="flat-color-icons:night-portrait">
<g id="Group">
<path id="Vector" d="M4.44895 13.1483C4.98698 10.4594 5.25599 9.11547 6.22141 8.32358C7.18799 7.53168 8.55867 7.53168 11.3012 7.53168H16.1481C18.8906 7.53168 20.2613 7.53168 21.2267 8.32358C22.1933 9.11547 22.4611 10.4594 23.0003 13.1483L23.6991 16.642C24.4723 20.5083 24.859 22.4415 23.8109 23.7213C22.7628 25 20.79 25 16.8468 25H10.6036C6.66044 25 4.68768 25 3.63958 23.7213C2.59148 22.4427 2.97812 20.5095 3.75138 16.642L4.44895 13.1483Z" fill="#D1C4E9"/>
<path id="Vector_2" d="M17.2183 12.1899C17.8614 12.1899 18.3828 11.6685 18.3828 11.0253C18.3828 10.3822 17.8614 9.86078 17.2183 9.86078C16.5751 9.86078 16.0537 10.3822 16.0537 11.0253C16.0537 11.6685 16.5751 12.1899 17.2183 12.1899Z" fill="#673AB7"/>
<path id="Vector_3" d="M10.231 12.1899C10.8741 12.1899 11.3955 11.6685 11.3955 11.0253C11.3955 10.3822 10.8741 9.86078 10.231 9.86078C9.5878 9.86078 9.06641 10.3822 9.06641 11.0253C9.06641 11.6685 9.5878 12.1899 10.231 12.1899Z" fill="#673AB7"/>
<path id="Vector_4" d="M11.1043 6.36709C11.1043 5.67215 11.3803 5.00568 11.8717 4.51429C12.3631 4.0229 13.0296 3.74683 13.7245 3.74683C14.4194 3.74683 15.0859 4.0229 15.5773 4.51429C16.0687 5.00568 16.3448 5.67215 16.3448 6.36709V7.53164H16.8467C17.2857 7.53164 17.7003 7.53164 18.0916 7.53397V6.36709C18.0916 5.20886 17.6315 4.09808 16.8125 3.27909C15.9935 2.4601 14.8827 2 13.7245 2C12.5663 2 11.4555 2.4601 10.6365 3.27909C9.81752 4.09808 9.35742 5.20886 9.35742 6.36709V7.53397C9.74871 7.53164 10.1633 7.53164 10.6023 7.53164H11.1043V6.36709Z" fill="#673AB7"/>
</g>
</g>
</svg>
