<svg width="32" height="33" viewBox="0 0 32 33" fill="none" xmlns="http://www.w3.org/2000/svg">
<path d="M14.668 5.99219H5.33464C4.62739 5.99219 3.94911 6.27314 3.44902 6.77324C2.94892 7.27333 2.66797 7.95161 2.66797 8.65885V27.3255C2.66797 28.0328 2.94892 28.711 3.44902 29.2111C3.94911 29.7112 4.62739 29.9922 5.33464 29.9922H24.0013C24.7085 29.9922 25.3868 29.7112 25.8869 29.2111C26.387 28.711 26.668 28.0328 26.668 27.3255V17.9922" stroke="white" stroke-width="2" stroke-linecap="round" stroke-linejoin="round"/>
<path d="M24.668 3.99249C25.1984 3.46206 25.9178 3.16406 26.668 3.16406C27.4181 3.16406 28.1375 3.46206 28.668 3.99249C29.1984 4.52292 29.4964 5.24234 29.4964 5.99249C29.4964 6.74264 29.1984 7.46206 28.668 7.99249L16.0013 20.6592L10.668 21.9925L12.0013 16.6592L24.668 3.99249Z" stroke="white" stroke-width="2" stroke-linecap="round" stroke-linejoin="round"/>
</svg>
