<svg width="64" height="64" viewBox="0 0 64 64" fill="none" xmlns="http://www.w3.org/2000/svg">
<path d="M61.332 55.9971V50.6638C61.3303 48.3004 60.5436 46.0045 59.0957 44.1366C57.6477 42.2687 55.6204 40.9346 53.332 40.3438" stroke="white" stroke-width="2" stroke-linecap="round" stroke-linejoin="round"/>
<path d="M45.3346 56V50.6667C45.3346 47.8377 44.2108 45.1246 42.2104 43.1242C40.2101 41.1238 37.4969 40 34.668 40H13.3346C10.5057 40 7.79255 41.1238 5.79216 43.1242C3.79178 45.1246 2.66797 47.8377 2.66797 50.6667V56" stroke="white" stroke-width="2" stroke-linecap="round" stroke-linejoin="round"/>
<path d="M42.668 8.34375C44.9624 8.93122 46.9961 10.2656 48.4483 12.1366C49.9006 14.0075 50.6889 16.3086 50.6889 18.6771C50.6889 21.0455 49.9006 23.3466 48.4483 25.2176C46.9961 27.0885 44.9624 28.4229 42.668 29.0104" stroke="white" stroke-width="2" stroke-linecap="round" stroke-linejoin="round"/>
<path d="M23.9987 29.3333C29.8897 29.3333 34.6654 24.5577 34.6654 18.6667C34.6654 12.7756 29.8897 8 23.9987 8C18.1077 8 13.332 12.7756 13.332 18.6667C13.332 24.5577 18.1077 29.3333 23.9987 29.3333Z" stroke="white" stroke-width="2" stroke-linecap="round" stroke-linejoin="round"/>
</svg>
