<svg width="25" height="23" viewBox="0 0 25 23" fill="none" xmlns="http://www.w3.org/2000/svg">
<path d="M15.4762 3.79441C16.5023 3.79441 17.4864 3.39793 18.212 2.6922C18.9376 1.98648 19.3452 1.0293 19.3452 0.03125H21.131C21.131 1.0293 21.5386 1.98648 22.2642 2.6922C22.9898 3.39793 23.9739 3.79441 25 3.79441V5.53125C23.9739 5.53125 22.9898 5.92772 22.2642 6.63345C21.5386 7.33918 21.131 8.29636 21.131 9.29441H19.3452C19.3452 8.29636 18.9376 7.33918 18.212 6.63345C17.4864 5.92772 16.5023 5.53125 15.4762 5.53125V3.79441ZM2.38095 5.82072C2.38095 5.20654 2.6318 4.61751 3.07832 4.18321C3.52483 3.74892 4.13044 3.50493 4.7619 3.50493H13.0952V1.18914H4.7619C3.49897 1.18914 2.28776 1.67711 1.39473 2.5457C0.501699 3.41429 0 4.59235 0 5.82072V17.3997C0 18.628 0.501699 19.8061 1.39473 20.6747C2.28776 21.5433 3.49897 22.0313 4.7619 22.0313H19.0476C20.3106 22.0313 21.5218 21.5433 22.4148 20.6747C23.3078 19.8061 23.8095 18.628 23.8095 17.3997V11.6102H21.4286V17.3997C21.4286 18.0139 21.1777 18.6029 20.7312 19.0372C20.2847 19.4715 19.6791 19.7155 19.0476 19.7155H4.7619C4.13044 19.7155 3.52483 19.4715 3.07832 19.0372C2.6318 18.6029 2.38095 18.0139 2.38095 17.3997V5.82072Z" fill="#844FFF"/>
</svg>
