<svg width="64" height="64" viewBox="0 0 64 64" fill="none" xmlns="http://www.w3.org/2000/svg">
<path d="M31.9987 58.6693C46.7263 58.6693 58.6654 46.7302 58.6654 32.0026C58.6654 17.275 46.7263 5.33594 31.9987 5.33594C17.2711 5.33594 5.33203 17.275 5.33203 32.0026C5.33203 46.7302 17.2711 58.6693 31.9987 58.6693Z" stroke="white" stroke-width="2" stroke-linecap="round" stroke-linejoin="round"/>
<path d="M32 48C40.8366 48 48 40.8366 48 32C48 23.1634 40.8366 16 32 16C23.1634 16 16 23.1634 16 32C16 40.8366 23.1634 48 32 48Z" stroke="white" stroke-width="2" stroke-linecap="round" stroke-linejoin="round"/>
<path d="M32.0013 37.3307C34.9468 37.3307 37.3346 34.9429 37.3346 31.9974C37.3346 29.0519 34.9468 26.6641 32.0013 26.6641C29.0558 26.6641 26.668 29.0519 26.668 31.9974C26.668 34.9429 29.0558 37.3307 32.0013 37.3307Z" stroke="white" stroke-width="2" stroke-linecap="round" stroke-linejoin="round"/>
</svg>
