<svg width="32" height="33" viewBox="0 0 32 33" fill="none" xmlns="http://www.w3.org/2000/svg">
<path d="M30.668 27.3203V19.3203H22.668" stroke="white" stroke-width="2" stroke-linecap="round" stroke-linejoin="round"/>
<path d="M1.33203 5.99219V13.9922H9.33203" stroke="white" stroke-width="2" stroke-linecap="round" stroke-linejoin="round"/>
<path d="M27.3187 12.6531C26.6425 10.7421 25.4932 9.03363 23.9781 7.68699C22.463 6.34034 20.6314 5.39945 18.6543 4.95211C16.6772 4.50476 14.619 4.56555 12.6718 5.12879C10.7245 5.69204 8.95169 6.73938 7.5187 8.1731L1.33203 13.9864M30.6654 19.3198L24.4787 25.1331C23.0457 26.5668 21.2729 27.6142 19.3256 28.1774C17.3784 28.7406 15.3202 28.8014 13.3431 28.3541C11.366 27.9067 9.53443 26.9658 8.01932 25.6192C6.50421 24.2726 5.35492 22.564 4.6787 20.6531" stroke="white" stroke-width="2" stroke-linecap="round" stroke-linejoin="round"/>
</svg>
