<svg width="23" height="24" viewBox="0 0 23 24" fill="none" xmlns="http://www.w3.org/2000/svg">
<path d="M1.04297 9.10931H21.8763M1.04297 9.10931V21.6951C1.04297 21.9986 1.15849 22.2896 1.36412 22.5042C1.56976 22.7187 1.84865 22.8393 2.13946 22.8393H20.7798C21.0706 22.8393 21.3495 22.7187 21.5551 22.5042C21.7608 22.2896 21.8763 21.9986 21.8763 21.6951V9.10931M1.04297 9.10931V3.96057C1.04297 3.65712 1.15849 3.3661 1.36412 3.15152C1.56976 2.93695 1.84865 2.81641 2.13946 2.81641H20.7798C21.0706 2.81641 21.3495 2.93695 21.5551 3.15152C21.7608 3.3661 21.8763 3.65712 21.8763 3.96057V9.10931" stroke="#7D55FA" stroke-width="1.81159" stroke-linejoin="round"/>
<path d="M7.07812 15.9716L10.3676 19.4041L16.9465 12.5391" stroke="#7D55FA" stroke-width="1.81159" stroke-linecap="round" stroke-linejoin="round"/>
<path d="M7.07812 1.09375V5.67041M15.8501 1.09375V5.67041" stroke="#7D55FA" stroke-width="1.81159" stroke-linecap="round"/>
</svg>
