<svg width="21" height="22" viewBox="0 0 21 22" fill="none" xmlns="http://www.w3.org/2000/svg">
<path d="M13.5318 0.796881C12.1949 0.797632 10.8839 1.16516 9.74148 1.85943C8.59905 2.55371 7.669 3.54811 7.05261 4.73438C5.71527 5.43113 4.62436 6.52205 3.92761 7.85939C2.91122 8.38792 2.03366 9.14849 1.36607 10.0795C0.698473 11.0104 0.259633 12.0856 0.0851106 13.2178C-0.0894116 14.3501 0.00529625 15.5075 0.361561 16.5963C0.717826 17.6851 1.32562 18.6746 2.13568 19.4846C2.94574 20.2947 3.93527 20.9025 5.02406 21.2588C6.11285 21.615 7.27027 21.7097 8.40249 21.5352C9.53472 21.3607 10.6099 20.9219 11.5409 20.2543C12.4718 19.5867 13.2324 18.7091 13.7609 17.6927C15.0983 16.996 16.1892 15.9051 16.8859 14.5677C18.339 13.8176 19.4978 12.6007 20.176 11.1127C20.8542 9.62463 21.0125 7.95181 20.6255 6.36296C20.2385 4.77411 19.3287 3.36146 18.0421 2.35199C16.7556 1.34252 15.1671 0.794815 13.5318 0.796881ZM7.28178 19.5469C6.31453 19.5469 5.36638 19.2775 4.54359 18.769C3.7208 18.2605 3.05587 17.5329 2.6233 16.6678C2.19073 15.8027 2.00762 14.8342 2.09449 13.8708C2.18135 12.9075 2.53476 11.9874 3.11511 11.2136C3.11511 13.1474 3.88333 15.0021 5.25079 16.3695C6.61824 17.737 8.47291 18.5052 10.4068 18.5052C9.50573 19.1823 8.40888 19.5479 7.28178 19.5469ZM10.4068 16.4219C9.43953 16.4219 8.49138 16.1525 7.66859 15.644C6.8458 15.1355 6.18087 14.4079 5.7483 13.5428C5.31573 12.6777 5.13262 11.7092 5.21949 10.7458C5.30635 9.78247 5.65976 8.86236 6.24011 8.08856C6.24231 10.0217 7.01125 11.8751 8.37822 13.2421C9.7452 14.6091 11.5986 15.378 13.5318 15.3802C12.6307 16.0573 11.5339 16.4229 10.4068 16.4219ZM15.3026 12.9844C14.3724 13.32 13.3658 13.3838 12.4007 13.1683C11.4355 12.9529 10.5517 12.4672 9.85239 11.7679C9.15313 11.0687 8.6674 10.1848 8.45198 9.21963C8.23657 8.25448 8.30037 7.24794 8.63594 6.31772C9.56617 5.98215 10.5727 5.91835 11.5379 6.13376C12.503 6.34918 13.3869 6.83491 14.0862 7.53417C14.7854 8.23343 15.2711 9.11731 15.4866 10.0825C15.702 11.0476 15.6382 12.0542 15.3026 12.9844ZM17.6984 11.2136C17.6962 9.28036 16.9273 7.42697 15.5603 6.06C14.1934 4.69302 12.34 3.92409 10.4068 3.92188C11.4098 3.16965 12.6504 2.80444 13.901 2.89332C15.1516 2.98219 16.3281 3.51919 17.2146 4.4057C18.1011 5.29222 18.6381 6.46877 18.727 7.71934C18.8159 8.96991 18.4507 10.2106 17.6984 11.2136Z" fill="#844FFF"/>
</svg>
