<svg width="24" height="24" viewBox="0 0 24 24" fill="none" xmlns="http://www.w3.org/2000/svg">
  <g id="Frame">
    <path id="Vector" d="M14.8571 4.61263C15.8422 4.61263 16.787 4.23202 17.4835 3.55452C18.1801 2.87702 18.5714 1.95813 18.5714 1H20.2857C20.2857 1.95813 20.677 2.87702 21.3736 3.55452C22.0702 4.23202 23.0149 4.61263 24 4.61263V6.28C23.0149 6.28 22.0702 6.66062 21.3736 7.33812C20.677 8.01562 20.2857 8.9345 20.2857 9.89263H18.5714C18.5714 8.9345 18.1801 8.01562 17.4835 7.33812C16.787 6.66062 15.8422 6.28 14.8571 6.28V4.61263ZM2.28571 6.55789C2.28571 5.96828 2.52653 5.40281 2.95518 4.98588C3.38384 4.56896 3.96522 4.33474 4.57143 4.33474H12.5714V2.11158H4.57143C3.35901 2.11158 2.19625 2.58003 1.33894 3.41387C0.481631 4.24772 0 5.37866 0 6.55789V17.6737C0 18.8529 0.481631 19.9839 1.33894 20.8177C2.19625 21.6515 3.35901 22.12 4.57143 22.12H18.2857C19.4981 22.12 20.6609 21.6515 21.5182 20.8177C22.3755 19.9839 22.8571 18.8529 22.8571 17.6737V12.1158H20.5714V17.6737C20.5714 18.2633 20.3306 18.8288 19.902 19.2457C19.4733 19.6626 18.8919 19.8968 18.2857 19.8968H4.57143C3.96522 19.8968 3.38384 19.6626 2.95518 19.2457C2.52653 18.8288 2.28571 18.2633 2.28571 17.6737V6.55789Z" fill="#fff" />
  </g>
</svg>
