<svg width="24" height="23" viewBox="0 0 24 23" fill="none" xmlns="http://www.w3.org/2000/svg">
  <path id="Vector" d="M2.30314 19.6757C1.67004 19.6757 1.12788 19.4361 0.676662 18.957C0.225439 18.4779 0.000211131 17.9026 0.000978517 17.2312V2.56456C0.000978517 1.89234 0.22659 1.31667 0.677813 0.837563C1.12904 0.358452 1.67081 0.119304 2.30314 0.120119H9.20961L11.5118 2.56456H20.7204C21.3535 2.56456 21.8957 2.80412 22.3469 3.28323C22.7981 3.76234 23.0233 4.3376 23.0226 5.00901V8.98123C22.6772 8.71641 22.3127 8.49234 21.929 8.30901C21.5453 8.12567 21.1425 7.96271 20.7204 7.82012V5.00901H2.30314V17.2312H10.447C10.5046 17.659 10.5909 18.0766 10.706 18.484C10.8211 18.8914 10.965 19.2886 11.1377 19.6757H2.30314ZM17.2672 22.1201L16.9218 20.2868C16.6916 20.1849 16.4756 20.0778 16.2738 19.9653C16.072 19.8529 15.8659 19.7156 15.6557 19.5534L13.9866 20.1035L12.8355 18.0257L14.1593 16.8034C14.1209 16.559 14.1017 16.2942 14.1017 16.009C14.1017 15.7238 14.1209 15.459 14.1593 15.2146L12.8355 13.9923L13.9866 11.9146L15.6557 12.4646C15.8667 12.3016 16.0731 12.1643 16.2749 12.0527C16.4768 11.941 16.6924 11.8339 16.9218 11.7312L17.2672 9.8979H19.5693L19.9146 11.7312C20.1449 11.8331 20.3609 11.9402 20.5627 12.0527C20.7645 12.1651 20.9706 12.3024 21.1808 12.4646L22.8499 11.9146L24.001 13.9923L22.6772 15.2146C22.7156 15.459 22.7348 15.7238 22.7348 16.009C22.7348 16.2942 22.7156 16.559 22.6772 16.8034L24.001 18.0257L22.8499 20.1035L21.1808 19.5534C20.9698 19.7164 20.7638 19.8541 20.5627 19.9666C20.3617 20.079 20.1456 20.1857 19.9146 20.2868L19.5693 22.1201H17.2672ZM18.4182 18.4535C19.0513 18.4535 19.5935 18.2139 20.0447 17.7348C20.4959 17.2557 20.7212 16.6804 20.7204 16.009C20.7204 15.3368 20.4948 14.7611 20.0436 14.282C19.5923 13.8029 19.0506 13.5637 18.4182 13.5646C17.7852 13.5646 17.243 13.8041 16.7918 14.2832C16.3405 14.7623 16.1153 15.3376 16.1161 16.009C16.1161 16.6812 16.3417 17.2569 16.7929 17.736C17.2441 18.2151 17.7859 18.4543 18.4182 18.4535Z" fill="#fff" />
</svg>
