<svg width="22" height="23" viewBox="0 0 22 23" fill="none" xmlns="http://www.w3.org/2000/svg">
  <g id="Group">
    <path id="Vector" d="M1.00098 8.80889H21.001M1.00098 8.80889V20.8913C1.00098 21.1826 1.11188 21.462 1.30929 21.668C1.50669 21.8739 1.77443 21.9897 2.05361 21.9897H19.9483C20.2275 21.9897 20.4953 21.8739 20.6927 21.668C20.8901 21.462 21.001 21.1826 21.001 20.8913V8.80889M1.00098 8.80889V3.8661C1.00098 3.57478 1.11188 3.2954 1.30929 3.08941C1.50669 2.88342 1.77443 2.7677 2.05361 2.7677H19.9483C20.2275 2.7677 20.4953 2.88342 20.6927 3.08941C20.8901 3.2954 21.001 3.57478 21.001 3.8661V8.80889" stroke="#fff" stroke-width="1.73913" stroke-linejoin="round" />
    <path id="Vector_2" d="M6.79248 15.3993L9.95037 18.6945L16.2662 12.1041" stroke="#fff" stroke-width="1.73913" stroke-linecap="round" stroke-linejoin="round" />
    <path id="Vector_3" d="M6.79248 1.12012V5.51371M15.2135 1.12012V5.51371" stroke="#fff" stroke-width="1.73913" stroke-linecap="round" />
  </g>
</svg>
