<svg width="24" height="24" viewBox="0 0 24 24" fill="none" xmlns="http://www.w3.org/2000/svg">
  <g id="foundation:social-joomla">
    <path id="&#232;&#183;&#175;&#229;&#190;&#132; 1033" d="M14.6946 1.73731C13.4112 1.73803 12.1527 2.09086 11.0559 2.75736C9.95919 3.42386 9.06634 4.37849 8.4746 5.51731C7.19076 6.18619 6.14348 7.23347 5.4746 8.51732C4.49887 9.0247 3.65641 9.75485 3.01552 10.6486C2.37464 11.5423 1.95335 12.5745 1.78581 13.6614C1.61827 14.7484 1.70919 15.8595 2.0512 16.9047C2.39321 17.95 2.9767 18.8999 3.75436 19.6776C4.53201 20.4552 5.48196 21.0387 6.5272 21.3807C7.57244 21.7227 8.68356 21.8137 9.77049 21.6461C10.8574 21.4786 11.8896 21.0573 12.7833 20.4164C13.6771 19.7755 14.4072 18.9331 14.9146 17.9573C16.1985 17.2884 17.2457 16.2412 17.9146 14.9573C19.3096 14.2372 20.4219 13.069 21.073 11.6405C21.7241 10.2119 21.8761 8.60604 21.5046 7.08075C21.1331 5.55545 20.2596 4.19931 19.0246 3.23021C17.7895 2.26112 16.2645 1.73533 14.6946 1.73731ZM8.69461 19.7373C7.76605 19.7373 6.85583 19.4787 6.06595 18.9906C5.27607 18.5024 4.63773 17.8039 4.22247 16.9734C3.8072 16.1429 3.63142 15.2131 3.71481 14.2883C3.7982 13.3635 4.13747 12.4802 4.69461 11.7373C4.69461 13.5938 5.4321 15.3743 6.74486 16.6871C8.05761 17.9998 9.83809 18.7373 11.6946 18.7373C10.8296 19.3873 9.77662 19.7383 8.69461 19.7373ZM11.6946 16.7373C10.766 16.7373 9.85583 16.4787 9.06595 15.9906C8.27607 15.5024 7.63773 14.8039 7.22247 13.9734C6.8072 13.1429 6.63142 12.2131 6.71481 11.2883C6.7982 10.3635 7.13747 9.48017 7.69461 8.73732C7.69672 10.5932 8.4349 12.3724 9.7472 13.6847C11.0595 14.997 12.8387 15.7352 14.6946 15.7373C13.8296 16.3873 12.7766 16.7383 11.6946 16.7373ZM16.3946 13.4373C15.5016 13.7595 14.5353 13.8207 13.6088 13.6139C12.6822 13.4071 11.8337 12.9408 11.1624 12.2695C10.4911 11.5982 10.0248 10.7497 9.818 9.82315C9.6112 8.8966 9.67246 7.93033 9.99461 7.03731C10.8876 6.71517 11.8539 6.65392 12.7804 6.86072C13.707 7.06752 14.5555 7.53382 15.2268 8.20511C15.8981 8.8764 16.3644 9.72492 16.5712 10.6515C16.778 11.578 16.7167 12.5443 16.3946 13.4373ZM18.6946 11.7373C18.6925 9.88145 17.9543 8.1022 16.642 6.7899C15.3297 5.4776 13.5505 4.73943 11.6946 4.73731C12.6575 4.01516 13.8485 3.66457 15.0491 3.74989C16.2496 3.83521 17.3791 4.35072 18.2301 5.20178C19.0812 6.05284 19.5967 7.18232 19.682 8.38287C19.7673 9.58342 19.4168 10.7745 18.6946 11.7373Z" fill="#fff" />
  </g>
</svg>
