<svg width="131" height="28" viewBox="0 0 131 28" fill="none" xmlns="http://www.w3.org/2000/svg">
<g id="Group 32">
<path id="Vector" fill-rule="evenodd" clip-rule="evenodd" d="M131 4.77734H127.876V14.6091L124.292 4.77734H120.69L116.593 15.9695H119.877L120.482 14.1438H124.467L125.073 15.9695H131V4.77734ZM121.279 11.7625L122.475 8.14293L123.686 11.7625H121.279Z" fill="url(#paint0_linear_99_2926)"/>
<g id="Vector_2">
<path d="M13.4726 17.1137H6.16446L4.99294 20.5586H0L7.08495 1.05571H12.6079L19.6928 20.5586H14.6441L13.4726 17.1137ZM12.2452 13.4465L9.81851 6.3065L7.41967 13.4465H12.2452Z" fill="white"/>
<path d="M16.8562 12.7797C16.8562 11.1869 17.1537 9.7885 17.7488 8.58462C18.3624 7.38074 19.1899 6.45467 20.2313 5.80643C21.2726 5.15818 22.4349 4.83406 23.718 4.83406C24.7407 4.83406 25.6705 5.04705 26.5073 5.47304C27.3627 5.89903 28.0322 6.47319 28.5157 7.19552V0H33.2855V20.5586H28.5157V18.3361C28.0694 19.0769 27.4278 19.6696 26.591 20.1141C25.7728 20.5586 24.8151 20.7809 23.718 20.7809C22.4349 20.7809 21.2726 20.4568 20.2313 19.8085C19.1899 19.1418 18.3624 18.2064 17.7488 17.0025C17.1537 15.7801 16.8562 14.3725 16.8562 12.7797ZM28.5157 12.8075C28.5157 11.6221 28.1809 10.6868 27.5115 10.0015C26.8606 9.31621 26.061 8.97357 25.1127 8.97357C24.1643 8.97357 23.3554 9.31621 22.6859 10.0015C22.0351 10.6683 21.7096 11.5943 21.7096 12.7797C21.7096 13.9651 22.0351 14.9096 22.6859 15.6135C23.3554 16.2987 24.1643 16.6414 25.1127 16.6414C26.061 16.6414 26.8606 16.2987 27.5115 15.6135C28.1809 14.9282 28.5157 13.9928 28.5157 12.8075Z" fill="white"/>
<path d="M39.0234 20.7809C37.666 20.7809 36.4572 20.5494 35.3973 20.0863C34.3373 19.6233 33.5005 18.9936 32.8869 18.1972C32.2732 17.3822 31.9292 16.4747 31.8548 15.4745H36.5688C36.6246 16.0117 36.8756 16.4469 37.3219 16.7803C37.7682 17.1137 38.3168 17.2804 38.9677 17.2804C39.5627 17.2804 40.0183 17.1692 40.3344 16.947C40.6692 16.7062 40.8365 16.4006 40.8365 16.0302C40.8365 15.5857 40.6041 15.2615 40.1392 15.0578C39.6743 14.8356 38.9212 14.5948 37.8798 14.3355C36.7641 14.0762 35.8343 13.8076 35.0905 13.5298C34.3466 13.2335 33.7051 12.7797 33.1658 12.1685C32.6265 11.5388 32.3569 10.696 32.3569 9.64033C32.3569 8.75131 32.5986 7.94564 33.0821 7.22331C33.5842 6.48245 34.3094 5.89903 35.2578 5.47304C36.2248 5.04705 37.3684 4.83406 38.6887 4.83406C40.6413 4.83406 42.1754 5.31561 43.2912 6.27872C44.4255 7.24183 45.0763 8.5198 45.2437 10.1126H40.8365C40.7621 9.57551 40.5204 9.14952 40.1113 8.83466C39.7208 8.5198 39.2001 8.36237 38.5493 8.36237C37.9914 8.36237 37.5637 8.47349 37.2662 8.69575C36.9686 8.89948 36.8199 9.18656 36.8199 9.55699C36.8199 10.0015 37.0523 10.3349 37.5172 10.5571C38.0007 10.7794 38.7445 11.0017 39.7487 11.2239C40.9016 11.5202 41.8407 11.8166 42.5659 12.1129C43.2912 12.3907 43.9234 12.8538 44.4627 13.502C45.0206 14.1318 45.3088 14.9837 45.3274 16.058C45.3274 16.9655 45.067 17.7804 44.5464 18.5028C44.0443 19.2066 43.3098 19.7622 42.3428 20.1697C41.3944 20.5772 40.288 20.7809 39.0234 20.7809Z" fill="white"/>
<path d="M57.1993 7.22331C56.846 6.57506 56.3346 6.08425 55.6652 5.75086C55.0143 5.39896 54.2426 5.22301 53.35 5.22301C51.8066 5.22301 50.57 5.73234 49.6402 6.75101C48.7104 7.75116 48.2455 9.09396 48.2455 10.7794C48.2455 12.576 48.729 13.9836 49.696 15.0023C50.6816 16.0024 52.0297 16.5025 53.7405 16.5025C54.9121 16.5025 55.8976 16.2061 56.6973 15.6135C57.5155 15.0208 58.1105 14.1688 58.4824 13.0575H52.4295V9.55699H62.8059V13.9743C62.4526 15.1597 61.8483 16.2617 60.9929 17.2804C60.156 18.299 59.0868 19.1232 57.7851 19.753C56.4834 20.3827 55.0143 20.6975 53.3779 20.6975C51.444 20.6975 49.7146 20.2808 48.1897 19.4474C46.6835 18.5954 45.5027 17.4193 44.6473 15.9191C43.8105 14.4188 43.3921 12.7056 43.3921 10.7794C43.3921 8.85318 43.8105 7.13996 44.6473 5.63974C45.5027 4.12099 46.6835 2.94489 48.1897 2.11143C49.696 1.25945 51.4161 0.833458 53.35 0.833458C55.6931 0.833458 57.6642 1.39836 59.2635 2.52816C60.8813 3.65796 61.9505 5.22301 62.4712 7.22331H57.1993Z" fill="white"/>
<path d="M76.0754 12.5574C76.0754 13.0019 76.0475 13.465 75.9917 13.9465H65.1969C65.2713 14.9096 65.5781 15.6505 66.1174 16.1691C66.6753 16.6692 67.354 16.9192 68.1536 16.9192C69.3438 16.9192 70.1713 16.4191 70.6362 15.419H75.7128C75.4524 16.4376 74.9782 17.3545 74.2902 18.1694C73.6208 18.9843 72.7747 19.6233 71.7519 20.0863C70.7291 20.5494 69.5855 20.7809 68.321 20.7809C66.7962 20.7809 65.4387 20.4568 64.2485 19.8085C63.0584 19.1603 62.1286 18.2342 61.4592 17.0303C60.7897 15.8264 60.455 14.4188 60.455 12.8075C60.455 11.1961 60.7805 9.7885 61.4313 8.58462C62.1007 7.38074 63.0305 6.45467 64.2207 5.80643C65.4108 5.15818 66.7776 4.83406 68.321 4.83406C69.8272 4.83406 71.1661 5.14892 72.3377 5.77864C73.5092 6.40837 74.4204 7.30665 75.0712 8.47349C75.7407 9.64033 76.0754 11.0016 76.0754 12.5574ZM71.194 11.3073C71.194 10.4923 70.9151 9.84407 70.3572 9.36251C69.7994 8.88096 69.102 8.64019 68.2652 8.64019C67.4656 8.64019 66.7869 8.8717 66.229 9.33473C65.6897 9.79777 65.355 10.4553 65.2248 11.3073H71.194Z" fill="white"/>
<path d="M84.0309 4.88962C85.8533 4.88962 87.3038 5.4823 88.3823 6.66767C89.4795 7.83451 90.028 9.44586 90.028 11.5017V20.5586H85.2861V12.1407C85.2861 11.1035 85.0165 10.2978 84.4772 9.72368C83.9379 9.14952 83.2127 8.86244 82.3015 8.86244C81.3903 8.86244 80.6651 9.14952 80.1258 9.72368C79.5866 10.2978 79.3169 11.1035 79.3169 12.1407V20.5586H74.5471V5.05631H79.3169V7.11218C79.8004 6.42689 80.4513 5.88977 81.2695 5.50082C82.0877 5.09336 83.0082 4.88962 84.0309 4.88962Z" fill="white"/>
<path d="M88.3496 12.8075C88.3496 11.1961 88.675 9.7885 89.3259 8.58462C89.9953 7.38074 90.9158 6.45467 92.0873 5.80643C93.2775 5.15818 94.635 4.83406 96.1598 4.83406C98.1123 4.83406 99.7395 5.34339 101.041 6.36207C102.361 7.38074 103.226 8.81614 103.635 10.6683H98.5586C98.1309 9.4829 97.3034 8.89022 96.0761 8.89022C95.2021 8.89022 94.5048 9.23287 93.9841 9.91815C93.4634 10.5849 93.2031 11.548 93.2031 12.8075C93.2031 14.0669 93.4634 15.0393 93.9841 15.7246C94.5048 16.3913 95.2021 16.7247 96.0761 16.7247C97.3034 16.7247 98.1309 16.132 98.5586 14.9467H103.635C103.226 16.7618 102.361 18.1879 101.041 19.2251C99.7209 20.2623 98.0937 20.7809 96.1598 20.7809C94.635 20.7809 93.2775 20.4568 92.0873 19.8085C90.9158 19.1603 89.9953 18.2342 89.3259 17.0303C88.675 15.8264 88.3496 14.4188 88.3496 12.8075Z" fill="white"/>
<path d="M118.041 5.05631L108.279 27.9209H103.146L106.717 20.0308L100.385 5.05631H105.712L109.311 14.7522L112.881 5.05631H118.041Z" fill="white"/>
</g>
</g>
<defs>
<linearGradient id="paint0_linear_99_2926" x1="125.009" y1="-1.44722" x2="125.009" y2="16.4672" gradientUnits="userSpaceOnUse">
<stop stop-color="#EB00FF"/>
<stop offset="1" stop-color="#4663FF"/>
</linearGradient>
</defs>
</svg>
