<svg width="243" height="60" viewBox="0 0 243 60" fill="none" xmlns="http://www.w3.org/2000/svg">
  <path d="M192.87 38.0555L236.685 23.5776L226.221 -8.08933H192.87V38.0555ZM186.717 38.0555V-8.08933H153.367L142.903 23.5776L186.717 38.0555ZM185.782 40.8857V87.0306H219.133L229.597 55.3637L185.782 40.8857ZM180.713 40.8857L137.358 25.0815L114.776 87.0306H180.713V40.8857ZM187.037 23.5353V-22.6096H154.744L143.683 7.73104L187.037 23.5353ZM192.599 23.5353L235.973 7.78535L224.936 -22.6096H192.599V23.5353ZM198.9 40.8857V87.0306H264.749L242.274 25.1358L198.9 40.8857ZM193.805 40.8857L149.991 55.3637L160.454 87.0306H193.805V40.8857ZM191.664 34.3639V80.5088H255.687L235.441 19.7717L191.664 34.3639ZM189.794 28.7527L233.571 14.1604L189.504 -118.04L145.96 14.3336L189.794 28.7527ZM187.948 34.3639L144.114 19.9448L124.191 80.5088H187.948V34.3639ZM192.87 -8.08933H186.717V84.2004H192.87V-8.08933ZM142.903 23.5776L141.967 26.4078L229.597 55.3637L230.532 52.5335L142.903 23.5776ZM185.782 -5.25911H180.713V87.0306H185.782V-5.25911ZM224.067 56.69L230.391 39.3395L143.683 7.73104L137.358 25.0815L224.067 56.69ZM187.037 69.6801H192.599V-22.6096H187.037V69.6801ZM149.226 39.2852L155.526 56.6357L242.274 25.1358L235.973 7.78535L149.226 39.2852ZM198.9 -5.25911H193.805V87.0306H198.9V-5.25911ZM237.62 26.4078L236.685 23.5776L149.055 52.5335L149.991 55.3637L237.62 26.4078ZM235.441 19.7717L233.571 14.1604L146.017 43.345L147.887 48.9562L235.441 19.7717ZM145.96 14.3336L144.114 19.9448L231.782 48.7831L233.628 43.1719L145.96 14.3336ZM187.948 80.5088H191.664V-11.7809H187.948V80.5088ZM202.958 23.5353H249.102V-22.6096H202.958V23.5353ZM202.958 40.8857V87.0306H249.102V40.8857H202.958ZM198.134 40.8857H151.989V87.0306H198.134V40.8857ZM198.134 23.5353V-22.6096H151.989V23.5353H198.134ZM156.813 23.5353V40.8857H249.102V23.5353H156.813ZM202.958 -5.25911H198.134V87.0306H202.958V-5.25911ZM244.279 40.8857V23.5353H151.989V40.8857H244.279ZM198.134 69.6801H202.958V-22.6096H198.134V69.6801Z" fill="url(#paint0_linear_519_1197)" />
  <path d="M21.4912 42.6595H10.2072L8.39836 48H0.689096L11.6285 17.7659H20.1561L31.0955 48H23.3001L21.4912 42.6595ZM19.5962 36.9745L15.8492 25.9058L12.1453 36.9745H19.5962ZM26.7156 35.9408C26.7156 33.4716 27.175 31.3038 28.0938 29.4375C29.0413 27.5712 30.319 26.1355 31.9269 25.1306C33.5348 24.1257 35.3293 23.6232 37.3105 23.6232C38.8896 23.6232 40.3253 23.9534 41.6173 24.6138C42.9381 25.2742 43.9717 26.1643 44.7182 27.284V16.1293H52.083V48H44.7182V44.5545C44.0292 45.703 43.0386 46.6218 41.7465 47.3109C40.4832 48 39.0045 48.3445 37.3105 48.3445C35.3293 48.3445 33.5348 47.8421 31.9269 46.8371C30.319 45.8035 29.0413 44.3535 28.0938 42.4872C27.175 40.5922 26.7156 38.4101 26.7156 35.9408ZM44.7182 35.9839C44.7182 34.1463 44.2014 32.6963 43.1678 31.634C42.1629 30.5716 40.9282 30.0404 39.4639 30.0404C37.9996 30.0404 36.7506 30.5716 35.7169 31.634C34.712 32.6676 34.2095 34.1032 34.2095 35.9408C34.2095 37.7784 34.712 39.2427 35.7169 40.3338C36.7506 41.3962 37.9996 41.9273 39.4639 41.9273C40.9282 41.9273 42.1629 41.3962 43.1678 40.3338C44.2014 39.2714 44.7182 37.8215 44.7182 35.9839ZM60.9426 48.3445C58.8466 48.3445 56.9803 47.9856 55.3437 47.2678C53.7071 46.55 52.4151 45.5738 51.4676 44.3392C50.52 43.0758 49.9889 41.6689 49.874 40.1185H57.1526C57.2387 40.9511 57.6264 41.6259 58.3155 42.1427C59.0045 42.6595 59.8516 42.9179 60.8565 42.9179C61.7753 42.9179 62.4787 42.7456 62.9669 42.4011C63.4837 42.0278 63.7421 41.5541 63.7421 40.9798C63.7421 40.2907 63.3832 39.7883 62.6654 39.4724C61.9476 39.1279 60.7847 38.7546 59.1768 38.3527C57.4541 37.9507 56.0185 37.5343 54.87 37.1037C53.7215 36.6443 52.7309 35.9408 51.8982 34.9933C51.0656 34.0171 50.6493 32.7107 50.6493 31.0741C50.6493 29.6959 51.0225 28.4469 51.769 27.3271C52.5443 26.1786 53.664 25.2742 55.1284 24.6138C56.6214 23.9534 58.3872 23.6232 60.4258 23.6232C63.4406 23.6232 65.8094 24.3697 67.5321 25.8628C69.2836 27.3558 70.2885 29.337 70.5469 31.8062H63.7421C63.6272 30.9736 63.254 30.3132 62.6223 29.8251C62.0193 29.337 61.2154 29.0929 60.2105 29.0929C59.3491 29.0929 58.6887 29.2652 58.2293 29.6097C57.7699 29.9256 57.5402 30.3706 57.5402 30.9449C57.5402 31.634 57.8991 32.1508 58.6169 32.4953C59.3635 32.8399 60.5119 33.1844 62.0624 33.529C63.8426 33.9884 65.2926 34.4478 66.4123 34.9072C67.5321 35.3379 68.5083 36.0557 69.341 37.0606C70.2024 38.0368 70.6474 39.3576 70.6761 41.0229C70.6761 42.4298 70.2741 43.6931 69.4702 44.8129C68.695 45.904 67.5608 46.7654 66.0678 47.397C64.6035 48.0287 62.8951 48.3445 60.9426 48.3445ZM89.0068 27.3271C88.4613 26.3222 87.6717 25.5613 86.6381 25.0445C85.6331 24.4989 84.4416 24.2262 83.0634 24.2262C80.6802 24.2262 78.7709 25.0158 77.3353 26.5949C75.8996 28.1454 75.1818 30.2271 75.1818 32.8399C75.1818 35.625 75.9283 37.8071 77.4214 39.3863C78.9431 40.9368 81.0248 41.712 83.6663 41.712C85.4752 41.712 86.997 41.2526 88.2316 40.3338C89.4949 39.415 90.4137 38.0942 90.988 36.3715H81.6421V30.9449H97.6636V37.7928C97.1181 39.6303 96.1849 41.3387 94.8641 42.9179C93.5721 44.4971 91.9211 45.7748 89.9113 46.751C87.9014 47.7272 85.6331 48.2153 83.1064 48.2153C80.1203 48.2153 77.4501 47.5693 75.0957 46.2773C72.77 44.9565 70.9468 43.1333 69.626 40.8076C68.3339 38.4819 67.6879 35.826 67.6879 32.8399C67.6879 29.8538 68.3339 27.1979 69.626 24.8722C70.9468 22.5178 72.77 20.6946 75.0957 19.4025C77.4214 18.0817 80.0773 17.4213 83.0634 17.4213C86.6811 17.4213 89.7246 18.2971 92.1939 20.0485C94.6919 21.8 96.3428 24.2262 97.1468 27.3271H89.0068ZM118.152 35.5963C118.152 36.2854 118.109 37.0032 118.023 37.7497H101.355C101.47 39.2427 101.944 40.3912 102.777 41.1952C103.638 41.9704 104.686 42.358 105.921 42.358C107.758 42.358 109.036 41.5828 109.754 40.0323H117.592C117.19 41.6115 116.458 43.0328 115.396 44.2961C114.362 45.5595 113.056 46.55 111.476 47.2678C109.897 47.9856 108.131 48.3445 106.179 48.3445C103.825 48.3445 101.729 47.8421 99.891 46.8371C98.0535 45.8322 96.6178 44.3966 95.5842 42.5303C94.5505 40.664 94.0337 38.4819 94.0337 35.9839C94.0337 33.4859 94.5362 31.3038 95.5411 29.4375C96.5748 27.5712 98.0104 26.1355 99.848 25.1306C101.686 24.1257 103.796 23.6232 106.179 23.6232C108.505 23.6232 110.572 24.1113 112.381 25.0875C114.19 26.0638 115.597 27.4563 116.602 29.2652C117.635 31.0741 118.152 33.1844 118.152 35.5963ZM110.615 33.6582C110.615 32.3948 110.184 31.3899 109.323 30.6434C108.462 29.8969 107.385 29.5236 106.093 29.5236C104.858 29.5236 103.81 29.8825 102.949 30.6003C102.116 31.3181 101.599 32.3374 101.398 33.6582H110.615ZM130.436 23.7094C133.25 23.7094 135.489 24.6281 137.154 26.4657C138.848 28.2746 139.695 30.7726 139.695 33.9597V48H132.374V34.9502C132.374 33.3423 131.957 32.0934 131.125 31.2033C130.292 30.3132 129.172 29.8682 127.765 29.8682C126.359 29.8682 125.239 30.3132 124.406 31.2033C123.573 32.0934 123.157 33.3423 123.157 34.9502V48H115.792V23.9678H123.157V27.1548C123.904 26.0925 124.909 25.2598 126.172 24.6569C127.435 24.0252 128.857 23.7094 130.436 23.7094ZM137.104 35.9839C137.104 33.4859 137.606 31.3038 138.611 29.4375C139.645 27.5712 141.066 26.1355 142.875 25.1306C144.713 24.1257 146.809 23.6232 149.163 23.6232C152.178 23.6232 154.69 24.4128 156.7 25.992C158.739 27.5712 160.074 29.7964 160.705 32.6676H152.867C152.207 30.83 150.929 29.9112 149.034 29.9112C147.684 29.9112 146.608 30.4424 145.804 31.5048C145 32.5384 144.598 34.0314 144.598 35.9839C144.598 37.9363 145 39.4437 145.804 40.5061C146.608 41.5397 147.684 42.0565 149.034 42.0565C150.929 42.0565 152.207 41.1377 152.867 39.3002H160.705C160.074 42.114 158.739 44.3248 156.7 45.9327C154.662 47.5406 152.149 48.3445 149.163 48.3445C146.809 48.3445 144.713 47.8421 142.875 46.8371C141.066 45.8322 139.645 44.3966 138.611 42.5303C137.606 40.664 137.104 38.4819 137.104 35.9839ZM182.949 23.9678L167.875 59.4132H159.95L165.463 47.1817L155.687 23.9678H163.913L169.469 38.9987L174.981 23.9678H182.949Z" fill="#282828" />
  <defs>
    <linearGradient id="paint0_linear_519_1197" x1="193.707" y1="13.8857" x2="193.707" y2="41.6573" gradientUnits="userSpaceOnUse">
      <stop stop-color="#EB00FF" />
      <stop offset="1" stop-color="#4663FF" />
    </linearGradient>
  </defs>
</svg>
