<svg width="2174" height="878" viewBox="0 0 2174 878" fill="none" xmlns="http://www.w3.org/2000/svg">
<path fill-rule="evenodd" clip-rule="evenodd" d="M1762.25 344.278H1730.03V445.691L1693.05 344.278H1655.9L1613.64 459.723H1647.51L1653.76 440.892H1694.86L1701.11 459.723H1762.25V344.278ZM1661.98 416.329L1674.31 378.993L1686.8 416.329H1661.98Z" fill="url(#paint0_linear_185_3543)"/>
<path d="M549.968 471.525H474.586L462.501 507.06H411L484.08 305.89H541.048L614.129 507.06H562.052L549.968 471.525ZM537.308 433.699L512.277 360.051L487.533 433.699H537.308Z" fill="#202124"/>
<path d="M584.869 426.821C584.869 410.391 587.938 395.967 594.076 383.549C600.406 371.131 608.942 361.579 619.683 354.893C630.425 348.206 642.413 344.863 655.648 344.863C666.198 344.863 675.788 347.06 684.42 351.454C693.243 355.848 700.148 361.77 705.135 369.221V295H754.335V507.06H705.135V484.134C700.532 491.776 693.914 497.89 685.283 502.475C676.843 507.06 666.965 509.352 655.648 509.352C642.413 509.352 630.425 506.009 619.683 499.322C608.942 492.445 600.406 482.797 594.076 470.379C587.938 457.77 584.869 443.251 584.869 426.821ZM705.135 427.107C705.135 414.881 701.683 405.233 694.777 398.164C688.064 391.096 679.816 387.561 670.034 387.561C660.251 387.561 651.908 391.096 645.002 398.164C638.289 405.042 634.932 414.594 634.932 426.821C634.932 439.048 638.289 448.791 645.002 456.051C651.908 463.119 660.251 466.654 670.034 466.654C679.816 466.654 688.064 463.119 694.777 456.051C701.683 448.982 705.135 439.334 705.135 427.107Z" fill="#202124"/>
<path d="M813.522 509.352C799.52 509.352 787.052 506.964 776.118 502.188C765.185 497.412 756.554 490.916 750.224 482.702C743.894 474.296 740.346 464.934 739.578 454.618H788.203C788.778 460.158 791.368 464.648 795.971 468.087C800.575 471.525 806.233 473.245 812.946 473.245C819.084 473.245 823.784 472.099 827.045 469.806C830.497 467.322 832.223 464.17 832.223 460.349C832.223 455.764 829.826 452.421 825.031 450.319C820.235 448.027 812.467 445.543 801.725 442.869C790.217 440.194 780.626 437.424 772.954 434.558C765.281 431.502 758.664 426.821 753.101 420.516C747.538 414.021 744.757 405.328 744.757 394.439C744.757 385.269 747.251 376.958 752.238 369.507C757.417 361.866 764.897 355.848 774.68 351.454C784.654 347.06 796.451 344.863 810.069 344.863C830.209 344.863 846.034 349.83 857.543 359.764C869.243 369.699 875.957 382.881 877.683 399.31H832.223C831.456 393.77 828.963 389.376 824.743 386.128C820.715 382.881 815.344 381.257 808.631 381.257C802.876 381.257 798.465 382.403 795.396 384.696C792.327 386.797 790.792 389.758 790.792 393.579C790.792 398.164 793.19 401.603 797.985 403.896C802.972 406.188 810.645 408.481 821.002 410.773C832.895 413.83 842.581 416.887 850.062 419.943C857.543 422.809 864.064 427.585 869.627 434.272C875.381 440.767 878.354 449.555 878.546 460.636C878.546 469.997 875.861 478.403 870.49 485.854C865.311 493.113 857.734 498.845 847.76 503.048C837.978 507.251 826.565 509.352 813.522 509.352Z" fill="#202124"/>
<path d="M1001 369.507C997.359 362.821 992.084 357.758 985.179 354.319C978.466 350.69 970.506 348.875 961.299 348.875C945.378 348.875 932.623 354.128 923.032 364.636C913.442 374.952 908.646 388.803 908.646 406.188C908.646 424.719 913.633 439.239 923.608 449.746C933.774 460.063 947.68 465.221 965.327 465.221C977.411 465.221 987.577 462.164 995.825 456.051C1004.26 449.937 1010.4 441.149 1014.24 429.687H951.804V393.579H1058.84V439.143C1055.19 451.37 1048.96 462.737 1040.13 473.245C1031.5 483.752 1020.47 492.254 1007.05 498.749C993.619 505.245 978.466 508.493 961.586 508.493C941.638 508.493 923.799 504.194 908.071 495.597C892.534 486.809 880.354 474.678 871.531 459.203C862.899 443.728 858.583 426.057 858.583 406.188C858.583 386.319 862.899 368.648 871.531 353.173C880.354 337.507 892.534 325.376 908.071 316.779C923.608 307.991 941.35 303.597 961.299 303.597C985.467 303.597 1005.8 309.424 1022.29 321.078C1038.98 332.731 1050.01 348.875 1055.38 369.507H1001Z" fill="#202124"/>
<path d="M1195.71 424.528C1195.71 429.113 1195.42 433.89 1194.84 438.857H1083.5C1084.27 448.791 1087.43 456.433 1092.99 461.782C1098.75 466.94 1105.75 469.519 1114 469.519C1126.27 469.519 1134.81 464.361 1139.6 454.045H1191.97C1189.28 464.552 1184.39 474.009 1177.29 482.415C1170.39 490.821 1161.66 497.412 1151.11 502.188C1140.56 506.964 1128.77 509.352 1115.72 509.352C1099.99 509.352 1085.99 506.009 1073.72 499.322C1061.44 492.636 1051.85 483.084 1044.94 470.666C1038.04 458.248 1034.59 443.728 1034.59 427.107C1034.59 410.487 1037.94 395.967 1044.66 383.549C1051.56 371.131 1061.15 361.579 1073.43 354.893C1085.7 348.206 1099.8 344.863 1115.72 344.863C1131.26 344.863 1145.07 348.11 1157.15 354.606C1169.24 361.101 1178.64 370.367 1185.35 382.403C1192.26 394.439 1195.71 408.481 1195.71 424.528ZM1145.36 411.633C1145.36 403.227 1142.48 396.54 1136.73 391.573C1130.97 386.606 1123.78 384.122 1115.15 384.122C1106.9 384.122 1099.9 386.51 1094.14 391.287C1088.58 396.063 1085.13 402.845 1083.79 411.633H1145.36Z" fill="#202124"/>
<path d="M1277.77 345.436C1296.57 345.436 1311.53 351.549 1322.65 363.776C1333.97 375.812 1339.63 392.433 1339.63 413.639V507.06H1290.72V420.23C1290.72 409.531 1287.93 401.221 1282.37 395.299C1276.81 389.376 1269.33 386.415 1259.93 386.415C1250.53 386.415 1243.05 389.376 1237.49 395.299C1231.93 401.221 1229.14 409.531 1229.14 420.23V507.06H1179.94V347.155H1229.14V368.361C1234.13 361.293 1240.84 355.752 1249.28 351.74C1257.72 347.537 1267.22 345.436 1277.77 345.436Z" fill="#202124"/>
<path d="M1322.31 427.107C1322.31 410.487 1325.67 395.967 1332.38 383.549C1339.29 371.131 1348.78 361.579 1360.87 354.893C1373.14 348.206 1387.15 344.863 1402.88 344.863C1423.02 344.863 1439.8 350.116 1453.23 360.624C1466.85 371.131 1475.76 385.937 1479.98 405.042H1427.62C1423.21 392.815 1414.67 386.701 1402.01 386.701C1393 386.701 1385.8 390.236 1380.43 397.304C1375.06 404.182 1372.38 414.116 1372.38 427.107C1372.38 440.099 1375.06 450.128 1380.43 457.197C1385.8 464.075 1393 467.513 1402.01 467.513C1414.67 467.513 1423.21 461.4 1427.62 449.173H1479.98C1475.76 467.896 1466.85 482.606 1453.23 493.304C1439.61 504.003 1422.82 509.352 1402.88 509.352C1387.15 509.352 1373.14 506.009 1360.87 499.322C1348.78 492.636 1339.29 483.084 1332.38 470.666C1325.67 458.248 1322.31 443.728 1322.31 427.107Z" fill="#202124"/>
<path d="M1628.58 347.155L1527.88 583H1474.94L1511.77 501.615L1446.46 347.155H1501.41L1538.53 447.167L1575.35 347.155H1628.58Z" fill="#202124"/>
<defs>
<linearGradient id="paint0_linear_185_3543" x1="1700.45" y1="280.072" x2="1700.45" y2="464.857" gradientUnits="userSpaceOnUse">
<stop stop-color="#EB00FF"/>
<stop offset="1" stop-color="#4663FF"/>
</linearGradient>
</defs>
</svg>
