<svg width="24" height="24" viewBox="0 0 24 24" fill="none" xmlns="http://www.w3.org/2000/svg">
  <g id="foundation:social-myspace">
    <path id="Vector" d="M18.9215 12.2485C20.7916 12.2485 22.3082 10.738 22.3082 8.87391C22.3082 7.01031 20.7916 5.49927 18.9215 5.49927C17.05 5.49927 15.5332 7.01055 15.5332 8.87391C15.533 10.738 17.05 12.2485 18.9215 12.2485Z" fill="#ABABAB" />
    <path id="Vector_2" d="M11.2909 12.8737C12.9747 12.8737 14.3396 11.5138 14.3396 9.83627C14.3396 8.15874 12.9747 6.79883 11.2909 6.79883C9.60715 6.79883 8.24219 8.15874 8.24219 9.83627C8.24219 11.5138 9.60715 12.8737 11.2909 12.8737Z" fill="#ABABAB" />
    <path id="Vector_3" d="M4.37107 13.4362C5.88619 13.4362 7.11499 12.2132 7.11499 10.7036C7.11499 9.19349 5.88619 7.96997 4.37107 7.96997C2.85547 7.96997 1.62715 9.19349 1.62715 10.7036C1.62715 12.2134 2.85523 13.4362 4.37107 13.4362ZM4.37107 14.0605C2.63107 14.0605 1.35547 15.5876 1.35547 17.1651V18.2271C1.35547 18.3773 1.47835 18.5007 1.62955 18.5007H7.11187C7.26355 18.5007 7.38643 18.3773 7.38643 18.2271V17.1651C7.38643 15.5876 6.11083 14.0605 4.37107 14.0605ZM11.2907 13.5663C9.35755 13.5663 7.93987 15.2633 7.93987 17.0165V18.1966C7.93987 18.3634 8.07643 18.5007 8.24443 18.5007H14.3361C14.4169 18.5008 14.4943 18.4688 14.5515 18.4118C14.6087 18.3547 14.641 18.2774 14.6411 18.1966V17.0165C14.6414 15.2636 13.2239 13.5663 11.2907 13.5663ZM18.9211 13.0184C16.7731 13.0184 15.1982 14.9038 15.1982 16.8521V18.163C15.1982 18.3485 15.3499 18.5007 15.5366 18.5007H22.3046C22.4923 18.5007 22.6439 18.3483 22.6439 18.163V16.8521C22.6439 14.9041 21.0691 13.0184 18.9211 13.0184Z" fill="white" />
  </g>
</svg>
