<svg width="24" height="24" viewBox="0 0 24 24" fill="none" xmlns="http://www.w3.org/2000/svg">
  <g id="fluent:calendar-data-bar-24-regular">
    <path id="Vector" d="M17.75 3C18.612 3 19.4386 3.34241 20.0481 3.9519C20.6576 4.5614 21 5.38805 21 6.25V13.05C20.6374 13.1238 20.2958 13.2776 20 13.5C20 12.937 19.814 12.418 19.5 12V8.5H4.5V17.75C4.5 18.716 5.284 19.5 6.25 19.5H11V21H6.25C5.38805 21 4.5614 20.6576 3.9519 20.0481C3.34241 19.4386 3 18.612 3 17.75V6.25C3 5.38805 3.34241 4.5614 3.9519 3.9519C4.5614 3.34241 5.38805 3 6.25 3H17.75ZM17.75 4.5H6.25C5.78587 4.5 5.34075 4.68437 5.01256 5.01256C4.68437 5.34075 4.5 5.78587 4.5 6.25V7H19.5V6.25C19.5 5.78587 19.3156 5.34075 18.9874 5.01256C18.6592 4.68437 18.2141 4.5 17.75 4.5ZM17.5 12C17.1022 12 16.7206 12.158 16.4393 12.4393C16.158 12.7206 16 13.1022 16 13.5V21.5C16 21.8978 16.158 22.2794 16.4393 22.5607C16.7206 22.842 17.1022 23 17.5 23C17.8978 23 18.2794 22.842 18.5607 22.5607C18.842 22.2794 19 21.8978 19 21.5V13.5C19 13.1022 18.842 12.7206 18.5607 12.4393C18.2794 12.158 17.8978 12 17.5 12ZM13.5 16C13.1022 16 12.7206 16.158 12.4393 16.4393C12.158 16.7206 12 17.1022 12 17.5V21.5C12 21.8978 12.158 22.2794 12.4393 22.5607C12.7206 22.842 13.1022 23 13.5 23C13.8978 23 14.2794 22.842 14.5607 22.5607C14.842 22.2794 15 21.8978 15 21.5V17.5C15 17.1022 14.842 16.7206 14.5607 16.4393C14.2794 16.158 13.8978 16 13.5 16ZM20 15.5C20 15.1022 20.158 14.7206 20.4393 14.4393C20.7206 14.158 21.1022 14 21.5 14C21.8978 14 22.2794 14.158 22.5607 14.4393C22.842 14.7206 23 15.1022 23 15.5V21.5C23 21.8978 22.842 22.2794 22.5607 22.5607C22.2794 22.842 21.8978 23 21.5 23C21.1022 23 20.7206 22.842 20.4393 22.5607C20.158 22.2794 20 21.8978 20 21.5V15.5Z" fill="white" />
  </g>
</svg>
