<svg width="522" height="421" viewBox="0 0 522 421" fill="none" xmlns="http://www.w3.org/2000/svg">
<path d="M300 421C358.878 421 415.345 398.822 456.978 359.346C498.611 319.87 522 266.328 522 210.5C522 154.672 498.611 101.13 456.978 61.654C415.345 22.1776 358.878 1.29952e-06 300 -9.70392e-06L300 210.5L300 421Z" fill="#101428"/>
<path d="M282.485 200.047C282.485 249.9 242.072 290.313 192.219 290.313C142.367 290.313 101.953 249.9 101.953 200.047C101.953 150.195 142.367 109.781 192.219 109.781C242.072 109.781 282.485 150.195 282.485 200.047ZM111.964 200.047C111.964 244.371 147.896 280.302 192.219 280.302C236.543 280.302 272.474 244.371 272.474 200.047C272.474 155.724 236.543 119.792 192.219 119.792C147.896 119.792 111.964 155.724 111.964 200.047Z" fill="#EDEEFF"/>
<path d="M177.424 116.141C176.938 113.386 178.777 110.744 181.555 110.413C193.984 108.935 206.605 110.055 218.611 113.725C232.233 117.89 244.676 125.22 254.923 135.115C265.17 145.011 272.93 157.191 277.568 170.66C282.205 184.128 283.589 198.504 281.607 212.61C279.624 226.716 274.331 240.153 266.161 251.822C257.99 263.491 247.174 273.06 234.597 279.748C222.019 286.435 208.037 290.051 193.795 290.3C181.243 290.519 168.802 288.117 157.262 283.27C154.683 282.186 153.643 279.14 154.87 276.625C156.096 274.111 159.123 273.083 161.71 274.148C171.807 278.305 182.664 280.362 193.618 280.171C206.262 279.95 218.675 276.74 229.841 270.803C241.007 264.866 250.609 256.371 257.863 246.011C265.116 235.652 269.815 223.723 271.575 211.2C273.335 198.677 272.106 185.915 267.989 173.958C263.872 162 256.983 151.187 247.886 142.402C238.789 133.618 227.742 127.111 215.649 123.413C205.172 120.21 194.168 119.194 183.317 120.408C180.537 120.718 177.91 118.896 177.424 116.141Z" fill="url(#paint0_linear_4901_15839)"/>
<path d="M250.112 162.346C270.933 194.319 261.892 237.118 229.918 257.939C197.944 278.76 155.146 269.719 134.325 237.745C113.504 205.771 122.545 162.973 154.518 142.152C186.492 121.331 229.291 130.372 250.112 162.346ZM144.314 231.24C161.542 257.697 196.956 265.178 223.413 247.949C249.87 230.721 257.351 195.307 240.122 168.85C222.894 142.394 187.48 134.913 161.023 152.141C134.567 169.37 127.086 204.783 144.314 231.24Z" fill="#EDEEFF"/>
<path d="M162.059 196.84V201.076H167.747V203.763H162.059V208.241H168.473V211H158.67V194.08H168.473V196.84H162.059ZM175.498 200.374V206.861C175.498 207.313 175.603 207.644 175.813 207.853C176.039 208.047 176.41 208.144 176.927 208.144H178.5V211H176.37C173.514 211 172.085 209.612 172.085 206.837V200.374H170.488V197.59H172.085V194.274H175.498V197.59H178.5V200.374H175.498ZM188.489 197.397C189.506 197.397 190.41 197.622 191.2 198.074C191.991 198.51 192.604 199.164 193.04 200.035C193.492 200.89 193.718 201.923 193.718 203.133V211H190.329V203.593C190.329 202.528 190.063 201.713 189.53 201.148C188.998 200.567 188.272 200.277 187.352 200.277C186.416 200.277 185.673 200.567 185.125 201.148C184.592 201.713 184.326 202.528 184.326 203.593V211H180.937V193.088H184.326V199.26C184.762 198.679 185.343 198.228 186.069 197.905C186.795 197.566 187.602 197.397 188.489 197.397ZM198.659 195.993C198.062 195.993 197.562 195.807 197.158 195.436C196.771 195.049 196.577 194.573 196.577 194.008C196.577 193.443 196.771 192.975 197.158 192.604C197.562 192.217 198.062 192.023 198.659 192.023C199.256 192.023 199.748 192.217 200.135 192.604C200.539 192.975 200.741 193.443 200.741 194.008C200.741 194.573 200.539 195.049 200.135 195.436C199.748 195.807 199.256 195.993 198.659 195.993ZM200.329 197.59V211H196.94V197.59H200.329ZM202.806 204.295C202.806 202.907 203.088 201.697 203.653 200.664C204.218 199.615 205 198.809 206.001 198.244C207.001 197.663 208.147 197.372 209.438 197.372C211.1 197.372 212.472 197.792 213.553 198.631C214.65 199.454 215.385 200.616 215.756 202.117H212.101C211.907 201.536 211.576 201.084 211.108 200.761C210.656 200.422 210.092 200.253 209.414 200.253C208.446 200.253 207.679 200.608 207.114 201.318C206.55 202.012 206.267 203.004 206.267 204.295C206.267 205.57 206.55 206.562 207.114 207.272C207.679 207.966 208.446 208.313 209.414 208.313C210.786 208.313 211.681 207.7 212.101 206.474H215.756C215.385 207.926 214.65 209.08 213.553 209.935C212.456 210.79 211.084 211.218 209.438 211.218C208.147 211.218 207.001 210.935 206.001 210.371C205 209.79 204.218 208.983 203.653 207.95C203.088 206.901 202.806 205.683 202.806 204.295ZM223.37 211.218C222.272 211.218 221.288 211.024 220.417 210.637C219.545 210.233 218.851 209.693 218.335 209.015C217.835 208.337 217.561 207.587 217.512 206.764H220.925C220.99 207.28 221.24 207.708 221.675 208.047C222.127 208.386 222.684 208.555 223.346 208.555C223.991 208.555 224.491 208.426 224.846 208.168C225.217 207.91 225.403 207.579 225.403 207.176C225.403 206.74 225.177 206.417 224.725 206.207C224.29 205.981 223.588 205.739 222.619 205.481C221.619 205.239 220.796 204.989 220.15 204.731C219.521 204.473 218.972 204.077 218.505 203.545C218.053 203.012 217.827 202.294 217.827 201.39C217.827 200.648 218.037 199.97 218.456 199.357C218.892 198.744 219.505 198.26 220.296 197.905C221.103 197.55 222.047 197.372 223.128 197.372C224.725 197.372 226 197.776 226.952 198.583C227.904 199.373 228.429 200.446 228.526 201.802H225.282C225.234 201.269 225.008 200.85 224.604 200.543C224.217 200.221 223.693 200.059 223.031 200.059C222.418 200.059 221.942 200.172 221.603 200.398C221.28 200.624 221.119 200.939 221.119 201.342C221.119 201.794 221.345 202.141 221.796 202.383C222.248 202.609 222.95 202.843 223.902 203.085C224.871 203.327 225.669 203.577 226.299 203.835C226.928 204.093 227.469 204.497 227.92 205.045C228.388 205.578 228.63 206.288 228.647 207.176C228.647 207.95 228.429 208.644 227.993 209.257C227.573 209.87 226.96 210.355 226.153 210.71C225.363 211.048 224.435 211.218 223.37 211.218Z" fill="white"/>
<line x1="315.765" y1="169.793" x2="335.937" y2="169.793" stroke="#7879F1" stroke-width="10.0856" stroke-linecap="round"/>
<line x1="315.765" y1="195.004" x2="335.937" y2="195.004" stroke="url(#paint1_linear_4901_15839)" stroke-width="10.0856" stroke-linecap="round"/>
<line x1="315.765" y1="220.223" x2="335.937" y2="220.223" stroke="#EF5DA8" stroke-width="10.0856" stroke-linecap="round"/>
<path d="M356.642 164.287V165.654H354.391V172.734H352.697V165.654H350.446V164.287H356.642ZM359.573 167.07C359.791 166.715 360.073 166.437 360.42 166.235C360.775 166.034 361.179 165.933 361.631 165.933V167.712H361.183C360.65 167.712 360.247 167.837 359.973 168.087C359.706 168.337 359.573 168.773 359.573 169.394V172.734H357.879V166.029H359.573V167.07ZM369.102 166.029V172.734H367.395V171.887C367.177 172.178 366.891 172.408 366.536 172.577C366.189 172.738 365.81 172.819 365.398 172.819C364.874 172.819 364.41 172.71 364.006 172.492C363.603 172.266 363.284 171.94 363.05 171.512C362.824 171.076 362.711 170.56 362.711 169.963V166.029H364.406V169.721C364.406 170.253 364.539 170.665 364.805 170.955C365.071 171.238 365.434 171.379 365.894 171.379C366.362 171.379 366.729 171.238 366.996 170.955C367.262 170.665 367.395 170.253 367.395 169.721V166.029H369.102ZM373.339 172.843C372.79 172.843 372.298 172.746 371.863 172.553C371.427 172.351 371.08 172.081 370.822 171.742C370.572 171.403 370.434 171.028 370.41 170.616H372.117C372.149 170.875 372.274 171.088 372.492 171.258C372.718 171.427 372.996 171.512 373.327 171.512C373.65 171.512 373.9 171.447 374.077 171.318C374.263 171.189 374.356 171.024 374.356 170.822C374.356 170.604 374.243 170.443 374.017 170.338C373.799 170.225 373.448 170.104 372.964 169.975C372.464 169.854 372.052 169.729 371.729 169.6C371.415 169.471 371.14 169.273 370.906 169.007C370.681 168.74 370.568 168.381 370.568 167.93C370.568 167.558 370.672 167.22 370.882 166.913C371.1 166.606 371.407 166.364 371.802 166.187C372.206 166.009 372.678 165.921 373.218 165.921C374.017 165.921 374.654 166.122 375.13 166.526C375.606 166.921 375.869 167.458 375.917 168.135H374.295C374.271 167.869 374.158 167.659 373.956 167.506C373.763 167.345 373.5 167.264 373.17 167.264C372.863 167.264 372.625 167.32 372.456 167.433C372.294 167.546 372.214 167.704 372.214 167.905C372.214 168.131 372.327 168.305 372.552 168.426C372.778 168.539 373.129 168.656 373.605 168.777C374.089 168.898 374.489 169.023 374.804 169.152C375.118 169.281 375.389 169.483 375.614 169.757C375.848 170.023 375.969 170.378 375.978 170.822C375.978 171.209 375.869 171.556 375.651 171.863C375.441 172.17 375.134 172.412 374.731 172.589C374.336 172.759 373.872 172.843 373.339 172.843ZM379.341 167.421V170.665C379.341 170.891 379.394 171.056 379.498 171.161C379.611 171.258 379.797 171.306 380.055 171.306H380.842V172.734H379.777C378.349 172.734 377.635 172.04 377.635 170.653V167.421H376.836V166.029H377.635V164.371H379.341V166.029H380.842V167.421H379.341Z" fill="white"/>
<path d="M352.588 189.498V197.945H350.894V189.498H352.588ZM357.978 191.144C358.776 191.144 359.422 191.398 359.914 191.906C360.406 192.406 360.652 193.108 360.652 194.012V197.945H358.958V194.242C358.958 193.709 358.825 193.302 358.559 193.02C358.292 192.729 357.929 192.584 357.469 192.584C357.001 192.584 356.63 192.729 356.356 193.02C356.09 193.302 355.956 193.709 355.956 194.242V197.945H354.262V191.24H355.956V192.075C356.182 191.785 356.469 191.559 356.816 191.398C357.171 191.228 357.558 191.144 357.978 191.144ZM365.979 191.144C366.778 191.144 367.423 191.398 367.916 191.906C368.408 192.406 368.654 193.108 368.654 194.012V197.945H366.959V194.242C366.959 193.709 366.826 193.302 366.56 193.02C366.294 192.729 365.931 192.584 365.471 192.584C365.003 192.584 364.632 192.729 364.357 193.02C364.091 193.302 363.958 193.709 363.958 194.242V197.945H362.264V191.24H363.958V192.075C364.184 191.785 364.47 191.559 364.817 191.398C365.172 191.228 365.56 191.144 365.979 191.144ZM373.242 198.054C372.597 198.054 372.016 197.913 371.5 197.631C370.983 197.34 370.576 196.933 370.277 196.408C369.987 195.884 369.842 195.279 369.842 194.593C369.842 193.907 369.991 193.302 370.289 192.777C370.596 192.253 371.011 191.85 371.536 191.567C372.06 191.277 372.645 191.131 373.291 191.131C373.936 191.131 374.521 191.277 375.046 191.567C375.57 191.85 375.982 192.253 376.28 192.777C376.587 193.302 376.74 193.907 376.74 194.593C376.74 195.279 376.583 195.884 376.268 196.408C375.961 196.933 375.542 197.34 375.009 197.631C374.485 197.913 373.896 198.054 373.242 198.054ZM373.242 196.578C373.549 196.578 373.835 196.505 374.102 196.36C374.376 196.207 374.594 195.981 374.755 195.682C374.917 195.384 374.997 195.02 374.997 194.593C374.997 193.955 374.828 193.467 374.489 193.128C374.158 192.781 373.751 192.608 373.267 192.608C372.782 192.608 372.375 192.781 372.044 193.128C371.721 193.467 371.56 193.955 371.56 194.593C371.56 195.23 371.717 195.722 372.032 196.069C372.355 196.408 372.758 196.578 373.242 196.578ZM380.779 196.384L382.473 191.24H384.276L381.795 197.945H379.738L377.269 191.24H379.084L380.779 196.384ZM384.792 194.569C384.792 193.891 384.925 193.29 385.192 192.765C385.466 192.241 385.833 191.837 386.293 191.555C386.761 191.273 387.281 191.131 387.854 191.131C388.355 191.131 388.79 191.232 389.161 191.434C389.541 191.636 389.843 191.89 390.069 192.197V191.24H391.776V197.945H390.069V196.965C389.851 197.28 389.549 197.542 389.161 197.752C388.782 197.953 388.342 198.054 387.842 198.054C387.277 198.054 386.761 197.909 386.293 197.619C385.833 197.328 385.466 196.921 385.192 196.396C384.925 195.864 384.792 195.254 384.792 194.569ZM390.069 194.593C390.069 194.181 389.988 193.83 389.827 193.54C389.666 193.241 389.448 193.015 389.174 192.862C388.899 192.701 388.605 192.62 388.29 192.62C387.975 192.62 387.685 192.697 387.419 192.85C387.152 193.003 386.935 193.229 386.765 193.528C386.604 193.818 386.523 194.165 386.523 194.569C386.523 194.972 386.604 195.327 386.765 195.634C386.935 195.932 387.152 196.162 387.419 196.324C387.693 196.485 387.983 196.566 388.29 196.566C388.605 196.566 388.899 196.489 389.174 196.336C389.448 196.174 389.666 195.948 389.827 195.658C389.988 195.359 390.069 195.004 390.069 194.593ZM395.403 192.632V195.876C395.403 196.102 395.456 196.267 395.561 196.372C395.674 196.469 395.859 196.517 396.117 196.517H396.904V197.945H395.839C394.411 197.945 393.697 197.251 393.697 195.864V192.632H392.898V191.24H393.697V189.582H395.403V191.24H396.904V192.632H395.403ZM398.982 190.442C398.683 190.442 398.433 190.349 398.232 190.163C398.038 189.97 397.941 189.732 397.941 189.449C397.941 189.167 398.038 188.933 398.232 188.747C398.433 188.554 398.683 188.457 398.982 188.457C399.28 188.457 399.527 188.554 399.72 188.747C399.922 188.933 400.023 189.167 400.023 189.449C400.023 189.732 399.922 189.97 399.72 190.163C399.527 190.349 399.28 190.442 398.982 190.442ZM399.817 191.24V197.945H398.123V191.24H399.817ZM404.468 198.054C403.823 198.054 403.242 197.913 402.726 197.631C402.209 197.34 401.802 196.933 401.503 196.408C401.213 195.884 401.067 195.279 401.067 194.593C401.067 193.907 401.217 193.302 401.515 192.777C401.822 192.253 402.237 191.85 402.762 191.567C403.286 191.277 403.871 191.131 404.517 191.131C405.162 191.131 405.747 191.277 406.272 191.567C406.796 191.85 407.208 192.253 407.506 192.777C407.813 193.302 407.966 193.907 407.966 194.593C407.966 195.279 407.809 195.884 407.494 196.408C407.187 196.933 406.768 197.34 406.235 197.631C405.711 197.913 405.122 198.054 404.468 198.054ZM404.468 196.578C404.775 196.578 405.061 196.505 405.328 196.36C405.602 196.207 405.82 195.981 405.981 195.682C406.143 195.384 406.223 195.02 406.223 194.593C406.223 193.955 406.054 193.467 405.715 193.128C405.384 192.781 404.977 192.608 404.493 192.608C404.008 192.608 403.601 192.781 403.27 193.128C402.947 193.467 402.786 193.955 402.786 194.593C402.786 195.23 402.943 195.722 403.258 196.069C403.581 196.408 403.984 196.578 404.468 196.578ZM412.924 191.144C413.723 191.144 414.369 191.398 414.861 191.906C415.353 192.406 415.599 193.108 415.599 194.012V197.945H413.905V194.242C413.905 193.709 413.772 193.302 413.505 193.02C413.239 192.729 412.876 192.584 412.416 192.584C411.948 192.584 411.577 192.729 411.303 193.02C411.036 193.302 410.903 193.709 410.903 194.242V197.945H409.209V191.24H410.903V192.075C411.129 191.785 411.416 191.559 411.763 191.398C412.118 191.228 412.505 191.144 412.924 191.144Z" fill="white"/>
<path d="M356.074 223.57H352.709L352.152 225.18H350.373L353.411 216.72H355.384L358.422 225.18H356.63L356.074 223.57ZM355.614 222.215L354.391 218.681L353.169 222.215H355.614ZM361.251 216.732V225.18H359.557V216.732H361.251ZM370.989 223.57H367.625L367.068 225.18H365.289L368.327 216.72H370.299L373.337 225.18H371.546L370.989 223.57ZM370.529 222.215L369.307 218.681L368.085 222.215H370.529ZM374.037 221.803C374.037 221.125 374.17 220.524 374.436 220C374.711 219.475 375.082 219.072 375.55 218.789C376.018 218.507 376.538 218.366 377.111 218.366C377.547 218.366 377.962 218.463 378.358 218.656C378.753 218.842 379.068 219.092 379.302 219.407V216.224H381.02V225.18H379.302V224.187C379.092 224.518 378.797 224.784 378.418 224.986C378.039 225.188 377.599 225.289 377.099 225.289C376.534 225.289 376.018 225.143 375.55 224.853C375.082 224.562 374.711 224.155 374.436 223.631C374.17 223.098 374.037 222.489 374.037 221.803ZM379.314 221.827C379.314 221.416 379.233 221.065 379.072 220.774C378.91 220.476 378.693 220.25 378.418 220.097C378.144 219.935 377.849 219.854 377.535 219.854C377.22 219.854 376.93 219.931 376.663 220.084C376.397 220.238 376.179 220.464 376.01 220.762C375.848 221.053 375.768 221.4 375.768 221.803C375.768 222.206 375.848 222.561 376.01 222.868C376.179 223.167 376.397 223.397 376.663 223.558C376.938 223.719 377.228 223.8 377.535 223.8C377.849 223.8 378.144 223.723 378.418 223.57C378.693 223.409 378.91 223.183 379.072 222.892C379.233 222.594 379.314 222.239 379.314 221.827ZM385.471 223.618L387.165 218.475H388.969L386.488 225.18H384.43L381.961 218.475H383.776L385.471 223.618ZM389.485 221.803C389.485 221.125 389.618 220.524 389.884 220C390.158 219.475 390.525 219.072 390.985 218.789C391.453 218.507 391.974 218.366 392.547 218.366C393.047 218.366 393.482 218.467 393.854 218.668C394.233 218.87 394.535 219.124 394.761 219.431V218.475H396.468V225.18H394.761V224.199C394.543 224.514 394.241 224.776 393.854 224.986C393.474 225.188 393.035 225.289 392.534 225.289C391.97 225.289 391.453 225.143 390.985 224.853C390.525 224.562 390.158 224.155 389.884 223.631C389.618 223.098 389.485 222.489 389.485 221.803ZM394.761 221.827C394.761 221.416 394.681 221.065 394.519 220.774C394.358 220.476 394.14 220.25 393.866 220.097C393.591 219.935 393.297 219.854 392.982 219.854C392.668 219.854 392.377 219.931 392.111 220.084C391.845 220.238 391.627 220.464 391.457 220.762C391.296 221.053 391.215 221.4 391.215 221.803C391.215 222.206 391.296 222.561 391.457 222.868C391.627 223.167 391.845 223.397 392.111 223.558C392.385 223.719 392.676 223.8 392.982 223.8C393.297 223.8 393.591 223.723 393.866 223.57C394.14 223.409 394.358 223.183 394.519 222.892C394.681 222.594 394.761 222.239 394.761 221.827ZM401.838 218.378C402.637 218.378 403.282 218.632 403.775 219.14C404.267 219.641 404.513 220.343 404.513 221.246V225.18H402.819V221.476C402.819 220.944 402.685 220.536 402.419 220.254C402.153 219.963 401.79 219.818 401.33 219.818C400.862 219.818 400.491 219.963 400.216 220.254C399.95 220.536 399.817 220.944 399.817 221.476V225.18H398.123V218.475H399.817V219.31C400.043 219.019 400.329 218.793 400.676 218.632C401.031 218.463 401.419 218.378 401.838 218.378ZM405.688 221.827C405.688 221.133 405.83 220.528 406.112 220.012C406.394 219.487 406.786 219.084 407.286 218.802C407.786 218.511 408.359 218.366 409.005 218.366C409.836 218.366 410.521 218.576 411.062 218.995C411.611 219.407 411.978 219.988 412.163 220.738H410.336C410.239 220.448 410.074 220.222 409.84 220.06C409.614 219.891 409.331 219.806 408.993 219.806C408.508 219.806 408.125 219.984 407.843 220.339C407.56 220.686 407.419 221.182 407.419 221.827C407.419 222.465 407.56 222.961 407.843 223.316C408.125 223.663 408.508 223.836 408.993 223.836C409.678 223.836 410.126 223.53 410.336 222.916H412.163C411.978 223.643 411.611 224.22 411.062 224.647C410.513 225.075 409.828 225.289 409.005 225.289C408.359 225.289 407.786 225.147 407.286 224.865C406.786 224.575 406.394 224.171 406.112 223.655C405.83 223.13 405.688 222.521 405.688 221.827ZM419.638 221.682C419.638 221.924 419.621 222.142 419.589 222.336H414.688C414.728 222.82 414.897 223.199 415.196 223.473C415.494 223.748 415.862 223.885 416.297 223.885C416.927 223.885 417.374 223.614 417.641 223.074H419.468C419.275 223.719 418.903 224.252 418.355 224.671C417.806 225.083 417.132 225.289 416.334 225.289C415.688 225.289 415.107 225.147 414.591 224.865C414.082 224.575 413.683 224.167 413.393 223.643C413.11 223.118 412.969 222.513 412.969 221.827C412.969 221.133 413.11 220.524 413.393 220C413.675 219.475 414.07 219.072 414.579 218.789C415.087 218.507 415.672 218.366 416.334 218.366C416.971 218.366 417.54 218.503 418.04 218.777C418.548 219.052 418.94 219.443 419.214 219.951C419.496 220.452 419.638 221.028 419.638 221.682ZM417.883 221.198C417.875 220.762 417.717 220.415 417.411 220.157C417.104 219.891 416.729 219.758 416.285 219.758C415.866 219.758 415.511 219.887 415.22 220.145C414.938 220.395 414.764 220.746 414.7 221.198H417.883ZM429.201 218.378C430.024 218.378 430.686 218.632 431.186 219.14C431.694 219.641 431.948 220.343 431.948 221.246V225.18H430.254V221.476C430.254 220.952 430.121 220.552 429.855 220.278C429.588 219.996 429.225 219.854 428.765 219.854C428.305 219.854 427.938 219.996 427.664 220.278C427.398 220.552 427.265 220.952 427.265 221.476V225.18H425.57V221.476C425.57 220.952 425.437 220.552 425.171 220.278C424.905 219.996 424.541 219.854 424.082 219.854C423.614 219.854 423.242 219.996 422.968 220.278C422.702 220.552 422.569 220.952 422.569 221.476V225.18H420.874V218.475H422.569V219.286C422.787 219.003 423.065 218.781 423.404 218.62C423.751 218.459 424.13 218.378 424.541 218.378C425.066 218.378 425.534 218.491 425.945 218.717C426.357 218.935 426.676 219.249 426.902 219.661C427.119 219.274 427.434 218.963 427.846 218.729C428.265 218.495 428.717 218.378 429.201 218.378ZM439.789 221.682C439.789 221.924 439.773 222.142 439.741 222.336H434.839C434.879 222.82 435.049 223.199 435.347 223.473C435.646 223.748 436.013 223.885 436.449 223.885C437.078 223.885 437.526 223.614 437.792 223.074H439.62C439.426 223.719 439.055 224.252 438.506 224.671C437.958 225.083 437.284 225.289 436.485 225.289C435.84 225.289 435.259 225.147 434.742 224.865C434.234 224.575 433.835 224.167 433.544 223.643C433.262 223.118 433.121 222.513 433.121 221.827C433.121 221.133 433.262 220.524 433.544 220C433.827 219.475 434.222 219.072 434.73 218.789C435.238 218.507 435.823 218.366 436.485 218.366C437.122 218.366 437.691 218.503 438.192 218.777C438.7 219.052 439.091 219.443 439.366 219.951C439.648 220.452 439.789 221.028 439.789 221.682ZM438.034 221.198C438.026 220.762 437.869 220.415 437.562 220.157C437.256 219.891 436.88 219.758 436.437 219.758C436.017 219.758 435.662 219.887 435.372 220.145C435.089 220.395 434.916 220.746 434.851 221.198H438.034ZM444.741 218.378C445.54 218.378 446.186 218.632 446.678 219.14C447.17 219.641 447.416 220.343 447.416 221.246V225.18H445.722V221.476C445.722 220.944 445.589 220.536 445.322 220.254C445.056 219.963 444.693 219.818 444.233 219.818C443.765 219.818 443.394 219.963 443.12 220.254C442.853 220.536 442.72 220.944 442.72 221.476V225.18H441.026V218.475H442.72V219.31C442.946 219.019 443.233 218.793 443.58 218.632C443.935 218.463 444.322 218.378 444.741 218.378ZM451 219.867V223.11C451 223.336 451.053 223.501 451.157 223.606C451.27 223.703 451.456 223.752 451.714 223.752H452.501V225.18H451.436C450.008 225.18 449.294 224.486 449.294 223.098V219.867H448.495V218.475H449.294V216.817H451V218.475H452.501V219.867H451Z" fill="white"/>
<path d="M156.361 55.9061C156.862 55.4057 156.862 54.5943 156.361 54.0939L148.206 45.9387C147.706 45.4382 146.894 45.4382 146.394 45.9387C145.894 46.4391 145.894 47.2505 146.394 47.7509L153.643 55L146.394 62.2491C145.894 62.7495 145.894 63.5609 146.394 64.0613C146.894 64.5618 147.706 64.5618 148.206 64.0613L156.361 55.9061ZM2 55V53.7185H0.718535V55H2ZM2 335H0.718535V336.281H2V335ZM156.361 335.906C156.862 335.406 156.862 334.594 156.361 334.094L148.206 325.939C147.706 325.438 146.894 325.438 146.394 325.939C145.894 326.439 145.894 327.251 146.394 327.751L153.643 335L146.394 342.249C145.894 342.75 145.894 343.561 146.394 344.061C146.894 344.562 147.706 344.562 148.206 344.061L156.361 335.906ZM155.455 53.7185H152.898V56.2815H155.455V53.7185ZM142.667 53.7185H127.322V56.2815H142.667V53.7185ZM106.861 53.7185H101.746V56.2815H106.861V53.7185ZM91.5156 53.7185H76.1701V56.2815H91.5156V53.7185ZM55.7094 53.7185H50.5942V56.2815H55.7094V53.7185ZM40.3638 53.7185H25.0183V56.2815H40.3638V53.7185ZM4.55757 53.7185H2V56.2815H4.55757V53.7185ZM0.718535 55V57.8H3.28146V55H0.718535ZM0.718535 69V85.8H3.28146V69H0.718535ZM0.718535 108.2V113.8H3.28146V108.2H0.718535ZM0.718535 125V141.8H3.28146V125H0.718535ZM0.718535 164.2V169.8H3.28146V164.2H0.718535ZM0.718535 181V197.8H3.28146V181H0.718535ZM0.718535 220.2V225.8H3.28146V220.2H0.718535ZM0.718535 237V253.8H3.28146V237H0.718535ZM0.718535 276.2V281.8H3.28146V276.2H0.718535ZM0.718535 293V309.8H3.28146V293H0.718535ZM0.718535 332.2V335H3.28146V332.2H0.718535ZM2 336.281H4.55759V333.719H2V336.281ZM14.7879 336.281H30.1335V333.719H14.7879V336.281ZM50.5942 336.281H55.7094V333.719H50.5942V336.281ZM65.9397 336.281H81.2853V333.719H65.9397V336.281ZM101.746 336.281H106.861V333.719H101.746V336.281ZM117.092 336.281H132.437V333.719H117.092V336.281ZM152.898 336.281H155.455V333.719H152.898V336.281Z" fill="url(#paint2_linear_4901_15839)"/>
<defs>
<linearGradient id="paint0_linear_4901_15839" x1="122.252" y1="254.852" x2="141.244" y2="254.38" gradientUnits="userSpaceOnUse">
<stop stop-color="#D634FF"/>
<stop offset="0.815216" stop-color="#4663FF"/>
<stop offset="0.984375" stop-color="#4663FF"/>
</linearGradient>
<linearGradient id="paint1_linear_4901_15839" x1="314.125" y1="200.85" x2="316.161" y2="199.321" gradientUnits="userSpaceOnUse">
<stop stop-color="#D634FF"/>
<stop offset="0.815216" stop-color="#4663FF"/>
<stop offset="0.984375" stop-color="#4663FF"/>
</linearGradient>
<linearGradient id="paint2_linear_4901_15839" x1="19.2545" y1="280" x2="35.4048" y2="279.78" gradientUnits="userSpaceOnUse">
<stop stop-color="#D634FF"/>
<stop offset="0.815216" stop-color="#4663FF"/>
<stop offset="0.984375" stop-color="#4663FF"/>
</linearGradient>
</defs>
</svg>
