<svg width="68" height="65" viewBox="0 0 68 65" fill="none" xmlns="http://www.w3.org/2000/svg">
<path d="M15.4202 49.0068L13.4452 50.2823L13.3737 52.634C13.3715 52.6915 13.3533 52.7471 13.3211 52.7947C13.2889 52.8424 13.2441 52.88 13.1916 52.9035C13.1392 52.927 13.0812 52.9354 13.0243 52.9276C12.9673 52.9199 12.9137 52.8964 12.8694 52.8599L11.0505 51.3784L8.79518 52.0315C8.74044 52.0467 8.68251 52.0462 8.62807 52.0299C8.57363 52.0136 8.52492 51.9823 8.48755 51.9395C8.45019 51.8967 8.42571 51.8441 8.41695 51.788C8.40818 51.7319 8.4155 51.6744 8.43803 51.6222L9.284 49.4324L7.95941 47.4904C7.92715 47.4429 7.90882 47.3873 7.90648 47.3299C7.90415 47.2724 7.91789 47.2155 7.94617 47.1655C7.97445 47.1155 8.01614 47.0744 8.06654 47.0468C8.11694 47.0193 8.17404 47.0063 8.2314 47.0095L10.5789 47.1431L12.0113 45.2792C12.0471 45.2347 12.0945 45.2011 12.1482 45.1819C12.202 45.1628 12.26 45.1589 12.3158 45.1708C12.3717 45.1827 12.4231 45.2098 12.4644 45.2492C12.5057 45.2886 12.5352 45.3387 12.5498 45.3939L13.1607 47.6567L15.3747 48.4523C15.4315 48.4704 15.4816 48.505 15.5187 48.5517C15.5557 48.5983 15.5781 48.6549 15.583 48.7143C15.5879 48.7737 15.575 48.8332 15.546 48.8853C15.5171 48.9373 15.4733 48.9796 15.4202 49.0068Z" fill="#E0E0E0"/>
<path d="M30.3613 38.3338L26.5852 40.7719L26.4516 45.2626C26.4488 45.3709 26.4158 45.4762 26.3562 45.5666C26.2966 45.6571 26.2128 45.729 26.1145 45.7743C26.0161 45.8196 25.907 45.8365 25.7995 45.8229C25.6921 45.8094 25.5906 45.766 25.5065 45.6978L22.0577 42.8622L17.7474 44.1299C17.642 44.1571 17.531 44.1544 17.427 44.1222C17.323 44.0899 17.23 44.0294 17.1584 43.9474C17.0868 43.8653 17.0394 43.765 17.0215 43.6575C17.0037 43.5501 17.0161 43.4399 17.0573 43.3391L18.6501 39.192L16.1195 35.4773C16.0581 35.3877 16.0231 35.2826 16.0184 35.174C16.0138 35.0655 16.0398 34.9578 16.0934 34.8633C16.147 34.7688 16.2261 34.6913 16.3216 34.6395C16.4171 34.5878 16.5253 34.5639 16.6337 34.5707L21.1168 34.8182L23.8606 31.2644C23.9269 31.1783 24.0161 31.1126 24.1179 31.0748C24.2198 31.0369 24.3302 31.0285 24.4366 31.0504C24.5431 31.0722 24.6412 31.1236 24.7199 31.1985C24.7985 31.2735 24.8545 31.369 24.8816 31.4743L26.0324 35.8182L30.2687 37.3235C30.3635 37.3652 30.4454 37.4315 30.5058 37.5156C30.5663 37.5996 30.6032 37.6983 30.6127 37.8014C30.6221 37.9045 30.6038 38.0083 30.5596 38.1019C30.5154 38.1955 30.4469 38.2756 30.3613 38.3338Z" fill="#E0E0E0"/>
<path d="M63.0623 18.8191L55.5863 23.6482L55.342 32.5221C55.3358 32.7371 55.2696 32.946 55.1508 33.1253C55.032 33.3046 54.8654 33.4471 54.6699 33.5366C54.4744 33.6262 54.2577 33.6592 54.0443 33.632C53.831 33.6048 53.6295 33.5185 53.4627 33.3827L46.599 27.7504L38.0641 30.2498C37.8581 30.3092 37.6397 30.3099 37.4333 30.2519C37.227 30.1939 37.0409 30.0795 36.896 29.9216C36.7511 29.7637 36.6531 29.5684 36.613 29.3579C36.5729 29.1473 36.5924 28.9297 36.6692 28.7296L39.8749 20.4473L34.8799 13.116C34.7593 12.9386 34.6906 12.7312 34.6815 12.5169C34.6724 12.3026 34.7233 12.09 34.8285 11.9031C34.9336 11.7162 35.0888 11.5623 35.2767 11.4588C35.4645 11.3553 35.6775 11.3063 35.8917 11.3172L44.759 11.8108L50.1796 4.77144C50.3112 4.6024 50.4874 4.4734 50.6882 4.39891C50.8891 4.32443 51.1068 4.30742 51.3168 4.34979C51.5268 4.39217 51.7208 4.49225 51.8771 4.63879C52.0334 4.78534 52.1457 4.97256 52.2015 5.17941L54.4771 13.7928L62.8413 16.7908C63.0386 16.8657 63.2115 16.9938 63.3406 17.1608C63.4698 17.3278 63.5502 17.5273 63.5731 17.7372C63.596 17.9471 63.5604 18.1592 63.4702 18.3502C63.3801 18.5411 63.2389 18.7034 63.0623 18.8191Z" fill="#F0F0F0"/>
</svg>
