<svg width="643" height="381" viewBox="0 0 643 381" fill="none" xmlns="http://www.w3.org/2000/svg">
<path d="M269.675 363.023C268.469 370.314 262.164 375.661 254.773 375.661H15.968C7.62613 375.661 0.863708 368.899 0.863708 360.557V15.5947C0.863708 7.25287 7.62613 0.490448 15.968 0.490448H311.851C321.177 0.490448 328.275 8.85913 326.753 18.0604L269.675 363.023Z" fill="#7879F1" stroke="black" stroke-width="0.97447"/>
<path d="M369.852 13.0463C371.097 5.52 377.606 0 385.234 0H624.04C632.651 0 639.631 6.98056 639.631 15.5915V360.554C639.631 369.165 632.651 376.145 624.04 376.145H328.157C318.529 376.145 311.203 367.507 312.774 358.009L369.852 13.0463Z" fill="#F178B6"/>
<path d="M421.243 340.766H410.578L408.614 346.203H405.246L414.086 321.892H417.77L426.575 346.203H423.207L421.243 340.766ZM420.331 338.17L415.91 325.821L411.49 338.17H420.331ZM429.235 336.521C429.235 334.556 429.633 332.837 430.428 331.364C431.223 329.867 432.311 328.709 433.69 327.891C435.094 327.072 436.661 326.663 438.391 326.663C439.888 326.663 441.28 327.014 442.566 327.715C443.852 328.394 444.834 329.294 445.513 330.417V320.243H448.74V346.203H445.513V342.59C444.881 343.736 443.946 344.683 442.706 345.431C441.467 346.156 440.017 346.519 438.356 346.519C436.649 346.519 435.094 346.098 433.69 345.256C432.311 344.414 431.223 343.233 430.428 341.713C429.633 340.193 429.235 338.462 429.235 336.521ZM445.513 336.556C445.513 335.106 445.22 333.843 444.636 332.767C444.051 331.691 443.256 330.873 442.25 330.311C441.268 329.727 440.18 329.434 438.988 329.434C437.795 329.434 436.707 329.715 435.725 330.276C434.743 330.838 433.959 331.656 433.375 332.732C432.79 333.808 432.498 335.071 432.498 336.521C432.498 337.994 432.79 339.28 433.375 340.38C433.959 341.456 434.743 342.286 435.725 342.87C436.707 343.432 437.795 343.712 438.988 343.712C440.18 343.712 441.268 343.432 442.25 342.87C443.256 342.286 444.051 341.456 444.636 340.38C445.22 339.28 445.513 338.006 445.513 336.556ZM460.941 346.519C459.467 346.519 458.146 346.273 456.976 345.782C455.807 345.268 454.883 344.566 454.205 343.677C453.527 342.765 453.153 341.724 453.082 340.555H456.38C456.474 341.514 456.918 342.297 457.713 342.906C458.532 343.514 459.596 343.818 460.905 343.818C462.122 343.818 463.081 343.549 463.782 343.011C464.484 342.473 464.835 341.795 464.835 340.976C464.835 340.134 464.46 339.514 463.712 339.117C462.964 338.696 461.806 338.287 460.239 337.889C458.812 337.515 457.643 337.141 456.731 336.766C455.842 336.369 455.07 335.796 454.416 335.047C453.784 334.276 453.468 333.27 453.468 332.03C453.468 331.048 453.761 330.148 454.345 329.329C454.93 328.511 455.76 327.868 456.836 327.4C457.912 326.909 459.14 326.663 460.52 326.663C462.648 326.663 464.367 327.201 465.677 328.277C466.986 329.353 467.688 330.826 467.781 332.697H464.589C464.519 331.691 464.11 330.884 463.361 330.276C462.636 329.668 461.654 329.364 460.414 329.364C459.268 329.364 458.356 329.61 457.678 330.101C457 330.592 456.661 331.235 456.661 332.03C456.661 332.662 456.86 333.188 457.257 333.609C457.678 334.007 458.193 334.334 458.801 334.591C459.432 334.825 460.297 335.094 461.397 335.398C462.776 335.772 463.899 336.147 464.764 336.521C465.63 336.872 466.366 337.41 466.974 338.135C467.606 338.86 467.933 339.807 467.957 340.976C467.957 342.028 467.664 342.976 467.08 343.818C466.495 344.66 465.665 345.326 464.589 345.817C463.537 346.285 462.32 346.519 460.941 346.519ZM490.986 328.838C490.308 327.411 489.326 326.312 488.039 325.54C486.753 324.745 485.256 324.348 483.549 324.348C481.842 324.348 480.298 324.745 478.918 325.54C477.562 326.312 476.486 327.435 475.691 328.908C474.919 330.358 474.533 332.042 474.533 333.96C474.533 335.878 474.919 337.562 475.691 339.012C476.486 340.462 477.562 341.584 478.918 342.379C480.298 343.151 481.842 343.537 483.549 343.537C485.934 343.537 487.899 342.824 489.442 341.397C490.986 339.97 491.886 338.041 492.144 335.609H482.391V333.013H495.547V335.468C495.359 337.48 494.728 339.327 493.652 341.011C492.576 342.672 491.161 343.993 489.407 344.975C487.653 345.934 485.7 346.414 483.549 346.414C481.28 346.414 479.211 345.887 477.34 344.835C475.469 343.759 473.983 342.274 472.884 340.38C471.808 338.485 471.271 336.345 471.271 333.96C471.271 331.574 471.808 329.434 472.884 327.54C473.983 325.622 475.469 324.137 477.34 323.085C479.211 322.009 481.28 321.471 483.549 321.471C486.145 321.471 488.437 322.114 490.425 323.401C492.436 324.687 493.898 326.499 494.81 328.838H490.986ZM517.308 335.854C517.308 336.462 517.273 337.105 517.203 337.784H501.837C501.954 339.678 502.597 341.163 503.767 342.239C504.959 343.291 506.398 343.818 508.082 343.818C509.461 343.818 510.607 343.502 511.52 342.87C512.455 342.216 513.11 341.35 513.484 340.274H516.922C516.408 342.122 515.378 343.631 513.835 344.8C512.291 345.946 510.374 346.519 508.082 346.519C506.257 346.519 504.62 346.11 503.17 345.291C501.744 344.472 500.621 343.315 499.803 341.818C498.984 340.298 498.575 338.544 498.575 336.556C498.575 334.568 498.972 332.826 499.767 331.329C500.563 329.832 501.674 328.686 503.1 327.891C504.55 327.072 506.211 326.663 508.082 326.663C509.906 326.663 511.52 327.061 512.923 327.856C514.326 328.651 515.402 329.75 516.15 331.153C516.922 332.533 517.308 334.1 517.308 335.854ZM514.01 335.188C514.01 333.972 513.741 332.931 513.203 332.066C512.666 331.177 511.929 330.51 510.993 330.066C510.081 329.598 509.064 329.364 507.941 329.364C506.328 329.364 504.948 329.879 503.802 330.908C502.679 331.937 502.036 333.364 501.872 335.188H514.01ZM530.888 326.628C533.227 326.628 535.121 327.341 536.571 328.768C538.021 330.171 538.746 332.206 538.746 334.872V346.203H535.589V335.328C535.589 333.41 535.11 331.949 534.151 330.943C533.192 329.914 531.882 329.399 530.222 329.399C528.538 329.399 527.193 329.926 526.188 330.978C525.205 332.03 524.714 333.562 524.714 335.574V346.203H521.522V326.979H524.714V329.715C525.346 328.733 526.199 327.973 527.275 327.435C528.374 326.897 529.579 326.628 530.888 326.628ZM542.768 336.556C542.768 334.568 543.166 332.837 543.961 331.364C544.756 329.867 545.856 328.709 547.259 327.891C548.685 327.072 550.311 326.663 552.135 326.663C554.497 326.663 556.438 327.236 557.958 328.382C559.502 329.528 560.519 331.118 561.011 333.153H557.573C557.245 331.984 556.602 331.06 555.643 330.382C554.708 329.703 553.538 329.364 552.135 329.364C550.311 329.364 548.837 329.996 547.715 331.259C546.592 332.498 546.031 334.264 546.031 336.556C546.031 338.871 546.592 340.66 547.715 341.923C548.837 343.186 550.311 343.818 552.135 343.818C553.538 343.818 554.708 343.49 555.643 342.835C556.579 342.181 557.222 341.245 557.573 340.029H561.011C560.496 341.993 559.467 343.572 557.923 344.765C556.38 345.934 554.45 346.519 552.135 346.519C550.311 346.519 548.685 346.11 547.259 345.291C545.856 344.472 544.756 343.315 543.961 341.818C543.166 340.321 542.768 338.567 542.768 336.556ZM581.828 326.979L570.252 355.254H566.954L570.743 345.993L562.99 326.979H566.533L572.567 342.555L578.531 326.979H581.828Z" fill="url(#paint0_radial_5107_15937)"/>
<path d="M608.843 340.766H598.179L596.214 346.203H592.846L601.687 321.892H605.37L614.176 346.203H610.808L608.843 340.766ZM607.931 338.17L603.511 325.821L599.091 338.17H607.931ZM621.221 321.752V346.203H618.028V321.752H621.221Z" fill="white"/>
<path d="M334.951 129.338L290.256 247.789H272.412L227.716 129.338H244.201L281.419 231.474L318.637 129.338H334.951Z" fill="#F178B6"/>
<path d="M387.767 248.979C379.949 248.979 372.925 247.619 366.694 244.9C360.576 242.068 355.761 238.216 352.248 233.344C348.736 228.359 346.924 222.637 346.81 216.179H363.295C363.861 221.731 366.127 226.433 370.093 230.285C374.171 234.024 380.063 235.893 387.767 235.893C395.131 235.893 400.909 234.08 405.101 230.455C409.406 226.716 411.559 221.958 411.559 216.179C411.559 211.648 410.313 207.965 407.82 205.133C405.328 202.301 402.212 200.148 398.473 198.675C394.735 197.202 389.693 195.616 383.348 193.917C375.531 191.877 369.243 189.838 364.484 187.799C359.839 185.759 355.817 182.587 352.418 178.282C349.133 173.863 347.49 167.972 347.49 160.608C347.49 154.15 349.133 148.428 352.418 143.443C355.704 138.458 360.292 134.606 366.184 131.887C372.189 129.168 379.043 127.808 386.747 127.808C397.85 127.808 406.914 130.584 413.938 136.136C421.076 141.687 425.098 149.051 426.004 158.228H409.01C408.443 153.697 406.064 149.731 401.872 146.332C397.68 142.82 392.129 141.064 385.218 141.064C378.76 141.064 373.491 142.763 369.413 146.162C365.334 149.448 363.295 154.093 363.295 160.098C363.295 164.403 364.484 167.915 366.864 170.634C369.356 173.353 372.359 175.449 375.871 176.922C379.496 178.282 384.538 179.868 390.996 181.681C398.813 183.833 405.101 185.986 409.86 188.139C414.618 190.178 418.697 193.407 422.096 197.825C425.494 202.131 427.194 208.022 427.194 215.5C427.194 221.278 425.664 226.716 422.605 231.814C419.546 236.913 415.015 241.048 409.01 244.22C403.005 247.393 395.924 248.979 387.767 248.979Z" fill="#7879F1"/>
<path d="M46.5693 45.7361V63.8028C46.5693 65.8141 45.9496 67.4278 44.71 68.6439C43.4705 69.8367 41.8334 70.4331 39.7987 70.4331C37.7406 70.4331 36.0918 69.825 34.8523 68.6089C33.6128 67.3693 32.993 65.6855 32.993 63.5572H36.1854C36.2088 64.75 36.5128 65.7205 37.0975 66.4689C37.7055 67.2173 38.606 67.5915 39.7987 67.5915C40.9915 67.5915 41.8802 67.2407 42.4648 66.5391C43.0495 65.8141 43.3419 64.902 43.3419 63.8028V45.7361H46.5693ZM67.3117 64.75H56.6471L54.6826 70.1875H51.3148L60.1552 45.8764H63.8387L72.644 70.1875H69.2763L67.3117 64.75ZM66.3996 62.154L61.9794 49.8055L57.5592 62.154H66.3996ZM84.2498 70.4331C82.6361 70.4331 81.186 70.1524 79.8997 69.5911C78.6368 69.0064 77.6429 68.2113 76.9179 67.2056C76.1929 66.1766 75.8187 64.9955 75.7953 63.6625H79.1981C79.3151 64.8084 79.7828 65.779 80.6014 66.5742C81.4433 67.3459 82.6594 67.7318 84.2498 67.7318C85.7699 67.7318 86.9627 67.3576 87.828 66.6092C88.7167 65.8375 89.1611 64.8552 89.1611 63.6625C89.1611 62.727 88.9038 61.9669 88.3893 61.3822C87.8748 60.7975 87.2316 60.3532 86.4599 60.0491C85.6881 59.7451 84.6474 59.4177 83.3377 59.0669C81.7239 58.6459 80.426 58.2249 79.4437 57.8039C78.4848 57.383 77.6546 56.7281 76.9529 55.8394C76.2747 54.9273 75.9356 53.7112 75.9356 52.191C75.9356 50.8579 76.2747 49.6769 76.9529 48.6478C77.6312 47.6188 78.5784 46.8236 79.7945 46.2623C81.034 45.701 82.449 45.4204 84.0393 45.4204C86.3312 45.4204 88.2022 45.9934 89.6522 47.1393C91.1256 48.2853 91.9559 49.8055 92.143 51.6999H88.6349C88.5179 50.7644 88.0268 49.9458 87.1615 49.2442C86.2962 48.5192 85.1502 48.1567 83.7236 48.1567C82.3905 48.1567 81.303 48.5075 80.461 49.2091C79.6191 49.8873 79.1981 50.8462 79.1981 52.0858C79.1981 52.9745 79.4437 53.6995 79.9348 54.2608C80.4493 54.8221 81.0691 55.2547 81.7941 55.5588C82.5425 55.8394 83.5832 56.1668 84.9163 56.541C86.53 56.9854 87.828 57.4297 88.8103 57.8741C89.7926 58.2951 90.6345 58.9616 91.3361 59.8737C92.0377 60.7624 92.3885 61.9786 92.3885 63.5221C92.3885 64.7149 92.0728 65.8375 91.4414 66.8899C90.8099 67.9423 89.8744 68.796 88.6349 69.4508C87.3954 70.1056 85.9337 70.4331 84.2498 70.4331ZM113.434 52.8926C113.434 54.9273 112.732 56.6229 111.329 57.9793C109.949 59.3124 107.833 59.979 104.98 59.979H100.279V70.1875H97.0864V45.7361H104.98C107.739 45.7361 109.832 46.4026 111.259 47.7357C112.709 49.0688 113.434 50.7878 113.434 52.8926ZM104.98 57.3479C106.757 57.3479 108.067 56.962 108.909 56.1902C109.751 55.4184 110.172 54.3192 110.172 52.8926C110.172 49.8757 108.441 48.3672 104.98 48.3672H100.279V57.3479H104.98ZM120.594 48.3321V56.5059H129.505V59.137H120.594V67.5564H130.557V70.1875H117.402V45.701H130.557V48.3321H120.594ZM148.262 70.1875L142.439 60.1894H138.58V70.1875H135.388V45.7361H143.281C145.128 45.7361 146.684 46.0518 147.947 46.6833C149.233 47.3147 150.192 48.1684 150.823 49.2442C151.455 50.32 151.77 51.5478 151.77 52.9277C151.77 54.6116 151.279 56.0967 150.297 57.383C149.338 58.6693 147.888 59.5229 145.947 59.9439L152.086 70.1875H148.262ZM138.58 57.6285H143.281C145.011 57.6285 146.309 57.2076 147.175 56.3656C148.04 55.5003 148.473 54.3543 148.473 52.9277C148.473 51.4777 148.04 50.3551 147.175 49.5599C146.333 48.7648 145.035 48.3672 143.281 48.3672H138.58V57.6285ZM180.537 64.75H169.872L167.908 70.1875H164.54L173.38 45.8764H177.064L185.869 70.1875H182.501L180.537 64.75ZM179.625 62.154L175.204 49.8055L170.784 62.154H179.625ZM192.914 45.7361V70.1875H189.722V45.7361H192.914Z" fill="url(#paint1_radial_5107_15937)"/>
<g opacity="0.3">
<path d="M330.975 187.561L351.039 170.805L341.284 173.353L311.466 192.495L291.402 209.251L301.156 206.703L330.975 187.561Z" stroke="url(#paint2_linear_5107_15937)" stroke-width="0.924706" stroke-miterlimit="10"/>
<path d="M330.975 187.561L351.039 170.805L341.284 173.353L311.466 192.495L291.402 209.251L301.156 206.703L330.975 187.561Z" stroke="url(#paint3_linear_5107_15937)" stroke-opacity="0.4" stroke-width="0.924706" stroke-miterlimit="10"/>
<path d="M330.975 187.561L351.039 170.805L341.284 173.353L311.466 192.495L291.402 209.251L301.156 206.703L330.975 187.561Z" stroke="url(#paint4_linear_5107_15937)" stroke-width="0.924706" stroke-miterlimit="10"/>
<path d="M331.332 187.662L353.086 169.938L342.971 172.32L310.983 192.427L289.229 210.151L299.464 207.769L331.332 187.662Z" stroke="url(#paint5_linear_5107_15937)" stroke-width="0.924706" stroke-miterlimit="10"/>
<path d="M331.332 187.662L353.086 169.938L342.971 172.32L310.983 192.427L289.229 210.151L299.464 207.769L331.332 187.662Z" stroke="url(#paint6_linear_5107_15937)" stroke-opacity="0.4" stroke-width="0.924706" stroke-miterlimit="10"/>
<path d="M331.332 187.662L353.086 169.938L342.971 172.32L310.983 192.427L289.229 210.151L299.464 207.769L331.332 187.662Z" stroke="url(#paint7_linear_5107_15937)" stroke-width="0.924706" stroke-miterlimit="10"/>
<path d="M331.694 187.75L355.258 168.977L344.784 171.194L310.624 192.347L287.061 211.121L297.535 208.903L331.694 187.75Z" stroke="url(#paint8_linear_5107_15937)" stroke-width="0.924706" stroke-miterlimit="10"/>
<path d="M331.694 187.75L355.258 168.977L344.784 171.194L310.624 192.347L287.061 211.121L297.535 208.903L331.694 187.75Z" stroke="url(#paint9_linear_5107_15937)" stroke-opacity="0.4" stroke-width="0.924706" stroke-miterlimit="10"/>
<path d="M331.694 187.75L355.258 168.977L344.784 171.194L310.624 192.347L287.061 211.121L297.535 208.903L331.694 187.75Z" stroke="url(#paint10_linear_5107_15937)" stroke-width="0.924706" stroke-miterlimit="10"/>
<path d="M332.064 187.898L357.68 167.914L346.725 170.047L310.275 192.164L284.78 212.149L295.614 210.015L332.064 187.898Z" stroke="url(#paint11_linear_5107_15937)" stroke-width="0.924706" stroke-miterlimit="10"/>
<path d="M332.064 187.898L357.68 167.914L346.725 170.047L310.275 192.164L284.78 212.149L295.614 210.015L332.064 187.898Z" stroke="url(#paint12_linear_5107_15937)" stroke-opacity="0.4" stroke-width="0.924706" stroke-miterlimit="10"/>
<path d="M332.064 187.898L357.68 167.914L346.725 170.047L310.275 192.164L284.78 212.149L295.614 210.015L332.064 187.898Z" stroke="url(#paint13_linear_5107_15937)" stroke-width="0.924706" stroke-miterlimit="10"/>
<path d="M332.45 188.147L360.117 166.953L348.804 168.839L309.943 191.92L282.276 213.114L293.59 211.228L332.45 188.147Z" stroke="url(#paint14_linear_5107_15937)" stroke-width="0.924706" stroke-miterlimit="10"/>
<path d="M332.45 188.147L360.117 166.953L348.804 168.839L309.943 191.92L282.276 213.114L293.59 211.228L332.45 188.147Z" stroke="url(#paint15_linear_5107_15937)" stroke-opacity="0.4" stroke-width="0.924706" stroke-miterlimit="10"/>
<path d="M332.45 188.147L360.117 166.953L348.804 168.839L309.943 191.92L282.276 213.114L293.59 211.228L332.45 188.147Z" stroke="url(#paint16_linear_5107_15937)" stroke-width="0.924706" stroke-miterlimit="10"/>
<path d="M332.929 188.385L362.648 165.898L351.095 167.62L309.584 191.663L279.744 214.148L291.418 212.428L332.929 188.385Z" stroke="url(#paint17_linear_5107_15937)" stroke-width="0.924706" stroke-miterlimit="10"/>
<path d="M332.929 188.385L362.648 165.898L351.095 167.62L309.584 191.663L279.744 214.148L291.418 212.428L332.929 188.385Z" stroke="url(#paint18_linear_5107_15937)" stroke-opacity="0.4" stroke-width="0.924706" stroke-miterlimit="10"/>
<path d="M332.929 188.385L362.648 165.898L351.095 167.62L309.584 191.663L279.744 214.148L291.418 212.428L332.929 188.385Z" stroke="url(#paint19_linear_5107_15937)" stroke-width="0.924706" stroke-miterlimit="10"/>
<path d="M333.267 188.632L365.398 164.938L353.367 166.329L309.203 191.416L276.952 215.11L288.983 213.718L333.267 188.632Z" stroke="url(#paint20_linear_5107_15937)" stroke-width="0.924706" stroke-miterlimit="10"/>
<path d="M333.267 188.632L365.398 164.938L353.367 166.329L309.203 191.416L276.952 215.11L288.983 213.718L333.267 188.632Z" stroke="url(#paint21_linear_5107_15937)" stroke-opacity="0.4" stroke-width="0.924706" stroke-miterlimit="10"/>
<path d="M333.267 188.632L365.398 164.938L353.367 166.329L309.203 191.416L276.952 215.11L288.983 213.718L333.267 188.632Z" stroke="url(#paint22_linear_5107_15937)" stroke-width="0.924706" stroke-miterlimit="10"/>
<path d="M333.504 188.97L368.289 163.906L355.899 164.97L308.843 191.098L274.178 216.163L286.569 215.1L333.504 188.97Z" stroke="url(#paint23_linear_5107_15937)" stroke-width="0.924706" stroke-miterlimit="10"/>
<path d="M333.504 188.97L368.289 163.906L355.899 164.97L308.843 191.098L274.178 216.163L286.569 215.1L333.504 188.97Z" stroke="url(#paint24_linear_5107_15937)" stroke-opacity="0.4" stroke-width="0.924706" stroke-miterlimit="10"/>
<path d="M333.504 188.97L368.289 163.906L355.899 164.97L308.843 191.098L274.178 216.163L286.569 215.1L333.504 188.97Z" stroke="url(#paint25_linear_5107_15937)" stroke-width="0.924706" stroke-miterlimit="10"/>
<path d="M333.838 189.294L371.156 162.859L358.527 163.595L308.46 190.765L271.141 217.199L283.89 216.465L333.838 189.294Z" stroke="url(#paint26_linear_5107_15937)" stroke-width="0.924706" stroke-miterlimit="10"/>
<path d="M333.838 189.294L371.156 162.859L358.527 163.595L308.46 190.765L271.141 217.199L283.89 216.465L333.838 189.294Z" stroke="url(#paint27_linear_5107_15937)" stroke-opacity="0.4" stroke-width="0.924706" stroke-miterlimit="10"/>
<path d="M333.838 189.294L371.156 162.859L358.527 163.595L308.46 190.765L271.141 217.199L283.89 216.465L333.838 189.294Z" stroke="url(#paint28_linear_5107_15937)" stroke-width="0.924706" stroke-miterlimit="10"/>
<path d="M334.211 189.706L374.305 161.82L361.318 162.146L308.238 190.357L268.024 218.241L281.011 217.916L334.211 189.706Z" stroke="url(#paint29_linear_5107_15937)" stroke-width="0.924706" stroke-miterlimit="10"/>
<path d="M334.211 189.706L374.305 161.82L361.318 162.146L308.238 190.357L268.024 218.241L281.011 217.916L334.211 189.706Z" stroke="url(#paint30_linear_5107_15937)" stroke-opacity="0.4" stroke-width="0.924706" stroke-miterlimit="10"/>
<path d="M334.211 189.706L374.305 161.82L361.318 162.146L308.238 190.357L268.024 218.241L281.011 217.916L334.211 189.706Z" stroke="url(#paint31_linear_5107_15937)" stroke-width="0.924706" stroke-miterlimit="10"/>
<path d="M334.446 190.205L377.554 160.871L364.33 160.705L307.877 189.874L264.769 219.208L277.993 219.373L334.446 190.205Z" stroke="url(#paint32_linear_5107_15937)" stroke-width="0.924706" stroke-miterlimit="10"/>
<path d="M334.446 190.205L377.554 160.871L364.33 160.705L307.877 189.874L264.769 219.208L277.993 219.373L334.446 190.205Z" stroke="url(#paint33_linear_5107_15937)" stroke-opacity="0.4" stroke-width="0.924706" stroke-miterlimit="10"/>
<path d="M334.446 190.205L377.554 160.871L364.33 160.705L307.877 189.874L264.769 219.208L277.993 219.373L334.446 190.205Z" stroke="url(#paint34_linear_5107_15937)" stroke-width="0.924706" stroke-miterlimit="10"/>
<path d="M334.706 190.709L380.95 159.844L367.488 159.188L307.662 189.395L261.418 220.26L274.88 220.916L334.706 190.709Z" stroke="url(#paint35_linear_5107_15937)" stroke-width="0.924706" stroke-miterlimit="10"/>
<path d="M334.706 190.709L380.95 159.844L367.488 159.188L307.662 189.395L261.418 220.26L274.88 220.916L334.706 190.709Z" stroke="url(#paint36_linear_5107_15937)" stroke-opacity="0.4" stroke-width="0.924706" stroke-miterlimit="10"/>
<path d="M334.706 190.709L380.95 159.844L367.488 159.188L307.662 189.395L261.418 220.26L274.88 220.916L334.706 190.709Z" stroke="url(#paint37_linear_5107_15937)" stroke-width="0.924706" stroke-miterlimit="10"/>
<path d="M334.911 191.322L384.531 158.848L370.833 157.538L307.395 188.701L257.774 221.175L271.592 222.486L334.911 191.322Z" stroke="url(#paint38_linear_5107_15937)" stroke-width="0.924706" stroke-miterlimit="10"/>
<path d="M334.911 191.322L384.531 158.848L370.833 157.538L307.395 188.701L257.774 221.175L271.592 222.486L334.911 191.322Z" stroke="url(#paint39_linear_5107_15937)" stroke-opacity="0.4" stroke-width="0.924706" stroke-miterlimit="10"/>
<path d="M334.911 191.322L384.531 158.848L370.833 157.538L307.395 188.701L257.774 221.175L271.592 222.486L334.911 191.322Z" stroke="url(#paint40_linear_5107_15937)" stroke-width="0.924706" stroke-miterlimit="10"/>
<path d="M335.055 191.997L388.293 157.915L374.359 155.951L307.307 188.07L254.189 222.153L268.004 224.116L335.055 191.997Z" stroke="url(#paint41_linear_5107_15937)" stroke-width="0.924706" stroke-miterlimit="10"/>
<path d="M335.055 191.997L388.293 157.915L374.359 155.951L307.307 188.07L254.189 222.153L268.004 224.116L335.055 191.997Z" stroke="url(#paint42_linear_5107_15937)" stroke-opacity="0.4" stroke-width="0.924706" stroke-miterlimit="10"/>
<path d="M335.055 191.997L388.293 157.915L374.359 155.951L307.307 188.07L254.189 222.153L268.004 224.116L335.055 191.997Z" stroke="url(#paint43_linear_5107_15937)" stroke-width="0.924706" stroke-miterlimit="10"/>
<path d="M335.183 192.742L392.038 157.051L378.108 154.271L307.203 187.344L250.348 223.117L264.278 225.815L335.183 192.742Z" stroke="url(#paint44_linear_5107_15937)" stroke-width="0.924706" stroke-miterlimit="10"/>
<path d="M335.183 192.742L392.038 157.051L378.108 154.271L307.203 187.344L250.348 223.117L264.278 225.815L335.183 192.742Z" stroke="url(#paint45_linear_5107_15937)" stroke-opacity="0.4" stroke-width="0.924706" stroke-miterlimit="10"/>
<path d="M335.183 192.742L392.038 157.051L378.108 154.271L307.203 187.344L250.348 223.117L264.278 225.815L335.183 192.742Z" stroke="url(#paint46_linear_5107_15937)" stroke-width="0.924706" stroke-miterlimit="10"/>
<path d="M335.301 193.662L396.134 156.202L382.09 152.606L307.212 186.47L246.379 223.93L260.423 227.526L335.301 193.662Z" stroke="url(#paint47_linear_5107_15937)" stroke-width="0.924706" stroke-miterlimit="10"/>
<path d="M335.301 193.662L396.134 156.202L382.09 152.606L307.212 186.47L246.379 223.93L260.423 227.526L335.301 193.662Z" stroke="url(#paint48_linear_5107_15937)" stroke-opacity="0.4" stroke-width="0.924706" stroke-miterlimit="10"/>
<path d="M335.301 193.662L396.134 156.202L382.09 152.606L307.212 186.47L246.379 223.93L260.423 227.526L335.301 193.662Z" stroke="url(#paint49_linear_5107_15937)" stroke-width="0.924706" stroke-miterlimit="10"/>
<path d="M335.29 194.528L400.222 155.381L386.184 150.887L307.213 185.541L242.161 224.687L256.199 229.18L335.29 194.528Z" stroke="url(#paint50_linear_5107_15937)" stroke-width="0.924706" stroke-miterlimit="10"/>
<path d="M335.29 194.528L400.222 155.381L386.184 150.887L307.213 185.541L242.161 224.687L256.199 229.18L335.29 194.528Z" stroke="url(#paint51_linear_5107_15937)" stroke-opacity="0.4" stroke-width="0.924706" stroke-miterlimit="10"/>
<path d="M335.29 194.528L400.222 155.381L386.184 150.887L307.213 185.541L242.161 224.687L256.199 229.18L335.29 194.528Z" stroke="url(#paint52_linear_5107_15937)" stroke-width="0.924706" stroke-miterlimit="10"/>
<path d="M335.139 195.589L404.411 154.594L390.499 149.123L307.196 184.483L237.924 225.478L251.836 230.949L335.139 195.589Z" stroke="url(#paint53_linear_5107_15937)" stroke-width="0.924706" stroke-miterlimit="10"/>
<path d="M335.139 195.589L404.411 154.594L390.499 149.123L307.196 184.483L237.924 225.478L251.836 230.949L335.139 195.589Z" stroke="url(#paint54_linear_5107_15937)" stroke-opacity="0.4" stroke-width="0.924706" stroke-miterlimit="10"/>
<path d="M335.139 195.589L404.411 154.594L390.499 149.123L307.196 184.483L237.924 225.478L251.836 230.949L335.139 195.589Z" stroke="url(#paint55_linear_5107_15937)" stroke-width="0.924706" stroke-miterlimit="10"/>
<path d="M335.005 196.723L408.857 153.962L395.072 147.35L307.437 183.335L233.465 226.095L247.249 232.789L335.005 196.723Z" stroke="url(#paint56_linear_5107_15937)" stroke-width="0.924706" stroke-miterlimit="10"/>
<path d="M335.005 196.723L408.857 153.962L395.072 147.35L307.437 183.335L233.465 226.095L247.249 232.789L335.005 196.723Z" stroke="url(#paint57_linear_5107_15937)" stroke-opacity="0.4" stroke-width="0.924706" stroke-miterlimit="10"/>
<path d="M335.005 196.723L408.857 153.962L395.072 147.35L307.437 183.335L233.465 226.095L247.249 232.789L335.005 196.723Z" stroke="url(#paint58_linear_5107_15937)" stroke-width="0.924706" stroke-miterlimit="10"/>
<path d="M334.658 197.971L413.45 153.447L399.914 145.531L307.706 182.14L229.034 226.664L242.449 234.579L334.658 197.971Z" stroke="url(#paint59_linear_5107_15937)" stroke-width="0.924706" stroke-miterlimit="10"/>
<path d="M334.658 197.971L413.45 153.447L399.914 145.531L307.706 182.14L229.034 226.664L242.449 234.579L334.658 197.971Z" stroke="url(#paint60_linear_5107_15937)" stroke-opacity="0.4" stroke-width="0.924706" stroke-miterlimit="10"/>
<path d="M334.658 197.971L413.45 153.447L399.914 145.531L307.706 182.14L229.034 226.664L242.449 234.579L334.658 197.971Z" stroke="url(#paint61_linear_5107_15937)" stroke-width="0.924706" stroke-miterlimit="10"/>
<path d="M334.306 199.404L418.16 153.037L404.994 143.737L308.095 180.642L224.361 227.01L237.407 236.31L334.306 199.404Z" stroke="url(#paint62_linear_5107_15937)" stroke-width="0.924706" stroke-miterlimit="10"/>
<path d="M334.306 199.404L418.16 153.037L404.994 143.737L308.095 180.642L224.361 227.01L237.407 236.31L334.306 199.404Z" stroke="url(#paint63_linear_5107_15937)" stroke-opacity="0.4" stroke-width="0.924706" stroke-miterlimit="10"/>
<path d="M334.306 199.404L418.16 153.037L404.994 143.737L308.095 180.642L224.361 227.01L237.407 236.31L334.306 199.404Z" stroke="url(#paint64_linear_5107_15937)" stroke-width="0.924706" stroke-miterlimit="10"/>
<path d="M333.8 200.863L422.955 152.735L410.28 141.888L308.569 179.171L219.534 227.3L232.209 238.147L333.8 200.863Z" stroke="url(#paint65_linear_5107_15937)" stroke-width="0.924706" stroke-miterlimit="10"/>
<path d="M333.8 200.863L422.955 152.735L410.28 141.888L308.569 179.171L219.534 227.3L232.209 238.147L333.8 200.863Z" stroke="url(#paint66_linear_5107_15937)" stroke-opacity="0.4" stroke-width="0.924706" stroke-miterlimit="10"/>
<path d="M333.8 200.863L422.955 152.735L410.28 141.888L308.569 179.171L219.534 227.3L232.209 238.147L333.8 200.863Z" stroke="url(#paint67_linear_5107_15937)" stroke-width="0.924706" stroke-miterlimit="10"/>
<path d="M333.156 202.605L427.733 152.635L415.79 140.08L309.149 177.495L214.571 227.465L226.635 240.02L333.156 202.605Z" stroke="url(#paint68_linear_5107_15937)" stroke-width="0.924706" stroke-miterlimit="10"/>
<path d="M333.156 202.605L427.733 152.635L415.79 140.08L309.149 177.495L214.571 227.465L226.635 240.02L333.156 202.605Z" stroke="url(#paint69_linear_5107_15937)" stroke-opacity="0.4" stroke-width="0.924706" stroke-miterlimit="10"/>
<path d="M333.156 202.605L427.733 152.635L415.79 140.08L309.149 177.495L214.571 227.465L226.635 240.02L333.156 202.605Z" stroke="url(#paint70_linear_5107_15937)" stroke-width="0.924706" stroke-miterlimit="10"/>
<path d="M332.471 204.45L432.831 152.722L421.621 138.296L309.931 175.597L209.571 227.324L220.902 241.751L332.471 204.45Z" stroke="url(#paint71_linear_5107_15937)" stroke-width="0.924706" stroke-miterlimit="10"/>
<path d="M332.471 204.45L432.831 152.722L421.621 138.296L309.931 175.597L209.571 227.324L220.902 241.751L332.471 204.45Z" stroke="url(#paint72_linear_5107_15937)" stroke-opacity="0.4" stroke-width="0.924706" stroke-miterlimit="10"/>
<path d="M332.471 204.45L432.831 152.722L421.621 138.296L309.931 175.597L209.571 227.324L220.902 241.751L332.471 204.45Z" stroke="url(#paint73_linear_5107_15937)" stroke-width="0.924706" stroke-miterlimit="10"/>
<path d="M331.585 206.413L437.966 153.011L427.611 136.551L310.872 173.657L204.49 227.059L214.846 243.519L331.585 206.413Z" stroke="url(#paint74_linear_5107_15937)" stroke-width="0.924706" stroke-miterlimit="10"/>
<path d="M331.585 206.413L437.966 153.011L427.611 136.551L310.872 173.657L204.49 227.059L214.846 243.519L331.585 206.413Z" stroke="url(#paint75_linear_5107_15937)" stroke-opacity="0.4" stroke-width="0.924706" stroke-miterlimit="10"/>
<path d="M331.585 206.413L437.966 153.011L427.611 136.551L310.872 173.657L204.49 227.059L214.846 243.519L331.585 206.413Z" stroke="url(#paint76_linear_5107_15937)" stroke-width="0.924706" stroke-miterlimit="10"/>
<path d="M330.472 208.617L443.117 153.459L433.857 134.886L311.952 171.47L199.187 226.626L208.447 245.2L330.472 208.617Z" stroke="url(#paint77_linear_5107_15937)" stroke-width="0.924706" stroke-miterlimit="10"/>
<path d="M330.472 208.617L443.117 153.459L433.857 134.886L311.952 171.47L199.187 226.626L208.447 245.2L330.472 208.617Z" stroke="url(#paint78_linear_5107_15937)" stroke-opacity="0.4" stroke-width="0.924706" stroke-miterlimit="10"/>
<path d="M330.472 208.617L443.117 153.459L433.857 134.886L311.952 171.47L199.187 226.626L208.447 245.2L330.472 208.617Z" stroke="url(#paint79_linear_5107_15937)" stroke-width="0.924706" stroke-miterlimit="10"/>
<path d="M329.154 211.062L448.422 154.234L440.379 133.222L313.189 169.038L194.041 225.867L201.963 246.879L329.154 211.062Z" stroke="url(#paint80_linear_5107_15937)" stroke-width="0.924706" stroke-miterlimit="10"/>
<path d="M329.154 211.062L448.422 154.234L440.379 133.222L313.189 169.038L194.041 225.867L201.963 246.879L329.154 211.062Z" stroke="url(#paint81_linear_5107_15937)" stroke-opacity="0.4" stroke-width="0.924706" stroke-miterlimit="10"/>
<path d="M329.154 211.062L448.422 154.234L440.379 133.222L313.189 169.038L194.041 225.867L201.963 246.879L329.154 211.062Z" stroke="url(#paint82_linear_5107_15937)" stroke-width="0.924706" stroke-miterlimit="10"/>
<path d="M327.594 213.643L453.726 155.227L447.263 131.614L314.788 166.418L188.777 224.835L195.12 248.447L327.594 213.643Z" stroke="url(#paint83_linear_5107_15937)" stroke-width="0.924706" stroke-miterlimit="10"/>
<path d="M327.594 213.643L453.726 155.227L447.263 131.614L314.788 166.418L188.777 224.835L195.12 248.447L327.594 213.643Z" stroke="url(#paint84_linear_5107_15937)" stroke-opacity="0.4" stroke-width="0.924706" stroke-miterlimit="10"/>
<path d="M327.594 213.643L453.726 155.227L447.263 131.614L314.788 166.418L188.777 224.835L195.12 248.447L327.594 213.643Z" stroke="url(#paint85_linear_5107_15937)" stroke-width="0.924706" stroke-miterlimit="10"/>
<path d="M325.882 216.495L458.997 156.574L454.235 130.117L316.479 163.583L183.365 223.504L188.127 249.961L325.882 216.495Z" stroke="url(#paint86_linear_5107_15937)" stroke-width="0.924706" stroke-miterlimit="10"/>
<path d="M325.882 216.495L458.997 156.574L454.235 130.117L316.479 163.583L183.365 223.504L188.127 249.961L325.882 216.495Z" stroke="url(#paint87_linear_5107_15937)" stroke-opacity="0.4" stroke-width="0.924706" stroke-miterlimit="10"/>
<path d="M325.882 216.495L458.997 156.574L454.235 130.117L316.479 163.583L183.365 223.504L188.127 249.961L325.882 216.495Z" stroke="url(#paint88_linear_5107_15937)" stroke-width="0.924706" stroke-miterlimit="10"/>
<path d="M323.937 219.592L464.274 158.248L461.576 128.786L318.541 160.506L178.083 221.849L180.782 251.31L323.937 219.592Z" stroke="url(#paint89_linear_5107_15937)" stroke-width="0.924706" stroke-miterlimit="10"/>
<path d="M323.937 219.592L464.274 158.248L461.576 128.786L318.541 160.506L178.083 221.849L180.782 251.31L323.937 219.592Z" stroke="url(#paint90_linear_5107_15937)" stroke-opacity="0.4" stroke-width="0.924706" stroke-miterlimit="10"/>
<path d="M323.937 219.592L464.274 158.248L461.576 128.786L318.541 160.506L178.083 221.849L180.782 251.31L323.937 219.592Z" stroke="url(#paint91_linear_5107_15937)" stroke-width="0.924706" stroke-miterlimit="10"/>
<path d="M321.654 222.896L469.573 160.376L469.18 127.504L320.868 157.151L172.829 219.669L173.222 252.542L321.654 222.896Z" stroke="url(#paint92_linear_5107_15937)" stroke-width="0.924706" stroke-miterlimit="10"/>
<path d="M321.654 222.896L469.573 160.376L469.18 127.504L320.868 157.151L172.829 219.669L173.222 252.542L321.654 222.896Z" stroke="url(#paint93_linear_5107_15937)" stroke-opacity="0.4" stroke-width="0.924706" stroke-miterlimit="10"/>
<path d="M321.654 222.896L469.573 160.376L469.18 127.504L320.868 157.151L172.829 219.669L173.222 252.542L321.654 222.896Z" stroke="url(#paint94_linear_5107_15937)" stroke-width="0.924706" stroke-miterlimit="10"/>
<path d="M318.945 226.47L474.806 162.859L476.961 126.414L323.375 153.581L167.634 217.192L165.359 253.636L318.945 226.47Z" stroke="url(#paint95_linear_5107_15937)" stroke-width="0.924706" stroke-miterlimit="10"/>
<path d="M318.945 226.47L474.806 162.859L476.961 126.414L323.375 153.581L167.634 217.192L165.359 253.636L318.945 226.47Z" stroke="url(#paint96_linear_5107_15937)" stroke-opacity="0.4" stroke-width="0.924706" stroke-miterlimit="10"/>
<path d="M318.945 226.47L474.806 162.859L476.961 126.414L323.375 153.581L167.634 217.192L165.359 253.636L318.945 226.47Z" stroke="url(#paint97_linear_5107_15937)" stroke-width="0.924706" stroke-miterlimit="10"/>
<path d="M316.052 230.369L479.854 165.911L485.039 125.57L326.302 149.686L162.5 214.144L157.436 254.486L316.052 230.369Z" stroke="url(#paint98_linear_5107_15937)" stroke-width="0.924706" stroke-miterlimit="10"/>
<path d="M316.052 230.369L479.854 165.911L485.039 125.57L326.302 149.686L162.5 214.144L157.436 254.486L316.052 230.369Z" stroke="url(#paint99_linear_5107_15937)" stroke-opacity="0.4" stroke-width="0.924706" stroke-miterlimit="10"/>
<path d="M316.052 230.369L479.854 165.911L485.039 125.57L326.302 149.686L162.5 214.144L157.436 254.486L316.052 230.369Z" stroke="url(#paint100_linear_5107_15937)" stroke-width="0.924706" stroke-miterlimit="10"/>
<path d="M312.779 234.584L484.882 169.363L493.219 124.883L329.575 145.461L157.592 210.682L149.135 255.162L312.779 234.584Z" stroke="url(#paint101_linear_5107_15937)" stroke-width="0.924706" stroke-miterlimit="10"/>
<path d="M312.779 234.584L484.882 169.363L493.219 124.883L329.575 145.461L157.592 210.682L149.135 255.162L312.779 234.584Z" stroke="url(#paint102_linear_5107_15937)" stroke-opacity="0.4" stroke-width="0.924706" stroke-miterlimit="10"/>
<path d="M312.779 234.584L484.882 169.363L493.219 124.883L329.575 145.461L157.592 210.682L149.135 255.162L312.779 234.584Z" stroke="url(#paint103_linear_5107_15937)" stroke-width="0.924706" stroke-miterlimit="10"/>
<path d="M309.007 239.134L489.649 173.478L501.742 124.453L333.315 140.922L152.794 206.579L140.58 255.603L309.007 239.134Z" stroke="url(#paint104_linear_5107_15937)" stroke-width="0.924706" stroke-miterlimit="10"/>
<path d="M309.007 239.134L489.649 173.478L501.742 124.453L333.315 140.922L152.794 206.579L140.58 255.603L309.007 239.134Z" stroke="url(#paint105_linear_5107_15937)" stroke-opacity="0.4" stroke-width="0.924706" stroke-miterlimit="10"/>
<path d="M309.007 239.134L489.649 173.478L501.742 124.453L333.315 140.922L152.794 206.579L140.58 255.603L309.007 239.134Z" stroke="url(#paint106_linear_5107_15937)" stroke-width="0.924706" stroke-miterlimit="10"/>
<path d="M304.879 244.004L494.178 178.239L510.391 124.266L337.424 136.057L148.125 201.821L131.913 255.795L304.879 244.004Z" stroke="url(#paint107_linear_5107_15937)" stroke-width="0.924706" stroke-miterlimit="10"/>
<path d="M304.879 244.004L494.178 178.239L510.391 124.266L337.424 136.057L148.125 201.821L131.913 255.795L304.879 244.004Z" stroke="url(#paint108_linear_5107_15937)" stroke-opacity="0.4" stroke-width="0.924706" stroke-miterlimit="10"/>
<path d="M304.879 244.004L494.178 178.239L510.391 124.266L337.424 136.057L148.125 201.821L131.913 255.795L304.879 244.004Z" stroke="url(#paint109_linear_5107_15937)" stroke-width="0.924706" stroke-miterlimit="10"/>
<path d="M300.318 249.263L498.514 183.637L519.328 124.391L342.068 130.772L143.993 196.399L123.058 255.644L300.318 249.263Z" stroke="url(#paint110_linear_5107_15937)" stroke-width="0.924706" stroke-miterlimit="10"/>
<path d="M300.318 249.263L498.514 183.637L519.328 124.391L342.068 130.772L143.993 196.399L123.058 255.644L300.318 249.263Z" stroke="url(#paint111_linear_5107_15937)" stroke-opacity="0.4" stroke-width="0.924706" stroke-miterlimit="10"/>
<path d="M300.318 249.263L498.514 183.637L519.328 124.391L342.068 130.772L143.993 196.399L123.058 255.644L300.318 249.263Z" stroke="url(#paint112_linear_5107_15937)" stroke-width="0.924706" stroke-miterlimit="10"/>
<path d="M295.188 254.964L502.397 189.884L528.297 124.961L347.108 125.118L140.02 190.199L113.999 255.122L295.188 254.964Z" stroke="url(#paint113_linear_5107_15937)" stroke-width="0.924706" stroke-miterlimit="10"/>
<path d="M295.188 254.964L502.397 189.884L528.297 124.961L347.108 125.118L140.02 190.199L113.999 255.122L295.188 254.964Z" stroke="url(#paint114_linear_5107_15937)" stroke-opacity="0.4" stroke-width="0.924706" stroke-miterlimit="10"/>
<path d="M295.188 254.964L502.397 189.884L528.297 124.961L347.108 125.118L140.02 190.199L113.999 255.122L295.188 254.964Z" stroke="url(#paint115_linear_5107_15937)" stroke-width="0.924706" stroke-miterlimit="10"/>
<path d="M289.615 261.027L505.835 196.901L537.425 125.897L352.794 119.018L136.454 183.143L104.864 254.147L289.615 261.027Z" stroke="url(#paint116_linear_5107_15937)" stroke-width="0.924706" stroke-miterlimit="10"/>
<path d="M289.615 261.027L505.835 196.901L537.425 125.897L352.794 119.018L136.454 183.143L104.864 254.147L289.615 261.027Z" stroke="url(#paint117_linear_5107_15937)" stroke-opacity="0.4" stroke-width="0.924706" stroke-miterlimit="10"/>
<path d="M289.615 261.027L505.835 196.901L537.425 125.897L352.794 119.018L136.454 183.143L104.864 254.147L289.615 261.027Z" stroke="url(#paint118_linear_5107_15937)" stroke-width="0.924706" stroke-miterlimit="10"/>
<path d="M283.35 267.594L508.94 204.833L546.703 127.261L358.996 112.451L133.527 175.213L95.6439 252.784L283.35 267.594Z" stroke="url(#paint119_linear_5107_15937)" stroke-width="0.924706" stroke-miterlimit="10"/>
<path d="M283.35 267.594L508.94 204.833L546.703 127.261L358.996 112.451L133.527 175.213L95.6439 252.784L283.35 267.594Z" stroke="url(#paint120_linear_5107_15937)" stroke-opacity="0.4" stroke-width="0.924706" stroke-miterlimit="10"/>
<path d="M283.35 267.594L508.94 204.833L546.703 127.261L358.996 112.451L133.527 175.213L95.6439 252.784L283.35 267.594Z" stroke="url(#paint121_linear_5107_15937)" stroke-width="0.924706" stroke-miterlimit="10"/>
<path d="M276.461 274.59L511.296 213.764L556.076 129.221L365.901 105.505L131.066 166.332L86.4061 250.875L276.461 274.59Z" stroke="url(#paint122_linear_5107_15937)" stroke-width="0.924706" stroke-miterlimit="10"/>
<path d="M276.461 274.59L511.296 213.764L556.076 129.221L365.901 105.505L131.066 166.332L86.4061 250.875L276.461 274.59Z" stroke="url(#paint123_linear_5107_15937)" stroke-opacity="0.4" stroke-width="0.924706" stroke-miterlimit="10"/>
<path d="M276.461 274.59L511.296 213.764L556.076 129.221L365.901 105.505L131.066 166.332L86.4061 250.875L276.461 274.59Z" stroke="url(#paint124_linear_5107_15937)" stroke-width="0.924706" stroke-miterlimit="10"/>
<path d="M268.924 282.123L513.121 223.802L565.403 131.722L373.488 97.9628L129.291 156.283L77.0088 248.363L268.924 282.123Z" stroke="url(#paint125_linear_5107_15937)" stroke-width="0.924706" stroke-miterlimit="10"/>
<path d="M268.924 282.123L513.121 223.802L565.403 131.722L373.488 97.9628L129.291 156.283L77.0088 248.363L268.924 282.123Z" stroke="url(#paint126_linear_5107_15937)" stroke-opacity="0.4" stroke-width="0.924706" stroke-miterlimit="10"/>
<path d="M268.924 282.123L513.121 223.802L565.403 131.722L373.488 97.9628L129.291 156.283L77.0088 248.363L268.924 282.123Z" stroke="url(#paint127_linear_5107_15937)" stroke-width="0.924706" stroke-miterlimit="10"/>
<path d="M260.565 290.145L514.121 234.901L574.63 134.799L381.703 89.9403L128.268 145.185L67.6387 245.286L260.565 290.145Z" stroke="url(#paint128_linear_5107_15937)" stroke-width="0.924706" stroke-miterlimit="10"/>
<path d="M260.565 290.145L514.121 234.901L574.63 134.799L381.703 89.9403L128.268 145.185L67.6387 245.286L260.565 290.145Z" stroke="url(#paint129_linear_5107_15937)" stroke-opacity="0.4" stroke-width="0.924706" stroke-miterlimit="10"/>
<path d="M260.565 290.145L514.121 234.901L574.63 134.799L381.703 89.9403L128.268 145.185L67.6387 245.286L260.565 290.145Z" stroke="url(#paint130_linear_5107_15937)" stroke-width="0.924706" stroke-miterlimit="10"/>
<path d="M251.53 298.717L514.319 247.284L584.02 138.594L390.932 81.3372L128.142 132.77L58.4413 241.46L251.53 298.717Z" stroke="url(#paint131_linear_5107_15937)" stroke-width="0.924706" stroke-miterlimit="10"/>
<path d="M251.53 298.717L514.319 247.284L584.02 138.594L390.932 81.3372L128.142 132.77L58.4413 241.46L251.53 298.717Z" stroke="url(#paint132_linear_5107_15937)" stroke-opacity="0.4" stroke-width="0.924706" stroke-miterlimit="10"/>
<path d="M251.53 298.717L514.319 247.284L584.02 138.594L390.932 81.3372L128.142 132.77L58.4413 241.46L251.53 298.717Z" stroke="url(#paint133_linear_5107_15937)" stroke-width="0.924706" stroke-miterlimit="10"/>
<path d="M241.493 307.88L513.51 261.073L593.128 143.229L400.848 72.1933L128.951 119.001L49.2127 236.844L241.493 307.88Z" stroke="url(#paint134_linear_5107_15937)" stroke-width="0.924706" stroke-miterlimit="10"/>
<path d="M241.493 307.88L513.51 261.073L593.128 143.229L400.848 72.1933L128.951 119.001L49.2127 236.844L241.493 307.88Z" stroke="url(#paint135_linear_5107_15937)" stroke-opacity="0.4" stroke-width="0.924706" stroke-miterlimit="10"/>
<path d="M241.493 307.88L513.51 261.073L593.128 143.229L400.848 72.1933L128.951 119.001L49.2127 236.844L241.493 307.88Z" stroke="url(#paint136_linear_5107_15937)" stroke-width="0.924706" stroke-miterlimit="10"/>
<path d="M230.608 317.672L511.489 276.304L602.11 148.661L411.73 62.3845L130.849 103.752L40.3489 231.396L230.608 317.672Z" stroke="url(#paint137_linear_5107_15937)" stroke-width="0.924706" stroke-miterlimit="10"/>
<path d="M230.608 317.672L511.489 276.304L602.11 148.661L411.73 62.3845L130.849 103.752L40.3489 231.396L230.608 317.672Z" stroke="url(#paint138_linear_5107_15937)" stroke-opacity="0.4" stroke-width="0.924706" stroke-miterlimit="10"/>
<path d="M230.608 317.672L511.489 276.304L602.11 148.661L411.73 62.3845L130.849 103.752L40.3489 231.396L230.608 317.672Z" stroke="url(#paint139_linear_5107_15937)" stroke-width="0.924706" stroke-miterlimit="10"/>
<path d="M218.755 328.124L508.372 293.173L610.721 155.083L423.574 51.9433L133.958 86.8938L31.6084 224.984L218.755 328.124Z" stroke="url(#paint140_linear_5107_15937)" stroke-width="0.924706" stroke-miterlimit="10"/>
<path d="M218.755 328.124L508.372 293.173L610.721 155.083L423.574 51.9433L133.958 86.8938L31.6084 224.984L218.755 328.124Z" stroke="url(#paint141_linear_5107_15937)" stroke-opacity="0.4" stroke-width="0.924706" stroke-miterlimit="10"/>
<path d="M218.755 328.124L508.372 293.173L610.721 155.083L423.574 51.9433L133.958 86.8938L31.6084 224.984L218.755 328.124Z" stroke="url(#paint142_linear_5107_15937)" stroke-width="0.924706" stroke-miterlimit="10"/>
<path d="M205.834 339.211L503.819 311.736L619.104 162.472L436.523 40.8465L138.658 68.3225L23.2527 217.586L205.834 339.211Z" stroke="url(#paint143_linear_5107_15937)" stroke-width="0.924706" stroke-miterlimit="10"/>
<path d="M205.834 339.211L503.819 311.736L619.104 162.472L436.523 40.8465L138.658 68.3225L23.2527 217.586L205.834 339.211Z" stroke="url(#paint144_linear_5107_15937)" stroke-opacity="0.4" stroke-width="0.924706" stroke-miterlimit="10"/>
<path d="M205.834 339.211L503.819 311.736L619.104 162.472L436.523 40.8465L138.658 68.3225L23.2527 217.586L205.834 339.211Z" stroke="url(#paint145_linear_5107_15937)" stroke-width="0.924706" stroke-miterlimit="10"/>
<path d="M191.762 351.106L497.629 332.082L626.935 171.079L450.495 28.9393L144.628 47.9636L15.3219 208.966L191.762 351.106Z" stroke="url(#paint146_linear_5107_15937)" stroke-width="0.924706" stroke-miterlimit="10"/>
<path d="M191.762 351.106L497.629 332.082L626.935 171.079L450.495 28.9393L144.628 47.9636L15.3219 208.966L191.762 351.106Z" stroke="url(#paint147_linear_5107_15937)" stroke-opacity="0.4" stroke-width="0.924706" stroke-miterlimit="10"/>
<path d="M191.762 351.106L497.629 332.082L626.935 171.079L450.495 28.9393L144.628 47.9636L15.3219 208.966L191.762 351.106Z" stroke="url(#paint148_linear_5107_15937)" stroke-width="0.924706" stroke-miterlimit="10"/>
<path d="M176.593 363.661L489.852 354.471L634.387 180.841L465.783 16.4021L152.644 25.5928L7.98901 199.222L176.593 363.661Z" stroke="url(#paint149_linear_5107_15937)" stroke-width="0.924706" stroke-miterlimit="10"/>
<path d="M176.593 363.661L489.852 354.471L634.387 180.841L465.783 16.4021L152.644 25.5928L7.98901 199.222L176.593 363.661Z" stroke="url(#paint150_linear_5107_15937)" stroke-opacity="0.4" stroke-width="0.924706" stroke-miterlimit="10"/>
<path d="M176.593 363.661L489.852 354.471L634.387 180.841L465.783 16.4021L152.644 25.5928L7.98901 199.222L176.593 363.661Z" stroke="url(#paint151_linear_5107_15937)" stroke-width="0.924706" stroke-miterlimit="10"/>
<path d="M160.021 377.014L479.942 379.04L641.153 192.058L482.323 3.04892L162.402 1.02252L1.19077 188.004L160.021 377.014Z" stroke="url(#paint152_linear_5107_15937)" stroke-width="0.924706" stroke-miterlimit="10"/>
<path d="M160.021 377.014L479.942 379.04L641.153 192.058L482.323 3.04892L162.402 1.02252L1.19077 188.004L160.021 377.014Z" stroke="url(#paint153_linear_5107_15937)" stroke-opacity="0.4" stroke-width="0.924706" stroke-miterlimit="10"/>
<path d="M160.021 377.014L479.942 379.04L641.153 192.058L482.323 3.04892L162.402 1.02252L1.19077 188.004L160.021 377.014Z" stroke="url(#paint154_linear_5107_15937)" stroke-width="0.924706" stroke-miterlimit="10"/>
</g>
<defs>
<radialGradient id="paint0_radial_5107_15937" cx="0" cy="0" r="1" gradientUnits="userSpaceOnUse" gradientTransform="translate(492.894 333.703) rotate(11.4304) scale(133.718 51.9488)">
<stop offset="0.3" stop-color="white"/>
<stop offset="0.847702" stop-color="white" stop-opacity="0.5"/>
</radialGradient>
<radialGradient id="paint1_radial_5107_15937" cx="0" cy="0" r="1" gradientUnits="userSpaceOnUse" gradientTransform="translate(155.8 57.6875) rotate(12.0401) scale(127.04 51.8341)">
<stop offset="0.3" stop-color="white"/>
<stop offset="0.847702" stop-color="white" stop-opacity="0.5"/>
</radialGradient>
<linearGradient id="paint2_linear_5107_15937" x1="348.74" y1="173.999" x2="326.916" y2="221.043" gradientUnits="userSpaceOnUse">
<stop stop-color="#4664FF"/>
<stop offset="0.868908"/>
</linearGradient>
<linearGradient id="paint3_linear_5107_15937" x1="349.064" y1="171.898" x2="333.347" y2="210.265" gradientUnits="userSpaceOnUse">
<stop stop-color="#C62F94"/>
<stop offset="0.755308"/>
</linearGradient>
<linearGradient id="paint4_linear_5107_15937" x1="345.9" y1="205.282" x2="318.133" y2="157.753" gradientUnits="userSpaceOnUse">
<stop stop-opacity="0"/>
<stop offset="0.994083"/>
</linearGradient>
<linearGradient id="paint5_linear_5107_15937" x1="350.625" y1="173.279" x2="328.133" y2="222.89" gradientUnits="userSpaceOnUse">
<stop stop-color="#4664FF"/>
<stop offset="0.868908"/>
</linearGradient>
<linearGradient id="paint6_linear_5107_15937" x1="350.972" y1="171.081" x2="334.797" y2="211.48" gradientUnits="userSpaceOnUse">
<stop stop-color="#C62F94"/>
<stop offset="0.755308"/>
</linearGradient>
<linearGradient id="paint7_linear_5107_15937" x1="347.589" y1="206.008" x2="318.874" y2="155.691" gradientUnits="userSpaceOnUse">
<stop stop-opacity="0"/>
<stop offset="0.994083"/>
</linearGradient>
<linearGradient id="paint8_linear_5107_15937" x1="352.63" y1="172.478" x2="329.344" y2="224.803" gradientUnits="userSpaceOnUse">
<stop stop-color="#4664FF"/>
<stop offset="0.868908"/>
</linearGradient>
<linearGradient id="paint9_linear_5107_15937" x1="353" y1="170.174" x2="336.274" y2="212.732" gradientUnits="userSpaceOnUse">
<stop stop-color="#C62F94"/>
<stop offset="0.755308"/>
</linearGradient>
<linearGradient id="paint10_linear_5107_15937" x1="349.391" y1="206.785" x2="319.583" y2="153.554" gradientUnits="userSpaceOnUse">
<stop stop-opacity="0"/>
<stop offset="0.994083"/>
</linearGradient>
<linearGradient id="paint11_linear_5107_15937" x1="354.871" y1="171.59" x2="330.72" y2="226.839" gradientUnits="userSpaceOnUse">
<stop stop-color="#4664FF"/>
<stop offset="0.868908"/>
</linearGradient>
<linearGradient id="paint12_linear_5107_15937" x1="355.266" y1="169.171" x2="337.937" y2="214.058" gradientUnits="userSpaceOnUse">
<stop stop-color="#C62F94"/>
<stop offset="0.755308"/>
</linearGradient>
<linearGradient id="paint13_linear_5107_15937" x1="351.412" y1="207.605" x2="320.419" y2="151.236" gradientUnits="userSpaceOnUse">
<stop stop-opacity="0"/>
<stop offset="0.994083"/>
</linearGradient>
<linearGradient id="paint14_linear_5107_15937" x1="357.118" y1="170.79" x2="332.298" y2="228.866" gradientUnits="userSpaceOnUse">
<stop stop-color="#4664FF"/>
<stop offset="0.868908"/>
</linearGradient>
<linearGradient id="paint15_linear_5107_15937" x1="357.54" y1="168.265" x2="339.754" y2="215.384" gradientUnits="userSpaceOnUse">
<stop stop-color="#C62F94"/>
<stop offset="0.755308"/>
</linearGradient>
<linearGradient id="paint16_linear_5107_15937" x1="353.431" y1="208.381" x2="321.479" y2="148.918" gradientUnits="userSpaceOnUse">
<stop stop-opacity="0"/>
<stop offset="0.994083"/>
</linearGradient>
<linearGradient id="paint17_linear_5107_15937" x1="359.454" y1="169.909" x2="333.838" y2="230.963" gradientUnits="userSpaceOnUse">
<stop stop-color="#4664FF"/>
<stop offset="0.868908"/>
</linearGradient>
<linearGradient id="paint18_linear_5107_15937" x1="359.903" y1="167.27" x2="341.566" y2="216.75" gradientUnits="userSpaceOnUse">
<stop stop-color="#C62F94"/>
<stop offset="0.755308"/>
</linearGradient>
<linearGradient id="paint19_linear_5107_15937" x1="355.532" y1="209.209" x2="322.474" y2="146.521" gradientUnits="userSpaceOnUse">
<stop stop-opacity="0"/>
<stop offset="0.994083"/>
</linearGradient>
<linearGradient id="paint20_linear_5107_15937" x1="361.991" y1="169.108" x2="335.817" y2="233.078" gradientUnits="userSpaceOnUse">
<stop stop-color="#4664FF"/>
<stop offset="0.868908"/>
</linearGradient>
<linearGradient id="paint21_linear_5107_15937" x1="362.47" y1="166.363" x2="343.759" y2="218.133" gradientUnits="userSpaceOnUse">
<stop stop-color="#C62F94"/>
<stop offset="0.755308"/>
</linearGradient>
<linearGradient id="paint22_linear_5107_15937" x1="357.812" y1="209.985" x2="323.928" y2="144.058" gradientUnits="userSpaceOnUse">
<stop stop-opacity="0"/>
<stop offset="0.994083"/>
</linearGradient>
<linearGradient id="paint23_linear_5107_15937" x1="364.664" y1="168.251" x2="337.804" y2="235.285" gradientUnits="userSpaceOnUse">
<stop stop-color="#4664FF"/>
<stop offset="0.868908"/>
</linearGradient>
<linearGradient id="paint24_linear_5107_15937" x1="365.173" y1="165.391" x2="345.993" y2="219.578" gradientUnits="userSpaceOnUse">
<stop stop-color="#C62F94"/>
<stop offset="0.755308"/>
</linearGradient>
<linearGradient id="paint25_linear_5107_15937" x1="360.223" y1="210.836" x2="325.362" y2="141.541" gradientUnits="userSpaceOnUse">
<stop stop-opacity="0"/>
<stop offset="0.994083"/>
</linearGradient>
<linearGradient id="paint26_linear_5107_15937" x1="367.304" y1="167.378" x2="339.798" y2="237.502" gradientUnits="userSpaceOnUse">
<stop stop-color="#4664FF"/>
<stop offset="0.868908"/>
</linearGradient>
<linearGradient id="paint27_linear_5107_15937" x1="367.844" y1="164.404" x2="348.224" y2="221.024" gradientUnits="userSpaceOnUse">
<stop stop-color="#C62F94"/>
<stop offset="0.755308"/>
</linearGradient>
<linearGradient id="paint28_linear_5107_15937" x1="362.59" y1="211.671" x2="326.802" y2="138.965" gradientUnits="userSpaceOnUse">
<stop stop-opacity="0"/>
<stop offset="0.994083"/>
</linearGradient>
<linearGradient id="paint29_linear_5107_15937" x1="370.212" y1="166.513" x2="342.12" y2="239.771" gradientUnits="userSpaceOnUse">
<stop stop-color="#4664FF"/>
<stop offset="0.868908"/>
</linearGradient>
<linearGradient id="paint30_linear_5107_15937" x1="370.785" y1="163.424" x2="350.77" y2="222.505" gradientUnits="userSpaceOnUse">
<stop stop-color="#C62F94"/>
<stop offset="0.755308"/>
</linearGradient>
<linearGradient id="paint31_linear_5107_15937" x1="365.209" y1="212.513" x2="328.566" y2="136.323" gradientUnits="userSpaceOnUse">
<stop stop-opacity="0"/>
<stop offset="0.994083"/>
</linearGradient>
<linearGradient id="paint32_linear_5107_15937" x1="373.211" y1="165.655" x2="344.569" y2="242.065" gradientUnits="userSpaceOnUse">
<stop stop-color="#4664FF"/>
<stop offset="0.868908"/>
</linearGradient>
<linearGradient id="paint33_linear_5107_15937" x1="373.82" y1="162.451" x2="353.434" y2="224.005" gradientUnits="userSpaceOnUse">
<stop stop-color="#C62F94"/>
<stop offset="0.755308"/>
</linearGradient>
<linearGradient id="paint34_linear_5107_15937" x1="367.909" y1="213.363" x2="330.456" y2="133.657" gradientUnits="userSpaceOnUse">
<stop stop-opacity="0"/>
<stop offset="0.994083"/>
</linearGradient>
<linearGradient id="paint35_linear_5107_15937" x1="376.35" y1="164.394" x2="346.369" y2="244.94" gradientUnits="userSpaceOnUse">
<stop stop-color="#4664FF"/>
<stop offset="0.868908"/>
</linearGradient>
<linearGradient id="paint36_linear_5107_15937" x1="376.995" y1="161.023" x2="355.663" y2="225.887" gradientUnits="userSpaceOnUse">
<stop stop-color="#C62F94"/>
<stop offset="0.755308"/>
</linearGradient>
<linearGradient id="paint37_linear_5107_15937" x1="370.732" y1="214.599" x2="331.5" y2="130.501" gradientUnits="userSpaceOnUse">
<stop stop-opacity="0"/>
<stop offset="0.994083"/>
</linearGradient>
<linearGradient id="paint38_linear_5107_15937" x1="379.658" y1="163.013" x2="348.289" y2="247.932" gradientUnits="userSpaceOnUse">
<stop stop-color="#4664FF"/>
<stop offset="0.868908"/>
</linearGradient>
<linearGradient id="paint39_linear_5107_15937" x1="380.341" y1="159.466" x2="358.03" y2="227.826" gradientUnits="userSpaceOnUse">
<stop stop-color="#C62F94"/>
<stop offset="0.755308"/>
</linearGradient>
<linearGradient id="paint40_linear_5107_15937" x1="373.702" y1="215.847" x2="332.623" y2="127.097" gradientUnits="userSpaceOnUse">
<stop stop-opacity="0"/>
<stop offset="0.994083"/>
</linearGradient>
<linearGradient id="paint41_linear_5107_15937" x1="383.14" y1="161.695" x2="350.405" y2="251.002" gradientUnits="userSpaceOnUse">
<stop stop-color="#4664FF"/>
<stop offset="0.868908"/>
</linearGradient>
<linearGradient id="paint42_linear_5107_15937" x1="383.863" y1="157.971" x2="360.588" y2="229.837" gradientUnits="userSpaceOnUse">
<stop stop-color="#C62F94"/>
<stop offset="0.755308"/>
</linearGradient>
<linearGradient id="paint43_linear_5107_15937" x1="376.842" y1="217.157" x2="333.94" y2="123.73" gradientUnits="userSpaceOnUse">
<stop stop-opacity="0"/>
<stop offset="0.994083"/>
</linearGradient>
<linearGradient id="paint44_linear_5107_15937" x1="386.598" y1="160.297" x2="352.403" y2="254.189" gradientUnits="userSpaceOnUse">
<stop stop-color="#4664FF"/>
<stop offset="0.868908"/>
</linearGradient>
<linearGradient id="paint45_linear_5107_15937" x1="387.362" y1="156.387" x2="363.056" y2="231.92" gradientUnits="userSpaceOnUse">
<stop stop-color="#C62F94"/>
<stop offset="0.755308"/>
</linearGradient>
<linearGradient id="paint46_linear_5107_15937" x1="379.945" y1="218.518" x2="335.102" y2="120.215" gradientUnits="userSpaceOnUse">
<stop stop-opacity="0"/>
<stop offset="0.994083"/>
</linearGradient>
<linearGradient id="paint47_linear_5107_15937" x1="390.389" y1="158.914" x2="354.821" y2="257.46" gradientUnits="userSpaceOnUse">
<stop stop-color="#4664FF"/>
<stop offset="0.868908"/>
</linearGradient>
<linearGradient id="paint48_linear_5107_15937" x1="391.196" y1="154.819" x2="365.924" y2="234.063" gradientUnits="userSpaceOnUse">
<stop stop-color="#C62F94"/>
<stop offset="0.755308"/>
</linearGradient>
<linearGradient id="paint49_linear_5107_15937" x1="383.36" y1="219.895" x2="336.675" y2="116.603" gradientUnits="userSpaceOnUse">
<stop stop-opacity="0"/>
<stop offset="0.994083"/>
</linearGradient>
<linearGradient id="paint50_linear_5107_15937" x1="394.162" y1="157.476" x2="357.261" y2="260.708" gradientUnits="userSpaceOnUse">
<stop stop-color="#4664FF"/>
<stop offset="0.868908"/>
</linearGradient>
<linearGradient id="paint51_linear_5107_15937" x1="395.014" y1="153.196" x2="368.806" y2="236.171" gradientUnits="userSpaceOnUse">
<stop stop-color="#C62F94"/>
<stop offset="0.755308"/>
</linearGradient>
<linearGradient id="paint52_linear_5107_15937" x1="386.748" y1="221.217" x2="338.268" y2="112.886" gradientUnits="userSpaceOnUse">
<stop stop-opacity="0"/>
<stop offset="0.994083"/>
</linearGradient>
<linearGradient id="paint53_linear_5107_15937" x1="398.033" y1="156.005" x2="359.683" y2="264.101" gradientUnits="userSpaceOnUse">
<stop stop-color="#4664FF"/>
<stop offset="0.868908"/>
</linearGradient>
<linearGradient id="paint54_linear_5107_15937" x1="398.93" y1="151.531" x2="371.701" y2="238.386" gradientUnits="userSpaceOnUse">
<stop stop-color="#C62F94"/>
<stop offset="0.755308"/>
</linearGradient>
<linearGradient id="paint55_linear_5107_15937" x1="390.226" y1="222.636" x2="339.807" y2="109.099" gradientUnits="userSpaceOnUse">
<stop stop-opacity="0"/>
<stop offset="0.994083"/>
</linearGradient>
<linearGradient id="paint56_linear_5107_15937" x1="402.143" y1="154.533" x2="362.36" y2="267.64" gradientUnits="userSpaceOnUse">
<stop stop-color="#4664FF"/>
<stop offset="0.868908"/>
</linearGradient>
<linearGradient id="paint57_linear_5107_15937" x1="403.087" y1="149.86" x2="374.852" y2="240.707" gradientUnits="userSpaceOnUse">
<stop stop-color="#C62F94"/>
<stop offset="0.755308"/>
</linearGradient>
<linearGradient id="paint58_linear_5107_15937" x1="393.921" y1="224.121" x2="341.577" y2="105.197" gradientUnits="userSpaceOnUse">
<stop stop-opacity="0"/>
<stop offset="0.994083"/>
</linearGradient>
<linearGradient id="paint59_linear_5107_15937" x1="406.397" y1="153.013" x2="365.199" y2="271.145" gradientUnits="userSpaceOnUse">
<stop stop-color="#4664FF"/>
<stop offset="0.868908"/>
</linearGradient>
<linearGradient id="paint60_linear_5107_15937" x1="407.39" y1="148.142" x2="378.16" y2="242.989" gradientUnits="userSpaceOnUse">
<stop stop-color="#C62F94"/>
<stop offset="0.755308"/>
</linearGradient>
<linearGradient id="paint61_linear_5107_15937" x1="397.755" y1="225.558" x2="343.508" y2="101.227" gradientUnits="userSpaceOnUse">
<stop stop-opacity="0"/>
<stop offset="0.994083"/>
</linearGradient>
<linearGradient id="paint62_linear_5107_15937" x1="410.754" y1="151.511" x2="368.266" y2="274.624" gradientUnits="userSpaceOnUse">
<stop stop-color="#4664FF"/>
<stop offset="0.868908"/>
</linearGradient>
<linearGradient id="paint63_linear_5107_15937" x1="411.797" y1="146.446" x2="381.665" y2="245.247" gradientUnits="userSpaceOnUse">
<stop stop-color="#C62F94"/>
<stop offset="0.755308"/>
</linearGradient>
<linearGradient id="paint64_linear_5107_15937" x1="401.677" y1="226.946" x2="345.68" y2="97.2145" gradientUnits="userSpaceOnUse">
<stop stop-opacity="0"/>
<stop offset="0.994083"/>
</linearGradient>
<linearGradient id="paint65_linear_5107_15937" x1="415.187" y1="149.967" x2="371.315" y2="278.257" gradientUnits="userSpaceOnUse">
<stop stop-color="#4664FF"/>
<stop offset="0.868908"/>
</linearGradient>
<linearGradient id="paint66_linear_5107_15937" x1="416.282" y1="144.699" x2="385.179" y2="247.616" gradientUnits="userSpaceOnUse">
<stop stop-color="#C62F94"/>
<stop offset="0.755308"/>
</linearGradient>
<linearGradient id="paint67_linear_5107_15937" x1="405.663" y1="228.424" x2="347.796" y2="93.0962" gradientUnits="userSpaceOnUse">
<stop stop-opacity="0"/>
<stop offset="0.994083"/>
</linearGradient>
<linearGradient id="paint68_linear_5107_15937" x1="419.601" y1="148.462" x2="374.36" y2="281.939" gradientUnits="userSpaceOnUse">
<stop stop-color="#4664FF"/>
<stop offset="0.868908"/>
</linearGradient>
<linearGradient id="paint69_linear_5107_15937" x1="420.748" y1="142.991" x2="388.686" y2="250.029" gradientUnits="userSpaceOnUse">
<stop stop-color="#C62F94"/>
<stop offset="0.755308"/>
</linearGradient>
<linearGradient id="paint70_linear_5107_15937" x1="409.625" y1="229.942" x2="349.907" y2="89.0001" gradientUnits="userSpaceOnUse">
<stop stop-opacity="0"/>
<stop offset="0.994083"/>
</linearGradient>
<linearGradient id="paint71_linear_5107_15937" x1="424.321" y1="146.967" x2="377.896" y2="285.497" gradientUnits="userSpaceOnUse">
<stop stop-color="#4664FF"/>
<stop offset="0.868908"/>
</linearGradient>
<linearGradient id="paint72_linear_5107_15937" x1="425.522" y1="141.302" x2="392.636" y2="252.34" gradientUnits="userSpaceOnUse">
<stop stop-color="#C62F94"/>
<stop offset="0.755308"/>
</linearGradient>
<linearGradient id="paint73_linear_5107_15937" x1="413.877" y1="231.337" x2="352.541" y2="84.8759" gradientUnits="userSpaceOnUse">
<stop stop-opacity="0"/>
<stop offset="0.994083"/>
</linearGradient>
<linearGradient id="paint74_linear_5107_15937" x1="429.076" y1="145.511" x2="381.48" y2="289.1" gradientUnits="userSpaceOnUse">
<stop stop-color="#4664FF"/>
<stop offset="0.868908"/>
</linearGradient>
<linearGradient id="paint75_linear_5107_15937" x1="430.332" y1="139.652" x2="396.63" y2="254.693" gradientUnits="userSpaceOnUse">
<stop stop-color="#C62F94"/>
<stop offset="0.755308"/>
</linearGradient>
<linearGradient id="paint76_linear_5107_15937" x1="418.159" y1="232.772" x2="355.221" y2="80.7804" gradientUnits="userSpaceOnUse">
<stop stop-opacity="0"/>
<stop offset="0.994083"/>
</linearGradient>
<linearGradient id="paint77_linear_5107_15937" x1="433.837" y1="144.12" x2="385.231" y2="292.61" gradientUnits="userSpaceOnUse">
<stop stop-color="#4664FF"/>
<stop offset="0.868908"/>
</linearGradient>
<linearGradient id="paint78_linear_5107_15937" x1="435.149" y1="138.076" x2="400.747" y2="256.985" gradientUnits="userSpaceOnUse">
<stop stop-color="#C62F94"/>
<stop offset="0.755308"/>
</linearGradient>
<linearGradient id="paint79_linear_5107_15937" x1="422.437" y1="234.139" x2="358.101" y2="76.7472" gradientUnits="userSpaceOnUse">
<stop stop-opacity="0"/>
<stop offset="0.994083"/>
</linearGradient>
<linearGradient id="paint80_linear_5107_15937" x1="438.754" y1="142.729" x2="389.129" y2="296.11" gradientUnits="userSpaceOnUse">
<stop stop-color="#4664FF"/>
<stop offset="0.868908"/>
</linearGradient>
<linearGradient id="paint81_linear_5107_15937" x1="440.122" y1="136.499" x2="405.014" y2="259.269" gradientUnits="userSpaceOnUse">
<stop stop-color="#C62F94"/>
<stop offset="0.755308"/>
</linearGradient>
<linearGradient id="paint82_linear_5107_15937" x1="426.872" y1="235.507" x2="361.13" y2="72.7308" gradientUnits="userSpaceOnUse">
<stop stop-opacity="0"/>
<stop offset="0.994083"/>
</linearGradient>
<linearGradient id="paint83_linear_5107_15937" x1="443.667" y1="141.378" x2="393.16" y2="299.475" gradientUnits="userSpaceOnUse">
<stop stop-color="#4664FF"/>
<stop offset="0.868908"/>
</linearGradient>
<linearGradient id="paint84_linear_5107_15937" x1="445.091" y1="134.973" x2="409.375" y2="261.456" gradientUnits="userSpaceOnUse">
<stop stop-color="#C62F94"/>
<stop offset="0.755308"/>
</linearGradient>
<linearGradient id="paint85_linear_5107_15937" x1="431.297" y1="236.784" x2="364.326" y2="68.7839" gradientUnits="userSpaceOnUse">
<stop stop-opacity="0"/>
<stop offset="0.994083"/>
</linearGradient>
<linearGradient id="paint86_linear_5107_15937" x1="448.544" y1="140.124" x2="397.288" y2="302.757" gradientUnits="userSpaceOnUse">
<stop stop-color="#4664FF"/>
<stop offset="0.868908"/>
</linearGradient>
<linearGradient id="paint87_linear_5107_15937" x1="450.025" y1="133.551" x2="413.796" y2="263.598" gradientUnits="userSpaceOnUse">
<stop stop-color="#C62F94"/>
<stop offset="0.755308"/>
</linearGradient>
<linearGradient id="paint88_linear_5107_15937" x1="435.682" y1="238.026" x2="367.654" y2="64.967" gradientUnits="userSpaceOnUse">
<stop stop-opacity="0"/>
<stop offset="0.994083"/>
</linearGradient>
<linearGradient id="paint89_linear_5107_15937" x1="453.433" y1="139.007" x2="401.647" y2="305.788" gradientUnits="userSpaceOnUse">
<stop stop-color="#4664FF"/>
<stop offset="0.868908"/>
</linearGradient>
<linearGradient id="paint90_linear_5107_15937" x1="454.971" y1="132.284" x2="418.385" y2="265.575" gradientUnits="userSpaceOnUse">
<stop stop-color="#C62F94"/>
<stop offset="0.755308"/>
</linearGradient>
<linearGradient id="paint91_linear_5107_15937" x1="440.087" y1="239.141" x2="371.287" y2="61.4068" gradientUnits="userSpaceOnUse">
<stop stop-opacity="0"/>
<stop offset="0.994083"/>
</linearGradient>
<linearGradient id="paint92_linear_5107_15937" x1="458.346" y1="137.923" x2="406.138" y2="308.653" gradientUnits="userSpaceOnUse">
<stop stop-color="#4664FF"/>
<stop offset="0.868908"/>
</linearGradient>
<linearGradient id="paint93_linear_5107_15937" x1="459.94" y1="131.059" x2="423.075" y2="267.433" gradientUnits="userSpaceOnUse">
<stop stop-color="#C62F94"/>
<stop offset="0.755308"/>
</linearGradient>
<linearGradient id="paint94_linear_5107_15937" x1="444.516" y1="240.159" x2="375.088" y2="57.9472" gradientUnits="userSpaceOnUse">
<stop stop-opacity="0"/>
<stop offset="0.994083"/>
</linearGradient>
<linearGradient id="paint95_linear_5107_15937" x1="464.971" y1="137.015" x2="413.101" y2="311.653" gradientUnits="userSpaceOnUse">
<stop stop-color="#4664FF"/>
<stop offset="0.868908"/>
</linearGradient>
<linearGradient id="paint96_linear_5107_15937" x1="466.641" y1="130.027" x2="430.048" y2="269.384" gradientUnits="userSpaceOnUse">
<stop stop-color="#C62F94"/>
<stop offset="0.755308"/>
</linearGradient>
<linearGradient id="paint97_linear_5107_15937" x1="450.488" y1="241.087" x2="381.391" y2="54.1981" gradientUnits="userSpaceOnUse">
<stop stop-opacity="0"/>
<stop offset="0.994083"/>
</linearGradient>
<linearGradient id="paint98_linear_5107_15937" x1="472.435" y1="136.315" x2="421.405" y2="314.361" gradientUnits="userSpaceOnUse">
<stop stop-color="#4664FF"/>
<stop offset="0.868908"/>
</linearGradient>
<linearGradient id="paint99_linear_5107_15937" x1="474.189" y1="129.231" x2="438.226" y2="271.143" gradientUnits="userSpaceOnUse">
<stop stop-color="#C62F94"/>
<stop offset="0.755308"/>
</linearGradient>
<linearGradient id="paint100_linear_5107_15937" x1="457.232" y1="241.83" x2="389.125" y2="50.6928" gradientUnits="userSpaceOnUse">
<stop stop-opacity="0"/>
<stop offset="0.994083"/>
</linearGradient>
<linearGradient id="paint101_linear_5107_15937" x1="479.982" y1="135.745" x2="429.997" y2="316.76" gradientUnits="userSpaceOnUse">
<stop stop-color="#4664FF"/>
<stop offset="0.868908"/>
</linearGradient>
<linearGradient id="paint102_linear_5107_15937" x1="481.823" y1="128.582" x2="446.632" y2="272.698" gradientUnits="userSpaceOnUse">
<stop stop-color="#C62F94"/>
<stop offset="0.755308"/>
</linearGradient>
<linearGradient id="paint103_linear_5107_15937" x1="464.039" y1="242.439" x2="397.213" y2="47.5098" gradientUnits="userSpaceOnUse">
<stop stop-opacity="0"/>
<stop offset="0.994083"/>
</linearGradient>
<linearGradient id="paint104_linear_5107_15937" x1="487.85" y1="135.392" x2="439.22" y2="318.738" gradientUnits="userSpaceOnUse">
<stop stop-color="#4664FF"/>
<stop offset="0.868908"/>
</linearGradient>
<linearGradient id="paint105_linear_5107_15937" x1="489.781" y1="128.177" x2="455.578" y2="273.982" gradientUnits="userSpaceOnUse">
<stop stop-color="#C62F94"/>
<stop offset="0.755308"/>
</linearGradient>
<linearGradient id="paint106_linear_5107_15937" x1="471.142" y1="242.87" x2="406.027" y2="44.8104" gradientUnits="userSpaceOnUse">
<stop stop-opacity="0"/>
<stop offset="0.994083"/>
</linearGradient>
<linearGradient id="paint107_linear_5107_15937" x1="495.834" y1="135.241" x2="448.799" y2="320.232" gradientUnits="userSpaceOnUse">
<stop stop-color="#4664FF"/>
<stop offset="0.868908"/>
</linearGradient>
<linearGradient id="paint108_linear_5107_15937" x1="497.856" y1="127.999" x2="464.807" y2="274.95" gradientUnits="userSpaceOnUse">
<stop stop-color="#C62F94"/>
<stop offset="0.755308"/>
</linearGradient>
<linearGradient id="paint109_linear_5107_15937" x1="478.354" y1="243.109" x2="415.291" y2="42.6564" gradientUnits="userSpaceOnUse">
<stop stop-opacity="0"/>
<stop offset="0.994083"/>
</linearGradient>
<linearGradient id="paint110_linear_5107_15937" x1="504.089" y1="135.348" x2="458.991" y2="321.094" gradientUnits="userSpaceOnUse">
<stop stop-color="#4664FF"/>
<stop offset="0.868908"/>
</linearGradient>
<linearGradient id="paint111_linear_5107_15937" x1="506.204" y1="128.116" x2="474.546" y2="275.501" gradientUnits="userSpaceOnUse">
<stop stop-color="#C62F94"/>
<stop offset="0.755308"/>
</linearGradient>
<linearGradient id="paint112_linear_5107_15937" x1="485.818" y1="243.079" x2="425.287" y2="41.1834" gradientUnits="userSpaceOnUse">
<stop stop-opacity="0"/>
<stop offset="0.994083"/>
</linearGradient>
<linearGradient id="paint113_linear_5107_15937" x1="512.367" y1="135.833" x2="469.583" y2="321.2" gradientUnits="userSpaceOnUse">
<stop stop-color="#4664FF"/>
<stop offset="0.868908"/>
</linearGradient>
<linearGradient id="paint114_linear_5107_15937" x1="514.575" y1="128.655" x2="484.57" y2="275.574" gradientUnits="userSpaceOnUse">
<stop stop-color="#C62F94"/>
<stop offset="0.755308"/>
</linearGradient>
<linearGradient id="paint115_linear_5107_15937" x1="493.298" y1="242.77" x2="435.828" y2="40.6563" gradientUnits="userSpaceOnUse">
<stop stop-opacity="0"/>
<stop offset="0.994083"/>
</linearGradient>
<linearGradient id="paint116_linear_5107_15937" x1="520.825" y1="131.851" x2="473.854" y2="330.125" gradientUnits="userSpaceOnUse">
<stop stop-color="#4664FF"/>
<stop offset="0.868908"/>
</linearGradient>
<linearGradient id="paint117_linear_5107_15937" x1="523.132" y1="124.151" x2="490.175" y2="281.389" gradientUnits="userSpaceOnUse">
<stop stop-color="#C62F94"/>
<stop offset="0.755308"/>
</linearGradient>
<linearGradient id="paint118_linear_5107_15937" x1="500.894" y1="246.542" x2="437.822" y2="30.6941" gradientUnits="userSpaceOnUse">
<stop stop-opacity="0"/>
<stop offset="0.994083"/>
</linearGradient>
<linearGradient id="paint119_linear_5107_15937" x1="529.436" y1="126.391" x2="475.981" y2="341.983" gradientUnits="userSpaceOnUse">
<stop stop-color="#4664FF"/>
<stop offset="0.868908"/>
</linearGradient>
<linearGradient id="paint120_linear_5107_15937" x1="531.844" y1="117.977" x2="494.304" y2="289.13" gradientUnits="userSpaceOnUse">
<stop stop-color="#C62F94"/>
<stop offset="0.755308"/>
</linearGradient>
<linearGradient id="paint121_linear_5107_15937" x1="508.614" y1="251.73" x2="436.898" y2="17.7164" gradientUnits="userSpaceOnUse">
<stop stop-opacity="0"/>
<stop offset="0.994083"/>
</linearGradient>
<linearGradient id="paint122_linear_5107_15937" x1="538.143" y1="120.616" x2="477.53" y2="354.394" gradientUnits="userSpaceOnUse">
<stop stop-color="#4664FF"/>
<stop offset="0.868908"/>
</linearGradient>
<linearGradient id="paint123_linear_5107_15937" x1="540.654" y1="111.443" x2="498.046" y2="297.242" gradientUnits="userSpaceOnUse">
<stop stop-color="#C62F94"/>
<stop offset="0.755308"/>
</linearGradient>
<linearGradient id="paint124_linear_5107_15937" x1="516.421" y1="257.26" x2="435.2" y2="4.29552" gradientUnits="userSpaceOnUse">
<stop stop-opacity="0"/>
<stop offset="0.994083"/>
</linearGradient>
<linearGradient id="paint125_linear_5107_15937" x1="546.806" y1="114.334" x2="478.113" y2="367.521" gradientUnits="userSpaceOnUse">
<stop stop-color="#4664FF"/>
<stop offset="0.868908"/>
</linearGradient>
<linearGradient id="paint126_linear_5107_15937" x1="549.421" y1="104.339" x2="501.08" y2="305.814" gradientUnits="userSpaceOnUse">
<stop stop-color="#C62F94"/>
<stop offset="0.755308"/>
</linearGradient>
<linearGradient id="paint127_linear_5107_15937" x1="524.173" y1="263.204" x2="432.27" y2="-9.82739" gradientUnits="userSpaceOnUse">
<stop stop-opacity="0"/>
<stop offset="0.994083"/>
</linearGradient>
<linearGradient id="paint128_linear_5107_15937" x1="555.38" y1="107.648" x2="477.722" y2="381.202" gradientUnits="userSpaceOnUse">
<stop stop-color="#4664FF"/>
<stop offset="0.868908"/>
</linearGradient>
<linearGradient id="paint129_linear_5107_15937" x1="558.097" y1="96.7797" x2="503.383" y2="314.753" gradientUnits="userSpaceOnUse">
<stop stop-color="#C62F94"/>
<stop offset="0.755308"/>
</linearGradient>
<linearGradient id="paint130_linear_5107_15937" x1="531.835" y1="269.533" x2="428.143" y2="-24.3759" gradientUnits="userSpaceOnUse">
<stop stop-opacity="0"/>
<stop offset="0.994083"/>
</linearGradient>
<linearGradient id="paint131_linear_5107_15937" x1="564.125" y1="100.471" x2="476.477" y2="395.492" gradientUnits="userSpaceOnUse">
<stop stop-color="#4664FF"/>
<stop offset="0.868908"/>
</linearGradient>
<linearGradient id="paint132_linear_5107_15937" x1="566.946" y1="88.6665" x2="505.112" y2="324.087" gradientUnits="userSpaceOnUse">
<stop stop-color="#C62F94"/>
<stop offset="0.755308"/>
</linearGradient>
<linearGradient id="paint133_linear_5107_15937" x1="539.663" y1="276.291" x2="422.908" y2="-39.4193" gradientUnits="userSpaceOnUse">
<stop stop-opacity="0"/>
<stop offset="0.994083"/>
</linearGradient>
<linearGradient id="paint134_linear_5107_15937" x1="572.605" y1="92.8416" x2="473.864" y2="410.339" gradientUnits="userSpaceOnUse">
<stop stop-color="#4664FF"/>
<stop offset="0.868908"/>
</linearGradient>
<linearGradient id="paint135_linear_5107_15937" x1="575.528" y1="80.0391" x2="505.767" y2="333.798" gradientUnits="userSpaceOnUse">
<stop stop-color="#C62F94"/>
<stop offset="0.755308"/>
</linearGradient>
<linearGradient id="paint136_linear_5107_15937" x1="547.231" y1="283.517" x2="416.063" y2="-54.779" gradientUnits="userSpaceOnUse">
<stop stop-opacity="0"/>
<stop offset="0.994083"/>
</linearGradient>
<linearGradient id="paint137_linear_5107_15937" x1="580.985" y1="84.648" x2="469.836" y2="425.703" gradientUnits="userSpaceOnUse">
<stop stop-color="#4664FF"/>
<stop offset="0.868908"/>
</linearGradient>
<linearGradient id="paint138_linear_5107_15937" x1="584.009" y1="70.777" x2="505.355" y2="343.843" gradientUnits="userSpaceOnUse">
<stop stop-color="#C62F94"/>
<stop offset="0.755308"/>
</linearGradient>
<linearGradient id="paint139_linear_5107_15937" x1="554.714" y1="291.232" x2="407.545" y2="-70.4376" gradientUnits="userSpaceOnUse">
<stop stop-opacity="0"/>
<stop offset="0.994083"/>
</linearGradient>
<linearGradient id="paint140_linear_5107_15937" x1="589.024" y1="75.9217" x2="464.091" y2="441.506" gradientUnits="userSpaceOnUse">
<stop stop-color="#4664FF"/>
<stop offset="0.868908"/>
</linearGradient>
<linearGradient id="paint141_linear_5107_15937" x1="592.147" y1="60.9115" x2="503.579" y2="354.181" gradientUnits="userSpaceOnUse">
<stop stop-color="#C62F94"/>
<stop offset="0.755308"/>
</linearGradient>
<linearGradient id="paint142_linear_5107_15937" x1="561.87" y1="299.466" x2="397.074" y2="-86.2051" gradientUnits="userSpaceOnUse">
<stop stop-opacity="0"/>
<stop offset="0.994083"/>
</linearGradient>
<linearGradient id="paint143_linear_5107_15937" x1="596.867" y1="66.6394" x2="456.694" y2="457.59" gradientUnits="userSpaceOnUse">
<stop stop-color="#4664FF"/>
<stop offset="0.868908"/>
</linearGradient>
<linearGradient id="paint144_linear_5107_15937" x1="600.085" y1="50.4192" x2="500.517" y2="364.698" gradientUnits="userSpaceOnUse">
<stop stop-color="#C62F94"/>
<stop offset="0.755308"/>
</linearGradient>
<linearGradient id="paint145_linear_5107_15937" x1="568.85" y1="308.197" x2="384.746" y2="-101.911" gradientUnits="userSpaceOnUse">
<stop stop-opacity="0"/>
<stop offset="0.994083"/>
</linearGradient>
<linearGradient id="paint146_linear_5107_15937" x1="604.207" y1="56.6718" x2="446.941" y2="473.952" gradientUnits="userSpaceOnUse">
<stop stop-color="#4664FF"/>
<stop offset="0.868908"/>
</linearGradient>
<linearGradient id="paint147_linear_5107_15937" x1="607.516" y1="39.1533" x2="495.556" y2="375.394" gradientUnits="userSpaceOnUse">
<stop stop-color="#C62F94"/>
<stop offset="0.755308"/>
</linearGradient>
<linearGradient id="paint148_linear_5107_15937" x1="575.361" y1="317.557" x2="369.838" y2="-117.419" gradientUnits="userSpaceOnUse">
<stop stop-opacity="0"/>
<stop offset="0.994083"/>
</linearGradient>
<linearGradient id="paint149_linear_5107_15937" x1="611.215" y1="46.1717" x2="435.208" y2="490.237" gradientUnits="userSpaceOnUse">
<stop stop-color="#4664FF"/>
<stop offset="0.868908"/>
</linearGradient>
<linearGradient id="paint150_linear_5107_15937" x1="614.611" y1="27.2841" x2="489" y2="386.034" gradientUnits="userSpaceOnUse">
<stop stop-color="#C62F94"/>
<stop offset="0.755308"/>
</linearGradient>
<linearGradient id="paint151_linear_5107_15937" x1="581.577" y1="327.438" x2="352.848" y2="-132.308" gradientUnits="userSpaceOnUse">
<stop stop-opacity="0"/>
<stop offset="0.994083"/>
</linearGradient>
<linearGradient id="paint152_linear_5107_15937" x1="617.597" y1="34.9785" x2="420.811" y2="506.341" gradientUnits="userSpaceOnUse">
<stop stop-color="#4664FF"/>
<stop offset="0.868908"/>
</linearGradient>
<linearGradient id="paint153_linear_5107_15937" x1="621.074" y1="14.6335" x2="480.245" y2="396.535" gradientUnits="userSpaceOnUse">
<stop stop-color="#C62F94"/>
<stop offset="0.755308"/>
</linearGradient>
<linearGradient id="paint154_linear_5107_15937" x1="587.212" y1="337.941" x2="333.105" y2="-146.399" gradientUnits="userSpaceOnUse">
<stop stop-opacity="0"/>
<stop offset="0.994083"/>
</linearGradient>
</defs>
</svg>
