<svg width="150" height="64" viewBox="0 0 150 64" fill="none" xmlns="http://www.w3.org/2000/svg">
<g clip-path="url(#clip0_807_7065)">
<path d="M18.4634 27.0386C18.3928 29.2593 19.5026 30.2427 19.5301 30.8673C19.517 30.9944 19.4737 31.1165 19.4038 31.2235C19.3338 31.3304 19.2393 31.4191 19.1281 31.482L17.8731 32.3605C17.7107 32.4744 17.5193 32.5396 17.3212 32.5487C17.279 32.5468 16.5182 32.7282 15.3132 30.0378C14.578 30.9555 13.6427 31.6928 12.5787 32.1932C11.5147 32.6937 10.3503 32.9441 9.1746 32.9252C7.57843 33.0125 3.25269 32.0193 3.47526 27.4141C3.31936 23.661 6.81466 21.3295 10.4296 21.5265C11.1257 21.5285 12.5473 21.5628 15.0367 22.1413V20.6098C15.3004 18.0156 13.5954 16.0027 10.6433 16.3047C10.408 16.3057 8.74124 16.2557 6.14894 17.2959C5.42733 17.6273 5.33517 17.5724 5.09496 17.5724C4.36844 17.5724 4.66748 15.4664 4.8067 15.1997C5.31752 14.5722 8.32259 13.4006 11.2718 13.4173C13.2437 13.2429 15.2051 13.8514 16.7319 15.1115C17.3526 15.8057 17.8261 16.6185 18.1238 17.5009C18.4216 18.3832 18.5374 19.3167 18.4644 20.2451L18.4634 27.0386ZM9.99034 30.2143C13.1699 30.1682 14.5161 28.2563 14.823 27.2269C15.0642 26.2415 15.024 25.618 15.024 24.5404C14.0759 24.313 12.7111 24.0649 11.1453 24.063C9.65992 23.9512 6.94702 24.615 7.05291 27.2259C6.93134 28.8721 8.14317 30.3045 9.99034 30.2143ZM26.7482 32.4742C25.9775 32.5448 25.6187 31.9977 25.505 31.4575L20.6223 15.3144C20.5272 15.0419 20.4645 14.7605 20.4341 14.4732C20.4161 14.3548 20.4458 14.234 20.5168 14.1375C20.5877 14.041 20.6941 13.9766 20.8125 13.9585C20.8361 13.9545 20.6037 13.9585 22.994 13.9585C23.8549 13.8722 24.1353 14.5497 24.2245 14.9752L27.7267 28.7828L30.9778 14.9752C31.0298 14.6595 31.2661 13.8898 32.2328 13.9712H33.9152C34.128 13.9536 35.0045 13.9222 35.1584 14.9879L38.4351 28.9721L42.05 14.9879C42.0971 14.7742 42.3167 13.8732 43.2932 13.9712H45.2267C45.31 13.9585 45.8296 13.8918 45.7414 14.8124C45.6992 14.9938 46.0757 13.7673 40.5695 31.4702C40.4568 32.0105 40.097 32.5576 39.3263 32.487H37.4939C36.4213 32.5997 36.2673 31.5399 36.2507 31.433L32.9995 17.9881L29.7856 31.4193C29.7699 31.5261 29.616 32.586 28.5424 32.4732H26.7482V32.4742ZM53.5615 33.0262C52.985 33.0272 50.2358 32.9968 47.9376 31.8212C47.7087 31.7243 47.5137 31.5616 47.3774 31.3537C47.241 31.1458 47.1695 30.9021 47.1719 30.6535V29.5996C47.1719 28.7711 47.7798 28.923 48.0376 29.0221C49.022 29.4201 49.6534 29.7221 50.8623 29.9633C54.4556 30.7016 56.0361 29.7378 56.4234 29.5241C57.7127 28.7583 57.8147 27.0063 56.9381 26.0974C55.9106 25.2356 55.4204 25.2032 51.729 24.0385C51.2741 23.912 47.4444 22.7041 47.4356 18.9048C47.3758 16.136 49.8916 13.3967 54.2517 13.4192C55.4939 13.4182 58.8039 13.8241 59.7001 14.9507C59.8324 15.1556 59.8981 15.3968 59.8883 15.6409V16.6321C59.8883 17.0675 59.7295 17.2851 59.4108 17.2851C58.6549 17.2008 57.3136 16.19 54.5909 16.2311C53.9154 16.1958 50.6799 16.3204 50.825 18.6793C50.7829 20.5383 53.434 21.2354 53.737 21.3157C57.3117 22.3913 58.5068 22.5697 59.9256 24.2159C61.606 26.3974 60.7001 28.9515 60.3521 29.6515C58.4814 33.3272 53.6438 33.0282 53.5615 33.0262ZM57.5029 43.3072C50.6368 48.3781 40.6695 51.0773 32.1593 51.0773C20.6763 51.153 9.58032 46.9307 1.05257 39.2403C0.412335 38.6628 0.977073 37.8716 1.75555 38.3118C11.2154 43.7231 21.9259 46.5663 32.824 46.5593C40.9624 46.5157 49.0121 44.8647 56.5107 41.7012C57.6656 41.211 58.6451 42.466 57.5029 43.3072ZM60.3648 40.0433C59.4863 38.9138 54.5527 39.5158 52.3437 39.7795C51.678 39.855 51.5653 39.2776 52.1682 38.8511C56.0969 36.0891 62.5492 36.8804 63.2905 37.8088C64.0307 38.7373 63.0895 45.2024 59.4118 48.2908C58.8471 48.7683 58.3068 48.5163 58.5578 47.8888C59.3853 45.8054 61.2433 41.1737 60.3648 40.0433Z" fill="white"/>
<path d="M32.1593 51.0772C40.6696 51.0772 50.6368 48.378 57.5029 43.3071C58.6451 42.4659 57.6656 41.2109 56.5107 41.7011C49.0121 44.8646 40.9624 46.5156 32.824 46.5593C21.9259 46.5662 11.2154 43.723 1.75555 38.3117C0.977073 37.8715 0.412335 38.6627 1.05257 39.2402C9.58032 46.9306 20.6763 51.1529 32.1593 51.0772Z" fill="#E99E35"/>
<path d="M52.4118 39.7713C54.6524 39.5037 59.4952 38.9252 60.3648 40.0432C61.2316 41.1586 59.4341 45.683 58.5913 47.8045L58.5578 47.8887C58.3068 48.5162 58.8471 48.7682 59.4118 48.2907C63.0895 45.2023 64.0307 38.7372 63.2905 37.8087C62.5492 36.8803 56.0969 36.089 52.1682 38.851C51.5653 39.2775 51.678 39.8549 52.3437 39.7795L52.4118 39.7713Z" fill="#E99E35"/>
</g>
<path d="M81.4708 35.0644H78.025L77.4549 36.7129H75.6328L78.7439 28.0488H80.7643L83.8755 36.7129H82.041L81.4708 35.0644ZM80.9998 33.6761L79.7479 30.0568L78.496 33.6761H80.9998ZM84.5922 33.2795C84.5922 32.5688 84.7368 31.9491 85.026 31.4202C85.3152 30.8831 85.716 30.4699 86.2283 30.1807C86.7406 29.8832 87.3273 29.7345 87.9884 29.7345C88.8395 29.7345 89.5419 29.9493 90.0955 30.379C90.6575 30.8005 91.0334 31.3954 91.2235 32.1639H89.3518C89.2527 31.8664 89.0833 31.6351 88.8437 31.4698C88.6123 31.2963 88.3231 31.2095 87.976 31.2095C87.4802 31.2095 87.0877 31.3913 86.7985 31.7549C86.5093 32.1102 86.3647 32.6184 86.3647 33.2795C86.3647 33.9323 86.5093 34.4405 86.7985 34.8041C87.0877 35.1594 87.4802 35.337 87.976 35.337C88.6784 35.337 89.137 35.023 89.3518 34.395H91.2235C91.0334 35.1387 90.6575 35.7296 90.0955 36.1675C89.5336 36.6055 88.8313 36.8244 87.9884 36.8244C87.3273 36.8244 86.7406 36.6798 86.2283 36.3906C85.716 36.0931 85.3152 35.68 85.026 35.1511C84.7368 34.614 84.5922 33.9901 84.5922 33.2795ZM92.0485 33.2795C92.0485 32.5688 92.1931 31.9491 92.4824 31.4202C92.7716 30.8831 93.1724 30.4699 93.6847 30.1807C94.197 29.8832 94.7837 29.7345 95.4448 29.7345C96.2959 29.7345 96.9983 29.9493 97.5519 30.379C98.1138 30.8005 98.4898 31.3954 98.6799 32.1639H96.8082C96.7091 31.8664 96.5397 31.6351 96.3 31.4698C96.0687 31.2963 95.7794 31.2095 95.4324 31.2095C94.9366 31.2095 94.5441 31.3913 94.2548 31.7549C93.9656 32.1102 93.821 32.6184 93.821 33.2795C93.821 33.9323 93.9656 34.4405 94.2548 34.8041C94.5441 35.1594 94.9366 35.337 95.4324 35.337C96.1348 35.337 96.5934 35.023 96.8082 34.395H98.6799C98.4898 35.1387 98.1138 35.7296 97.5519 36.1675C96.99 36.6055 96.2876 36.8244 95.4448 36.8244C94.7837 36.8244 94.197 36.6798 93.6847 36.3906C93.1724 36.0931 92.7716 35.68 92.4824 35.1511C92.1931 34.614 92.0485 33.9901 92.0485 33.2795ZM106.335 33.1307C106.335 33.3786 106.318 33.6017 106.285 33.8001H101.265C101.306 34.2959 101.48 34.6842 101.786 34.9652C102.091 35.2461 102.467 35.3866 102.914 35.3866C103.558 35.3866 104.017 35.1098 104.289 34.5562H106.161C105.963 35.2172 105.583 35.7626 105.021 36.1923C104.459 36.6137 103.769 36.8244 102.951 36.8244C102.29 36.8244 101.695 36.6798 101.166 36.3906C100.645 36.0931 100.236 35.6758 99.9387 35.1387C99.6495 34.6016 99.5049 33.9819 99.5049 33.2795C99.5049 32.5688 99.6495 31.9449 99.9387 31.4078C100.228 30.8707 100.633 30.4575 101.153 30.1683C101.674 29.8791 102.273 29.7345 102.951 29.7345C103.604 29.7345 104.186 29.875 104.698 30.1559C105.219 30.4369 105.62 30.8377 105.901 31.3582C106.19 31.8706 106.335 32.4614 106.335 33.1307ZM104.537 32.6349C104.529 32.1887 104.368 31.8334 104.054 31.569C103.74 31.2963 103.356 31.1599 102.901 31.1599C102.471 31.1599 102.108 31.2921 101.81 31.5566C101.521 31.8127 101.344 32.1722 101.277 32.6349H104.537ZM109.336 27.5406V36.7129H107.601V27.5406H109.336ZM117.434 33.1307C117.434 33.3786 117.418 33.6017 117.385 33.8001H112.365C112.406 34.2959 112.58 34.6842 112.885 34.9652C113.191 35.2461 113.567 35.3866 114.013 35.3866C114.658 35.3866 115.117 35.1098 115.389 34.5562H117.261C117.063 35.2172 116.682 35.7626 116.121 36.1923C115.559 36.6137 114.869 36.8244 114.051 36.8244C113.389 36.8244 112.795 36.6798 112.266 36.3906C111.745 36.0931 111.336 35.6758 111.039 35.1387C110.749 34.6016 110.605 33.9819 110.605 33.2795C110.605 32.5688 110.749 31.9449 111.039 31.4078C111.328 30.8707 111.733 30.4575 112.253 30.1683C112.774 29.8791 113.373 29.7345 114.051 29.7345C114.703 29.7345 115.286 29.875 115.798 30.1559C116.319 30.4369 116.72 30.8377 117.001 31.3582C117.29 31.8706 117.434 32.4614 117.434 33.1307ZM115.637 32.6349C115.629 32.1887 115.468 31.8334 115.154 31.569C114.84 31.2963 114.455 31.1599 114.001 31.1599C113.571 31.1599 113.208 31.2921 112.91 31.5566C112.621 31.8127 112.443 32.1722 112.377 32.6349H115.637ZM120.436 30.912C120.659 30.5484 120.949 30.2634 121.304 30.0568C121.668 29.8502 122.081 29.7469 122.543 29.7469V31.569H122.085C121.539 31.569 121.126 31.697 120.845 31.9532C120.573 32.2094 120.436 32.6556 120.436 33.2919V36.7129H118.701V29.8461H120.436V30.912ZM123.266 33.2547C123.266 32.5606 123.402 31.9449 123.675 31.4078C123.956 30.8707 124.332 30.4575 124.803 30.1683C125.282 29.8791 125.815 29.7345 126.402 29.7345C126.914 29.7345 127.361 29.8378 127.741 30.0444C128.129 30.251 128.439 30.5113 128.67 30.8253V29.8461H130.418V36.7129H128.67V35.7089C128.447 36.0312 128.137 36.2997 127.741 36.5146C127.352 36.7212 126.902 36.8244 126.39 36.8244C125.811 36.8244 125.282 36.6757 124.803 36.3782C124.332 36.0807 123.956 35.6634 123.675 35.1263C123.402 34.5809 123.266 33.9571 123.266 33.2547ZM128.67 33.2795C128.67 32.858 128.588 32.4986 128.422 32.2011C128.257 31.8954 128.034 31.664 127.753 31.507C127.472 31.3417 127.17 31.2591 126.848 31.2591C126.526 31.2591 126.228 31.3376 125.956 31.4946C125.683 31.6516 125.46 31.883 125.286 32.1887C125.121 32.4862 125.039 32.8415 125.039 33.2547C125.039 33.6678 125.121 34.0314 125.286 34.3454C125.46 34.6512 125.683 34.8867 125.956 35.052C126.237 35.2172 126.534 35.2999 126.848 35.2999C127.17 35.2999 127.472 35.2214 127.753 35.0644C128.034 34.8991 128.257 34.6677 128.422 34.3702C128.588 34.0645 128.67 33.7009 128.67 33.2795ZM134.133 31.2715V34.5933C134.133 34.8247 134.187 34.9941 134.294 35.1015C134.41 35.2007 134.6 35.2503 134.864 35.2503H135.67V36.7129H134.579C133.117 36.7129 132.385 36.0022 132.385 34.5809V31.2715H131.567V29.8461H132.385V28.1479H134.133V29.8461H135.67V31.2715H134.133ZM139.967 36.8244C139.306 36.8244 138.711 36.6798 138.183 36.3906C137.654 36.0931 137.236 35.6758 136.931 35.1387C136.633 34.6016 136.484 33.9819 136.484 33.2795C136.484 32.5771 136.637 31.9573 136.943 31.4202C137.257 30.8831 137.683 30.4699 138.22 30.1807C138.757 29.8832 139.356 29.7345 140.017 29.7345C140.678 29.7345 141.277 29.8832 141.814 30.1807C142.351 30.4699 142.773 30.8831 143.079 31.4202C143.393 31.9573 143.55 32.5771 143.55 33.2795C143.55 33.9819 143.388 34.6016 143.066 35.1387C142.752 35.6758 142.323 36.0931 141.777 36.3906C141.24 36.6798 140.637 36.8244 139.967 36.8244ZM139.967 35.3123C140.281 35.3123 140.575 35.2379 140.848 35.0891C141.128 34.9321 141.352 34.7008 141.517 34.395C141.682 34.0893 141.765 33.7174 141.765 33.2795C141.765 32.6267 141.591 32.1267 141.244 31.7797C140.905 31.4244 140.488 31.2467 139.992 31.2467C139.496 31.2467 139.079 31.4244 138.74 31.7797C138.41 32.1267 138.245 32.6267 138.245 33.2795C138.245 33.9323 138.406 34.4363 138.728 34.7917C139.058 35.1387 139.472 35.3123 139.967 35.3123ZM146.558 30.912C146.781 30.5484 147.07 30.2634 147.425 30.0568C147.789 29.8502 148.202 29.7469 148.665 29.7469V31.569H148.206C147.661 31.569 147.248 31.697 146.967 31.9532C146.694 32.2094 146.558 32.6556 146.558 33.2919V36.7129H144.823V29.8461H146.558V30.912Z" fill="white"/>
<defs>
<clipPath id="clip0_807_7065">
<rect width="62.7497" height="62.7497" fill="white" transform="translate(0.774902 0.837891)"/>
</clipPath>
</defs>
</svg>
