<svg width="198" height="64" viewBox="0 0 198 64" fill="none" xmlns="http://www.w3.org/2000/svg">
<g clip-path="url(#clip0_807_7046)">
<path d="M42.5055 21.04L47.9599 15.5855L48.3234 13.2888C38.3839 4.25075 22.5837 5.27556 13.6236 15.4271C11.1348 18.2467 9.28833 21.7618 8.30371 25.3917L10.2573 25.1164L21.166 23.3175L22.0082 22.4562C26.8607 17.127 35.0653 16.41 40.6681 20.9444L42.5055 21.04Z" fill="#EA4335"/>
<path d="M55.7314 25.2317C54.4776 20.6147 51.9037 16.4642 48.3248 13.2893L40.6695 20.9447C43.902 23.586 45.7436 27.5651 45.6646 31.7387V33.0976C49.4273 33.0976 52.478 36.148 52.478 39.9107C52.478 43.6737 49.4273 46.6476 45.6646 46.6476H32.019L30.6792 48.1021V56.2742L32.019 57.5563H45.6646C55.452 57.6326 63.448 49.8368 63.5242 40.0494C63.5703 34.117 60.6454 28.5554 55.7314 25.2317Z" fill="#4285F4"/>
<path d="M18.3908 57.5562H32.0173V46.6472H18.3908C17.4199 46.647 16.4797 46.4384 15.5968 46.0349L13.6636 46.6281L8.17084 52.0826L7.69238 53.939C10.7727 56.2649 14.531 57.5728 18.3908 57.5562Z" fill="#34A853"/>
<path d="M18.3912 22.1698C8.60362 22.2281 0.716887 30.21 0.775224 39.9973C0.807824 45.4628 3.36042 50.6077 7.69278 53.9395L15.5972 46.0354C12.1678 44.486 10.6439 40.4503 12.1933 37.0211C13.7424 33.592 17.7784 32.0682 21.2073 33.6173C22.7184 34.2999 23.9285 35.5103 24.6112 37.0211L32.5155 29.117C29.1524 24.7204 23.9266 22.1499 18.3912 22.1698Z" fill="#FBBC05"/>
</g>
<path d="M82.1018 30.6641C81.9035 30.3005 81.6308 30.0237 81.2837 29.8337C80.9367 29.6436 80.5318 29.5486 80.069 29.5486C79.5567 29.5486 79.1022 29.6643 78.7056 29.8956C78.3089 30.127 77.9991 30.4575 77.7759 30.8872C77.5528 31.3169 77.4413 31.8127 77.4413 32.3746C77.4413 32.9531 77.5528 33.4571 77.7759 33.8868C78.0073 34.3165 78.3255 34.6471 78.7304 34.8784C79.1353 35.1098 79.6063 35.2255 80.1434 35.2255C80.8045 35.2255 81.3457 35.052 81.7671 34.7049C82.1886 34.3496 82.4654 33.8579 82.5976 33.2299H79.6228V31.9036H84.3081V33.4158C84.1924 34.019 83.9445 34.5768 83.5644 35.0891C83.1843 35.6015 82.6926 36.0146 82.0894 36.3286C81.4944 36.6344 80.8251 36.7873 80.0814 36.7873C79.2468 36.7873 78.4907 36.6013 77.8131 36.2295C77.1438 35.8494 76.6149 35.3246 76.2266 34.6553C75.8465 33.986 75.6564 33.2258 75.6564 32.3746C75.6564 31.5235 75.8465 30.7633 76.2266 30.094C76.6149 29.4164 77.1438 28.8916 77.8131 28.5198C78.4907 28.1397 79.2427 27.9496 80.069 27.9496C81.0441 27.9496 81.8911 28.1893 82.61 28.6685C83.3289 29.1395 83.8247 29.8047 84.0974 30.6641H82.1018ZM88.6411 36.8244C87.9801 36.8244 87.3851 36.6798 86.8563 36.3906C86.3274 36.0931 85.9101 35.6758 85.6044 35.1387C85.3069 34.6016 85.1581 33.9819 85.1581 33.2795C85.1581 32.5771 85.311 31.9573 85.6168 31.4202C85.9308 30.8831 86.3563 30.4699 86.8934 30.1807C87.4306 29.8832 88.0296 29.7345 88.6907 29.7345C89.3518 29.7345 89.9509 29.8832 90.488 30.1807C91.0251 30.4699 91.4465 30.8831 91.7523 31.4202C92.0663 31.9573 92.2233 32.5771 92.2233 33.2795C92.2233 33.9819 92.0622 34.6016 91.7399 35.1387C91.4259 35.6758 90.9962 36.0931 90.4508 36.3906C89.9137 36.6798 89.3105 36.8244 88.6411 36.8244ZM88.6411 35.3123C88.9551 35.3123 89.2485 35.2379 89.5212 35.0891C89.8021 34.9321 90.0252 34.7008 90.1905 34.395C90.3558 34.0893 90.4384 33.7174 90.4384 33.2795C90.4384 32.6267 90.2649 32.1267 89.9178 31.7797C89.579 31.4244 89.1617 31.2467 88.6659 31.2467C88.1701 31.2467 87.7528 31.4244 87.414 31.7797C87.0835 32.1267 86.9182 32.6267 86.9182 33.2795C86.9182 33.9323 87.0794 34.4363 87.4016 34.7917C87.7322 35.1387 88.1453 35.3123 88.6411 35.3123ZM96.5454 36.8244C95.8843 36.8244 95.2894 36.6798 94.7605 36.3906C94.2316 36.0931 93.8143 35.6758 93.5086 35.1387C93.2111 34.6016 93.0624 33.9819 93.0624 33.2795C93.0624 32.5771 93.2153 31.9573 93.521 31.4202C93.835 30.8831 94.2606 30.4699 94.7977 30.1807C95.3348 29.8832 95.9339 29.7345 96.595 29.7345C97.256 29.7345 97.8551 29.8832 98.3922 30.1807C98.9294 30.4699 99.3508 30.8831 99.6565 31.4202C99.9705 31.9573 100.128 32.5771 100.128 33.2795C100.128 33.9819 99.9664 34.6016 99.6441 35.1387C99.3301 35.6758 98.9004 36.0931 98.355 36.3906C97.8179 36.6798 97.2147 36.8244 96.5454 36.8244ZM96.5454 35.3123C96.8594 35.3123 97.1527 35.2379 97.4254 35.0891C97.7064 34.9321 97.9295 34.7008 98.0948 34.395C98.26 34.0893 98.3427 33.7174 98.3427 33.2795C98.3427 32.6267 98.1691 32.1267 97.8221 31.7797C97.4833 31.4244 97.066 31.2467 96.5702 31.2467C96.0744 31.2467 95.6571 31.4244 95.3183 31.7797C94.9877 32.1267 94.8225 32.6267 94.8225 33.2795C94.8225 33.9323 94.9836 34.4363 95.3059 34.7917C95.6364 35.1387 96.0496 35.3123 96.5454 35.3123ZM104.09 29.7345C104.602 29.7345 105.053 29.8378 105.441 30.0444C105.83 30.2427 106.135 30.503 106.358 30.8253V29.8461H108.106V36.7625C108.106 37.3987 107.978 37.9648 107.722 38.4606C107.466 38.9647 107.081 39.3613 106.569 39.6505C106.057 39.948 105.437 40.0967 104.71 40.0967C103.735 40.0967 102.933 39.8695 102.305 39.415C101.686 38.9605 101.334 38.3408 101.252 37.5558H102.975C103.066 37.8698 103.26 38.1177 103.557 38.2995C103.863 38.4895 104.231 38.5845 104.66 38.5845C105.164 38.5845 105.573 38.4317 105.887 38.1259C106.201 37.8284 106.358 37.374 106.358 36.7625V35.6965C106.135 36.0188 105.825 36.2873 105.429 36.5022C105.04 36.717 104.594 36.8244 104.09 36.8244C103.512 36.8244 102.983 36.6757 102.504 36.3782C102.024 36.0807 101.644 35.6634 101.363 35.1263C101.091 34.5809 100.954 33.9571 100.954 33.2547C100.954 32.5606 101.091 31.9449 101.363 31.4078C101.644 30.8707 102.02 30.4575 102.491 30.1683C102.97 29.8791 103.503 29.7345 104.09 29.7345ZM106.358 33.2795C106.358 32.858 106.276 32.4986 106.111 32.2011C105.945 31.8954 105.722 31.664 105.441 31.507C105.16 31.3417 104.859 31.2591 104.536 31.2591C104.214 31.2591 103.917 31.3376 103.644 31.4946C103.371 31.6516 103.148 31.883 102.975 32.1887C102.809 32.4862 102.727 32.8415 102.727 33.2547C102.727 33.6678 102.809 34.0314 102.975 34.3454C103.148 34.6512 103.371 34.8867 103.644 35.052C103.925 35.2172 104.222 35.2999 104.536 35.2999C104.859 35.2999 105.16 35.2214 105.441 35.0644C105.722 34.8991 105.945 34.6677 106.111 34.3702C106.276 34.0645 106.358 33.7009 106.358 33.2795ZM111.536 27.5406V36.7129H109.801V27.5406H111.536ZM119.634 33.1307C119.634 33.3786 119.618 33.6017 119.585 33.8001H114.565C114.606 34.2959 114.779 34.6842 115.085 34.9652C115.391 35.2461 115.767 35.3866 116.213 35.3866C116.858 35.3866 117.316 35.1098 117.589 34.5562H119.461C119.262 35.2172 118.882 35.7626 118.32 36.1923C117.758 36.6137 117.068 36.8244 116.25 36.8244C115.589 36.8244 114.994 36.6798 114.465 36.3906C113.945 36.0931 113.536 35.6758 113.238 35.1387C112.949 34.6016 112.805 33.9819 112.805 33.2795C112.805 32.5688 112.949 31.9449 113.238 31.4078C113.528 30.8707 113.932 30.4575 114.453 30.1683C114.974 29.8791 115.573 29.7345 116.25 29.7345C116.903 29.7345 117.486 29.875 117.998 30.1559C118.519 30.4369 118.919 30.8377 119.2 31.3582C119.49 31.8706 119.634 32.4614 119.634 33.1307ZM117.837 32.6349C117.829 32.1887 117.668 31.8334 117.354 31.569C117.039 31.2963 116.655 31.1599 116.201 31.1599C115.771 31.1599 115.407 31.2921 115.11 31.5566C114.821 31.8127 114.643 32.1722 114.577 32.6349H117.837ZM127.003 31.2715H125.8V36.7129H124.04V31.2715H123.259V29.8461H124.04V29.499C124.04 28.6561 124.28 28.0364 124.759 27.6397C125.238 27.2431 125.961 27.0572 126.928 27.082V28.5446C126.507 28.5363 126.213 28.6066 126.048 28.7553C125.883 28.904 125.8 29.1726 125.8 29.561V29.8461H127.003V31.2715ZM131.176 36.8244C130.515 36.8244 129.92 36.6798 129.391 36.3906C128.863 36.0931 128.445 35.6758 128.14 35.1387C127.842 34.6016 127.693 33.9819 127.693 33.2795C127.693 32.5771 127.846 31.9573 128.152 31.4202C128.466 30.8831 128.892 30.4699 129.429 30.1807C129.966 29.8832 130.565 29.7345 131.226 29.7345C131.887 29.7345 132.486 29.8832 133.023 30.1807C133.56 30.4699 133.982 30.8831 134.288 31.4202C134.602 31.9573 134.759 32.5771 134.759 33.2795C134.759 33.9819 134.597 34.6016 134.275 35.1387C133.961 35.6758 133.531 36.0931 132.986 36.3906C132.449 36.6798 131.846 36.8244 131.176 36.8244ZM131.176 35.3123C131.49 35.3123 131.784 35.2379 132.056 35.0891C132.337 34.9321 132.56 34.7008 132.726 34.395C132.891 34.0893 132.974 33.7174 132.974 33.2795C132.974 32.6267 132.8 32.1267 132.453 31.7797C132.114 31.4244 131.697 31.2467 131.201 31.2467C130.705 31.2467 130.288 31.4244 129.949 31.7797C129.619 32.1267 129.453 32.6267 129.453 33.2795C129.453 33.9323 129.615 34.4363 129.937 34.7917C130.267 35.1387 130.681 35.3123 131.176 35.3123ZM137.767 30.912C137.99 30.5484 138.279 30.2634 138.634 30.0568C138.998 29.8502 139.411 29.7469 139.874 29.7469V31.569H139.415C138.87 31.569 138.457 31.697 138.176 31.9532C137.903 32.2094 137.767 32.6556 137.767 33.2919V36.7129H136.031V29.8461H137.767V30.912ZM146.983 36.7997C146.38 36.7997 145.835 36.6964 145.347 36.4898C144.868 36.2832 144.488 35.9857 144.207 35.5973C143.926 35.209 143.781 34.7503 143.773 34.2215H145.632C145.657 34.5768 145.781 34.8578 146.004 35.0644C146.236 35.2709 146.55 35.3742 146.946 35.3742C147.351 35.3742 147.669 35.2792 147.901 35.0891C148.132 34.8908 148.248 34.6347 148.248 34.3207C148.248 34.0645 148.169 33.8538 148.012 33.6885C147.855 33.5232 147.657 33.3952 147.417 33.3043C147.186 33.2051 146.864 33.0977 146.45 32.982C145.888 32.8167 145.43 32.6556 145.075 32.4986C144.727 32.3333 144.426 32.0896 144.17 31.7673C143.922 31.4367 143.798 30.9988 143.798 30.4534C143.798 29.9411 143.926 29.4949 144.182 29.1147C144.438 28.7346 144.798 28.4454 145.26 28.2471C145.723 28.0405 146.252 27.9372 146.847 27.9372C147.739 27.9372 148.463 28.1562 149.016 28.5942C149.578 29.0239 149.888 29.6271 149.946 30.4038H148.037C148.02 30.1063 147.892 29.8626 147.653 29.6725C147.421 29.4742 147.111 29.375 146.723 29.375C146.384 29.375 146.112 29.4618 145.905 29.6353C145.707 29.8089 145.608 30.0609 145.608 30.3914C145.608 30.6228 145.682 30.817 145.831 30.974C145.988 31.1227 146.178 31.2467 146.401 31.3459C146.632 31.4367 146.954 31.5442 147.368 31.6681C147.93 31.8334 148.388 31.9987 148.743 32.1639C149.099 32.3292 149.405 32.5771 149.661 32.9076C149.917 33.2382 150.045 33.672 150.045 34.2091C150.045 34.6718 149.925 35.1015 149.685 35.4982C149.446 35.8948 149.095 36.213 148.632 36.4526C148.169 36.684 147.62 36.7997 146.983 36.7997ZM153.57 31.2715V34.5933C153.57 34.8247 153.623 34.9941 153.731 35.1015C153.847 35.2007 154.037 35.2503 154.301 35.2503H155.107V36.7129H154.016C152.553 36.7129 151.822 36.0022 151.822 34.5809V31.2715H151.004V29.8461H151.822V28.1479H153.57V29.8461H155.107V31.2715H153.57ZM155.909 33.2547C155.909 32.5606 156.045 31.9449 156.318 31.4078C156.599 30.8707 156.975 30.4575 157.446 30.1683C157.925 29.8791 158.458 29.7345 159.045 29.7345C159.557 29.7345 160.003 29.8378 160.383 30.0444C160.772 30.251 161.082 30.5113 161.313 30.8253V29.8461H163.061V36.7129H161.313V35.7089C161.09 36.0312 160.78 36.2997 160.383 36.5146C159.995 36.7212 159.545 36.8244 159.032 36.8244C158.454 36.8244 157.925 36.6757 157.446 36.3782C156.975 36.0807 156.599 35.6634 156.318 35.1263C156.045 34.5809 155.909 33.9571 155.909 33.2547ZM161.313 33.2795C161.313 32.858 161.23 32.4986 161.065 32.2011C160.9 31.8954 160.677 31.664 160.396 31.507C160.115 31.3417 159.813 31.2591 159.491 31.2591C159.169 31.2591 158.871 31.3376 158.598 31.4946C158.326 31.6516 158.103 31.883 157.929 32.1887C157.764 32.4862 157.681 32.8415 157.681 33.2547C157.681 33.6678 157.764 34.0314 157.929 34.3454C158.103 34.6512 158.326 34.8867 158.598 35.052C158.879 35.2172 159.177 35.2999 159.491 35.2999C159.813 35.2999 160.115 35.2214 160.396 35.0644C160.677 34.8991 160.9 34.6677 161.065 34.3702C161.23 34.0645 161.313 33.7009 161.313 33.2795ZM166.491 30.912C166.714 30.5484 167.003 30.2634 167.358 30.0568C167.722 29.8502 168.135 29.7469 168.598 29.7469V31.569H168.139C167.594 31.569 167.181 31.697 166.9 31.9532C166.627 32.2094 166.491 32.6556 166.491 33.2919V36.7129H164.755V29.8461H166.491V30.912ZM171.787 31.2715V34.5933C171.787 34.8247 171.841 34.9941 171.948 35.1015C172.064 35.2007 172.254 35.2503 172.518 35.2503H173.324V36.7129H172.233C170.771 36.7129 170.039 36.0022 170.039 34.5809V31.2715H169.221V29.8461H170.039V28.1479H171.787V29.8461H173.324V31.2715H171.787ZM181.055 29.8461V36.7129H179.307V35.8452C179.084 36.1427 178.791 36.3782 178.427 36.5518C178.072 36.717 177.683 36.7997 177.262 36.7997C176.725 36.7997 176.25 36.6881 175.836 36.465C175.423 36.2336 175.097 35.899 174.857 35.461C174.626 35.0148 174.51 34.4859 174.51 33.8744V29.8461H176.245V33.6265C176.245 34.1719 176.382 34.5933 176.655 34.8908C176.927 35.18 177.299 35.3246 177.77 35.3246C178.249 35.3246 178.625 35.18 178.898 34.8908C179.171 34.5933 179.307 34.1719 179.307 33.6265V29.8461H181.055ZM184.502 30.8377C184.725 30.5236 185.031 30.2634 185.419 30.0568C185.816 29.8419 186.266 29.7345 186.77 29.7345C187.357 29.7345 187.886 29.8791 188.357 30.1683C188.836 30.4575 189.212 30.8707 189.485 31.4078C189.766 31.9367 189.906 32.5523 189.906 33.2547C189.906 33.9571 189.766 34.5809 189.485 35.1263C189.212 35.6634 188.836 36.0807 188.357 36.3782C187.886 36.6757 187.357 36.8244 186.77 36.8244C186.266 36.8244 185.82 36.7212 185.432 36.5146C185.052 36.308 184.742 36.0477 184.502 35.7337V39.9852H182.767V29.8461H184.502V30.8377ZM188.134 33.2547C188.134 32.8415 188.047 32.4862 187.874 32.1887C187.708 31.883 187.485 31.6516 187.204 31.4946C186.932 31.3376 186.634 31.2591 186.312 31.2591C185.998 31.2591 185.7 31.3417 185.419 31.507C185.147 31.664 184.924 31.8954 184.75 32.2011C184.585 32.5068 184.502 32.8663 184.502 33.2795C184.502 33.6926 184.585 34.0521 184.75 34.3578C184.924 34.6636 185.147 34.8991 185.419 35.0644C185.7 35.2214 185.998 35.2999 186.312 35.2999C186.634 35.2999 186.932 35.2172 187.204 35.052C187.485 34.8867 187.708 34.6512 187.874 34.3454C188.047 34.0397 188.134 33.6761 188.134 33.2547ZM193.795 36.8244C193.233 36.8244 192.729 36.7253 192.283 36.527C191.837 36.3204 191.481 36.0436 191.217 35.6965C190.961 35.3494 190.82 34.9652 190.796 34.5438H192.543C192.576 34.8082 192.704 35.0272 192.928 35.2007C193.159 35.3742 193.444 35.461 193.783 35.461C194.113 35.461 194.369 35.3949 194.551 35.2627C194.741 35.1305 194.836 34.9611 194.836 34.7545C194.836 34.5314 194.721 34.3661 194.489 34.2587C194.266 34.143 193.907 34.019 193.411 33.8868C192.899 33.7629 192.477 33.6348 192.147 33.5026C191.824 33.3704 191.543 33.1679 191.304 32.8952C191.072 32.6225 190.957 32.2548 190.957 31.7921C190.957 31.412 191.064 31.0649 191.279 30.7509C191.502 30.4369 191.816 30.189 192.221 30.0072C192.634 29.8254 193.118 29.7345 193.671 29.7345C194.489 29.7345 195.142 29.9411 195.63 30.3542C196.117 30.7592 196.386 31.3087 196.435 32.0028H194.774C194.75 31.7301 194.634 31.5152 194.427 31.3582C194.229 31.193 193.96 31.1103 193.622 31.1103C193.308 31.1103 193.064 31.1682 192.89 31.2839C192.725 31.3996 192.642 31.5607 192.642 31.7673C192.642 31.9987 192.758 32.1763 192.99 32.3003C193.221 32.416 193.58 32.5358 194.068 32.6597C194.564 32.7837 194.973 32.9118 195.295 33.044C195.617 33.1762 195.894 33.3828 196.125 33.6637C196.365 33.9364 196.489 34.3 196.497 34.7545C196.497 35.1511 196.386 35.5064 196.163 35.8204C195.948 36.1345 195.634 36.3824 195.221 36.5642C194.816 36.7377 194.341 36.8244 193.795 36.8244Z" fill="white"/>
<defs>
<clipPath id="clip0_807_7046">
<rect width="62.7497" height="62.7497" fill="white" transform="translate(0.774902 0.837891)"/>
</clipPath>
</defs>
</svg>
