<svg width="327" height="229" viewBox="0 0 327 229" fill="none" xmlns="http://www.w3.org/2000/svg">
<path d="M254.464 208.338H80.046C76.9717 208.338 74.4795 210.831 74.4795 213.905C74.4795 216.979 76.9717 219.471 80.046 219.471H254.464C257.539 219.471 260.031 216.979 260.031 213.905C260.031 210.831 257.539 208.338 254.464 208.338Z" fill="#E4EBF7"/>
<path fill-rule="evenodd" clip-rule="evenodd" d="M108.033 162.93C108.033 165.573 105.89 167.716 103.247 167.716C100.605 167.716 98.4619 165.573 98.4619 162.93C98.4619 160.288 100.605 158.145 103.247 158.145C105.89 158.145 108.033 160.288 108.033 162.93Z" fill="#844FFF"/>
<path fill-rule="evenodd" clip-rule="evenodd" d="M102.348 205.998H104.2V164.36H102.348V205.998Z" fill="#844FFF"/>
<path fill-rule="evenodd" clip-rule="evenodd" d="M102.348 205.998L80.7742 209.592L79.3818 208.586L102.348 201.822V205.998Z" fill="#844FFF"/>
<path fill-rule="evenodd" clip-rule="evenodd" d="M104.199 205.998L125.773 209.592L127.165 208.586L104.199 201.822V205.998Z" fill="#844FFF"/>
<path fill-rule="evenodd" clip-rule="evenodd" d="M101.804 210.829H104.743V204.796H101.804V210.829Z" fill="#844FFF"/>
<path fill-rule="evenodd" clip-rule="evenodd" d="M82.7945 210.909C82.7945 212.287 81.6777 213.404 80.3002 213.404C78.9225 213.404 77.8057 212.287 77.8057 210.909C77.8057 209.532 78.9225 208.415 80.3002 208.415C81.6777 208.415 82.7945 209.532 82.7945 210.909Z" fill="#844FFF"/>
<path fill-rule="evenodd" clip-rule="evenodd" d="M105.769 210.909C105.769 212.287 104.652 213.404 103.275 213.404C101.897 213.404 100.78 212.287 100.78 210.909C100.78 209.532 101.897 208.415 103.275 208.415C104.652 208.415 105.769 209.532 105.769 210.909Z" fill="#844FFF"/>
<path fill-rule="evenodd" clip-rule="evenodd" d="M128.962 210.909C128.962 212.287 127.845 213.404 126.467 213.404C125.09 213.404 123.973 212.287 123.973 210.909C123.973 209.532 125.09 208.415 126.467 208.415C127.845 208.415 128.962 209.532 128.962 210.909Z" fill="#844FFF"/>
<path fill-rule="evenodd" clip-rule="evenodd" d="M133.243 162.052H73.252C73.252 156.155 78.0317 151.376 83.9281 151.376H122.567C128.463 151.376 133.243 156.155 133.243 162.052Z" fill="#A3B5D6"/>
<path fill-rule="evenodd" clip-rule="evenodd" d="M122.244 122.572C122.244 122.572 121.794 130.064 114.947 129.535C107.965 128.996 108.716 121.433 108.716 121.433C108.716 121.433 108.376 116.733 108.863 110.412C109.244 105.473 109.829 99.0221 110.373 95.8851C110.96 92.4995 114.076 90.2654 117.283 90.5131C122.157 90.8895 123.81 94.8215 123.702 98.2382C123.597 101.561 123.44 107.029 123.243 110.688C122.865 117.726 122.244 122.572 122.244 122.572Z" fill="#ADC6FF"/>
<path fill-rule="evenodd" clip-rule="evenodd" d="M137.529 131.71C138.353 134.791 145.206 133.745 145.206 133.745L148.565 136.483C149.097 136.851 149.325 136.492 149.615 136.558C150.395 136.736 150.582 135.915 150.582 135.915C150.88 135.848 151.266 136.153 151.552 135.438C151.552 135.438 152.108 135.523 152.297 134.868C152.369 134.624 151.296 131.325 150.656 129.395C150.375 128.547 149.642 127.931 148.76 127.798L140.559 126.562C140.559 126.562 136.421 127.566 137.529 131.71Z" fill="#C99382"/>
<path d="M144.704 131.594C144.61 131.554 144.502 131.598 144.462 131.692C144.427 131.775 144.457 131.87 144.53 131.918L144.559 131.934L146.982 132.97L149.401 136.304C149.454 136.377 149.551 136.4 149.63 136.362L149.658 136.345C149.732 136.292 149.754 136.194 149.716 136.116L149.699 136.087L147.251 132.711C147.237 132.693 147.221 132.678 147.203 132.666L147.174 132.65L144.704 131.594Z" fill="#65609B"/>
<path d="M146.35 130.577C146.261 130.527 146.149 130.558 146.099 130.647C146.054 130.726 146.074 130.824 146.142 130.88L146.169 130.899L148.393 132.153L150.364 135.605C150.409 135.684 150.503 135.717 150.586 135.688L150.616 135.674C150.695 135.629 150.728 135.535 150.699 135.452L150.685 135.422L148.688 131.926C148.677 131.906 148.663 131.889 148.646 131.875L148.618 131.857L146.35 130.577Z" fill="#65609B"/>
<path d="M147.945 129.636C147.865 129.573 147.749 129.587 147.685 129.667C147.629 129.738 147.634 129.837 147.692 129.903L147.716 129.926L149.213 131.112L151.012 134.817C151.051 134.898 151.143 134.938 151.227 134.914L151.258 134.902C151.34 134.863 151.379 134.771 151.356 134.686L151.344 134.655L149.526 130.913C149.518 130.896 149.508 130.881 149.495 130.867L149.475 130.848L147.945 129.636Z" fill="#65609B"/>
<path fill-rule="evenodd" clip-rule="evenodd" d="M115.78 117.343C115.78 117.343 108.879 115.89 107.478 121.624C106.033 127.538 112.588 129.238 112.588 129.238C112.588 129.238 117.23 130.322 122.946 131.682C126.435 132.512 130.306 133.351 133.204 133.557C136.342 133.78 137.052 132.173 137.752 129.306C138.584 125.901 138.582 124.41 135.677 123.242C132.908 122.13 129.014 121.128 126.032 120.214C120.346 118.473 115.78 117.343 115.78 117.343Z" fill="#ADC6FF"/>
<path fill-rule="evenodd" clip-rule="evenodd" d="M139.2 133.093L140.819 126.462L136.462 124.889L134.609 132.474L139.2 133.093Z" fill="#ADC6FF"/>
<path fill-rule="evenodd" clip-rule="evenodd" d="M143.973 145.224C130.268 141.659 116.065 138.114 104.701 135.553C104.701 135.553 96.1255 135.084 95.6719 142.921C95.228 150.603 104.492 152.885 104.492 152.885L141.709 158.677C141.709 158.677 147.78 159.553 148.795 152.808C149.72 146.655 143.973 145.224 143.973 145.224Z" fill="#597EF7"/>
<path fill-rule="evenodd" clip-rule="evenodd" d="M141.557 181.531C139.124 181.043 136.872 182.952 136.958 185.435C137.057 188.292 137.171 192.153 137.238 196.311C137.306 200.591 137.372 204.137 137.677 204.588C139.025 206.572 141.718 207.311 144.485 209.277C146.675 210.833 147.053 211.572 149.844 212.096C153.8 212.838 151.956 211.157 147.563 205.843C143.65 201.108 143.913 198.887 143.913 198.887L144.641 185.516C144.745 183.605 143.431 181.908 141.557 181.531Z" fill="#C99382"/>
<path fill-rule="evenodd" clip-rule="evenodd" d="M147.167 204.586C150.025 207.767 153.3 210.281 153.221 211.791C153.141 213.302 151.952 214.666 147.031 212.917C143.664 211.721 144.628 210.997 141.413 208.903C139.808 207.857 139.223 207.97 137.743 206.753C136.895 205.661 137.277 200.356 137.277 200.356L142.909 206.536C142.909 206.536 141.445 203.658 142.649 203.034C143.852 202.41 144.96 201.985 145.67 202.497C146.379 203.008 147.167 204.586 147.167 204.586Z" fill="#7D4556"/>
<path fill-rule="evenodd" clip-rule="evenodd" d="M149.955 152.913C148.108 175.367 146.005 197.338 146.005 197.338L136.511 197.331L135.028 152.105C135.028 152.105 135.86 146.915 143.194 145.97C149.939 145.101 149.955 152.913 149.955 152.913Z" fill="#597EF7"/>
<path fill-rule="evenodd" clip-rule="evenodd" d="M81.8614 145.706C82.716 136.648 82.9425 131.991 83.9567 130.29C105.758 130.914 111.189 130.627 111.189 130.627C111.189 130.627 111.412 133.831 112.416 143.693C112.416 143.693 105.704 155.94 97.0421 155.94C89.233 155.94 81.8614 145.706 81.8614 145.706Z" fill="#597EF7"/>
<path fill-rule="evenodd" clip-rule="evenodd" d="M83.9549 130.29L84.3672 126.183L111.063 126.503L111.188 130.618C111.188 130.618 97.059 131.162 83.9549 130.29Z" fill="#597EF7"/>
<path fill-rule="evenodd" clip-rule="evenodd" d="M95.9577 75.9113C95.9577 75.9113 92.2497 73.636 93.7345 69.5941C92.231 65.9811 94.3444 63.9041 94.3444 63.9041C94.3444 63.9041 94.6507 59.2767 97.728 59.17C99.8955 54.5175 105.196 56.6513 105.196 56.6513C105.196 56.6513 108.787 54.0039 113.529 58.1171C117.132 58.4286 117.236 56.6347 118.333 57.9412C119.431 59.2473 119.803 62.1954 118.198 63.2677C120.809 64.5534 118.164 68.6784 118.164 68.6784C118.164 68.6784 118.913 71.181 115.742 72.8752C112.571 74.5699 111.106 80.3559 105.897 81.9369C100.884 83.4585 95.7446 81.6174 95.9577 75.9113Z" fill="#7D4556"/>
<path fill-rule="evenodd" clip-rule="evenodd" d="M97.4695 84.6957L98.9763 76.7776L109.477 78.6406L109.218 85.6265C109.103 88.7451 106.442 91.1551 103.331 90.9578C103.272 90.954 103.213 90.9503 103.153 90.9465C99.9717 90.746 97.0819 87.8637 97.4695 84.6957Z" fill="#C99382"/>
<path fill-rule="evenodd" clip-rule="evenodd" d="M101.806 64.6891C101.806 64.6891 102.374 67.5306 100.18 68.1788C100.492 71.8363 98.9181 71.4905 98.9181 71.4905C98.9181 71.4905 96.4454 68.2099 94.6608 71.0058C92.965 73.6618 95.7536 77.6667 98.4111 77.1011C102.699 84.244 111.51 84.7496 114.508 80.1689C116.33 77.3853 115.754 73.2817 116.011 71.3629C116.645 66.6476 115.799 65.2016 115.799 65.2016C115.799 65.2016 113.988 65.555 112.042 64.0388C109.895 65.5732 106.888 63.9653 106.888 63.9653C106.888 63.9653 104.808 66.5313 101.806 64.6891Z" fill="#C99382"/>
<path d="M96.9054 71.5886C96.299 71.459 95.8811 71.6097 95.6512 71.9506C95.5483 72.1032 95.5057 72.2542 95.4961 72.3652C95.4865 72.4758 95.5684 72.5732 95.6788 72.5828C95.7893 72.5924 95.8866 72.5104 95.8962 72.3998C95.9004 72.3511 95.9254 72.2626 95.984 72.1756C96.1187 71.9758 96.3698 71.8853 96.8215 71.9819C97.2477 72.0731 97.6006 72.4026 97.8047 72.8424C97.8901 73.0264 97.939 73.2125 97.9446 73.3596C97.9487 73.467 97.93 73.5219 97.9261 73.524C97.5122 73.7513 97.1887 74.0795 97.0811 74.4424C96.9431 74.9076 97.1663 75.3619 97.7521 75.7404C97.8453 75.8006 97.9696 75.7737 98.0297 75.6804C98.0898 75.5871 98.063 75.4627 97.9698 75.4025C97.5221 75.1133 97.3843 74.8326 97.4661 74.5568C97.5386 74.3122 97.7895 74.0576 98.1191 73.8767C98.786 73.5111 98.0028 71.8234 96.9054 71.5886Z" fill="#65609B"/>
<path d="M97.4975 73.0664C97.3121 73.044 97.12 73.0371 96.937 73.0555C96.4396 73.1054 96.1045 73.3373 96.1064 73.8025C96.1069 73.9135 96.1972 74.0031 96.3081 74.0027C96.419 74.0022 96.5085 73.9118 96.508 73.8008C96.5072 73.593 96.6598 73.4874 96.977 73.4556C97.1267 73.4405 97.2908 73.4464 97.4493 73.4656L97.5223 73.4755C97.5424 73.4785 97.558 73.4812 97.5686 73.4833C97.6775 73.5044 97.7828 73.4331 97.8039 73.3241C97.825 73.2151 97.7538 73.1096 97.6449 73.0885L97.5695 73.076C97.5483 73.0729 97.5241 73.0696 97.4975 73.0664Z" fill="#65609B"/>
<path fill-rule="evenodd" clip-rule="evenodd" d="M108.768 71.3108C108.601 73.2409 106.904 74.6702 104.976 74.504C103.048 74.3373 101.621 72.6372 101.787 70.7072C101.953 68.7771 103.651 67.3472 105.579 67.514C107.507 67.6807 108.935 69.3808 108.768 71.3108Z" fill="white"/>
<path d="M105.601 67.2676C107.665 67.446 109.193 69.2657 109.015 71.332C108.836 73.3982 107.02 74.928 104.956 74.7502C102.893 74.5717 101.364 72.7519 101.543 70.6857C101.717 68.6536 103.479 67.1394 105.5 67.2602L105.601 67.2676ZM102.034 70.7282C101.88 72.5225 103.207 74.1027 104.998 74.2577C106.791 74.4121 108.368 73.0837 108.523 71.2894C108.678 69.4952 107.351 67.915 105.559 67.7601C103.767 67.6051 102.189 68.9342 102.034 70.7282Z" fill="#7D4556"/>
<path fill-rule="evenodd" clip-rule="evenodd" d="M117.263 71.7159C117.096 73.646 115.399 75.0753 113.471 74.9091C111.543 74.7423 110.115 73.0423 110.282 71.1122C110.448 69.1821 112.146 67.7522 114.074 67.919C116.002 68.0857 117.43 69.7858 117.263 71.7159Z" fill="white"/>
<path d="M114.094 67.6726C116.158 67.8511 117.687 69.6708 117.508 71.737C117.329 73.8033 115.513 75.3331 113.449 75.1552C111.385 74.9767 109.857 73.1567 110.036 71.0907C110.211 69.0586 111.972 67.5444 113.993 67.6652L114.094 67.6726ZM110.528 71.1332C110.372 72.9273 111.7 74.5077 113.492 74.6627C115.284 74.8172 116.861 73.4887 117.016 71.6944C117.171 69.9002 115.844 68.3201 114.052 68.1651C112.26 68.0101 110.682 69.3392 110.528 71.1332Z" fill="#7D4556"/>
<path d="M109.63 70.7379C109.534 70.7926 109.5 70.9153 109.555 71.0119L109.605 71.1037C109.646 71.1788 109.692 71.2644 109.741 71.3591C109.882 71.6299 110.023 71.9183 110.154 72.2118C110.273 72.4764 110.378 72.7324 110.465 72.975C110.76 73.7919 110.828 74.3831 110.643 74.5966C110.435 74.8361 110.164 74.9775 109.839 75.0361C109.508 75.0958 109.146 75.0664 108.795 74.9801C108.663 74.9477 108.565 74.9156 108.513 74.8955C108.41 74.8551 108.293 74.9062 108.253 75.0097C108.213 75.1131 108.264 75.2297 108.367 75.2701L108.436 75.295C108.502 75.3176 108.592 75.3443 108.699 75.3707C109.101 75.4692 109.516 75.5029 109.91 75.4318C110.321 75.3578 110.675 75.1733 110.946 74.8602C111.268 74.4889 111.188 73.7956 110.843 72.8383C110.752 72.5857 110.643 72.3206 110.521 72.0475C110.386 71.7461 110.242 71.4507 110.098 71.1734L110.002 70.9917L109.904 70.8136C109.849 70.717 109.727 70.6831 109.63 70.7379Z" fill="#65609B"/>
<path fill-rule="evenodd" clip-rule="evenodd" d="M105.93 76.1689C105.93 76.1689 109.128 76.8177 111.467 76.6477C111.467 76.6477 110.621 78.9016 108.338 78.425C106.311 78.0014 105.93 76.1689 105.93 76.1689Z" fill="white"/>
<path d="M105.971 75.9618L106.391 76.0401C106.724 76.0991 107.092 76.1582 107.483 76.2133C108.319 76.3311 109.143 76.4145 109.912 76.4484C110.474 76.4731 110.99 76.4704 111.45 76.437C111.604 76.4258 111.717 76.5777 111.663 76.7219L111.636 76.7889C111.608 76.853 111.568 76.9371 111.515 77.0361C111.391 77.2651 111.237 77.4939 111.051 77.708C110.372 78.4894 109.454 78.874 108.294 78.6317C107.459 78.4573 106.821 78.0465 106.359 77.4729C106.138 77.1996 105.973 76.9073 105.853 76.6147C105.781 76.4373 105.74 76.297 105.722 76.2119C105.692 76.0634 105.822 75.9317 105.971 75.9618ZM106.317 76.4561L106.239 76.4418L106.244 76.4552C106.349 76.7116 106.494 76.9684 106.687 77.2076C107.09 77.7077 107.644 78.0644 108.38 78.2181C109.378 78.4266 110.148 78.1042 110.733 77.4307L110.828 77.3157C110.92 77.1992 111.002 77.0786 111.074 76.957L111.119 76.8778L111.112 76.8784C110.734 76.8927 110.327 76.8895 109.894 76.8705C109.109 76.8359 108.272 76.7512 107.424 76.6316C107.028 76.5758 106.655 76.516 106.317 76.4561Z" fill="#7D4556"/>
<path d="M111.605 66.7649C111.504 66.7063 111.375 66.7407 111.316 66.8416C111.258 66.9425 111.292 67.0718 111.393 67.1303C112.476 67.7594 113.858 68.0139 115.307 67.7467C115.421 67.7256 115.497 67.6154 115.476 67.5007C115.455 67.386 115.345 67.3101 115.23 67.3312C113.882 67.5799 112.602 67.3442 111.605 66.7649Z" fill="#7D4556"/>
<path d="M109.836 69.9795C109.438 69.9277 109.019 69.9282 108.625 69.9598L108.473 69.9739L108.407 69.9818L108.472 70.4717L108.613 70.4569C108.629 70.4555 108.646 70.454 108.665 70.4526C109.027 70.4235 109.414 70.423 109.772 70.4696C109.986 70.4975 110.178 70.5413 110.34 70.6017L110.418 70.6333L110.614 70.1795C110.39 70.0824 110.128 70.0175 109.836 69.9795Z" fill="#7D4556"/>
<path d="M113.844 70.5754C113.243 70.5233 112.803 70.785 112.524 71.2378C112.377 71.4766 112.303 71.7122 112.276 71.8791C112.254 72.0138 112.345 72.1409 112.479 72.163C112.614 72.1851 112.741 72.0938 112.763 71.9591L112.771 71.9192C112.777 71.8937 112.786 71.8603 112.799 71.821C112.833 71.7101 112.882 71.5992 112.944 71.4974C113.132 71.1935 113.401 71.0332 113.801 71.0679C114.167 71.0994 114.377 71.285 114.49 71.5975C114.55 71.7648 114.574 71.9435 114.575 72.0981L114.572 72.1894C114.56 72.3254 114.661 72.4452 114.797 72.457C114.921 72.4678 115.032 72.3841 115.059 72.2653L115.065 72.2208C115.065 72.2163 115.065 72.2097 115.066 72.1964C115.077 71.9672 115.051 71.6961 114.954 71.4294C114.78 70.9464 114.415 70.6246 113.844 70.5754Z" fill="#7D4556"/>
<path d="M105.445 69.8493C104.844 69.7973 104.405 70.0589 104.126 70.5117C103.978 70.7505 103.904 70.986 103.877 71.1529C103.855 71.2876 103.946 71.4148 104.08 71.4369C104.203 71.457 104.319 71.3835 104.355 71.2687L104.379 71.1652C104.385 71.1448 104.391 71.1213 104.4 71.095C104.435 70.9841 104.483 70.8732 104.546 70.7714C104.733 70.4674 105.003 70.3071 105.403 70.3418C105.768 70.3733 105.979 70.5589 106.091 70.8714C106.152 71.0389 106.176 71.2176 106.176 71.3722L106.174 71.4635C106.162 71.5995 106.263 71.7192 106.398 71.7309C106.523 71.7417 106.634 71.6579 106.66 71.5391L106.667 71.4859L106.668 71.4705C106.678 71.2413 106.652 70.9701 106.556 70.7033C106.381 70.2203 106.017 69.8986 105.445 69.8493Z" fill="#7D4556"/>
<path fill-rule="evenodd" clip-rule="evenodd" d="M98.3107 70.728L101.76 71.0266L101.815 70.3875L98.366 70.0889L98.3107 70.728Z" fill="#7D4556"/>
<path d="M107.838 66.4211C107.795 66.3129 107.672 66.2606 107.564 66.3042C107.177 66.4603 106.719 66.5702 106.205 66.6379C105.424 66.7406 104.588 66.7408 103.805 66.6792L103.643 66.6653L103.392 66.6386C103.277 66.6235 103.171 66.705 103.156 66.8206C103.14 66.9363 103.222 67.0424 103.337 67.0575L103.455 67.0711L103.604 67.086C103.657 67.0909 103.713 67.0957 103.772 67.1003C104.582 67.1641 105.446 67.1639 106.26 67.0568C106.807 66.9847 107.299 66.8668 107.721 66.696C107.829 66.6524 107.882 66.5293 107.838 66.4211Z" fill="#7D4556"/>
<path d="M108.165 80.6049C108.054 80.5999 107.96 80.6857 107.955 80.7966L107.948 80.9012C107.944 80.9584 107.938 81.0293 107.929 81.1107C107.904 81.348 107.867 81.5852 107.817 81.8049C107.712 82.2623 107.561 82.5752 107.395 82.6662C107.298 82.7195 107.262 82.8417 107.316 82.9391C107.369 83.0365 107.491 83.0722 107.588 83.0189C107.889 82.8542 108.079 82.4586 108.208 81.8949C108.262 81.6578 108.302 81.4055 108.328 81.1535L108.344 80.9862L108.356 80.815C108.361 80.704 108.276 80.61 108.165 80.6049Z" fill="#65609B"/>
<path d="M108.864 81.2944C108.753 81.2934 108.662 81.3826 108.661 81.4936L108.656 81.6562C108.655 81.6914 108.653 81.7304 108.65 81.7725C108.638 81.983 108.618 82.1933 108.589 82.3883C108.559 82.5813 108.522 82.748 108.477 82.8793C108.441 82.9843 108.497 83.0987 108.602 83.1348C108.706 83.1709 108.821 83.115 108.857 83.01C108.911 82.8527 108.953 82.6637 108.986 82.4488C109.017 82.24 109.039 82.0176 109.051 81.7954L109.059 81.6192C109.061 81.5689 109.062 81.5277 109.062 81.4974C109.064 81.3864 108.975 81.2955 108.864 81.2944Z" fill="#65609B"/>
<path d="M107.237 81.4366C107.131 81.4041 107.019 81.4638 106.986 81.57L106.969 81.6219C106.959 81.6538 106.945 81.694 106.928 81.7407C106.88 81.8706 106.827 82.0003 106.768 82.1203C106.66 82.343 106.549 82.5022 106.46 82.5631L106.435 82.5783C106.335 82.6271 106.294 82.7474 106.342 82.8472C106.391 82.947 106.511 82.9884 106.611 82.9397C106.809 82.8429 106.973 82.6179 107.129 82.296C107.194 82.1626 107.253 82.0207 107.305 81.879L107.351 81.7476C107.359 81.7237 107.365 81.7035 107.37 81.6877C107.403 81.5816 107.343 81.4691 107.237 81.4366Z" fill="#65609B"/>
<path d="M109.475 81.1425C109.376 81.1569 109.305 81.241 109.303 81.3378L109.305 81.3704L109.48 82.5724C109.496 82.6823 109.598 82.7584 109.708 82.7424C109.807 82.7279 109.878 82.6438 109.88 82.5471L109.878 82.5144L109.703 81.3124C109.688 81.2135 109.604 81.142 109.508 81.1404L109.475 81.1425Z" fill="#65609B"/>
<path d="M102.581 81.0534C102.489 80.9926 102.364 81.0185 102.303 81.1114C102.243 81.2042 102.269 81.3289 102.361 81.3897C102.674 81.5948 102.996 81.7812 103.327 81.9496C105.343 82.9753 107.448 83.266 109.257 83.1423L109.425 83.1295C109.579 83.1166 109.688 83.1037 109.747 83.0947C109.857 83.0781 109.932 82.9757 109.916 82.8659C109.899 82.7561 109.797 82.6805 109.687 82.6971L109.595 82.709C109.556 82.7135 109.508 82.7185 109.451 82.7236L109.392 82.7287C107.614 82.8771 105.512 82.61 103.509 81.5911C103.191 81.4293 102.881 81.2503 102.581 81.0534Z" fill="#65609B"/>
<path d="M106.703 74.7661C106.671 74.6596 106.56 74.5987 106.453 74.6301L106.361 74.6594C106.289 74.6829 106.21 74.7108 106.125 74.7428C105.88 74.8343 105.636 74.9415 105.407 75.064C104.641 75.4738 104.201 75.9596 104.307 76.5472C104.327 76.6564 104.432 76.7289 104.541 76.709C104.65 76.6891 104.722 76.5845 104.702 76.4752C104.638 76.1202 104.97 75.7535 105.596 75.4187C105.808 75.3053 106.037 75.205 106.265 75.1193L106.375 75.0794C106.459 75.0495 106.525 75.0281 106.567 75.0158C106.673 74.9844 106.734 74.8726 106.703 74.7661Z" fill="#65609B"/>
<path fill-rule="evenodd" clip-rule="evenodd" d="M96.9214 85.0708L95.8001 87.1548C95.8001 87.1548 88.0205 88.0892 84.222 90.3801C80.7871 92.4517 81.2197 114.321 81.7482 121.681C79.8977 130.323 86.8029 129.626 86.8029 129.626L111.445 131.661C111.445 131.661 115.052 129.61 113.259 123.521C113.719 118.569 121.749 94.8204 118.647 91.7146C116.235 89.2993 110.412 88.8269 110.412 88.8269L110.022 86.4058C110.022 86.4058 106.284 85.9785 96.9214 85.0708Z" fill="#ADC6FF"/>
<path d="M117.461 101.171C117.348 101.16 117.248 101.243 117.237 101.356C117.025 103.537 116.611 106.141 116.029 109.079C115.701 110.734 115.325 112.469 114.91 114.259C114.419 116.371 113.897 118.464 113.372 120.461L113.063 121.624C112.976 121.951 112.891 122.264 112.81 122.56L112.598 123.327L112.419 123.962C112.388 124.071 112.451 124.185 112.56 124.216C112.669 124.248 112.783 124.185 112.814 124.075L113.029 123.311L113.206 122.669C113.328 122.223 113.458 121.742 113.594 121.229C114.179 119.03 114.764 116.704 115.31 114.352C115.726 112.558 116.103 110.819 116.432 109.159L116.564 108.484C117.079 105.809 117.449 103.423 117.646 101.395C117.656 101.282 117.574 101.182 117.461 101.171Z" fill="#597EF7"/>
<path d="M97.7176 88.3057C97.6079 88.2767 97.4956 88.3423 97.4667 88.4521C97.4378 88.5619 97.5033 88.6744 97.613 88.7033C101.46 89.7181 105.236 89.9777 108.416 89.8054L108.68 89.79C108.843 89.7799 108.99 89.7692 109.12 89.7583L109.381 89.7343C109.39 89.7333 109.398 89.7325 109.405 89.7317C109.517 89.719 109.598 89.6172 109.586 89.5044C109.573 89.3915 109.471 89.3104 109.359 89.3231L109.179 89.3406L108.882 89.3643C108.81 89.3695 108.734 89.3746 108.654 89.3796C105.461 89.5786 101.623 89.336 97.7176 88.3057Z" fill="#597EF7"/>
<path fill-rule="evenodd" clip-rule="evenodd" d="M122.132 185.921C119.488 185.484 117.127 187.627 117.311 190.305C117.522 193.385 117.787 197.547 118.011 202.034C118.241 206.651 118.442 210.477 118.789 210.952C120.315 213.044 123.25 213.743 126.309 215.764C128.729 217.363 129.165 218.147 132.196 218.609C136.494 219.265 134.442 217.519 129.506 211.944C125.109 206.976 125.311 204.57 125.311 204.57L125.607 190.11C125.649 188.043 124.169 186.259 122.132 185.921Z" fill="#C99382"/>
<path fill-rule="evenodd" clip-rule="evenodd" d="M129.031 210.601C132.232 213.93 135.86 216.523 135.829 218.157C135.799 219.79 134.565 221.306 129.189 219.599C125.51 218.431 126.524 217.615 122.978 215.473C121.207 214.403 120.58 214.546 118.937 213.286C117.982 212.139 118.199 206.399 118.199 206.399L124.506 212.863C124.506 212.863 122.82 209.81 124.096 209.092C125.372 208.374 126.553 207.875 127.338 208.401C128.123 208.927 129.031 210.601 129.031 210.601Z" fill="#7D4556"/>
<path fill-rule="evenodd" clip-rule="evenodd" d="M129.876 154.404C128.724 178.711 127.278 202.505 127.278 202.505L117.03 202.855L113.734 154.093C113.734 154.093 114.34 146.806 122.318 147.165C129.517 147.488 129.876 154.404 129.876 154.404Z" fill="#597EF7"/>
<path fill-rule="evenodd" clip-rule="evenodd" d="M125.577 146.444C114.496 142.33 100.347 139.339 90.0964 137.252C90.0964 137.252 82.4067 138.279 81.8868 145.846C81.3776 153.262 89.7323 155.15 89.7323 155.15L123.339 159.482C123.339 159.482 128.823 160.122 129.835 153.589C130.759 147.63 125.577 146.444 125.577 146.444Z" fill="#597EF7"/>
<path d="M83.6705 131.416C83.5596 131.416 83.4697 131.506 83.4697 131.617C83.4697 131.717 83.5426 131.799 83.638 131.815L83.6705 131.818H111.009C111.12 131.818 111.21 131.728 111.21 131.617C111.21 131.517 111.137 131.434 111.042 131.418L111.009 131.416H83.6705Z" fill="#844FFF"/>
<path d="M83.9737 134.535C83.8628 134.535 83.7729 134.625 83.7729 134.736C83.7729 134.836 83.8457 134.919 83.9412 134.935L83.9737 134.937H111.412C111.523 134.937 111.613 134.847 111.613 134.736C111.613 134.636 111.54 134.553 111.445 134.538L111.412 134.535H83.9737Z" fill="#844FFF"/>
<path d="M102.806 131.365C102.706 131.37 102.627 131.447 102.616 131.543L102.615 131.576L102.766 134.746C102.771 134.857 102.865 134.943 102.976 134.937C103.076 134.932 103.155 134.856 103.166 134.76L103.167 134.727L103.016 131.557C103.011 131.446 102.917 131.36 102.806 131.365Z" fill="#844FFF"/>
<path fill-rule="evenodd" clip-rule="evenodd" d="M127.142 146.344L96.2533 139.637L127.67 132.028L152.966 140.143L127.142 146.344Z" fill="#CCD7EE"/>
<path fill-rule="evenodd" clip-rule="evenodd" d="M128.44 144.235L106.007 139.364L128.293 133.766L147.195 139.732L128.44 144.235Z" fill="#4E5C93"/>
<path fill-rule="evenodd" clip-rule="evenodd" d="M96.1831 141.249L96.2484 139.647L127.787 146.236L127.152 147.914L96.1831 141.249Z" fill="#844FFF"/>
<path d="M132.366 135.346L114.182 140.875C114.112 140.897 114.072 140.971 114.093 141.042C114.112 141.104 114.171 141.143 114.233 141.137L114.26 141.132L132.444 135.602C132.515 135.581 132.555 135.506 132.533 135.435C132.514 135.373 132.455 135.335 132.393 135.341L132.366 135.346Z" fill="#CCD7EE"/>
<path d="M130.059 134.261L109.747 140.067C109.676 140.087 109.635 140.162 109.655 140.233C109.673 140.295 109.732 140.334 109.794 140.33L109.82 140.325L130.132 134.519C130.203 134.499 130.245 134.425 130.224 134.353C130.207 134.291 130.148 134.252 130.086 134.256L130.059 134.261Z" fill="#CCD7EE"/>
<path d="M132.541 136.985L117.257 141.865C117.187 141.888 117.148 141.963 117.17 142.034C117.19 142.095 117.25 142.133 117.312 142.126L117.339 142.121L132.623 137.24C132.693 137.218 132.732 137.142 132.709 137.072C132.69 137.01 132.63 136.973 132.568 136.979L132.541 136.985Z" fill="#CCD7EE"/>
<path d="M136.618 137.627L121.334 142.507C121.264 142.53 121.225 142.605 121.248 142.676C121.267 142.738 121.327 142.775 121.389 142.768L121.416 142.763L136.7 137.882C136.77 137.86 136.809 137.784 136.787 137.714C136.767 137.652 136.707 137.615 136.645 137.621L136.618 137.627Z" fill="#CCD7EE"/>
<path d="M140.366 138.487L125.082 143.367C125.012 143.39 124.973 143.465 124.996 143.535C125.015 143.597 125.075 143.635 125.137 143.628L125.164 143.622L140.448 138.742C140.518 138.72 140.557 138.644 140.535 138.574C140.515 138.512 140.455 138.474 140.393 138.481L140.366 138.487Z" fill="#CCD7EE"/>
<path d="M109.766 138.592C109.693 138.578 109.623 138.627 109.61 138.7C109.599 138.763 109.634 138.825 109.692 138.848L109.718 138.855L128.954 142.347C129.026 142.36 129.096 142.311 129.109 142.239C129.121 142.175 129.085 142.114 129.027 142.09L129.001 142.083L109.766 138.592Z" fill="#CCD7EE"/>
<path d="M114.148 137.318C114.075 137.305 114.006 137.353 113.992 137.426C113.981 137.49 114.016 137.551 114.074 137.575L114.1 137.582L133.336 141.073C133.409 141.087 133.479 141.038 133.492 140.965C133.504 140.902 133.468 140.84 133.41 140.817L133.384 140.81L114.148 137.318Z" fill="#CCD7EE"/>
<path d="M119.531 136.608C119.459 136.595 119.389 136.644 119.376 136.716C119.364 136.78 119.4 136.841 119.458 136.865L119.484 136.872L138.719 140.363C138.792 140.377 138.862 140.328 138.875 140.255C138.886 140.192 138.851 140.13 138.793 140.107L138.767 140.1L119.531 136.608Z" fill="#CCD7EE"/>
<path d="M123.284 134.128C123.211 134.115 123.141 134.164 123.128 134.236C123.117 134.3 123.152 134.361 123.21 134.385L123.236 134.392L142.472 137.883C142.545 137.897 142.615 137.848 142.628 137.775C142.639 137.712 142.604 137.65 142.546 137.627L142.52 137.62L123.284 134.128Z" fill="#CCD7EE"/>
<path fill-rule="evenodd" clip-rule="evenodd" d="M127.176 147.916L128.57 148.118L153.028 141.921L165.041 101.796L138.865 105.501L127.176 147.916Z" fill="#844FFF"/>
<path fill-rule="evenodd" clip-rule="evenodd" d="M128.62 148.123L154.412 141.6C154.647 141.541 154.835 141.361 154.905 141.128L166.493 102.569C166.639 102.084 166.234 101.612 165.733 101.683L140.901 105.234C140.63 105.273 140.406 105.47 140.333 105.735L128.62 148.123Z" fill="#4E5C93"/>
<path fill-rule="evenodd" clip-rule="evenodd" d="M91.2588 121.901C91.2588 121.901 90.4149 129.358 83.605 128.469C76.6613 127.563 77.8093 120.05 77.8093 120.05C77.8093 120.05 77.7172 115.339 78.5359 109.052C79.1757 104.14 80.0989 97.729 80.8073 94.6243C81.5719 91.2745 84.8007 89.2083 87.9904 89.6243C92.8373 90.2575 94.2819 94.271 93.9944 97.6776C93.7149 100.99 93.2699 106.442 92.8812 110.086C92.1332 117.094 91.2588 121.901 91.2588 121.901Z" fill="#ADC6FF"/>
<path fill-rule="evenodd" clip-rule="evenodd" d="M110.956 131.484C111.853 134.837 119.312 133.699 119.312 133.699L122.967 136.679C123.546 137.079 123.795 136.689 124.11 136.76C124.959 136.954 125.162 136.061 125.162 136.061C125.487 135.988 125.907 136.321 126.218 135.542C126.218 135.542 126.823 135.634 127.03 134.921C127.106 134.656 125.939 131.065 125.243 128.965C124.937 128.042 124.14 127.372 123.18 127.227L114.254 125.882C114.254 125.882 109.75 126.973 110.956 131.484Z" fill="#C99382"/>
<path d="M118.763 131.358C118.661 131.314 118.543 131.362 118.499 131.464C118.46 131.556 118.495 131.661 118.576 131.713L118.605 131.728L121.242 132.855L123.874 136.484C123.932 136.564 124.038 136.589 124.123 136.547L124.155 136.529C124.234 136.471 124.259 136.365 124.218 136.279L124.199 136.248L121.533 132.574C121.519 132.555 121.502 132.538 121.482 132.525L121.45 132.507L118.763 131.358Z" fill="#65609B"/>
<path d="M120.556 130.252C120.46 130.197 120.337 130.231 120.283 130.328C120.234 130.414 120.256 130.52 120.329 130.581L120.359 130.602L122.78 131.967L124.925 135.724C124.974 135.809 125.076 135.845 125.166 135.814L125.199 135.798C125.284 135.749 125.32 135.647 125.288 135.557L125.273 135.524L123.1 131.719C123.088 131.698 123.073 131.68 123.054 131.664L123.025 131.644L120.556 130.252Z" fill="#65609B"/>
<path d="M122.292 129.227C122.205 129.159 122.078 129.173 122.01 129.26C121.948 129.338 121.953 129.446 122.016 129.518L122.043 129.543L123.672 130.833L125.63 134.865C125.674 134.955 125.776 134.998 125.868 134.97L125.899 134.958C125.988 134.915 126.031 134.813 126.003 134.72L125.991 134.69L124.013 130.616C124.005 130.598 123.993 130.581 123.98 130.567L123.957 130.546L122.292 129.227Z" fill="#65609B"/>
<path fill-rule="evenodd" clip-rule="evenodd" d="M87.2834 115.849C87.2834 115.849 79.7742 114.267 78.2487 120.508C76.6755 126.943 83.8099 128.795 83.8099 128.795C83.8099 128.795 88.8619 129.974 95.0817 131.453C98.8797 132.357 103.093 133.27 106.247 133.494C109.662 133.737 110.434 131.988 111.197 128.868C112.103 125.163 112.101 123.538 108.939 122.269C105.925 121.058 101.687 119.967 98.4417 118.973C92.2535 117.078 87.2834 115.849 87.2834 115.849Z" fill="#ADC6FF"/>
<path fill-rule="evenodd" clip-rule="evenodd" d="M112.772 132.989L114.536 125.773L109.794 124.061L107.776 132.316L112.772 132.989Z" fill="#ADC6FF"/>
<path d="M93.9451 101.775C93.8323 101.763 93.7311 101.845 93.7191 101.958L93.6588 102.479C93.5207 103.607 93.2504 105.505 92.8612 108.114L91.5059 117.073C91.4913 117.175 91.555 117.272 91.6545 117.3C93.4959 117.809 95.3771 118.351 97.2701 118.923L98.5643 119.315L102.851 120.569L103.548 120.775C105.703 121.419 107.251 121.932 108.563 122.459C110.105 123.079 110.855 123.771 111.107 124.766C111.121 124.822 111.157 124.868 111.205 124.895L111.236 124.909L113.991 125.903L112.316 132.76L109.323 132.357C109.272 132.35 109.221 132.363 109.18 132.391L109.15 132.416C108.458 133.109 107.468 133.397 105.962 133.289C103.304 133.101 99.8899 132.451 95.1122 131.32L91.1451 130.379L83.5569 128.595C83.4464 128.569 83.336 128.638 83.3103 128.748C83.2846 128.859 83.3533 128.969 83.4637 128.995L86.7666 129.769C88.3896 130.151 90.0717 130.547 91.7817 130.952L95.2991 131.787C99.9507 132.881 103.299 133.512 105.933 133.7C107.448 133.808 108.515 133.532 109.29 132.849L109.367 132.778L112.443 133.193C112.536 133.205 112.624 133.154 112.659 133.07L112.67 133.038L114.434 125.822C114.456 125.731 114.414 125.639 114.335 125.594L114.304 125.58L111.476 124.558L111.451 124.478C111.129 123.468 110.326 122.748 108.851 122.133L108.716 122.078L108.437 121.967C107.263 121.509 105.896 121.054 104.093 120.51L102.527 120.047C101.632 119.787 99.6013 119.196 98.5864 118.893L98.2022 118.777C96.303 118.195 94.4118 117.643 92.5566 117.124L91.9387 116.952L93.2382 108.37C93.7133 105.191 94.0169 103.037 94.1274 102.001C94.1395 101.888 94.0578 101.787 93.9451 101.775Z" fill="#597EF7"/>
<path fill-rule="evenodd" clip-rule="evenodd" d="M192.459 146.934C201.786 142.548 207.345 154.051 202.654 160.455C196.93 168.271 193.998 177.264 192.365 179.973C190.987 182.259 187.214 187.831 182.671 185.263C178.489 182.899 180.768 173.622 180.768 173.622C180.768 173.622 180.953 152.344 192.459 146.934Z" fill="#5B8C00"/>
<path fill-rule="evenodd" clip-rule="evenodd" d="M164.405 183.477C161.234 179.224 160.077 173.12 163.616 171.555C167.009 170.055 172.63 173.749 175.234 180.86C177.837 187.97 179.339 193.083 176.792 193.971C172.614 195.43 168.593 189.094 164.405 183.477Z" fill="#5B8C00"/>
<path fill-rule="evenodd" clip-rule="evenodd" d="M197.741 183.8C194.154 187.978 188.979 196.383 185.737 193.44C183.772 191.655 186.399 183.207 193.589 178.61C199.706 174.699 201.327 179.621 197.741 183.8Z" fill="#7CB305"/>
<path fill-rule="evenodd" clip-rule="evenodd" d="M163.422 154.804C164.786 153.892 166.502 153.683 168.067 154.182C170.252 154.877 173.568 156.949 176.849 162.895C181.133 170.657 183.363 179.167 182.922 184.558C182.634 188.083 178.266 189.603 175.822 187.033C174.699 185.852 173.512 184.033 172.35 181.272C167.674 170.163 163.302 163.201 162.781 162.502C161.39 160.637 160.395 156.829 163.422 154.804Z" fill="#7CB305"/>
<path fill-rule="evenodd" clip-rule="evenodd" d="M166.56 159.235C166.606 159.783 166.197 160.265 165.645 160.311C165.093 160.357 164.608 159.95 164.562 159.401C164.516 158.853 164.926 158.371 165.477 158.325C166.029 158.279 166.514 158.686 166.56 159.235Z" fill="white"/>
<path fill-rule="evenodd" clip-rule="evenodd" d="M175.075 163.49C175.121 164.038 174.711 164.52 174.16 164.566C173.608 164.612 173.123 164.205 173.077 163.657C173.031 163.108 173.44 162.626 173.992 162.58C174.544 162.534 175.029 162.942 175.075 163.49Z" fill="white"/>
<path fill-rule="evenodd" clip-rule="evenodd" d="M173.648 174.819C173.701 175.448 173.232 176 172.6 176.052C171.968 176.105 171.413 175.638 171.36 175.01C171.307 174.382 171.776 173.83 172.408 173.778C173.04 173.725 173.595 174.191 173.648 174.819Z" fill="white"/>
<path fill-rule="evenodd" clip-rule="evenodd" d="M199.801 157.888C199.801 158.779 199.074 159.502 198.177 159.502C197.281 159.502 196.554 158.779 196.554 157.888C196.554 156.997 197.281 156.274 198.177 156.274C199.074 156.274 199.801 156.997 199.801 157.888Z" fill="white"/>
<path fill-rule="evenodd" clip-rule="evenodd" d="M186.731 162.817C186.731 163.708 186.004 164.431 185.107 164.431C184.211 164.431 183.484 163.708 183.484 162.817C183.484 161.926 184.211 161.203 185.107 161.203C186.004 161.203 186.731 161.926 186.731 162.817Z" fill="white"/>
<path fill-rule="evenodd" clip-rule="evenodd" d="M190.964 173.774C190.964 174.146 190.66 174.448 190.285 174.448C189.911 174.448 189.607 174.146 189.607 173.774C189.607 173.401 189.911 173.099 190.285 173.099C190.66 173.099 190.964 173.401 190.964 173.774Z" fill="white"/>
<path fill-rule="evenodd" clip-rule="evenodd" d="M195.853 182.401C195.853 182.952 195.404 183.398 194.85 183.398C194.297 183.398 193.848 182.952 193.848 182.401C193.848 181.851 194.297 181.405 194.85 181.405C195.404 181.405 195.853 181.851 195.853 182.401Z" fill="white"/>
<path d="M172.437 184.612C172.531 184.523 172.679 184.527 172.768 184.62L172.811 184.666L172.843 184.701C172.902 184.767 172.97 184.845 173.046 184.935C173.264 185.193 173.505 185.501 173.765 185.858C174.505 186.878 175.245 188.094 175.935 189.505C177.904 193.531 179.085 198.313 179.085 203.834C179.085 203.962 178.98 204.066 178.851 204.066C178.722 204.066 178.617 203.962 178.617 203.834C178.617 198.386 177.453 193.673 175.515 189.708C174.837 188.322 174.111 187.129 173.386 186.131C173.148 185.803 172.926 185.519 172.725 185.279L172.688 185.234C172.631 185.167 172.579 185.107 172.533 185.055L172.475 184.989C172.453 184.965 172.438 184.949 172.429 184.941C172.34 184.848 172.344 184.701 172.437 184.612Z" fill="#844FFF"/>
<path d="M190.097 186.239C190.174 186.136 190.321 186.115 190.424 186.191C190.528 186.268 190.549 186.414 190.472 186.517C189.62 187.65 188.835 188.869 188.112 190.161C186.585 192.893 185.404 195.821 184.527 198.749C184.221 199.774 183.974 200.726 183.782 201.579L183.743 201.754C183.697 201.963 183.657 202.153 183.624 202.324L183.602 202.436L183.563 202.647C183.542 202.773 183.421 202.858 183.294 202.837C183.167 202.816 183.081 202.696 183.102 202.569L183.115 202.495C183.126 202.434 183.14 202.363 183.156 202.282L183.194 202.088C183.232 201.904 183.276 201.7 183.326 201.478L183.368 201.291C183.556 200.476 183.791 199.578 184.079 198.617C184.965 195.658 186.158 192.699 187.704 189.935C188.436 188.626 189.233 187.389 190.097 186.239Z" fill="#844FFF"/>
<path d="M194.182 157.245C194.271 157.33 194.278 157.469 194.199 157.562L194.189 157.573C194.184 157.578 194.175 157.589 194.16 157.605L194.102 157.667L194.069 157.704C193.968 157.815 193.851 157.95 193.719 158.107C193.341 158.557 192.918 159.099 192.463 159.732C191.16 161.545 189.857 163.729 188.64 166.286C186.613 170.542 185.035 175.397 184.079 180.855C182.917 187.483 182.725 194.723 183.676 202.58C183.691 202.708 183.6 202.823 183.472 202.839C183.343 202.854 183.227 202.763 183.212 202.636C182.255 194.733 182.449 187.447 183.618 180.775C184.582 175.275 186.173 170.381 188.217 166.087C189.447 163.505 190.764 161.297 192.083 159.462L192.185 159.321C192.591 158.761 192.971 158.274 193.317 157.86L193.36 157.809C193.485 157.661 193.596 157.532 193.694 157.423L193.721 157.394C193.751 157.36 193.779 157.33 193.803 157.304L193.851 157.252C193.941 157.159 194.089 157.156 194.182 157.245Z" fill="#844FFF"/>
<path d="M173.949 171.026C174.059 170.959 174.203 170.995 174.27 171.104L174.293 171.143C174.312 171.175 174.334 171.212 174.359 171.256L174.396 171.32C174.459 171.429 174.529 171.555 174.607 171.697L174.671 171.815C174.909 172.255 175.169 172.765 175.447 173.341L175.485 173.42C176.393 175.31 177.3 177.521 178.146 180.032C180.515 187.064 181.957 195.045 182.011 203.832C182.012 203.961 181.908 204.065 181.779 204.066C181.649 204.067 181.544 203.963 181.543 203.835C181.49 195.1 180.057 187.167 177.703 180.18C176.878 177.732 175.996 175.574 175.113 173.723L175.063 173.621C174.762 172.992 174.481 172.443 174.227 171.977L174.151 171.837C174.078 171.705 174.012 171.588 173.954 171.488L173.926 171.44L173.87 171.345C173.803 171.235 173.838 171.092 173.949 171.026Z" fill="#844FFF"/>
<path fill-rule="evenodd" clip-rule="evenodd" d="M191.939 215.361H171.734C170.642 215.361 169.748 214.472 169.748 213.387V198.732C169.748 197.646 170.642 196.757 171.734 196.757H191.939C193.031 196.757 193.925 197.646 193.925 198.732V213.387C193.925 214.472 193.031 215.361 191.939 215.361Z" fill="#844FFF"/>
<g clip-path="url(#clip0_1227_12877)">
<path d="M55 27.6675C55 12.4797 42.6877 0.16748 27.5 0.16748C12.3123 0.16748 0 12.4795 0 27.6675C0 41.3934 10.0564 52.7705 23.2031 54.8334V35.6167H16.2207V27.6675H23.2031V21.6089C23.2031 14.7167 27.3088 10.9097 33.5902 10.9097C36.5991 10.9097 39.7461 11.4468 39.7461 11.4468V18.2144H36.2785C32.8621 18.2144 31.7969 20.3342 31.7969 22.5091V27.6675H39.4238L38.2046 35.6167H31.7969V54.8334C44.9436 52.7705 55 41.3936 55 27.6675Z" fill="#2163B8"/>
<path d="M38.2046 35.6167L39.4238 27.6675H31.7969V22.5091C31.7969 20.334 32.8623 18.2144 36.2785 18.2144H39.7461V11.4468C39.7461 11.4468 36.5991 10.9097 33.5902 10.9097C27.3088 10.9097 23.2031 14.7167 23.2031 21.6089V27.6675H16.2207V35.6167H23.2031V54.8334C24.6246 55.0562 26.0612 55.1679 27.5 55.1675C28.9388 55.1679 30.3754 55.0562 31.7969 54.8334V35.6167H38.2046Z" fill="white"/>
</g>
<circle cx="100.5" cy="27.6675" r="1.5" fill="#D9D9D9"/>
<circle cx="112.5" cy="27.6675" r="1.5" fill="#D9D9D9"/>
<circle cx="124.5" cy="27.6675" r="1.5" fill="#D9D9D9"/>
<circle cx="136.5" cy="27.6675" r="1.5" fill="#D9D9D9"/>
<g clip-path="url(#clip1_1227_12877)">
<path d="M161.469 27.6668C161.469 26.384 161.962 25.1502 162.846 24.2208C163.731 23.2913 164.938 22.7373 166.219 22.6732L166.469 22.6668L170.469 22.6675C171.773 22.6687 173.025 23.179 173.957 24.0897C174.89 25.0004 175.431 26.2394 175.463 27.5427C175.496 28.846 175.018 30.1105 174.132 31.0666C173.245 32.0227 172.021 32.5949 170.719 32.6611L170.47 32.6667H167.469C167.215 32.6663 166.97 32.5692 166.785 32.3951C166.6 32.221 166.488 31.983 166.473 31.7295C166.457 31.4759 166.538 31.2258 166.7 31.0299C166.861 30.834 167.092 30.7071 167.344 30.6748L167.469 30.667L170.47 30.667C171.25 30.6693 172 30.3676 172.562 29.8258C173.123 29.284 173.451 28.5448 173.477 27.765C173.502 26.9853 173.223 26.2262 172.698 25.649C172.173 25.0717 171.444 24.7216 170.666 24.6729L170.469 24.6672L166.469 24.6665C166.075 24.6665 165.685 24.7441 165.321 24.8949C164.957 25.0456 164.626 25.2666 164.347 25.5452C164.069 25.8238 163.848 26.1546 163.697 26.5186C163.546 26.8826 163.469 27.2728 163.469 27.6668C163.464 27.929 163.357 28.1789 163.17 28.3626C162.983 28.5464 162.731 28.6494 162.469 28.6494C162.207 28.6494 161.955 28.5464 161.768 28.3626C161.581 28.1789 161.474 27.929 161.469 27.6668ZM152.469 27.6668C152.469 26.384 152.962 25.1502 153.846 24.2208C154.731 23.2913 155.938 22.7373 157.219 22.6732L157.469 22.6668L160.47 22.6683C160.724 22.6687 160.968 22.7658 161.153 22.9399C161.339 23.114 161.45 23.352 161.466 23.6055C161.482 23.8591 161.401 24.1092 161.239 24.3051C161.077 24.501 160.847 24.6279 160.595 24.6602L160.47 24.668L157.47 24.668C156.694 24.6705 155.948 24.9742 155.391 25.5152C154.833 26.0561 154.508 26.7922 154.482 27.5685C154.456 28.3448 154.732 29.1009 155.253 29.6776C155.773 30.2543 156.497 30.6067 157.272 30.6607L157.469 30.667L161.47 30.667C162.265 30.6669 163.028 30.3509 163.591 29.7884C164.153 29.2259 164.469 28.463 164.469 27.6675C164.469 27.5362 164.495 27.4061 164.545 27.2847C164.596 27.1633 164.669 27.0531 164.762 26.9601C164.855 26.8672 164.965 26.7935 165.086 26.7432C165.208 26.6929 165.338 26.667 165.469 26.6669C165.601 26.6669 165.731 26.6927 165.852 26.7429C165.973 26.7932 166.084 26.8668 166.177 26.9596C166.269 27.0525 166.343 27.1627 166.393 27.2841C166.444 27.4054 166.47 27.5354 166.47 27.6668C166.47 28.9496 165.977 30.1834 165.092 31.1128C164.208 32.0423 163.001 32.5963 161.719 32.6604L161.469 32.6675L157.469 32.6667C156.143 32.6665 154.872 32.1398 153.934 31.2023C152.997 30.2648 152.469 28.9926 152.469 27.6668Z" fill="white"/>
</g>
<circle cx="191.441" cy="27.6675" r="1.5" fill="#D9D9D9"/>
<circle cx="203.441" cy="27.6675" r="1.5" fill="#D9D9D9"/>
<circle cx="215.441" cy="27.6675" r="1.5" fill="#D9D9D9"/>
<circle cx="227.441" cy="27.6675" r="1.5" fill="#D9D9D9"/>
<path opacity="0.5" fill-rule="evenodd" clip-rule="evenodd" d="M294.214 21.9346C294.197 23.5608 294.197 25.4148 294.197 27.6218C294.197 29.8287 294.197 31.6827 294.214 33.309C295.841 33.3261 297.695 33.3267 299.902 33.3267C302.109 33.3267 303.963 33.3261 305.589 33.309C305.606 31.6829 305.607 29.8288 305.607 27.6218C305.607 25.4148 305.606 23.5608 305.589 21.9346C303.963 21.9175 302.109 21.9169 299.902 21.9169C297.695 21.9169 295.841 21.9175 294.214 21.9346ZM287.562 22.2824C287.561 22.2824 287.566 22.2813 287.576 22.2794C287.566 22.2815 287.562 22.2825 287.562 22.2824ZM294.562 15.2817C294.562 15.2818 294.561 15.2866 294.559 15.2959C294.561 15.2863 294.562 15.2817 294.562 15.2817ZM312.242 22.2824C312.242 22.2825 312.237 22.2815 312.227 22.2794C312.237 22.2813 312.242 22.2824 312.242 22.2824ZM305.244 15.296C305.242 15.2866 305.241 15.2818 305.241 15.2817C305.241 15.2817 305.242 15.2863 305.244 15.296ZM305.241 39.9619C305.241 39.9618 305.242 39.957 305.244 39.9477C305.242 39.9573 305.241 39.9619 305.241 39.9619ZM312.227 32.9643C312.237 32.9621 312.242 32.9612 312.242 32.9612C312.242 32.9612 312.237 32.9623 312.227 32.9643ZM294.559 39.9489C294.561 39.9582 294.562 39.963 294.562 39.9631C294.562 39.9632 294.561 39.9585 294.559 39.9489ZM276.89 50.6333C280.839 54.582 287.192 54.582 299.902 54.582C312.611 54.582 318.964 54.582 322.913 50.6333C326.862 46.6846 326.862 40.3312 326.862 27.6218C326.862 14.9124 326.862 8.55905 322.913 4.61034C318.964 0.661621 312.611 0.661621 299.902 0.661621C287.192 0.661621 280.839 0.661621 276.89 4.61034C272.941 8.55905 272.941 14.9124 272.941 27.6218C272.941 40.3285 272.941 46.6873 276.89 50.6333ZM287.576 32.9643C287.566 32.9623 287.561 32.9612 287.562 32.9612C287.562 32.9612 287.566 32.9621 287.576 32.9643Z" fill="url(#paint0_linear_1227_12877)"/>
<path d="M280.501 18.9046C280.501 13.0944 285.211 8.38428 291.021 8.38428H316.27C322.08 8.38428 326.79 13.0944 326.79 18.9046V44.1532C326.79 49.9634 322.08 54.6735 316.27 54.6735H291.021C285.211 54.6735 280.501 49.9634 280.501 44.1532V18.9046Z" fill="#8100A9"/>
<path d="M276.248 14.8894C276.248 9.07925 280.958 4.36914 286.768 4.36914H312.017C317.827 4.36914 322.537 9.07923 322.537 14.8894V40.1381C322.537 45.9483 317.827 50.6584 312.017 50.6584H286.768C280.958 50.6584 276.248 45.9483 276.248 40.1381V14.8894Z" fill="white"/>
<path fill-rule="evenodd" clip-rule="evenodd" d="M304.127 15.4087C302.542 14.0369 301.749 13.3513 301.1 13.6482C300.654 13.8516 300.514 14.4065 300.469 15.4109C300.469 15.4116 300.469 15.4123 300.469 15.413C300.451 15.8362 300.449 16.3393 300.449 16.9294C300.449 16.9838 300.449 17.039 300.449 17.0949V20.4809C300.279 20.4809 300.107 20.4835 299.934 20.4888C299.868 20.4908 299.801 20.4932 299.734 20.496C299.732 20.4961 299.73 20.4962 299.729 20.4962C296.413 20.637 292.505 21.7684 289.385 24.7669C287.42 26.655 285.767 29.2834 284.77 32.8708C284.677 33.2072 284.589 33.5521 284.507 33.9055C284.32 34.7165 284.165 35.5728 284.044 36.4766C284.044 36.4783 284.044 36.48 284.044 36.4817C283.995 36.8464 283.953 37.2189 283.916 37.5992L283.915 37.6117C283.784 38.9638 283.718 39.6413 284.001 39.7743C284.134 39.8376 284.324 39.7522 284.6 39.5328C284.905 39.2907 285.315 38.8854 285.869 38.3367L285.877 38.3289C286.045 38.1622 286.218 37.9989 286.396 37.839C286.396 37.8389 286.397 37.8388 286.397 37.8386C287.033 37.2677 287.731 36.7409 288.479 36.2609C291.303 34.4471 294.831 33.3014 298.349 32.9705C298.818 32.9264 299.287 32.8967 299.753 32.8819C299.754 32.8819 299.755 32.8819 299.755 32.8819C299.819 32.8798 299.884 32.8781 299.948 32.8766C299.949 32.8766 299.951 32.8765 299.952 32.8765C300.118 32.8727 300.284 32.8708 300.449 32.8708V36.2609C300.449 36.2666 300.449 36.2722 300.449 36.2778C300.449 36.3266 300.449 36.3748 300.449 36.4224C300.449 38.4134 300.466 39.4181 301.1 39.7056C301.749 40.0025 302.542 39.3168 304.127 37.945L309.38 33.3984C309.589 33.2175 309.792 33.0417 309.989 32.8708C311.461 31.5937 312.595 30.5868 313.392 29.6863C314.331 28.625 314.8 27.7113 314.8 26.6769C314.8 25.6417 314.331 24.7278 313.393 23.667C312.596 22.7658 311.461 21.7586 309.987 20.4809C309.791 20.3106 309.588 20.1356 309.38 19.9553L304.132 15.4109V15.413L304.127 15.4087ZM292.92 26.8012C292.92 26.8007 292.932 26.8098 292.956 26.8298C292.933 26.8116 292.921 26.8016 292.92 26.8012Z" fill="url(#paint1_linear_1227_12877)"/>
<defs>
<linearGradient id="paint0_linear_1227_12877" x1="299.902" y1="0.661621" x2="299.902" y2="54.582" gradientUnits="userSpaceOnUse">
<stop stop-color="#EB00FF"/>
<stop offset="1" stop-color="#4663FF"/>
</linearGradient>
<linearGradient id="paint1_linear_1227_12877" x1="299.301" y1="13.5798" x2="299.301" y2="39.7947" gradientUnits="userSpaceOnUse">
<stop stop-color="#EB00FF"/>
<stop offset="1" stop-color="#4663FF"/>
</linearGradient>
<clipPath id="clip0_1227_12877">
<rect width="55" height="55" fill="white" transform="translate(0 0.16748)"/>
</clipPath>
<clipPath id="clip1_1227_12877">
<rect width="24" height="24" fill="white" transform="translate(147 27.6675) rotate(-45)"/>
</clipPath>
</defs>
</svg>
