<svg width="130" height="35" viewBox="0 0 130 35" fill="none" xmlns="http://www.w3.org/2000/svg">
<circle cx="1.5" cy="17.6675" r="1.5" fill="#D9D9D9"/>
<circle cx="13.5" cy="17.6675" r="1.5" fill="#D9D9D9"/>
<circle cx="25.5" cy="17.6675" r="1.5" fill="#D9D9D9"/>
<circle cx="37.5" cy="17.6675" r="1.5" fill="#D9D9D9"/>
<g clip-path="url(#clip0_1227_12969)">
<path d="M62.4691 17.6668C62.4691 16.384 62.9623 15.1502 63.8464 14.2208C64.7306 13.2913 65.9382 12.7373 67.2194 12.6732L67.469 12.6668L71.4692 12.6675C72.7728 12.6687 74.0245 13.179 74.9574 14.0897C75.8903 15.0004 76.4306 16.2394 76.4632 17.5427C76.4957 18.846 76.0179 20.1105 75.1317 21.0666C74.2454 22.0227 73.0208 22.5949 71.7188 22.6611L71.4699 22.6667H68.4689C68.2148 22.6663 67.9705 22.5692 67.7854 22.3951C67.6003 22.221 67.4885 21.983 67.4726 21.7295C67.4566 21.4759 67.5378 21.2258 67.6996 21.0299C67.8614 20.834 68.0917 20.7071 68.3437 20.6748L68.4689 20.667L71.4699 20.667C72.25 20.6693 73.0004 20.3676 73.5618 19.8258C74.1232 19.284 74.4515 18.5448 74.477 17.765C74.5025 16.9853 74.2232 16.2262 73.6983 15.649C73.1735 15.0717 72.4444 14.7216 71.6657 14.6729L71.4692 14.6672L67.469 14.6665C67.075 14.6665 66.6849 14.7441 66.3209 14.8949C65.9568 15.0456 65.6261 15.2666 65.3475 15.5452C65.0689 15.8238 64.8479 16.1546 64.6971 16.5186C64.5463 16.8826 64.4688 17.2728 64.4688 17.6668C64.4642 17.929 64.3569 18.1789 64.1699 18.3626C63.9829 18.5464 63.7312 18.6494 63.4689 18.6494C63.2067 18.6494 62.955 18.5464 62.768 18.3626C62.581 18.1789 62.4737 17.929 62.4691 17.6668ZM53.469 17.6668C53.4691 16.384 53.9622 15.1502 54.8464 14.2208C55.7306 13.2913 56.9382 12.7373 58.2194 12.6732L58.469 12.6668L61.47 12.6683C61.724 12.6687 61.9684 12.7658 62.1535 12.9399C62.3385 13.114 62.4504 13.352 62.4663 13.6055C62.4822 13.8591 62.401 14.1092 62.2392 14.3051C62.0774 14.501 61.8471 14.6279 61.5951 14.6602L61.47 14.668L58.4704 14.668C57.6937 14.6705 56.9482 14.9742 56.3908 15.5152C55.8334 16.0561 55.5076 16.7922 55.4819 17.5685C55.4561 18.3448 55.7325 19.1009 56.2528 19.6776C56.7731 20.2543 57.4968 20.6067 58.2717 20.6607L58.469 20.667L62.4698 20.667C63.2653 20.6669 64.0282 20.3509 64.5907 19.7884C65.1532 19.2259 65.4692 18.463 65.4693 17.6675C65.4693 17.5362 65.4951 17.4061 65.5453 17.2847C65.5956 17.1633 65.6692 17.0531 65.7621 16.9601C65.8549 16.8672 65.9651 16.7935 66.0865 16.7432C66.2078 16.6929 66.3379 16.667 66.4692 16.6669C66.6005 16.6669 66.7306 16.6927 66.852 16.7429C66.9734 16.7932 67.0836 16.8668 67.1766 16.9596C67.2695 17.0525 67.3432 17.1627 67.3935 17.2841C67.4438 17.4054 67.4697 17.5354 67.4698 17.6668C67.4697 18.9496 66.9766 20.1834 66.0924 21.1128C65.2082 22.0423 64.0006 22.5963 62.7194 22.6604L62.4691 22.6675L58.469 22.6667C57.1432 22.6665 55.8717 22.1398 54.9342 21.2023C53.9967 20.2648 53.4692 18.9926 53.469 17.6668Z" fill="white"/>
</g>
<circle cx="92.4414" cy="17.6675" r="1.5" fill="#D9D9D9"/>
<circle cx="104.441" cy="17.6675" r="1.5" fill="#D9D9D9"/>
<circle cx="116.441" cy="17.6675" r="1.5" fill="#D9D9D9"/>
<circle cx="128.441" cy="17.6675" r="1.5" fill="#D9D9D9"/>
<defs>
<clipPath id="clip0_1227_12969">
<rect width="24" height="24" fill="white" transform="translate(48 17.6675) rotate(-45)"/>
</clipPath>
</defs>
</svg>
