<svg width="55" height="55" viewBox="0 0 55 55" fill="none" xmlns="http://www.w3.org/2000/svg">
<g id="Group 7">
<path id="Vector (Stroke)" opacity="0.5" fill-rule="evenodd" clip-rule="evenodd" d="M22.2144 21.9346C22.1973 23.5608 22.1967 25.4148 22.1967 27.6218C22.1967 29.8287 22.1973 31.6827 22.2144 33.309C23.8406 33.3261 25.6946 33.3267 27.9016 33.3267C30.1086 33.3267 31.9626 33.3261 33.5888 33.309C33.6059 31.6829 33.6065 29.8288 33.6065 27.6218C33.6065 25.4148 33.6059 23.5608 33.5888 21.9346C31.9626 21.9175 30.1086 21.9169 27.9016 21.9169C25.6946 21.9169 23.8406 21.9175 22.2144 21.9346ZM15.5615 22.2824C15.5615 22.2824 15.5661 22.2813 15.5757 22.2794C15.5664 22.2815 15.5616 22.2825 15.5615 22.2824ZM22.5622 15.2817C22.5623 15.2818 22.5613 15.2866 22.5591 15.2959C22.5611 15.2863 22.5622 15.2817 22.5622 15.2817ZM40.2417 22.2824C40.2416 22.2825 40.2368 22.2815 40.2275 22.2794C40.2371 22.2813 40.2417 22.2824 40.2417 22.2824ZM33.2441 15.296C33.2419 15.2866 33.2409 15.2818 33.241 15.2817C33.241 15.2817 33.2421 15.2863 33.2441 15.296ZM33.241 39.9619C33.2409 39.9618 33.2419 39.957 33.244 39.9477C33.2421 39.9573 33.241 39.9619 33.241 39.9619ZM40.2275 32.9643C40.2368 32.9621 40.2416 32.9612 40.2417 32.9612C40.2417 32.9612 40.2371 32.9623 40.2275 32.9643ZM22.5593 39.9489C22.5615 39.9582 22.5624 39.963 22.5624 39.9631C22.5624 39.9632 22.5613 39.9585 22.5593 39.9489ZM4.89012 50.6333C8.83884 54.582 15.1922 54.582 27.9016 54.582C40.611 54.582 46.9644 54.582 50.9131 50.6333C54.8618 46.6846 54.8618 40.3312 54.8618 27.6218C54.8618 14.9124 54.8618 8.55905 50.9131 4.61034C46.9644 0.661621 40.611 0.661621 27.9016 0.661621C15.1922 0.661621 8.83884 0.661621 4.89012 4.61034C0.941406 8.55905 0.941406 14.9124 0.941406 27.6218C0.941406 40.3285 0.941406 46.6873 4.89012 50.6333ZM15.5757 32.9643C15.5661 32.9623 15.5615 32.9612 15.5615 32.9612C15.5616 32.9612 15.5664 32.9621 15.5757 32.9643Z" fill="url(#paint0_linear_1227_12983)"/>
<path id="Rectangle 12" d="M8.50098 18.9046C8.50098 13.0944 13.2111 8.38428 19.0213 8.38428H44.2699C50.0801 8.38428 54.7902 13.0944 54.7902 18.9046V44.1532C54.7902 49.9634 50.0801 54.6735 44.2699 54.6735H19.0213C13.2111 54.6735 8.50098 49.9634 8.50098 44.1532V18.9046Z" fill="#8100A9"/>
<path id="Rectangle 13" d="M4.24805 14.8894C4.24805 9.07925 8.95814 4.36914 14.7683 4.36914H40.017C45.8272 4.36914 50.5373 9.07923 50.5373 14.8894V40.1381C50.5373 45.9483 45.8272 50.6584 40.017 50.6584H14.7683C8.95815 50.6584 4.24805 45.9483 4.24805 40.1381V14.8894Z" fill="white"/>
<path id="Vector (Stroke)_2" fill-rule="evenodd" clip-rule="evenodd" d="M32.1274 15.4087C30.5419 14.0369 29.7495 13.3513 29.1005 13.6482C28.6544 13.8516 28.5136 14.4065 28.4693 15.4109C28.4692 15.4116 28.4692 15.4123 28.4692 15.413C28.4505 15.8362 28.449 16.3393 28.4488 16.9294C28.4488 16.9838 28.4488 17.039 28.4488 17.0949V20.4809C28.2791 20.4809 28.1075 20.4835 27.9341 20.4888C27.8677 20.4908 27.8011 20.4932 27.7342 20.496C27.7323 20.4961 27.7305 20.4962 27.7286 20.4962C24.4128 20.637 20.5054 21.7684 17.3848 24.7669C15.4199 26.655 13.767 29.2834 12.7702 32.8708C12.6767 33.2072 12.589 33.5521 12.5074 33.9055C12.32 34.7165 12.1646 35.5728 12.0444 36.4766C12.0442 36.4783 12.0439 36.48 12.0437 36.4817C11.9953 36.8464 11.9526 37.2189 11.9159 37.5992L11.9147 37.6117C11.7839 38.9638 11.7184 39.6413 12.0009 39.7743C12.1343 39.8376 12.3242 39.7522 12.6003 39.5328C12.9049 39.2907 13.3145 38.8854 13.8691 38.3367L13.877 38.3289C14.045 38.1622 14.2182 37.9989 14.3963 37.839C14.3964 37.8389 14.3965 37.8388 14.3967 37.8386C15.0326 37.2677 15.731 36.7409 16.4785 36.2609C19.3034 34.4471 22.831 33.3014 26.3495 32.9705C26.8182 32.9264 27.2867 32.8967 27.7535 32.8819C27.754 32.8819 27.7545 32.8819 27.755 32.8819C27.8194 32.8798 27.8837 32.8781 27.948 32.8766C27.9494 32.8766 27.9507 32.8765 27.9521 32.8765C28.118 32.8727 28.2836 32.8708 28.4488 32.8708V36.2609C28.4488 36.2666 28.4488 36.2722 28.4488 36.2778C28.4488 36.3266 28.4488 36.3748 28.4488 36.4224C28.4492 38.4134 28.4657 39.4181 29.1005 39.7056C29.7495 40.0025 30.5419 39.3168 32.1274 37.945L37.3801 33.3984C37.5892 33.2175 37.7922 33.0417 37.9891 32.8708C39.4611 31.5937 40.5954 30.5868 41.3918 29.6863C42.3305 28.625 42.8 27.7113 42.8 26.6769C42.8 25.6417 42.3308 24.7278 41.3927 23.667C40.5959 22.7658 39.4606 21.7586 37.9872 20.4809C37.7908 20.3106 37.5885 20.1356 37.3801 19.9553L32.1322 15.4109V15.413L32.1274 15.4087ZM20.9204 26.8012C20.9201 26.8007 20.9317 26.8098 20.956 26.8298C20.9329 26.8116 20.9207 26.8016 20.9204 26.8012Z" fill="url(#paint1_linear_1227_12983)"/>
</g>
<defs>
<linearGradient id="paint0_linear_1227_12983" x1="27.9016" y1="0.661621" x2="27.9016" y2="54.582" gradientUnits="userSpaceOnUse">
<stop stop-color="#EB00FF"/>
<stop offset="1" stop-color="#4663FF"/>
</linearGradient>
<linearGradient id="paint1_linear_1227_12983" x1="27.3014" y1="13.5798" x2="27.3014" y2="39.7947" gradientUnits="userSpaceOnUse">
<stop stop-color="#EB00FF"/>
<stop offset="1" stop-color="#4663FF"/>
</linearGradient>
</defs>
</svg>
