<svg width="205" height="174" viewBox="0 0 205 174" fill="none" xmlns="http://www.w3.org/2000/svg">
<path d="M198.464 153.338H24.046C20.9717 153.338 18.4795 155.831 18.4795 158.905C18.4795 161.979 20.9717 164.471 24.046 164.471H198.464C201.539 164.471 204.031 161.979 204.031 158.905C204.031 155.831 201.539 153.338 198.464 153.338Z" fill="#E4EBF7"/>
<path fill-rule="evenodd" clip-rule="evenodd" d="M52.0326 107.93C52.0326 110.573 49.8901 112.716 47.2474 112.716C44.6047 112.716 42.4619 110.573 42.4619 107.93C42.4619 105.288 44.6047 103.145 47.2474 103.145C49.8901 103.145 52.0326 105.288 52.0326 107.93Z" fill="#844FFF"/>
<path fill-rule="evenodd" clip-rule="evenodd" d="M46.3477 150.998H48.2V109.36H46.3477V150.998Z" fill="#844FFF"/>
<path fill-rule="evenodd" clip-rule="evenodd" d="M46.3483 150.998L24.7742 154.592L23.3818 153.586L46.3483 146.822V150.998Z" fill="#844FFF"/>
<path fill-rule="evenodd" clip-rule="evenodd" d="M48.1992 150.998L69.7733 154.592L71.1654 153.586L48.1992 146.822V150.998Z" fill="#844FFF"/>
<path fill-rule="evenodd" clip-rule="evenodd" d="M45.8037 155.829H48.7428V149.796H45.8037V155.829Z" fill="#844FFF"/>
<path fill-rule="evenodd" clip-rule="evenodd" d="M26.7945 155.909C26.7945 157.287 25.6777 158.404 24.3002 158.404C22.9225 158.404 21.8057 157.287 21.8057 155.909C21.8057 154.532 22.9225 153.415 24.3002 153.415C25.6777 153.415 26.7945 154.532 26.7945 155.909Z" fill="#844FFF"/>
<path fill-rule="evenodd" clip-rule="evenodd" d="M49.7691 155.909C49.7691 157.287 48.6523 158.404 47.2746 158.404C45.8971 158.404 44.7803 157.287 44.7803 155.909C44.7803 154.532 45.8971 153.415 47.2746 153.415C48.6523 153.415 49.7691 154.532 49.7691 155.909Z" fill="#844FFF"/>
<path fill-rule="evenodd" clip-rule="evenodd" d="M72.9615 155.909C72.9615 157.287 71.8447 158.404 70.467 158.404C69.0895 158.404 67.9727 157.287 67.9727 155.909C67.9727 154.532 69.0895 153.415 70.467 153.415C71.8447 153.415 72.9615 154.532 72.9615 155.909Z" fill="#844FFF"/>
<path fill-rule="evenodd" clip-rule="evenodd" d="M77.2434 107.052H17.252C17.252 101.155 22.0317 96.3757 27.9281 96.3757H66.5672C72.4634 96.3757 77.2434 101.155 77.2434 107.052Z" fill="#A3B5D6"/>
<path fill-rule="evenodd" clip-rule="evenodd" d="M66.2441 67.5722C66.2441 67.5722 65.7938 75.0641 58.9469 74.535C51.9652 73.9956 52.7159 66.4335 52.7159 66.4335C52.7159 66.4335 52.3764 61.7332 52.8631 55.4122C53.2438 50.4728 53.8285 44.0221 54.3731 40.8851C54.96 37.4995 58.0758 35.2654 61.2826 35.5131C66.1568 35.8895 67.8098 39.8215 67.7021 43.2382C67.5972 46.5612 67.4398 52.0287 67.2427 55.6883C66.8647 62.7256 66.2441 67.5722 66.2441 67.5722Z" fill="#ADC6FF"/>
<path fill-rule="evenodd" clip-rule="evenodd" d="M81.5291 76.71C82.3531 79.7906 89.2059 78.7446 89.2059 78.7446L92.5648 81.4826C93.097 81.8509 93.3251 81.4917 93.6148 81.5577C94.3949 81.7357 94.5818 80.9154 94.5818 80.9154C94.8801 80.8484 95.2661 81.1534 95.5521 80.4377C95.5521 80.4377 96.1079 80.5229 96.2974 79.8678C96.3686 79.6244 95.2961 76.325 94.6562 74.3949C94.3746 73.5473 93.6421 72.9313 92.7602 72.7983L84.5587 71.562C84.5587 71.562 80.4207 72.5657 81.5291 76.71Z" fill="#C99382"/>
<path d="M88.7042 76.5945C88.6105 76.5544 88.5021 76.598 88.4621 76.6918C88.4266 76.7752 88.457 76.8702 88.53 76.9184L88.5593 76.9342L90.9821 77.9696L93.4007 81.304C93.4539 81.3774 93.5509 81.4 93.6297 81.362L93.6583 81.3449C93.7316 81.2916 93.7542 81.1945 93.7162 81.1156L93.6991 81.0869L91.2505 77.7115C91.2375 77.6934 91.2213 77.678 91.2029 77.6658L91.1737 77.6501L88.7042 76.5945Z" fill="#65609B"/>
<path d="M90.3502 75.5768C90.2614 75.5267 90.1489 75.5582 90.0989 75.647C90.0544 75.726 90.0743 75.8238 90.1416 75.8797L90.169 75.8986L92.3927 77.1531L94.3644 80.6053C94.4093 80.684 94.5033 80.717 94.5858 80.6878L94.6161 80.6739C94.6947 80.6289 94.7277 80.5347 94.6985 80.4522L94.6846 80.4219L92.6879 76.9258C92.6769 76.9065 92.6625 76.8894 92.6456 76.8753L92.6183 76.8565L90.3502 75.5768Z" fill="#65609B"/>
<path d="M91.9446 74.6363C91.8647 74.573 91.7487 74.5865 91.6855 74.6665C91.6293 74.7377 91.6337 74.8373 91.6915 74.903L91.7157 74.926L93.2134 76.112L95.0119 79.8168C95.0515 79.8984 95.1431 79.9376 95.2273 79.914L95.2585 79.9022C95.3399 79.8625 95.3791 79.7708 95.3555 79.6865L95.3437 79.6553L93.5264 75.9126C93.5183 75.8959 93.5078 75.8807 93.4952 75.8672L93.4749 75.8485L91.9446 74.6363Z" fill="#65609B"/>
<path fill-rule="evenodd" clip-rule="evenodd" d="M59.7797 62.3433C59.7797 62.3433 52.8793 60.8904 51.478 66.6243C50.0334 72.5379 56.5879 74.2385 56.5879 74.2385C56.5879 74.2385 61.2302 75.322 66.9457 76.6817C70.4347 77.5116 74.306 78.3512 77.2039 78.557C80.3416 78.7801 81.0517 77.1733 81.752 74.3061C82.5841 70.9011 82.582 69.4095 79.6771 68.2424C76.9078 67.1299 73.0145 66.1279 70.032 65.2143C64.346 63.4735 59.7797 62.3433 59.7797 62.3433Z" fill="#ADC6FF"/>
<path fill-rule="evenodd" clip-rule="evenodd" d="M83.1996 78.0928L84.8193 71.4625L80.4624 69.8889L78.6086 77.4741L83.1996 78.0928Z" fill="#ADC6FF"/>
<path fill-rule="evenodd" clip-rule="evenodd" d="M87.973 90.224C74.2681 86.6593 60.0647 83.1138 48.7013 80.5527C48.7013 80.5527 40.1255 80.0841 39.6719 87.9213C39.228 95.603 48.4924 97.8848 48.4924 97.8848L85.7086 103.677C85.7086 103.677 91.7801 104.553 92.7948 97.8076C93.7195 91.6549 87.973 90.224 87.973 90.224Z" fill="#597EF7"/>
<path fill-rule="evenodd" clip-rule="evenodd" d="M85.5572 126.531C83.1241 126.043 80.872 127.952 80.9582 130.435C81.0572 133.292 81.1713 137.153 81.2377 141.311C81.3062 145.591 81.3715 149.137 81.6773 149.588C83.025 151.572 85.7178 152.311 88.485 154.277C90.675 155.833 91.0531 156.572 93.8439 157.096C97.7998 157.838 95.9557 156.157 91.5634 150.843C87.6497 146.108 87.9132 143.887 87.9132 143.887L88.6414 130.516C88.7453 128.605 87.4313 126.908 85.5572 126.531Z" fill="#C99382"/>
<path fill-rule="evenodd" clip-rule="evenodd" d="M91.1669 149.586C94.0251 152.767 97.3005 155.281 97.2212 156.791C97.1415 158.302 95.9522 159.666 91.0314 157.917C87.6639 156.721 88.6278 155.997 85.4134 153.903C83.8081 152.857 83.2229 152.97 81.7429 151.753C80.8947 150.661 81.2765 145.356 81.2765 145.356L86.9095 151.536C86.9095 151.536 85.445 148.658 86.6487 148.034C87.8519 147.41 88.9597 146.985 89.6697 147.497C90.3792 148.008 91.1669 149.586 91.1669 149.586Z" fill="#7D4556"/>
<path fill-rule="evenodd" clip-rule="evenodd" d="M93.9551 97.9127C92.1078 120.367 90.005 142.338 90.005 142.338L80.5109 142.331L79.0277 97.1047C79.0277 97.1047 79.8603 91.915 87.1939 90.9703C93.939 90.1012 93.9551 97.9127 93.9551 97.9127Z" fill="#597EF7"/>
<path fill-rule="evenodd" clip-rule="evenodd" d="M25.8614 90.7057C26.716 81.6483 26.9425 76.9914 27.9567 75.2903C49.7582 75.9143 55.1893 75.627 55.1893 75.627C55.1893 75.627 55.4115 78.8309 56.416 88.6931C56.416 88.6931 49.7036 100.94 41.0421 100.94C33.233 100.94 25.8614 90.7057 25.8614 90.7057Z" fill="#597EF7"/>
<path fill-rule="evenodd" clip-rule="evenodd" d="M27.9549 75.2905L28.3672 71.1826L55.0633 71.5032L55.1875 75.6175C55.1875 75.6175 41.059 76.1622 27.9549 75.2905Z" fill="#597EF7"/>
<path fill-rule="evenodd" clip-rule="evenodd" d="M39.9577 20.9113C39.9577 20.9113 36.2497 18.636 37.7345 14.5941C36.231 10.9811 38.3444 8.9041 38.3444 8.9041C38.3444 8.9041 38.6507 4.27674 41.728 4.17005C43.8955 -0.482511 49.1959 1.6513 49.1959 1.6513C49.1959 1.6513 52.7872 -0.996127 57.5292 3.11708C61.1323 3.42858 61.2361 1.63468 62.3333 2.94123C63.431 4.24725 63.8026 7.19545 62.1978 8.26771C64.8092 9.55336 62.1635 13.6784 62.1635 13.6784C62.1635 13.6784 62.9132 16.181 59.7422 17.8752C56.5707 19.5699 55.1057 25.3559 49.8968 26.9369C44.8845 28.4585 39.7446 26.6174 39.9577 20.9113Z" fill="#7D4556"/>
<path fill-rule="evenodd" clip-rule="evenodd" d="M41.4695 29.6957L42.9763 21.7776L53.4766 23.6406L53.2179 30.6265C53.1028 33.7451 50.4421 36.1551 47.3312 35.9578C47.2717 35.954 47.2128 35.9503 47.1529 35.9465C43.9717 35.746 41.0819 32.8637 41.4695 29.6957Z" fill="#C99382"/>
<path fill-rule="evenodd" clip-rule="evenodd" d="M45.8059 9.68911C45.8059 9.68911 46.3745 12.5306 44.1802 13.1788C44.4924 16.8363 42.9181 16.4905 42.9181 16.4905C42.9181 16.4905 40.4454 13.2099 38.6608 16.0058C36.965 18.6618 39.7536 22.6667 42.4111 22.1011C46.699 29.244 55.5099 29.7496 58.5084 25.1689C60.33 22.3853 59.7539 18.2817 60.0114 16.3629C60.6454 11.6476 59.7994 10.2016 59.7994 10.2016C59.7994 10.2016 57.9879 10.555 56.0416 9.03877C53.8955 10.5732 50.8884 8.96533 50.8884 8.96533C50.8884 8.96533 48.8076 11.5313 45.8059 9.68911Z" fill="#C99382"/>
<path d="M40.9054 16.5886C40.299 16.459 39.8811 16.6097 39.6512 16.9506C39.5483 17.1032 39.5057 17.2542 39.4961 17.3652C39.4865 17.4758 39.5684 17.5732 39.6788 17.5828C39.7893 17.5924 39.8866 17.5104 39.8962 17.3998C39.9004 17.3511 39.9254 17.2626 39.984 17.1756C40.1187 16.9758 40.3698 16.8853 40.8215 16.9819C41.2477 17.0731 41.6006 17.4026 41.8047 17.8424C41.8901 18.0264 41.939 18.2125 41.9446 18.3596C41.9487 18.467 41.93 18.5219 41.9261 18.524C41.5122 18.7513 41.1887 19.0795 41.0811 19.4424C40.9431 19.9076 41.1663 20.3619 41.7521 20.7404C41.8453 20.8006 41.9696 20.7737 42.0297 20.6804C42.0898 20.5871 42.063 20.4627 41.9698 20.4025C41.5221 20.1133 41.3843 19.8326 41.4661 19.5568C41.5386 19.3122 41.7895 19.0576 42.1191 18.8767C42.786 18.5111 42.0028 16.8234 40.9054 16.5886Z" fill="#65609B"/>
<path d="M41.4975 18.0664C41.3121 18.044 41.12 18.0371 40.937 18.0555C40.4396 18.1054 40.1045 18.3373 40.1064 18.8025C40.1069 18.9135 40.1972 19.0031 40.3081 19.0027C40.419 19.0022 40.5085 18.9118 40.508 18.8008C40.5072 18.593 40.6598 18.4874 40.977 18.4556C41.1267 18.4405 41.2908 18.4464 41.4493 18.4656L41.5223 18.4755C41.5424 18.4785 41.558 18.4812 41.5686 18.4833C41.6775 18.5044 41.7828 18.4331 41.8039 18.3241C41.825 18.2151 41.7538 18.1096 41.6449 18.0885L41.5695 18.076C41.5483 18.0729 41.5241 18.0696 41.4975 18.0664Z" fill="#65609B"/>
<path fill-rule="evenodd" clip-rule="evenodd" d="M52.768 16.3108C52.601 18.2409 50.9041 19.6702 48.976 19.504C47.0483 19.3373 45.6208 17.6372 45.7873 15.7072C45.9533 13.7771 47.6513 12.3472 49.5789 12.514C51.5071 12.6807 52.9346 14.3808 52.768 16.3108Z" fill="white"/>
<path d="M49.6013 12.2676C51.6651 12.446 53.1934 14.2657 53.0152 16.332C52.8363 18.3982 51.0198 19.928 48.956 19.7502C46.8925 19.5717 45.3643 17.7519 45.5426 15.6857C45.7174 13.6536 47.4786 12.1394 49.5 12.2602L49.6013 12.2676ZM46.0345 15.7282C45.8797 17.5225 47.2067 19.1027 48.9984 19.2577C50.7905 19.4121 52.368 18.0837 52.5233 16.2894C52.6781 14.4952 51.351 12.915 49.5588 12.7601C47.767 12.6051 46.1887 13.9342 46.0345 15.7282Z" fill="#7D4556"/>
<path fill-rule="evenodd" clip-rule="evenodd" d="M61.2632 16.7159C61.0961 18.646 59.3993 20.0753 57.4711 19.9091C55.5435 19.7423 54.1154 18.0423 54.2825 16.1122C54.4484 14.1821 56.1464 12.7522 58.074 12.919C60.0022 13.0857 61.4297 14.7858 61.2632 16.7159Z" fill="white"/>
<path d="M58.0945 12.6726C60.1583 12.8511 61.6866 14.6708 61.5083 16.737C61.3295 18.8033 59.5129 20.3331 57.4491 20.1552C55.3855 19.9767 53.8569 18.1567 54.0358 16.0907C54.2105 14.0586 55.9718 12.5444 57.9932 12.6652L58.0945 12.6726ZM54.5276 16.1332C54.3723 17.9273 55.6996 19.5077 57.4916 19.6627C59.2837 19.8172 60.8612 18.4887 61.0165 16.6944C61.1713 14.9002 59.8442 13.3201 58.052 13.1651C56.2602 13.0101 54.6819 14.3392 54.5276 16.1332Z" fill="#7D4556"/>
<path d="M53.6304 15.7379C53.5339 15.7926 53.5001 15.9153 53.5548 16.0119L53.6055 16.1037C53.6464 16.1788 53.6921 16.2644 53.7414 16.3591C53.8822 16.6299 54.0231 16.9183 54.1544 17.2118C54.2727 17.4764 54.3775 17.7324 54.4651 17.975C54.76 18.7919 54.828 19.3831 54.6428 19.5966C54.4351 19.8361 54.164 19.9775 53.839 20.0361C53.5081 20.0958 53.1465 20.0664 52.795 19.9801C52.6627 19.9477 52.5645 19.9156 52.5131 19.8955C52.4098 19.8551 52.2934 19.9062 52.253 20.0097C52.2127 20.1131 52.2637 20.2297 52.367 20.2701L52.4358 20.295C52.5025 20.3176 52.5917 20.3443 52.6994 20.3707C53.1009 20.4692 53.5159 20.5029 53.9102 20.4318C54.3208 20.3578 54.6745 20.1733 54.9461 19.8602C55.268 19.4889 55.1884 18.7956 54.8428 17.8383C54.7515 17.5857 54.6431 17.3206 54.5209 17.0475C54.3861 16.7461 54.2419 16.4507 54.0976 16.1734L54.0016 15.9917L53.9041 15.8136C53.8494 15.717 53.7268 15.6831 53.6304 15.7379Z" fill="#65609B"/>
<path fill-rule="evenodd" clip-rule="evenodd" d="M49.9302 21.1689C49.9302 21.1689 53.1279 21.8177 55.4668 21.6477C55.4668 21.6477 54.6213 23.9016 52.3381 23.425C50.3109 23.0014 49.9302 21.1689 49.9302 21.1689Z" fill="white"/>
<path d="M49.9709 20.9618L50.3906 21.0401C50.7241 21.0991 51.0919 21.1582 51.4828 21.2133C52.3188 21.3311 53.1429 21.4145 53.9123 21.4484C54.4741 21.4731 54.9902 21.4704 55.4503 21.437C55.6038 21.4258 55.7172 21.5777 55.6631 21.7219L55.6359 21.7889C55.6082 21.853 55.5681 21.9371 55.5146 22.0361C55.3911 22.2651 55.2374 22.4939 55.0513 22.708C54.3723 23.4894 53.4544 23.874 52.2938 23.6317C51.4589 23.4573 50.8208 23.0465 50.3585 22.4729C50.1382 22.1996 49.9726 21.9073 49.8535 21.6147C49.7812 21.4373 49.7401 21.297 49.7224 21.2119C49.6916 21.0634 49.8224 20.9317 49.9709 20.9618ZM50.3172 21.4561L50.2393 21.4418L50.2442 21.4552C50.3486 21.7116 50.4941 21.9684 50.6869 22.2076C51.09 22.7077 51.644 23.0644 52.38 23.2181C53.3784 23.4266 54.1477 23.1042 54.733 22.4307L54.8283 22.3157C54.9202 22.1992 55.0022 22.0786 55.0744 21.957L55.1194 21.8778L55.1124 21.8784C54.7341 21.8927 54.3266 21.8895 53.8937 21.8705C53.1094 21.8359 52.2724 21.7512 51.424 21.6316C51.0279 21.5758 50.6553 21.516 50.3172 21.4561Z" fill="#7D4556"/>
<path d="M55.6048 11.7649C55.504 11.7063 55.3749 11.7407 55.3164 11.8416C55.2579 11.9425 55.2922 12.0718 55.393 12.1303C56.4759 12.7594 57.8583 13.0139 59.3067 12.7467C59.4213 12.7256 59.4971 12.6154 59.476 12.5007C59.4548 12.386 59.3448 12.3101 59.2303 12.3312C57.8823 12.5799 56.6019 12.3442 55.6048 11.7649Z" fill="#7D4556"/>
<path d="M53.8357 14.9795C53.4384 14.9277 53.0193 14.9282 52.6253 14.9598L52.4734 14.9739L52.4073 14.9818L52.4725 15.4717L52.6129 15.4569C52.6291 15.4555 52.6464 15.454 52.6647 15.4526C53.0273 15.4235 53.414 15.423 53.772 15.4696C53.9863 15.4975 54.1776 15.5413 54.3398 15.6017L54.4185 15.6333L54.6143 15.1795C54.3898 15.0824 54.1279 15.0175 53.8357 14.9795Z" fill="#7D4556"/>
<path d="M57.8438 15.5754C57.2429 15.5233 56.8034 15.785 56.5243 16.2378C56.3771 16.4766 56.303 16.7122 56.2757 16.8791C56.2536 17.0138 56.3448 17.1409 56.4793 17.163C56.6138 17.1851 56.7408 17.0938 56.7628 16.9591L56.7711 16.9192C56.7772 16.8937 56.7861 16.8603 56.7985 16.821C56.8334 16.7101 56.8817 16.5992 56.9444 16.4974C57.1317 16.1935 57.4009 16.0332 57.8014 16.0679C58.1668 16.0994 58.3772 16.285 58.4901 16.5975C58.5505 16.7648 58.5741 16.9435 58.5746 17.0981L58.572 17.1894C58.5603 17.3254 58.6608 17.4452 58.7966 17.457C58.9211 17.4678 59.0321 17.3841 59.0587 17.2653L59.0647 17.2208C59.065 17.2163 59.0654 17.2097 59.0661 17.1964C59.0769 16.9672 59.0506 16.6961 58.9543 16.4294C58.7799 15.9464 58.4152 15.6246 57.8438 15.5754Z" fill="#7D4556"/>
<path d="M49.4454 14.8493C48.8445 14.7973 48.4049 15.0589 48.1256 15.5117C47.9784 15.7505 47.9041 15.986 47.8767 16.1529C47.8546 16.2876 47.9457 16.4148 48.0803 16.4369C48.2025 16.457 48.3186 16.3835 48.3553 16.2687L48.3792 16.1652C48.3846 16.1448 48.3914 16.1213 48.3996 16.095C48.4346 15.9841 48.4829 15.8732 48.5457 15.7714C48.7332 15.4674 49.0025 15.3071 49.403 15.3418C49.7682 15.3733 49.9785 15.5589 50.0915 15.8714C50.152 16.0389 50.1756 16.2176 50.1761 16.3722L50.1736 16.4635C50.1619 16.5995 50.2625 16.7192 50.3983 16.7309C50.5228 16.7417 50.6337 16.6579 50.6604 16.5391L50.6668 16.4859L50.6677 16.4705C50.6784 16.2413 50.6521 15.9701 50.5557 15.7033C50.3812 15.2203 50.0165 14.8986 49.4454 14.8493Z" fill="#7D4556"/>
<path fill-rule="evenodd" clip-rule="evenodd" d="M42.3107 15.728L45.7601 16.0266L45.8154 15.3875L42.366 15.0889L42.3107 15.728Z" fill="#7D4556"/>
<path d="M51.8381 11.4211C51.7946 11.3129 51.6716 11.2606 51.5636 11.3042C51.177 11.4603 50.719 11.5702 50.2046 11.6379C49.4245 11.7406 48.5883 11.7408 47.8051 11.6792L47.6432 11.6653L47.3922 11.6386C47.2766 11.6235 47.1707 11.705 47.1556 11.8206C47.1404 11.9363 47.2218 12.0424 47.3373 12.0575L47.4548 12.0711L47.6041 12.086C47.657 12.0909 47.713 12.0957 47.772 12.1003C48.5821 12.1641 49.4459 12.1639 50.2596 12.0568C50.8068 11.9847 51.2986 11.8668 51.7214 11.696C51.8295 11.6524 51.8817 11.5293 51.8381 11.4211Z" fill="#7D4556"/>
<path d="M52.1648 25.6049C52.054 25.5999 51.9601 25.6857 51.9551 25.7966L51.9485 25.9012C51.9441 25.9584 51.9378 26.0293 51.9291 26.1107C51.9038 26.348 51.8669 26.5852 51.8165 26.8049C51.7117 27.2623 51.5613 27.5752 51.3953 27.6662C51.298 27.7195 51.2623 27.8417 51.3156 27.9391C51.3688 28.0365 51.4909 28.0722 51.5881 28.0189C51.8885 27.8542 52.0787 27.4586 52.2079 26.8949C52.2622 26.6578 52.3015 26.4055 52.3285 26.1535L52.3444 25.9862L52.3562 25.815C52.3613 25.704 52.2756 25.61 52.1648 25.6049Z" fill="#65609B"/>
<path d="M52.8636 26.2944C52.7527 26.2934 52.662 26.3826 52.6609 26.4936L52.6561 26.6562C52.6546 26.6914 52.6527 26.7304 52.6503 26.7725C52.6383 26.983 52.6183 27.1933 52.5887 27.3883C52.5593 27.5813 52.522 27.748 52.4769 27.8793C52.4409 27.9843 52.4966 28.0987 52.6015 28.1348C52.7064 28.1709 52.8206 28.115 52.8567 28.01C52.9107 27.8527 52.953 27.6637 52.9857 27.4488C53.0174 27.24 53.0386 27.0176 53.0512 26.7954L53.0595 26.6192C53.0613 26.5689 53.0622 26.5277 53.0625 26.4974C53.0635 26.3864 52.9745 26.2955 52.8636 26.2944Z" fill="#65609B"/>
<path d="M51.2369 26.4366C51.1308 26.4041 51.0186 26.4638 50.9861 26.57L50.9693 26.6219C50.9587 26.6538 50.9447 26.694 50.9276 26.7407C50.8801 26.8706 50.8265 27.0003 50.7683 27.1203C50.6602 27.343 50.5488 27.5022 50.4604 27.5631L50.4346 27.5783C50.3349 27.6271 50.2936 27.7474 50.3422 27.8472C50.3909 27.947 50.5111 27.9884 50.6108 27.9397C50.8088 27.8429 50.9733 27.6179 51.1295 27.296C51.1942 27.1626 51.2529 27.0207 51.3047 26.879L51.3508 26.7476C51.3588 26.7237 51.3652 26.7035 51.37 26.6877C51.4025 26.5816 51.3429 26.4691 51.2369 26.4366Z" fill="#65609B"/>
<path d="M53.475 26.1425C53.3763 26.1569 53.3048 26.241 53.3032 26.3378L53.3053 26.3704L53.4804 27.5724C53.4964 27.6823 53.5983 27.7584 53.7081 27.7424C53.8068 27.7279 53.8783 27.6438 53.8799 27.5471L53.8778 27.5144L53.7027 26.3124C53.6883 26.2135 53.6043 26.142 53.5076 26.1404L53.475 26.1425Z" fill="#65609B"/>
<path d="M46.5815 26.0534C46.4887 25.9926 46.3643 26.0185 46.3035 26.1114C46.2427 26.2042 46.2686 26.3289 46.3613 26.3897C46.6738 26.5948 46.9959 26.7812 47.3269 26.9496C49.3432 27.9753 51.4483 28.266 53.2568 28.1423L53.4255 28.1295C53.5791 28.1166 53.688 28.1037 53.7472 28.0947C53.8568 28.0781 53.9323 27.9757 53.9157 27.8659C53.8991 27.7561 53.7968 27.6805 53.6871 27.6971L53.5953 27.709C53.5559 27.7135 53.5077 27.7185 53.4513 27.7236L53.3921 27.7287C51.6144 27.8771 49.5117 27.61 47.5088 26.5911C47.1908 26.4293 46.8814 26.2503 46.5815 26.0534Z" fill="#65609B"/>
<path d="M50.7027 19.7661C50.6713 19.6596 50.5597 19.5987 50.4533 19.6301L50.3607 19.6594C50.2893 19.6829 50.2099 19.7108 50.1245 19.7428C49.8805 19.8343 49.6363 19.9415 49.4071 20.064C48.6406 20.4738 48.2005 20.9596 48.3073 21.5472C48.3271 21.6564 48.4316 21.7289 48.5407 21.709C48.6499 21.6891 48.7222 21.5845 48.7024 21.4752C48.6379 21.1202 48.9701 20.7535 49.5963 20.4187C49.8083 20.3053 50.0368 20.205 50.2654 20.1193L50.3748 20.0794C50.459 20.0495 50.525 20.0281 50.5669 20.0158C50.6732 19.9844 50.734 19.8726 50.7027 19.7661Z" fill="#65609B"/>
<path fill-rule="evenodd" clip-rule="evenodd" d="M40.9214 30.0708L39.8001 32.1548C39.8001 32.1548 32.0205 33.0892 28.222 35.3801C24.7871 37.4517 25.2197 59.3211 25.7482 66.6812C23.8977 75.3226 30.8029 74.6256 30.8029 74.6256L55.445 76.6607C55.445 76.6607 59.0518 74.61 57.2586 68.5206C57.7185 63.5689 65.7487 39.8204 62.6468 36.7146C60.2346 34.2993 54.4121 33.8269 54.4121 33.8269L54.0218 31.4058C54.0218 31.4058 50.2843 30.9785 40.9214 30.0708Z" fill="#ADC6FF"/>
<path d="M61.461 46.1709C61.3481 46.1599 61.2477 46.2426 61.2367 46.3557C61.0249 48.537 60.6114 51.1413 60.0294 54.0789C59.7014 55.7341 59.3251 57.469 58.9097 59.2588C58.4193 61.3712 57.8975 63.4638 57.3724 65.4608L57.0633 66.6242C56.9755 66.9512 56.8908 67.2636 56.8096 67.5604L56.5982 68.3266L56.4193 68.9618C56.388 69.0709 56.451 69.1848 56.56 69.2162C56.669 69.2476 56.7827 69.1845 56.8141 69.0754L57.0288 68.3111L57.2057 67.6691C57.3277 67.2231 57.4577 66.7417 57.5942 66.2287C58.179 64.0304 58.7638 61.7036 59.3097 59.3519C59.7261 57.5579 60.1034 55.8188 60.4322 54.159L60.5641 53.4842C61.0794 50.809 61.4486 48.4231 61.6455 46.3954C61.6565 46.2824 61.5739 46.1819 61.461 46.1709Z" fill="#597EF7"/>
<path d="M41.7176 33.3057C41.6079 33.2767 41.4956 33.3423 41.4667 33.4521C41.4378 33.5619 41.5033 33.6744 41.613 33.7033C45.4598 34.7181 49.2364 34.9777 52.4163 34.8054L52.6799 34.79C52.8426 34.7799 52.9896 34.7692 53.1203 34.7583L53.381 34.7343C53.39 34.7333 53.3979 34.7325 53.4046 34.7317C53.5173 34.719 53.5983 34.6172 53.5856 34.5044C53.5729 34.3915 53.4712 34.3104 53.3585 34.3231L53.1789 34.3406L52.8822 34.3643C52.8102 34.3695 52.7343 34.3746 52.6544 34.3796C49.461 34.5786 45.6234 34.336 41.7176 33.3057Z" fill="#597EF7"/>
<path fill-rule="evenodd" clip-rule="evenodd" d="M66.132 130.921C63.488 130.484 61.1272 132.627 61.3108 135.305C61.5223 138.385 61.7868 142.547 62.0106 147.034C62.2414 151.651 62.4417 155.477 62.7887 155.952C64.3152 158.044 67.2501 158.743 70.3091 160.764C72.7294 162.363 73.1647 163.147 76.1964 163.609C80.494 164.265 78.4416 162.519 73.5058 156.944C69.1086 151.976 69.311 149.57 69.311 149.57L69.6071 135.11C69.6489 133.043 68.1694 131.259 66.132 130.921Z" fill="#C99382"/>
<path fill-rule="evenodd" clip-rule="evenodd" d="M73.0308 155.601C76.2323 158.93 79.86 161.523 79.8289 163.157C79.7989 164.79 78.5647 166.306 73.1893 164.599C69.5102 163.431 70.5238 162.615 66.978 160.473C65.2073 159.403 64.5797 159.546 62.9375 158.286C61.9817 157.139 62.1991 151.399 62.1991 151.399L68.5062 157.863C68.5062 157.863 66.8195 154.81 68.096 154.092C69.372 153.374 70.5527 152.875 71.3377 153.401C72.1227 153.927 73.0308 155.601 73.0308 155.601Z" fill="#7D4556"/>
<path fill-rule="evenodd" clip-rule="evenodd" d="M73.876 99.4043C72.7242 123.711 71.278 147.505 71.278 147.505L61.0299 147.855L57.7337 99.0928C57.7337 99.0928 58.3398 91.8062 66.3181 92.1649C73.5167 92.4882 73.876 99.4043 73.876 99.4043Z" fill="#597EF7"/>
<path fill-rule="evenodd" clip-rule="evenodd" d="M69.5766 91.4439C58.4964 87.3302 44.3466 84.3391 34.0964 82.2524C34.0964 82.2524 26.4067 83.2791 25.8868 90.8461C25.3776 98.2624 33.7323 100.15 33.7323 100.15L67.3389 104.482C67.3389 104.482 72.823 105.122 73.835 98.5889C74.7587 92.6298 69.5766 91.4439 69.5766 91.4439Z" fill="#597EF7"/>
<path d="M27.6705 76.4155C27.5596 76.4155 27.4697 76.5055 27.4697 76.6166C27.4697 76.7165 27.5426 76.7994 27.638 76.815L27.6705 76.8176H55.0092C55.1201 76.8176 55.21 76.7276 55.21 76.6166C55.21 76.5166 55.1371 76.4337 55.0417 76.4182L55.0092 76.4155H27.6705Z" fill="#844FFF"/>
<path d="M27.9737 79.5352C27.8628 79.5352 27.7729 79.6252 27.7729 79.7362C27.7729 79.8361 27.8457 79.919 27.9412 79.9346L27.9737 79.9373H55.4125C55.5234 79.9373 55.6133 79.8472 55.6133 79.7362C55.6133 79.6363 55.5405 79.5534 55.445 79.5378L55.4125 79.5352H27.9737Z" fill="#844FFF"/>
<path d="M46.8059 76.3655C46.7062 76.3702 46.6269 76.447 46.6159 76.5432L46.6149 76.5759L46.7659 79.746C46.7711 79.8569 46.8652 79.9425 46.976 79.9373C47.0757 79.9325 47.1549 79.8557 47.1659 79.7596L47.167 79.7269L47.016 76.5567C47.0107 76.4458 46.9166 76.3602 46.8059 76.3655Z" fill="#844FFF"/>
<path fill-rule="evenodd" clip-rule="evenodd" d="M71.142 91.3441L40.2533 84.6366L71.6705 77.0283L96.9658 85.1432L71.142 91.3441Z" fill="#CCD7EE"/>
<path fill-rule="evenodd" clip-rule="evenodd" d="M72.44 89.2352L50.0066 84.3639L72.2927 78.7656L91.1953 84.7317L72.44 89.2352Z" fill="#4E5C93"/>
<path fill-rule="evenodd" clip-rule="evenodd" d="M40.1831 86.2487L40.2484 84.6472L71.7871 91.2363L71.1521 92.9139L40.1831 86.2487Z" fill="#844FFF"/>
<path d="M76.3663 80.3459L58.1823 85.875C58.1115 85.8965 58.0716 85.9714 58.0931 86.0422C58.1119 86.1042 58.1715 86.1426 58.2335 86.1368L58.2601 86.1315L76.4441 80.6024C76.5148 80.5809 76.5547 80.506 76.5333 80.4352C76.5145 80.3732 76.4549 80.3349 76.3929 80.3407L76.3663 80.3459Z" fill="#CCD7EE"/>
<path d="M74.0588 79.2613L53.747 85.0671C53.6759 85.0874 53.6347 85.1616 53.655 85.2327C53.6727 85.295 53.7317 85.3344 53.7938 85.3296L53.8205 85.3248L74.1323 79.5191C74.2034 79.4987 74.2446 79.4246 74.2243 79.3534C74.2066 79.2911 74.1476 79.2517 74.0855 79.2565L74.0588 79.2613Z" fill="#CCD7EE"/>
<path d="M76.5412 81.9849L61.2573 86.8653C61.1868 86.8878 61.1479 86.9632 61.1704 87.0337C61.1901 87.0954 61.2502 87.133 61.3121 87.1263L61.3386 87.1207L76.6226 82.2403C76.693 82.2178 76.7319 82.1424 76.7095 82.0719C76.6898 82.0102 76.6297 81.9726 76.5678 81.9793L76.5412 81.9849Z" fill="#CCD7EE"/>
<path d="M80.6184 82.627L65.3344 87.5074C65.264 87.5299 65.2251 87.6053 65.2476 87.6758C65.2672 87.7375 65.3273 87.775 65.3892 87.7684L65.4158 87.7628L80.6997 82.8824C80.7702 82.8599 80.8091 82.7845 80.7866 82.7139C80.7669 82.6522 80.7068 82.6147 80.6449 82.6214L80.6184 82.627Z" fill="#CCD7EE"/>
<path d="M84.3664 83.4866L69.0825 88.367C69.012 88.3895 68.9731 88.4649 68.9956 88.5354C69.0153 88.5971 69.0754 88.6347 69.1373 88.628L69.1638 88.6224L84.4478 83.742C84.5182 83.7195 84.5571 83.6441 84.5347 83.5736C84.515 83.5119 84.4549 83.4743 84.393 83.481L84.3664 83.4866Z" fill="#CCD7EE"/>
<path d="M53.7657 83.5915C53.6929 83.5783 53.6233 83.6267 53.6101 83.6995C53.5986 83.7632 53.6341 83.8246 53.6919 83.8478L53.7179 83.8553L72.9536 87.3466C73.0263 87.3598 73.096 87.3115 73.1092 87.2386C73.1207 87.1749 73.0852 87.1135 73.0274 87.0903L73.0013 87.0828L53.7657 83.5915Z" fill="#CCD7EE"/>
<path d="M58.148 82.3183C58.0752 82.3051 58.0056 82.3535 57.9924 82.4263C57.9808 82.4901 58.0164 82.5514 58.0742 82.5746L58.1002 82.5821L77.3364 86.0734C77.4091 86.0866 77.4788 86.0383 77.492 85.9654C77.5035 85.9017 77.468 85.8403 77.4102 85.8171L77.3841 85.8096L58.148 82.3183Z" fill="#CCD7EE"/>
<path d="M63.5313 81.6084C63.4586 81.5952 63.3889 81.6435 63.3757 81.7163C63.3642 81.7801 63.3997 81.8414 63.4575 81.8646L63.4836 81.8721L82.7192 85.3634C82.7919 85.3766 82.8616 85.3283 82.8748 85.2555C82.8863 85.1917 82.8508 85.1303 82.793 85.1072L82.7669 85.0997L63.5313 81.6084Z" fill="#CCD7EE"/>
<path d="M67.2837 79.1284C67.211 79.1152 67.1413 79.1635 67.1281 79.2364C67.1166 79.3001 67.1521 79.3615 67.2099 79.3847L67.236 79.3922L86.4721 82.8835C86.5449 82.8967 86.6145 82.8483 86.6277 82.7755C86.6393 82.7118 86.6037 82.6504 86.5459 82.6272L86.5199 82.6197L67.2837 79.1284Z" fill="#CCD7EE"/>
<path fill-rule="evenodd" clip-rule="evenodd" d="M71.1759 92.9165L72.5697 93.1175L97.0281 86.9209L109.041 46.7957L82.8649 50.5014L71.1759 92.9165Z" fill="#844FFF"/>
<path fill-rule="evenodd" clip-rule="evenodd" d="M72.6196 93.1227L98.4118 86.5996C98.6474 86.5406 98.8348 86.361 98.905 86.1278L110.493 47.5691C110.639 47.0845 110.234 46.6121 109.733 46.6834L84.9013 50.2337C84.6298 50.2728 84.406 50.4696 84.3326 50.735L72.6196 93.1227Z" fill="#4E5C93"/>
<path fill-rule="evenodd" clip-rule="evenodd" d="M35.2588 66.9006C35.2588 66.9006 34.4149 74.3582 27.605 73.4693C20.6613 72.5627 21.8093 65.0499 21.8093 65.0499C21.8093 65.0499 21.7172 60.3389 22.5359 54.0522C23.1757 49.1396 24.0989 42.729 24.8073 39.6243C25.5719 36.2745 28.8007 34.2083 31.9904 34.6243C36.8373 35.2575 38.2819 39.271 37.9944 42.6776C37.7149 45.9903 37.2699 51.4417 36.8812 55.0864C36.1332 62.0936 35.2588 66.9006 35.2588 66.9006Z" fill="#ADC6FF"/>
<path fill-rule="evenodd" clip-rule="evenodd" d="M54.9564 76.4842C55.8533 79.8372 63.3116 78.6989 63.3116 78.6989L66.9671 81.6788C67.546 82.0793 67.7949 81.689 68.1098 81.7603C68.959 81.9543 69.162 81.0612 69.162 81.0612C69.487 80.9882 69.9073 81.3206 70.2184 80.5416C70.2184 80.5416 70.8229 80.6344 71.0296 79.9213C71.1062 79.6559 69.9394 76.0655 69.2428 73.9649C68.9365 73.0422 68.1398 72.372 67.1797 72.2273L58.2537 70.8816C58.2537 70.8816 53.75 71.9732 54.9564 76.4842Z" fill="#C99382"/>
<path d="M62.763 76.358C62.661 76.3144 62.543 76.3618 62.4995 76.4639C62.4602 76.5558 62.4947 76.6607 62.5763 76.7125L62.6052 76.7278L65.2417 77.8553L67.874 81.4841C67.932 81.564 68.0376 81.5886 68.1234 81.5472L68.1545 81.5286C68.2343 81.4706 68.2588 81.3648 68.2175 81.2789L68.1989 81.2478L65.5335 77.5742C65.5192 77.5546 65.5017 77.5378 65.4817 77.5246L65.4499 77.5075L62.763 76.358Z" fill="#65609B"/>
<path d="M64.5562 75.2515C64.4596 75.197 64.3372 75.2312 64.2827 75.328C64.2343 75.414 64.256 75.5204 64.3292 75.5813L64.3591 75.6018L66.7796 76.967L68.9247 80.7237C68.9736 80.8094 69.076 80.8454 69.1657 80.8136L69.1986 80.7985C69.2842 80.7495 69.3201 80.647 69.2884 80.5571L69.2733 80.5241L67.1004 76.7192C67.0884 76.6982 67.0728 76.6796 67.0543 76.6643L67.0247 76.6438L64.5562 75.2515Z" fill="#65609B"/>
<path d="M66.2917 74.2274C66.2047 74.1586 66.0784 74.1733 66.0096 74.2604C65.9485 74.3379 65.9533 74.4464 66.0163 74.5179L66.0426 74.5428L67.6725 75.833L69.6303 79.8655C69.6739 79.9553 69.7756 79.998 69.8682 79.9703L69.8987 79.9584C69.9884 79.9147 70.0311 79.8129 70.0033 79.7201L69.9915 79.6897L68.0135 75.6161C68.0047 75.598 67.9932 75.5814 67.9796 75.5667L67.9575 75.5463L66.2917 74.2274Z" fill="#65609B"/>
<path fill-rule="evenodd" clip-rule="evenodd" d="M31.2834 60.8486C31.2834 60.8486 23.7742 59.267 22.2487 65.5076C20.6755 71.9434 27.8099 73.7946 27.8099 73.7946C27.8099 73.7946 32.8619 74.9736 39.0817 76.4533C42.8797 77.3567 47.0932 78.2703 50.247 78.4944C53.6621 78.7372 54.4343 76.9884 55.1967 73.8681C56.1027 70.1629 56.1006 68.5384 52.9387 67.2688C49.9247 66.0577 45.6871 64.9672 42.4417 63.9732C36.2535 62.078 31.2834 60.8486 31.2834 60.8486Z" fill="#ADC6FF"/>
<path fill-rule="evenodd" clip-rule="evenodd" d="M56.7724 77.989L58.5361 70.7732L53.7936 69.0608L51.776 77.3156L56.7724 77.989Z" fill="#ADC6FF"/>
<path d="M37.9451 46.7751C37.8323 46.763 37.7311 46.8448 37.7191 46.9577L37.6588 47.4789C37.5207 48.6071 37.2504 50.5051 36.8612 53.114L35.5059 62.0728C35.4913 62.1751 35.555 62.2724 35.6545 62.2999C37.4959 62.8086 39.3771 63.3506 41.2701 63.9229L42.5643 64.315L46.8506 65.5686L47.5482 65.7754C49.7033 66.419 51.2509 66.9324 52.5626 67.4592C54.1046 68.0788 54.8546 68.771 55.1066 69.7664C55.1206 69.8216 55.1566 69.8679 55.2053 69.8952L55.236 69.9093L57.9908 70.9033L56.3156 77.7601L53.323 77.3573C53.2722 77.3505 53.2212 77.3629 53.1796 77.3914L53.1504 77.4157C52.4578 78.1092 51.4684 78.3968 49.9619 78.2894C47.3042 78.1006 43.8899 77.4508 39.1122 76.3205L35.1451 75.3792L27.5569 73.5945C27.4464 73.5687 27.336 73.6375 27.3103 73.7481C27.2846 73.8587 27.3533 73.9692 27.4637 73.995L30.7666 74.7692C32.3896 75.1507 34.0717 75.5474 35.7817 75.9524L39.2991 76.787C43.9507 77.8814 47.2994 78.5125 49.9328 78.6996C51.448 78.8076 52.5147 78.5318 53.2896 77.8486L53.367 77.778L56.4434 78.1927C56.5359 78.2051 56.6235 78.1537 56.6594 78.0705L56.6703 78.0378L58.4335 70.822C58.4557 70.7312 58.4139 70.6385 58.335 70.594L58.3037 70.5797L55.4756 69.5584L55.4513 69.4783C55.1288 68.4679 54.3255 67.7481 52.8514 67.1332L52.7156 67.0776L52.4372 66.9673C51.2626 66.5086 49.8957 66.0542 48.0933 65.5098L46.5271 65.0469C45.6317 64.7869 43.6013 64.1956 42.5864 63.8926L42.2022 63.7767C40.303 63.1949 38.4118 62.643 36.5566 62.1239L35.9387 61.9521L37.2382 53.3703C37.7133 50.1913 38.0169 48.0373 38.1274 47.0014C38.1395 46.8885 38.0578 46.7872 37.9451 46.7751Z" fill="#597EF7"/>
<path fill-rule="evenodd" clip-rule="evenodd" d="M136.459 91.9337C145.786 87.5477 151.345 99.0506 146.654 105.455C140.93 113.271 137.998 122.264 136.365 124.973C134.987 127.259 131.214 132.831 126.671 130.263C122.489 127.899 124.768 118.622 124.768 118.622C124.768 118.622 124.953 97.3445 136.459 91.9337Z" fill="#5B8C00"/>
<path fill-rule="evenodd" clip-rule="evenodd" d="M108.405 128.477C105.234 124.224 104.077 118.12 107.616 116.555C111.009 115.055 116.63 118.749 119.234 125.86C121.837 132.97 123.339 138.083 120.792 138.971C116.614 140.43 112.593 134.094 108.405 128.477Z" fill="#5B8C00"/>
<path fill-rule="evenodd" clip-rule="evenodd" d="M141.741 128.8C138.154 132.978 132.979 141.383 129.737 138.44C127.772 136.655 130.399 128.207 137.589 123.61C143.706 119.699 145.327 124.621 141.741 128.8Z" fill="#7CB305"/>
<path fill-rule="evenodd" clip-rule="evenodd" d="M107.422 99.8038C108.786 98.8916 110.502 98.6833 112.067 99.1818C114.252 99.8775 117.568 101.949 120.849 107.895C125.133 115.657 127.363 124.167 126.922 129.558C126.634 133.083 122.266 134.603 119.822 132.033C118.699 130.852 117.512 129.033 116.35 126.272C111.674 115.163 107.302 108.201 106.781 107.502C105.39 105.637 104.395 101.829 107.422 99.8038Z" fill="#7CB305"/>
<path fill-rule="evenodd" clip-rule="evenodd" d="M110.56 104.235C110.606 104.783 110.197 105.265 109.645 105.311C109.093 105.357 108.608 104.95 108.562 104.401C108.516 103.853 108.926 103.371 109.477 103.325C110.029 103.279 110.514 103.686 110.56 104.235Z" fill="white"/>
<path fill-rule="evenodd" clip-rule="evenodd" d="M119.075 108.49C119.121 109.038 118.711 109.52 118.16 109.566C117.608 109.612 117.123 109.205 117.077 108.657C117.031 108.108 117.44 107.626 117.992 107.58C118.544 107.534 119.029 107.942 119.075 108.49Z" fill="white"/>
<path fill-rule="evenodd" clip-rule="evenodd" d="M117.648 119.819C117.701 120.448 117.232 121 116.6 121.052C115.968 121.105 115.413 120.638 115.36 120.01C115.307 119.382 115.776 118.83 116.408 118.778C117.04 118.725 117.595 119.191 117.648 119.819Z" fill="white"/>
<path fill-rule="evenodd" clip-rule="evenodd" d="M143.801 102.888C143.801 103.779 143.074 104.502 142.177 104.502C141.281 104.502 140.554 103.779 140.554 102.888C140.554 101.997 141.281 101.274 142.177 101.274C143.074 101.274 143.801 101.997 143.801 102.888Z" fill="white"/>
<path fill-rule="evenodd" clip-rule="evenodd" d="M130.731 107.817C130.731 108.708 130.004 109.431 129.107 109.431C128.211 109.431 127.484 108.708 127.484 107.817C127.484 106.926 128.211 106.203 129.107 106.203C130.004 106.203 130.731 106.926 130.731 107.817Z" fill="white"/>
<path fill-rule="evenodd" clip-rule="evenodd" d="M134.964 118.774C134.964 119.146 134.66 119.448 134.285 119.448C133.911 119.448 133.607 119.146 133.607 118.774C133.607 118.401 133.911 118.099 134.285 118.099C134.66 118.099 134.964 118.401 134.964 118.774Z" fill="white"/>
<path fill-rule="evenodd" clip-rule="evenodd" d="M139.853 127.401C139.853 127.952 139.404 128.398 138.85 128.398C138.297 128.398 137.848 127.952 137.848 127.401C137.848 126.851 138.297 126.405 138.85 126.405C139.404 126.405 139.853 126.851 139.853 127.401Z" fill="white"/>
<path d="M116.437 129.612C116.531 129.523 116.679 129.527 116.768 129.62L116.811 129.666L116.843 129.701C116.902 129.767 116.97 129.845 117.046 129.935C117.264 130.193 117.505 130.501 117.765 130.858C118.505 131.878 119.245 133.094 119.935 134.505C121.904 138.531 123.085 143.313 123.085 148.834C123.085 148.962 122.98 149.066 122.851 149.066C122.722 149.066 122.617 148.962 122.617 148.834C122.617 143.386 121.453 138.673 119.515 134.708C118.837 133.322 118.111 132.129 117.386 131.131C117.148 130.803 116.926 130.519 116.725 130.279L116.688 130.234C116.631 130.167 116.579 130.107 116.533 130.055L116.475 129.989C116.453 129.965 116.438 129.949 116.429 129.941C116.34 129.848 116.344 129.701 116.437 129.612Z" fill="#844FFF"/>
<path d="M134.097 131.239C134.174 131.136 134.321 131.115 134.424 131.191C134.528 131.268 134.549 131.414 134.472 131.517C133.62 132.65 132.835 133.869 132.112 135.161C130.585 137.893 129.404 140.821 128.527 143.749C128.221 144.774 127.974 145.726 127.782 146.579L127.743 146.754C127.697 146.963 127.657 147.153 127.624 147.324L127.602 147.436L127.563 147.647C127.542 147.773 127.421 147.858 127.294 147.837C127.167 147.816 127.081 147.696 127.102 147.569L127.115 147.495C127.126 147.434 127.14 147.363 127.156 147.282L127.194 147.088C127.232 146.904 127.276 146.7 127.326 146.478L127.368 146.291C127.556 145.476 127.791 144.578 128.079 143.617C128.965 140.658 130.158 137.699 131.704 134.935C132.436 133.626 133.233 132.389 134.097 131.239Z" fill="#844FFF"/>
<path d="M138.182 102.245C138.271 102.33 138.278 102.469 138.199 102.562L138.189 102.573C138.184 102.578 138.175 102.589 138.16 102.605L138.102 102.667L138.069 102.704C137.968 102.815 137.851 102.95 137.719 103.107C137.341 103.557 136.918 104.099 136.463 104.732C135.16 106.545 133.857 108.729 132.64 111.286C130.613 115.542 129.035 120.397 128.079 125.855C126.917 132.483 126.725 139.723 127.676 147.58C127.691 147.708 127.6 147.823 127.472 147.839C127.343 147.854 127.227 147.763 127.212 147.636C126.255 139.733 126.449 132.447 127.618 125.775C128.582 120.275 130.173 115.381 132.217 111.087C133.447 108.505 134.764 106.297 136.083 104.462L136.185 104.321C136.591 103.761 136.971 103.274 137.317 102.86L137.36 102.809C137.485 102.661 137.596 102.532 137.694 102.423L137.721 102.394C137.751 102.36 137.779 102.33 137.803 102.304L137.851 102.252C137.941 102.159 138.089 102.156 138.182 102.245Z" fill="#844FFF"/>
<path d="M117.949 116.026C118.059 115.959 118.203 115.995 118.27 116.104L118.293 116.143C118.312 116.175 118.334 116.212 118.359 116.256L118.396 116.32C118.459 116.429 118.529 116.555 118.607 116.697L118.671 116.815C118.909 117.255 119.169 117.765 119.447 118.341L119.485 118.42C120.393 120.31 121.3 122.521 122.146 125.032C124.515 132.064 125.957 140.045 126.011 148.832C126.012 148.961 125.908 149.065 125.779 149.066C125.649 149.067 125.544 148.963 125.543 148.835C125.49 140.1 124.057 132.167 121.703 125.18C120.878 122.732 119.996 120.574 119.113 118.723L119.063 118.621C118.762 117.992 118.481 117.443 118.227 116.977L118.151 116.837C118.078 116.705 118.012 116.588 117.954 116.488L117.926 116.44L117.87 116.345C117.803 116.235 117.838 116.092 117.949 116.026Z" fill="#844FFF"/>
<path fill-rule="evenodd" clip-rule="evenodd" d="M135.939 160.361H115.734C114.642 160.361 113.748 159.472 113.748 158.387V143.732C113.748 142.646 114.642 141.757 115.734 141.757H135.939C137.031 141.757 137.925 142.646 137.925 143.732V158.387C137.925 159.472 137.031 160.361 135.939 160.361Z" fill="#844FFF"/>
</svg>
