<svg width="140" height="32" viewBox="0 0 140 32" fill="none" xmlns="http://www.w3.org/2000/svg">
<g clip-path="url(#clip0_5186_53810)">
<path fill-rule="evenodd" clip-rule="evenodd" d="M32 16C32 24.8 24.8 32 16 32C7.2 32 0 24.8 0 16C0 7.2 7.2 0 16 0C24.8 0 32 7.2 32 16Z" fill="#FF6154"/>
<path fill-rule="evenodd" clip-rule="evenodd" d="M18.158 16H13.5979V11.2H18.158C19.518 11.2 20.558 12.24 20.558 13.6C20.558 14.96 19.438 16 18.158 16ZM18.158 8H10.3979V24H13.5979V19.2H18.158C21.278 19.2 23.758 16.72 23.758 13.6C23.758 10.48 21.198 8 18.158 8Z" fill="white"/>
</g>
<path d="M37.0114 22V10.3636H41.6023C42.4848 10.3636 43.2367 10.5322 43.858 10.8693C44.4792 11.2027 44.9527 11.6667 45.2784 12.2614C45.608 12.8523 45.7727 13.5341 45.7727 14.3068C45.7727 15.0795 45.6061 15.7614 45.2727 16.3523C44.9394 16.9432 44.4564 17.4034 43.8239 17.733C43.1951 18.0625 42.4337 18.2273 41.5398 18.2273H38.6136V16.2557H41.142C41.6155 16.2557 42.0057 16.1742 42.3125 16.0114C42.6231 15.8447 42.8542 15.6155 43.0057 15.3239C43.161 15.0284 43.2386 14.6894 43.2386 14.3068C43.2386 13.9205 43.161 13.5833 43.0057 13.2955C42.8542 13.0038 42.6231 12.7784 42.3125 12.6193C42.0019 12.4564 41.608 12.375 41.1307 12.375H39.4716V22H37.0114ZM47.3253 22V13.2727H49.6719V14.7955H49.7628C49.9219 14.2538 50.1889 13.8447 50.5639 13.5682C50.9389 13.2879 51.3707 13.1477 51.8594 13.1477C51.9806 13.1477 52.1113 13.1553 52.2514 13.1705C52.3916 13.1856 52.5147 13.2064 52.6207 13.233V15.3807C52.5071 15.3466 52.3499 15.3163 52.1491 15.2898C51.9484 15.2633 51.7647 15.25 51.598 15.25C51.242 15.25 50.9238 15.3277 50.6435 15.483C50.367 15.6345 50.1473 15.8466 49.9844 16.1193C49.8253 16.392 49.7457 16.7064 49.7457 17.0625V22H47.3253ZM57.4091 22.1705C56.5265 22.1705 55.7633 21.983 55.1193 21.608C54.4792 21.2292 53.9848 20.7027 53.6364 20.0284C53.2879 19.3504 53.1136 18.5644 53.1136 17.6705C53.1136 16.7689 53.2879 15.9811 53.6364 15.3068C53.9848 14.6288 54.4792 14.1023 55.1193 13.7273C55.7633 13.3485 56.5265 13.1591 57.4091 13.1591C58.2917 13.1591 59.053 13.3485 59.6932 13.7273C60.3371 14.1023 60.8333 14.6288 61.1818 15.3068C61.5303 15.9811 61.7045 16.7689 61.7045 17.6705C61.7045 18.5644 61.5303 19.3504 61.1818 20.0284C60.8333 20.7027 60.3371 21.2292 59.6932 21.608C59.053 21.983 58.2917 22.1705 57.4091 22.1705ZM57.4205 20.2955C57.822 20.2955 58.1572 20.1818 58.4261 19.9545C58.6951 19.7235 58.8977 19.4091 59.0341 19.0114C59.1742 18.6136 59.2443 18.161 59.2443 17.6534C59.2443 17.1458 59.1742 16.6932 59.0341 16.2955C58.8977 15.8977 58.6951 15.5833 58.4261 15.3523C58.1572 15.1212 57.822 15.0057 57.4205 15.0057C57.0152 15.0057 56.6742 15.1212 56.3977 15.3523C56.125 15.5833 55.9186 15.8977 55.7784 16.2955C55.642 16.6932 55.5739 17.1458 55.5739 17.6534C55.5739 18.161 55.642 18.6136 55.7784 19.0114C55.9186 19.4091 56.125 19.7235 56.3977 19.9545C56.6742 20.1818 57.0152 20.2955 57.4205 20.2955ZM66.4943 22.142C65.8314 22.142 65.2311 21.9716 64.6932 21.6307C64.1591 21.286 63.7348 20.7803 63.4205 20.1136C63.1098 19.4432 62.9545 18.6212 62.9545 17.6477C62.9545 16.6477 63.1155 15.8163 63.4375 15.1534C63.7595 14.4867 64.1875 13.9886 64.7216 13.6591C65.2595 13.3258 65.8485 13.1591 66.4886 13.1591C66.9773 13.1591 67.3845 13.2424 67.7102 13.4091C68.0398 13.572 68.3049 13.7765 68.5057 14.0227C68.7102 14.2652 68.8655 14.5038 68.9716 14.7386H69.0455V10.3636H71.4602V22H69.0739V20.6023H68.9716C68.858 20.8447 68.697 21.0852 68.4886 21.3239C68.2841 21.5587 68.017 21.7538 67.6875 21.9091C67.3617 22.0644 66.964 22.142 66.4943 22.142ZM67.2614 20.2159C67.6515 20.2159 67.9811 20.1098 68.25 19.8977C68.5227 19.6818 68.7311 19.3807 68.875 18.9943C69.0227 18.608 69.0966 18.1553 69.0966 17.6364C69.0966 17.1174 69.0246 16.6667 68.8807 16.2841C68.7367 15.9015 68.5284 15.6061 68.2557 15.3977C67.983 15.1894 67.6515 15.0852 67.2614 15.0852C66.8636 15.0852 66.5284 15.1932 66.2557 15.4091C65.983 15.625 65.7765 15.9242 65.6364 16.3068C65.4962 16.6894 65.4261 17.1326 65.4261 17.6364C65.4261 18.1439 65.4962 18.5928 65.6364 18.983C65.7803 19.3693 65.9867 19.6723 66.2557 19.892C66.5284 20.108 66.8636 20.2159 67.2614 20.2159ZM79.0469 18.2841V13.2727H81.4673V22H79.1435V20.4148H79.0526C78.8556 20.9261 78.5279 21.3371 78.0696 21.6477C77.6151 21.9583 77.0601 22.1136 76.4048 22.1136C75.8215 22.1136 75.3082 21.9811 74.8651 21.7159C74.4219 21.4508 74.0753 21.0739 73.8253 20.5852C73.5791 20.0966 73.4541 19.5114 73.4503 18.8295V13.2727H75.8707V18.3977C75.8745 18.9129 76.0128 19.3201 76.2855 19.6193C76.5582 19.9186 76.9238 20.0682 77.3821 20.0682C77.6738 20.0682 77.9465 20.0019 78.2003 19.8693C78.4541 19.733 78.6586 19.5322 78.8139 19.267C78.973 19.0019 79.0507 18.6742 79.0469 18.2841ZM87.3466 22.1705C86.4527 22.1705 85.6837 21.9811 85.0398 21.6023C84.3996 21.2197 83.9072 20.6894 83.5625 20.0114C83.2216 19.3333 83.0511 18.553 83.0511 17.6705C83.0511 16.7765 83.2235 15.9924 83.5682 15.3182C83.9167 14.6402 84.411 14.1117 85.0511 13.733C85.6913 13.3504 86.4527 13.1591 87.3352 13.1591C88.0966 13.1591 88.7633 13.2973 89.3352 13.5739C89.9072 13.8504 90.3598 14.2386 90.6932 14.7386C91.0265 15.2386 91.2102 15.8258 91.2443 16.5H88.9602C88.8958 16.0644 88.7254 15.714 88.4489 15.4489C88.1761 15.1799 87.8182 15.0455 87.375 15.0455C87 15.0455 86.6723 15.1477 86.392 15.3523C86.1155 15.553 85.8996 15.8466 85.7443 16.233C85.589 16.6193 85.5114 17.0871 85.5114 17.6364C85.5114 18.1932 85.5871 18.6667 85.7386 19.0568C85.8939 19.447 86.1117 19.7443 86.392 19.9489C86.6723 20.1534 87 20.2557 87.375 20.2557C87.6515 20.2557 87.8996 20.1989 88.1193 20.0852C88.3428 19.9716 88.5265 19.8068 88.6705 19.5909C88.8182 19.3712 88.9148 19.108 88.9602 18.8011H91.2443C91.2064 19.4678 91.0246 20.0549 90.6989 20.5625C90.3769 21.0663 89.9318 21.4602 89.3636 21.7443C88.7955 22.0284 88.1231 22.1705 87.3466 22.1705ZM97.4361 13.2727V15.0909H92.1804V13.2727H97.4361ZM93.3736 11.1818H95.794V19.3182C95.794 19.5417 95.8281 19.7159 95.8963 19.8409C95.9645 19.9621 96.0592 20.0473 96.1804 20.0966C96.3054 20.1458 96.4493 20.1705 96.6122 20.1705C96.7259 20.1705 96.8395 20.161 96.9531 20.142C97.0668 20.1193 97.1539 20.1023 97.2145 20.0909L97.5952 21.892C97.474 21.9299 97.3035 21.9735 97.0838 22.0227C96.8641 22.0758 96.5971 22.108 96.2827 22.1193C95.6993 22.142 95.188 22.0644 94.7486 21.8864C94.313 21.7083 93.974 21.4318 93.7315 21.0568C93.4891 20.6818 93.3698 20.2083 93.3736 19.6364V11.1818ZM102.761 22V10.3636H105.222V15.1648H110.216V10.3636H112.67V22H110.216V17.1932H105.222V22H102.761ZM120.25 18.2841V13.2727H122.67V22H120.347V20.4148H120.256C120.059 20.9261 119.731 21.3371 119.273 21.6477C118.818 21.9583 118.263 22.1136 117.608 22.1136C117.025 22.1136 116.511 21.9811 116.068 21.7159C115.625 21.4508 115.278 21.0739 115.028 20.5852C114.782 20.0966 114.657 19.5114 114.653 18.8295V13.2727H117.074V18.3977C117.078 18.9129 117.216 19.3201 117.489 19.6193C117.761 19.9186 118.127 20.0682 118.585 20.0682C118.877 20.0682 119.15 20.0019 119.403 19.8693C119.657 19.733 119.862 19.5322 120.017 19.267C120.176 19.0019 120.254 18.6742 120.25 18.2841ZM127.027 16.9545V22H124.607V13.2727H126.913V14.8125H127.016C127.209 14.3049 127.533 13.9034 127.987 13.608C128.442 13.3087 128.993 13.1591 129.641 13.1591C130.247 13.1591 130.775 13.2917 131.226 13.5568C131.677 13.822 132.027 14.2008 132.277 14.6932C132.527 15.1818 132.652 15.7652 132.652 16.4432V22H130.232V16.875C130.235 16.3409 130.099 15.9242 129.822 15.625C129.546 15.322 129.165 15.1705 128.68 15.1705C128.355 15.1705 128.067 15.2405 127.817 15.3807C127.571 15.5208 127.377 15.7254 127.237 15.9943C127.101 16.2595 127.031 16.5795 127.027 16.9545ZM139.202 13.2727V15.0909H133.946V13.2727H139.202ZM135.139 11.1818H137.56V19.3182C137.56 19.5417 137.594 19.7159 137.662 19.8409C137.73 19.9621 137.825 20.0473 137.946 20.0966C138.071 20.1458 138.215 20.1705 138.378 20.1705C138.491 20.1705 138.605 20.161 138.719 20.142C138.832 20.1193 138.92 20.1023 138.98 20.0909L139.361 21.892C139.24 21.9299 139.069 21.9735 138.849 22.0227C138.63 22.0758 138.363 22.108 138.048 22.1193C137.465 22.142 136.954 22.0644 136.514 21.8864C136.079 21.7083 135.74 21.4318 135.497 21.0568C135.255 20.6818 135.135 20.2083 135.139 19.6364V11.1818Z" fill="white"/>
<defs>
<clipPath id="clip0_5186_53810">
<rect width="32" height="32" fill="white"/>
</clipPath>
</defs>
</svg>
