<svg width="28" height="27" viewBox="0 0 28 27" fill="none" xmlns="http://www.w3.org/2000/svg">
<path id="Union" fill-rule="evenodd" clip-rule="evenodd" d="M6.84211 0.376465C6.84211 0.376465 7.14412 3.19538 8.3205 4.37176C9.49688 5.54814 12.3158 5.85015 12.3158 5.85015C12.3158 5.85015 9.49688 6.15216 8.3205 7.32854C7.14412 8.50492 6.84211 11.3238 6.84211 11.3238C6.84211 11.3238 6.54009 8.50492 5.36371 7.32854C4.18733 6.15216 1.36842 5.85015 1.36842 5.85015C1.36842 5.85015 4.18733 5.54814 5.36371 4.37176C6.54009 3.19538 6.84211 0.376465 6.84211 0.376465ZM19.1579 4.48173C19.1579 4.48173 19.6109 8.7101 21.3755 10.4747C23.1401 12.2392 27.3684 12.6923 27.3684 12.6923C27.3684 12.6923 23.1401 13.1453 21.3755 14.9098C19.6109 16.6744 19.1579 20.9028 19.1579 20.9028C19.1579 20.9028 18.7049 16.6744 16.9403 14.9098C15.1757 13.1453 10.9474 12.6923 10.9474 12.6923C10.9474 12.6923 15.1757 12.2392 16.9403 10.4747C18.7049 8.7101 19.1579 4.48173 19.1579 4.48173ZM8.69009 17.6864C7.21962 16.2159 6.84211 12.6923 6.84211 12.6923C6.84211 12.6923 6.46459 16.2159 4.99412 17.6864C3.52364 19.1568 0 19.5344 0 19.5344C0 19.5344 3.52364 19.9119 4.99412 21.3823C6.46459 22.8528 6.84211 26.3765 6.84211 26.3765C6.84211 26.3765 7.21962 22.8528 8.69009 21.3823C10.1606 19.9119 13.6842 19.5344 13.6842 19.5344C13.6842 19.5344 10.1606 19.1568 8.69009 17.6864Z" fill="url(#paint0_linear_3484_25959)"/>
<defs>
<linearGradient id="paint0_linear_3484_25959" x1="3.82333e-08" y1="13.3764" x2="27.3684" y2="13.3764" gradientUnits="userSpaceOnUse">
<stop stop-color="#6859FF"/>
<stop offset="1" stop-color="#AF41FF"/>
</linearGradient>
</defs>
</svg>
