<svg width="32" height="32" viewBox="0 0 32 32" fill="none" xmlns="http://www.w3.org/2000/svg">
<g id="sparkles 1">
<g id="Group">
<path id="Vector" d="M15.8214 11.1058C15.651 11.7676 15.0723 12.2613 14.3883 12.6033C12.4494 13.2742 10.9178 13.9195 9.65053 14.546C8.52862 15.1006 8.53945 16.8533 9.665 17.4005C10.9801 18.0398 12.6312 18.653 14.465 19.3799C14.9581 19.5754 15.6549 20.1276 15.8283 20.8064C16.3628 22.8981 17.09 25.1124 17.8908 27.1566C18.5124 28.7434 20.0492 28.7422 20.6739 27.1566C21.4848 25.0982 22.1008 22.8748 22.7961 20.7594C22.9625 20.1062 23.4552 19.5897 24.0905 19.3647C25.8075 18.7564 27.4626 18.07 28.8117 17.4758C30.0716 16.9209 30.0976 15.1193 28.8535 14.5299C27.5249 13.9005 25.8723 13.1717 24.0822 12.5212C23.4522 12.2923 22.9675 11.8091 22.7435 11.1233C21.989 8.81237 21.5109 6.85311 20.7093 4.81844C20.0846 3.23279 18.4447 3.28159 17.82 4.86724C17.0214 6.8944 16.4639 8.91217 15.8214 11.1058Z" fill="url(#paint0_linear_1892_16499)"/>
</g>
<path id="Vector_2" d="M15.8214 11.1058C15.651 11.7676 15.0723 12.2613 14.3883 12.6033C12.4494 13.2742 10.9178 13.9195 9.65053 14.546C8.52862 15.1006 8.53945 16.8533 9.665 17.4005C10.9801 18.0398 12.6312 18.653 14.465 19.3799C14.9581 19.5754 15.6549 20.1276 15.8283 20.8064C16.3628 22.8981 17.09 25.1124 17.8908 27.1566C18.5124 28.7434 20.0492 28.7422 20.6739 27.1566C21.4848 25.0982 22.1008 22.8748 22.7961 20.7594C22.9625 20.1062 23.4552 19.5897 24.0905 19.3647C25.8075 18.7564 27.4626 18.07 28.8117 17.4758C30.0716 16.9209 30.0976 15.1193 28.8535 14.5299C27.5249 13.9005 25.8723 13.1717 24.0822 12.5212C23.4522 12.2923 22.9675 11.8091 22.7435 11.1233C21.989 8.81237 21.5109 6.85311 20.7093 4.81844C20.0846 3.23279 18.4447 3.28159 17.82 4.86724C17.0214 6.8944 16.4639 8.91217 15.8214 11.1058Z" fill="url(#paint1_linear_1892_16499)"/>
<g id="Group_2">
<path id="Vector_3" d="M7.76778 5.81661C7.71293 6.02962 7.5267 6.18852 7.30655 6.29859C6.68248 6.51451 6.18953 6.72223 5.78164 6.92387C5.42054 7.10237 5.42403 7.66648 5.7863 7.84259C6.20957 8.04837 6.74101 8.24573 7.33123 8.4797C7.48992 8.54261 7.71419 8.72034 7.77002 8.93881C7.94205 9.61204 8.17611 10.3247 8.43384 10.9827C8.63392 11.4934 9.12855 11.493 9.3296 10.9827C9.59059 10.3202 9.78887 9.60455 10.0127 8.92368C10.0663 8.71346 10.2248 8.54723 10.4293 8.47479C10.9819 8.27903 11.5146 8.0581 11.9489 7.86684C12.3544 7.68824 12.3627 7.10839 11.9623 6.91869C11.5347 6.71611 11.0028 6.48152 10.4266 6.27217C10.2238 6.19848 10.0678 6.04298 9.99573 5.82225C9.75287 5.07845 9.59899 4.44785 9.34099 3.79297C9.13993 3.28262 8.61213 3.29833 8.41107 3.80868C8.15403 4.46114 7.97458 5.11057 7.76778 5.81661Z" fill="url(#paint2_linear_1892_16499)"/>
</g>
<path id="Vector_4" d="M7.76778 5.81661C7.71293 6.02962 7.5267 6.18852 7.30655 6.29859C6.68248 6.51451 6.18953 6.72223 5.78164 6.92387C5.42054 7.10237 5.42403 7.66648 5.7863 7.84259C6.20957 8.04837 6.74101 8.24573 7.33123 8.4797C7.48992 8.54261 7.71419 8.72034 7.77002 8.93881C7.94205 9.61204 8.17611 10.3247 8.43384 10.9827C8.63392 11.4934 9.12855 11.493 9.3296 10.9827C9.59059 10.3202 9.78887 9.60455 10.0127 8.92368C10.0663 8.71346 10.2248 8.54723 10.4293 8.47479C10.9819 8.27903 11.5146 8.0581 11.9489 7.86684C12.3544 7.68824 12.3627 7.10839 11.9623 6.91869C11.5347 6.71611 11.0028 6.48152 10.4266 6.27217C10.2238 6.19848 10.0678 6.04298 9.99573 5.82225C9.75287 5.07845 9.59899 4.44785 9.34099 3.79297C9.13993 3.28262 8.61213 3.29833 8.41107 3.80868C8.15403 4.46114 7.97458 5.11057 7.76778 5.81661Z" fill="url(#paint3_linear_1892_16499)"/>
<g id="Group_3">
<path id="Vector_5" d="M5.22615 20.0656C5.14966 20.3626 4.88997 20.5842 4.58299 20.7377C3.71274 21.0388 3.02535 21.3284 2.45657 21.6096C1.95304 21.8585 1.9579 22.6451 2.46306 22.8907C3.0533 23.1777 3.79436 23.4529 4.61739 23.7791C4.83868 23.8668 5.15141 24.1147 5.22926 24.4193C5.46916 25.3581 5.79555 26.352 6.15494 27.2694C6.43394 27.9816 7.12368 27.9811 7.40404 27.2694C7.76797 26.3456 8.04446 25.3477 8.35652 24.3982C8.4312 24.1051 8.6523 23.8733 8.93744 23.7723C9.70806 23.4993 10.4509 23.1912 11.0564 22.9245C11.6218 22.6755 11.6335 21.8669 11.0751 21.6024C10.4789 21.3199 9.73717 20.9928 8.93375 20.7008C8.65096 20.5981 8.43342 20.3812 8.33292 20.0734C7.99426 19.0362 7.77968 18.1569 7.41991 17.2437C7.13954 16.532 6.40355 16.5539 6.12318 17.2656C5.76475 18.1754 5.51451 19.081 5.22615 20.0656Z" fill="url(#paint4_radial_1892_16499)"/>
</g>
</g>
<defs>
<linearGradient id="paint0_linear_1892_16499" x1="26.1289" y1="11.2711" x2="15.0526" y2="22.9312" gradientUnits="userSpaceOnUse">
<stop stop-color="#D336FF"/>
<stop offset="1" stop-color="#FB54FE"/>
</linearGradient>
<linearGradient id="paint1_linear_1892_16499" x1="14.7539" y1="29.2901" x2="20.7918" y2="16.5539" gradientUnits="userSpaceOnUse">
<stop stop-color="#B66DFF"/>
<stop offset="1" stop-color="#FD8BFF"/>
</linearGradient>
<linearGradient id="paint2_linear_1892_16499" x1="11.0854" y1="5.8698" x2="7.52035" y2="9.6227" gradientUnits="userSpaceOnUse">
<stop stop-color="#7278FF"/>
<stop offset="1" stop-color="#E367F7"/>
</linearGradient>
<linearGradient id="paint3_linear_1892_16499" x1="8.88526" y1="11.9806" x2="8.88526" y2="7.85563" gradientUnits="userSpaceOnUse">
<stop stop-color="#FD71EF"/>
<stop offset="1" stop-color="#FDA071" stop-opacity="0"/>
</linearGradient>
<radialGradient id="paint4_radial_1892_16499" cx="0" cy="0" r="1" gradientUnits="userSpaceOnUse" gradientTransform="translate(10.0136 18.567) rotate(127.221) scale(7.07598 6.89067)">
<stop stop-color="#B264FF"/>
<stop offset="0.453125" stop-color="#E497FF"/>
<stop offset="1" stop-color="#BE6BFF"/>
</radialGradient>
</defs>
</svg>
