<svg width="301" height="283" viewBox="0 0 301 283" fill="none" xmlns="http://www.w3.org/2000/svg">
<path d="M115.207 258.997C114.364 258.32 112.492 256.177 113.937 253.701C114.467 252.793 115.592 252.341 116.61 251.941C117.657 251.61 118.643 251.13 119.536 250.52C121.125 249.251 121.558 247.136 122.618 245.444C123.822 243.509 126.079 242.06 128.469 242.161C131.196 242.274 133.478 244.367 134.489 246.747C135.501 249.127 135.561 251.777 135.585 254.349C135.585 255.776 135.525 257.378 134.411 258.342C133.297 259.307 131.834 259.239 130.444 259.2L115.514 258.765" fill="#F5F5F5"/>
<path d="M143.756 220.539H104.5L111.574 260.047C111.721 260.87 112.114 261.636 112.708 262.258C113.301 262.88 114.071 263.332 114.927 263.561L115.059 263.595C115.179 263.623 115.294 263.663 115.414 263.679C115.676 263.73 115.942 263.76 116.209 263.77V263.803L116.402 263.775H133.902C134.223 263.777 134.544 263.747 134.859 263.685C135.881 263.538 136.823 263.082 137.541 262.385C138.258 261.688 138.712 260.789 138.832 259.827L142.239 232.609L142.396 231.526L143.744 220.742L143.756 220.539ZM136.352 245.739H132.324L132.728 234.272H137.399L136.352 245.739ZM137.791 234.272H141.649L140.211 245.739H136.743L137.791 234.272ZM126.28 258.451L126.034 248.491H131.843L131.488 258.451H126.28ZM120.008 248.491H125.642L125.889 258.451H120.832L120.008 248.491ZM120.441 258.451H115.715C115.27 255.761 114.686 252.247 114.048 248.491H119.616L120.441 258.451ZM119.803 245.739L118.852 234.272H125.317L125.6 245.739H119.803ZM125.991 245.739L125.708 234.272H132.367L131.957 245.739H125.991ZM125.642 231.526L125.383 220.906H132.836L132.445 231.526H125.642ZM125.251 231.526H118.599L117.72 220.906H124.944L125.251 231.526ZM118.232 231.526H111.2C110.947 230.059 110.713 228.672 110.502 227.42C109.768 223.128 109.497 221.515 109.34 220.906H117.329L118.232 231.526ZM118.46 234.272L119.412 245.739H113.614C113.422 244.577 113.223 243.398 113.012 242.219C112.555 239.512 112.103 236.81 111.676 234.272H118.46ZM113.181 245.739H109.394L107.341 234.272H111.254C111.862 237.814 112.531 241.762 113.181 245.739ZM113.644 248.491C114.246 251.937 114.788 255.332 115.312 258.451H111.67L109.864 248.491H113.644ZM131.861 258.451L132.216 248.491H136.093L135.184 258.451H131.861ZM132.818 231.526L133.191 220.906H138.609L137.646 231.526H132.818ZM108.967 220.906C109.117 221.673 109.834 225.852 110.773 231.526H106.86L104.964 220.906H108.967ZM138.615 258.451H135.605L136.508 248.491H139.886L138.615 258.451ZM141.987 231.526H138.031L139.001 220.906H143.317L141.987 231.526Z" fill="#E0E0E0"/>
<path d="M245.25 42.5889L185.148 52.1328L192.016 90.0901L252.117 80.5461L245.25 42.5889Z" fill="#EBEBEB"/>
<path d="M245.257 42.6016C245.12 42.8131 244.962 43.0131 244.788 43.1994L243.361 44.835L238.04 50.8078L220.274 70.435L220.13 70.5985L219.931 70.497L219.45 70.2432L195.141 57.5419L187.827 53.639L185.846 52.5562C185.608 52.4387 185.383 52.3009 185.172 52.1444C185.424 52.2287 185.668 52.3344 185.9 52.4603L187.929 53.4586L195.352 57.2204L219.733 69.792L220.208 70.0402L219.865 70.1022L237.757 50.5709L243.211 44.7053L244.716 43.1317C244.879 42.94 245.06 42.7626 245.257 42.6016Z" fill="#FAFAFA"/>
<path d="M192.043 90.0989C191.91 90.0256 195.486 84.1036 200.031 76.8787C204.576 69.6539 208.369 63.8447 208.501 63.9067C208.634 63.9688 205.058 69.8964 200.513 77.1269C195.968 84.3574 192.145 90.1722 192.043 90.0989Z" fill="#FAFAFA"/>
<path d="M228.369 60.2831C228.471 60.176 233.871 64.6372 240.409 70.2377C246.946 75.8383 252.238 80.4518 252.118 80.5871C251.997 80.7225 246.615 76.2387 240.078 70.6382C233.54 65.0377 228.266 60.379 228.369 60.2831Z" fill="#FAFAFA"/>
<path d="M62.2847 144.217L31.7812 146.758L33.6091 166.021L64.1125 163.481L62.2847 144.217Z" fill="#F5F5F5"/>
<path d="M62.2786 144.227C62.2055 144.329 62.1185 144.422 62.0197 144.503L61.2371 145.276L58.3174 148.067L48.5891 157.232L48.5108 157.306L48.4145 157.249L48.1857 157.103L36.5551 149.838L33.0454 147.582L32.1003 146.968C31.9871 146.899 31.8804 146.822 31.7812 146.736C31.9034 146.788 32.0202 146.851 32.1304 146.922L33.1057 147.486L36.6635 149.647L48.3423 156.849L48.571 156.99H48.3964L58.1789 147.881L61.1889 145.146L62.0077 144.413C62.0931 144.345 62.1837 144.282 62.2786 144.227Z" fill="#E0E0E0"/>
<path d="M33.6029 166.022C33.5427 165.982 35.5834 163.151 38.166 159.699C40.7486 156.248 42.8977 153.495 42.982 153.524C43.0663 153.552 41.0014 156.394 38.4189 159.846C35.8363 163.298 33.6631 166.061 33.6029 166.022Z" fill="#E0E0E0"/>
<path d="M53.0712 152.446C53.1314 152.395 55.6478 154.832 58.6879 157.877C61.728 160.923 64.16 163.438 64.1059 163.489C64.0517 163.54 61.5353 161.103 58.4892 158.058C55.4431 155.012 53.017 152.497 53.0712 152.446Z" fill="#E0E0E0"/>
<path d="M278.98 123.449C278.98 123.449 278.98 123.297 279.053 123.015C279.125 122.733 279.179 122.31 279.275 121.774C279.474 120.68 279.769 119.095 280.142 117.065C280.907 113.004 281.996 107.189 283.327 100.111L283.423 100.241L247.183 94.1835L247.357 94.0707C245.756 102.395 244.239 110.303 242.878 117.386L242.77 117.24L268.849 121.684L276.32 122.97L278.306 123.32L278.818 123.416L278.998 123.455H278.83L278.33 123.382L276.368 123.066L268.933 121.853L242.74 117.516H242.602V117.386C243.956 110.303 245.461 102.39 247.05 94.065L247.08 93.9297H247.231L283.459 100.043H283.58V100.156L280.263 117.161C279.865 119.174 279.552 120.748 279.336 121.831C279.227 122.355 279.149 122.761 279.089 123.049C279.029 123.337 278.98 123.449 278.98 123.449Z" fill="#E0E0E0"/>
<path d="M283.442 100.132C283.317 100.24 283.18 100.334 283.033 100.414L281.829 101.17L277.332 103.911L262.414 112.856C262.005 112.789 262.3 112.856 262.204 112.817V112.789L262.156 112.727L262.059 112.608L261.861 112.366L261.475 111.886C261.216 111.565 260.964 111.249 260.705 110.939L259.206 109.077L256.376 105.564L251.596 99.6023L248.394 95.5697L247.533 94.4417C247.429 94.3162 247.335 94.1843 247.25 94.0469C247.371 94.1582 247.482 94.279 247.581 94.4078L248.484 95.4794L251.765 99.4613L256.581 105.383L259.428 108.886L260.927 110.741L261.698 111.694L262.083 112.174L262.282 112.411L262.378 112.535L262.426 112.591V112.625C262.342 112.625 262.631 112.665 262.234 112.625L277.187 103.748L281.739 101.086L282.979 100.369C283.286 100.206 283.442 100.127 283.442 100.132Z" fill="#E0E0E0"/>
<path d="M257.279 106.493C257.334 106.555 254.107 109.06 250.055 112.083C246.004 115.106 242.705 117.508 242.657 117.446C242.609 117.384 245.829 114.886 249.881 111.863C253.932 108.84 257.225 106.431 257.279 106.493Z" fill="#E0E0E0"/>
<path d="M279.163 123.763C279.091 123.803 276.99 120.328 274.473 116.014C271.957 111.699 269.977 108.168 270.049 108.118C270.121 108.067 272.222 111.552 274.738 115.867C277.255 120.182 279.235 123.724 279.163 123.763Z" fill="#E0E0E0"/>
<path d="M118.152 167.398V173.952H88.0523C87.1247 173.952 86.235 173.607 85.5791 172.992C84.9232 172.378 84.5547 171.544 84.5547 170.675C84.5547 169.806 84.9232 168.973 85.5791 168.358C86.235 167.744 87.1247 167.398 88.0523 167.398" fill="#E0E0E0"/>
<path d="M108.186 168.766H118.149V172.573H108.186C107.662 172.573 107.16 172.378 106.789 172.031C106.419 171.684 106.211 171.213 106.211 170.723V170.61C106.213 170.12 106.421 169.651 106.791 169.305C107.162 168.96 107.663 168.766 108.186 168.766Z" fill="#FAFAFA"/>
<path d="M118.152 160.836V167.395H88.0523C87.1247 167.395 86.235 167.05 85.5791 166.435C84.9232 165.821 84.5547 164.987 84.5547 164.118C84.5547 163.249 84.923 162.415 85.5788 161.799C86.2345 161.184 87.1241 160.837 88.0523 160.836H118.152Z" fill="#F5F5F5"/>
<path d="M108.186 162.211H118.149V166.018H108.186C107.662 166.018 107.16 165.823 106.789 165.476C106.419 165.129 106.211 164.659 106.211 164.168V164.055C106.213 163.566 106.421 163.096 106.791 162.751C107.162 162.405 107.663 162.211 108.186 162.211Z" fill="#E0E0E0"/>
<path d="M96.4223 150.32L91.6484 160.833H94.7186L96.8437 155.221L96.4223 150.32Z" fill="#E0E0E0"/>
<path d="M111.093 140.805L112.941 160.832H97.3251L95.6094 140.805H111.093Z" fill="#EBEBEB"/>
<path d="M109.574 142.401L111.187 159.18L99.4661 159.321L97.8828 142.305L109.574 142.401Z" fill="#FAFAFA"/>
<path d="M107.084 144.719L107.999 156.264H101.75L100.648 144.719H107.084Z" fill="#E0E0E0"/>
<path d="M287.221 263.811C287.221 263.895 226.274 263.957 151.109 263.957C75.9429 263.957 14.9844 263.89 14.9844 263.811C14.9844 263.732 75.9188 263.664 151.109 263.664C226.298 263.664 287.221 263.732 287.221 263.811Z" fill="#263238"/>
<path d="M190.691 26.2344H28.2891V129.446H190.691V26.2344Z" fill="#FAFAFA"/>
<path d="M191.436 129.526H28.7812V26.1562H191.436V129.526ZM191.315 26.2352H28.8956V129.447H191.309" fill="#FAFAFA"/>
<path d="M191.436 129.526H28.7812V26.1562H191.436V129.526ZM191.315 26.2352H28.8956V129.447H191.309" fill="#FAFAFA"/>
<path d="M191.374 26.2188H28.8516V36.4497H191.374V26.2188Z" fill="#4F18A2"/>
<g style="mix-blend-mode:multiply">
<path d="M191.374 113.656H28.8516V129.527H191.374V113.656Z" fill="#EBEBEB"/>
</g>
<path d="M59.6983 121.336H61.0408L61.4622 122.159H61.7511L60.4087 119.531H60.3304L59 122.159H59.289L59.6983 121.336ZM60.3665 120.028L60.9144 121.088H59.8247L60.3665 120.028Z" fill="#263238"/>
<path d="M61.9442 122.719H58.7656V122.927H61.9442V122.719Z" fill="#263238"/>
<path d="M39.9476 119.391H39.7309C39.4275 119.412 39.1439 119.54 38.9373 119.749C38.7307 119.959 38.6163 120.234 38.6172 120.519C38.7664 121.35 39.151 122.129 39.7309 122.775C39.7309 122.775 39.8152 122.91 39.9476 122.775C40.5301 122.131 40.915 121.351 41.0613 120.519C41.0622 120.234 40.9478 119.959 40.7412 119.749C40.5346 119.54 40.251 119.412 39.9476 119.391ZM39.8393 121.201C39.7083 121.201 39.5802 121.165 39.4714 121.097C39.3625 121.028 39.2776 120.931 39.2275 120.818C39.1773 120.705 39.1642 120.58 39.1898 120.46C39.2153 120.339 39.2784 120.229 39.371 120.142C39.4636 120.055 39.5816 119.996 39.7101 119.972C39.8385 119.948 39.9717 119.961 40.0927 120.007C40.2137 120.054 40.3171 120.134 40.3899 120.236C40.4626 120.338 40.5015 120.458 40.5015 120.581C40.5023 120.662 40.4857 120.743 40.4527 120.819C40.4197 120.895 40.3709 120.963 40.3093 121.021C40.2476 121.079 40.1743 121.124 40.0936 121.155C40.0129 121.186 39.9264 121.202 39.8393 121.201Z" fill="#263238"/>
<path d="M54.8338 122.011C54.8338 122.18 54.7621 122.342 54.6345 122.462C54.507 122.581 54.3339 122.648 54.1535 122.648C53.9731 122.648 53.8001 122.581 53.6725 122.462C53.5449 122.342 53.4732 122.18 53.4732 122.011V119.952C53.4732 119.843 53.5195 119.739 53.602 119.661C53.6844 119.584 53.7962 119.541 53.9127 119.541C54.0293 119.541 54.141 119.584 54.2235 119.661C54.3059 119.739 54.3522 119.843 54.3522 119.952V121.701C54.343 121.755 54.3134 121.805 54.2687 121.841C54.224 121.876 54.1672 121.896 54.1084 121.896C54.0496 121.896 53.9927 121.876 53.948 121.841C53.9033 121.805 53.8737 121.755 53.8645 121.701V120.353H53.702V121.639V121.701C53.7164 121.792 53.765 121.874 53.839 121.934C53.913 121.994 54.0075 122.028 54.1053 122.028C54.2029 122.026 54.2967 121.993 54.3705 121.933C54.4442 121.873 54.4932 121.791 54.5087 121.701V121.667C54.5081 121.658 54.5081 121.648 54.5087 121.639V119.947C54.5087 119.797 54.4453 119.654 54.3324 119.548C54.2195 119.442 54.0663 119.383 53.9067 119.383C53.747 119.383 53.5939 119.442 53.481 119.548C53.3681 119.654 53.3047 119.797 53.3047 119.947V122.096C53.3225 122.293 53.4187 122.477 53.5742 122.61C53.7298 122.744 53.9333 122.819 54.1445 122.819C54.3557 122.819 54.5592 122.744 54.7147 122.61C54.8702 122.477 54.9664 122.293 54.9843 122.096V120.353H54.8217L54.8338 122.011Z" fill="#263238"/>
<path d="M47.5971 120.453L46.9951 119.258L46.3931 120.453L44.9844 120.645L46.0018 121.576L45.7128 122.89L46.9589 122.27L48.2171 122.89L47.9763 121.576L49.0057 120.634L47.5971 120.453ZM47.9522 122.54L46.9589 122.05L45.9717 122.54L46.1523 121.559V121.508L45.3576 120.781L46.4773 120.634L46.971 119.698L47.4646 120.634L48.5663 120.786L47.8078 121.48L47.7656 121.514L47.9522 122.54Z" fill="#263238"/>
<path d="M72.3687 117.812H72.1641V123.932H72.3687V117.812Z" fill="#263238"/>
<path d="M68.3741 119.953H65.7734V122.548H68.3741V119.953Z" fill="#263238"/>
<path d="M66.5982 119.352V119.555H67.5554V119.352H68.3741V119.752H65.7734V119.352H66.5982Z" fill="#263238"/>
<path d="M67.5509 119.148H66.5938V119.346H67.5509V119.148Z" fill="#263238"/>
<path d="M67.5509 119.352H66.5938V119.549H67.5509V119.352Z" fill="#263238"/>
<path d="M78.2564 121.352L79.051 120.602L79.1473 120.692L78.2564 121.532L77.3594 120.692L77.4557 120.602L78.2564 121.352Z" fill="#263238"/>
<path d="M176.211 31.4522H178.462V31.3394H176.211H178.462V31.2266H176.211V31.4522Z" fill="#263238"/>
<path d="M187.451 30.361L187.283 30.2031L186.241 31.1788L185.2 30.2031L185.031 30.361L186.073 31.3368L185.031 32.3125L185.2 32.4704L186.241 31.4947L187.283 32.4704L187.451 32.3125L186.41 31.3368L187.451 30.361Z" fill="#263238"/>
<path d="M180.484 32.5068H183.007V30.1719H180.514L180.484 32.5068ZM180.725 30.3918H182.736V32.2812H180.725V30.3918Z" fill="#263238"/>
<path d="M187.7 59.7978C187.699 59.5832 187.609 59.3772 187.45 59.2228C187.291 59.0684 187.074 58.9774 186.845 58.9688H183.486C183.16 58.9688 182.848 59.09 182.618 59.3057C182.387 59.5215 182.258 59.8142 182.258 60.1193C182.258 60.4245 182.387 60.7171 182.618 60.9329C182.848 61.1486 183.16 61.2699 183.486 61.2699H186.189V61.0443H183.612C183.482 61.0443 183.353 61.0202 183.232 60.9734C183.112 60.9267 183.002 60.8581 182.91 60.7717C182.818 60.6853 182.745 60.5827 182.695 60.4698C182.645 60.3569 182.619 60.2359 182.619 60.1137C182.619 59.9915 182.645 59.8704 182.695 59.7575C182.745 59.6446 182.818 59.5421 182.91 59.4556C183.002 59.3692 183.112 59.3007 183.232 59.2539C183.353 59.2071 183.482 59.1831 183.612 59.1831H186.827C186.998 59.1831 187.162 59.2466 187.282 59.3598C187.403 59.473 187.471 59.6265 187.471 59.7865C187.471 59.9466 187.403 60.1001 187.282 60.2133C187.162 60.3264 186.998 60.39 186.827 60.39H184.1C184.02 60.3716 183.948 60.3292 183.896 60.2691C183.844 60.209 183.814 60.1347 183.811 60.0573C183.812 59.9786 183.842 59.9026 183.896 59.842C183.949 59.7815 184.024 59.74 184.106 59.7245H186.201V59.4989H184.1C183.94 59.4989 183.787 59.5583 183.674 59.6641C183.561 59.7699 183.498 59.9133 183.498 60.0629C183.498 60.2125 183.561 60.3559 183.674 60.4617C183.787 60.5675 183.94 60.6269 184.1 60.6269H186.857C187.084 60.6168 187.299 60.5249 187.456 60.3705C187.613 60.2162 187.7 60.011 187.7 59.7978Z" fill="#263238"/>
<path d="M36.2388 29.6016V32.4216H35.8897L34.0837 30.3348V32.4216H33.6562V29.6016H34.0054L35.8114 31.6884V29.6016H36.2388Z" fill="white"/>
<path d="M39.1333 31.4652H37.3273C37.3535 31.6376 37.4452 31.7954 37.5857 31.9094C37.7262 32.0234 37.906 32.086 38.0919 32.0856C38.2142 32.0895 38.336 32.0688 38.4492 32.025C38.5623 31.9813 38.6642 31.9154 38.748 31.8318L38.9768 32.08C38.8625 32.1945 38.7232 32.2844 38.5684 32.3438C38.4136 32.4032 38.247 32.4306 38.0798 32.424C37.9229 32.4326 37.7657 32.4107 37.6183 32.3596C37.4709 32.3084 37.3364 32.2292 37.2232 32.1269C37.1101 32.0247 37.0208 31.9015 36.961 31.7653C36.9012 31.6291 36.8722 31.4828 36.8758 31.3355C36.87 31.1935 36.8953 31.052 36.9503 30.9195C37.0053 30.7871 37.0887 30.6667 37.1953 30.5657C37.302 30.4647 37.4297 30.3853 37.5704 30.3324C37.7112 30.2795 37.862 30.2543 38.0136 30.2583C38.1655 30.254 38.3166 30.2796 38.4574 30.3333C38.5981 30.387 38.7253 30.4678 38.8307 30.5703C38.9361 30.6728 39.0175 30.7948 39.0697 30.9285C39.1218 31.0623 39.1435 31.2047 39.1333 31.3468C39.1363 31.3862 39.1363 31.4258 39.1333 31.4652ZM37.3273 31.1889H38.7781C38.7616 31.0193 38.6781 30.8617 38.5439 30.7469C38.4096 30.6321 38.2345 30.5684 38.0527 30.5684C37.871 30.5684 37.6958 30.6321 37.5616 30.7469C37.4274 30.8617 37.3438 31.0193 37.3273 31.1889Z" fill="white"/>
<path d="M43.06 30.2734L42.2172 32.3941H41.8259L41.1697 30.7867L40.5075 32.3941H40.1162L39.2734 30.2734H39.6647L40.3209 31.9654L41.0012 30.2734H41.3503L42.0186 31.9654L42.6928 30.2734H43.06Z" fill="white"/>
<path d="M46.8529 32.0541V32.3981H44.6797V29.5781H46.7927V29.9222H45.1071V30.7851H46.6061V31.1235H45.1071V32.0315L46.8529 32.0541Z" fill="white"/>
<path d="M51.2439 31.1753V32.3935H50.8286V31.2204C50.8286 30.803 50.6179 30.6 50.2266 30.6C50.1296 30.5957 50.0329 30.6115 49.9433 30.6464C49.8538 30.6813 49.7735 30.7344 49.7085 30.8018C49.6434 30.8692 49.5951 30.9493 49.5671 31.0363C49.539 31.1233 49.5319 31.2151 49.5463 31.305V32.3935H49.1369V31.2204C49.1369 30.803 48.9262 30.6 48.5349 30.6C48.438 30.5957 48.3413 30.6115 48.2517 30.6464C48.1621 30.6813 48.0819 30.7344 48.0169 30.8018C47.9518 30.8692 47.9035 30.9493 47.8755 31.0363C47.8474 31.1233 47.8403 31.2151 47.8547 31.305V32.3935H47.4453V30.2729H47.8366V30.5887C47.9287 30.4782 48.048 30.3902 48.1843 30.3322C48.3206 30.2743 48.4698 30.2481 48.6192 30.256C48.7764 30.2446 48.9339 30.2751 49.0734 30.344C49.213 30.4128 49.3289 30.5172 49.4078 30.6451C49.5078 30.5179 49.6399 30.4158 49.7921 30.3479C49.9444 30.28 50.1123 30.2484 50.2807 30.256C50.4127 30.2409 50.5465 30.2545 50.672 30.2956C50.7974 30.3368 50.911 30.4044 51.0041 30.4932C51.0972 30.5821 51.1673 30.6898 51.2089 30.8081C51.2504 30.9263 51.2624 31.052 51.2439 31.1753Z" fill="white"/>
<path d="M53.781 31.1157V32.396H53.3958V32.1196C53.3085 32.2249 53.1945 32.308 53.064 32.3612C52.9336 32.4144 52.791 32.4361 52.6493 32.4242C52.1376 32.4242 51.8125 32.1647 51.8125 31.7981C51.8125 31.4315 52.0473 31.1777 52.7215 31.1777H53.3717V31.0988C53.3717 30.7773 53.173 30.5912 52.7697 30.5912C52.5105 30.5881 52.2579 30.6677 52.0533 30.8168L51.8847 30.5291C52.1552 30.3446 52.4834 30.2494 52.8178 30.2584C53.4319 30.2584 53.781 30.5348 53.781 31.1157ZM53.3717 31.7474V31.4541H52.7697C52.3663 31.4541 52.252 31.6007 52.252 31.7812C52.252 31.9617 52.4386 32.1252 52.7516 32.1252C52.8837 32.1288 53.0138 32.0945 53.1246 32.027C53.2354 31.9595 53.3216 31.8619 53.3717 31.7474Z" fill="white"/>
<path d="M54.4688 29.6212C54.4687 29.5874 54.4759 29.554 54.4899 29.5228C54.5039 29.4916 54.5244 29.4634 54.5502 29.4398C54.576 29.4161 54.6066 29.3975 54.6401 29.3851C54.6737 29.3727 54.7096 29.3667 54.7457 29.3674C54.781 29.3659 54.8162 29.3711 54.8493 29.3825C54.8825 29.3939 54.9129 29.4115 54.9387 29.4341C54.9645 29.4567 54.9852 29.4839 54.9996 29.5141C55.014 29.5443 55.0218 29.5769 55.0226 29.61C55.0226 29.6788 54.9934 29.7448 54.9415 29.7934C54.8895 29.8421 54.8191 29.8694 54.7457 29.8694C54.6722 29.8694 54.6018 29.8421 54.5499 29.7934C54.4979 29.7448 54.4688 29.6788 54.4688 29.61V29.6212ZM54.541 30.2755H54.9503V32.3961H54.541V30.2755Z" fill="white"/>
<path d="M55.7344 29.4297H56.1437V32.3963H55.7344V29.4297Z" fill="white"/>
<path d="M33.8359 39.9378H32.8125V39.5938H35.2807V39.9378H34.2573V42.3912H33.8359V39.9378Z" fill="#263238"/>
<path d="M35.251 41.3294C35.2414 41.1046 35.3037 40.8822 35.43 40.6909C35.5564 40.4995 35.7409 40.348 35.9599 40.2556C36.1788 40.1633 36.4223 40.1344 36.6589 40.1727C36.8956 40.211 37.1146 40.3147 37.2878 40.4705C37.461 40.6263 37.5806 40.8271 37.6311 41.0471C37.6816 41.267 37.6607 41.4961 37.5712 41.7048C37.4816 41.9136 37.3275 42.0925 37.1286 42.2186C36.9297 42.3446 36.6951 42.4121 36.455 42.4122C36.2979 42.4234 36.1401 42.4035 35.9918 42.3536C35.8436 42.3038 35.7082 42.2252 35.5946 42.123C35.4809 42.0208 35.3916 41.8973 35.3324 41.7605C35.2732 41.6238 35.2454 41.4769 35.251 41.3294ZM37.1894 41.3294C37.1894 41.2353 37.1696 41.1422 37.1312 41.0553C37.0928 40.9684 37.0365 40.8894 36.9655 40.8229C36.8945 40.7564 36.8102 40.7036 36.7174 40.6676C36.6247 40.6316 36.5253 40.6131 36.4249 40.6131C36.3245 40.6131 36.225 40.6316 36.1323 40.6676C36.0395 40.7036 35.9552 40.7564 35.8843 40.8229C35.8133 40.8894 35.7569 40.9684 35.7185 41.0553C35.6801 41.1422 35.6603 41.2353 35.6603 41.3294C35.6603 41.4234 35.6801 41.5166 35.7185 41.6035C35.7569 41.6904 35.8133 41.7693 35.8843 41.8359C35.9552 41.9024 36.0395 41.9551 36.1323 41.9911C36.225 42.0271 36.3245 42.0457 36.4249 42.0457C36.5253 42.0457 36.6247 42.0271 36.7174 41.9911C36.8102 41.9551 36.8945 41.9024 36.9655 41.8359C37.0365 41.7693 37.0928 41.6904 37.1312 41.6035C37.1696 41.5166 37.1894 41.4234 37.1894 41.3294Z" fill="#263238"/>
<path d="M39.1292 40.5442C39.1283 40.5085 39.1353 40.4729 39.1495 40.4397C39.1637 40.4065 39.185 40.3764 39.212 40.3511C39.239 40.3258 39.2711 40.3059 39.3066 40.2925C39.342 40.2792 39.38 40.2727 39.4181 40.2735C39.456 40.2727 39.4937 40.2792 39.5288 40.2926C39.5639 40.306 39.5957 40.326 39.6223 40.3514C39.6488 40.3767 39.6695 40.407 39.683 40.4401C39.6966 40.4733 39.7027 40.5087 39.7011 40.5442C39.7027 40.58 39.6966 40.6157 39.6831 40.6491C39.6696 40.6826 39.649 40.7132 39.6226 40.739C39.5961 40.7648 39.5644 40.7854 39.5293 40.7994C39.4941 40.8134 39.4563 40.8206 39.4181 40.8206C39.3797 40.8206 39.3416 40.8134 39.3061 40.7995C39.2707 40.7855 39.2385 40.765 39.2116 40.7393C39.1847 40.7136 39.1636 40.6831 39.1494 40.6496C39.1352 40.6161 39.1284 40.5802 39.1292 40.5442ZM39.1292 42.1629C39.1284 42.1269 39.1352 42.0911 39.1494 42.0576C39.1636 42.0241 39.1847 41.9936 39.2116 41.9678C39.2385 41.9421 39.2707 41.9216 39.3061 41.9077C39.3416 41.8937 39.3797 41.8865 39.4181 41.8865C39.498 41.8865 39.5745 41.9163 39.631 41.9691C39.6874 42.022 39.7191 42.0938 39.7191 42.1685C39.7191 42.2433 39.6874 42.3151 39.631 42.3679C39.5745 42.4208 39.498 42.4505 39.4181 42.4505C39.376 42.452 39.3342 42.4446 39.2955 42.4289C39.2569 42.4132 39.2225 42.3897 39.1948 42.3599C39.1671 42.3302 39.1468 42.2951 39.1355 42.2571C39.1241 42.2191 39.122 42.1792 39.1292 42.1403V42.1629Z" fill="#263238"/>
<path d="M33.4225 50.4194C33.4231 50.2282 33.465 50.039 33.5458 49.8633C33.6266 49.6877 33.7445 49.5292 33.8925 49.3974C34.0404 49.2656 34.2154 49.1633 34.4067 49.0966C34.5981 49.0299 34.8018 49.0003 35.0058 49.0094C35.2175 49.0013 35.4287 49.0359 35.625 49.1108C35.8213 49.1857 35.9981 49.2993 36.1435 49.4437L35.8666 49.6975C35.7593 49.5893 35.6287 49.5037 35.4834 49.4463C35.3381 49.389 35.1814 49.3612 35.0238 49.3648C34.8336 49.3657 34.6465 49.4109 34.4795 49.4962C34.3124 49.5815 34.1706 49.7044 34.0667 49.8537C33.9627 50.003 33.9 50.1742 33.8841 50.3518C33.8682 50.5295 33.8995 50.708 33.9754 50.8715C34.0513 51.035 34.1693 51.1783 34.3188 51.2885C34.4683 51.3988 34.6447 51.4725 34.8321 51.5032C35.0196 51.5338 35.2122 51.5204 35.3927 51.4642C35.5733 51.4079 35.7361 51.3106 35.8666 51.1808L36.1435 51.4346C35.9975 51.5802 35.8198 51.6949 35.6225 51.7707C35.4252 51.8466 35.2129 51.882 34.9997 51.8746C34.7922 51.8832 34.585 51.8516 34.3911 51.7818C34.1972 51.712 34.0207 51.6055 33.8727 51.469C33.7247 51.3324 33.6083 51.1687 33.5308 50.9882C33.4534 50.8076 33.4165 50.614 33.4225 50.4194Z" fill="#263238"/>
<path d="M36.3835 50.7569C36.3798 50.6099 36.4089 50.4638 36.4687 50.3279C36.5286 50.1919 36.618 50.0691 36.7312 49.9673C36.8444 49.8655 36.979 49.7868 37.1264 49.7363C37.2739 49.6858 37.4309 49.6646 37.5875 49.6741C37.7743 49.6627 37.9608 49.6999 38.1265 49.7815C38.2922 49.8631 38.4307 49.986 38.5266 50.1365L38.2136 50.3283C38.1491 50.2338 38.06 50.1562 37.9547 50.1029C37.8494 50.0496 37.7313 50.0224 37.6116 50.0237C37.412 50.04 37.2262 50.1258 37.0908 50.2641C36.9554 50.4025 36.8803 50.5833 36.8803 50.771C36.8803 50.9587 36.9554 51.1396 37.0908 51.278C37.2262 51.4163 37.412 51.5021 37.6116 51.5183C37.7313 51.5197 37.8494 51.4924 37.9547 51.4391C38.06 51.3858 38.1491 51.3083 38.2136 51.2138L38.5266 51.3943C38.4318 51.5416 38.296 51.6619 38.1337 51.7424C37.9715 51.8229 37.7889 51.8604 37.6056 51.8511C37.4464 51.8631 37.2864 51.8435 37.136 51.7934C36.9855 51.7434 36.8481 51.6641 36.7326 51.5608C36.6172 51.4574 36.5264 51.3324 36.4663 51.1938C36.4061 51.0553 36.3779 50.9064 36.3835 50.7569Z" fill="#263238"/>
<path d="M39.9924 49.9448C39.9936 49.8915 40.0116 49.8397 40.044 49.7959C40.0765 49.7522 40.122 49.7183 40.1749 49.6987C40.2278 49.6791 40.2857 49.6745 40.3414 49.6856C40.397 49.6967 40.448 49.7229 40.4878 49.761C40.5276 49.799 40.5545 49.8473 40.5652 49.8996C40.5758 49.952 40.5698 50.0061 40.5477 50.0553C40.5257 50.1044 40.4887 50.1464 40.4413 50.1759C40.3939 50.2054 40.3383 50.2211 40.2814 50.2211C40.243 50.2211 40.2049 50.214 40.1694 50.2C40.134 50.186 40.1018 50.1656 40.0749 50.1399C40.048 50.1141 40.0269 50.0836 40.0127 50.0501C39.9985 50.0166 39.9916 49.9808 39.9924 49.9448ZM39.9924 51.5578C39.9936 51.5045 40.0116 51.4527 40.044 51.409C40.0765 51.3652 40.122 51.3314 40.1749 51.3118C40.2278 51.2921 40.2857 51.2876 40.3414 51.2986C40.397 51.3097 40.448 51.3359 40.4878 51.374C40.5276 51.4121 40.5545 51.4603 40.5652 51.5127C40.5758 51.565 40.5698 51.6192 40.5477 51.6683C40.5257 51.7174 40.4887 51.7594 40.4413 51.7889C40.3939 51.8184 40.3383 51.8342 40.2814 51.8342C40.2427 51.835 40.2043 51.8283 40.1684 51.8147C40.1326 51.801 40.1001 51.7806 40.073 51.7547C40.0459 51.7287 40.0248 51.6979 40.0109 51.6641C39.9971 51.6302 39.9908 51.594 39.9924 51.5578Z" fill="#263238"/>
<path d="M32.9688 61.039L33.1253 60.7232C33.4027 60.9381 33.7525 61.054 34.1125 61.0503C34.6303 61.0503 34.853 60.8585 34.853 60.616C34.853 59.9336 33.047 60.3622 33.047 59.3244C33.047 58.8902 33.4022 58.5236 34.1908 58.5236C34.5304 58.5198 34.8642 58.6058 35.154 58.7717L35.0095 59.0932C34.7658 58.9445 34.4817 58.8642 34.1908 58.862C33.6851 58.862 33.4624 59.065 33.4624 59.3075C33.4624 59.99 35.2684 59.5613 35.2684 60.5934C35.2684 61.0221 34.9012 61.3887 34.1125 61.3887C33.6998 61.398 33.2961 61.2746 32.9688 61.039Z" fill="#263238"/>
<path d="M37.9259 59.2391V61.3598H37.5346V61.0439C37.4466 61.1552 37.331 61.2447 37.1978 61.3046C37.0645 61.3646 36.9177 61.3932 36.77 61.388C36.6376 61.4006 36.5038 61.3852 36.3786 61.343C36.2533 61.3008 36.1397 61.2329 36.0462 61.1441C35.9526 61.0554 35.8815 60.9482 35.838 60.8303C35.7945 60.7124 35.7797 60.5869 35.7948 60.463V59.2391H36.2042V60.4179C36.2042 60.8353 36.4269 61.0439 36.8062 61.0439C36.904 61.0488 37.0017 61.0335 37.0925 60.9991C37.1833 60.9646 37.2649 60.9119 37.3315 60.8446C37.3981 60.7774 37.4482 60.6972 37.4781 60.6098C37.5079 60.5224 37.517 60.43 37.5045 60.3389V59.2109L37.9259 59.2391Z" fill="#263238"/>
<path d="M41.0666 60.2891C41.0741 60.4325 41.0499 60.5758 40.9953 60.71C40.9408 60.8441 40.8571 60.9662 40.7496 61.0685C40.6421 61.1708 40.5131 61.2511 40.3708 61.3043C40.2285 61.3575 40.0759 61.3825 39.9227 61.3777C39.7671 61.3835 39.6122 61.3537 39.4717 61.2908C39.3311 61.2279 39.209 61.1338 39.1161 61.0167V61.3494H38.7188V58.3828H39.1281V59.5503C39.2234 59.4399 39.3448 59.3519 39.4828 59.2932C39.6207 59.2344 39.7713 59.2066 39.9227 59.2119C40.0753 59.2054 40.2276 59.2289 40.3699 59.2808C40.5122 59.3327 40.6414 59.412 40.7491 59.5134C40.8568 59.6148 40.9407 59.7362 40.9953 59.8698C41.05 60.0034 41.0743 60.1462 41.0666 60.2891ZM40.6512 60.2891C40.6441 60.1491 40.5933 60.0141 40.5051 59.9008C40.4169 59.7876 40.2952 59.701 40.155 59.652C40.0149 59.6029 39.8624 59.5935 39.7166 59.6248C39.5707 59.6562 39.4379 59.7269 39.3345 59.8283C39.2312 59.9297 39.1619 60.0573 39.1352 60.1952C39.1085 60.3332 39.1256 60.4754 39.1844 60.6043C39.2432 60.7333 39.341 60.8432 39.4659 60.9205C39.5907 60.9978 39.737 61.0391 39.8866 61.0393C39.9909 61.0419 40.0946 61.024 40.191 60.9868C40.2875 60.9495 40.3745 60.8938 40.4466 60.8231C40.5186 60.7525 40.574 60.6684 40.6093 60.5764C40.6445 60.4845 40.6588 60.3866 40.6512 60.2891Z" fill="#263238"/>
<path d="M40.8516 62.0307L40.984 61.7318C41.0785 61.8005 41.1955 61.8363 41.3151 61.8333C41.5318 61.8333 41.6522 61.7036 41.6522 61.4611V59.2051H42.0616V61.4216C42.0735 61.5144 42.0632 61.6086 42.0316 61.6972C41.9999 61.7859 41.9476 61.8669 41.8785 61.9343C41.8094 62.0018 41.7252 62.054 41.6319 62.0873C41.5387 62.1205 41.4387 62.1339 41.3392 62.1266C41.17 62.1429 40.9995 62.1094 40.8516 62.0307ZM41.58 58.5903C41.58 58.5565 41.5872 58.523 41.6012 58.4919C41.6152 58.4607 41.6356 58.4325 41.6614 58.4088C41.6872 58.3852 41.7178 58.3666 41.7514 58.3542C41.7849 58.3418 41.8208 58.3358 41.8569 58.3365C41.8937 58.3342 41.9306 58.339 41.9653 58.3508C41.9999 58.3625 42.0316 58.381 42.0582 58.4048C42.0849 58.4287 42.1059 58.4576 42.1199 58.4895C42.134 58.5215 42.1408 58.5558 42.1398 58.5903C42.1398 58.6591 42.1107 58.7251 42.0587 58.7738C42.0068 58.8224 41.9364 58.8498 41.8629 58.8498C41.7895 58.8498 41.719 58.8224 41.6671 58.7738C41.6152 58.7251 41.586 58.6591 41.586 58.5903H41.58Z" fill="#263238"/>
<path d="M44.8838 60.4261H43.0778C43.1049 60.6086 43.2053 60.7745 43.3586 60.8898C43.512 61.0052 43.7066 61.0612 43.9026 61.0465C44.024 61.0503 44.1449 61.0296 44.2571 60.9858C44.3692 60.942 44.4701 60.8762 44.5527 60.7927L44.7815 61.0409C44.6675 61.1556 44.5282 61.2458 44.3733 61.3052C44.2185 61.3646 44.0517 61.3918 43.8845 61.3849C43.7276 61.3935 43.5704 61.3716 43.423 61.3204C43.2756 61.2693 43.141 61.1901 43.0279 61.0878C42.9148 60.9856 42.8255 60.8624 42.7657 60.7262C42.7059 60.59 42.6769 60.4436 42.6805 60.2964C42.6747 60.1544 42.7 60.0128 42.755 59.8804C42.8099 59.748 42.8933 59.6276 43 59.5266C43.1067 59.4256 43.2343 59.3462 43.3751 59.2933C43.5158 59.2404 43.6667 59.2152 43.8183 59.2192C43.9645 59.2205 44.1089 59.2495 44.243 59.3042C44.377 59.359 44.4979 59.4385 44.5984 59.538C44.699 59.6374 44.7771 59.7549 44.8282 59.8832C44.8793 60.0116 44.9023 60.1483 44.8959 60.2851C44.8961 60.3323 44.8921 60.3795 44.8838 60.4261ZM43.0778 60.1498H44.5347C44.5119 59.9839 44.4253 59.8314 44.2913 59.721C44.1572 59.6105 43.9848 59.5496 43.8062 59.5496C43.6277 59.5496 43.4553 59.6105 43.3212 59.721C43.1872 59.8314 43.1006 59.9839 43.0778 60.1498Z" fill="#263238"/>
<path d="M45.2503 60.2825C45.2475 60.136 45.2771 59.9905 45.3374 59.8552C45.3976 59.72 45.4871 59.5979 45.6002 59.4966C45.7134 59.3954 45.8477 59.3173 45.9947 59.2671C46.1417 59.217 46.2982 59.1959 46.4543 59.2053C46.6371 59.1948 46.8196 59.2312 46.9819 59.3107C47.1442 59.3903 47.2803 59.5098 47.3754 59.6565L47.0623 59.8426C46.9979 59.7481 46.9088 59.6705 46.8034 59.6173C46.6981 59.564 46.58 59.5367 46.4603 59.5381C46.2607 59.5543 46.0749 59.6401 45.9395 59.7784C45.8041 59.9168 45.729 60.0977 45.729 60.2854C45.729 60.4731 45.8041 60.6539 45.9395 60.7923C46.0749 60.9306 46.2607 61.0164 46.4603 61.0327C46.58 61.034 46.6981 61.0067 46.8034 60.9535C46.9088 60.9002 46.9979 60.8226 47.0623 60.7281L47.3754 60.9142C47.2796 61.0607 47.1436 61.1803 46.9815 61.2607C46.8195 61.3411 46.6374 61.3792 46.4543 61.3711C46.2974 61.3797 46.1402 61.3577 45.9928 61.3066C45.8453 61.2555 45.7108 61.1762 45.5977 61.074C45.4846 60.9717 45.3953 60.8486 45.3355 60.7124C45.2757 60.5761 45.2467 60.4298 45.2503 60.2825Z" fill="#263238"/>
<path d="M49.1969 61.2325C49.0561 61.3353 48.8816 61.3891 48.7032 61.3848C48.6067 61.3953 48.5088 61.3855 48.4169 61.3559C48.3249 61.3264 48.2412 61.2779 48.1719 61.2141C48.1026 61.1502 48.0495 61.0726 48.0164 60.987C47.9833 60.9013 47.9712 60.8099 47.9808 60.7192V59.5518H47.6016V59.2359H47.9808V58.7734H48.3902V59.2359H49.0403V59.5518H48.3902V60.6798C48.3839 60.7259 48.3885 60.7727 48.4038 60.817C48.4191 60.8612 48.4446 60.9018 48.4785 60.9357C48.5124 60.9697 48.554 60.9962 48.6001 61.0134C48.6462 61.0305 48.6958 61.0379 48.7454 61.0351C48.8629 61.0368 48.9775 61.001 49.0704 60.9336L49.1969 61.2325Z" fill="#263238"/>
<path d="M50.6485 59.4929C50.6485 59.4181 50.6802 59.3464 50.7367 59.2935C50.7931 59.2407 50.8697 59.2109 50.9495 59.2109C51.0293 59.2109 51.1059 59.2407 51.1623 59.2935C51.2188 59.3464 51.2505 59.4181 51.2505 59.4929C51.2505 59.5677 51.2188 59.6395 51.1623 59.6923C51.1059 59.7452 51.0293 59.7749 50.9495 59.7749C50.8697 59.7749 50.7931 59.7452 50.7367 59.6923C50.6802 59.6395 50.6485 59.5677 50.6485 59.4929ZM50.6485 61.1116C50.6497 61.0583 50.6676 61.0066 50.7001 60.9628C50.7326 60.919 50.7781 60.8852 50.831 60.8656C50.8839 60.8459 50.9418 60.8414 50.9974 60.8524C51.0531 60.8635 51.104 60.8897 51.1438 60.9278C51.1836 60.9659 51.2106 61.0141 51.2212 61.0665C51.2319 61.1188 51.2258 61.173 51.2038 61.2221C51.1818 61.2713 51.1447 61.3132 51.0974 61.3427C51.05 61.3722 50.9944 61.388 50.9375 61.388C50.899 61.388 50.8609 61.3808 50.8255 61.3668C50.79 61.3529 50.7579 61.3324 50.731 61.3067C50.7041 61.281 50.6829 61.2505 50.6687 61.217C50.6546 61.1835 50.6477 61.1476 50.6485 61.1116Z" fill="#263238"/>
<path d="M88.1249 41.8888C88.1249 41.9678 78.5411 42.0355 66.7178 42.0355C54.8945 42.0355 45.3047 41.9678 45.3047 41.8888C45.3047 41.8099 54.8885 41.7422 66.7178 41.7422C78.5471 41.7422 88.1249 41.8099 88.1249 41.8888Z" fill="#263238"/>
<path d="M107.244 51.0451C107.244 51.124 93.3985 51.1917 76.2776 51.1917C59.1567 51.1917 45.3047 51.124 45.3047 51.0451C45.3047 50.9661 59.1507 50.8984 76.2776 50.8984C93.4045 50.8984 107.244 50.9605 107.244 51.0451Z" fill="#263238"/>
<path d="M84.3506 60.1215C84.2587 60.1458 84.163 60.1554 84.0676 60.1497H83.2489L80.2389 60.1948C77.7045 60.1948 74.2189 60.2399 70.3541 60.2399C66.4892 60.2399 62.9976 60.2399 60.4632 60.1948L57.4532 60.1497H56.6345C56.5392 60.1561 56.4433 60.1465 56.3516 60.1215C56.4451 60.1059 56.5409 60.1059 56.6345 60.1215H57.4532L60.4632 60.0764C62.9976 60.0764 66.4832 60.0313 70.3541 60.0313C74.2249 60.0313 77.7045 60.0312 80.2389 60.0764L83.2489 60.1215H84.0676C84.1613 60.1065 84.2569 60.1065 84.3506 60.1215Z" fill="#263238"/>
<path d="M189.632 65.0607C189.632 65.1397 153.651 65.2073 109.277 65.2073C64.9041 65.2073 28.8984 65.1397 28.8984 65.0607C28.8984 64.9817 64.8679 64.9141 109.253 64.9141C153.639 64.9141 189.632 64.9817 189.632 65.0607Z" fill="#E0E0E0"/>
<path d="M189.629 55.1623C189.629 55.2412 153.636 55.3089 109.244 55.3089C64.853 55.3089 28.8594 55.2412 28.8594 55.1623C28.8594 55.0833 64.8409 55.0156 109.244 55.0156C153.648 55.0156 189.629 55.0777 189.629 55.1623Z" fill="#E0E0E0"/>
<path d="M189.632 46.4591C189.632 46.5437 153.651 46.6058 109.277 46.6058C64.9041 46.6058 28.8984 46.5437 28.8984 46.4591C28.8984 46.3745 64.8679 46.3125 109.253 46.3125C153.639 46.3125 189.632 46.3802 189.632 46.4591Z" fill="#E0E0E0"/>
<path d="M48.8211 77.148C47.1262 77.2932 45.4234 77.3422 43.7221 77.2947C42.0189 77.3423 40.3141 77.2933 38.6172 77.148C40.3137 76.9956 42.0188 76.9447 43.7221 76.9957C45.4235 76.9448 47.1266 76.9956 48.8211 77.148Z" fill="#263238"/>
<path d="M82.3826 84.3029C82.3826 84.3818 72.588 84.4495 60.4999 84.4495C48.4117 84.4495 38.6172 84.3818 38.6172 84.3029C38.6172 84.2239 48.4117 84.1562 60.4999 84.1562C72.588 84.1562 82.3826 84.2239 82.3826 84.3029Z" fill="#263238"/>
<path d="M28.8999 26.2369L191.301 26.1016H191.44V26.2369C191.44 57.6517 191.44 92.6367 191.44 129.449V129.607H191.283L28.8999 129.567H28.7734V129.449C28.8517 66.608 28.8999 27.2014 28.8999 26.2369C28.8999 27.2014 28.948 66.608 29.0263 129.449L28.8999 129.33H191.301L191.145 129.477C191.145 92.6761 191.145 57.6912 191.145 26.2651L191.289 26.4005L28.8999 26.2369Z" fill="#263238"/>
<path d="M121.186 108.844H200.289C200.972 108.844 201.627 109.098 202.111 109.551C202.594 110.003 202.865 110.617 202.865 111.258V157.376C202.865 158.788 202.267 160.142 201.201 161.141C200.135 162.139 198.69 162.7 197.182 162.7H124.292C122.785 162.7 121.34 162.139 120.274 161.141C119.208 160.142 118.609 158.788 118.609 157.376V111.258C118.609 110.617 118.881 110.003 119.364 109.551C119.847 109.098 120.503 108.844 121.186 108.844Z" fill="#4F18A2"/>
<path d="M197.186 162.701H197.367C197.487 162.701 197.662 162.701 197.897 162.656C198.586 162.567 199.253 162.363 199.865 162.053C200.863 161.535 201.673 160.75 202.189 159.797C202.519 159.198 202.724 158.545 202.791 157.873C202.839 157.157 202.791 156.379 202.791 155.561C202.791 149.002 202.761 139.527 202.743 127.812C202.743 124.887 202.743 121.823 202.743 118.619C202.743 117.021 202.743 115.391 202.743 113.729V111.219C202.733 110.811 202.609 110.412 202.381 110.063C202.154 109.714 201.832 109.428 201.448 109.234C201.056 109.045 200.619 108.952 200.178 108.963H190.167H178.091H124.308H121.605C121.318 108.949 121.029 108.96 120.744 108.997C120.192 109.088 119.691 109.356 119.327 109.755C118.964 110.155 118.76 110.661 118.752 111.186C118.752 113.391 118.752 115.585 118.752 117.762V130.615C118.752 139.047 118.752 147.174 118.752 154.924C118.752 155.883 118.752 156.864 118.752 157.795C118.839 158.716 119.187 159.6 119.76 160.354C120.332 161.108 121.108 161.706 122.009 162.087C122.901 162.444 123.87 162.601 124.838 162.543H136.234H156.702L186.314 162.589H194.369L186.314 162.617L156.702 162.662H136.234H124.868C123.861 162.721 122.853 162.558 121.924 162.188C120.976 161.79 120.158 161.162 119.556 160.369C118.953 159.576 118.589 158.646 118.499 157.676C118.445 156.7 118.499 155.753 118.469 154.783C118.469 147.033 118.469 138.906 118.469 130.474C118.469 126.263 118.469 121.979 118.469 117.621C118.469 115.444 118.469 113.25 118.469 111.039C118.479 110.446 118.709 109.875 119.12 109.424C119.531 108.973 120.097 108.671 120.72 108.569C121.023 108.528 121.33 108.515 121.635 108.529H124.314H178.097H200.184C200.669 108.515 201.15 108.618 201.581 108.828C202.003 109.044 202.356 109.361 202.606 109.746C202.855 110.131 202.992 110.572 203.002 111.022V113.537C203.002 115.203 203.002 116.833 203.002 118.427C203.002 121.623 203.002 124.688 203.002 127.621C203.002 139.335 202.959 148.81 202.947 155.369C202.947 156.193 202.947 156.96 202.947 157.693C202.884 158.374 202.679 159.037 202.345 159.644C201.812 160.603 200.984 161.389 199.968 161.9C199.347 162.204 198.671 162.396 197.975 162.464C197.717 162.558 197.454 162.637 197.186 162.701Z" fill="#263238"/>
<path d="M168.04 162.703H153.405C153.405 162.703 148.908 169.736 153.405 173.983H168.563C168.563 173.983 161.08 169.375 168.04 162.703Z" fill="#4F18A2"/>
<g opacity="0.3">
<path d="M153.405 162.703L152.664 164.096L166.077 165.078C166.688 164.256 167.343 163.463 168.039 162.703H153.405Z" fill="black"/>
</g>
<path d="M162.537 159.027C163.454 159.027 164.198 158.33 164.198 157.471C164.198 156.611 163.454 155.914 162.537 155.914C161.619 155.914 160.875 156.611 160.875 157.471C160.875 158.33 161.619 159.027 162.537 159.027Z" fill="#FAFAFA"/>
<path d="M198.833 111.812H122.656V152.889H198.833V111.812Z" fill="#FAFAFA"/>
<path d="M198.828 152.884C198.828 152.884 198.828 152.63 198.828 152.145C198.828 151.66 198.828 150.933 198.828 149.991C198.828 148.101 198.828 145.332 198.798 141.773C198.798 134.656 198.762 124.402 198.732 111.814L198.852 111.927L122.681 111.96L122.838 111.814C122.838 126.348 122.838 140.234 122.838 152.884L122.687 152.749L177.469 152.817L193.205 152.85H197.419H198.503H198.876H198.521H197.456H193.29L177.583 152.89L122.699 152.952H122.555V152.811C122.555 140.16 122.555 126.275 122.555 111.74V111.594H122.717L198.888 111.628H199.009V111.74C199.009 124.357 198.961 134.639 198.948 141.768C198.948 145.315 198.948 148.079 198.918 149.963C198.918 150.891 198.918 151.602 198.918 152.095C198.84 152.647 198.828 152.884 198.828 152.884Z" fill="#263238"/>
<path d="M141.435 115.289H123.508V151.881H141.435V115.289Z" fill="#4F18A2"/>
<g opacity="0.4">
<path d="M141.429 129.141H123.508V132.417H141.429V129.141Z" fill="black"/>
</g>
<g opacity="0.4">
<path d="M141.429 135.82H123.508V139.097H141.429V135.82Z" fill="black"/>
</g>
<g opacity="0.4">
<path d="M141.429 143.812H123.508V147.433H141.429V143.812Z" fill="black"/>
</g>
<path d="M138.317 134.125C136.401 134.271 134.478 134.319 132.556 134.272C130.632 134.319 128.707 134.27 126.789 134.125C128.707 133.98 130.632 133.931 132.556 133.979C134.478 133.931 136.401 133.98 138.317 134.125Z" fill="#263238"/>
<path d="M138.317 130.711C136.401 130.856 134.478 130.905 132.556 130.858C130.632 130.905 128.707 130.856 126.789 130.711C128.707 130.566 130.632 130.517 132.556 130.564C134.478 130.517 136.401 130.566 138.317 130.711Z" fill="#263238"/>
<path d="M141.437 147.436C141.437 147.515 137.464 147.582 132.557 147.582C127.651 147.582 123.672 147.515 123.672 147.436C123.672 147.357 127.651 147.289 132.557 147.289C137.464 147.289 141.437 147.357 141.437 147.436Z" fill="#263238"/>
<path d="M135.59 137.578C134.129 137.723 132.658 137.772 131.19 137.725C129.721 137.772 128.25 137.723 126.789 137.578C128.25 137.433 129.721 137.384 131.19 137.432C132.658 137.384 134.129 137.433 135.59 137.578Z" fill="#263238"/>
<path d="M136.832 145.227C135.371 145.375 133.901 145.424 132.432 145.373C130.963 145.424 129.492 145.375 128.031 145.227C129.493 145.082 130.963 145.033 132.432 145.08C133.901 145.033 135.371 145.082 136.832 145.227Z" fill="#263238"/>
<path d="M138.317 141.361C136.401 141.507 134.478 141.556 132.556 141.508C130.632 141.556 128.707 141.507 126.789 141.361C128.707 141.213 130.632 141.164 132.556 141.215C134.478 141.164 136.401 141.213 138.317 141.361Z" fill="#263238"/>
<path d="M138.317 149.578C136.401 149.727 134.478 149.776 132.556 149.725C130.632 149.776 128.707 149.727 126.789 149.578C128.707 149.433 130.632 149.384 132.556 149.432C134.478 149.384 136.401 149.433 138.317 149.578Z" fill="#263238"/>
<path d="M132.229 117.759C131.271 117.761 130.341 118.065 129.589 118.622C128.837 119.179 128.308 119.956 128.085 120.83C127.863 121.703 127.961 122.621 128.363 123.436C128.765 124.251 129.448 124.915 130.303 125.322V124.098C130.303 123.599 130.514 123.12 130.891 122.766C131.268 122.413 131.78 122.215 132.313 122.215C132.846 122.215 133.358 122.413 133.735 122.766C134.112 123.12 134.324 123.599 134.324 124.098V125.226C135.147 124.793 135.793 124.116 136.161 123.302C136.53 122.488 136.6 121.582 136.36 120.727C136.121 119.871 135.586 119.114 134.838 118.574C134.09 118.034 133.173 117.742 132.229 117.742V117.759ZM132.313 121.933C132.016 121.933 131.725 121.85 131.477 121.695C131.23 121.54 131.037 121.32 130.923 121.062C130.809 120.805 130.779 120.521 130.837 120.248C130.895 119.974 131.039 119.723 131.249 119.526C131.459 119.328 131.728 119.194 132.02 119.14C132.312 119.085 132.614 119.113 132.889 119.22C133.164 119.327 133.399 119.507 133.565 119.739C133.73 119.971 133.818 120.244 133.818 120.523C133.818 120.897 133.66 121.255 133.377 121.52C133.095 121.784 132.712 121.933 132.313 121.933Z" fill="#FAFAFA"/>
<path d="M132.315 122.211C131.782 122.211 131.271 122.409 130.894 122.763C130.517 123.116 130.305 123.595 130.305 124.095V125.319C130.93 125.617 131.624 125.766 132.326 125.752C133.028 125.738 133.715 125.562 134.326 125.24V124.112C134.328 123.863 134.277 123.617 134.177 123.386C134.076 123.156 133.929 122.947 133.742 122.77C133.555 122.594 133.333 122.453 133.088 122.357C132.843 122.261 132.581 122.212 132.315 122.211Z" fill="#4F18A2"/>
<path d="M132.317 119.109C132.02 119.109 131.729 119.192 131.481 119.347C131.234 119.502 131.041 119.722 130.927 119.98C130.813 120.237 130.783 120.521 130.841 120.794C130.899 121.068 131.043 121.319 131.253 121.516C131.464 121.714 131.732 121.848 132.024 121.902C132.316 121.957 132.618 121.929 132.893 121.822C133.168 121.715 133.403 121.535 133.569 121.303C133.734 121.071 133.822 120.798 133.822 120.519C133.822 120.145 133.664 119.787 133.382 119.522C133.099 119.258 132.717 119.109 132.317 119.109Z" fill="#4F18A2"/>
<path d="M136.529 121.757C136.493 121.757 136.529 121.402 136.337 120.793C136.08 119.94 135.53 119.19 134.771 118.661C134.256 118.297 133.655 118.054 133.02 117.95C132.293 117.827 131.546 117.888 130.852 118.125C130.085 118.386 129.42 118.858 128.944 119.478C128.424 120.138 128.143 120.937 128.143 121.757C128.143 122.577 128.424 123.376 128.944 124.036C129.42 124.656 130.085 125.128 130.852 125.389C131.545 125.626 132.293 125.688 133.02 125.57C133.655 125.461 134.255 125.216 134.771 124.853C135.53 124.324 136.08 123.574 136.337 122.721C136.511 122.112 136.493 121.757 136.529 121.757C136.537 121.843 136.537 121.93 136.529 122.016C136.527 122.263 136.494 122.509 136.433 122.75C136.216 123.647 135.67 124.445 134.892 125.006C134.241 125.48 133.46 125.773 132.64 125.852C131.819 125.932 130.992 125.794 130.251 125.454C129.51 125.114 128.886 124.587 128.449 123.931C128.013 123.276 127.781 122.518 127.781 121.746C127.781 120.973 128.013 120.216 128.449 119.56C128.886 118.905 129.51 118.377 130.251 118.037C130.992 117.698 131.819 117.56 132.64 117.639C133.46 117.718 134.241 118.012 134.892 118.486C135.67 119.047 136.216 119.844 136.433 120.742C136.495 120.984 136.527 121.232 136.529 121.481C136.538 121.573 136.538 121.665 136.529 121.757Z" fill="#FAFAFA"/>
<path d="M197.574 127.531H141.438V132.455H197.574V127.531Z" fill="#EBEBEB"/>
<path d="M197.574 115.289H141.438V117.759H197.574V115.289Z" fill="#F5F5F5"/>
<path d="M181.326 116.023H143.418C143.178 116.023 142.984 116.205 142.984 116.43V116.582C142.984 116.806 143.178 116.988 143.418 116.988H181.326C181.565 116.988 181.759 116.806 181.759 116.582V116.43C181.759 116.205 181.565 116.023 181.326 116.023Z" fill="#E0E0E0"/>
<path d="M186.745 116.023H184.223C183.983 116.023 183.789 116.205 183.789 116.43V116.582C183.789 116.806 183.983 116.988 184.223 116.988H186.745C186.984 116.988 187.178 116.806 187.178 116.582V116.43C187.178 116.205 186.984 116.023 186.745 116.023Z" fill="#E0E0E0"/>
<path d="M189.404 115.953H188.977V116.354H189.404V115.953Z" fill="#E0E0E0"/>
<path d="M189.404 116.484H188.977V116.885H189.404V116.484Z" fill="#E0E0E0"/>
<path d="M190.068 115.953H189.641V116.354H190.068V115.953Z" fill="#E0E0E0"/>
<path d="M190.068 116.484H189.641V116.885H190.068V116.484Z" fill="#E0E0E0"/>
<path d="M197.574 117.758H141.438V122.682H197.574V117.758Z" fill="#E0E0E0"/>
<path d="M144.574 119.367H142.984V120.856H144.574V119.367Z" fill="#4F18A2"/>
<path d="M169.163 120.1C169.163 120.179 164.01 120.246 157.653 120.246C151.296 120.246 146.148 120.179 146.148 120.1C146.148 120.021 151.302 119.953 157.653 119.953C164.004 119.953 169.163 120.015 169.163 120.1Z" fill="#263238"/>
<path d="M190.837 120.071C190.421 120.213 189.976 120.263 189.536 120.218C189.099 120.264 188.656 120.213 188.242 120.071C188.655 119.926 189.099 119.875 189.536 119.925C189.976 119.876 190.422 119.926 190.837 120.071Z" fill="#263238"/>
<path d="M197.574 132.406H141.438V137.33H197.574V132.406Z" fill="#FAFAFA"/>
<path d="M144.381 134.016H142.773V135.505H144.381V134.016Z" fill="#4F18A2"/>
<path d="M169.159 134.733C169.159 134.817 163.958 134.879 157.54 134.879C151.123 134.879 145.922 134.817 145.922 134.733C145.922 134.648 151.123 134.586 157.54 134.586C163.958 134.586 169.159 134.676 169.159 134.733Z" fill="#263238"/>
<path d="M191.066 134.735C190.65 134.88 190.202 134.93 189.76 134.881C189.31 134.933 188.854 134.883 188.43 134.735C188.85 134.593 189.298 134.543 189.742 134.588C190.19 134.54 190.643 134.59 191.066 134.735Z" fill="#263238"/>
<path d="M197.574 137.258H141.438V142.182H197.574V137.258Z" fill="#E0E0E0"/>
<path d="M144.381 138.867H142.773V140.356H144.381V138.867Z" fill="#4F18A2"/>
<path d="M169.159 139.608C169.159 139.692 163.958 139.754 157.54 139.754C151.123 139.754 145.922 139.692 145.922 139.608C145.922 139.523 151.123 139.461 157.54 139.461C163.958 139.461 169.159 139.529 169.159 139.608Z" fill="#263238"/>
<path d="M191.064 139.569C190.646 139.711 190.199 139.762 189.758 139.716C189.314 139.761 188.865 139.711 188.445 139.569C188.865 139.427 189.314 139.377 189.758 139.423C190.199 139.377 190.646 139.427 191.064 139.569Z" fill="#263238"/>
<path d="M197.574 142.109H141.438V147.033H197.574V142.109Z" fill="#FAFAFA"/>
<path d="M144.381 143.719H142.773V145.208H144.381V143.719Z" fill="#4F18A2"/>
<path d="M169.159 144.459C169.159 144.538 163.958 144.606 157.54 144.606C151.123 144.606 145.922 144.538 145.922 144.459C145.922 144.38 151.123 144.312 157.54 144.312C163.958 144.312 169.159 144.375 169.159 144.459Z" fill="#263238"/>
<path d="M191.064 144.415C190.646 144.557 190.199 144.607 189.758 144.562C189.314 144.607 188.865 144.557 188.445 144.415C188.864 144.27 189.314 144.22 189.758 144.268C190.199 144.219 190.647 144.269 191.064 144.415Z" fill="#263238"/>
<path d="M197.574 146.961H141.438V151.885H197.574V146.961Z" fill="#EBEBEB"/>
<path d="M144.381 148.562H142.773V150.051H144.381V148.562Z" fill="#4F18A2"/>
<path d="M169.159 149.303C169.159 149.382 163.958 149.45 157.54 149.45C151.123 149.45 145.922 149.382 145.922 149.303C145.922 149.224 151.123 149.156 157.54 149.156C163.958 149.156 169.159 149.218 169.159 149.303Z" fill="#263238"/>
<path d="M191.064 149.265C190.647 149.41 190.199 149.46 189.758 149.411C189.314 149.46 188.864 149.41 188.445 149.265C188.865 149.123 189.314 149.073 189.758 149.118C190.199 149.072 190.646 149.122 191.064 149.265Z" fill="#263238"/>
<path d="M197.572 122.609H141.43V127.533H197.572V122.609Z" fill="#FAFAFA"/>
<path d="M144.574 124.219H142.984V125.708H144.574V124.219Z" fill="#4F18A2"/>
<path d="M159.289 124.959C159.289 125.044 156.339 125.106 152.703 125.106C149.067 125.106 146.117 125.044 146.117 124.959C146.117 124.875 149.067 124.812 152.703 124.812C156.339 124.812 159.289 124.88 159.289 124.959Z" fill="#263238"/>
<path d="M190.837 125.102C190.421 125.244 189.976 125.295 189.536 125.249C189.099 125.295 188.656 125.245 188.242 125.102C188.655 124.957 189.099 124.907 189.536 124.956C189.976 124.907 190.422 124.957 190.837 125.102Z" fill="#263238"/>
<path d="M190.837 129.884C190.421 130.026 189.976 130.076 189.536 130.03C189.099 130.076 188.656 130.026 188.242 129.884C188.655 129.738 189.099 129.688 189.536 129.737C189.976 129.688 190.422 129.739 190.837 129.884Z" fill="#263238"/>
<path d="M144.574 129.141H142.984V130.63H144.574V129.141Z" fill="#4F18A2"/>
<path d="M177.849 129.873C177.849 129.952 170.745 130.02 161.986 130.02C153.227 130.02 146.117 129.952 146.117 129.873C146.117 129.794 153.221 129.727 161.986 129.727C170.751 129.727 177.849 129.789 177.849 129.873Z" fill="#263238"/>
<path d="M126.004 114.076C126.004 114.194 125.954 114.308 125.865 114.391C125.776 114.475 125.655 114.522 125.528 114.522C125.466 114.523 125.403 114.512 125.345 114.489C125.286 114.467 125.233 114.435 125.188 114.393C125.143 114.352 125.108 114.302 125.084 114.248C125.059 114.194 125.047 114.135 125.047 114.076C125.047 114.017 125.059 113.958 125.084 113.904C125.108 113.849 125.143 113.799 125.188 113.757C125.233 113.715 125.286 113.682 125.344 113.659C125.403 113.637 125.465 113.625 125.528 113.625C125.591 113.625 125.654 113.637 125.712 113.659C125.77 113.682 125.823 113.716 125.867 113.757C125.911 113.799 125.946 113.849 125.97 113.904C125.993 113.959 126.005 114.017 126.004 114.076Z" fill="#263238"/>
<path d="M127.877 114.076C127.877 114.196 127.827 114.311 127.736 114.395C127.646 114.48 127.523 114.527 127.396 114.527C127.268 114.527 127.145 114.48 127.055 114.395C126.965 114.311 126.914 114.196 126.914 114.076C126.914 113.957 126.965 113.842 127.055 113.757C127.145 113.673 127.268 113.625 127.396 113.625C127.523 113.625 127.646 113.673 127.736 113.757C127.827 113.842 127.877 113.957 127.877 114.076Z" fill="#263238"/>
<path d="M129.746 114.076C129.746 114.135 129.734 114.194 129.71 114.248C129.685 114.302 129.65 114.352 129.605 114.393C129.56 114.435 129.507 114.467 129.449 114.489C129.39 114.512 129.328 114.523 129.265 114.522C129.139 114.522 129.018 114.475 128.928 114.391C128.839 114.308 128.789 114.194 128.789 114.076C128.788 114.017 128.8 113.959 128.824 113.904C128.847 113.849 128.882 113.799 128.926 113.757C128.97 113.716 129.023 113.682 129.081 113.659C129.139 113.637 129.202 113.625 129.265 113.625C129.328 113.625 129.391 113.637 129.449 113.659C129.507 113.682 129.561 113.715 129.605 113.757C129.65 113.799 129.685 113.849 129.71 113.904C129.734 113.958 129.746 114.017 129.746 114.076Z" fill="#263238"/>
<path d="M197.574 151.876C197.574 150.974 197.574 136.738 197.508 112.813L197.574 112.881H123.528L123.625 112.796C123.625 126.609 123.625 139.823 123.625 151.859L123.534 151.774L197.58 151.859L123.534 151.944H123.414V151.859C123.414 139.823 123.414 126.609 123.414 112.796V112.734H123.51H197.556H197.629V112.802C197.605 136.738 197.58 150.979 197.574 151.876Z" fill="#263238"/>
<path d="M233.779 263.809H229.252L219.156 178.859H225.092L233.779 263.809Z" fill="#455A64"/>
<path d="M205.154 263.809H200.627L190.453 178.859H196.395L205.154 263.809Z" fill="#455A64"/>
<path d="M235.172 178.86H112.28H75.5938V173.953H235.172V178.86Z" fill="#455A64"/>
<path d="M108.719 263.809H113.246L122.956 178.859H117.014L108.719 263.809Z" fill="#263238"/>
<path d="M69.875 263.809H74.402L84.5698 178.859H78.6281L69.875 263.809Z" fill="#263238"/>
<path d="M124.759 173.953H75.5938V178.86H124.759V173.953Z" fill="#263238"/>
<path d="M181.226 172.484H147.273V173.951H181.226V172.484Z" fill="#263238"/>
<path d="M219.772 244.484L222.98 261.015L201.067 264.862C200.803 262.876 211.356 256.966 211.356 256.966L208.839 246.458L219.772 244.484Z" fill="#4F18A2"/>
<g opacity="0.6">
<path d="M217.925 254.867C218.148 254.889 218.355 254.988 218.505 255.144C218.655 255.3 218.738 255.503 218.738 255.713C218.721 255.923 218.619 256.118 218.454 256.26C218.288 256.401 218.071 256.478 217.847 256.475C217.611 256.448 217.394 256.342 217.236 256.176C217.079 256.009 216.992 255.795 216.992 255.572C217.032 255.354 217.162 255.159 217.353 255.03C217.544 254.9 217.782 254.846 218.016 254.878" fill="white"/>
</g>
<g opacity="0.6">
<path d="M222.982 261.01L222.59 259.352L201.713 263.661C201.713 263.661 200.816 264.225 201.057 264.856L222.982 261.01Z" fill="white"/>
</g>
<path d="M210.971 256.896C210.971 256.998 211.537 256.947 212.133 257.178C212.729 257.41 213.084 257.782 213.174 257.742C213.264 257.703 212.993 257.139 212.271 256.868C211.549 256.598 210.929 256.806 210.971 256.896Z" fill="#263238"/>
<path d="M208.852 258.19C208.852 258.292 209.345 258.382 209.797 258.754C210.248 259.127 210.441 259.544 210.543 259.521C210.646 259.499 210.604 258.924 210.038 258.484C209.472 258.044 208.84 258.094 208.852 258.19Z" fill="#263238"/>
<path d="M208.061 261C208.163 261 208.211 260.481 207.826 259.979C207.441 259.477 206.899 259.347 206.869 259.415C206.839 259.483 207.212 259.748 207.519 260.16C207.826 260.571 207.952 261.011 208.061 261Z" fill="#263238"/>
<path d="M210.699 254.449C210.759 254.528 211.223 254.308 211.837 254.24C212.451 254.172 212.956 254.268 212.992 254.172C213.029 254.077 212.511 253.795 211.788 253.885C211.066 253.975 210.609 254.375 210.699 254.449Z" fill="#263238"/>
<path d="M210.703 251.915C211.083 251.946 211.464 251.877 211.805 251.718C212.187 251.582 212.55 251.404 212.888 251.188C213.087 251.057 213.276 250.914 213.454 250.759C213.565 250.674 213.66 250.573 213.737 250.46C213.8 250.375 213.828 250.271 213.817 250.168C213.806 250.065 213.756 249.969 213.677 249.896C213.61 249.837 213.528 249.792 213.439 249.767C213.351 249.741 213.257 249.736 213.165 249.75C213.026 249.774 212.89 249.816 212.762 249.874C212.539 249.969 212.326 250.083 212.124 250.212C211.785 250.435 211.485 250.705 211.233 251.013C210.818 251.543 210.715 251.949 210.757 251.966C210.799 251.983 210.998 251.633 211.444 251.177C211.702 250.913 211.995 250.682 212.316 250.489C212.508 250.375 212.709 250.277 212.918 250.195C213.141 250.094 213.334 250.06 213.418 250.145C213.502 250.229 213.448 250.195 213.418 250.263C213.363 250.346 213.294 250.42 213.213 250.483C213.039 250.635 212.864 250.776 212.696 250.9C212.385 251.116 212.055 251.305 211.708 251.464C211.364 251.595 211.028 251.746 210.703 251.915Z" fill="#263238"/>
<path d="M210.879 252.048C211.029 251.719 211.061 251.352 210.969 251.004C210.916 250.62 210.789 250.247 210.596 249.905C210.481 249.705 210.346 249.516 210.193 249.341C210.106 249.215 209.986 249.113 209.845 249.043C209.704 248.974 209.545 248.941 209.386 248.946C209.289 248.964 209.2 249.009 209.129 249.074C209.059 249.139 209.01 249.222 208.989 249.312C208.955 249.442 208.941 249.574 208.946 249.707C208.957 249.944 209.003 250.177 209.085 250.401C209.224 250.776 209.459 251.113 209.771 251.382C210.301 251.839 210.777 251.879 210.777 251.845C210.777 251.811 210.391 251.659 209.958 251.207C209.71 250.946 209.527 250.636 209.422 250.299C209.357 250.106 209.322 249.905 209.32 249.702C209.32 249.476 209.362 249.284 209.452 249.296C209.542 249.307 209.783 249.403 209.904 249.561C210.047 249.721 210.176 249.893 210.289 250.074C210.477 250.383 210.618 250.715 210.71 251.061C210.861 251.636 210.819 252.048 210.879 252.048Z" fill="#263238"/>
<path d="M194.214 247.141L197.664 263.632L175.787 267.749C175.498 265.77 185.967 259.707 185.967 259.707L183.3 249.222L194.214 247.141Z" fill="#4F18A2"/>
<g opacity="0.6">
<path d="M192.538 257.552C192.762 257.572 192.969 257.668 193.121 257.822C193.274 257.976 193.36 258.177 193.363 258.387C193.351 258.597 193.253 258.794 193.089 258.938C192.925 259.082 192.709 259.161 192.484 259.16C192.244 259.14 192.02 259.035 191.859 258.866C191.698 258.697 191.612 258.478 191.617 258.251C191.653 258.034 191.778 257.838 191.966 257.707C192.154 257.575 192.39 257.517 192.623 257.546" fill="white"/>
</g>
<g opacity="0.6">
<path d="M197.662 263.637L197.241 261.984L176.43 266.553C176.43 266.553 175.539 267.117 175.785 267.754L197.662 263.637Z" fill="white"/>
</g>
<path d="M185.596 259.672C185.596 259.774 186.162 259.717 186.758 259.943C187.354 260.169 187.721 260.507 187.811 260.473C187.901 260.439 187.619 259.87 186.89 259.61C186.162 259.351 185.554 259.588 185.596 259.672Z" fill="#263238"/>
<path d="M183.485 260.997C183.485 261.099 183.984 261.178 184.436 261.533C184.887 261.888 185.092 262.317 185.194 262.294C185.297 262.272 185.249 261.691 184.677 261.257C184.105 260.822 183.467 260.901 183.485 260.997Z" fill="#263238"/>
<path d="M182.741 263.81C182.837 263.81 182.879 263.285 182.488 262.789C182.096 262.292 181.549 262.168 181.525 262.264C181.5 262.36 181.868 262.586 182.181 263.003C182.494 263.42 182.632 263.821 182.741 263.81Z" fill="#263238"/>
<path d="M185.265 257.22C185.326 257.299 185.789 257.073 186.397 256.994C187.005 256.915 187.523 256.994 187.559 256.915C187.595 256.836 187.065 256.548 186.355 256.644C185.645 256.74 185.193 257.152 185.265 257.22Z" fill="#263238"/>
<path d="M185.258 254.689C185.637 254.718 186.017 254.646 186.353 254.48C186.735 254.333 187.097 254.144 187.431 253.916C187.628 253.785 187.815 253.642 187.991 253.488C188.099 253.4 188.193 253.297 188.268 253.183C188.329 253.097 188.357 252.994 188.346 252.891C188.335 252.788 188.286 252.692 188.208 252.619C188.139 252.559 188.056 252.516 187.967 252.491C187.877 252.467 187.782 252.462 187.69 252.478C187.549 252.501 187.413 252.545 187.287 252.608C187.066 252.706 186.855 252.821 186.654 252.952C186.32 253.18 186.024 253.454 185.776 253.764C185.366 254.3 185.27 254.706 185.312 254.723C185.354 254.74 185.547 254.384 185.986 253.922C186.243 253.656 186.534 253.421 186.853 253.222C187.046 253.11 187.247 253.01 187.455 252.924C187.672 252.822 187.87 252.783 187.949 252.873C188.027 252.963 187.985 252.918 187.949 252.991C187.894 253.074 187.824 253.149 187.744 253.211C187.584 253.361 187.413 253.501 187.232 253.629C186.928 253.846 186.601 254.035 186.257 254.193C185.913 254.338 185.579 254.504 185.258 254.689Z" fill="#263238"/>
<path d="M185.418 254.81C185.559 254.478 185.584 254.113 185.49 253.767C185.429 253.382 185.297 253.009 185.099 252.667C184.982 252.467 184.845 252.278 184.689 252.103C184.6 251.979 184.478 251.879 184.336 251.812C184.194 251.745 184.036 251.713 183.876 251.72C183.78 251.741 183.692 251.787 183.622 251.853C183.551 251.919 183.502 252.001 183.479 252.092C183.449 252.221 183.439 252.354 183.449 252.487C183.464 252.723 183.519 252.955 183.612 253.175C183.753 253.547 183.991 253.88 184.304 254.145C184.846 254.596 185.315 254.63 185.321 254.596C185.327 254.562 184.93 254.415 184.497 253.97C184.244 253.711 184.055 253.403 183.943 253.067C183.875 252.874 183.839 252.673 183.834 252.47C183.834 252.25 183.87 252.058 183.961 252.064C184.051 252.069 184.292 252.171 184.418 252.323C184.564 252.482 184.695 252.651 184.81 252.831C185.001 253.138 185.146 253.468 185.243 253.812C185.418 254.41 185.369 254.805 185.418 254.81Z" fill="#263238"/>
<path d="M206.976 250.443L198.475 206.079C198.058 203.888 198.266 201.633 199.077 199.542C200.016 197.084 201.742 194.958 204.018 193.453C206.295 191.948 209.011 191.138 211.798 191.133H241.801L261.402 199.271C261.403 200.842 261.058 202.395 260.387 203.834C259.716 205.273 258.734 206.566 257.504 207.633C256.273 208.699 254.821 209.516 253.237 210.03C251.654 210.545 249.974 210.748 248.303 210.625L216.289 208.273L220.9 248.458L206.976 250.443Z" fill="#263238"/>
<path d="M182.162 252.789L172.458 206.079C172.044 203.888 172.251 201.634 173.06 199.542C173.999 197.084 175.724 194.958 178.001 193.453C180.277 191.948 182.994 191.138 185.78 191.133H215.784L235.385 199.288V211.606L190.265 208.29L196.17 249.8L182.162 252.789Z" fill="#263238"/>
<path d="M196.176 249.788C196.176 249.788 196.134 249.619 196.073 249.292C196.013 248.965 195.941 248.457 195.845 247.853C195.646 246.584 195.375 244.785 195.038 242.574C194.388 238.062 193.497 231.937 192.51 225.141C191.601 218.616 190.77 212.682 190.156 208.289L190.204 208.368C188.055 206.98 186.423 205.74 185.25 204.933L183.907 203.997C183.741 203.898 183.584 203.787 183.438 203.664L183.57 203.732L183.943 203.946C184.262 204.143 184.732 204.442 185.322 204.837C186.526 205.615 188.181 206.834 190.33 208.187L190.373 208.216V208.261C191.005 212.654 191.866 218.582 192.811 225.107C193.762 231.904 194.617 238.079 195.249 242.552C195.544 244.763 195.785 246.562 195.953 247.842C196.025 248.446 196.086 248.925 196.128 249.28C196.16 249.448 196.176 249.618 196.176 249.788Z" fill="#455A64"/>
<path d="M167.773 172.587L169.898 168.853C170.021 168.681 170.189 168.542 170.387 168.449C170.584 168.356 170.804 168.313 171.024 168.323L171.975 168.363L173.595 166.947H175.485L176.942 166.039L182.553 167.049L187.176 168.21L184.545 173.083L181.908 172.565L177.478 172.491C176.197 172.47 174.975 171.987 174.064 171.143C173.275 170.419 172.214 170.014 171.109 170.015C171.109 170.015 169.718 172.942 167.773 172.587Z" fill="#FFBE9D"/>
<path d="M231.769 116.338L231.86 143.348L219.488 143.912L219.127 137.33C219.127 137.33 214.733 138.147 213.601 134.324C212.879 131.881 213.059 113.016 213.059 113.016L231.769 116.338Z" fill="#FFBE9D"/>
<path d="M231.956 137.484C233.274 136.204 233.882 134.422 234.189 132.668C234.497 130.914 234.545 129.12 234.96 127.383C235.387 125.556 236.212 123.83 236.628 122.003C237.043 120.175 237.013 118.133 235.857 116.611C235.857 116.611 235.093 114.518 231.83 114.355C231.83 114.355 229.054 110.147 224.955 110.514C219.386 111.01 219.236 109.476 215.395 108.912C214.943 108.81 214.473 108.793 214.014 108.862C213.555 108.931 213.114 109.084 212.719 109.313C212.323 109.542 211.979 109.843 211.708 110.197C211.437 110.551 211.244 110.952 211.139 111.377C211.139 111.377 209.17 112.747 209.08 114.727V114.778C209.05 115.756 209.358 116.718 209.958 117.519C210.558 118.321 211.417 118.92 212.409 119.228L213.15 119.459C213.869 119.619 214.539 119.934 215.106 120.378C215.883 121.106 216.009 122.234 215.967 123.26C215.925 124.287 215.774 125.347 216.142 126.311C216.268 126.639 216.569 127 216.93 126.909C217.291 126.819 217.34 126.244 217.382 125.826C217.508 124.619 219.188 123.7 220.331 124.586C220.692 124.84 220.949 125.203 221.058 125.614C221.168 126.025 221.124 126.458 220.933 126.842C220.5 127.688 219.555 128.353 219.374 129.301C219.067 130.886 221.054 132.273 221.812 133.136C222.071 133.447 222.362 133.734 222.679 133.993C224.323 135.285 225.93 137.078 228.097 137.778C229.542 138.246 231.306 138.127 232.402 137.129" fill="#263238"/>
<path d="M217.325 142.59C214.598 144.417 215.718 149.313 215.682 151.879C215.604 157.609 216.182 162.99 216.501 163.887C216.97 165.206 218.668 176.407 218.668 176.407L215.784 191.133C215.784 191.133 219.469 199.937 235.391 199.853L243.326 198.076C245.245 197.647 246.935 196.586 248.09 195.087C249.244 193.588 249.786 191.751 249.617 189.91L247.811 170.108L245.403 154.039C244.801 145.607 239.136 141.118 231.93 141.597L217.325 142.59Z" fill="#4F18A2"/>
<g opacity="0.5">
<path d="M223.83 197.941C222.084 197.095 224.432 180.609 226.46 172.166C227.255 168.872 228.309 165.471 230.807 163.035C232.856 161.174 235.44 159.912 238.242 159.402C240.826 158.905 243.459 158.663 246.098 158.681L248.59 196.209C248.59 196.209 231.325 201.595 223.83 197.941Z" fill="black"/>
</g>
<path d="M217.322 142.586C215.652 142.887 214.081 143.551 212.736 144.526C211.391 145.501 210.31 146.759 209.58 148.198C207.575 152.095 198.804 168.321 198.804 168.321L185.398 167.487L182.719 173.217L201.068 177.836C204.86 178.518 208.171 176.353 210.038 173.149L217.743 159.94L217.322 142.586Z" fill="#4F18A2"/>
<path d="M218.639 142.585C218.639 142.585 218.302 139.714 218.742 139.201C219.181 138.688 232.485 138.789 232.485 138.789L233.19 142.083L231.709 144.542L219.067 145.574L218.639 142.585Z" fill="#4F18A2"/>
<path d="M200.373 171.157C199.557 170.485 199.056 169.539 198.977 168.523C199.45 169.398 199.916 170.276 200.373 171.157Z" fill="#263238"/>
<path d="M219.578 155.461C219.015 156.981 218.354 158.467 217.598 159.911C216.933 161.395 216.175 162.842 215.328 164.242C215.891 162.723 216.553 161.237 217.309 159.792C217.971 158.307 218.729 156.86 219.578 155.461Z" fill="#263238"/>
<path d="M233.069 141.586C233.069 141.586 233.147 141.71 233.147 141.981C233.146 142.181 233.077 142.375 232.95 142.536C232.824 142.697 232.646 142.817 232.443 142.878C231.052 142.956 228.831 143.052 226.284 143.137C224.141 143.21 222.215 143.261 220.788 143.278C220.221 143.283 219.659 143.169 219.145 142.945C218.783 142.765 218.645 142.595 218.657 142.584C218.669 142.573 218.838 142.703 219.193 142.838C219.705 143.014 220.249 143.093 220.794 143.069C222.179 142.996 224.129 142.917 226.272 142.844C228.801 142.759 231.046 142.708 232.443 142.697C232.618 142.649 232.773 142.553 232.889 142.421C233.005 142.29 233.076 142.128 233.093 141.958C233.075 141.727 233.045 141.586 233.069 141.586Z" fill="#263238"/>
<path d="M210.929 146.203C211.007 146.237 208.37 151.15 205.041 157.173C201.712 163.197 198.955 168.053 198.877 168.008C198.798 167.962 201.435 163.056 204.764 157.032C208.093 151.009 210.85 146.164 210.929 146.203Z" fill="#263238"/>
<path d="M215.973 149.812C215.973 149.812 216.087 149.778 216.28 149.857C216.421 149.911 216.548 149.993 216.652 150.097C216.756 150.201 216.834 150.325 216.882 150.461C216.941 150.667 216.932 150.887 216.854 151.088C216.777 151.29 216.635 151.464 216.448 151.589C216.226 151.735 215.956 151.807 215.684 151.792C215.419 151.792 215.16 151.746 214.907 151.73C214.686 151.708 214.462 151.735 214.254 151.807C214.045 151.88 213.857 151.996 213.703 152.147C213.574 152.272 213.473 152.419 213.404 152.581C213.336 152.742 213.303 152.915 213.306 153.089C213.337 153.424 213.444 153.749 213.619 154.042C213.619 154.076 213.168 153.811 213.083 153.1C213.066 152.896 213.093 152.69 213.163 152.496C213.234 152.302 213.346 152.124 213.493 151.972C213.675 151.784 213.901 151.638 214.154 151.547C214.407 151.456 214.68 151.422 214.95 151.448C215.491 151.498 215.979 151.6 216.304 151.38C216.451 151.287 216.565 151.155 216.632 151.002C216.7 150.848 216.717 150.68 216.683 150.517C216.625 150.285 216.474 150.084 216.262 149.953C216.069 149.857 215.967 149.834 215.973 149.812Z" fill="#FAFAFA"/>
<path d="M233.749 149.998C233.749 149.998 233.869 149.969 234.062 150.043C234.197 150.102 234.317 150.186 234.416 150.291C234.514 150.396 234.588 150.519 234.634 150.652C234.694 150.858 234.685 151.077 234.609 151.278C234.532 151.48 234.392 151.655 234.206 151.78C233.98 151.919 233.713 151.99 233.442 151.983C233.171 151.983 232.918 151.932 232.665 151.915C232.443 151.895 232.219 151.922 232.011 151.995C231.802 152.069 231.614 152.186 231.461 152.338C231.332 152.463 231.23 152.61 231.162 152.772C231.094 152.934 231.061 153.106 231.064 153.28C231.091 153.616 231.198 153.941 231.377 154.233C231.377 154.261 230.925 153.996 230.841 153.291C230.824 153.087 230.85 152.883 230.92 152.689C230.989 152.495 231.1 152.316 231.244 152.163C231.427 151.973 231.654 151.826 231.908 151.734C232.162 151.642 232.436 151.608 232.707 151.633C233.249 151.684 233.731 151.785 234.062 151.565C234.208 151.473 234.322 151.343 234.389 151.19C234.457 151.038 234.475 150.87 234.441 150.708C234.379 150.478 234.229 150.278 234.02 150.144C233.851 150.048 233.743 150.02 233.749 149.998Z" fill="#FAFAFA"/>
<path d="M233.533 162.032C233.533 162.032 233.533 162.15 233.413 162.308C233.32 162.418 233.205 162.508 233.073 162.573C232.941 162.638 232.797 162.677 232.648 162.686C232.417 162.692 232.19 162.631 231.997 162.512C231.805 162.393 231.656 162.222 231.57 162.021C231.483 161.779 231.483 161.518 231.57 161.276C231.637 161.034 231.745 160.808 231.823 160.588C231.899 160.388 231.925 160.174 231.9 159.963C231.875 159.752 231.8 159.549 231.679 159.37C231.473 159.082 231.156 158.88 230.794 158.806C230.44 158.752 230.078 158.774 229.734 158.868C229.88 158.742 230.057 158.652 230.25 158.606C230.442 158.56 230.643 158.559 230.836 158.603C231.055 158.633 231.264 158.706 231.45 158.817C231.637 158.928 231.797 159.074 231.92 159.246C232.073 159.456 232.171 159.698 232.206 159.951C232.24 160.204 232.21 160.461 232.118 160.701C231.938 161.18 231.715 161.598 231.865 161.947C231.925 162.105 232.032 162.243 232.175 162.343C232.317 162.443 232.488 162.502 232.666 162.511C232.918 162.51 233.16 162.422 233.346 162.263C233.461 162.117 233.515 162.026 233.533 162.032Z" fill="#FAFAFA"/>
<path d="M225.754 179.117C225.754 179.117 225.754 179.236 225.634 179.388C225.541 179.498 225.424 179.589 225.291 179.654C225.158 179.719 225.013 179.757 224.863 179.766C224.633 179.772 224.406 179.713 224.214 179.595C224.021 179.477 223.872 179.306 223.786 179.106C223.701 178.862 223.701 178.6 223.786 178.356C223.852 178.114 223.96 177.894 224.038 177.668C224.117 177.469 224.145 177.256 224.12 177.046C224.095 176.835 224.018 176.633 223.894 176.455C223.794 176.312 223.666 176.188 223.515 176.091C223.364 175.994 223.194 175.926 223.015 175.891C222.662 175.836 222.3 175.855 221.955 175.948C221.919 175.948 222.299 175.592 223.057 175.688C223.275 175.719 223.483 175.792 223.67 175.902C223.856 176.011 224.016 176.156 224.141 176.326C224.292 176.537 224.389 176.779 224.424 177.031C224.458 177.284 224.429 177.54 224.339 177.781C224.153 178.266 223.93 178.678 224.081 179.027C224.138 179.186 224.245 179.324 224.388 179.425C224.531 179.525 224.703 179.583 224.881 179.591C225.135 179.593 225.38 179.504 225.567 179.343C225.664 179.196 225.718 179.106 225.754 179.117Z" fill="#FAFAFA"/>
<path d="M241.711 154.133C241.711 154.133 241.831 154.133 242.024 154.178C242.165 154.233 242.292 154.316 242.396 154.421C242.5 154.526 242.578 154.651 242.626 154.787C242.686 154.993 242.677 155.212 242.601 155.414C242.525 155.615 242.384 155.79 242.199 155.915C241.973 156.056 241.705 156.125 241.434 156.112C241.163 156.112 240.904 156.067 240.658 156.05C240.436 156.03 240.213 156.057 240.004 156.129C239.796 156.202 239.607 156.317 239.454 156.468C239.324 156.593 239.222 156.742 239.153 156.904C239.085 157.067 239.052 157.241 239.056 157.415C239.081 157.749 239.188 158.074 239.369 158.363C239.369 158.397 238.918 158.132 238.833 157.427C238.816 157.223 238.842 157.018 238.912 156.824C238.981 156.63 239.092 156.451 239.237 156.299C239.419 156.109 239.646 155.962 239.901 155.87C240.155 155.778 240.428 155.743 240.7 155.768C241.241 155.819 241.723 155.921 242.048 155.701C242.195 155.609 242.31 155.479 242.379 155.327C242.447 155.174 242.466 155.006 242.433 154.843C242.371 154.614 242.221 154.413 242.012 154.279C241.813 154.184 241.705 154.155 241.711 154.133Z" fill="#FAFAFA"/>
<path d="M223.152 169.266C223.152 169.266 223.062 169.187 223.032 168.99C223.013 168.852 223.026 168.711 223.07 168.578C223.113 168.445 223.186 168.322 223.284 168.217C223.442 168.059 223.648 167.95 223.874 167.905C224.101 167.861 224.336 167.883 224.549 167.969C224.804 168.071 225.015 168.25 225.151 168.477C225.289 168.697 225.379 168.922 225.494 169.137C225.592 169.328 225.734 169.496 225.912 169.628C226.089 169.76 226.296 169.852 226.517 169.898C226.878 169.964 227.253 169.893 227.559 169.701C227.85 169.505 228.09 169.25 228.263 168.956C228.293 168.956 228.263 169.435 227.661 169.875C227.484 169.997 227.282 170.083 227.067 170.129C226.853 170.174 226.631 170.178 226.415 170.14C226.147 170.093 225.896 169.987 225.68 169.831C225.465 169.675 225.292 169.474 225.175 169.244C224.94 168.781 224.783 168.341 224.41 168.195C224.25 168.125 224.071 168.101 223.897 168.126C223.722 168.151 223.559 168.224 223.429 168.336C223.252 168.506 223.147 168.73 223.134 168.967C223.14 169.137 223.176 169.255 223.152 169.266Z" fill="#FAFAFA"/>
<path d="M224.025 157.945C224.025 157.945 224.145 157.911 224.332 157.99C224.473 158.043 224.6 158.125 224.704 158.229C224.808 158.333 224.887 158.458 224.934 158.593C224.994 158.8 224.985 159.018 224.909 159.22C224.832 159.422 224.692 159.597 224.507 159.721C224.279 159.864 224.009 159.935 223.736 159.924C223.471 159.924 223.212 159.874 222.965 159.857C222.744 159.838 222.52 159.867 222.312 159.94C222.104 160.013 221.916 160.129 221.761 160.28C221.632 160.404 221.531 160.552 221.462 160.713C221.394 160.875 221.361 161.048 221.364 161.222C221.395 161.557 221.504 161.883 221.683 162.175C221.683 162.203 221.232 161.943 221.147 161.233C221.127 161.029 221.153 160.823 221.222 160.629C221.291 160.435 221.403 160.256 221.551 160.105C221.732 159.915 221.958 159.769 222.212 159.678C222.465 159.587 222.738 159.553 223.008 159.58C223.555 159.631 224.037 159.733 224.362 159.513C224.51 159.421 224.625 159.289 224.692 159.135C224.76 158.982 224.777 158.813 224.741 158.65C224.682 158.42 224.534 158.219 224.326 158.086C224.127 157.99 224.019 157.967 224.025 157.945Z" fill="#FAFAFA"/>
<path d="M223.661 184.734C223.661 184.734 223.781 184.734 223.968 184.78C224.108 184.836 224.234 184.919 224.338 185.024C224.442 185.129 224.521 185.253 224.57 185.389C224.63 185.595 224.621 185.814 224.544 186.015C224.468 186.217 224.328 186.392 224.142 186.517C223.914 186.656 223.645 186.727 223.372 186.72C223.107 186.72 222.848 186.669 222.595 186.652C222.373 186.632 222.149 186.66 221.941 186.733C221.732 186.806 221.544 186.923 221.391 187.075C221.261 187.199 221.159 187.346 221.091 187.508C221.022 187.67 220.99 187.843 220.994 188.017C221.026 188.35 221.132 188.673 221.307 188.964C221.307 188.998 220.861 188.733 220.771 188.028C220.753 187.824 220.78 187.618 220.851 187.424C220.921 187.23 221.033 187.052 221.18 186.9C221.361 186.71 221.588 186.563 221.841 186.471C222.094 186.379 222.367 186.344 222.637 186.37C223.179 186.421 223.667 186.522 223.992 186.302C224.139 186.211 224.254 186.081 224.321 185.928C224.389 185.775 224.406 185.607 224.371 185.445C224.313 185.215 224.165 185.013 223.956 184.881C223.763 184.785 223.655 184.757 223.661 184.734Z" fill="#FAFAFA"/>
<path d="M206.632 170.453C206.632 170.453 206.753 170.419 206.945 170.498C207.081 170.555 207.203 170.639 207.302 170.744C207.4 170.849 207.474 170.973 207.517 171.107C207.58 171.313 207.572 171.533 207.496 171.735C207.419 171.937 207.277 172.112 207.09 172.235C206.867 172.382 206.597 172.453 206.325 172.438C206.054 172.438 205.801 172.393 205.549 172.376C205.327 172.355 205.104 172.382 204.895 172.455C204.687 172.527 204.498 172.643 204.345 172.793C204.215 172.919 204.113 173.067 204.044 173.23C203.976 173.392 203.943 173.566 203.947 173.741C203.975 174.074 204.082 174.398 204.26 174.688C204.26 174.722 203.809 174.457 203.725 173.746C203.706 173.542 203.733 173.336 203.803 173.142C203.873 172.948 203.986 172.77 204.134 172.618C204.315 172.428 204.541 172.281 204.794 172.189C205.047 172.097 205.32 172.062 205.591 172.088C206.133 172.139 206.62 172.24 206.945 172.02C207.092 171.928 207.207 171.796 207.274 171.643C207.342 171.489 207.359 171.32 207.325 171.158C207.266 170.926 207.115 170.724 206.903 170.594C206.735 170.503 206.632 170.475 206.632 170.453Z" fill="#FAFAFA"/>
<path d="M211.178 162.654C211.178 162.654 211.178 162.767 211.1 162.942C211.025 163.063 210.925 163.168 210.805 163.251C210.684 163.333 210.547 163.391 210.401 163.421C210.175 163.46 209.942 163.432 209.733 163.343C209.524 163.253 209.349 163.105 209.233 162.919C209.102 162.696 209.052 162.438 209.089 162.186C209.089 161.932 209.185 161.701 209.227 161.464C209.271 161.256 209.263 161.042 209.205 160.838C209.146 160.634 209.039 160.445 208.89 160.285C208.769 160.153 208.621 160.045 208.454 159.966C208.288 159.888 208.107 159.841 207.921 159.828C207.564 159.828 207.211 159.9 206.886 160.037C206.849 160.037 207.168 159.637 207.933 159.625C208.158 159.621 208.382 159.661 208.59 159.744C208.797 159.827 208.984 159.95 209.137 160.105C209.321 160.292 209.456 160.517 209.53 160.762C209.604 161.007 209.616 161.265 209.564 161.515C209.462 162.017 209.312 162.457 209.51 162.784C209.596 162.93 209.725 163.049 209.883 163.126C210.04 163.203 210.218 163.235 210.395 163.218C210.644 163.179 210.868 163.057 211.027 162.874C211.118 162.744 211.154 162.648 211.178 162.654Z" fill="#FAFAFA"/>
<path d="M224.191 148.406C224.191 148.406 224.191 148.519 224.118 148.688C224.045 148.81 223.944 148.916 223.824 149C223.704 149.083 223.566 149.142 223.42 149.173C223.193 149.212 222.958 149.184 222.748 149.093C222.538 149.002 222.363 148.853 222.246 148.666C222.115 148.442 222.064 148.185 222.102 147.932C222.102 147.684 222.198 147.447 222.24 147.216C222.285 147.009 222.279 146.795 222.222 146.59C222.164 146.386 222.057 146.197 221.909 146.037C221.662 145.772 221.314 145.608 220.94 145.58C220.58 145.576 220.225 145.648 219.898 145.789C220.023 145.644 220.183 145.53 220.366 145.457C220.549 145.384 220.748 145.355 220.946 145.372C221.167 145.372 221.385 145.415 221.587 145.498C221.79 145.582 221.971 145.704 222.12 145.857C222.305 146.044 222.441 146.268 222.516 146.513C222.591 146.758 222.604 147.016 222.553 147.267C222.445 147.763 222.294 148.209 222.499 148.53C222.582 148.677 222.711 148.796 222.867 148.874C223.024 148.951 223.202 148.983 223.378 148.964C223.628 148.929 223.855 148.809 224.016 148.626C224.13 148.491 224.167 148.395 224.191 148.406Z" fill="#FAFAFA"/>
<path d="M241.631 147.435C241.631 147.435 241.631 147.548 241.553 147.723C241.479 147.844 241.378 147.949 241.258 148.032C241.138 148.114 241 148.172 240.854 148.202C240.628 148.242 240.394 148.215 240.185 148.125C239.976 148.035 239.802 147.886 239.686 147.7C239.555 147.477 239.504 147.219 239.542 146.967C239.542 146.713 239.638 146.482 239.68 146.245C239.724 146.037 239.716 145.823 239.658 145.619C239.599 145.415 239.492 145.226 239.343 145.066C239.099 144.801 238.753 144.636 238.38 144.609C238.021 144.609 237.666 144.68 237.339 144.818C237.303 144.818 237.628 144.418 238.386 144.406C238.607 144.406 238.825 144.448 239.027 144.53C239.229 144.613 239.411 144.734 239.56 144.886C239.745 145.072 239.881 145.297 239.955 145.542C240.03 145.788 240.041 146.046 239.987 146.296C239.885 146.798 239.735 147.238 239.939 147.565C240.023 147.711 240.152 147.83 240.308 147.907C240.465 147.985 240.642 148.017 240.818 147.999C241.068 147.964 241.294 147.841 241.45 147.655C241.571 147.525 241.607 147.429 241.631 147.435Z" fill="#FAFAFA"/>
<path d="M195.732 172.521C195.732 172.521 195.732 172.634 195.654 172.809C195.581 172.929 195.481 173.034 195.362 173.117C195.243 173.199 195.107 173.258 194.962 173.288C194.735 173.328 194.5 173.301 194.29 173.211C194.08 173.121 193.904 172.973 193.788 172.786C193.656 172.563 193.606 172.305 193.644 172.053C193.644 171.799 193.74 171.568 193.782 171.331C193.827 171.123 193.82 170.909 193.761 170.704C193.703 170.5 193.594 170.311 193.445 170.152C193.201 169.887 192.855 169.722 192.482 169.695C192.123 169.695 191.768 169.766 191.44 169.904C191.404 169.904 191.729 169.504 192.488 169.492C192.708 169.491 192.927 169.533 193.129 169.615C193.331 169.698 193.513 169.819 193.662 169.972C193.847 170.158 193.982 170.383 194.057 170.628C194.131 170.873 194.142 171.132 194.089 171.382C193.987 171.884 193.836 172.324 194.041 172.651C194.125 172.796 194.254 172.915 194.41 172.992C194.567 173.069 194.744 173.102 194.92 173.085C195.171 173.048 195.398 172.926 195.558 172.741C195.648 172.583 195.708 172.487 195.732 172.521Z" fill="#FAFAFA"/>
<path d="M223.694 214.214L223.219 263.812H226.229L226.458 215.201C226.458 215.201 226.608 212.979 228.414 212.832C230.22 212.686 257.31 213.96 257.31 213.96L265.293 263.812H268.76L260.934 213.966C260.934 213.966 238.184 206.758 226.879 208.98C226.879 208.98 224.164 208.512 224.013 210.463C223.863 212.415 223.694 214.214 223.694 214.214Z" fill="#E0E0E0"/>
<path d="M224.224 208.479C224.224 208.479 228.932 174.075 230.623 168.243C231.43 165.605 233.303 163.366 235.843 162C237.28 161.185 238.937 160.774 240.617 160.815L265.606 161.329C266.145 161.339 266.676 161.458 267.162 161.677C267.648 161.896 268.079 162.21 268.424 162.598C268.77 162.986 269.023 163.439 269.166 163.926C269.309 164.414 269.339 164.924 269.254 165.423L260.97 213.961C251.778 213.961 230.268 213.961 230.268 213.961C230.268 213.961 200.836 210.955 196.315 210.769C193.492 210.65 193.305 211.671 193.04 212.777C190.392 210.769 191.975 206.635 195.376 206.832L224.224 208.479Z" fill="#455A64"/>
<path d="M269.098 163.689C269.028 163.696 268.958 163.696 268.888 163.689H268.256L265.848 163.717L256.944 163.763H250.792H245.572C244.97 163.763 244.368 163.763 243.766 163.796C242.494 163.92 241.286 164.38 240.283 165.123C239.28 165.866 238.523 166.861 238.102 167.993C237.901 168.594 237.758 169.211 237.674 169.837C237.566 170.474 237.451 171.117 237.337 171.76C237.112 173.054 236.885 174.37 236.657 175.708C234.784 186.306 233.087 195.899 231.841 202.865C231.239 206.328 230.703 209.131 230.354 211.093C230.173 212.047 230.029 212.785 229.932 213.349C229.884 213.592 229.842 213.784 229.812 213.913C229.806 213.979 229.79 214.044 229.764 214.105C229.756 214.04 229.756 213.973 229.764 213.908C229.764 213.761 229.812 213.569 229.848 213.344C229.938 212.814 230.059 212.064 230.215 211.088C230.546 209.119 231.016 206.311 231.6 202.842C232.804 195.877 234.471 186.277 236.308 175.669C236.54 174.345 236.769 173.029 236.994 171.721C237.108 171.072 237.223 170.435 237.331 169.797C237.421 169.155 237.568 168.521 237.77 167.902C238.212 166.72 239.006 165.68 240.058 164.905C241.109 164.131 242.375 163.654 243.706 163.531C244.344 163.486 244.952 163.503 245.554 163.503H250.774H256.926L265.83 163.548L268.238 163.576H268.87L269.098 163.689Z" fill="#263238"/>
<path d="M192.982 214.208L191.609 263.806H194.619L195.396 215.274C195.396 215.274 195.432 212.381 197.804 212.623C199.61 212.809 226.965 215.787 226.965 215.787L236.169 263.806H239.637L230.264 213.96L196.738 210.012C196.041 209.916 195.329 210.016 194.692 210.299C194.2 210.532 193.785 210.886 193.493 211.323C193.201 211.761 193.043 212.265 193.036 212.781C192.88 214.727 192.982 214.208 192.982 214.208Z" fill="#EBEBEB"/>
<path d="M261.406 161.238C261.406 161.238 244.55 212.658 224.227 208.479L224.564 206.054C224.564 206.054 240.252 208.496 258.715 161.188L261.406 161.238Z" fill="#4F18A2"/>
<path d="M225.672 207.904C225.753 213.258 226.873 218.553 228.977 223.532C229.579 224.976 230.386 226.499 231.878 227.175C233.371 227.852 235.105 227.497 236.694 227.091C240.631 226.073 244.471 224.753 248.175 223.143C249.529 222.551 250.956 221.84 251.648 220.599C252.479 219.116 252.039 217.317 251.564 215.704C250.047 210.526 248.343 205.397 246.453 200.318C246.062 199.263 244.25 195.18 244.25 195.18" fill="#4F18A2"/>
<path d="M246.276 201.281C246.293 201.373 246.293 201.466 246.276 201.558C246.276 201.738 246.276 202.003 246.222 202.342C246.122 203.305 245.93 204.258 245.65 205.19C245.235 206.584 244.605 207.915 243.778 209.138C242.759 210.635 241.413 211.914 239.829 212.888C238.246 213.875 236.425 214.472 234.531 214.625C232.987 214.736 231.436 214.52 229.992 213.994C229.022 213.641 228.125 213.136 227.337 212.499C227.124 212.323 226.923 212.135 226.735 211.935C226.666 211.871 226.605 211.799 226.555 211.721C226.555 211.721 226.85 211.98 227.41 212.403C228.213 212.993 229.108 213.463 230.064 213.796C231.482 214.282 232.996 214.475 234.501 214.36C236.341 214.203 238.112 213.622 239.654 212.668C241.201 211.717 242.52 210.475 243.525 209.019C244.348 207.829 244.988 206.536 245.427 205.178C245.723 204.255 245.947 203.313 246.096 202.358C246.222 201.625 246.252 201.281 246.276 201.281Z" fill="#263238"/>
<path d="M238.279 215.55C238.178 214.733 238.178 213.908 238.279 213.091C238.287 212.267 238.398 211.448 238.61 210.648C238.712 211.465 238.712 212.291 238.61 213.107C238.604 213.931 238.492 214.751 238.279 215.55Z" fill="#263238"/>
<path d="M56.0156 226.659C60.3982 228.092 66.1172 226.812 69.8616 224.245C73.6061 221.679 76.309 218.002 78.705 214.274C79.7224 212.683 80.7217 211.025 81.0408 209.198C81.3598 207.371 80.8903 205.306 79.3732 204.122C77.0194 202.261 73.4074 203.203 70.7285 204.635C66.5538 206.913 63.0332 210.109 60.47 213.946C57.9069 217.782 56.3782 222.146 56.0156 226.659Z" fill="#4F18A2"/>
<path d="M60.7266 236.494C63.3573 239.748 67.8783 241.197 72.2368 241.384C76.5953 241.57 80.8936 240.447 84.9631 238.981C86.438 238.451 88.0513 237.723 88.5751 236.325C88.7356 235.782 88.7492 235.211 88.6147 234.662C88.4801 234.114 88.2017 233.605 87.8045 233.183C87.0005 232.345 85.9928 231.701 84.8668 231.305C80.7872 229.782 76.2872 229.554 72.0562 230.656C67.8422 231.677 64.164 233.967 60.7446 236.494" fill="#4F18A2"/>
<path d="M55.9479 209.063C59.5599 209.131 62.3231 206.153 63.9666 203.119C66.2504 198.88 67.0085 194.062 66.1277 189.386C65.7966 187.648 65.0983 185.776 63.4368 184.941C61.7753 184.106 59.5539 184.648 58.1392 185.861C56.7245 187.073 55.984 188.793 55.382 190.508C53.4316 196.413 53.853 203.198 55.9419 209.063" fill="#4F18A2"/>
<path d="M44.0294 227.864C50.218 218 51.2534 205.93 47.5933 195.011C46.9913 193.24 45.8836 191.21 43.903 191.091C41.7117 190.961 40.3392 193.251 39.7372 195.225C37.6121 202.163 38.0636 209.523 38.5332 216.725C38.8221 221.158 40.4475 224.954 44.0294 227.864Z" fill="#4F18A2"/>
<path d="M37.5951 231.929C36.4428 228.549 34.4958 225.454 31.8974 222.872C29.299 220.29 26.1154 218.288 22.5812 217.011C20.9378 216.447 18.8488 216.103 17.6208 217.276C16.3927 218.45 16.79 220.367 17.5606 221.788C18.8067 224.123 20.8294 225.996 22.8461 227.789C24.6521 229.425 26.5785 231.066 28.9022 232.014C31.226 232.961 35.4761 233.204 37.5951 231.912" fill="#4F18A2"/>
<path d="M75.9633 206.579L75.8549 206.669L75.5178 206.912L74.2235 207.82L73.2844 208.468C72.9412 208.711 72.5921 208.999 72.2008 209.292C71.4362 209.89 70.5332 210.538 69.6182 211.35L68.1613 212.591C67.6557 213.025 67.1741 213.516 66.6443 214.001C65.5788 214.96 64.5493 216.082 63.4417 217.239C61.1071 219.805 58.9745 222.527 57.0605 225.383C55.1901 228.267 53.5425 231.274 52.1301 234.379C51.5281 235.828 50.9261 237.199 50.4746 238.513C50.2458 239.167 49.993 239.799 49.8064 240.413L49.2706 242.19C48.9034 243.318 48.6686 244.367 48.4639 245.275C48.3555 245.732 48.2412 246.155 48.1569 246.544L47.9582 247.627C47.8378 248.259 47.7415 248.755 47.6693 249.116C47.6392 249.274 47.6091 249.404 47.591 249.505C47.5839 249.55 47.5697 249.594 47.5489 249.635C47.5462 249.59 47.5462 249.544 47.5489 249.499C47.5489 249.398 47.5669 249.268 47.603 249.11C47.6572 248.744 47.7355 248.242 47.8318 247.61C47.886 247.277 47.9462 246.916 48.0124 246.521C48.0786 246.127 48.193 245.704 48.2893 245.241C48.506 244.328 48.7047 243.273 49.0599 242.139C49.2224 241.575 49.397 240.972 49.5776 240.351C49.7582 239.731 50.005 239.099 50.2338 238.439C50.6672 237.108 51.2692 235.738 51.8712 234.283C54.6308 228.007 58.4613 222.193 63.2129 217.069C64.3326 215.913 65.3741 214.813 66.4517 213.843C66.9814 213.358 67.4751 212.868 67.9807 212.439L69.4617 211.204C70.3827 210.397 71.2677 209.76 72.0743 209.173C72.4717 208.88 72.8268 208.609 73.176 208.367L74.1332 207.73L75.4636 206.861L75.8128 206.641C75.9151 206.596 75.9572 206.573 75.9633 206.579Z" fill="#263238"/>
<path d="M84.1534 233.927C84.0091 233.917 83.866 233.894 83.726 233.86C83.4491 233.815 83.0518 233.713 82.522 233.634C76.8853 232.583 71.0527 232.938 65.6085 234.663C60.1642 236.389 55.2993 239.424 51.501 243.465C50.4999 244.519 49.5748 245.634 48.7318 246.804C48.4187 247.215 48.214 247.548 48.0575 247.768C47.9863 247.885 47.9015 247.995 47.8047 248.095C47.8613 247.972 47.9277 247.853 48.0033 247.74C48.1478 247.514 48.3405 247.176 48.6354 246.747C49.4455 245.556 50.3511 244.425 51.3444 243.363C54.6177 239.792 58.7391 236.989 63.3779 235.18C68.0168 233.37 73.0437 232.606 78.0552 232.946C79.5663 233.041 81.0675 233.243 82.5461 233.55C83.0698 233.651 83.4672 233.764 83.7501 233.832C83.8876 233.851 84.0227 233.883 84.1534 233.927Z" fill="#263238"/>
<path d="M61.3024 188.875C61.3024 188.875 61.3024 188.926 61.3024 189.027C61.3024 189.129 61.2422 189.287 61.2 189.473C61.1037 189.879 60.9652 190.449 60.7967 191.165C60.4415 192.637 59.8937 194.763 59.2134 197.369C57.8469 202.62 55.8663 209.85 53.7954 217.865C52.772 221.88 51.8449 225.71 51.0443 229.201C50.2436 232.692 49.5874 235.851 49.0938 238.513C48.8229 239.838 48.6242 241.045 48.4316 242.105C48.239 243.166 48.0885 244.074 47.9741 244.824C47.8597 245.574 47.7574 246.132 47.6851 246.544C47.655 246.724 47.6249 246.871 47.6069 246.99C47.599 247.042 47.5849 247.093 47.5647 247.142C47.5618 247.089 47.5618 247.037 47.5647 246.984C47.5647 246.871 47.5647 246.719 47.6129 246.533C47.6731 246.121 47.7513 245.54 47.8477 244.807C47.944 244.074 48.0824 243.115 48.257 242.083C48.4316 241.051 48.6242 239.827 48.859 238.479C49.3286 235.811 49.9787 232.647 50.7493 229.15C51.5199 225.653 52.459 221.818 53.4824 217.803C55.5472 209.788 57.5639 202.575 58.9726 197.324C59.677 194.718 60.2489 192.603 60.6462 191.12C60.8448 190.403 60.9953 189.839 61.1097 189.428L61.2361 188.993C61.2536 188.952 61.2758 188.912 61.3024 188.875Z" fill="#263238"/>
<path d="M47.0899 246.399C47.0742 246.361 47.0621 246.321 47.0538 246.281L46.9635 245.925C46.8912 245.587 46.7889 245.13 46.6625 244.549C46.3976 243.354 46.0605 241.622 45.6571 239.473C44.8625 235.164 43.9475 229.203 43.3455 222.57C43.0625 219.254 42.906 216.09 42.8398 213.208C42.7736 210.326 42.8398 207.726 42.912 205.549C42.912 204.46 43.0144 203.479 43.0625 202.616C43.1107 201.753 43.1769 201.009 43.2371 200.399C43.2973 199.79 43.3394 199.345 43.3756 199.001C43.3756 198.854 43.3756 198.736 43.4177 198.64C43.412 198.599 43.412 198.557 43.4177 198.516C43.424 198.557 43.424 198.599 43.4177 198.64C43.4177 198.741 43.4177 198.86 43.4177 199.006C43.4177 199.35 43.3695 199.818 43.3334 200.405C43.2973 200.992 43.2431 201.759 43.213 202.622C43.1829 203.484 43.1107 204.466 43.0986 205.554C43.0264 207.731 43.0204 210.326 43.0986 213.202C43.1769 216.079 43.3455 219.237 43.6284 222.548C44.2304 229.169 45.1093 235.125 45.8558 239.423C46.223 241.571 46.5421 243.309 46.7648 244.499C46.8732 245.063 46.9575 245.542 47.0177 245.88C47.0177 246.021 47.0598 246.14 47.0779 246.241C47.0969 246.292 47.1011 246.347 47.0899 246.399Z" fill="#263238"/>
<path d="M47.5616 247.629C47.5002 247.52 47.4479 247.407 47.4051 247.29C47.2968 247.037 47.1643 246.726 46.9958 246.298C46.9055 246.078 46.8091 245.841 46.7068 245.576C46.6045 245.311 46.4479 245.012 46.3095 244.747L45.852 243.788C45.6954 243.444 45.4847 243.106 45.2921 242.733C45.0995 242.361 44.8767 241.983 44.6901 241.605C44.5035 241.227 44.1965 240.816 43.9376 240.393C43.4379 239.547 42.7938 238.701 42.1737 237.776C40.7357 235.835 39.18 233.972 37.5143 232.198C35.8254 230.442 34.0412 228.768 32.1685 227.184C31.2775 226.479 30.4648 225.78 29.6401 225.187L28.4722 224.313L27.3585 223.546C26.6542 223.044 25.998 222.627 25.4141 222.266C24.8301 221.905 24.3365 221.578 23.9151 221.341L22.9579 220.777C22.8394 220.72 22.73 220.648 22.6328 220.562C22.7537 220.61 22.8704 220.667 22.982 220.732L23.9753 221.256C24.4027 221.482 24.9204 221.781 25.5044 222.142C26.0883 222.503 26.7686 222.903 27.4789 223.394L28.6047 224.15L29.8087 225.018C30.6394 225.582 31.4642 226.298 32.3611 226.998C34.2655 228.577 36.0743 230.255 37.7791 232.023C39.4567 233.811 41.0148 235.695 42.4446 237.663C43.0466 238.594 43.7028 239.451 44.1904 240.308L44.9369 241.538C45.1476 241.938 45.3583 242.327 45.5389 242.7C45.7195 243.072 45.9362 243.421 46.0867 243.765C46.2372 244.109 46.3877 244.431 46.5262 244.736L46.8994 245.582C46.9958 245.848 47.0861 246.091 47.1703 246.309L47.5255 247.324C47.548 247.424 47.5601 247.526 47.5616 247.629Z" fill="#263238"/>
<path d="M73.6643 218.023C73.6643 218.063 72.9178 218.063 71.7138 218.125C68.5731 218.283 65.4692 218.835 62.4852 219.766C61.3414 220.121 60.6431 220.381 60.625 220.33C60.7695 220.232 60.9275 220.152 61.0946 220.093C61.3956 219.958 61.8531 219.777 62.419 219.574C63.9029 219.055 65.4315 218.655 66.9881 218.379C68.5422 218.099 70.1194 217.946 71.7018 217.922C72.3038 217.922 72.8035 217.922 73.1406 217.95C73.3182 217.949 73.4948 217.974 73.6643 218.023Z" fill="#263238"/>
<path d="M78.3303 239.384C77.6512 238.087 76.7953 236.877 75.7839 235.786C74.707 234.761 73.4929 233.872 72.1719 233.141C72.6169 233.248 73.0399 233.423 73.424 233.66C75.3658 234.707 76.9247 236.28 77.8969 238.172C78.1073 238.552 78.2535 238.961 78.3303 239.384Z" fill="#263238"/>
<path d="M62.4177 196.883C62.4718 196.945 61.3341 198.011 60.0939 199.432C58.8538 200.853 57.9629 202.122 57.8906 202.077C58.4012 201.053 59.0662 200.104 59.8652 199.257C60.5887 198.354 61.4485 197.554 62.4177 196.883Z" fill="#263238"/>
<path d="M58.6803 190.844C59.1476 192.348 59.4284 193.898 59.5171 195.463C59.2361 194.722 59.0463 193.954 58.9512 193.173C58.7624 192.409 58.6714 191.628 58.6803 190.844Z" fill="#263238"/>
<path d="M47.1034 209.82C46.5901 211.048 45.9867 212.241 45.2974 213.39C44.6936 214.583 44.0016 215.734 43.2266 216.836C43.7412 215.609 44.3446 214.417 45.0326 213.266C45.6364 212.074 46.3284 210.922 47.1034 209.82Z" fill="#263238"/>
<path d="M40.2109 203.375C40.8061 204.19 41.32 205.055 41.746 205.958C42.2586 206.82 42.6858 207.725 43.0223 208.66C42.4271 207.845 41.9132 206.98 41.4872 206.077C40.9758 205.214 40.5487 204.31 40.2109 203.375Z" fill="#263238"/>
<path d="M30.0998 225.413C30.0998 225.492 28.8536 225.267 27.3185 225.171C25.7834 225.075 24.5373 225.126 24.5312 225.047C25.4515 224.841 26.4037 224.791 27.3426 224.9C28.2869 224.916 29.2207 225.09 30.0998 225.413Z" fill="#263238"/>
<path d="M37 244.896L40.4434 261.867C40.554 262.411 40.8633 262.901 41.3182 263.254C41.7731 263.607 42.345 263.801 42.9357 263.802H53.1155C53.717 263.801 54.2987 263.601 54.7573 263.236C55.2159 262.872 55.5215 262.367 55.6199 261.811L58.6299 244.891L37 244.896Z" fill="#263238"/>
<path d="M38.1197 250.414H57.5824L58.6118 244.898H37L38.1197 250.414Z" fill="#455A64"/>
<path d="M38.1172 250.414L38.5265 252.428H57.2788L57.5798 250.414H38.1172Z" fill="#FAFAFA"/>
</svg>
