<svg width="104" height="72" viewBox="0 0 104 72" fill="none" xmlns="http://www.w3.org/2000/svg">
<path d="M5.57031 71.1909L12.292 61.802L0.800131 60.6752L5.57031 71.1909ZM7.582 63.6932C7.89853 62.0153 8.27316 60.3592 8.70347 58.7269L6.76953 58.2171C6.32717 59.8952 5.94205 61.5976 5.61666 63.3225L7.582 63.6932ZM10.1778 53.8473C10.7289 52.2335 11.3353 50.6459 11.9946 49.0863L10.1524 48.3075C9.47486 49.9103 8.85154 51.5421 8.28507 53.201L10.1778 53.8473ZM14.1424 44.4658C14.9137 42.9481 15.7363 41.461 16.6077 40.0062L14.8919 38.9785C13.9969 40.4727 13.1519 42.0004 12.3594 43.5596L14.1424 44.4658ZM19.3761 35.7253C20.3483 34.3291 21.3672 32.9675 22.43 31.6423L20.8699 30.391C19.779 31.7511 18.733 33.1489 17.7348 34.5824L19.3761 35.7253ZM25.7521 27.7737C26.9025 26.5212 28.0942 25.3073 29.3247 24.1339L27.9444 22.6865C26.6822 23.8903 25.4595 25.1357 24.2791 26.4208L25.7521 27.7737ZM33.1296 20.7368C34.4342 19.6467 35.7748 18.5989 37.1487 17.5954L35.969 15.9804C34.5601 17.0095 33.1853 18.084 31.8472 19.2021L33.1296 20.7368ZM41.3638 14.7217C42.7987 13.8103 44.2639 12.9449 45.7568 12.1274L44.7963 10.3732C43.2653 11.2115 41.7628 12.0989 40.2914 13.0335L41.3638 14.7217ZM50.3082 9.82414C51.8482 9.10677 53.4129 8.43886 54.9997 7.82226L54.2753 5.95806C52.6477 6.59049 51.0429 7.27551 49.4637 8.01119L50.3082 9.82414ZM59.8122 6.13189C61.4318 5.62224 63.0706 5.1652 64.726 4.76258L64.2533 2.81923C62.5547 3.23236 60.8733 3.70128 59.2119 4.22411L59.8122 6.13189ZM69.7176 3.72357C71.3878 3.43384 73.0718 3.19932 74.7669 3.02178L74.5586 1.03266C72.8185 1.21492 71.09 1.45564 69.3758 1.753L69.7176 3.72357ZM79.8525 2.66295C81.5446 2.60124 83.2452 2.59673 84.9517 2.65111L85.0154 0.652122C83.2631 0.596285 81.5169 0.600924 79.7796 0.664276L79.8525 2.66295ZM90.0395 2.98783C91.7197 3.15696 93.4033 3.38418 95.0882 3.67109L95.424 1.69947C93.694 1.40488 91.9651 1.17156 90.2398 0.997884L90.0395 2.98783ZM100.08 4.69698C100.905 4.89601 101.731 5.10975 102.555 5.33839L103.09 3.41109C102.243 3.17642 101.396 2.95703 100.549 2.75271L100.08 4.69698Z" fill="white"/>
</svg>
