<svg width="253" height="208" viewBox="0 0 253 208" fill="none" xmlns="http://www.w3.org/2000/svg">
<path d="M25.3864 26.8537C25.3864 28.0961 25.1591 29.1643 24.7045 30.0582C24.25 30.9484 23.6269 31.634 22.8352 32.1151C22.0473 32.5923 21.1515 32.831 20.1477 32.831C19.1402 32.831 18.2405 32.5923 17.4489 32.1151C16.661 31.634 16.0398 30.9465 15.5852 30.0526C15.1307 29.1586 14.9034 28.0923 14.9034 26.8537C14.9034 25.6113 15.1307 24.545 15.5852 23.6548C16.0398 22.7609 16.661 22.0753 17.4489 21.598C18.2405 21.117 19.1402 20.8764 20.1477 20.8764C21.1515 20.8764 22.0473 21.117 22.8352 21.598C23.6269 22.0753 24.25 22.7609 24.7045 23.6548C25.1591 24.545 25.3864 25.6113 25.3864 26.8537ZM23.6477 26.8537C23.6477 25.9067 23.4943 25.1094 23.1875 24.4616C22.8845 23.8101 22.4678 23.3177 21.9375 22.9844C21.411 22.6473 20.8144 22.4787 20.1477 22.4787C19.4773 22.4787 18.8788 22.6473 18.3523 22.9844C17.8258 23.3177 17.4091 23.8101 17.1023 24.4616C16.7992 25.1094 16.6477 25.9067 16.6477 26.8537C16.6477 27.8007 16.7992 28.5999 17.1023 29.2514C17.4091 29.8991 17.8258 30.3916 18.3523 30.7287C18.8788 31.062 19.4773 31.2287 20.1477 31.2287C20.8144 31.2287 21.411 31.062 21.9375 30.7287C22.4678 30.3916 22.8845 29.8991 23.1875 29.2514C23.4943 28.5999 23.6477 27.8007 23.6477 26.8537ZM29.1378 27.4901V32.6719H27.4389V23.9446H29.0696V25.3651H29.1776C29.3783 24.9029 29.6927 24.5317 30.1207 24.2514C30.5526 23.9711 31.0961 23.831 31.7514 23.831C32.3461 23.831 32.867 23.956 33.3139 24.206C33.7609 24.4522 34.1075 24.8196 34.3537 25.3082C34.5999 25.7969 34.723 26.401 34.723 27.1207V32.6719H33.0241V27.3253C33.0241 26.6927 32.8594 26.1984 32.5298 25.8423C32.2003 25.4825 31.7476 25.3026 31.1719 25.3026C30.7779 25.3026 30.4276 25.3878 30.1207 25.5582C29.8177 25.7287 29.5772 25.9787 29.3991 26.3082C29.2249 26.634 29.1378 27.0279 29.1378 27.4901ZM41.3722 32.6719V21.0355H45.5199C46.4252 21.0355 47.1752 21.2003 47.7699 21.5298C48.3646 21.8594 48.8097 22.3101 49.1051 22.8821C49.4006 23.4503 49.5483 24.0904 49.5483 24.8026C49.5483 25.5185 49.3987 26.1624 49.0994 26.7344C48.804 27.3026 48.357 27.7533 47.7585 28.0866C47.1638 28.4162 46.4157 28.581 45.5142 28.581H42.6619V27.0923H45.3551C45.9271 27.0923 46.3911 26.9938 46.7472 26.7969C47.1032 26.5961 47.3646 26.3234 47.5312 25.9787C47.6979 25.634 47.7812 25.242 47.7812 24.8026C47.7812 24.3632 47.6979 23.973 47.5312 23.6321C47.3646 23.2912 47.1013 23.0241 46.7415 22.831C46.3854 22.6378 45.9157 22.5412 45.3324 22.5412H43.1278V32.6719H41.3722ZM53.9318 32.8651C53.3788 32.8651 52.8788 32.7628 52.4318 32.5582C51.9848 32.3499 51.6307 32.0488 51.3693 31.6548C51.1117 31.2609 50.983 30.7779 50.983 30.206C50.983 29.7135 51.0777 29.3082 51.267 28.9901C51.4564 28.6719 51.7121 28.42 52.0341 28.2344C52.3561 28.0488 52.7159 27.9086 53.1136 27.8139C53.5114 27.7192 53.9167 27.6473 54.3295 27.598C54.8523 27.5374 55.2765 27.4882 55.6023 27.4503C55.928 27.4086 56.1648 27.3423 56.3125 27.2514C56.4602 27.1605 56.5341 27.0128 56.5341 26.8082V26.7685C56.5341 26.2723 56.3939 25.8878 56.1136 25.6151C55.8371 25.3423 55.4242 25.206 54.875 25.206C54.303 25.206 53.8523 25.3329 53.5227 25.5866C53.197 25.8366 52.9716 26.1151 52.8466 26.4219L51.25 26.0582C51.4394 25.5279 51.7159 25.0999 52.0795 24.7741C52.447 24.4446 52.8693 24.206 53.3466 24.0582C53.8239 23.9067 54.3258 23.831 54.8523 23.831C55.2008 23.831 55.5701 23.8726 55.9602 23.956C56.3542 24.0355 56.7216 24.1832 57.0625 24.3991C57.4072 24.6151 57.6894 24.9238 57.9091 25.3253C58.1288 25.723 58.2386 26.2401 58.2386 26.8764V32.6719H56.5795V31.4787H56.5114C56.4015 31.6984 56.2367 31.9143 56.017 32.1264C55.7973 32.3385 55.5152 32.5147 55.1705 32.6548C54.8258 32.795 54.4129 32.8651 53.9318 32.8651ZM54.3011 31.5014C54.7708 31.5014 55.1723 31.4086 55.5057 31.223C55.8428 31.0374 56.0985 30.795 56.2727 30.4957C56.4508 30.1927 56.5398 29.8688 56.5398 29.5241V28.3991C56.4792 28.4598 56.3617 28.5166 56.1875 28.5696C56.017 28.6188 55.822 28.6624 55.6023 28.7003C55.3826 28.7344 55.1686 28.7666 54.9602 28.7969C54.7519 28.8234 54.5777 28.8461 54.4375 28.8651C54.108 28.9067 53.8068 28.9768 53.5341 29.0753C53.2652 29.1738 53.0492 29.3158 52.8864 29.5014C52.7273 29.6832 52.6477 29.9257 52.6477 30.2287C52.6477 30.6491 52.803 30.9673 53.1136 31.1832C53.4242 31.3954 53.8201 31.5014 54.3011 31.5014ZM64.1605 36.1264C63.4673 36.1264 62.8707 36.0355 62.3707 35.8537C61.8745 35.6719 61.4692 35.4313 61.1548 35.1321C60.8404 34.8329 60.6056 34.5052 60.4503 34.1491L61.9105 33.5469C62.0128 33.7135 62.1491 33.8897 62.3196 34.0753C62.4938 34.2647 62.7287 34.4257 63.0241 34.5582C63.3234 34.6908 63.7079 34.7571 64.1776 34.7571C64.8215 34.7571 65.3537 34.5999 65.7741 34.2855C66.1946 33.9749 66.4048 33.4787 66.4048 32.7969V31.081H66.2969C66.1946 31.2666 66.0469 31.473 65.8537 31.7003C65.6643 31.9276 65.4029 32.1245 65.0696 32.2912C64.7363 32.4579 64.3026 32.5412 63.7685 32.5412C63.0791 32.5412 62.4579 32.3802 61.9048 32.0582C61.3556 31.7325 60.92 31.2533 60.598 30.6207C60.2798 29.9844 60.1207 29.2022 60.1207 28.2741C60.1207 27.3461 60.2779 26.5507 60.5923 25.8878C60.9105 25.2249 61.3461 24.7173 61.8991 24.3651C62.4522 24.009 63.0791 23.831 63.7798 23.831C64.3215 23.831 64.759 23.9219 65.0923 24.1037C65.4257 24.2817 65.6851 24.4901 65.8707 24.7287C66.0601 24.9673 66.206 25.1776 66.3082 25.3594H66.4332V23.9446H68.098V32.8651C68.098 33.6151 67.9238 34.2306 67.5753 34.7116C67.2268 35.1927 66.7552 35.5488 66.1605 35.7798C65.5696 36.0109 64.9029 36.1264 64.1605 36.1264ZM64.1435 31.1321C64.6321 31.1321 65.045 31.0185 65.3821 30.7912C65.723 30.5601 65.9806 30.2306 66.1548 29.8026C66.3329 29.3707 66.4219 28.8537 66.4219 28.2514C66.4219 27.6643 66.3348 27.1473 66.1605 26.7003C65.9863 26.2533 65.7306 25.9048 65.3935 25.6548C65.0563 25.401 64.6397 25.2741 64.1435 25.2741C63.6321 25.2741 63.206 25.4067 62.8651 25.6719C62.5241 25.9332 62.2666 26.2893 62.0923 26.7401C61.9219 27.1908 61.8366 27.6946 61.8366 28.2514C61.8366 28.8234 61.9238 29.3253 62.098 29.7571C62.2723 30.1889 62.5298 30.526 62.8707 30.7685C63.2154 31.0109 63.6397 31.1321 64.1435 31.1321ZM74.1378 32.848C73.2779 32.848 72.5374 32.6643 71.9162 32.2969C71.2988 31.9257 70.8215 31.4048 70.4844 30.7344C70.151 30.0601 69.9844 29.2704 69.9844 28.3651C69.9844 27.4711 70.151 26.6832 70.4844 26.0014C70.8215 25.3196 71.2912 24.7874 71.8935 24.4048C72.4995 24.0223 73.2079 23.831 74.0185 23.831C74.5109 23.831 74.9882 23.9124 75.4503 24.0753C75.9124 24.2382 76.3272 24.4938 76.6946 24.8423C77.062 25.1908 77.3518 25.6435 77.5639 26.2003C77.776 26.7533 77.8821 27.4257 77.8821 28.2173V28.8196H70.9446V27.5469H76.2173C76.2173 27.0999 76.1264 26.7041 75.9446 26.3594C75.7628 26.0109 75.5071 25.7363 75.1776 25.5355C74.8518 25.3348 74.4692 25.2344 74.0298 25.2344C73.5526 25.2344 73.1359 25.3518 72.7798 25.5866C72.4276 25.8177 72.1548 26.1207 71.9616 26.4957C71.7723 26.867 71.6776 27.2704 71.6776 27.706V28.7003C71.6776 29.2836 71.7798 29.7798 71.9844 30.1889C72.1927 30.598 72.4825 30.9105 72.8537 31.1264C73.2249 31.3385 73.6586 31.4446 74.1548 31.4446C74.4768 31.4446 74.7704 31.3991 75.0355 31.3082C75.3007 31.2135 75.5298 31.0734 75.723 30.8878C75.9162 30.7022 76.0639 30.473 76.1662 30.2003L77.7741 30.4901C77.6454 30.9635 77.4143 31.3783 77.081 31.7344C76.7514 32.0866 76.3366 32.3613 75.8366 32.5582C75.3404 32.7514 74.7741 32.848 74.1378 32.848Z" fill="white"/>
<rect x="14" y="52.6719" width="140.55" height="19.7748" rx="2.38741" fill="#35363A"/>
<path d="M19.8303 67.0586V58.3313H20.8871V62.6609H20.9893L24.9098 58.3313H26.2905L22.6257 62.2688L26.2905 67.0586H25.0121L21.978 63.0018L20.8871 64.229V67.0586H19.8303ZM29.7859 67.195C29.1552 67.195 28.6112 67.0558 28.1538 66.7773C27.6992 66.4961 27.3484 66.104 27.1012 65.6012C26.8569 65.0955 26.7347 64.5075 26.7347 63.837C26.7347 63.1665 26.8569 62.5756 27.1012 62.0643C27.3484 61.5501 27.6921 61.1495 28.1325 60.8626C28.5756 60.5728 29.0927 60.4279 29.6836 60.4279C30.0245 60.4279 30.3612 60.4847 30.6935 60.5984C31.0259 60.712 31.3285 60.8967 31.6012 61.1523C31.8739 61.4052 32.0913 61.7404 32.2532 62.158C32.4151 62.5756 32.4961 63.0898 32.4961 63.7006V64.1268H27.4506V63.2575H31.4734C31.4734 62.8881 31.3995 62.5586 31.2518 62.2688C31.1069 61.979 30.8995 61.7504 30.6296 61.5827C30.3626 61.4151 30.0472 61.3313 29.6836 61.3313C29.283 61.3313 28.9364 61.4308 28.6438 61.6296C28.354 61.8256 28.131 62.0813 27.9748 62.3967C27.8185 62.712 27.7404 63.0501 27.7404 63.4109V63.9904C27.7404 64.4847 27.8256 64.9038 27.9961 65.2475C28.1694 65.5884 28.4094 65.8484 28.7163 66.0273C29.0231 66.2035 29.3796 66.2915 29.7859 66.2915C30.0501 66.2915 30.2887 66.2546 30.5018 66.1808C30.7177 66.104 30.9038 65.9904 31.06 65.8398C31.2163 65.6864 31.337 65.4961 31.4222 65.2688L32.3938 65.5415C32.2915 65.8711 32.1197 66.1609 31.8782 66.4109C31.6367 66.658 31.3384 66.8512 30.9833 66.9904C30.6282 67.1268 30.229 67.195 29.7859 67.195ZM34.4744 69.5131C34.304 69.5131 34.152 69.4989 34.0185 69.4705C33.8849 69.445 33.7926 69.4194 33.7415 69.3938L33.9972 68.5075C34.2415 68.57 34.4574 68.5927 34.6449 68.5756C34.8324 68.5586 34.9986 68.4748 35.1435 68.3242C35.2912 68.1765 35.4261 67.9364 35.5483 67.604L35.7358 67.0927L33.3153 60.5131H34.4062L36.2131 65.729H36.2812L38.0881 60.5131H39.179L36.4006 68.0131C36.2756 68.3512 36.1207 68.631 35.9361 68.8526C35.7514 69.0771 35.5369 69.2433 35.2926 69.3512C35.0511 69.4592 34.7784 69.5131 34.4744 69.5131ZM41.9893 67.0586L39.995 60.5131H41.0518L42.4666 65.5245H42.5348L43.9325 60.5131H45.0064L46.3871 65.5075H46.4553L47.87 60.5131H48.9268L46.9325 67.0586H45.9439L44.5121 62.0302H44.4098L42.978 67.0586H41.9893ZM52.6928 67.195C52.1019 67.195 51.5835 67.0543 51.1374 66.7731C50.6942 66.4918 50.3477 66.0984 50.0977 65.5927C49.8505 65.087 49.7269 64.4961 49.7269 63.82C49.7269 63.1381 49.8505 62.543 50.0977 62.0344C50.3477 61.5259 50.6942 61.131 51.1374 60.8498C51.5835 60.5685 52.1019 60.4279 52.6928 60.4279C53.2837 60.4279 53.8008 60.5685 54.244 60.8498C54.69 61.131 55.0366 61.5259 55.2837 62.0344C55.5337 62.543 55.6587 63.1381 55.6587 63.82C55.6587 64.4961 55.5337 65.087 55.2837 65.5927C55.0366 66.0984 54.69 66.4918 54.244 66.7731C53.8008 67.0543 53.2837 67.195 52.6928 67.195ZM52.6928 66.2915C53.1417 66.2915 53.511 66.1765 53.8008 65.9464C54.0906 65.7163 54.305 65.4137 54.4442 65.0387C54.5835 64.6637 54.6531 64.2575 54.6531 63.82C54.6531 63.3825 54.5835 62.9748 54.4442 62.5969C54.305 62.2191 54.0906 61.9137 53.8008 61.6808C53.511 61.4478 53.1417 61.3313 52.6928 61.3313C52.244 61.3313 51.8746 61.4478 51.5849 61.6808C51.2951 61.9137 51.0806 62.2191 50.9414 62.5969C50.8022 62.9748 50.7326 63.3825 50.7326 63.82C50.7326 64.2575 50.8022 64.6637 50.9414 65.0387C51.0806 65.4137 51.2951 65.7163 51.5849 65.9464C51.8746 66.1765 52.244 66.2915 52.6928 66.2915ZM57.1939 67.0586V60.5131H58.1655V61.5018H58.2337C58.353 61.1779 58.5689 60.9151 58.8814 60.7134C59.1939 60.5117 59.5462 60.4109 59.9382 60.4109C60.0121 60.4109 60.1044 60.4123 60.2152 60.4151C60.326 60.418 60.4098 60.4222 60.4666 60.4279V61.4506C60.4325 61.4421 60.3544 61.4293 60.2322 61.4123C60.1129 61.3924 59.9865 61.3825 59.853 61.3825C59.5348 61.3825 59.2507 61.4492 59.0007 61.5827C58.7536 61.7134 58.5575 61.8952 58.4126 62.1282C58.2706 62.3583 58.1996 62.6211 58.1996 62.9165V67.0586H57.1939ZM63.9311 67.195C63.3857 67.195 62.9041 67.0572 62.4865 66.7816C62.0689 66.5032 61.7422 66.1112 61.5064 65.6055C61.2706 65.0969 61.1527 64.4961 61.1527 63.8029C61.1527 63.1154 61.2706 62.5188 61.5064 62.0131C61.7422 61.5075 62.0703 61.1168 62.4908 60.8413C62.9112 60.5657 63.397 60.4279 63.9482 60.4279C64.3743 60.4279 64.7109 60.4989 64.9581 60.641C65.2081 60.7802 65.3984 60.9393 65.5291 61.1183C65.6626 61.2944 65.7663 61.4393 65.8402 61.5529H65.9254V58.3313H66.9311V67.0586H65.9595V66.0529H65.8402C65.7663 66.1722 65.6612 66.3228 65.5249 66.5046C65.3885 66.6836 65.1939 66.8441 64.9411 66.9862C64.6882 67.1254 64.3516 67.195 63.9311 67.195ZM64.0675 66.2915C64.4709 66.2915 64.8118 66.1864 65.0902 65.9762C65.3686 65.7631 65.5803 65.4691 65.7251 65.0941C65.87 64.7163 65.9425 64.2802 65.9425 63.7859C65.9425 63.2972 65.8714 62.8697 65.7294 62.5032C65.5874 62.1339 65.3771 61.8469 65.0987 61.6424C64.8203 61.435 64.4766 61.3313 64.0675 61.3313C63.6413 61.3313 63.2862 61.4407 63.0021 61.6594C62.7209 61.8754 62.5092 62.1694 62.3672 62.5415C62.228 62.9109 62.1584 63.3256 62.1584 63.7859C62.1584 64.2518 62.2294 64.6751 62.3714 65.0558C62.5163 65.4336 62.7294 65.7347 63.0107 65.9592C63.2947 66.1808 63.647 66.2915 64.0675 66.2915ZM79.7876 62.695C79.7876 63.6154 79.6214 64.4109 79.2891 65.0813C78.9567 65.7518 78.5007 66.2688 77.9212 66.6325C77.3416 66.9961 76.6797 67.1779 75.9354 67.1779C75.1911 67.1779 74.5291 66.9961 73.9496 66.6325C73.37 66.2688 72.9141 65.7518 72.5817 65.0813C72.2493 64.4109 72.0831 63.6154 72.0831 62.695C72.0831 61.7745 72.2493 60.979 72.5817 60.3086C72.9141 59.6381 73.37 59.1211 73.9496 58.7575C74.5291 58.3938 75.1911 58.212 75.9354 58.212C76.6797 58.212 77.3416 58.3938 77.9212 58.7575C78.5007 59.1211 78.9567 59.6381 79.2891 60.3086C79.6214 60.979 79.7876 61.7745 79.7876 62.695ZM78.7649 62.695C78.7649 61.9393 78.6385 61.3015 78.3857 60.7816C78.1357 60.2617 77.7962 59.8683 77.3672 59.6012C76.9411 59.3342 76.4638 59.2006 75.9354 59.2006C75.407 59.2006 74.9283 59.3342 74.4993 59.6012C74.0732 59.8683 73.7337 60.2617 73.4808 60.7816C73.2308 61.3015 73.1058 61.9393 73.1058 62.695C73.1058 63.4506 73.2308 64.0884 73.4808 64.6083C73.7337 65.1282 74.0732 65.5217 74.4993 65.7887C74.9283 66.0558 75.407 66.1893 75.9354 66.1893C76.4638 66.1893 76.9411 66.0558 77.3672 65.7887C77.7962 65.5217 78.1357 65.1282 78.3857 64.6083C78.6385 64.0884 78.7649 63.4506 78.7649 62.695ZM81.4283 69.5131V60.5131H82.3999V61.5529H82.5192C82.593 61.4393 82.6953 61.2944 82.826 61.1183C82.9595 60.9393 83.1499 60.7802 83.397 60.641C83.647 60.4989 83.9851 60.4279 84.4112 60.4279C84.9624 60.4279 85.4482 60.5657 85.8686 60.8413C86.2891 61.1168 86.6172 61.5075 86.853 62.0131C87.0888 62.5188 87.2067 63.1154 87.2067 63.8029C87.2067 64.4961 87.0888 65.0969 86.853 65.6055C86.6172 66.1112 86.2905 66.5032 85.8729 66.7816C85.4553 67.0572 84.9737 67.195 84.4283 67.195C84.0078 67.195 83.6712 67.1254 83.4183 66.9862C83.1655 66.8441 82.9709 66.6836 82.8345 66.5046C82.6982 66.3228 82.593 66.1722 82.5192 66.0529H82.4339V69.5131H81.4283ZM82.4169 63.7859C82.4169 64.2802 82.4893 64.7163 82.6342 65.0941C82.7791 65.4691 82.9908 65.7631 83.2692 65.9762C83.5476 66.1864 83.8885 66.2915 84.2919 66.2915C84.7124 66.2915 85.0632 66.1808 85.3445 65.9592C85.6286 65.7347 85.8416 65.4336 85.9837 65.0558C86.1286 64.6751 86.201 64.2518 86.201 63.7859C86.201 63.3256 86.13 62.9109 85.9879 62.5415C85.8487 62.1694 85.6371 61.8754 85.353 61.6594C85.0717 61.4407 84.718 61.3313 84.2919 61.3313C83.8828 61.3313 83.5391 61.435 83.2607 61.6424C82.9822 61.8469 82.772 62.1339 82.63 62.5032C82.4879 62.8697 82.4169 63.2972 82.4169 63.7859ZM91.5874 60.5131V61.3654H88.1953V60.5131H91.5874ZM89.1839 58.945H90.1896V65.1836C90.1896 65.4677 90.2308 65.6808 90.3132 65.8228C90.3984 65.962 90.5064 66.0558 90.6371 66.104C90.7706 66.1495 90.9112 66.1722 91.0589 66.1722C91.1697 66.1722 91.2607 66.1665 91.3317 66.1552C91.4027 66.141 91.4595 66.1296 91.5021 66.1211L91.7067 67.0245C91.6385 67.0501 91.5433 67.0756 91.4212 67.1012C91.299 67.1296 91.1442 67.1438 90.9567 67.1438C90.6726 67.1438 90.3942 67.0827 90.1214 66.9606C89.8516 66.8384 89.6271 66.6523 89.4482 66.4023C89.272 66.1523 89.1839 65.837 89.1839 65.4563V58.945ZM93.1001 67.0586V60.5131H94.1058V67.0586H93.1001ZM93.6115 59.4222C93.4155 59.4222 93.2464 59.3555 93.1044 59.2219C92.9652 59.0884 92.8956 58.9279 92.8956 58.7404C92.8956 58.5529 92.9652 58.3924 93.1044 58.2589C93.2464 58.1254 93.4155 58.0586 93.6115 58.0586C93.8075 58.0586 93.9751 58.1254 94.1143 58.2589C94.2564 58.3924 94.3274 58.5529 94.3274 58.7404C94.3274 58.9279 94.2564 59.0884 94.1143 59.2219C93.9751 59.3555 93.8075 59.4222 93.6115 59.4222ZM95.9478 67.0586V60.5131H96.9194V61.5359H97.0046C97.141 61.1864 97.3612 60.9151 97.6651 60.7219C97.9691 60.5259 98.3342 60.4279 98.7603 60.4279C99.1921 60.4279 99.5515 60.5259 99.8384 60.7219C100.128 60.9151 100.354 61.1864 100.516 61.5359H100.584C100.752 61.1978 101.003 60.9293 101.338 60.7305C101.674 60.5288 102.076 60.4279 102.544 60.4279C103.13 60.4279 103.608 60.6112 103.98 60.9776C104.353 61.3413 104.539 61.908 104.539 62.6779V67.0586H103.533V62.6779C103.533 62.195 103.401 61.8498 103.137 61.6424C102.873 61.435 102.561 61.3313 102.203 61.3313C101.743 61.3313 101.387 61.4705 101.134 61.7489C100.881 62.0245 100.755 62.3739 100.755 62.7972V67.0586H99.7319V62.5756C99.7319 62.2035 99.6112 61.9038 99.3697 61.6765C99.1282 61.4464 98.8171 61.3313 98.4364 61.3313C98.1751 61.3313 97.9308 61.4009 97.7035 61.5401C97.479 61.6793 97.2972 61.8725 97.158 62.1197C97.0217 62.364 96.9535 62.6467 96.9535 62.9677V67.0586H95.9478ZM106.377 67.0586V60.5131H107.383V67.0586H106.377ZM106.889 59.4222C106.693 59.4222 106.524 59.3555 106.382 59.2219C106.243 59.0884 106.173 58.9279 106.173 58.7404C106.173 58.5529 106.243 58.3924 106.382 58.2589C106.524 58.1254 106.693 58.0586 106.889 58.0586C107.085 58.0586 107.252 58.1254 107.392 58.2589C107.534 58.3924 107.605 58.5529 107.605 58.7404C107.605 58.9279 107.534 59.0884 107.392 59.2219C107.252 59.3555 107.085 59.4222 106.889 59.4222ZM109.038 67.0586V66.2915L112.754 61.5188V61.4506H109.157V60.5131H114.049V61.3143L110.435 66.0529V66.1211H114.168V67.0586H109.038ZM117.643 67.212C117.229 67.212 116.852 67.1339 116.514 66.9776C116.176 66.8185 115.908 66.5898 115.709 66.2915C115.51 65.9904 115.411 65.6268 115.411 65.2006C115.411 64.8256 115.484 64.5217 115.632 64.2887C115.78 64.0529 115.977 63.8683 116.224 63.7347C116.472 63.6012 116.744 63.5018 117.043 63.4364C117.344 63.3683 117.646 63.3143 117.95 63.2745C118.348 63.2234 118.67 63.185 118.918 63.1594C119.168 63.131 119.349 63.0842 119.463 63.0188C119.58 62.9535 119.638 62.8398 119.638 62.6779V62.6438C119.638 62.2234 119.523 61.8967 119.293 61.6637C119.065 61.4308 118.72 61.3143 118.257 61.3143C117.777 61.3143 117.401 61.4194 117.128 61.6296C116.855 61.8398 116.663 62.0643 116.553 62.3029L115.598 61.962C115.768 61.5643 115.996 61.2546 116.28 61.033C116.567 60.8086 116.879 60.6523 117.217 60.5643C117.558 60.4734 117.893 60.4279 118.223 60.4279C118.433 60.4279 118.675 60.4535 118.947 60.5046C119.223 60.5529 119.489 60.6538 119.744 60.8072C120.003 60.9606 120.217 61.1921 120.388 61.5018C120.558 61.8114 120.643 62.2262 120.643 62.7461V67.0586H119.638V66.1722H119.587C119.518 66.3143 119.405 66.4663 119.246 66.6282C119.087 66.7901 118.875 66.9279 118.611 67.0415C118.347 67.1552 118.024 67.212 117.643 67.212ZM117.797 66.3086C118.195 66.3086 118.53 66.2305 118.803 66.0742C119.078 65.918 119.286 65.7163 119.425 65.4691C119.567 65.2219 119.638 64.962 119.638 64.6893V63.7688C119.595 63.82 119.501 63.8668 119.357 63.9094C119.214 63.9492 119.05 63.9847 118.862 64.016C118.678 64.0444 118.497 64.07 118.321 64.0927C118.148 64.1126 118.007 64.1296 117.899 64.1438C117.638 64.1779 117.393 64.2333 117.166 64.31C116.942 64.3839 116.76 64.4961 116.621 64.6467C116.484 64.7944 116.416 64.9961 116.416 65.2518C116.416 65.6012 116.545 65.8654 116.804 66.0444C117.065 66.2205 117.396 66.3086 117.797 66.3086ZM125.326 60.5131V61.3654H121.934V60.5131H125.326ZM122.922 58.945H123.928V65.1836C123.928 65.4677 123.969 65.6808 124.051 65.8228C124.137 65.962 124.245 66.0558 124.375 66.104C124.509 66.1495 124.65 66.1722 124.797 66.1722C124.908 66.1722 124.999 66.1665 125.07 66.1552C125.141 66.141 125.198 66.1296 125.24 66.1211L125.445 67.0245C125.377 67.0501 125.282 67.0756 125.159 67.1012C125.037 67.1296 124.882 67.1438 124.695 67.1438C124.411 67.1438 124.132 67.0827 123.86 66.9606C123.59 66.8384 123.365 66.6523 123.186 66.4023C123.01 66.1523 122.922 65.837 122.922 65.4563V58.945ZM126.838 67.0586V60.5131H127.844V67.0586H126.838ZM127.35 59.4222C127.154 59.4222 126.985 59.3555 126.843 59.2219C126.703 59.0884 126.634 58.9279 126.634 58.7404C126.634 58.5529 126.703 58.3924 126.843 58.2589C126.985 58.1254 127.154 58.0586 127.35 58.0586C127.546 58.0586 127.713 58.1254 127.853 58.2589C127.995 58.3924 128.066 58.5529 128.066 58.7404C128.066 58.9279 127.995 59.0884 127.853 59.2219C127.713 59.3555 127.546 59.4222 127.35 59.4222ZM132.345 67.195C131.754 67.195 131.236 67.0543 130.79 66.7731C130.347 66.4918 130 66.0984 129.75 65.5927C129.503 65.087 129.379 64.4961 129.379 63.82C129.379 63.1381 129.503 62.543 129.75 62.0344C130 61.5259 130.347 61.131 130.79 60.8498C131.236 60.5685 131.754 60.4279 132.345 60.4279C132.936 60.4279 133.453 60.5685 133.896 60.8498C134.342 61.131 134.689 61.5259 134.936 62.0344C135.186 62.543 135.311 63.1381 135.311 63.82C135.311 64.4961 135.186 65.087 134.936 65.5927C134.689 66.0984 134.342 66.4918 133.896 66.7731C133.453 67.0543 132.936 67.195 132.345 67.195ZM132.345 66.2915C132.794 66.2915 133.163 66.1765 133.453 65.9464C133.743 65.7163 133.957 65.4137 134.097 65.0387C134.236 64.6637 134.305 64.2575 134.305 63.82C134.305 63.3825 134.236 62.9748 134.097 62.5969C133.957 62.2191 133.743 61.9137 133.453 61.6808C133.163 61.4478 132.794 61.3313 132.345 61.3313C131.896 61.3313 131.527 61.4478 131.237 61.6808C130.947 61.9137 130.733 62.2191 130.594 62.5969C130.455 62.9748 130.385 63.3825 130.385 63.82C130.385 64.2575 130.455 64.6637 130.594 65.0387C130.733 65.4137 130.947 65.7163 131.237 65.9464C131.527 66.1765 131.896 66.2915 132.345 66.2915ZM137.852 63.1211V67.0586H136.846V60.5131H137.818V61.5359H137.903C138.056 61.2035 138.289 60.9364 138.602 60.7347C138.914 60.5302 139.318 60.4279 139.812 60.4279C140.255 60.4279 140.643 60.5188 140.975 60.7006C141.308 60.8796 141.566 61.1523 141.751 61.5188C141.936 61.8825 142.028 62.3427 142.028 62.8995V67.0586H141.022V62.9677C141.022 62.4535 140.889 62.0529 140.622 61.766C140.355 61.4762 139.988 61.3313 139.522 61.3313C139.201 61.3313 138.914 61.4009 138.662 61.5401C138.412 61.6793 138.214 61.8825 138.069 62.1495C137.924 62.4165 137.852 62.7404 137.852 63.1211ZM148.502 61.979L147.599 62.2347C147.542 62.0842 147.458 61.9379 147.347 61.7958C147.239 61.6509 147.092 61.5316 146.904 61.4379C146.717 61.3441 146.477 61.2972 146.184 61.2972C145.783 61.2972 145.45 61.3896 145.183 61.5742C144.918 61.756 144.786 61.9876 144.786 62.2688C144.786 62.5188 144.877 62.7163 145.059 62.8612C145.241 63.006 145.525 63.1268 145.911 63.2234L146.883 63.462C147.468 63.604 147.904 63.8214 148.191 64.114C148.478 64.4038 148.621 64.7773 148.621 65.2347C148.621 65.6097 148.513 65.945 148.298 66.2404C148.085 66.5359 147.786 66.7688 147.403 66.9393C147.019 67.1097 146.573 67.195 146.065 67.195C145.397 67.195 144.844 67.0501 144.407 66.7603C143.969 66.4705 143.692 66.0472 143.576 65.4904L144.531 65.2518C144.621 65.604 144.793 65.8683 145.046 66.0444C145.302 66.2205 145.636 66.3086 146.048 66.3086C146.516 66.3086 146.888 66.2092 147.164 66.0103C147.442 65.8086 147.582 65.5671 147.582 65.2859C147.582 65.0586 147.502 64.8683 147.343 64.7148C147.184 64.5586 146.94 64.4421 146.61 64.3654L145.519 64.1097C144.92 63.9677 144.479 63.7475 144.198 63.4492C143.92 63.1481 143.781 62.7717 143.781 62.32C143.781 61.9506 143.884 61.6239 144.092 61.3398C144.302 61.0558 144.587 60.8327 144.948 60.6708C145.312 60.5089 145.724 60.4279 146.184 60.4279C146.832 60.4279 147.34 60.57 147.71 60.854C148.082 61.1381 148.346 61.5131 148.502 61.979Z" fill="#FBBC04"/>
<rect x="14" y="80.4453" width="125.55" height="19.7748" rx="2.38741" fill="#35363A"/>
<path d="M19.8303 94.832V86.1048H20.8871V89.9911H25.5405V86.1048H26.5973V94.832H25.5405V90.9286H20.8871V94.832H19.8303ZM28.2358 87.0423V86.1048H34.7812V87.0423H32.0369V94.832H30.9801V87.0423H28.2358ZM36.4123 86.1048H37.6737L40.6396 93.3491H40.7418L43.7077 86.1048H44.9691V94.832H43.9805V88.2013H43.8952L41.168 94.832H40.2134L37.4862 88.2013H37.4009V94.832H36.4123V86.1048ZM47.0881 94.832V86.1048H48.1449V93.8945H52.2017V94.832H47.0881ZM64.5767 90.4684C64.5767 91.3888 64.4105 92.1843 64.0781 92.8548C63.7457 93.5252 63.2898 94.0423 62.7102 94.4059C62.1307 94.7695 61.4688 94.9513 60.7244 94.9513C59.9801 94.9513 59.3182 94.7695 58.7386 94.4059C58.1591 94.0423 57.7031 93.5252 57.3707 92.8548C57.0384 92.1843 56.8722 91.3888 56.8722 90.4684C56.8722 89.5479 57.0384 88.7525 57.3707 88.082C57.7031 87.4116 58.1591 86.8945 58.7386 86.5309C59.3182 86.1673 59.9801 85.9854 60.7244 85.9854C61.4688 85.9854 62.1307 86.1673 62.7102 86.5309C63.2898 86.8945 63.7457 87.4116 64.0781 88.082C64.4105 88.7525 64.5767 89.5479 64.5767 90.4684ZM63.554 90.4684C63.554 89.7127 63.4276 89.0749 63.1747 88.555C62.9247 88.0352 62.5852 87.6417 62.1562 87.3746C61.7301 87.1076 61.2528 86.9741 60.7244 86.9741C60.196 86.9741 59.7173 87.1076 59.2884 87.3746C58.8622 87.6417 58.5227 88.0352 58.2699 88.555C58.0199 89.0749 57.8949 89.7127 57.8949 90.4684C57.8949 91.2241 58.0199 91.8619 58.2699 92.3817C58.5227 92.9016 58.8622 93.2951 59.2884 93.5621C59.7173 93.8292 60.196 93.9627 60.7244 93.9627C61.2528 93.9627 61.7301 93.8292 62.1562 93.5621C62.5852 93.2951 62.9247 92.9016 63.1747 92.3817C63.4276 91.8619 63.554 91.2241 63.554 90.4684ZM66.2173 97.2866V88.2866H67.1889V89.3263H67.3082C67.3821 89.2127 67.4844 89.0678 67.6151 88.8917C67.7486 88.7127 67.9389 88.5536 68.1861 88.4144C68.4361 88.2724 68.7741 88.2013 69.2003 88.2013C69.7514 88.2013 70.2372 88.3391 70.6577 88.6147C71.0781 88.8903 71.4063 89.2809 71.642 89.7866C71.8778 90.2923 71.9957 90.8888 71.9957 91.5763C71.9957 92.2695 71.8778 92.8704 71.642 93.3789C71.4063 93.8846 71.0795 94.2766 70.6619 94.555C70.2443 94.8306 69.7628 94.9684 69.2173 94.9684C68.7969 94.9684 68.4602 94.8988 68.2074 94.7596C67.9545 94.6175 67.7599 94.457 67.6236 94.2781C67.4872 94.0962 67.3821 93.9457 67.3082 93.8263H67.223V97.2866H66.2173ZM67.206 91.5593C67.206 92.0536 67.2784 92.4897 67.4233 92.8675C67.5682 93.2425 67.7798 93.5366 68.0582 93.7496C68.3366 93.9599 68.6776 94.065 69.081 94.065C69.5014 94.065 69.8523 93.9542 70.1335 93.7326C70.4176 93.5082 70.6307 93.207 70.7727 92.8292C70.9176 92.4485 70.9901 92.0252 70.9901 91.5593C70.9901 91.0991 70.919 90.6843 70.777 90.315C70.6378 89.9428 70.4261 89.6488 70.142 89.4329C69.8608 89.2141 69.5071 89.1048 69.081 89.1048C68.6719 89.1048 68.3281 89.2085 68.0497 89.4158C67.7713 89.6204 67.5611 89.9073 67.419 90.2766C67.277 90.6431 67.206 91.0707 67.206 91.5593ZM76.3764 88.2866V89.1388H72.9844V88.2866H76.3764ZM73.973 86.7184H74.9787V92.957C74.9787 93.2411 75.0199 93.4542 75.1023 93.5962C75.1875 93.7354 75.2955 93.8292 75.4261 93.8775C75.5597 93.9229 75.7003 93.9457 75.848 93.9457C75.9588 93.9457 76.0497 93.94 76.1207 93.9286C76.1918 93.9144 76.2486 93.9031 76.2912 93.8945L76.4957 94.7979C76.4276 94.8235 76.3324 94.8491 76.2102 94.8746C76.0881 94.9031 75.9332 94.9173 75.7457 94.9173C75.4616 94.9173 75.1832 94.8562 74.9105 94.734C74.6406 94.6119 74.4162 94.4258 74.2372 94.1758C74.0611 93.9258 73.973 93.6104 73.973 93.2298V86.7184ZM77.8892 94.832V88.2866H78.8949V94.832H77.8892ZM78.4006 87.1957C78.2045 87.1957 78.0355 87.1289 77.8935 86.9954C77.7543 86.8619 77.6847 86.7013 77.6847 86.5138C77.6847 86.3263 77.7543 86.1658 77.8935 86.0323C78.0355 85.8988 78.2045 85.832 78.4006 85.832C78.5966 85.832 78.7642 85.8988 78.9034 86.0323C79.0455 86.1658 79.1165 86.3263 79.1165 86.5138C79.1165 86.7013 79.0455 86.8619 78.9034 86.9954C78.7642 87.1289 78.5966 87.1957 78.4006 87.1957ZM80.7369 94.832V88.2866H81.7085V89.3093H81.7937C81.93 88.9599 82.1502 88.6886 82.4542 88.4954C82.7582 88.2994 83.1232 88.2013 83.5494 88.2013C83.9812 88.2013 84.3406 88.2994 84.6275 88.4954C84.9173 88.6886 85.1431 88.9599 85.305 89.3093H85.3732C85.5408 88.9712 85.7923 88.7028 86.1275 88.5039C86.4627 88.3022 86.8647 88.2013 87.3335 88.2013C87.9187 88.2013 88.3974 88.3846 88.7695 88.7511C89.1417 89.1147 89.3278 89.6815 89.3278 90.4513V94.832H88.3221V90.4513C88.3221 89.9684 88.19 89.6232 87.9258 89.4158C87.6616 89.2085 87.3505 89.1048 86.9925 89.1048C86.5323 89.1048 86.1758 89.244 85.9229 89.5224C85.6701 89.7979 85.5437 90.1474 85.5437 90.5707V94.832H84.521V90.3491C84.521 89.9769 84.4002 89.6772 84.1587 89.4499C83.9173 89.2198 83.6062 89.1048 83.2255 89.1048C82.9641 89.1048 82.7198 89.1744 82.4925 89.3136C82.2681 89.4528 82.0863 89.646 81.9471 89.8931C81.8107 90.1374 81.7425 90.4201 81.7425 90.7411V94.832H80.7369ZM91.1665 94.832V88.2866H92.1722V94.832H91.1665ZM91.6779 87.1957C91.4819 87.1957 91.3129 87.1289 91.1708 86.9954C91.0316 86.8619 90.962 86.7013 90.962 86.5138C90.962 86.3263 91.0316 86.1658 91.1708 86.0323C91.3129 85.8988 91.4819 85.832 91.6779 85.832C91.8739 85.832 92.0415 85.8988 92.1808 86.0323C92.3228 86.1658 92.3938 86.3263 92.3938 86.5138C92.3938 86.7013 92.3228 86.8619 92.1808 86.9954C92.0415 87.1289 91.8739 87.1957 91.6779 87.1957ZM93.8267 94.832V94.065L97.5426 89.2923V89.2241H93.946V88.2866H98.8381V89.0877L95.2244 93.8263V93.8945H98.9574V94.832H93.8267ZM102.433 94.9854C102.018 94.9854 101.641 94.9073 101.303 94.7511C100.965 94.592 100.697 94.3633 100.498 94.065C100.299 93.7638 100.2 93.4002 100.2 92.9741C100.2 92.5991 100.273 92.2951 100.421 92.0621C100.569 91.8263 100.766 91.6417 101.013 91.5082C101.261 91.3746 101.533 91.2752 101.832 91.2099C102.133 91.1417 102.435 91.0877 102.739 91.0479C103.137 90.9968 103.46 90.9585 103.707 90.9329C103.957 90.9045 104.138 90.8576 104.252 90.7923C104.369 90.7269 104.427 90.6133 104.427 90.4513V90.4173C104.427 89.9968 104.312 89.6701 104.082 89.4371C103.854 89.2042 103.509 89.0877 103.046 89.0877C102.566 89.0877 102.19 89.1928 101.917 89.4031C101.644 89.6133 101.452 89.8377 101.342 90.0763L100.387 89.7354C100.558 89.3377 100.785 89.0281 101.069 88.8065C101.356 88.582 101.668 88.4258 102.006 88.3377C102.347 88.2468 102.683 88.2013 103.012 88.2013C103.222 88.2013 103.464 88.2269 103.737 88.2781C104.012 88.3263 104.278 88.4272 104.533 88.5806C104.792 88.734 105.006 88.9656 105.177 89.2752C105.347 89.5849 105.433 89.9996 105.433 90.5195V94.832H104.427V93.9457H104.376C104.308 94.0877 104.194 94.2397 104.035 94.4016C103.876 94.5636 103.664 94.7013 103.4 94.815C103.136 94.9286 102.813 94.9854 102.433 94.9854ZM102.586 94.082C102.984 94.082 103.319 94.0039 103.592 93.8477C103.867 93.6914 104.075 93.4897 104.214 93.2425C104.356 92.9954 104.427 92.7354 104.427 92.4627V91.5423C104.384 91.5934 104.29 91.6403 104.146 91.6829C104.004 91.7227 103.839 91.7582 103.651 91.7894C103.467 91.8178 103.286 91.8434 103.11 91.8661C102.937 91.886 102.796 91.9031 102.688 91.9173C102.427 91.9513 102.183 92.0067 101.955 92.0835C101.731 92.1573 101.549 92.2695 101.41 92.4201C101.273 92.5678 101.205 92.7695 101.205 93.0252C101.205 93.3746 101.335 93.6388 101.593 93.8178C101.854 93.994 102.185 94.082 102.586 94.082ZM110.115 88.2866V89.1388H106.723V88.2866H110.115ZM107.711 86.7184H108.717V92.957C108.717 93.2411 108.758 93.4542 108.841 93.5962C108.926 93.7354 109.034 93.8292 109.164 93.8775C109.298 93.9229 109.439 93.9457 109.586 93.9457C109.697 93.9457 109.788 93.94 109.859 93.9286C109.93 93.9144 109.987 93.9031 110.029 93.8945L110.234 94.7979C110.166 94.8235 110.071 94.8491 109.949 94.8746C109.826 94.9031 109.672 94.9173 109.484 94.9173C109.2 94.9173 108.922 94.8562 108.649 94.734C108.379 94.6119 108.154 94.4258 107.975 94.1758C107.799 93.9258 107.711 93.6104 107.711 93.2298V86.7184ZM111.627 94.832V88.2866H112.633V94.832H111.627ZM112.139 87.1957C111.943 87.1957 111.774 87.1289 111.632 86.9954C111.493 86.8619 111.423 86.7013 111.423 86.5138C111.423 86.3263 111.493 86.1658 111.632 86.0323C111.774 85.8988 111.943 85.832 112.139 85.832C112.335 85.832 112.502 85.8988 112.642 86.0323C112.784 86.1658 112.855 86.3263 112.855 86.5138C112.855 86.7013 112.784 86.8619 112.642 86.9954C112.502 87.1289 112.335 87.1957 112.139 87.1957ZM117.134 94.9684C116.543 94.9684 116.025 94.8278 115.579 94.5465C115.136 94.2653 114.789 93.8718 114.539 93.3661C114.292 92.8604 114.168 92.2695 114.168 91.5934C114.168 90.9116 114.292 90.3164 114.539 89.8079C114.789 89.2994 115.136 88.9045 115.579 88.6232C116.025 88.342 116.543 88.2013 117.134 88.2013C117.725 88.2013 118.242 88.342 118.685 88.6232C119.131 88.9045 119.478 89.2994 119.725 89.8079C119.975 90.3164 120.1 90.9116 120.1 91.5934C120.1 92.2695 119.975 92.8604 119.725 93.3661C119.478 93.8718 119.131 94.2653 118.685 94.5465C118.242 94.8278 117.725 94.9684 117.134 94.9684ZM117.134 94.065C117.583 94.065 117.952 93.9499 118.242 93.7198C118.532 93.4897 118.746 93.1871 118.886 92.8121C119.025 92.4371 119.094 92.0309 119.094 91.5934C119.094 91.1559 119.025 90.7482 118.886 90.3704C118.746 89.9925 118.532 89.6871 118.242 89.4542C117.952 89.2212 117.583 89.1048 117.134 89.1048C116.685 89.1048 116.316 89.2212 116.026 89.4542C115.737 89.6871 115.522 89.9925 115.383 90.3704C115.244 90.7482 115.174 91.1559 115.174 91.5934C115.174 92.0309 115.244 92.4371 115.383 92.8121C115.522 93.1871 115.737 93.4897 116.026 93.7198C116.316 93.9499 116.685 94.065 117.134 94.065ZM122.641 90.8945V94.832H121.635V88.2866H122.607V89.3093H122.692C122.846 88.9769 123.078 88.7099 123.391 88.5082C123.703 88.3036 124.107 88.2013 124.601 88.2013C125.044 88.2013 125.432 88.2923 125.765 88.4741C126.097 88.6531 126.355 88.9258 126.54 89.2923C126.725 89.6559 126.817 90.1161 126.817 90.6729V94.832H125.811V90.7411C125.811 90.2269 125.678 89.8263 125.411 89.5394C125.144 89.2496 124.777 89.1048 124.311 89.1048C123.99 89.1048 123.703 89.1744 123.451 89.3136C123.201 89.4528 123.003 89.6559 122.858 89.9229C122.713 90.19 122.641 90.5138 122.641 90.8945ZM133.291 89.7525L132.388 90.0082C132.331 89.8576 132.247 89.7113 132.136 89.5692C132.028 89.4244 131.881 89.305 131.693 89.2113C131.506 89.1175 131.266 89.0707 130.973 89.0707C130.572 89.0707 130.239 89.163 129.972 89.3477C129.707 89.5295 129.575 89.761 129.575 90.0423C129.575 90.2923 129.666 90.4897 129.848 90.6346C130.03 90.7795 130.314 90.9002 130.7 90.9968L131.672 91.2354C132.257 91.3775 132.693 91.5948 132.98 91.8874C133.267 92.1772 133.411 92.5508 133.411 93.0082C133.411 93.3832 133.303 93.7184 133.087 94.0138C132.874 94.3093 132.575 94.5423 132.192 94.7127C131.808 94.8832 131.362 94.9684 130.854 94.9684C130.186 94.9684 129.634 94.8235 129.196 94.5337C128.759 94.244 128.482 93.8207 128.365 93.2638L129.32 93.0252C129.411 93.3775 129.582 93.6417 129.835 93.8178C130.091 93.994 130.425 94.082 130.837 94.082C131.305 94.082 131.678 93.9826 131.953 93.7837C132.232 93.582 132.371 93.3406 132.371 93.0593C132.371 92.832 132.291 92.6417 132.132 92.4883C131.973 92.332 131.729 92.2156 131.399 92.1388L130.308 91.8832C129.709 91.7411 129.268 91.521 128.987 91.2227C128.709 90.9215 128.57 90.5451 128.57 90.0934C128.57 89.7241 128.673 89.3974 128.881 89.1133C129.091 88.8292 129.376 88.6062 129.737 88.4442C130.101 88.2823 130.513 88.2013 130.973 88.2013C131.621 88.2013 132.129 88.3434 132.499 88.6275C132.871 88.9116 133.135 89.2866 133.291 89.7525Z" fill="#FBBC04"/>
<path d="M25.3864 125.404C25.3864 126.647 25.1591 127.715 24.7045 128.609C24.25 129.499 23.6269 130.185 22.8352 130.666C22.0473 131.143 21.1515 131.382 20.1477 131.382C19.1402 131.382 18.2405 131.143 17.4489 130.666C16.661 130.185 16.0398 129.497 15.5852 128.603C15.1307 127.709 14.9034 126.643 14.9034 125.404C14.9034 124.162 15.1307 123.096 15.5852 122.206C16.0398 121.312 16.661 120.626 17.4489 120.149C18.2405 119.668 19.1402 119.427 20.1477 119.427C21.1515 119.427 22.0473 119.668 22.8352 120.149C23.6269 120.626 24.25 121.312 24.7045 122.206C25.1591 123.096 25.3864 124.162 25.3864 125.404ZM23.6477 125.404C23.6477 124.458 23.4943 123.66 23.1875 123.012C22.8845 122.361 22.4678 121.868 21.9375 121.535C21.411 121.198 20.8144 121.029 20.1477 121.029C19.4773 121.029 18.8788 121.198 18.3523 121.535C17.8258 121.868 17.4091 122.361 17.1023 123.012C16.7992 123.66 16.6477 124.458 16.6477 125.404C16.6477 126.351 16.7992 127.151 17.1023 127.802C17.4091 128.45 17.8258 128.942 18.3523 129.279C18.8788 129.613 19.4773 129.779 20.1477 129.779C20.8144 129.779 21.411 129.613 21.9375 129.279C22.4678 128.942 22.8845 128.45 23.1875 127.802C23.4943 127.151 23.6477 126.351 23.6477 125.404ZM31.5923 122.495V123.859H26.6605V122.495H31.5923ZM28.0128 131.223V121.484C28.0128 120.939 28.1321 120.486 28.3707 120.126C28.6094 119.762 28.9257 119.492 29.3196 119.314C29.7135 119.132 30.1416 119.041 30.6037 119.041C30.9446 119.041 31.2363 119.069 31.4787 119.126C31.7211 119.179 31.901 119.228 32.0185 119.274L31.6207 120.649C31.5412 120.626 31.4389 120.6 31.3139 120.569C31.1889 120.535 31.0374 120.518 30.8594 120.518C30.4465 120.518 30.151 120.62 29.973 120.825C29.7988 121.029 29.7116 121.325 29.7116 121.711V131.223H28.0128ZM37.4986 122.495V123.859H32.5668V122.495H37.4986ZM33.919 131.223V121.484C33.919 120.939 34.0384 120.486 34.277 120.126C34.5156 119.762 34.8319 119.492 35.2259 119.314C35.6198 119.132 36.0478 119.041 36.5099 119.041C36.8509 119.041 37.1425 119.069 37.3849 119.126C37.6274 119.179 37.8073 119.228 37.9247 119.274L37.527 120.649C37.4474 120.626 37.3452 120.6 37.2202 120.569C37.0952 120.535 36.9437 120.518 36.7656 120.518C36.3527 120.518 36.0573 120.62 35.8793 120.825C35.705 121.029 35.6179 121.325 35.6179 121.711V131.223H33.919ZM43.6222 131.223V119.586H47.7699C48.6752 119.586 49.4252 119.751 50.0199 120.081C50.6146 120.41 51.0597 120.861 51.3551 121.433C51.6506 122.001 51.7983 122.641 51.7983 123.353C51.7983 124.069 51.6487 124.713 51.3494 125.285C51.054 125.853 50.607 126.304 50.0085 126.637C49.4138 126.967 48.6657 127.132 47.7642 127.132H44.9119V125.643H47.6051C48.1771 125.643 48.6411 125.545 48.9972 125.348C49.3532 125.147 49.6146 124.874 49.7812 124.529C49.9479 124.185 50.0312 123.793 50.0312 123.353C50.0312 122.914 49.9479 122.524 49.7812 122.183C49.6146 121.842 49.3513 121.575 48.9915 121.382C48.6354 121.189 48.1657 121.092 47.5824 121.092H45.3778V131.223H43.6222ZM56.1818 131.416C55.6288 131.416 55.1288 131.314 54.6818 131.109C54.2348 130.901 53.8807 130.6 53.6193 130.206C53.3617 129.812 53.233 129.329 53.233 128.757C53.233 128.264 53.3277 127.859 53.517 127.541C53.7064 127.223 53.9621 126.971 54.2841 126.785C54.6061 126.6 54.9659 126.459 55.3636 126.365C55.7614 126.27 56.1667 126.198 56.5795 126.149C57.1023 126.088 57.5265 126.039 57.8523 126.001C58.178 125.959 58.4148 125.893 58.5625 125.802C58.7102 125.711 58.7841 125.564 58.7841 125.359V125.319C58.7841 124.823 58.6439 124.439 58.3636 124.166C58.0871 123.893 57.6742 123.757 57.125 123.757C56.553 123.757 56.1023 123.884 55.7727 124.137C55.447 124.387 55.2216 124.666 55.0966 124.973L53.5 124.609C53.6894 124.079 53.9659 123.651 54.3295 123.325C54.697 122.995 55.1193 122.757 55.5966 122.609C56.0739 122.458 56.5758 122.382 57.1023 122.382C57.4508 122.382 57.8201 122.423 58.2102 122.507C58.6042 122.586 58.9716 122.734 59.3125 122.95C59.6572 123.166 59.9394 123.475 60.1591 123.876C60.3788 124.274 60.4886 124.791 60.4886 125.427V131.223H58.8295V130.029H58.7614C58.6515 130.249 58.4867 130.465 58.267 130.677C58.0473 130.889 57.7652 131.065 57.4205 131.206C57.0758 131.346 56.6629 131.416 56.1818 131.416ZM56.5511 130.052C57.0208 130.052 57.4223 129.959 57.7557 129.774C58.0928 129.588 58.3485 129.346 58.5227 129.047C58.7008 128.743 58.7898 128.42 58.7898 128.075V126.95C58.7292 127.011 58.6117 127.067 58.4375 127.12C58.267 127.17 58.072 127.213 57.8523 127.251C57.6326 127.285 57.4186 127.317 57.2102 127.348C57.0019 127.374 56.8277 127.397 56.6875 127.416C56.358 127.458 56.0568 127.528 55.7841 127.626C55.5152 127.725 55.2992 127.867 55.1364 128.052C54.9773 128.234 54.8977 128.476 54.8977 128.779C54.8977 129.2 55.053 129.518 55.3636 129.734C55.6742 129.946 56.0701 130.052 56.5511 130.052ZM66.4105 134.677C65.7173 134.677 65.1207 134.586 64.6207 134.404C64.1245 134.223 63.7192 133.982 63.4048 133.683C63.0904 133.384 62.8556 133.056 62.7003 132.7L64.1605 132.098C64.2628 132.264 64.3991 132.44 64.5696 132.626C64.7438 132.815 64.9787 132.976 65.2741 133.109C65.5734 133.242 65.9579 133.308 66.4276 133.308C67.0715 133.308 67.6037 133.151 68.0241 132.836C68.4446 132.526 68.6548 132.029 68.6548 131.348V129.632H68.5469C68.4446 129.817 68.2969 130.024 68.1037 130.251C67.9143 130.478 67.6529 130.675 67.3196 130.842C66.9863 131.009 66.5526 131.092 66.0185 131.092C65.3291 131.092 64.7079 130.931 64.1548 130.609C63.6056 130.283 63.17 129.804 62.848 129.172C62.5298 128.535 62.3707 127.753 62.3707 126.825C62.3707 125.897 62.5279 125.101 62.8423 124.439C63.1605 123.776 63.5961 123.268 64.1491 122.916C64.7022 122.56 65.3291 122.382 66.0298 122.382C66.5715 122.382 67.009 122.473 67.3423 122.654C67.6757 122.833 67.9351 123.041 68.1207 123.279C68.3101 123.518 68.456 123.728 68.5582 123.91H68.6832V122.495H70.348V131.416C70.348 132.166 70.1738 132.781 69.8253 133.262C69.4768 133.743 69.0052 134.1 68.4105 134.331C67.8196 134.562 67.1529 134.677 66.4105 134.677ZM66.3935 129.683C66.8821 129.683 67.295 129.569 67.6321 129.342C67.973 129.111 68.2306 128.781 68.4048 128.353C68.5829 127.922 68.6719 127.404 68.6719 126.802C68.6719 126.215 68.5848 125.698 68.4105 125.251C68.2363 124.804 67.9806 124.456 67.6435 124.206C67.3063 123.952 66.8897 123.825 66.3935 123.825C65.8821 123.825 65.456 123.958 65.1151 124.223C64.7741 124.484 64.5166 124.84 64.3423 125.291C64.1719 125.742 64.0866 126.245 64.0866 126.802C64.0866 127.374 64.1738 127.876 64.348 128.308C64.5223 128.74 64.7798 129.077 65.1207 129.319C65.4654 129.562 65.8897 129.683 66.3935 129.683ZM76.3878 131.399C75.5279 131.399 74.7874 131.215 74.1662 130.848C73.5488 130.476 73.0715 129.956 72.7344 129.285C72.401 128.611 72.2344 127.821 72.2344 126.916C72.2344 126.022 72.401 125.234 72.7344 124.552C73.0715 123.87 73.5412 123.338 74.1435 122.956C74.7495 122.573 75.4579 122.382 76.2685 122.382C76.7609 122.382 77.2382 122.463 77.7003 122.626C78.1624 122.789 78.5772 123.045 78.9446 123.393C79.312 123.742 79.6018 124.194 79.8139 124.751C80.026 125.304 80.1321 125.976 80.1321 126.768V127.37H73.1946V126.098H78.4673C78.4673 125.651 78.3764 125.255 78.1946 124.91C78.0128 124.562 77.7571 124.287 77.4276 124.086C77.1018 123.886 76.7192 123.785 76.2798 123.785C75.8026 123.785 75.3859 123.903 75.0298 124.137C74.6776 124.368 74.4048 124.672 74.2116 125.047C74.0223 125.418 73.9276 125.821 73.9276 126.257V127.251C73.9276 127.834 74.0298 128.331 74.2344 128.74C74.4427 129.149 74.7325 129.461 75.1037 129.677C75.4749 129.889 75.9086 129.995 76.4048 129.995C76.7268 129.995 77.0204 129.95 77.2855 129.859C77.5507 129.764 77.7798 129.624 77.973 129.439C78.1662 129.253 78.3139 129.024 78.4162 128.751L80.0241 129.041C79.8954 129.514 79.6643 129.929 79.331 130.285C79.0014 130.637 78.5866 130.912 78.0866 131.109C77.5904 131.302 77.0241 131.399 76.3878 131.399Z" fill="white"/>
<rect x="14" y="151.223" width="81.5496" height="19.7748" rx="2.38741" fill="#35363A"/>
<path d="M19.8303 165.609V156.882H20.8871V164.672H24.9439V165.609H19.8303ZM26.4439 165.609V159.064H27.4496V165.609H26.4439ZM26.9553 157.973C26.7592 157.973 26.5902 157.906 26.4482 157.773C26.3089 157.639 26.2393 157.479 26.2393 157.291C26.2393 157.104 26.3089 156.943 26.4482 156.81C26.5902 156.676 26.7592 156.609 26.9553 156.609C27.1513 156.609 27.3189 156.676 27.4581 156.81C27.6001 156.943 27.6712 157.104 27.6712 157.291C27.6712 157.479 27.6001 157.639 27.4581 157.773C27.3189 157.906 27.1513 157.973 26.9553 157.973ZM30.2972 161.672V165.609H29.2915V159.064H30.2631V160.087H30.3484C30.5018 159.754 30.7347 159.487 31.0472 159.286C31.3597 159.081 31.7631 158.979 32.2575 158.979C32.7006 158.979 33.0884 159.07 33.4208 159.251C33.7532 159.43 34.0117 159.703 34.1964 160.07C34.381 160.433 34.4734 160.893 34.4734 161.45V165.609H33.4677V161.518C33.4677 161.004 33.3342 160.604 33.0671 160.317C32.8001 160.027 32.4336 159.882 31.9677 159.882C31.6467 159.882 31.3597 159.952 31.1069 160.091C30.8569 160.23 30.6594 160.433 30.5146 160.7C30.3697 160.967 30.2972 161.291 30.2972 161.672ZM37.2486 163.223L37.2315 161.979H37.4361L40.2997 159.064H41.544L38.4929 162.149H38.4077L37.2486 163.223ZM36.3111 165.609V156.882H37.3168V165.609H36.3111ZM40.4702 165.609L37.9134 162.371L38.6293 161.672L41.7486 165.609H40.4702ZM46.3498 165.609V156.882H49.4009C50.0089 156.882 50.5103 156.987 50.9052 157.197C51.3001 157.405 51.5941 157.685 51.7873 158.037C51.9805 158.386 52.0771 158.774 52.0771 159.2C52.0771 159.575 52.0103 159.885 51.8768 160.129C51.7461 160.374 51.5728 160.567 51.3569 160.709C51.1438 160.851 50.9123 160.956 50.6623 161.024V161.109C50.9293 161.126 51.1978 161.22 51.4677 161.391C51.7376 161.561 51.9634 161.805 52.1452 162.124C52.3271 162.442 52.418 162.831 52.418 163.291C52.418 163.729 52.3185 164.122 52.1197 164.472C51.9208 164.821 51.6069 165.098 51.1779 165.303C50.7489 165.507 50.1907 165.609 49.5032 165.609H46.3498ZM47.4066 164.672H49.5032C50.1935 164.672 50.6836 164.538 50.9734 164.271C51.266 164.001 51.4123 163.675 51.4123 163.291C51.4123 162.996 51.337 162.723 51.1864 162.473C51.0359 162.22 50.8214 162.018 50.543 161.868C50.2646 161.714 49.935 161.638 49.5543 161.638H47.4066V164.672ZM47.4066 160.717H49.3668C49.685 160.717 49.9719 160.655 50.2276 160.53C50.4862 160.405 50.6907 160.229 50.8413 160.001C50.9947 159.774 51.0714 159.507 51.0714 159.2C51.0714 158.817 50.9379 158.491 50.6708 158.224C50.4038 157.955 49.9805 157.82 49.4009 157.82H47.4066V160.717ZM58.1431 162.933V159.064H59.1488V165.609H58.1431V164.501H58.0749C57.9215 164.834 57.6829 165.116 57.359 165.349C57.0352 165.58 56.6261 165.695 56.1317 165.695C55.7227 165.695 55.359 165.605 55.0408 165.426C54.7227 165.244 54.4727 164.972 54.2908 164.608C54.109 164.241 54.0181 163.78 54.0181 163.223V159.064H55.0238V163.155C55.0238 163.632 55.1573 164.013 55.4244 164.297C55.6942 164.581 56.038 164.723 56.4556 164.723C56.7056 164.723 56.9599 164.659 57.2184 164.531C57.4798 164.403 57.6985 164.207 57.8746 163.943C58.0536 163.679 58.1431 163.342 58.1431 162.933ZM60.9908 165.609V159.064H61.9964V165.609H60.9908ZM61.5021 157.973C61.3061 157.973 61.1371 157.906 60.995 157.773C60.8558 157.639 60.7862 157.479 60.7862 157.291C60.7862 157.104 60.8558 156.943 60.995 156.81C61.1371 156.676 61.3061 156.609 61.5021 156.609C61.6982 156.609 61.8658 156.676 62.005 156.81C62.147 156.943 62.218 157.104 62.218 157.291C62.218 157.479 62.147 157.639 62.005 157.773C61.8658 157.906 61.6982 157.973 61.5021 157.973ZM64.8441 156.882V165.609H63.8384V156.882H64.8441ZM69.1577 165.746C68.6122 165.746 68.1307 165.608 67.7131 165.332C67.2955 165.054 66.9688 164.662 66.733 164.156C66.4972 163.648 66.3793 163.047 66.3793 162.354C66.3793 161.666 66.4972 161.07 66.733 160.564C66.9688 160.058 67.2969 159.668 67.7173 159.392C68.1378 159.116 68.6236 158.979 69.1747 158.979C69.6009 158.979 69.9375 159.05 70.1847 159.192C70.4347 159.331 70.625 159.49 70.7557 159.669C70.8892 159.845 70.9929 159.99 71.0668 160.104H71.152V156.882H72.1577V165.609H71.1861V164.604H71.0668C70.9929 164.723 70.8878 164.874 70.7514 165.055C70.6151 165.234 70.4205 165.395 70.1676 165.537C69.9148 165.676 69.5781 165.746 69.1577 165.746ZM69.294 164.842C69.6974 164.842 70.0384 164.737 70.3168 164.527C70.5952 164.314 70.8068 164.02 70.9517 163.645C71.0966 163.267 71.169 162.831 71.169 162.337C71.169 161.848 71.098 161.42 70.956 161.054C70.8139 160.685 70.6037 160.398 70.3253 160.193C70.0469 159.986 69.7031 159.882 69.294 159.882C68.8679 159.882 68.5128 159.991 68.2287 160.21C67.9474 160.426 67.7358 160.72 67.5938 161.092C67.4545 161.462 67.3849 161.876 67.3849 162.337C67.3849 162.803 67.456 163.226 67.598 163.607C67.7429 163.984 67.956 164.286 68.2372 164.51C68.5213 164.732 68.8736 164.842 69.294 164.842ZM74.1392 165.609V159.064H75.1449V165.609H74.1392ZM74.6506 157.973C74.4545 157.973 74.2855 157.906 74.1435 157.773C74.0043 157.639 73.9347 157.479 73.9347 157.291C73.9347 157.104 74.0043 156.943 74.1435 156.81C74.2855 156.676 74.4545 156.609 74.6506 156.609C74.8466 156.609 75.0142 156.676 75.1534 156.81C75.2955 156.943 75.3665 157.104 75.3665 157.291C75.3665 157.479 75.2955 157.639 75.1534 157.773C75.0142 157.906 74.8466 157.973 74.6506 157.973ZM77.9925 161.672V165.609H76.9869V159.064H77.9585V160.087H78.0437C78.1971 159.754 78.43 159.487 78.7425 159.286C79.055 159.081 79.4585 158.979 79.9528 158.979C80.396 158.979 80.7837 159.07 81.1161 159.251C81.4485 159.43 81.707 159.703 81.8917 160.07C82.0763 160.433 82.1687 160.893 82.1687 161.45V165.609H81.163V161.518C81.163 161.004 81.0295 160.604 80.7624 160.317C80.4954 160.027 80.1289 159.882 79.663 159.882C79.342 159.882 79.055 159.952 78.8022 160.091C78.5522 160.23 78.3548 160.433 78.2099 160.7C78.065 160.967 77.9925 161.291 77.9925 161.672ZM86.6484 168.2C86.1626 168.2 85.745 168.138 85.3956 168.013C85.0462 167.891 84.755 167.729 84.522 167.527C84.2919 167.328 84.1087 167.115 83.9723 166.888L84.7734 166.325C84.8643 166.445 84.9794 166.581 85.1186 166.734C85.2578 166.891 85.4482 167.026 85.6896 167.139C85.9339 167.256 86.2536 167.314 86.6484 167.314C87.1768 167.314 87.6129 167.186 87.9567 166.93C88.3004 166.675 88.4723 166.274 88.4723 165.729V164.399H88.3871C88.3132 164.518 88.2081 164.666 88.0717 164.842C87.9382 165.016 87.745 165.17 87.4922 165.307C87.2422 165.44 86.9041 165.507 86.478 165.507C85.9496 165.507 85.4751 165.382 85.0547 165.132C84.6371 164.882 84.3061 164.518 84.0618 164.041C83.8203 163.564 83.6996 162.984 83.6996 162.303C83.6996 161.632 83.8175 161.048 84.0533 160.551C84.2891 160.051 84.6172 159.665 85.0376 159.392C85.4581 159.116 85.9439 158.979 86.495 158.979C86.9212 158.979 87.2592 159.05 87.5092 159.192C87.7621 159.331 87.9553 159.49 88.0888 159.669C88.2251 159.845 88.3303 159.99 88.4041 160.104H88.5064V159.064H89.478V165.797C89.478 166.359 89.3501 166.817 89.0945 167.169C88.8416 167.524 88.5007 167.784 88.0717 167.949C87.6456 168.116 87.1712 168.2 86.6484 168.2ZM86.6143 164.604C87.0178 164.604 87.3587 164.511 87.6371 164.327C87.9155 164.142 88.1271 163.876 88.272 163.53C88.4169 163.183 88.4893 162.768 88.4893 162.286C88.4893 161.814 88.4183 161.398 88.2763 161.037C88.1342 160.676 87.924 160.393 87.6456 160.189C87.3672 159.984 87.0234 159.882 86.6143 159.882C86.1882 159.882 85.8331 159.99 85.549 160.206C85.2678 160.422 85.0561 160.712 84.9141 161.075C84.7749 161.439 84.7053 161.842 84.7053 162.286C84.7053 162.74 84.7763 163.142 84.9183 163.491C85.0632 163.838 85.2763 164.111 85.5575 164.31C85.8416 164.506 86.1939 164.604 86.6143 164.604Z" fill="#FBBC04"/>
<rect x="14" y="178.996" width="78.5496" height="19.7748" rx="2.38741" fill="#35363A"/>
<path d="M19.8303 193.383V184.656H22.8814C23.4893 184.656 23.9908 184.761 24.3857 184.971C24.7805 185.178 25.0746 185.458 25.2678 185.81C25.4609 186.16 25.5575 186.548 25.5575 186.974C25.5575 187.349 25.4908 187.658 25.3572 187.903C25.2266 188.147 25.0533 188.34 24.8374 188.482C24.6243 188.624 24.3928 188.729 24.1428 188.798V188.883C24.4098 188.9 24.6783 188.994 24.9482 189.164C25.218 189.335 25.4439 189.579 25.6257 189.897C25.8075 190.215 25.8984 190.604 25.8984 191.065C25.8984 191.502 25.799 191.896 25.6001 192.245C25.4013 192.594 25.0874 192.871 24.6584 193.076C24.2294 193.281 23.6712 193.383 22.9837 193.383H19.8303ZM20.8871 192.445H22.9837C23.674 192.445 24.1641 192.312 24.4538 192.045C24.7464 191.775 24.8928 191.448 24.8928 191.065C24.8928 190.769 24.8175 190.496 24.6669 190.246C24.5163 189.994 24.3018 189.792 24.0234 189.641C23.745 189.488 23.4155 189.411 23.0348 189.411H20.8871V192.445ZM20.8871 188.491H22.8473C23.1655 188.491 23.4524 188.428 23.7081 188.303C23.9666 188.178 24.1712 188.002 24.3217 187.775C24.4751 187.548 24.5518 187.281 24.5518 186.974C24.5518 186.59 24.4183 186.265 24.1513 185.998C23.8842 185.728 23.4609 185.593 22.8814 185.593H20.8871V188.491ZM28.5043 184.656V193.383H27.4986V184.656H28.5043ZM33.0053 193.519C32.4144 193.519 31.896 193.379 31.4499 193.097C31.0067 192.816 30.6602 192.423 30.4102 191.917C30.163 191.411 30.0394 190.82 30.0394 190.144C30.0394 189.462 30.163 188.867 30.4102 188.359C30.6602 187.85 31.0067 187.455 31.4499 187.174C31.896 186.893 32.4144 186.752 33.0053 186.752C33.5962 186.752 34.1133 186.893 34.5565 187.174C35.0025 187.455 35.3491 187.85 35.5962 188.359C35.8462 188.867 35.9712 189.462 35.9712 190.144C35.9712 190.82 35.8462 191.411 35.5962 191.917C35.3491 192.423 35.0025 192.816 34.5565 193.097C34.1133 193.379 33.5962 193.519 33.0053 193.519ZM33.0053 192.616C33.4542 192.616 33.8235 192.501 34.1133 192.271C34.4031 192.04 34.6175 191.738 34.7567 191.363C34.896 190.988 34.9656 190.582 34.9656 190.144C34.9656 189.707 34.896 189.299 34.7567 188.921C34.6175 188.543 34.4031 188.238 34.1133 188.005C33.8235 187.772 33.4542 187.656 33.0053 187.656C32.5565 187.656 32.1871 187.772 31.8974 188.005C31.6076 188.238 31.3931 188.543 31.2539 188.921C31.1147 189.299 31.0451 189.707 31.0451 190.144C31.0451 190.582 31.1147 190.988 31.2539 191.363C31.3931 191.738 31.6076 192.04 31.8974 192.271C32.1871 192.501 32.5565 192.616 33.0053 192.616ZM40.1484 195.974C39.6626 195.974 39.245 195.911 38.8956 195.786C38.5462 195.664 38.255 195.502 38.022 195.3C37.7919 195.102 37.6087 194.888 37.4723 194.661L38.2734 194.099C38.3643 194.218 38.4794 194.354 38.6186 194.508C38.7578 194.664 38.9482 194.799 39.1896 194.913C39.4339 195.029 39.7536 195.087 40.1484 195.087C40.6768 195.087 41.1129 194.96 41.4567 194.704C41.8004 194.448 41.9723 194.048 41.9723 193.502V192.173H41.8871C41.8132 192.292 41.7081 192.44 41.5717 192.616C41.4382 192.789 41.245 192.944 40.9922 193.08C40.7422 193.214 40.4041 193.281 39.978 193.281C39.4496 193.281 38.9751 193.156 38.5547 192.906C38.1371 192.656 37.8061 192.292 37.5618 191.815C37.3203 191.337 37.1996 190.758 37.1996 190.076C37.1996 189.406 37.3175 188.822 37.5533 188.325C37.7891 187.825 38.1172 187.438 38.5376 187.165C38.9581 186.89 39.4439 186.752 39.995 186.752C40.4212 186.752 40.7592 186.823 41.0092 186.965C41.2621 187.104 41.4553 187.263 41.5888 187.442C41.7251 187.619 41.8303 187.763 41.9041 187.877H42.0064V186.837H42.978V193.57C42.978 194.133 42.8501 194.59 42.5945 194.942C42.3416 195.298 42.0007 195.558 41.5717 195.722C41.1456 195.89 40.6712 195.974 40.1484 195.974ZM40.1143 192.377C40.5178 192.377 40.8587 192.285 41.1371 192.1C41.4155 191.915 41.6271 191.65 41.772 191.303C41.9169 190.957 41.9893 190.542 41.9893 190.059C41.9893 189.587 41.9183 189.171 41.7763 188.81C41.6342 188.45 41.424 188.167 41.1456 187.962C40.8672 187.758 40.5234 187.656 40.1143 187.656C39.6882 187.656 39.3331 187.763 39.049 187.979C38.7678 188.195 38.5561 188.485 38.4141 188.849C38.2749 189.212 38.2053 189.616 38.2053 190.059C38.2053 190.513 38.2763 190.915 38.4183 191.265C38.5632 191.612 38.7763 191.884 39.0575 192.083C39.3416 192.279 39.6939 192.377 40.1143 192.377ZM49.9155 193.383L47.5291 184.656H48.603L50.4268 191.763H50.5121L52.37 184.656H53.5632L55.4212 191.763H55.5064L57.3303 184.656H58.4041L56.0178 193.383H54.9268L53.0007 186.428H52.9325L51.0064 193.383H49.9155ZM59.1744 193.383V186.837H60.146V187.826H60.2141C60.3335 187.502 60.5494 187.239 60.8619 187.038C61.1744 186.836 61.5266 186.735 61.9187 186.735C61.9925 186.735 62.0849 186.737 62.1957 186.739C62.3065 186.742 62.3903 186.746 62.4471 186.752V187.775C62.413 187.766 62.3349 187.754 62.2127 187.737C62.0934 187.717 61.967 187.707 61.8335 187.707C61.5153 187.707 61.2312 187.773 60.9812 187.907C60.734 188.038 60.538 188.219 60.3931 188.452C60.2511 188.683 60.18 188.945 60.18 189.241V193.383H59.1744ZM63.6392 193.383V186.837H64.6449V193.383H63.6392ZM64.1506 185.746C63.9545 185.746 63.7855 185.68 63.6435 185.546C63.5043 185.413 63.4347 185.252 63.4347 185.065C63.4347 184.877 63.5043 184.717 63.6435 184.583C63.7855 184.45 63.9545 184.383 64.1506 184.383C64.3466 184.383 64.5142 184.45 64.6534 184.583C64.7955 184.717 64.8665 184.877 64.8665 185.065C64.8665 185.252 64.7955 185.413 64.6534 185.546C64.5142 185.68 64.3466 185.746 64.1506 185.746ZM69.3335 186.837V187.69H65.9414V186.837H69.3335ZM66.93 185.269H67.9357V191.508C67.9357 191.792 67.9769 192.005 68.0593 192.147C68.1445 192.286 68.2525 192.38 68.3832 192.428C68.5167 192.474 68.6573 192.496 68.805 192.496C68.9158 192.496 69.0067 192.491 69.0778 192.479C69.1488 192.465 69.2056 192.454 69.2482 192.445L69.4528 193.349C69.3846 193.374 69.2894 193.4 69.1673 193.425C69.0451 193.454 68.8903 193.468 68.7028 193.468C68.4187 193.468 68.1403 193.407 67.8675 193.285C67.5977 193.163 67.3732 192.977 67.1942 192.727C67.0181 192.477 66.93 192.161 66.93 191.781V185.269ZM70.8462 193.383V186.837H71.8519V193.383H70.8462ZM71.3576 185.746C71.1616 185.746 70.9925 185.68 70.8505 185.546C70.7113 185.413 70.6417 185.252 70.6417 185.065C70.6417 184.877 70.7113 184.717 70.8505 184.583C70.9925 184.45 71.1616 184.383 71.3576 184.383C71.5536 184.383 71.7212 184.45 71.8604 184.583C72.0025 184.717 72.0735 184.877 72.0735 185.065C72.0735 185.252 72.0025 185.413 71.8604 185.546C71.7212 185.68 71.5536 185.746 71.3576 185.746ZM74.6996 189.445V193.383H73.6939V186.837H74.6655V187.86H74.7507C74.9041 187.528 75.1371 187.261 75.4496 187.059C75.7621 186.854 76.1655 186.752 76.6598 186.752C77.103 186.752 77.4908 186.843 77.8232 187.025C78.1555 187.204 78.4141 187.477 78.5987 187.843C78.7834 188.207 78.8757 188.667 78.8757 189.224V193.383H77.87V189.292C77.87 188.778 77.7365 188.377 77.4695 188.09C77.2024 187.8 76.8359 187.656 76.37 187.656C76.049 187.656 75.7621 187.725 75.5092 187.864C75.2592 188.004 75.0618 188.207 74.9169 188.474C74.772 188.741 74.6996 189.065 74.6996 189.445ZM83.3555 195.974C82.8697 195.974 82.4521 195.911 82.1026 195.786C81.7532 195.664 81.462 195.502 81.229 195.3C80.9989 195.102 80.8157 194.888 80.6793 194.661L81.4805 194.099C81.5714 194.218 81.6864 194.354 81.8256 194.508C81.9648 194.664 82.1552 194.799 82.3967 194.913C82.641 195.029 82.9606 195.087 83.3555 195.087C83.8839 195.087 84.32 194.96 84.6637 194.704C85.0075 194.448 85.1793 194.048 85.1793 193.502V192.173H85.0941C85.0202 192.292 84.9151 192.44 84.7788 192.616C84.6452 192.789 84.4521 192.944 84.1992 193.08C83.9492 193.214 83.6112 193.281 83.185 193.281C82.6566 193.281 82.1822 193.156 81.7617 192.906C81.3441 192.656 81.0131 192.292 80.7688 191.815C80.5273 191.337 80.4066 190.758 80.4066 190.076C80.4066 189.406 80.5245 188.822 80.7603 188.325C80.9961 187.825 81.3242 187.438 81.7447 187.165C82.1651 186.89 82.6509 186.752 83.2021 186.752C83.6282 186.752 83.9663 186.823 84.2163 186.965C84.4691 187.104 84.6623 187.263 84.7958 187.442C84.9322 187.619 85.0373 187.763 85.1112 187.877H85.2134V186.837H86.185V193.57C86.185 194.133 86.0572 194.59 85.8015 194.942C85.5487 195.298 85.2077 195.558 84.7788 195.722C84.3526 195.89 83.8782 195.974 83.3555 195.974ZM83.3214 192.377C83.7248 192.377 84.0657 192.285 84.3441 192.1C84.6225 191.915 84.8342 191.65 84.979 191.303C85.1239 190.957 85.1964 190.542 85.1964 190.059C85.1964 189.587 85.1254 189.171 84.9833 188.81C84.8413 188.45 84.631 188.167 84.3526 187.962C84.0742 187.758 83.7305 187.656 83.3214 187.656C82.8952 187.656 82.5401 187.763 82.256 187.979C81.9748 188.195 81.7631 188.485 81.6211 188.849C81.4819 189.212 81.4123 189.616 81.4123 190.059C81.4123 190.513 81.4833 190.915 81.6254 191.265C81.7702 191.612 81.9833 191.884 82.2646 192.083C82.5487 192.279 82.9009 192.377 83.3214 192.377Z" fill="#FBBC04"/>
</svg>
