<svg width="32" height="19" viewBox="0 0 32 19" fill="none" xmlns="http://www.w3.org/2000/svg">
<path d="M31.4772 0.343506C31.0724 2.32481 30.657 4.42329 30.2309 6.63894C29.8261 8.8546 29.4533 11.0276 29.1124 13.1581C28.7929 15.2885 28.5372 17.2272 28.3455 18.9742H17.4163L16.937 18.2711C17.3418 16.6946 17.8424 14.8198 18.4389 12.6468C19.0568 10.4524 19.7172 8.25807 20.4203 6.06373C21.1446 3.84807 21.8689 1.94133 22.5933 0.343506H31.4772ZM15.1794 0.343506C14.7746 2.32481 14.3592 4.42329 13.9331 6.63894C13.5283 8.8546 13.1555 11.0276 12.8146 13.1581C12.495 15.2885 12.2394 17.2272 12.0476 18.9742H1.11851L0.63916 18.2711C1.04394 16.6946 1.5446 14.8198 2.14112 12.6468C2.75894 10.4524 3.41938 8.25807 4.12242 6.06373C4.84677 3.84807 5.57112 1.94133 6.29547 0.343506H15.1794Z" fill="white"/>
</svg>
